G04 #@! TF.FileFunction,Paste,Top*
%FSLAX46Y46*%
G04 Gerber Fmt 4.6, Leading zero omitted, Abs format (unit mm)*
G04 Created by KiCad (PCBNEW 4.0.4-stable) date 12/21/16 23:30:34*
%MOMM*%
%LPD*%
G01*
G04 APERTURE LIST*
%ADD10C,0.254000*%
%ADD11R,2.921000X1.016000*%
%ADD12R,1.524000X1.524000*%
%ADD13R,0.889000X0.889000*%
%ADD14R,1.270000X1.524000*%
%ADD15R,3.345180X1.346200*%
%ADD16R,0.496000X0.546000*%
%ADD17R,0.446000X1.046000*%
%ADD18R,0.646000X0.246000*%
%ADD19R,0.246000X0.646000*%
%ADD20O,0.286000X1.646000*%
%ADD21O,1.646000X0.286000*%
%ADD22R,1.546000X0.546000*%
%ADD23R,1.346000X0.746000*%
%ADD24R,2.245360X1.546860*%
G04 APERTURE END LIST*
D10*
D11*
X91946456Y-110744000D03*
X91946456Y-108204000D03*
X91946456Y-105664000D03*
X91946456Y-103124000D03*
X91946456Y-100584000D03*
X91946456Y-98044000D03*
X91946456Y-95504000D03*
X91946456Y-92964000D03*
X91946456Y-90424000D03*
X91946456Y-87884000D03*
X91946456Y-85344000D03*
X91946456Y-82804000D03*
X70356456Y-82804000D03*
X70356456Y-85344000D03*
X70356456Y-87884000D03*
X70356456Y-90424000D03*
X70356456Y-92964000D03*
X70356456Y-95504000D03*
X70356456Y-98044000D03*
X70356456Y-100584000D03*
X70356456Y-103124000D03*
X70356456Y-105664000D03*
X70356456Y-108204000D03*
X70356456Y-110744000D03*
D12*
X87501456Y-110744000D03*
X87501456Y-103124000D03*
D13*
X87501456Y-92964000D03*
X74801456Y-108204000D03*
X74801456Y-110744000D03*
D14*
X80135456Y-113538000D03*
X82167456Y-113538000D03*
D15*
X102659180Y-111760000D03*
X108160820Y-111760000D03*
X102659180Y-104140000D03*
X108160820Y-104140000D03*
D16*
X104140000Y-97040000D03*
X104140000Y-98540000D03*
X109220000Y-97040000D03*
X109220000Y-98540000D03*
X119380000Y-69330000D03*
X119380000Y-67830000D03*
X104140000Y-80760000D03*
X104140000Y-79260000D03*
X100330000Y-80760000D03*
X100330000Y-79260000D03*
D17*
X109540000Y-59055000D03*
X111440000Y-59055000D03*
D18*
X117475000Y-67830000D03*
X117475000Y-69330000D03*
D19*
X107430000Y-59055000D03*
X105930000Y-59055000D03*
D20*
X100140000Y-94600000D03*
X100940000Y-94600000D03*
X101740000Y-94600000D03*
X102540000Y-94600000D03*
X103340000Y-94600000D03*
X104140000Y-94600000D03*
X104940000Y-94600000D03*
X105740000Y-94600000D03*
X106540000Y-94600000D03*
X107340000Y-94600000D03*
X108140000Y-94600000D03*
D21*
X109840000Y-92900000D03*
X109840000Y-92100000D03*
X109840000Y-91300000D03*
X109840000Y-90500000D03*
X109840000Y-89700000D03*
X109840000Y-88900000D03*
X109840000Y-88100000D03*
X109840000Y-87300000D03*
X109840000Y-86500000D03*
X109840000Y-85700000D03*
X109840000Y-84900000D03*
D20*
X108140000Y-83200000D03*
X107340000Y-83200000D03*
X106540000Y-83200000D03*
X105740000Y-83200000D03*
X104940000Y-83200000D03*
X104140000Y-83200000D03*
X103340000Y-83200000D03*
X102540000Y-83200000D03*
X101740000Y-83200000D03*
X100940000Y-83200000D03*
X100140000Y-83200000D03*
D21*
X98440000Y-84900000D03*
X98440000Y-85700000D03*
X98440000Y-86500000D03*
X98440000Y-87300000D03*
X98440000Y-88100000D03*
X98440000Y-88900000D03*
X98440000Y-89700000D03*
X98440000Y-90500000D03*
X98440000Y-91300000D03*
X98440000Y-92100000D03*
X98440000Y-92900000D03*
D22*
X119415000Y-73025000D03*
X119415000Y-74295000D03*
X119415000Y-75565000D03*
X119415000Y-76835000D03*
D23*
X95885000Y-110720000D03*
X95885000Y-107720000D03*
D24*
X98518980Y-114300000D03*
X94521020Y-114300000D03*
M02*
