G04 #@! TF.FileFunction,Copper,L2,Bot,Signal*
%FSLAX46Y46*%
G04 Gerber Fmt 4.6, Leading zero omitted, Abs format (unit mm)*
G04 Created by KiCad (PCBNEW 4.0.6) date 04/12/17 01:17:06*
%MOMM*%
%LPD*%
G01*
G04 APERTURE LIST*
%ADD10C,0.254000*%
%ADD11R,4.000000X4.000000*%
%ADD12O,1.400000X2.000000*%
%ADD13R,4.500000X4.000000*%
%ADD14R,0.850000X1.920000*%
%ADD15R,0.850000X0.650000*%
%ADD16R,3.300000X4.460000*%
%ADD17R,0.400000X0.345000*%
%ADD18R,1.310000X1.730000*%
%ADD19O,1.900000X0.540000*%
%ADD20O,0.540000X1.900000*%
%ADD21O,1.905000X1.524000*%
%ADD22R,1.905000X1.524000*%
%ADD23C,2.540000*%
%ADD24C,3.810000*%
%ADD25C,7.000000*%
%ADD26C,0.600000*%
%ADD27R,1.600000X1.000000*%
%ADD28R,0.750000X0.800000*%
%ADD29R,2.032000X1.727200*%
%ADD30O,2.032000X1.727200*%
%ADD31R,0.800000X0.750000*%
%ADD32R,2.550000X2.700000*%
%ADD33R,2.700000X2.550000*%
%ADD34R,2.500000X1.800000*%
%ADD35R,0.889000X0.420000*%
%ADD36R,1.651000X2.845000*%
%ADD37R,1.000000X1.250000*%
%ADD38R,1.000000X2.500000*%
%ADD39C,0.762000*%
%ADD40C,0.152400*%
%ADD41C,0.381000*%
%ADD42C,0.635000*%
%ADD43C,0.508000*%
%ADD44C,0.406400*%
%ADD45C,1.270000*%
G04 APERTURE END LIST*
D10*
D11*
X64620140Y-109220000D03*
X58620660Y-109220000D03*
X61620400Y-113919000D03*
D12*
X80010000Y-61595000D03*
X80010000Y-79375000D03*
X82550000Y-61595000D03*
X82550000Y-79375000D03*
X85090000Y-61595000D03*
X85090000Y-79375000D03*
X87630000Y-61595000D03*
X87630000Y-79375000D03*
X90170000Y-61595000D03*
X90170000Y-79375000D03*
X92710000Y-61595000D03*
X92710000Y-79375000D03*
X95250000Y-61595000D03*
X95250000Y-79375000D03*
X97790000Y-61595000D03*
X97790000Y-79375000D03*
X100330000Y-61595000D03*
X100330000Y-79375000D03*
X102870000Y-61595000D03*
X102870000Y-79375000D03*
X105410000Y-61595000D03*
X105410000Y-79375000D03*
X107950000Y-61595000D03*
X107950000Y-79375000D03*
D13*
X93218000Y-105703000D03*
X93218000Y-94703000D03*
D14*
X78569922Y-103759000D03*
D15*
X78569922Y-101854000D03*
X78569922Y-100584000D03*
X83959922Y-100584000D03*
X83959922Y-101854000D03*
X83959922Y-103124000D03*
X83959922Y-104394000D03*
D16*
X81264922Y-102489000D03*
D17*
X82389922Y-100091500D03*
X80139922Y-100091500D03*
X82389922Y-104886500D03*
X80139922Y-104886500D03*
D18*
X82059922Y-101484000D03*
X80469922Y-101484000D03*
X82059922Y-103494000D03*
X80469922Y-103494000D03*
D19*
X87645000Y-74485000D03*
X87645000Y-73685000D03*
X87645000Y-72885000D03*
X87645000Y-72085000D03*
X87645000Y-71285000D03*
X87645000Y-70485000D03*
X87645000Y-69685000D03*
X87645000Y-68885000D03*
X87645000Y-68085000D03*
X87645000Y-67285000D03*
X87645000Y-66485000D03*
D20*
X89345000Y-64785000D03*
X90145000Y-64785000D03*
X90945000Y-64785000D03*
X91745000Y-64785000D03*
X92545000Y-64785000D03*
X93345000Y-64785000D03*
X94145000Y-64785000D03*
X94945000Y-64785000D03*
X95745000Y-64785000D03*
X96545000Y-64785000D03*
X97345000Y-64785000D03*
D19*
X99045000Y-66485000D03*
X99045000Y-67285000D03*
X99045000Y-68085000D03*
X99045000Y-68885000D03*
X99045000Y-69685000D03*
X99045000Y-70485000D03*
X99045000Y-71285000D03*
X99045000Y-72085000D03*
X99045000Y-72885000D03*
X99045000Y-73685000D03*
X99045000Y-74485000D03*
D20*
X97345000Y-76185000D03*
X96545000Y-76185000D03*
X95745000Y-76185000D03*
X94945000Y-76185000D03*
X94145000Y-76185000D03*
X93345000Y-76185000D03*
X92545000Y-76185000D03*
X91745000Y-76185000D03*
X90945000Y-76185000D03*
X90145000Y-76185000D03*
X89345000Y-76185000D03*
D21*
X115570000Y-81280000D03*
X118110000Y-81280000D03*
X115570000Y-83820000D03*
X118110000Y-83820000D03*
X115570000Y-86360000D03*
X118110000Y-86360000D03*
X115570000Y-88900000D03*
X118110000Y-88900000D03*
X115570000Y-91440000D03*
X118110000Y-91440000D03*
X115570000Y-93980000D03*
X118110000Y-93980000D03*
X115570000Y-96520000D03*
X118110000Y-96520000D03*
X115570000Y-99060000D03*
D22*
X118110000Y-99060000D03*
D23*
X54610000Y-88900000D03*
D24*
X64770000Y-88900000D03*
D23*
X54610000Y-71120000D03*
D24*
X64770000Y-71120000D03*
D23*
X54610000Y-80010000D03*
D24*
X64770000Y-80010000D03*
D23*
X54610000Y-62230000D03*
D24*
X64770000Y-62230000D03*
D25*
X116840000Y-62230000D03*
D26*
X119465000Y-62230000D03*
X118696155Y-64086155D03*
X116840000Y-64855000D03*
X114983845Y-64086155D03*
X114215000Y-62230000D03*
X114983845Y-60373845D03*
X116840000Y-59605000D03*
X118696155Y-60373845D03*
D25*
X56880000Y-98810000D03*
D26*
X59505000Y-98810000D03*
X58736155Y-100666155D03*
X56880000Y-101435000D03*
X55023845Y-100666155D03*
X54255000Y-98810000D03*
X55023845Y-96953845D03*
X56880000Y-96185000D03*
X58736155Y-96953845D03*
D25*
X116840000Y-111760000D03*
D26*
X119465000Y-111760000D03*
X118696155Y-113616155D03*
X116840000Y-114385000D03*
X114983845Y-113616155D03*
X114215000Y-111760000D03*
X114983845Y-109903845D03*
X116840000Y-109135000D03*
X118696155Y-109903845D03*
D27*
X75946000Y-107720000D03*
X75946000Y-110720000D03*
X73406000Y-107720000D03*
X73406000Y-110720000D03*
X70866000Y-107720000D03*
X70866000Y-110720000D03*
D28*
X101727000Y-70854000D03*
X101727000Y-69354000D03*
X85725000Y-65520000D03*
X85725000Y-64020000D03*
X101600000Y-74815000D03*
X101600000Y-76315000D03*
X85090000Y-70370000D03*
X85090000Y-71870000D03*
D29*
X110490000Y-114300000D03*
D30*
X110490000Y-111760000D03*
X110490000Y-109220000D03*
X110490000Y-106680000D03*
X110490000Y-104140000D03*
X110490000Y-101600000D03*
D29*
X107950000Y-114300000D03*
D30*
X107950000Y-111760000D03*
X107950000Y-109220000D03*
X107950000Y-106680000D03*
X107950000Y-104140000D03*
X107950000Y-101600000D03*
D29*
X118110000Y-67945000D03*
D30*
X118110000Y-70485000D03*
X118110000Y-73025000D03*
D31*
X78498000Y-106934000D03*
X79998000Y-106934000D03*
D32*
X68580000Y-114300000D03*
X74930000Y-114300000D03*
D31*
X76315000Y-100330000D03*
X74815000Y-100330000D03*
D28*
X74295000Y-98540000D03*
X74295000Y-97040000D03*
D31*
X65786000Y-98298000D03*
X64286000Y-98298000D03*
D28*
X102870000Y-95770000D03*
X102870000Y-97270000D03*
X76835000Y-98540000D03*
X76835000Y-97040000D03*
X75565000Y-98540000D03*
X75565000Y-97040000D03*
X71755000Y-91555000D03*
X71755000Y-90055000D03*
D33*
X78105000Y-88265000D03*
X78105000Y-94615000D03*
D34*
X65500000Y-102870000D03*
X61500000Y-102870000D03*
D28*
X74676000Y-95619000D03*
X74676000Y-94119000D03*
X73025000Y-91555000D03*
X73025000Y-90055000D03*
X74295000Y-91555000D03*
X74295000Y-90055000D03*
D31*
X73140000Y-93345000D03*
X71640000Y-93345000D03*
D28*
X101600000Y-97270000D03*
X101600000Y-95770000D03*
X101600000Y-98945000D03*
X101600000Y-100445000D03*
D35*
X68314500Y-98070000D03*
X72655500Y-98070000D03*
X68314500Y-98720000D03*
X72655500Y-98720000D03*
X68314500Y-99370000D03*
X72655500Y-99370000D03*
X68314500Y-100020000D03*
X72655500Y-100020000D03*
X68314500Y-100670000D03*
X72655500Y-100670000D03*
X68314500Y-101320000D03*
X72655500Y-101320000D03*
D36*
X70485000Y-99695000D03*
D31*
X78625000Y-109220000D03*
X80125000Y-109220000D03*
D37*
X65659000Y-99949000D03*
X63659000Y-99949000D03*
D38*
X84558000Y-96393000D03*
X81558000Y-96393000D03*
X84534000Y-92964000D03*
X81534000Y-92964000D03*
D39*
X66176348Y-96998537D03*
X78867000Y-114935000D03*
X104140000Y-99060000D03*
X107569000Y-85344000D03*
X84455000Y-113030000D03*
X84455000Y-111887000D03*
X83185000Y-111760000D03*
X83185000Y-113030000D03*
X81915000Y-113030000D03*
X81915000Y-111760000D03*
X81915000Y-110490000D03*
X81915000Y-106680000D03*
X81915000Y-107950000D03*
X81915000Y-109220000D03*
X92329000Y-111760000D03*
X92329000Y-112649000D03*
X92329000Y-113538000D03*
X93218000Y-113538000D03*
X93218000Y-112649000D03*
X93218000Y-111760000D03*
X94234000Y-111760000D03*
X94234000Y-112649000D03*
X94234000Y-113538000D03*
X95250000Y-113538000D03*
X95250000Y-112649000D03*
X95250000Y-111760000D03*
X68021200Y-103022400D03*
X68834000Y-103022400D03*
X69646800Y-103022400D03*
X72085200Y-103022400D03*
X71272400Y-103022400D03*
X70459600Y-103022400D03*
X82169000Y-98679000D03*
X81407000Y-98679000D03*
X80645000Y-98679000D03*
X79883000Y-98679000D03*
X79121000Y-98679000D03*
X78613000Y-98044000D03*
X79502000Y-98044000D03*
X80391000Y-98044000D03*
X79883000Y-97409000D03*
X79121000Y-97409000D03*
X78232000Y-97409000D03*
X78740000Y-96774000D03*
X79502000Y-96774000D03*
X80264000Y-96774000D03*
X77470000Y-59055000D03*
X77470000Y-67183000D03*
X85725000Y-63119000D03*
X84582000Y-64008000D03*
X85090000Y-73025000D03*
X102870000Y-69342000D03*
X102743000Y-76327000D03*
X118999000Y-106807000D03*
X102870000Y-71755000D03*
X112268000Y-73660000D03*
X113792000Y-73660000D03*
X113030000Y-73660000D03*
X102743000Y-74803000D03*
X102870000Y-70866000D03*
X82423000Y-71374000D03*
X82423000Y-71374000D03*
X85852000Y-67310000D03*
X83334873Y-71374000D03*
X104902000Y-76581000D03*
X103759000Y-76327000D03*
X101600000Y-66548000D03*
X116078000Y-105410000D03*
X67310000Y-104775000D03*
X65278000Y-97155000D03*
X73914000Y-102489000D03*
X75565000Y-101346000D03*
X66167000Y-101219000D03*
X73787000Y-100083000D03*
X67172964Y-100799918D03*
X85344000Y-100457000D03*
X66088264Y-95836736D03*
X80010000Y-114935000D03*
X67875009Y-96861481D03*
X73279000Y-97028000D03*
D40*
X66176348Y-97178748D02*
X66176348Y-96998537D01*
X67717600Y-98720000D02*
X66176348Y-97178748D01*
X68314500Y-98720000D02*
X67717600Y-98720000D01*
D10*
X74295000Y-90055000D02*
X77844000Y-90055000D01*
X77844000Y-90055000D02*
X78105000Y-89794000D01*
X78105000Y-89794000D02*
X78105000Y-88265000D01*
X73025000Y-90055000D02*
X74295000Y-90055000D01*
X71755000Y-90055000D02*
X73025000Y-90055000D01*
X83566000Y-91186000D02*
X80645000Y-88265000D01*
X80645000Y-88265000D02*
X78105000Y-88265000D01*
X83566000Y-93323000D02*
X83566000Y-91186000D01*
X84558000Y-94615000D02*
X84558000Y-94315000D01*
X84558000Y-94315000D02*
X83566000Y-93323000D01*
X84558000Y-97155000D02*
X84558000Y-96101000D01*
X84558000Y-96101000D02*
X84558000Y-94615000D01*
X93218000Y-94703000D02*
X84646000Y-94703000D01*
X84646000Y-94703000D02*
X84558000Y-94615000D01*
D40*
X102870000Y-95770000D02*
X103397400Y-95770000D01*
X103886000Y-96258600D02*
X103886000Y-98171000D01*
X103397400Y-95770000D02*
X103886000Y-96258600D01*
X103886000Y-98171000D02*
X103251000Y-98806000D01*
X103251000Y-98806000D02*
X103251000Y-113157000D01*
X103251000Y-113157000D02*
X100457000Y-115951000D01*
X100457000Y-115951000D02*
X79883000Y-115951000D01*
X79883000Y-115951000D02*
X78867000Y-114935000D01*
D41*
X101600000Y-95770000D02*
X102870000Y-95770000D01*
X97031000Y-95885000D02*
X97146000Y-95770000D01*
X97146000Y-95770000D02*
X101600000Y-95770000D01*
X93218000Y-94703000D02*
X95849000Y-94703000D01*
X95849000Y-94703000D02*
X97031000Y-95885000D01*
D10*
X93396000Y-94881000D02*
X93218000Y-94703000D01*
X104140000Y-113919000D02*
X104140000Y-99060000D01*
X106172000Y-115951000D02*
X104140000Y-113919000D01*
X112649000Y-115951000D02*
X106172000Y-115951000D01*
X116840000Y-111760000D02*
X112649000Y-115951000D01*
X107696000Y-100228400D02*
X107696000Y-85471000D01*
X107696000Y-85471000D02*
X107569000Y-85344000D01*
X107950000Y-101600000D02*
X107950000Y-100482400D01*
X107950000Y-100482400D02*
X107696000Y-100228400D01*
X78872000Y-111887000D02*
X84455000Y-111887000D01*
X84455000Y-111887000D02*
X95123000Y-111887000D01*
X83185000Y-111760000D02*
X84328000Y-111760000D01*
X84328000Y-111760000D02*
X84455000Y-111887000D01*
X81915000Y-113030000D02*
X83185000Y-113030000D01*
X81915000Y-110490000D02*
X81915000Y-111760000D01*
X81915000Y-107950000D02*
X81915000Y-106680000D01*
X80375000Y-109220000D02*
X81915000Y-109220000D01*
X92329000Y-113538000D02*
X92329000Y-112649000D01*
X93218000Y-112649000D02*
X93218000Y-113538000D01*
X94234000Y-111760000D02*
X93218000Y-111760000D01*
X94234000Y-113538000D02*
X94234000Y-112649000D01*
X95250000Y-112649000D02*
X95250000Y-113538000D01*
X95123000Y-111887000D02*
X95250000Y-111760000D01*
X74930000Y-114300000D02*
X76459000Y-114300000D01*
X76459000Y-114300000D02*
X78872000Y-111887000D01*
X69646800Y-103022400D02*
X68834000Y-103022400D01*
X71272400Y-103022400D02*
X72085200Y-103022400D01*
X70485000Y-99695000D02*
X70485000Y-102997000D01*
X70485000Y-102997000D02*
X70459600Y-103022400D01*
D41*
X69316000Y-101320000D02*
X70485000Y-100151000D01*
X70485000Y-100151000D02*
X70485000Y-99695000D01*
X68314500Y-101320000D02*
X69316000Y-101320000D01*
X77405000Y-110998000D02*
X78722000Y-110998000D01*
X78722000Y-110998000D02*
X80375000Y-109345000D01*
X80375000Y-109345000D02*
X80375000Y-109220000D01*
X75946000Y-110720000D02*
X77127000Y-110720000D01*
X77127000Y-110720000D02*
X77405000Y-110998000D01*
X80375000Y-109220000D02*
X80375000Y-107311000D01*
X80375000Y-107311000D02*
X79998000Y-106934000D01*
X81264922Y-102489000D02*
X81264922Y-99583078D01*
X81264922Y-99583078D02*
X82169000Y-98679000D01*
X81558000Y-97155000D02*
X81558000Y-98068000D01*
X81558000Y-98068000D02*
X82169000Y-98679000D01*
X78105000Y-94615000D02*
X81558000Y-94615000D01*
X70485000Y-99695000D02*
X70485000Y-97891500D01*
X70485000Y-97891500D02*
X74257500Y-94119000D01*
X74257500Y-94119000D02*
X74930000Y-94119000D01*
X64655000Y-99695000D02*
X64655000Y-98425000D01*
D40*
X73140000Y-93345000D02*
X74181000Y-93345000D01*
X74181000Y-93345000D02*
X74930000Y-94094000D01*
X74930000Y-94094000D02*
X74930000Y-94119000D01*
X74930000Y-94119000D02*
X77609000Y-94119000D01*
X77609000Y-94119000D02*
X78105000Y-94615000D01*
X76835000Y-97040000D02*
X76835000Y-95885000D01*
X76835000Y-95885000D02*
X78105000Y-94615000D01*
X75565000Y-97040000D02*
X76835000Y-97040000D01*
D10*
X70866000Y-110847000D02*
X70382000Y-110847000D01*
X82059922Y-103494000D02*
X82059922Y-104556500D01*
X82059922Y-104556500D02*
X82389922Y-104886500D01*
X80139922Y-104886500D02*
X80391000Y-104886500D01*
X80469922Y-103494000D02*
X80469922Y-104613000D01*
X80469922Y-104613000D02*
X80391000Y-104691922D01*
X80391000Y-104886500D02*
X82389922Y-104886500D01*
X80391000Y-104691922D02*
X80391000Y-104886500D01*
X80658000Y-106299000D02*
X80949922Y-106299000D01*
X80949922Y-106299000D02*
X82362422Y-104886500D01*
X82362422Y-104886500D02*
X82389922Y-104886500D01*
X79998000Y-106934000D02*
X80023000Y-106934000D01*
X80023000Y-106934000D02*
X80658000Y-106299000D01*
X73406000Y-110847000D02*
X75946000Y-110847000D01*
X70866000Y-110847000D02*
X71920000Y-110847000D01*
X71920000Y-110847000D02*
X73406000Y-110847000D01*
X80645000Y-98679000D02*
X81407000Y-98679000D01*
X79121000Y-98679000D02*
X79883000Y-98679000D01*
X79502000Y-98044000D02*
X78613000Y-98044000D01*
X79883000Y-97409000D02*
X79883000Y-97536000D01*
X79883000Y-97536000D02*
X80391000Y-98044000D01*
X80906000Y-107188000D02*
X80486000Y-107608000D01*
X79998000Y-106934000D02*
X80652000Y-106934000D01*
X80652000Y-106934000D02*
X80906000Y-107188000D01*
X58620660Y-109220000D02*
X58620660Y-103175660D01*
X58620660Y-103175660D02*
X56880000Y-101435000D01*
X56880000Y-101435000D02*
X56880000Y-98810000D01*
X79883000Y-97409000D02*
X79883000Y-97663000D01*
X78232000Y-97409000D02*
X79121000Y-97409000D01*
X79502000Y-96774000D02*
X78740000Y-96774000D01*
X81558000Y-97155000D02*
X80645000Y-97155000D01*
X80645000Y-97155000D02*
X80264000Y-96774000D01*
X107950000Y-101600000D02*
X107797600Y-101600000D01*
X82550000Y-75946000D02*
X77470000Y-70866000D01*
X77470000Y-70866000D02*
X77470000Y-67183000D01*
X82550000Y-79375000D02*
X82550000Y-75946000D01*
D42*
X102743000Y-76327000D02*
X101612000Y-76327000D01*
X101612000Y-76327000D02*
X101600000Y-76315000D01*
X85725000Y-64020000D02*
X84594000Y-64020000D01*
X84594000Y-64020000D02*
X84582000Y-64008000D01*
X85090000Y-71870000D02*
X85090000Y-73025000D01*
D43*
X101727000Y-69354000D02*
X102858000Y-69354000D01*
X102858000Y-69354000D02*
X102870000Y-69342000D01*
X100838000Y-69350000D02*
X100842000Y-69354000D01*
X100842000Y-69354000D02*
X101727000Y-69354000D01*
X99045000Y-69685000D02*
X100503000Y-69685000D01*
X100503000Y-69685000D02*
X100838000Y-69350000D01*
D42*
X99172000Y-76185000D02*
X99302000Y-76315000D01*
X99302000Y-76315000D02*
X101600000Y-76315000D01*
X97345000Y-76185000D02*
X99172000Y-76185000D01*
X89345000Y-64785000D02*
X88440000Y-64785000D01*
X88440000Y-64785000D02*
X87675000Y-64020000D01*
X87675000Y-64020000D02*
X86626000Y-64020000D01*
D43*
X87617000Y-62103000D02*
X86728000Y-62992000D01*
X85725000Y-63373000D02*
X86106000Y-62992000D01*
X86106000Y-62992000D02*
X86728000Y-62992000D01*
X85725000Y-64020000D02*
X85725000Y-63373000D01*
X86626000Y-64020000D02*
X85725000Y-64020000D01*
X87630000Y-62103000D02*
X87617000Y-62103000D01*
X87630000Y-61595000D02*
X87630000Y-62103000D01*
X85483000Y-71870000D02*
X86068000Y-71285000D01*
X86068000Y-71285000D02*
X87645000Y-71285000D01*
X85090000Y-71870000D02*
X85483000Y-71870000D01*
D44*
X58620660Y-109220000D02*
X58620660Y-107063540D01*
D45*
X118999000Y-106807000D02*
X114808000Y-106807000D01*
X114808000Y-106807000D02*
X112395000Y-109220000D01*
X112395000Y-109220000D02*
X112395000Y-113411000D01*
X112395000Y-113411000D02*
X111506000Y-114300000D01*
X111506000Y-114300000D02*
X110490000Y-114300000D01*
X113792000Y-73660000D02*
X114935000Y-73660000D01*
X114935000Y-73660000D02*
X120269000Y-78994000D01*
X120269000Y-78994000D02*
X120269000Y-105537000D01*
X120269000Y-105537000D02*
X118999000Y-106807000D01*
D43*
X99045000Y-70485000D02*
X94615000Y-70485000D01*
X94615000Y-70485000D02*
X92075000Y-70485000D01*
X99045000Y-74485000D02*
X97587000Y-74485000D01*
X97587000Y-74485000D02*
X94615000Y-71513000D01*
X94615000Y-71513000D02*
X94615000Y-70485000D01*
X92075000Y-70485000D02*
X87645000Y-70485000D01*
X87645000Y-66485000D02*
X89103000Y-66485000D01*
X89103000Y-66485000D02*
X92075000Y-69457000D01*
X92075000Y-69457000D02*
X92075000Y-70485000D01*
D42*
X102870000Y-71755000D02*
X102870000Y-70866000D01*
X107950000Y-114300000D02*
X110490000Y-114300000D01*
D43*
X101600000Y-74815000D02*
X102731000Y-74815000D01*
X102731000Y-74815000D02*
X102743000Y-74803000D01*
X101727000Y-70854000D02*
X102858000Y-70854000D01*
X102858000Y-70854000D02*
X102870000Y-70866000D01*
X100711000Y-70693000D02*
X100711000Y-70721000D01*
X100711000Y-70721000D02*
X100844000Y-70854000D01*
X100844000Y-70854000D02*
X101727000Y-70854000D01*
X99045000Y-70485000D02*
X100503000Y-70485000D01*
X100503000Y-70485000D02*
X100711000Y-70693000D01*
X100584000Y-74566000D02*
X100584000Y-74682000D01*
X100584000Y-74682000D02*
X100717000Y-74815000D01*
X100717000Y-74815000D02*
X101600000Y-74815000D01*
X99045000Y-74485000D02*
X100503000Y-74485000D01*
X100503000Y-74485000D02*
X100584000Y-74566000D01*
X85725000Y-66023000D02*
X85725000Y-65520000D01*
X87645000Y-66485000D02*
X86187000Y-66485000D01*
X86187000Y-66485000D02*
X85725000Y-66023000D01*
X86233000Y-70485000D02*
X86118000Y-70370000D01*
X86118000Y-70370000D02*
X85090000Y-70370000D01*
X87645000Y-70485000D02*
X86233000Y-70485000D01*
D40*
X116649500Y-97790000D02*
X117919500Y-99060000D01*
X117919500Y-99060000D02*
X118110000Y-99060000D01*
X116649500Y-97790000D02*
X112572800Y-97790000D01*
X110354314Y-95571514D02*
X110354314Y-78362591D01*
X102897194Y-73200269D02*
X102541594Y-73200269D01*
X100147400Y-72085000D02*
X99045000Y-72085000D01*
X101110269Y-73047869D02*
X100147400Y-72085000D01*
X102389194Y-73047869D02*
X101110269Y-73047869D01*
X108646394Y-76654671D02*
X106351596Y-76654671D01*
X110354314Y-78362591D02*
X108646394Y-76654671D01*
X112572800Y-97790000D02*
X110354314Y-95571514D01*
X106351596Y-76654671D02*
X102897194Y-73200269D01*
X102541594Y-73200269D02*
X102389194Y-73047869D01*
X102870000Y-61595000D02*
X102870000Y-64262000D01*
X102870000Y-64262000D02*
X106273600Y-67665600D01*
X106273600Y-67665600D02*
X106273600Y-71678800D01*
X107899200Y-73304400D02*
X111048800Y-73304400D01*
X106273600Y-71678800D02*
X107899200Y-73304400D01*
X111048800Y-73304400D02*
X118110000Y-80365600D01*
X118110000Y-80365600D02*
X118110000Y-81280000D01*
X99725000Y-72885000D02*
X99045000Y-72885000D01*
X102771990Y-73502540D02*
X102416390Y-73502540D01*
X102416390Y-73502540D02*
X102263990Y-73350140D01*
X106226392Y-76956942D02*
X102771990Y-73502540D01*
X108521191Y-76956942D02*
X106226392Y-76956942D01*
X110052043Y-78487794D02*
X108521191Y-76956942D01*
X113415325Y-99060000D02*
X110052043Y-95696718D01*
X100190140Y-73350140D02*
X99725000Y-72885000D01*
X102263990Y-73350140D02*
X100190140Y-73350140D01*
X110052043Y-95696718D02*
X110052043Y-78487794D01*
X115570000Y-99060000D02*
X113415325Y-99060000D01*
X115570000Y-83820000D02*
X114465100Y-83820000D01*
X114465100Y-83820000D02*
X113080799Y-82435699D01*
X113080799Y-82435699D02*
X113080799Y-77168789D01*
X113080799Y-77168789D02*
X109826010Y-73914000D01*
X109826010Y-73914000D02*
X107653851Y-73914000D01*
X107653851Y-73914000D02*
X105666529Y-71926678D01*
X105666529Y-71926678D02*
X105666529Y-67943203D01*
X105666529Y-67943203D02*
X101869229Y-64145903D01*
X101869229Y-64145903D02*
X101650800Y-64145903D01*
X101650800Y-64145903D02*
X101346000Y-63841103D01*
X100685600Y-60096400D02*
X95138940Y-60096400D01*
X101346000Y-63841103D02*
X101346000Y-60756800D01*
X101346000Y-60756800D02*
X100685600Y-60096400D01*
X94145000Y-61090340D02*
X94145000Y-64785000D01*
X95138940Y-60096400D02*
X94145000Y-61090340D01*
X101473000Y-63968103D02*
X101650800Y-64145903D01*
X118110000Y-96520000D02*
X117919500Y-96520000D01*
X117919500Y-96520000D02*
X116649500Y-95250000D01*
X116649500Y-95250000D02*
X112674400Y-95250000D01*
X112674400Y-95250000D02*
X110656584Y-93232184D01*
X110656584Y-93232184D02*
X110656584Y-78237387D01*
X101100000Y-72237600D02*
X100147400Y-71285000D01*
X110656584Y-78237387D02*
X110642400Y-78223203D01*
X100147400Y-71285000D02*
X99045000Y-71285000D01*
X110642400Y-78223203D02*
X110642400Y-78181200D01*
X108813600Y-76352400D02*
X106527600Y-76352400D01*
X103022400Y-72847200D02*
X102616000Y-72847200D01*
X110642400Y-78181200D02*
X108813600Y-76352400D01*
X106527600Y-76352400D02*
X103022400Y-72847200D01*
X102616000Y-72847200D02*
X102006400Y-72237600D01*
X102006400Y-72237600D02*
X101100000Y-72237600D01*
X118110000Y-83820000D02*
X117919500Y-83820000D01*
X117919500Y-83820000D02*
X116649500Y-82550000D01*
X105968800Y-67818000D02*
X101762570Y-63611770D01*
X116649500Y-82550000D02*
X113893600Y-82550000D01*
X113893600Y-82550000D02*
X113385600Y-82042000D01*
X113385600Y-82042000D02*
X113385600Y-77033874D01*
X113385600Y-77033874D02*
X109958397Y-73606671D01*
X109958397Y-73606671D02*
X107773996Y-73606671D01*
X107773996Y-73606671D02*
X105968800Y-71801474D01*
X105968800Y-71801474D02*
X105968800Y-67818000D01*
X101762570Y-63611770D02*
X101762570Y-63347600D01*
X101762570Y-63347600D02*
X101762570Y-63246000D01*
X92545000Y-64785000D02*
X92545000Y-63715800D01*
X92545000Y-63715800D02*
X93776800Y-62484000D01*
X93776800Y-62484000D02*
X93776800Y-60909200D01*
X93776800Y-60909200D02*
X94894400Y-59791600D01*
X94894400Y-59791600D02*
X100939600Y-59791600D01*
X100939600Y-59791600D02*
X101762570Y-60614570D01*
X101762570Y-60614570D02*
X101762570Y-63347600D01*
X113284000Y-86360000D02*
X113995200Y-86360000D01*
X113995200Y-86360000D02*
X115570000Y-86360000D01*
X95745000Y-64785000D02*
X95745000Y-64105000D01*
X112471200Y-85547200D02*
X113284000Y-86360000D01*
X95745000Y-64105000D02*
X96616688Y-63233312D01*
X96616688Y-63233312D02*
X98661986Y-63233312D01*
X112471200Y-77440275D02*
X112471200Y-85547200D01*
X105061987Y-68193611D02*
X105061987Y-72177086D01*
X105061987Y-72177086D02*
X107405972Y-74521071D01*
X107405972Y-74521071D02*
X109551996Y-74521071D01*
X109551996Y-74521071D02*
X112471200Y-77440275D01*
X100706674Y-65278000D02*
X102146376Y-65278000D01*
X102146376Y-65278000D02*
X105061987Y-68193611D01*
X98661986Y-63233312D02*
X100706674Y-65278000D01*
X117919500Y-93980000D02*
X118110000Y-93980000D01*
X103187800Y-68085000D02*
X103852903Y-68750103D01*
X111262116Y-77941091D02*
X111262116Y-91856516D01*
X103852903Y-68750103D02*
X103852903Y-72677902D01*
X109051180Y-75730155D02*
X111262116Y-77941091D01*
X116649500Y-92710000D02*
X117919500Y-93980000D01*
X112115600Y-92710000D02*
X116649500Y-92710000D01*
X103852903Y-72677902D02*
X106905156Y-75730155D01*
X111262116Y-91856516D02*
X112115600Y-92710000D01*
X99045000Y-68085000D02*
X103187800Y-68085000D01*
X106905156Y-75730155D02*
X109051180Y-75730155D01*
X118110000Y-86360000D02*
X117919500Y-86360000D01*
X117919500Y-86360000D02*
X116649500Y-85090000D01*
X109700807Y-74216271D02*
X107528647Y-74216271D01*
X116649500Y-85090000D02*
X113538000Y-85090000D01*
X113538000Y-85090000D02*
X112778529Y-84330529D01*
X112778529Y-84330529D02*
X112778528Y-77293992D01*
X112778528Y-77293992D02*
X109700807Y-74216271D01*
X107528647Y-74216271D02*
X105364258Y-72051882D01*
X105364258Y-72051882D02*
X105364258Y-68068406D01*
X100888800Y-64973200D02*
X98821229Y-62905629D01*
X98821229Y-62905629D02*
X96144371Y-62905629D01*
X105364258Y-68068406D02*
X102269052Y-64973200D01*
X102269052Y-64973200D02*
X100888800Y-64973200D01*
X96144371Y-62905629D02*
X94945000Y-64105000D01*
X94945000Y-64105000D02*
X94945000Y-64785000D01*
X115570000Y-93980000D02*
X111861600Y-93980000D01*
X110959845Y-93078245D02*
X110959845Y-78066294D01*
X111861600Y-93980000D02*
X110959845Y-93078245D01*
X110959845Y-78066294D02*
X108925977Y-76032426D01*
X106779951Y-76032426D02*
X103550632Y-72803107D01*
X103550632Y-68905032D02*
X103174800Y-68529200D01*
X108925977Y-76032426D02*
X106779951Y-76032426D01*
X103550632Y-72803107D02*
X103550632Y-68905032D01*
X103174800Y-68529200D02*
X100838000Y-68529200D01*
X100838000Y-68529200D02*
X100482200Y-68885000D01*
X100482200Y-68885000D02*
X100147400Y-68885000D01*
X100147400Y-68885000D02*
X99045000Y-68885000D01*
X113080800Y-88900000D02*
X114300000Y-88900000D01*
X114300000Y-88900000D02*
X115570000Y-88900000D01*
X97345000Y-64785000D02*
X97767400Y-64785000D01*
X109301588Y-75125613D02*
X111866658Y-77690683D01*
X98869800Y-65887400D02*
X101900826Y-65887400D01*
X104457445Y-72427494D02*
X107155564Y-75125613D01*
X104457445Y-68444019D02*
X104457445Y-72427494D01*
X107155564Y-75125613D02*
X109301588Y-75125613D01*
X101900826Y-65887400D02*
X104457445Y-68444019D01*
X97767400Y-64785000D02*
X98869800Y-65887400D01*
X111866658Y-77690683D02*
X111866658Y-87685858D01*
X111866658Y-87685858D02*
X113080800Y-88900000D01*
X102845000Y-67285000D02*
X100147400Y-67285000D01*
X104155174Y-68595174D02*
X102845000Y-67285000D01*
X104155174Y-72552699D02*
X104155174Y-68595174D01*
X107030359Y-75427884D02*
X104155174Y-72552699D01*
X111564387Y-89263187D02*
X111564387Y-77815887D01*
X112471200Y-90170000D02*
X111564387Y-89263187D01*
X109176385Y-75427884D02*
X107030359Y-75427884D01*
X117919500Y-91440000D02*
X116649500Y-90170000D01*
X116649500Y-90170000D02*
X112471200Y-90170000D01*
X100147400Y-67285000D02*
X99045000Y-67285000D01*
X111564387Y-77815887D02*
X109176385Y-75427884D01*
X118110000Y-88900000D02*
X117919500Y-88900000D01*
X117919500Y-88900000D02*
X116700300Y-87680800D01*
X104759716Y-72302291D02*
X104759716Y-68318814D01*
X116700300Y-87680800D02*
X112877600Y-87680800D01*
X112877600Y-87680800D02*
X112168929Y-86972129D01*
X112168929Y-86972129D02*
X112168929Y-77565479D01*
X104759716Y-68318814D02*
X102021173Y-65580271D01*
X102021173Y-65580271D02*
X100581470Y-65580271D01*
X112168929Y-77565479D02*
X109426793Y-74823342D01*
X109426793Y-74823342D02*
X107280767Y-74823342D01*
X107280767Y-74823342D02*
X104759716Y-72302291D01*
X100581470Y-65580271D02*
X99286805Y-64285605D01*
X99286805Y-64285605D02*
X98856800Y-63855600D01*
X98856800Y-63855600D02*
X98536781Y-63535581D01*
X98536781Y-63535581D02*
X97114419Y-63535581D01*
X97114419Y-63535581D02*
X96545000Y-64105000D01*
X96545000Y-64105000D02*
X96545000Y-64785000D01*
X98856800Y-63855600D02*
X98610130Y-63608930D01*
X85852000Y-67310000D02*
X87620000Y-67310000D01*
X87620000Y-67310000D02*
X87645000Y-67285000D01*
X82423000Y-72186800D02*
X82423000Y-72517000D01*
X82423000Y-72186800D02*
X82423000Y-71374000D01*
X104902000Y-84455000D02*
X104902000Y-111933474D01*
X104902000Y-111933474D02*
X106173796Y-113205270D01*
X102997000Y-82550000D02*
X104902000Y-84455000D01*
X87757000Y-82550000D02*
X102997000Y-82550000D01*
X86233000Y-81026000D02*
X87757000Y-82550000D01*
X86233000Y-76581000D02*
X86233000Y-81026000D01*
X85344000Y-75692000D02*
X86233000Y-76581000D01*
X85344000Y-75438000D02*
X85344000Y-75692000D01*
X82423000Y-72517000D02*
X85344000Y-75438000D01*
X110490000Y-111887000D02*
X109171730Y-113205270D01*
X109171730Y-113205270D02*
X106173796Y-113205270D01*
X106173796Y-113205270D02*
X105998526Y-113030000D01*
X110490000Y-111760000D02*
X110490000Y-111887000D01*
X83334873Y-71912815D02*
X83334873Y-71374000D01*
X83334873Y-72666873D02*
X83334873Y-71912815D01*
X85725000Y-75057000D02*
X83334873Y-72666873D01*
X85725000Y-75645526D02*
X85725000Y-75057000D01*
X86535271Y-76455796D02*
X85725000Y-75645526D01*
X105204271Y-84122271D02*
X103251000Y-82169000D01*
X105204271Y-111631204D02*
X105204271Y-84122271D01*
X106427796Y-112854729D02*
X105204271Y-111631204D01*
X109220000Y-112221525D02*
X108586796Y-112854729D01*
X103251000Y-82169000D02*
X88011000Y-82169000D01*
X109220000Y-110337600D02*
X109220000Y-112221525D01*
X108586796Y-112854729D02*
X106427796Y-112854729D01*
X110337600Y-109220000D02*
X109220000Y-110337600D01*
X110490000Y-109220000D02*
X110337600Y-109220000D01*
X86535271Y-80693271D02*
X86535271Y-76455796D01*
X88011000Y-82169000D02*
X86535271Y-80693271D01*
X85725000Y-75057000D02*
X86297000Y-74485000D01*
X86297000Y-74485000D02*
X87645000Y-74485000D01*
X104902000Y-76581000D02*
X105582740Y-77261740D01*
X109749775Y-78630449D02*
X109749775Y-78867000D01*
X105582740Y-77261740D02*
X108381066Y-77261740D01*
X108381066Y-77261740D02*
X109749775Y-78630449D01*
X109749775Y-79392449D02*
X109749775Y-78867000D01*
X109749776Y-95851650D02*
X109749775Y-79392449D01*
X112268000Y-98369874D02*
X109749776Y-95851650D01*
X112268000Y-105054400D02*
X112268000Y-98369874D01*
X110642400Y-106680000D02*
X112268000Y-105054400D01*
X110490000Y-106680000D02*
X110642400Y-106680000D01*
X100147400Y-73685000D02*
X99045000Y-73685000D01*
X100297669Y-73835269D02*
X100147400Y-73685000D01*
X104521001Y-75713212D02*
X102643058Y-73835269D01*
X104521001Y-76200001D02*
X104521001Y-75713212D01*
X104902000Y-76581000D02*
X104521001Y-76200001D01*
X102643058Y-73835269D02*
X100297669Y-73835269D01*
X109749775Y-78867000D02*
X109749775Y-78613000D01*
X99045000Y-66485000D02*
X101537000Y-66485000D01*
X101537000Y-66485000D02*
X101600000Y-66548000D01*
X104996011Y-77564011D02*
X104139999Y-76707999D01*
X111965729Y-99439203D02*
X109121991Y-96595465D01*
X111965729Y-102816671D02*
X111965729Y-99439203D01*
X108020813Y-77564011D02*
X104996011Y-77564011D01*
X104139999Y-76707999D02*
X103759000Y-76327000D01*
X109121991Y-78665189D02*
X108020813Y-77564011D01*
X109121991Y-96595465D02*
X109121991Y-78665189D01*
X110642400Y-104140000D02*
X111965729Y-102816671D01*
X110490000Y-104140000D02*
X110642400Y-104140000D01*
X109220000Y-107442000D02*
X109220000Y-97409000D01*
X108712000Y-84836000D02*
X105410000Y-81534000D01*
X108712000Y-96901000D02*
X108712000Y-84836000D01*
X108712000Y-84836000D02*
X108585000Y-84709000D01*
X109220000Y-97409000D02*
X108712000Y-96901000D01*
X111506000Y-107950000D02*
X111760000Y-107950000D01*
X109728000Y-107950000D02*
X109220000Y-107442000D01*
X105410000Y-81153000D02*
X105410000Y-81026000D01*
X105410000Y-81534000D02*
X105410000Y-81153000D01*
X105410000Y-81153000D02*
X105410000Y-79375000D01*
X111506000Y-107950000D02*
X111379000Y-107950000D01*
X111506000Y-107950000D02*
X109728000Y-107950000D01*
X114046000Y-105664000D02*
X113792000Y-105918000D01*
X114300000Y-105410000D02*
X114046000Y-105664000D01*
X114046000Y-105664000D02*
X111760000Y-107950000D01*
X116078000Y-105410000D02*
X114300000Y-105410000D01*
X96108541Y-77373459D02*
X95831059Y-77373459D01*
X95831059Y-77373459D02*
X95745000Y-77287400D01*
X95745000Y-77287400D02*
X95745000Y-76185000D01*
X98298000Y-77368400D02*
X96113600Y-77368400D01*
X96113600Y-77368400D02*
X96108541Y-77373459D01*
X98856800Y-77927200D02*
X98298000Y-77368400D01*
X107137200Y-77927200D02*
X98856800Y-77927200D01*
X107950000Y-78740000D02*
X107137200Y-77927200D01*
X107950000Y-79375000D02*
X107950000Y-78740000D01*
X94492800Y-78435200D02*
X94492800Y-78617800D01*
X94492800Y-78617800D02*
X95250000Y-79375000D01*
X93345000Y-76185000D02*
X93345000Y-77287400D01*
X93345000Y-77287400D02*
X94492800Y-78435200D01*
X94835600Y-77978000D02*
X96693000Y-77978000D01*
X94145000Y-76185000D02*
X94145000Y-77287400D01*
X94145000Y-77287400D02*
X94835600Y-77978000D01*
X96693000Y-77978000D02*
X97790000Y-79075000D01*
X97790000Y-79075000D02*
X97790000Y-79375000D01*
X99477600Y-79375000D02*
X100330000Y-79375000D01*
X97778329Y-77675729D02*
X99477600Y-79375000D01*
X94945000Y-77287400D02*
X95333329Y-77675729D01*
X95333329Y-77675729D02*
X97778329Y-77675729D01*
X94945000Y-76185000D02*
X94945000Y-77287400D01*
X94945000Y-77287400D02*
X95330800Y-77673200D01*
X95330800Y-77673200D02*
X95356200Y-77673200D01*
X121031000Y-60325000D02*
X118618000Y-57912000D01*
X118618000Y-57912000D02*
X118160800Y-57912000D01*
X105410000Y-60468000D02*
X105410000Y-61595000D01*
X118160800Y-57912000D02*
X118008400Y-57912000D01*
X118160800Y-57912000D02*
X107966000Y-57912000D01*
X107966000Y-57912000D02*
X105410000Y-60468000D01*
X121031000Y-66192400D02*
X121031000Y-60325000D01*
X118110000Y-67945000D02*
X119278400Y-67945000D01*
X119278400Y-67945000D02*
X121031000Y-66192400D01*
X121031000Y-66192400D02*
X121031000Y-65684400D01*
X66023740Y-105664000D02*
X66421000Y-105664000D01*
X66421000Y-105664000D02*
X66802000Y-105283000D01*
X64620140Y-109220000D02*
X64620140Y-107067600D01*
X64620140Y-107067600D02*
X66023740Y-105664000D01*
D41*
X67310000Y-104775000D02*
X66802000Y-105283000D01*
X65786000Y-98081000D02*
X65786000Y-97663000D01*
X65786000Y-97663000D02*
X65278000Y-97155000D01*
X66155000Y-98425000D02*
X66130000Y-98425000D01*
X66130000Y-98425000D02*
X65786000Y-98081000D01*
X67489000Y-99370000D02*
X66544000Y-98425000D01*
X68314500Y-99370000D02*
X67489000Y-99370000D01*
X66544000Y-98425000D02*
X66155000Y-98425000D01*
X64620140Y-109220000D02*
X70247000Y-109220000D01*
X70247000Y-109220000D02*
X70866000Y-108601000D01*
X70866000Y-108601000D02*
X70866000Y-107720000D01*
X78498000Y-106934000D02*
X78498000Y-103830922D01*
X78498000Y-103830922D02*
X78569922Y-103759000D01*
X78375000Y-109220000D02*
X78375000Y-107057000D01*
X78375000Y-107057000D02*
X78498000Y-106934000D01*
X75946000Y-107720000D02*
X77712000Y-107720000D01*
X77712000Y-107720000D02*
X78498000Y-106934000D01*
X73406000Y-107720000D02*
X75946000Y-107720000D01*
X70866000Y-107720000D02*
X73406000Y-107720000D01*
X72655500Y-101320000D02*
X72745000Y-101320000D01*
X72745000Y-101320000D02*
X73914000Y-102489000D01*
X76315000Y-100330000D02*
X76315000Y-100596000D01*
X76315000Y-100596000D02*
X75565000Y-101346000D01*
X72655500Y-101320000D02*
X72890000Y-101320000D01*
X78569922Y-100584000D02*
X77470000Y-100584000D01*
X76315000Y-100330000D02*
X77216000Y-100330000D01*
X77216000Y-100330000D02*
X77470000Y-100584000D01*
D40*
X78569922Y-100584000D02*
X78669922Y-100584000D01*
D10*
X78469922Y-100584000D02*
X78569922Y-100584000D01*
D40*
X107950000Y-111760000D02*
X107797600Y-111760000D01*
X107797600Y-111760000D02*
X105537000Y-109499400D01*
X105537000Y-109499400D02*
X105537000Y-83820000D01*
X105537000Y-83820000D02*
X103505000Y-81788000D01*
X103505000Y-81788000D02*
X90297000Y-81788000D01*
X89027000Y-80518000D02*
X89027000Y-78486000D01*
X90297000Y-81788000D02*
X89027000Y-80518000D01*
X89027000Y-78486000D02*
X90145000Y-77368000D01*
X90145000Y-77368000D02*
X90145000Y-76185000D01*
X105918000Y-107340400D02*
X107797600Y-109220000D01*
X107797600Y-109220000D02*
X107950000Y-109220000D01*
X105918000Y-83646525D02*
X105918000Y-107340400D01*
X90945000Y-76185000D02*
X90945000Y-76865000D01*
X90945000Y-76865000D02*
X91367400Y-77287400D01*
X103757204Y-81485729D02*
X105918000Y-83646525D01*
X92581188Y-81485729D02*
X103757204Y-81485729D01*
X91367400Y-77287400D02*
X91367400Y-80271951D01*
X91367400Y-80271951D02*
X92581188Y-81485729D01*
X91745000Y-76185000D02*
X91745000Y-80141525D01*
X92786933Y-81183458D02*
X103882408Y-81183458D01*
X91745000Y-80141525D02*
X92786933Y-81183458D01*
X103882408Y-81183458D02*
X106250729Y-83551779D01*
X106250729Y-83551779D02*
X106250729Y-105133129D01*
X106250729Y-105133129D02*
X107797600Y-106680000D01*
X107797600Y-106680000D02*
X107950000Y-106680000D01*
X93980000Y-78740000D02*
X93116400Y-77876400D01*
X92545000Y-76185000D02*
X92545000Y-77287400D01*
X92545000Y-77287400D02*
X93116400Y-77858800D01*
X93116400Y-77858800D02*
X93116400Y-77876400D01*
X94518458Y-80802458D02*
X93980000Y-80264000D01*
X93980000Y-80264000D02*
X93980000Y-78740000D01*
X103928877Y-80802458D02*
X94518458Y-80802458D01*
X106553000Y-83426576D02*
X103928877Y-80802458D01*
X107950000Y-104140000D02*
X107797600Y-104140000D01*
X107797600Y-104140000D02*
X106553000Y-102895400D01*
X106553000Y-102895400D02*
X106553000Y-83426576D01*
D41*
X65500000Y-102870000D02*
X65500000Y-101886000D01*
X65500000Y-101886000D02*
X66167000Y-101219000D01*
X73724000Y-100020000D02*
X73787000Y-100083000D01*
X72655500Y-100020000D02*
X73724000Y-100020000D01*
X74815000Y-100330000D02*
X74034000Y-100330000D01*
X74034000Y-100330000D02*
X73787000Y-100083000D01*
X101600000Y-100445000D02*
X101600000Y-100470000D01*
X101600000Y-100470000D02*
X96367000Y-105703000D01*
X96367000Y-105703000D02*
X95849000Y-105703000D01*
X95849000Y-105703000D02*
X93218000Y-105703000D01*
D10*
X83959922Y-102730078D02*
X83959922Y-103124000D01*
X83959922Y-101854000D02*
X83959922Y-102730078D01*
X84074000Y-103817078D02*
X84074000Y-104279922D01*
X84074000Y-104279922D02*
X83959922Y-104394000D01*
X83959922Y-103124000D02*
X83959922Y-103703000D01*
X83959922Y-103703000D02*
X84074000Y-103817078D01*
X93218000Y-105703000D02*
X84689922Y-105703000D01*
X84689922Y-105703000D02*
X83959922Y-104973000D01*
X83959922Y-104973000D02*
X83959922Y-104394000D01*
D41*
X67302882Y-100670000D02*
X67172964Y-100799918D01*
X68314500Y-100670000D02*
X67302882Y-100670000D01*
X83959922Y-100584000D02*
X85217000Y-100584000D01*
X85217000Y-100584000D02*
X85344000Y-100457000D01*
X77763922Y-101854000D02*
X78569922Y-101854000D01*
X76759617Y-101854000D02*
X77763922Y-101854000D01*
X76419255Y-102194362D02*
X76759617Y-101854000D01*
X74830745Y-102194362D02*
X76419255Y-102194362D01*
X73306383Y-100670000D02*
X74830745Y-102194362D01*
X72655500Y-100670000D02*
X73306383Y-100670000D01*
X65659000Y-99949000D02*
X65659000Y-100074000D01*
X65659000Y-100074000D02*
X64641000Y-101092000D01*
X64641000Y-101092000D02*
X63627000Y-101092000D01*
X64516000Y-101092000D02*
X63627000Y-101092000D01*
X68314500Y-100020000D02*
X67261000Y-100020000D01*
X67261000Y-100020000D02*
X67190000Y-99949000D01*
D43*
X65659000Y-99949000D02*
X67190000Y-99949000D01*
D41*
X63627000Y-101093000D02*
X61850000Y-102870000D01*
X63627000Y-101092000D02*
X63627000Y-101093000D01*
X61850000Y-102870000D02*
X61500000Y-102870000D01*
D40*
X74295000Y-98540000D02*
X75565000Y-98540000D01*
X72655500Y-98720000D02*
X74115000Y-98720000D01*
X74115000Y-98720000D02*
X74295000Y-98540000D01*
X74295000Y-96487600D02*
X74389600Y-96393000D01*
X74389600Y-96393000D02*
X74643600Y-96139000D01*
X74676000Y-95619000D02*
X74676000Y-96171400D01*
X74643600Y-96139000D02*
X74643600Y-95905400D01*
X74643600Y-95905400D02*
X74930000Y-95619000D01*
X74295000Y-97040000D02*
X74295000Y-96487600D01*
X66783410Y-96531882D02*
X66469263Y-96217735D01*
X66783410Y-96773410D02*
X66783410Y-96531882D01*
X66469263Y-96217735D02*
X66088264Y-95836736D01*
X68080000Y-98070000D02*
X66783410Y-96773410D01*
X68314500Y-98070000D02*
X68080000Y-98070000D01*
X100330000Y-115570000D02*
X80645000Y-115570000D01*
X80645000Y-115570000D02*
X80010000Y-114935000D01*
X102870000Y-113030000D02*
X100330000Y-115570000D01*
X102870000Y-97270000D02*
X102870000Y-113030000D01*
D41*
X102870000Y-97270000D02*
X101600000Y-97270000D01*
X101600000Y-98945000D02*
X101600000Y-97270000D01*
X76835000Y-98565000D02*
X76835000Y-98540000D01*
X76038362Y-99361638D02*
X76835000Y-98565000D01*
X73489362Y-99361638D02*
X76038362Y-99361638D01*
X73481000Y-99370000D02*
X73489362Y-99361638D01*
X72655500Y-99370000D02*
X73481000Y-99370000D01*
D40*
X68098519Y-96861481D02*
X67875009Y-96861481D01*
X71615000Y-93345000D02*
X68098519Y-96861481D01*
X71640000Y-93345000D02*
X71615000Y-93345000D01*
X73025000Y-91555000D02*
X74295000Y-91555000D01*
X73025000Y-91555000D02*
X71755000Y-91555000D01*
X71640000Y-93345000D02*
X71640000Y-91670000D01*
X71640000Y-91670000D02*
X71755000Y-91555000D01*
X72655500Y-98070000D02*
X72655500Y-97651500D01*
X72655500Y-97651500D02*
X73279000Y-97028000D01*
D10*
G36*
X65273021Y-91440440D02*
X65274086Y-91440000D01*
X70732560Y-91440000D01*
X70732560Y-91955000D01*
X70776838Y-92190317D01*
X70915910Y-92406441D01*
X70928800Y-92415248D01*
X70928800Y-92415667D01*
X70788559Y-92505910D01*
X70643569Y-92718110D01*
X70592560Y-92970000D01*
X70592560Y-93361652D01*
X68099587Y-95854625D01*
X68077991Y-95845657D01*
X67673801Y-95845305D01*
X67300243Y-95999656D01*
X67278589Y-96021273D01*
X67104256Y-95846940D01*
X67104440Y-95635528D01*
X66950089Y-95261970D01*
X66664533Y-94975915D01*
X66291246Y-94820912D01*
X65887056Y-94820560D01*
X65513498Y-94974911D01*
X65227443Y-95260467D01*
X65072440Y-95633754D01*
X65072088Y-96037944D01*
X65113784Y-96138856D01*
X65076792Y-96138824D01*
X64703234Y-96293175D01*
X64417179Y-96578731D01*
X64262176Y-96952018D01*
X64261824Y-97356208D01*
X64416175Y-97729766D01*
X64701731Y-98015821D01*
X64738560Y-98031114D01*
X64738560Y-98673000D01*
X64766583Y-98821929D01*
X64707559Y-98859910D01*
X64562569Y-99072110D01*
X64511560Y-99324000D01*
X64511560Y-100054006D01*
X64299066Y-100266500D01*
X63627000Y-100266500D01*
X63311095Y-100329337D01*
X63043283Y-100508283D01*
X63041267Y-100511300D01*
X62230007Y-101322560D01*
X60250000Y-101322560D01*
X60014683Y-101366838D01*
X59798559Y-101505910D01*
X59653569Y-101718110D01*
X59602560Y-101970000D01*
X59602560Y-103770000D01*
X59646838Y-104005317D01*
X59785910Y-104221441D01*
X59998110Y-104366431D01*
X60250000Y-104417440D01*
X60960000Y-104417440D01*
X60960000Y-111271560D01*
X59620400Y-111271560D01*
X59573680Y-111280351D01*
X59607131Y-111246900D01*
X59715518Y-111084690D01*
X59717212Y-111080602D01*
X59824602Y-110821340D01*
X59829298Y-110810004D01*
X59829298Y-110810002D01*
X59829299Y-110810000D01*
X59867359Y-110618657D01*
X59867359Y-110543606D01*
X59882000Y-110470000D01*
X59882000Y-107970000D01*
X59867359Y-107896394D01*
X59867359Y-107821343D01*
X59829299Y-107630000D01*
X59829298Y-107629997D01*
X59829298Y-107629996D01*
X59717212Y-107359400D01*
X59715520Y-107355314D01*
X59715519Y-107355313D01*
X59715518Y-107355310D01*
X59607131Y-107193100D01*
X59460686Y-107046656D01*
X59396900Y-106982869D01*
X59234689Y-106874482D01*
X59234687Y-106874481D01*
X59234686Y-106874480D01*
X59087587Y-106813549D01*
X58960004Y-106760702D01*
X58960002Y-106760702D01*
X58960000Y-106760701D01*
X58768658Y-106722641D01*
X58620001Y-106722641D01*
X58280000Y-106760701D01*
X58279998Y-106760702D01*
X58279996Y-106760702D01*
X58099566Y-106835439D01*
X58005314Y-106874480D01*
X58005313Y-106874481D01*
X58005310Y-106874482D01*
X57843100Y-106982869D01*
X57779314Y-107046656D01*
X57632869Y-107193100D01*
X57524482Y-107355311D01*
X57524482Y-107355312D01*
X57524480Y-107355314D01*
X57493053Y-107431185D01*
X57410702Y-107629996D01*
X57410702Y-107629997D01*
X57410701Y-107630000D01*
X57372641Y-107821342D01*
X57372641Y-107896394D01*
X57358000Y-107970000D01*
X57358000Y-110470000D01*
X57372641Y-110543606D01*
X57372641Y-110618658D01*
X57410701Y-110810000D01*
X57410702Y-110810002D01*
X57410702Y-110810004D01*
X57415398Y-110821340D01*
X57524480Y-111084686D01*
X57524481Y-111084687D01*
X57524482Y-111084689D01*
X57632869Y-111246900D01*
X57701808Y-111315838D01*
X57843100Y-111457131D01*
X58005310Y-111565518D01*
X58005313Y-111565519D01*
X58005314Y-111565520D01*
X58097196Y-111603579D01*
X58279996Y-111679298D01*
X58279998Y-111679298D01*
X58280000Y-111679299D01*
X58471343Y-111717359D01*
X58768658Y-111717359D01*
X58960000Y-111679299D01*
X58960002Y-111679298D01*
X58960004Y-111679298D01*
X59037604Y-111647155D01*
X59023969Y-111667110D01*
X58972960Y-111919000D01*
X58972960Y-115919000D01*
X59002878Y-116078000D01*
X51562000Y-116078000D01*
X51562000Y-91440000D01*
X64768357Y-91440000D01*
X65273021Y-91440440D01*
X65273021Y-91440440D01*
G37*
X65273021Y-91440440D02*
X65274086Y-91440000D01*
X70732560Y-91440000D01*
X70732560Y-91955000D01*
X70776838Y-92190317D01*
X70915910Y-92406441D01*
X70928800Y-92415248D01*
X70928800Y-92415667D01*
X70788559Y-92505910D01*
X70643569Y-92718110D01*
X70592560Y-92970000D01*
X70592560Y-93361652D01*
X68099587Y-95854625D01*
X68077991Y-95845657D01*
X67673801Y-95845305D01*
X67300243Y-95999656D01*
X67278589Y-96021273D01*
X67104256Y-95846940D01*
X67104440Y-95635528D01*
X66950089Y-95261970D01*
X66664533Y-94975915D01*
X66291246Y-94820912D01*
X65887056Y-94820560D01*
X65513498Y-94974911D01*
X65227443Y-95260467D01*
X65072440Y-95633754D01*
X65072088Y-96037944D01*
X65113784Y-96138856D01*
X65076792Y-96138824D01*
X64703234Y-96293175D01*
X64417179Y-96578731D01*
X64262176Y-96952018D01*
X64261824Y-97356208D01*
X64416175Y-97729766D01*
X64701731Y-98015821D01*
X64738560Y-98031114D01*
X64738560Y-98673000D01*
X64766583Y-98821929D01*
X64707559Y-98859910D01*
X64562569Y-99072110D01*
X64511560Y-99324000D01*
X64511560Y-100054006D01*
X64299066Y-100266500D01*
X63627000Y-100266500D01*
X63311095Y-100329337D01*
X63043283Y-100508283D01*
X63041267Y-100511300D01*
X62230007Y-101322560D01*
X60250000Y-101322560D01*
X60014683Y-101366838D01*
X59798559Y-101505910D01*
X59653569Y-101718110D01*
X59602560Y-101970000D01*
X59602560Y-103770000D01*
X59646838Y-104005317D01*
X59785910Y-104221441D01*
X59998110Y-104366431D01*
X60250000Y-104417440D01*
X60960000Y-104417440D01*
X60960000Y-111271560D01*
X59620400Y-111271560D01*
X59573680Y-111280351D01*
X59607131Y-111246900D01*
X59715518Y-111084690D01*
X59717212Y-111080602D01*
X59824602Y-110821340D01*
X59829298Y-110810004D01*
X59829298Y-110810002D01*
X59829299Y-110810000D01*
X59867359Y-110618657D01*
X59867359Y-110543606D01*
X59882000Y-110470000D01*
X59882000Y-107970000D01*
X59867359Y-107896394D01*
X59867359Y-107821343D01*
X59829299Y-107630000D01*
X59829298Y-107629997D01*
X59829298Y-107629996D01*
X59717212Y-107359400D01*
X59715520Y-107355314D01*
X59715519Y-107355313D01*
X59715518Y-107355310D01*
X59607131Y-107193100D01*
X59460686Y-107046656D01*
X59396900Y-106982869D01*
X59234689Y-106874482D01*
X59234687Y-106874481D01*
X59234686Y-106874480D01*
X59087587Y-106813549D01*
X58960004Y-106760702D01*
X58960002Y-106760702D01*
X58960000Y-106760701D01*
X58768658Y-106722641D01*
X58620001Y-106722641D01*
X58280000Y-106760701D01*
X58279998Y-106760702D01*
X58279996Y-106760702D01*
X58099566Y-106835439D01*
X58005314Y-106874480D01*
X58005313Y-106874481D01*
X58005310Y-106874482D01*
X57843100Y-106982869D01*
X57779314Y-107046656D01*
X57632869Y-107193100D01*
X57524482Y-107355311D01*
X57524482Y-107355312D01*
X57524480Y-107355314D01*
X57493053Y-107431185D01*
X57410702Y-107629996D01*
X57410702Y-107629997D01*
X57410701Y-107630000D01*
X57372641Y-107821342D01*
X57372641Y-107896394D01*
X57358000Y-107970000D01*
X57358000Y-110470000D01*
X57372641Y-110543606D01*
X57372641Y-110618658D01*
X57410701Y-110810000D01*
X57410702Y-110810002D01*
X57410702Y-110810004D01*
X57415398Y-110821340D01*
X57524480Y-111084686D01*
X57524481Y-111084687D01*
X57524482Y-111084689D01*
X57632869Y-111246900D01*
X57701808Y-111315838D01*
X57843100Y-111457131D01*
X58005310Y-111565518D01*
X58005313Y-111565519D01*
X58005314Y-111565520D01*
X58097196Y-111603579D01*
X58279996Y-111679298D01*
X58279998Y-111679298D01*
X58280000Y-111679299D01*
X58471343Y-111717359D01*
X58768658Y-111717359D01*
X58960000Y-111679299D01*
X58960002Y-111679298D01*
X58960004Y-111679298D01*
X59037604Y-111647155D01*
X59023969Y-111667110D01*
X58972960Y-111919000D01*
X58972960Y-115919000D01*
X59002878Y-116078000D01*
X51562000Y-116078000D01*
X51562000Y-91440000D01*
X64768357Y-91440000D01*
X65273021Y-91440440D01*
G36*
X82550000Y-98425000D02*
X82596672Y-98663946D01*
X82735987Y-98874013D01*
X83370987Y-99509013D01*
X83525853Y-99613266D01*
X83299605Y-99655838D01*
X83083481Y-99794910D01*
X82938491Y-100007110D01*
X82887482Y-100259000D01*
X82887482Y-100416362D01*
X82742233Y-100509827D01*
X82600029Y-100717949D01*
X82550000Y-100965000D01*
X82550000Y-108585000D01*
X82596672Y-108823946D01*
X82735987Y-109034013D01*
X84640987Y-110939013D01*
X84842949Y-111074971D01*
X85090000Y-111125000D01*
X98425000Y-111125000D01*
X98663946Y-111078328D01*
X98874013Y-110939013D01*
X99568000Y-110245026D01*
X99568000Y-114858800D01*
X81026067Y-114858800D01*
X81026176Y-114733792D01*
X80871825Y-114360234D01*
X80586269Y-114074179D01*
X80212982Y-113919176D01*
X79808792Y-113918824D01*
X79438049Y-114072012D01*
X79069982Y-113919176D01*
X78665792Y-113918824D01*
X78292234Y-114073175D01*
X78006179Y-114358731D01*
X77851176Y-114732018D01*
X77850824Y-115136208D01*
X78005175Y-115509766D01*
X78290731Y-115795821D01*
X78664018Y-115950824D01*
X78877222Y-115951010D01*
X79004212Y-116078000D01*
X70485000Y-116078000D01*
X70485000Y-115736121D01*
X70502440Y-115650000D01*
X70502440Y-112950000D01*
X70485000Y-112857315D01*
X70485000Y-110490000D01*
X79375000Y-110490000D01*
X79605795Y-110446573D01*
X79817767Y-110310173D01*
X79959971Y-110102051D01*
X80010000Y-109855000D01*
X80010000Y-102235000D01*
X79966573Y-102004205D01*
X79830173Y-101792233D01*
X79642362Y-101663907D01*
X79642362Y-101529000D01*
X79598084Y-101293683D01*
X79550813Y-101220222D01*
X79591353Y-101160890D01*
X79642362Y-100909000D01*
X79642362Y-100259000D01*
X79598084Y-100023683D01*
X79459012Y-99807559D01*
X79246812Y-99662569D01*
X78994922Y-99611560D01*
X78144922Y-99611560D01*
X77909605Y-99655838D01*
X77784672Y-99736230D01*
X77531906Y-99567337D01*
X77427358Y-99546541D01*
X77445317Y-99543162D01*
X77661441Y-99404090D01*
X77806431Y-99191890D01*
X77857440Y-98940000D01*
X77857440Y-98140000D01*
X77813162Y-97904683D01*
X77674090Y-97688559D01*
X77461890Y-97543569D01*
X77210000Y-97492560D01*
X76460000Y-97492560D01*
X76224683Y-97536838D01*
X76202721Y-97550970D01*
X76191890Y-97543569D01*
X75940000Y-97492560D01*
X75306796Y-97492560D01*
X75317440Y-97440000D01*
X75317440Y-96640000D01*
X75311085Y-96606224D01*
X75502441Y-96483090D01*
X75647431Y-96270890D01*
X75698440Y-96019000D01*
X75698440Y-95219000D01*
X75654162Y-94983683D01*
X75515090Y-94767559D01*
X75302890Y-94622569D01*
X75051000Y-94571560D01*
X74301000Y-94571560D01*
X74065683Y-94615838D01*
X73849559Y-94754910D01*
X73704569Y-94967110D01*
X73653560Y-95219000D01*
X73653560Y-96019000D01*
X73659915Y-96052776D01*
X73628476Y-96073006D01*
X73481982Y-96012176D01*
X73077792Y-96011824D01*
X72704234Y-96166175D01*
X72418179Y-96451731D01*
X72263176Y-96825018D01*
X72262990Y-97038222D01*
X72152606Y-97148606D01*
X72095330Y-97234325D01*
X71975683Y-97256838D01*
X71759559Y-97395910D01*
X71614569Y-97608110D01*
X71563560Y-97860000D01*
X71563560Y-98280000D01*
X71585993Y-98399222D01*
X71563560Y-98510000D01*
X71563560Y-98930000D01*
X71585993Y-99049222D01*
X71563560Y-99160000D01*
X71563560Y-99580000D01*
X71585993Y-99699222D01*
X71563560Y-99810000D01*
X71563560Y-100230000D01*
X71585993Y-100349222D01*
X71563560Y-100460000D01*
X71563560Y-100880000D01*
X71585993Y-100999222D01*
X71563560Y-101110000D01*
X71563560Y-101530000D01*
X71607838Y-101765317D01*
X71746910Y-101981441D01*
X71959110Y-102126431D01*
X72211000Y-102177440D01*
X72435006Y-102177440D01*
X72897867Y-102640301D01*
X72897824Y-102690208D01*
X73052175Y-103063766D01*
X73337731Y-103349821D01*
X73711018Y-103504824D01*
X73913113Y-103505000D01*
X67397440Y-103505000D01*
X67397440Y-101970000D01*
X67368480Y-101816089D01*
X67374172Y-101816094D01*
X67747730Y-101661743D01*
X67882268Y-101527440D01*
X68759000Y-101527440D01*
X68994317Y-101483162D01*
X69210441Y-101344090D01*
X69355431Y-101131890D01*
X69406440Y-100880000D01*
X69406440Y-100460000D01*
X69384007Y-100340778D01*
X69406440Y-100230000D01*
X69406440Y-99810000D01*
X69384007Y-99690778D01*
X69406440Y-99580000D01*
X69406440Y-99160000D01*
X69384007Y-99040778D01*
X69406440Y-98930000D01*
X69406440Y-98510000D01*
X69384007Y-98390778D01*
X69406440Y-98280000D01*
X69406440Y-97860000D01*
X69362162Y-97624683D01*
X69223090Y-97408559D01*
X69010890Y-97263569D01*
X68823882Y-97225699D01*
X68883383Y-97082405D01*
X71598348Y-94367440D01*
X72040000Y-94367440D01*
X72275317Y-94323162D01*
X72491441Y-94184090D01*
X72636431Y-93971890D01*
X72687440Y-93720000D01*
X72687440Y-92970000D01*
X72643162Y-92734683D01*
X72544291Y-92581033D01*
X72650000Y-92602440D01*
X73400000Y-92602440D01*
X73635317Y-92558162D01*
X73657279Y-92544030D01*
X73668110Y-92551431D01*
X73920000Y-92602440D01*
X74670000Y-92602440D01*
X74905317Y-92558162D01*
X75121441Y-92419090D01*
X75266431Y-92206890D01*
X75317440Y-91955000D01*
X75317440Y-91440000D01*
X82550000Y-91440000D01*
X82550000Y-98425000D01*
X82550000Y-98425000D01*
G37*
X82550000Y-98425000D02*
X82596672Y-98663946D01*
X82735987Y-98874013D01*
X83370987Y-99509013D01*
X83525853Y-99613266D01*
X83299605Y-99655838D01*
X83083481Y-99794910D01*
X82938491Y-100007110D01*
X82887482Y-100259000D01*
X82887482Y-100416362D01*
X82742233Y-100509827D01*
X82600029Y-100717949D01*
X82550000Y-100965000D01*
X82550000Y-108585000D01*
X82596672Y-108823946D01*
X82735987Y-109034013D01*
X84640987Y-110939013D01*
X84842949Y-111074971D01*
X85090000Y-111125000D01*
X98425000Y-111125000D01*
X98663946Y-111078328D01*
X98874013Y-110939013D01*
X99568000Y-110245026D01*
X99568000Y-114858800D01*
X81026067Y-114858800D01*
X81026176Y-114733792D01*
X80871825Y-114360234D01*
X80586269Y-114074179D01*
X80212982Y-113919176D01*
X79808792Y-113918824D01*
X79438049Y-114072012D01*
X79069982Y-113919176D01*
X78665792Y-113918824D01*
X78292234Y-114073175D01*
X78006179Y-114358731D01*
X77851176Y-114732018D01*
X77850824Y-115136208D01*
X78005175Y-115509766D01*
X78290731Y-115795821D01*
X78664018Y-115950824D01*
X78877222Y-115951010D01*
X79004212Y-116078000D01*
X70485000Y-116078000D01*
X70485000Y-115736121D01*
X70502440Y-115650000D01*
X70502440Y-112950000D01*
X70485000Y-112857315D01*
X70485000Y-110490000D01*
X79375000Y-110490000D01*
X79605795Y-110446573D01*
X79817767Y-110310173D01*
X79959971Y-110102051D01*
X80010000Y-109855000D01*
X80010000Y-102235000D01*
X79966573Y-102004205D01*
X79830173Y-101792233D01*
X79642362Y-101663907D01*
X79642362Y-101529000D01*
X79598084Y-101293683D01*
X79550813Y-101220222D01*
X79591353Y-101160890D01*
X79642362Y-100909000D01*
X79642362Y-100259000D01*
X79598084Y-100023683D01*
X79459012Y-99807559D01*
X79246812Y-99662569D01*
X78994922Y-99611560D01*
X78144922Y-99611560D01*
X77909605Y-99655838D01*
X77784672Y-99736230D01*
X77531906Y-99567337D01*
X77427358Y-99546541D01*
X77445317Y-99543162D01*
X77661441Y-99404090D01*
X77806431Y-99191890D01*
X77857440Y-98940000D01*
X77857440Y-98140000D01*
X77813162Y-97904683D01*
X77674090Y-97688559D01*
X77461890Y-97543569D01*
X77210000Y-97492560D01*
X76460000Y-97492560D01*
X76224683Y-97536838D01*
X76202721Y-97550970D01*
X76191890Y-97543569D01*
X75940000Y-97492560D01*
X75306796Y-97492560D01*
X75317440Y-97440000D01*
X75317440Y-96640000D01*
X75311085Y-96606224D01*
X75502441Y-96483090D01*
X75647431Y-96270890D01*
X75698440Y-96019000D01*
X75698440Y-95219000D01*
X75654162Y-94983683D01*
X75515090Y-94767559D01*
X75302890Y-94622569D01*
X75051000Y-94571560D01*
X74301000Y-94571560D01*
X74065683Y-94615838D01*
X73849559Y-94754910D01*
X73704569Y-94967110D01*
X73653560Y-95219000D01*
X73653560Y-96019000D01*
X73659915Y-96052776D01*
X73628476Y-96073006D01*
X73481982Y-96012176D01*
X73077792Y-96011824D01*
X72704234Y-96166175D01*
X72418179Y-96451731D01*
X72263176Y-96825018D01*
X72262990Y-97038222D01*
X72152606Y-97148606D01*
X72095330Y-97234325D01*
X71975683Y-97256838D01*
X71759559Y-97395910D01*
X71614569Y-97608110D01*
X71563560Y-97860000D01*
X71563560Y-98280000D01*
X71585993Y-98399222D01*
X71563560Y-98510000D01*
X71563560Y-98930000D01*
X71585993Y-99049222D01*
X71563560Y-99160000D01*
X71563560Y-99580000D01*
X71585993Y-99699222D01*
X71563560Y-99810000D01*
X71563560Y-100230000D01*
X71585993Y-100349222D01*
X71563560Y-100460000D01*
X71563560Y-100880000D01*
X71585993Y-100999222D01*
X71563560Y-101110000D01*
X71563560Y-101530000D01*
X71607838Y-101765317D01*
X71746910Y-101981441D01*
X71959110Y-102126431D01*
X72211000Y-102177440D01*
X72435006Y-102177440D01*
X72897867Y-102640301D01*
X72897824Y-102690208D01*
X73052175Y-103063766D01*
X73337731Y-103349821D01*
X73711018Y-103504824D01*
X73913113Y-103505000D01*
X67397440Y-103505000D01*
X67397440Y-101970000D01*
X67368480Y-101816089D01*
X67374172Y-101816094D01*
X67747730Y-101661743D01*
X67882268Y-101527440D01*
X68759000Y-101527440D01*
X68994317Y-101483162D01*
X69210441Y-101344090D01*
X69355431Y-101131890D01*
X69406440Y-100880000D01*
X69406440Y-100460000D01*
X69384007Y-100340778D01*
X69406440Y-100230000D01*
X69406440Y-99810000D01*
X69384007Y-99690778D01*
X69406440Y-99580000D01*
X69406440Y-99160000D01*
X69384007Y-99040778D01*
X69406440Y-98930000D01*
X69406440Y-98510000D01*
X69384007Y-98390778D01*
X69406440Y-98280000D01*
X69406440Y-97860000D01*
X69362162Y-97624683D01*
X69223090Y-97408559D01*
X69010890Y-97263569D01*
X68823882Y-97225699D01*
X68883383Y-97082405D01*
X71598348Y-94367440D01*
X72040000Y-94367440D01*
X72275317Y-94323162D01*
X72491441Y-94184090D01*
X72636431Y-93971890D01*
X72687440Y-93720000D01*
X72687440Y-92970000D01*
X72643162Y-92734683D01*
X72544291Y-92581033D01*
X72650000Y-92602440D01*
X73400000Y-92602440D01*
X73635317Y-92558162D01*
X73657279Y-92544030D01*
X73668110Y-92551431D01*
X73920000Y-92602440D01*
X74670000Y-92602440D01*
X74905317Y-92558162D01*
X75121441Y-92419090D01*
X75266431Y-92206890D01*
X75317440Y-91955000D01*
X75317440Y-91440000D01*
X82550000Y-91440000D01*
X82550000Y-98425000D01*
G36*
X100748750Y-74688000D02*
X101473000Y-74688000D01*
X101473000Y-74668000D01*
X101727000Y-74668000D01*
X101727000Y-74688000D01*
X102451250Y-74688000D01*
X102470625Y-74668625D01*
X103231901Y-75429900D01*
X102945982Y-75311176D01*
X102610000Y-75310883D01*
X102610000Y-75100750D01*
X102451250Y-74942000D01*
X101727000Y-74942000D01*
X101727000Y-74962000D01*
X101473000Y-74962000D01*
X101473000Y-74942000D01*
X100748750Y-74942000D01*
X100590000Y-75100750D01*
X100590000Y-75341309D01*
X100598778Y-75362500D01*
X99930800Y-75362500D01*
X100188661Y-75272510D01*
X100454734Y-75035129D01*
X100590146Y-74750609D01*
X100460366Y-74612002D01*
X100630000Y-74612002D01*
X100630000Y-74569250D01*
X100748750Y-74688000D01*
X100748750Y-74688000D01*
G37*
X100748750Y-74688000D02*
X101473000Y-74688000D01*
X101473000Y-74668000D01*
X101727000Y-74668000D01*
X101727000Y-74688000D01*
X102451250Y-74688000D01*
X102470625Y-74668625D01*
X103231901Y-75429900D01*
X102945982Y-75311176D01*
X102610000Y-75310883D01*
X102610000Y-75100750D01*
X102451250Y-74942000D01*
X101727000Y-74942000D01*
X101727000Y-74962000D01*
X101473000Y-74962000D01*
X101473000Y-74942000D01*
X100748750Y-74942000D01*
X100590000Y-75100750D01*
X100590000Y-75341309D01*
X100598778Y-75362500D01*
X99930800Y-75362500D01*
X100188661Y-75272510D01*
X100454734Y-75035129D01*
X100590146Y-74750609D01*
X100460366Y-74612002D01*
X100630000Y-74612002D01*
X100630000Y-74569250D01*
X100748750Y-74688000D01*
G36*
X80137000Y-61468000D02*
X80157000Y-61468000D01*
X80157000Y-61722000D01*
X80137000Y-61722000D01*
X80137000Y-63064374D01*
X80343329Y-63187716D01*
X80403550Y-63176980D01*
X80864185Y-62928790D01*
X81153000Y-62574469D01*
X81153000Y-62865000D01*
X81163006Y-62914410D01*
X81191447Y-62956035D01*
X81233841Y-62983315D01*
X81280000Y-62992000D01*
X81787072Y-62992000D01*
X82039118Y-63160411D01*
X82550000Y-63262032D01*
X83060882Y-63160411D01*
X83204706Y-63064312D01*
X83677446Y-63537052D01*
X83566176Y-63805018D01*
X83565824Y-64209208D01*
X83720175Y-64582766D01*
X84005731Y-64868821D01*
X84379018Y-65023824D01*
X84715000Y-65024117D01*
X84715000Y-65234250D01*
X84873750Y-65393000D01*
X85598000Y-65393000D01*
X85598000Y-65373000D01*
X85852000Y-65373000D01*
X85852000Y-65393000D01*
X86576250Y-65393000D01*
X86735000Y-65234250D01*
X86735000Y-64993691D01*
X86726222Y-64972500D01*
X87017894Y-64972500D01*
X87540197Y-65494803D01*
X87582211Y-65522666D01*
X87630000Y-65532000D01*
X87876453Y-65532000D01*
X87948290Y-65580000D01*
X87772000Y-65580000D01*
X87772000Y-66358000D01*
X89060364Y-66358000D01*
X89071071Y-66346564D01*
X89345000Y-66401052D01*
X89691329Y-66332163D01*
X89745000Y-66296301D01*
X89798671Y-66332163D01*
X90145000Y-66401052D01*
X90491329Y-66332163D01*
X90545000Y-66296301D01*
X90598671Y-66332163D01*
X90945000Y-66401052D01*
X91291329Y-66332163D01*
X91345000Y-66296301D01*
X91398671Y-66332163D01*
X91745000Y-66401052D01*
X92091329Y-66332163D01*
X92145000Y-66296301D01*
X92198671Y-66332163D01*
X92545000Y-66401052D01*
X92891329Y-66332163D01*
X92945000Y-66296301D01*
X92998671Y-66332163D01*
X93345000Y-66401052D01*
X93691329Y-66332163D01*
X93745000Y-66296301D01*
X93798671Y-66332163D01*
X94145000Y-66401052D01*
X94491329Y-66332163D01*
X94545000Y-66296301D01*
X94598671Y-66332163D01*
X94945000Y-66401052D01*
X95291329Y-66332163D01*
X95345000Y-66296301D01*
X95398671Y-66332163D01*
X95745000Y-66401052D01*
X96091329Y-66332163D01*
X96145000Y-66296301D01*
X96198671Y-66332163D01*
X96545000Y-66401052D01*
X96891329Y-66332163D01*
X96945000Y-66296301D01*
X96998671Y-66332163D01*
X97345000Y-66401052D01*
X97449792Y-66380208D01*
X97428948Y-66485000D01*
X97497837Y-66831329D01*
X97533699Y-66885000D01*
X97497837Y-66938671D01*
X97428948Y-67285000D01*
X97497837Y-67631329D01*
X97533699Y-67685000D01*
X97497837Y-67738671D01*
X97428948Y-68085000D01*
X97497837Y-68431329D01*
X97533699Y-68485000D01*
X97497837Y-68538671D01*
X97428948Y-68885000D01*
X97497837Y-69231329D01*
X97533699Y-69285000D01*
X97497837Y-69338671D01*
X97428948Y-69685000D01*
X97497837Y-70031329D01*
X97551287Y-70111323D01*
X97499854Y-70219391D01*
X97629636Y-70358000D01*
X97743506Y-70358000D01*
X97933575Y-70485000D01*
X97743506Y-70612000D01*
X97629636Y-70612000D01*
X97499854Y-70750609D01*
X97551287Y-70858677D01*
X97497837Y-70938671D01*
X97428948Y-71285000D01*
X97497837Y-71631329D01*
X97533699Y-71685000D01*
X97497837Y-71738671D01*
X97428948Y-72085000D01*
X97497837Y-72431329D01*
X97533699Y-72485000D01*
X97497837Y-72538671D01*
X97428948Y-72885000D01*
X97497837Y-73231329D01*
X97533699Y-73285000D01*
X97497837Y-73338671D01*
X97428948Y-73685000D01*
X97497837Y-74031329D01*
X97551287Y-74111323D01*
X97499854Y-74219391D01*
X97629636Y-74358000D01*
X97743506Y-74358000D01*
X97987619Y-74521111D01*
X98333948Y-74590000D01*
X99192000Y-74590000D01*
X99192000Y-74612000D01*
X99172000Y-74612000D01*
X99172000Y-74632000D01*
X98918000Y-74632000D01*
X98918000Y-74612000D01*
X97629636Y-74612000D01*
X97618929Y-74623436D01*
X97345000Y-74568948D01*
X96998671Y-74637837D01*
X96945000Y-74673699D01*
X96891329Y-74637837D01*
X96545000Y-74568948D01*
X96198671Y-74637837D01*
X96145000Y-74673699D01*
X96091329Y-74637837D01*
X95745000Y-74568948D01*
X95398671Y-74637837D01*
X95345000Y-74673699D01*
X95291329Y-74637837D01*
X94945000Y-74568948D01*
X94598671Y-74637837D01*
X94545000Y-74673699D01*
X94491329Y-74637837D01*
X94145000Y-74568948D01*
X93798671Y-74637837D01*
X93745000Y-74673699D01*
X93691329Y-74637837D01*
X93345000Y-74568948D01*
X92998671Y-74637837D01*
X92945000Y-74673699D01*
X92891329Y-74637837D01*
X92545000Y-74568948D01*
X92198671Y-74637837D01*
X92145000Y-74673699D01*
X92091329Y-74637837D01*
X91745000Y-74568948D01*
X91398671Y-74637837D01*
X91345000Y-74673699D01*
X91291329Y-74637837D01*
X90945000Y-74568948D01*
X90598671Y-74637837D01*
X90545000Y-74673699D01*
X90491329Y-74637837D01*
X90145000Y-74568948D01*
X89798671Y-74637837D01*
X89745000Y-74673699D01*
X89691329Y-74637837D01*
X89345000Y-74568948D01*
X89240208Y-74589792D01*
X89261052Y-74485000D01*
X89192163Y-74138671D01*
X89156301Y-74085000D01*
X89192163Y-74031329D01*
X89261052Y-73685000D01*
X89192163Y-73338671D01*
X89156301Y-73285000D01*
X89192163Y-73231329D01*
X89261052Y-72885000D01*
X89192163Y-72538671D01*
X89156301Y-72485000D01*
X89192163Y-72431329D01*
X89261052Y-72085000D01*
X89192163Y-71738671D01*
X89156301Y-71685000D01*
X89192163Y-71631329D01*
X89261052Y-71285000D01*
X89192163Y-70938671D01*
X89138713Y-70858677D01*
X89190146Y-70750609D01*
X89060364Y-70612000D01*
X88946494Y-70612000D01*
X88756425Y-70485000D01*
X88946494Y-70358000D01*
X89060364Y-70358000D01*
X89190146Y-70219391D01*
X89138713Y-70111323D01*
X89192163Y-70031329D01*
X89261052Y-69685000D01*
X89192163Y-69338671D01*
X89156301Y-69285000D01*
X89192163Y-69231329D01*
X89261052Y-68885000D01*
X89192163Y-68538671D01*
X89156301Y-68485000D01*
X89192163Y-68431329D01*
X89261052Y-68085000D01*
X89192163Y-67738671D01*
X89156301Y-67685000D01*
X89192163Y-67631329D01*
X89261052Y-67285000D01*
X89192163Y-66938671D01*
X89138713Y-66858677D01*
X89190146Y-66750609D01*
X89060364Y-66612000D01*
X88946494Y-66612000D01*
X88702381Y-66448889D01*
X88356052Y-66380000D01*
X87498000Y-66380000D01*
X87498000Y-66358000D01*
X87518000Y-66358000D01*
X87518000Y-65580000D01*
X86838000Y-65580000D01*
X86594298Y-65665048D01*
X86576250Y-65647000D01*
X85852000Y-65647000D01*
X85852000Y-65667000D01*
X85598000Y-65667000D01*
X85598000Y-65647000D01*
X84873750Y-65647000D01*
X84715000Y-65805750D01*
X84715000Y-66046309D01*
X84811673Y-66279698D01*
X84990301Y-66458327D01*
X85185902Y-66539348D01*
X84991179Y-66733731D01*
X84836176Y-67107018D01*
X84835824Y-67511208D01*
X84990175Y-67884766D01*
X85275731Y-68170821D01*
X85649018Y-68325824D01*
X86053208Y-68326176D01*
X86075120Y-68317122D01*
X86097837Y-68431329D01*
X86133699Y-68485000D01*
X86097837Y-68538671D01*
X86028948Y-68885000D01*
X86097837Y-69231329D01*
X86133699Y-69285000D01*
X86097837Y-69338671D01*
X86030674Y-69676323D01*
X86003327Y-69610302D01*
X85824699Y-69431673D01*
X85591310Y-69335000D01*
X85375750Y-69335000D01*
X85217000Y-69493750D01*
X85217000Y-70243000D01*
X85941250Y-70243000D01*
X86100000Y-70084250D01*
X86100000Y-70034566D01*
X86151287Y-70111323D01*
X86099854Y-70219391D01*
X86229634Y-70357998D01*
X86060000Y-70357998D01*
X86060000Y-70397591D01*
X85727794Y-70463671D01*
X85677914Y-70497000D01*
X85217000Y-70497000D01*
X85217000Y-70517000D01*
X84963000Y-70517000D01*
X84963000Y-70497000D01*
X84238750Y-70497000D01*
X84080000Y-70655750D01*
X84080000Y-70682332D01*
X83911142Y-70513179D01*
X83537855Y-70358176D01*
X83133665Y-70357824D01*
X82878771Y-70463144D01*
X82625982Y-70358176D01*
X82221792Y-70357824D01*
X81848234Y-70512175D01*
X81562179Y-70797731D01*
X81481096Y-70993000D01*
X81332606Y-70993000D01*
X80183297Y-69843691D01*
X84080000Y-69843691D01*
X84080000Y-70084250D01*
X84238750Y-70243000D01*
X84963000Y-70243000D01*
X84963000Y-69493750D01*
X84804250Y-69335000D01*
X84588690Y-69335000D01*
X84355301Y-69431673D01*
X84176673Y-69610302D01*
X84080000Y-69843691D01*
X80183297Y-69843691D01*
X78867000Y-68527394D01*
X78867000Y-62574469D01*
X79155815Y-62928790D01*
X79616450Y-63176980D01*
X79676671Y-63187716D01*
X79883000Y-63064374D01*
X79883000Y-61722000D01*
X79863000Y-61722000D01*
X79863000Y-61468000D01*
X79883000Y-61468000D01*
X79883000Y-61448000D01*
X80137000Y-61448000D01*
X80137000Y-61468000D01*
X80137000Y-61468000D01*
G37*
X80137000Y-61468000D02*
X80157000Y-61468000D01*
X80157000Y-61722000D01*
X80137000Y-61722000D01*
X80137000Y-63064374D01*
X80343329Y-63187716D01*
X80403550Y-63176980D01*
X80864185Y-62928790D01*
X81153000Y-62574469D01*
X81153000Y-62865000D01*
X81163006Y-62914410D01*
X81191447Y-62956035D01*
X81233841Y-62983315D01*
X81280000Y-62992000D01*
X81787072Y-62992000D01*
X82039118Y-63160411D01*
X82550000Y-63262032D01*
X83060882Y-63160411D01*
X83204706Y-63064312D01*
X83677446Y-63537052D01*
X83566176Y-63805018D01*
X83565824Y-64209208D01*
X83720175Y-64582766D01*
X84005731Y-64868821D01*
X84379018Y-65023824D01*
X84715000Y-65024117D01*
X84715000Y-65234250D01*
X84873750Y-65393000D01*
X85598000Y-65393000D01*
X85598000Y-65373000D01*
X85852000Y-65373000D01*
X85852000Y-65393000D01*
X86576250Y-65393000D01*
X86735000Y-65234250D01*
X86735000Y-64993691D01*
X86726222Y-64972500D01*
X87017894Y-64972500D01*
X87540197Y-65494803D01*
X87582211Y-65522666D01*
X87630000Y-65532000D01*
X87876453Y-65532000D01*
X87948290Y-65580000D01*
X87772000Y-65580000D01*
X87772000Y-66358000D01*
X89060364Y-66358000D01*
X89071071Y-66346564D01*
X89345000Y-66401052D01*
X89691329Y-66332163D01*
X89745000Y-66296301D01*
X89798671Y-66332163D01*
X90145000Y-66401052D01*
X90491329Y-66332163D01*
X90545000Y-66296301D01*
X90598671Y-66332163D01*
X90945000Y-66401052D01*
X91291329Y-66332163D01*
X91345000Y-66296301D01*
X91398671Y-66332163D01*
X91745000Y-66401052D01*
X92091329Y-66332163D01*
X92145000Y-66296301D01*
X92198671Y-66332163D01*
X92545000Y-66401052D01*
X92891329Y-66332163D01*
X92945000Y-66296301D01*
X92998671Y-66332163D01*
X93345000Y-66401052D01*
X93691329Y-66332163D01*
X93745000Y-66296301D01*
X93798671Y-66332163D01*
X94145000Y-66401052D01*
X94491329Y-66332163D01*
X94545000Y-66296301D01*
X94598671Y-66332163D01*
X94945000Y-66401052D01*
X95291329Y-66332163D01*
X95345000Y-66296301D01*
X95398671Y-66332163D01*
X95745000Y-66401052D01*
X96091329Y-66332163D01*
X96145000Y-66296301D01*
X96198671Y-66332163D01*
X96545000Y-66401052D01*
X96891329Y-66332163D01*
X96945000Y-66296301D01*
X96998671Y-66332163D01*
X97345000Y-66401052D01*
X97449792Y-66380208D01*
X97428948Y-66485000D01*
X97497837Y-66831329D01*
X97533699Y-66885000D01*
X97497837Y-66938671D01*
X97428948Y-67285000D01*
X97497837Y-67631329D01*
X97533699Y-67685000D01*
X97497837Y-67738671D01*
X97428948Y-68085000D01*
X97497837Y-68431329D01*
X97533699Y-68485000D01*
X97497837Y-68538671D01*
X97428948Y-68885000D01*
X97497837Y-69231329D01*
X97533699Y-69285000D01*
X97497837Y-69338671D01*
X97428948Y-69685000D01*
X97497837Y-70031329D01*
X97551287Y-70111323D01*
X97499854Y-70219391D01*
X97629636Y-70358000D01*
X97743506Y-70358000D01*
X97933575Y-70485000D01*
X97743506Y-70612000D01*
X97629636Y-70612000D01*
X97499854Y-70750609D01*
X97551287Y-70858677D01*
X97497837Y-70938671D01*
X97428948Y-71285000D01*
X97497837Y-71631329D01*
X97533699Y-71685000D01*
X97497837Y-71738671D01*
X97428948Y-72085000D01*
X97497837Y-72431329D01*
X97533699Y-72485000D01*
X97497837Y-72538671D01*
X97428948Y-72885000D01*
X97497837Y-73231329D01*
X97533699Y-73285000D01*
X97497837Y-73338671D01*
X97428948Y-73685000D01*
X97497837Y-74031329D01*
X97551287Y-74111323D01*
X97499854Y-74219391D01*
X97629636Y-74358000D01*
X97743506Y-74358000D01*
X97987619Y-74521111D01*
X98333948Y-74590000D01*
X99192000Y-74590000D01*
X99192000Y-74612000D01*
X99172000Y-74612000D01*
X99172000Y-74632000D01*
X98918000Y-74632000D01*
X98918000Y-74612000D01*
X97629636Y-74612000D01*
X97618929Y-74623436D01*
X97345000Y-74568948D01*
X96998671Y-74637837D01*
X96945000Y-74673699D01*
X96891329Y-74637837D01*
X96545000Y-74568948D01*
X96198671Y-74637837D01*
X96145000Y-74673699D01*
X96091329Y-74637837D01*
X95745000Y-74568948D01*
X95398671Y-74637837D01*
X95345000Y-74673699D01*
X95291329Y-74637837D01*
X94945000Y-74568948D01*
X94598671Y-74637837D01*
X94545000Y-74673699D01*
X94491329Y-74637837D01*
X94145000Y-74568948D01*
X93798671Y-74637837D01*
X93745000Y-74673699D01*
X93691329Y-74637837D01*
X93345000Y-74568948D01*
X92998671Y-74637837D01*
X92945000Y-74673699D01*
X92891329Y-74637837D01*
X92545000Y-74568948D01*
X92198671Y-74637837D01*
X92145000Y-74673699D01*
X92091329Y-74637837D01*
X91745000Y-74568948D01*
X91398671Y-74637837D01*
X91345000Y-74673699D01*
X91291329Y-74637837D01*
X90945000Y-74568948D01*
X90598671Y-74637837D01*
X90545000Y-74673699D01*
X90491329Y-74637837D01*
X90145000Y-74568948D01*
X89798671Y-74637837D01*
X89745000Y-74673699D01*
X89691329Y-74637837D01*
X89345000Y-74568948D01*
X89240208Y-74589792D01*
X89261052Y-74485000D01*
X89192163Y-74138671D01*
X89156301Y-74085000D01*
X89192163Y-74031329D01*
X89261052Y-73685000D01*
X89192163Y-73338671D01*
X89156301Y-73285000D01*
X89192163Y-73231329D01*
X89261052Y-72885000D01*
X89192163Y-72538671D01*
X89156301Y-72485000D01*
X89192163Y-72431329D01*
X89261052Y-72085000D01*
X89192163Y-71738671D01*
X89156301Y-71685000D01*
X89192163Y-71631329D01*
X89261052Y-71285000D01*
X89192163Y-70938671D01*
X89138713Y-70858677D01*
X89190146Y-70750609D01*
X89060364Y-70612000D01*
X88946494Y-70612000D01*
X88756425Y-70485000D01*
X88946494Y-70358000D01*
X89060364Y-70358000D01*
X89190146Y-70219391D01*
X89138713Y-70111323D01*
X89192163Y-70031329D01*
X89261052Y-69685000D01*
X89192163Y-69338671D01*
X89156301Y-69285000D01*
X89192163Y-69231329D01*
X89261052Y-68885000D01*
X89192163Y-68538671D01*
X89156301Y-68485000D01*
X89192163Y-68431329D01*
X89261052Y-68085000D01*
X89192163Y-67738671D01*
X89156301Y-67685000D01*
X89192163Y-67631329D01*
X89261052Y-67285000D01*
X89192163Y-66938671D01*
X89138713Y-66858677D01*
X89190146Y-66750609D01*
X89060364Y-66612000D01*
X88946494Y-66612000D01*
X88702381Y-66448889D01*
X88356052Y-66380000D01*
X87498000Y-66380000D01*
X87498000Y-66358000D01*
X87518000Y-66358000D01*
X87518000Y-65580000D01*
X86838000Y-65580000D01*
X86594298Y-65665048D01*
X86576250Y-65647000D01*
X85852000Y-65647000D01*
X85852000Y-65667000D01*
X85598000Y-65667000D01*
X85598000Y-65647000D01*
X84873750Y-65647000D01*
X84715000Y-65805750D01*
X84715000Y-66046309D01*
X84811673Y-66279698D01*
X84990301Y-66458327D01*
X85185902Y-66539348D01*
X84991179Y-66733731D01*
X84836176Y-67107018D01*
X84835824Y-67511208D01*
X84990175Y-67884766D01*
X85275731Y-68170821D01*
X85649018Y-68325824D01*
X86053208Y-68326176D01*
X86075120Y-68317122D01*
X86097837Y-68431329D01*
X86133699Y-68485000D01*
X86097837Y-68538671D01*
X86028948Y-68885000D01*
X86097837Y-69231329D01*
X86133699Y-69285000D01*
X86097837Y-69338671D01*
X86030674Y-69676323D01*
X86003327Y-69610302D01*
X85824699Y-69431673D01*
X85591310Y-69335000D01*
X85375750Y-69335000D01*
X85217000Y-69493750D01*
X85217000Y-70243000D01*
X85941250Y-70243000D01*
X86100000Y-70084250D01*
X86100000Y-70034566D01*
X86151287Y-70111323D01*
X86099854Y-70219391D01*
X86229634Y-70357998D01*
X86060000Y-70357998D01*
X86060000Y-70397591D01*
X85727794Y-70463671D01*
X85677914Y-70497000D01*
X85217000Y-70497000D01*
X85217000Y-70517000D01*
X84963000Y-70517000D01*
X84963000Y-70497000D01*
X84238750Y-70497000D01*
X84080000Y-70655750D01*
X84080000Y-70682332D01*
X83911142Y-70513179D01*
X83537855Y-70358176D01*
X83133665Y-70357824D01*
X82878771Y-70463144D01*
X82625982Y-70358176D01*
X82221792Y-70357824D01*
X81848234Y-70512175D01*
X81562179Y-70797731D01*
X81481096Y-70993000D01*
X81332606Y-70993000D01*
X80183297Y-69843691D01*
X84080000Y-69843691D01*
X84080000Y-70084250D01*
X84238750Y-70243000D01*
X84963000Y-70243000D01*
X84963000Y-69493750D01*
X84804250Y-69335000D01*
X84588690Y-69335000D01*
X84355301Y-69431673D01*
X84176673Y-69610302D01*
X84080000Y-69843691D01*
X80183297Y-69843691D01*
X78867000Y-68527394D01*
X78867000Y-62574469D01*
X79155815Y-62928790D01*
X79616450Y-63176980D01*
X79676671Y-63187716D01*
X79883000Y-63064374D01*
X79883000Y-61722000D01*
X79863000Y-61722000D01*
X79863000Y-61468000D01*
X79883000Y-61468000D01*
X79883000Y-61448000D01*
X80137000Y-61448000D01*
X80137000Y-61468000D01*
G36*
X102839432Y-70357974D02*
X102839432Y-72064843D01*
X102514307Y-71739719D01*
X102640327Y-71613698D01*
X102737000Y-71380309D01*
X102737000Y-71139750D01*
X102578250Y-70981000D01*
X101854000Y-70981000D01*
X101854000Y-71001000D01*
X101600000Y-71001000D01*
X101600000Y-70981000D01*
X101580000Y-70981000D01*
X101580000Y-70727000D01*
X101600000Y-70727000D01*
X101600000Y-70707000D01*
X101854000Y-70707000D01*
X101854000Y-70727000D01*
X102578250Y-70727000D01*
X102737000Y-70568250D01*
X102737000Y-70357885D01*
X102839432Y-70357974D01*
X102839432Y-70357974D01*
G37*
X102839432Y-70357974D02*
X102839432Y-72064843D01*
X102514307Y-71739719D01*
X102640327Y-71613698D01*
X102737000Y-71380309D01*
X102737000Y-71139750D01*
X102578250Y-70981000D01*
X101854000Y-70981000D01*
X101854000Y-71001000D01*
X101600000Y-71001000D01*
X101600000Y-70981000D01*
X101580000Y-70981000D01*
X101580000Y-70727000D01*
X101600000Y-70727000D01*
X101600000Y-70707000D01*
X101854000Y-70707000D01*
X101854000Y-70727000D01*
X102578250Y-70727000D01*
X102737000Y-70568250D01*
X102737000Y-70357885D01*
X102839432Y-70357974D01*
G36*
X100717000Y-70568250D02*
X100875748Y-70726998D01*
X100717000Y-70726998D01*
X100717000Y-70848812D01*
X100650294Y-70782106D01*
X100568405Y-70727389D01*
X100460366Y-70612002D01*
X100630000Y-70612002D01*
X100630000Y-70548738D01*
X100717000Y-70531433D01*
X100717000Y-70568250D01*
X100717000Y-70568250D01*
G37*
X100717000Y-70568250D02*
X100875748Y-70726998D01*
X100717000Y-70726998D01*
X100717000Y-70848812D01*
X100650294Y-70782106D01*
X100568405Y-70727389D01*
X100460366Y-70612002D01*
X100630000Y-70612002D01*
X100630000Y-70548738D01*
X100717000Y-70531433D01*
X100717000Y-70568250D01*
G36*
X104190800Y-111933474D02*
X104244937Y-112205639D01*
X104399106Y-112436368D01*
X105670902Y-113708164D01*
X105901631Y-113862333D01*
X105931127Y-113868200D01*
X106173796Y-113916470D01*
X106286560Y-113916470D01*
X106286560Y-115163600D01*
X106330838Y-115398917D01*
X106469910Y-115615041D01*
X106682110Y-115760031D01*
X106934000Y-115811040D01*
X108966000Y-115811040D01*
X109201317Y-115766762D01*
X109217099Y-115756607D01*
X109222110Y-115760031D01*
X109474000Y-115811040D01*
X111506000Y-115811040D01*
X111741317Y-115766762D01*
X111957441Y-115627690D01*
X112102431Y-115415490D01*
X112106165Y-115397050D01*
X112404026Y-115198026D01*
X112884740Y-114717312D01*
X114062293Y-114717312D01*
X114465762Y-115243924D01*
X115979730Y-115887307D01*
X117624666Y-115902346D01*
X119150145Y-115286750D01*
X119214238Y-115243924D01*
X119617707Y-114717312D01*
X116840000Y-111939605D01*
X114062293Y-114717312D01*
X112884740Y-114717312D01*
X113293026Y-114309026D01*
X113391620Y-114161470D01*
X113882688Y-114537707D01*
X116660395Y-111760000D01*
X117019605Y-111760000D01*
X119797312Y-114537707D01*
X120323924Y-114134238D01*
X120967307Y-112620270D01*
X120982346Y-110975334D01*
X120366750Y-109449855D01*
X120323924Y-109385762D01*
X119797312Y-108982293D01*
X117019605Y-111760000D01*
X116660395Y-111760000D01*
X116646253Y-111745858D01*
X116825858Y-111566253D01*
X116840000Y-111580395D01*
X119617707Y-108802688D01*
X119214238Y-108276076D01*
X118745785Y-108077000D01*
X118998995Y-108077000D01*
X118999000Y-108077001D01*
X119485008Y-107980327D01*
X119897026Y-107705026D01*
X121158000Y-106444051D01*
X121158000Y-116078000D01*
X101335788Y-116078000D01*
X103753895Y-113659894D01*
X103908063Y-113429164D01*
X103962200Y-113157000D01*
X103962200Y-99100588D01*
X104190800Y-98871989D01*
X104190800Y-111933474D01*
X104190800Y-111933474D01*
G37*
X104190800Y-111933474D02*
X104244937Y-112205639D01*
X104399106Y-112436368D01*
X105670902Y-113708164D01*
X105901631Y-113862333D01*
X105931127Y-113868200D01*
X106173796Y-113916470D01*
X106286560Y-113916470D01*
X106286560Y-115163600D01*
X106330838Y-115398917D01*
X106469910Y-115615041D01*
X106682110Y-115760031D01*
X106934000Y-115811040D01*
X108966000Y-115811040D01*
X109201317Y-115766762D01*
X109217099Y-115756607D01*
X109222110Y-115760031D01*
X109474000Y-115811040D01*
X111506000Y-115811040D01*
X111741317Y-115766762D01*
X111957441Y-115627690D01*
X112102431Y-115415490D01*
X112106165Y-115397050D01*
X112404026Y-115198026D01*
X112884740Y-114717312D01*
X114062293Y-114717312D01*
X114465762Y-115243924D01*
X115979730Y-115887307D01*
X117624666Y-115902346D01*
X119150145Y-115286750D01*
X119214238Y-115243924D01*
X119617707Y-114717312D01*
X116840000Y-111939605D01*
X114062293Y-114717312D01*
X112884740Y-114717312D01*
X113293026Y-114309026D01*
X113391620Y-114161470D01*
X113882688Y-114537707D01*
X116660395Y-111760000D01*
X117019605Y-111760000D01*
X119797312Y-114537707D01*
X120323924Y-114134238D01*
X120967307Y-112620270D01*
X120982346Y-110975334D01*
X120366750Y-109449855D01*
X120323924Y-109385762D01*
X119797312Y-108982293D01*
X117019605Y-111760000D01*
X116660395Y-111760000D01*
X116646253Y-111745858D01*
X116825858Y-111566253D01*
X116840000Y-111580395D01*
X119617707Y-108802688D01*
X119214238Y-108276076D01*
X118745785Y-108077000D01*
X118998995Y-108077000D01*
X118999000Y-108077001D01*
X119485008Y-107980327D01*
X119897026Y-107705026D01*
X121158000Y-106444051D01*
X121158000Y-116078000D01*
X101335788Y-116078000D01*
X103753895Y-113659894D01*
X103908063Y-113429164D01*
X103962200Y-113157000D01*
X103962200Y-99100588D01*
X104190800Y-98871989D01*
X104190800Y-111933474D01*
G36*
X108000800Y-85130588D02*
X108000800Y-96901000D01*
X108054937Y-97173165D01*
X108209106Y-97403894D01*
X108508800Y-97703589D01*
X108508800Y-100183686D01*
X108311913Y-100114816D01*
X108077000Y-100259076D01*
X108077000Y-101473000D01*
X108097000Y-101473000D01*
X108097000Y-101727000D01*
X108077000Y-101727000D01*
X108077000Y-101747000D01*
X107823000Y-101747000D01*
X107823000Y-101727000D01*
X107803000Y-101727000D01*
X107803000Y-101473000D01*
X107823000Y-101473000D01*
X107823000Y-100259076D01*
X107588087Y-100114816D01*
X107264200Y-100228111D01*
X107264200Y-84393988D01*
X108000800Y-85130588D01*
X108000800Y-85130588D01*
G37*
X108000800Y-85130588D02*
X108000800Y-96901000D01*
X108054937Y-97173165D01*
X108209106Y-97403894D01*
X108508800Y-97703589D01*
X108508800Y-100183686D01*
X108311913Y-100114816D01*
X108077000Y-100259076D01*
X108077000Y-101473000D01*
X108097000Y-101473000D01*
X108097000Y-101727000D01*
X108077000Y-101727000D01*
X108077000Y-101747000D01*
X107823000Y-101747000D01*
X107823000Y-101727000D01*
X107803000Y-101727000D01*
X107803000Y-101473000D01*
X107823000Y-101473000D01*
X107823000Y-100259076D01*
X107588087Y-100114816D01*
X107264200Y-100228111D01*
X107264200Y-84393988D01*
X108000800Y-85130588D01*
G36*
X111254529Y-99733791D02*
X111254529Y-100255650D01*
X110851913Y-100114816D01*
X110617000Y-100259076D01*
X110617000Y-101473000D01*
X110637000Y-101473000D01*
X110637000Y-101727000D01*
X110617000Y-101727000D01*
X110617000Y-101747000D01*
X110363000Y-101747000D01*
X110363000Y-101727000D01*
X110343000Y-101727000D01*
X110343000Y-101473000D01*
X110363000Y-101473000D01*
X110363000Y-100259076D01*
X110128087Y-100114816D01*
X109931200Y-100183686D01*
X109931200Y-98410462D01*
X111254529Y-99733791D01*
X111254529Y-99733791D01*
G37*
X111254529Y-99733791D02*
X111254529Y-100255650D01*
X110851913Y-100114816D01*
X110617000Y-100259076D01*
X110617000Y-101473000D01*
X110637000Y-101473000D01*
X110637000Y-101727000D01*
X110617000Y-101727000D01*
X110617000Y-101747000D01*
X110363000Y-101747000D01*
X110363000Y-101727000D01*
X110343000Y-101727000D01*
X110343000Y-101473000D01*
X110363000Y-101473000D01*
X110363000Y-100259076D01*
X110128087Y-100114816D01*
X109931200Y-100183686D01*
X109931200Y-98410462D01*
X111254529Y-99733791D01*
G36*
X112171506Y-95752895D02*
X112402235Y-95907063D01*
X112674400Y-95961200D01*
X114121180Y-95961200D01*
X114033124Y-96131460D01*
X114025280Y-96176930D01*
X114147780Y-96393000D01*
X115443000Y-96393000D01*
X115443000Y-96373000D01*
X115697000Y-96373000D01*
X115697000Y-96393000D01*
X115717000Y-96393000D01*
X115717000Y-96647000D01*
X115697000Y-96647000D01*
X115697000Y-96667000D01*
X115443000Y-96667000D01*
X115443000Y-96647000D01*
X114147780Y-96647000D01*
X114025280Y-96863070D01*
X114033124Y-96908540D01*
X114121180Y-97078800D01*
X112867388Y-97078800D01*
X111065514Y-95276926D01*
X111065514Y-94646902D01*
X112171506Y-95752895D01*
X112171506Y-95752895D01*
G37*
X112171506Y-95752895D02*
X112402235Y-95907063D01*
X112674400Y-95961200D01*
X114121180Y-95961200D01*
X114033124Y-96131460D01*
X114025280Y-96176930D01*
X114147780Y-96393000D01*
X115443000Y-96393000D01*
X115443000Y-96373000D01*
X115697000Y-96373000D01*
X115697000Y-96393000D01*
X115717000Y-96393000D01*
X115717000Y-96647000D01*
X115697000Y-96647000D01*
X115697000Y-96667000D01*
X115443000Y-96667000D01*
X115443000Y-96647000D01*
X114147780Y-96647000D01*
X114025280Y-96863070D01*
X114033124Y-96908540D01*
X114121180Y-97078800D01*
X112867388Y-97078800D01*
X111065514Y-95276926D01*
X111065514Y-94646902D01*
X112171506Y-95752895D01*
G36*
X112199035Y-90827063D02*
X112244190Y-90836045D01*
X112471200Y-90881200D01*
X114121180Y-90881200D01*
X114033124Y-91051460D01*
X114025280Y-91096930D01*
X114147780Y-91313000D01*
X115443000Y-91313000D01*
X115443000Y-91293000D01*
X115697000Y-91293000D01*
X115697000Y-91313000D01*
X115717000Y-91313000D01*
X115717000Y-91567000D01*
X115697000Y-91567000D01*
X115697000Y-91587000D01*
X115443000Y-91587000D01*
X115443000Y-91567000D01*
X114147780Y-91567000D01*
X114025280Y-91783070D01*
X114033124Y-91828540D01*
X114121180Y-91998800D01*
X112410189Y-91998800D01*
X111973316Y-91561928D01*
X111973316Y-90676242D01*
X112199035Y-90827063D01*
X112199035Y-90827063D01*
G37*
X112199035Y-90827063D02*
X112244190Y-90836045D01*
X112471200Y-90881200D01*
X114121180Y-90881200D01*
X114033124Y-91051460D01*
X114025280Y-91096930D01*
X114147780Y-91313000D01*
X115443000Y-91313000D01*
X115443000Y-91293000D01*
X115697000Y-91293000D01*
X115697000Y-91313000D01*
X115717000Y-91313000D01*
X115717000Y-91567000D01*
X115697000Y-91567000D01*
X115697000Y-91587000D01*
X115443000Y-91587000D01*
X115443000Y-91567000D01*
X114147780Y-91567000D01*
X114025280Y-91783070D01*
X114033124Y-91828540D01*
X114121180Y-91998800D01*
X112410189Y-91998800D01*
X111973316Y-91561928D01*
X111973316Y-90676242D01*
X112199035Y-90827063D01*
G36*
X116978628Y-80240016D02*
X116900571Y-80292172D01*
X116835842Y-80389046D01*
X116437792Y-80053229D01*
X115916771Y-79887423D01*
X115697000Y-80038872D01*
X115697000Y-81153000D01*
X115717000Y-81153000D01*
X115717000Y-81407000D01*
X115697000Y-81407000D01*
X115697000Y-81427000D01*
X115443000Y-81427000D01*
X115443000Y-81407000D01*
X115423000Y-81407000D01*
X115423000Y-81153000D01*
X115443000Y-81153000D01*
X115443000Y-80038872D01*
X115223229Y-79887423D01*
X114702208Y-80053229D01*
X114284299Y-80405800D01*
X114096800Y-80768339D01*
X114096800Y-77358188D01*
X116978628Y-80240016D01*
X116978628Y-80240016D01*
G37*
X116978628Y-80240016D02*
X116900571Y-80292172D01*
X116835842Y-80389046D01*
X116437792Y-80053229D01*
X115916771Y-79887423D01*
X115697000Y-80038872D01*
X115697000Y-81153000D01*
X115717000Y-81153000D01*
X115717000Y-81407000D01*
X115697000Y-81407000D01*
X115697000Y-81427000D01*
X115443000Y-81427000D01*
X115443000Y-81407000D01*
X115423000Y-81407000D01*
X115423000Y-81153000D01*
X115443000Y-81153000D01*
X115443000Y-80038872D01*
X115223229Y-79887423D01*
X114702208Y-80053229D01*
X114284299Y-80405800D01*
X114096800Y-80768339D01*
X114096800Y-77358188D01*
X116978628Y-80240016D01*
G36*
X90043000Y-59953230D02*
X89659118Y-60029589D01*
X89226012Y-60318980D01*
X88936621Y-60752086D01*
X88898214Y-60945170D01*
X88814778Y-60666785D01*
X88484185Y-60261210D01*
X88023550Y-60013020D01*
X87963329Y-60002284D01*
X87757000Y-60125626D01*
X87757000Y-61468000D01*
X87777000Y-61468000D01*
X87777000Y-61722000D01*
X87757000Y-61722000D01*
X87757000Y-63064374D01*
X87963329Y-63187716D01*
X88023550Y-63176980D01*
X88484185Y-62928790D01*
X88814778Y-62523215D01*
X88898214Y-62244830D01*
X88936621Y-62437914D01*
X89226012Y-62871020D01*
X89659118Y-63160411D01*
X89923518Y-63213003D01*
X89798671Y-63237837D01*
X89718677Y-63291287D01*
X89610609Y-63239854D01*
X89472000Y-63369636D01*
X89472000Y-63483506D01*
X89308889Y-63727619D01*
X89240000Y-64073948D01*
X89240000Y-64932000D01*
X89218000Y-64932000D01*
X89218000Y-64912000D01*
X88648671Y-64912000D01*
X88512051Y-64820029D01*
X88265000Y-64770000D01*
X87893026Y-64770000D01*
X87444013Y-64320987D01*
X87242051Y-64185029D01*
X86995000Y-64135000D01*
X85578000Y-64135000D01*
X85578000Y-63978000D01*
X88440000Y-63978000D01*
X88440000Y-64658000D01*
X89218000Y-64658000D01*
X89218000Y-63369636D01*
X89079391Y-63239854D01*
X88794871Y-63375266D01*
X88557490Y-63641339D01*
X88440000Y-63978000D01*
X85578000Y-63978000D01*
X85578000Y-63893000D01*
X85598000Y-63893000D01*
X85598000Y-63873000D01*
X85852000Y-63873000D01*
X85852000Y-63893000D01*
X86576250Y-63893000D01*
X86735000Y-63734250D01*
X86735000Y-63493691D01*
X86638327Y-63260302D01*
X86459699Y-63081673D01*
X86226310Y-62985000D01*
X86010750Y-62985000D01*
X85852002Y-63143748D01*
X85852002Y-62992619D01*
X86033988Y-62871020D01*
X86323379Y-62437914D01*
X86361786Y-62244830D01*
X86445222Y-62523215D01*
X86775815Y-62928790D01*
X87236450Y-63176980D01*
X87296671Y-63187716D01*
X87503000Y-63064374D01*
X87503000Y-61722000D01*
X87483000Y-61722000D01*
X87483000Y-61468000D01*
X87503000Y-61468000D01*
X87503000Y-60125626D01*
X87296671Y-60002284D01*
X87236450Y-60013020D01*
X86775815Y-60261210D01*
X86445222Y-60666785D01*
X86361786Y-60945170D01*
X86323379Y-60752086D01*
X86033988Y-60318980D01*
X85600882Y-60029589D01*
X85090000Y-59927968D01*
X84579118Y-60029589D01*
X84146012Y-60318980D01*
X83856621Y-60752086D01*
X83820000Y-60936192D01*
X83783379Y-60752086D01*
X83493988Y-60318980D01*
X83060882Y-60029589D01*
X82550000Y-59927968D01*
X82039118Y-60029589D01*
X81879485Y-60136252D01*
X81871573Y-60094205D01*
X81735173Y-59882233D01*
X81527051Y-59740029D01*
X81280000Y-59690000D01*
X78740000Y-59690000D01*
X78509205Y-59733427D01*
X78297233Y-59869827D01*
X78155029Y-60077949D01*
X78105000Y-60325000D01*
X78105000Y-68580000D01*
X78151672Y-68818946D01*
X78290987Y-69029013D01*
X80830987Y-71569013D01*
X81032949Y-71704971D01*
X81280000Y-71755000D01*
X81481113Y-71755000D01*
X81561175Y-71948766D01*
X81711800Y-72099654D01*
X81711800Y-72517000D01*
X81765937Y-72789165D01*
X81920106Y-73019894D01*
X84642878Y-75742666D01*
X84686937Y-75964165D01*
X84841106Y-76194894D01*
X85521800Y-76875588D01*
X85521800Y-77793859D01*
X85090000Y-77707968D01*
X84579118Y-77809589D01*
X84146012Y-78098980D01*
X83856621Y-78532086D01*
X83818214Y-78725170D01*
X83734778Y-78446785D01*
X83404185Y-78041210D01*
X82943550Y-77793020D01*
X82883329Y-77782284D01*
X82677000Y-77905626D01*
X82677000Y-79248000D01*
X82697000Y-79248000D01*
X82697000Y-79502000D01*
X82677000Y-79502000D01*
X82677000Y-79522000D01*
X82423000Y-79522000D01*
X82423000Y-79502000D01*
X82403000Y-79502000D01*
X82403000Y-79248000D01*
X82423000Y-79248000D01*
X82423000Y-77905626D01*
X82216671Y-77782284D01*
X82156450Y-77793020D01*
X81915000Y-77923113D01*
X81915000Y-77470000D01*
X81868328Y-77231054D01*
X81729013Y-77020987D01*
X76327000Y-71618974D01*
X76327000Y-57912000D01*
X90043000Y-57912000D01*
X90043000Y-59953230D01*
X90043000Y-59953230D01*
G37*
X90043000Y-59953230D02*
X89659118Y-60029589D01*
X89226012Y-60318980D01*
X88936621Y-60752086D01*
X88898214Y-60945170D01*
X88814778Y-60666785D01*
X88484185Y-60261210D01*
X88023550Y-60013020D01*
X87963329Y-60002284D01*
X87757000Y-60125626D01*
X87757000Y-61468000D01*
X87777000Y-61468000D01*
X87777000Y-61722000D01*
X87757000Y-61722000D01*
X87757000Y-63064374D01*
X87963329Y-63187716D01*
X88023550Y-63176980D01*
X88484185Y-62928790D01*
X88814778Y-62523215D01*
X88898214Y-62244830D01*
X88936621Y-62437914D01*
X89226012Y-62871020D01*
X89659118Y-63160411D01*
X89923518Y-63213003D01*
X89798671Y-63237837D01*
X89718677Y-63291287D01*
X89610609Y-63239854D01*
X89472000Y-63369636D01*
X89472000Y-63483506D01*
X89308889Y-63727619D01*
X89240000Y-64073948D01*
X89240000Y-64932000D01*
X89218000Y-64932000D01*
X89218000Y-64912000D01*
X88648671Y-64912000D01*
X88512051Y-64820029D01*
X88265000Y-64770000D01*
X87893026Y-64770000D01*
X87444013Y-64320987D01*
X87242051Y-64185029D01*
X86995000Y-64135000D01*
X85578000Y-64135000D01*
X85578000Y-63978000D01*
X88440000Y-63978000D01*
X88440000Y-64658000D01*
X89218000Y-64658000D01*
X89218000Y-63369636D01*
X89079391Y-63239854D01*
X88794871Y-63375266D01*
X88557490Y-63641339D01*
X88440000Y-63978000D01*
X85578000Y-63978000D01*
X85578000Y-63893000D01*
X85598000Y-63893000D01*
X85598000Y-63873000D01*
X85852000Y-63873000D01*
X85852000Y-63893000D01*
X86576250Y-63893000D01*
X86735000Y-63734250D01*
X86735000Y-63493691D01*
X86638327Y-63260302D01*
X86459699Y-63081673D01*
X86226310Y-62985000D01*
X86010750Y-62985000D01*
X85852002Y-63143748D01*
X85852002Y-62992619D01*
X86033988Y-62871020D01*
X86323379Y-62437914D01*
X86361786Y-62244830D01*
X86445222Y-62523215D01*
X86775815Y-62928790D01*
X87236450Y-63176980D01*
X87296671Y-63187716D01*
X87503000Y-63064374D01*
X87503000Y-61722000D01*
X87483000Y-61722000D01*
X87483000Y-61468000D01*
X87503000Y-61468000D01*
X87503000Y-60125626D01*
X87296671Y-60002284D01*
X87236450Y-60013020D01*
X86775815Y-60261210D01*
X86445222Y-60666785D01*
X86361786Y-60945170D01*
X86323379Y-60752086D01*
X86033988Y-60318980D01*
X85600882Y-60029589D01*
X85090000Y-59927968D01*
X84579118Y-60029589D01*
X84146012Y-60318980D01*
X83856621Y-60752086D01*
X83820000Y-60936192D01*
X83783379Y-60752086D01*
X83493988Y-60318980D01*
X83060882Y-60029589D01*
X82550000Y-59927968D01*
X82039118Y-60029589D01*
X81879485Y-60136252D01*
X81871573Y-60094205D01*
X81735173Y-59882233D01*
X81527051Y-59740029D01*
X81280000Y-59690000D01*
X78740000Y-59690000D01*
X78509205Y-59733427D01*
X78297233Y-59869827D01*
X78155029Y-60077949D01*
X78105000Y-60325000D01*
X78105000Y-68580000D01*
X78151672Y-68818946D01*
X78290987Y-69029013D01*
X80830987Y-71569013D01*
X81032949Y-71704971D01*
X81280000Y-71755000D01*
X81481113Y-71755000D01*
X81561175Y-71948766D01*
X81711800Y-72099654D01*
X81711800Y-72517000D01*
X81765937Y-72789165D01*
X81920106Y-73019894D01*
X84642878Y-75742666D01*
X84686937Y-75964165D01*
X84841106Y-76194894D01*
X85521800Y-76875588D01*
X85521800Y-77793859D01*
X85090000Y-77707968D01*
X84579118Y-77809589D01*
X84146012Y-78098980D01*
X83856621Y-78532086D01*
X83818214Y-78725170D01*
X83734778Y-78446785D01*
X83404185Y-78041210D01*
X82943550Y-77793020D01*
X82883329Y-77782284D01*
X82677000Y-77905626D01*
X82677000Y-79248000D01*
X82697000Y-79248000D01*
X82697000Y-79502000D01*
X82677000Y-79502000D01*
X82677000Y-79522000D01*
X82423000Y-79522000D01*
X82423000Y-79502000D01*
X82403000Y-79502000D01*
X82403000Y-79248000D01*
X82423000Y-79248000D01*
X82423000Y-77905626D01*
X82216671Y-77782284D01*
X82156450Y-77793020D01*
X81915000Y-77923113D01*
X81915000Y-77470000D01*
X81868328Y-77231054D01*
X81729013Y-77020987D01*
X76327000Y-71618974D01*
X76327000Y-57912000D01*
X90043000Y-57912000D01*
X90043000Y-59953230D01*
G36*
X112697654Y-63014666D02*
X113313250Y-64540145D01*
X113356076Y-64604238D01*
X113882688Y-65007707D01*
X116660395Y-62230000D01*
X116646253Y-62215858D01*
X116825858Y-62036253D01*
X116840000Y-62050395D01*
X116854143Y-62036253D01*
X117033748Y-62215858D01*
X117019605Y-62230000D01*
X119797312Y-65007707D01*
X120319800Y-64607398D01*
X120319800Y-65897811D01*
X119588642Y-66628970D01*
X119377890Y-66484969D01*
X119126000Y-66433960D01*
X117094000Y-66433960D01*
X116858683Y-66478238D01*
X116642559Y-66617310D01*
X116497569Y-66829510D01*
X116446560Y-67081400D01*
X116446560Y-68808600D01*
X116490838Y-69043917D01*
X116629910Y-69260041D01*
X116842110Y-69405031D01*
X116936927Y-69424232D01*
X116759268Y-69582964D01*
X116505291Y-70110209D01*
X116502642Y-70125974D01*
X116623783Y-70358000D01*
X117983000Y-70358000D01*
X117983000Y-70338000D01*
X118237000Y-70338000D01*
X118237000Y-70358000D01*
X119596217Y-70358000D01*
X119717358Y-70125974D01*
X119714709Y-70110209D01*
X119460732Y-69582964D01*
X119285155Y-69426093D01*
X119361317Y-69411762D01*
X119577441Y-69272690D01*
X119722431Y-69060490D01*
X119773440Y-68808600D01*
X119773440Y-68453142D01*
X119781294Y-68447894D01*
X121158000Y-67071189D01*
X121158000Y-78086948D01*
X117512562Y-74441510D01*
X117925255Y-74523600D01*
X118294745Y-74523600D01*
X118868234Y-74409526D01*
X119354415Y-74084670D01*
X119679271Y-73598489D01*
X119793345Y-73025000D01*
X119679271Y-72451511D01*
X119354415Y-71965330D01*
X119044931Y-71758539D01*
X119460732Y-71387036D01*
X119714709Y-70859791D01*
X119717358Y-70844026D01*
X119596217Y-70612000D01*
X118237000Y-70612000D01*
X118237000Y-70632000D01*
X117983000Y-70632000D01*
X117983000Y-70612000D01*
X116623783Y-70612000D01*
X116502642Y-70844026D01*
X116505291Y-70859791D01*
X116759268Y-71387036D01*
X117175069Y-71758539D01*
X116865585Y-71965330D01*
X116540729Y-72451511D01*
X116426655Y-73025000D01*
X116508745Y-73437693D01*
X115833026Y-72761974D01*
X115421008Y-72486673D01*
X114935000Y-72389999D01*
X114934995Y-72390000D01*
X113792000Y-72390000D01*
X113305992Y-72486673D01*
X113070483Y-72644034D01*
X112828792Y-72643824D01*
X112649020Y-72718104D01*
X112522000Y-72665361D01*
X112522000Y-65187312D01*
X114062293Y-65187312D01*
X114465762Y-65713924D01*
X115979730Y-66357307D01*
X117624666Y-66372346D01*
X119150145Y-65756750D01*
X119214238Y-65713924D01*
X119617707Y-65187312D01*
X116840000Y-62409605D01*
X114062293Y-65187312D01*
X112522000Y-65187312D01*
X112522000Y-61641981D01*
X112712233Y-61420043D01*
X112697654Y-63014666D01*
X112697654Y-63014666D01*
G37*
X112697654Y-63014666D02*
X113313250Y-64540145D01*
X113356076Y-64604238D01*
X113882688Y-65007707D01*
X116660395Y-62230000D01*
X116646253Y-62215858D01*
X116825858Y-62036253D01*
X116840000Y-62050395D01*
X116854143Y-62036253D01*
X117033748Y-62215858D01*
X117019605Y-62230000D01*
X119797312Y-65007707D01*
X120319800Y-64607398D01*
X120319800Y-65897811D01*
X119588642Y-66628970D01*
X119377890Y-66484969D01*
X119126000Y-66433960D01*
X117094000Y-66433960D01*
X116858683Y-66478238D01*
X116642559Y-66617310D01*
X116497569Y-66829510D01*
X116446560Y-67081400D01*
X116446560Y-68808600D01*
X116490838Y-69043917D01*
X116629910Y-69260041D01*
X116842110Y-69405031D01*
X116936927Y-69424232D01*
X116759268Y-69582964D01*
X116505291Y-70110209D01*
X116502642Y-70125974D01*
X116623783Y-70358000D01*
X117983000Y-70358000D01*
X117983000Y-70338000D01*
X118237000Y-70338000D01*
X118237000Y-70358000D01*
X119596217Y-70358000D01*
X119717358Y-70125974D01*
X119714709Y-70110209D01*
X119460732Y-69582964D01*
X119285155Y-69426093D01*
X119361317Y-69411762D01*
X119577441Y-69272690D01*
X119722431Y-69060490D01*
X119773440Y-68808600D01*
X119773440Y-68453142D01*
X119781294Y-68447894D01*
X121158000Y-67071189D01*
X121158000Y-78086948D01*
X117512562Y-74441510D01*
X117925255Y-74523600D01*
X118294745Y-74523600D01*
X118868234Y-74409526D01*
X119354415Y-74084670D01*
X119679271Y-73598489D01*
X119793345Y-73025000D01*
X119679271Y-72451511D01*
X119354415Y-71965330D01*
X119044931Y-71758539D01*
X119460732Y-71387036D01*
X119714709Y-70859791D01*
X119717358Y-70844026D01*
X119596217Y-70612000D01*
X118237000Y-70612000D01*
X118237000Y-70632000D01*
X117983000Y-70632000D01*
X117983000Y-70612000D01*
X116623783Y-70612000D01*
X116502642Y-70844026D01*
X116505291Y-70859791D01*
X116759268Y-71387036D01*
X117175069Y-71758539D01*
X116865585Y-71965330D01*
X116540729Y-72451511D01*
X116426655Y-73025000D01*
X116508745Y-73437693D01*
X115833026Y-72761974D01*
X115421008Y-72486673D01*
X114935000Y-72389999D01*
X114934995Y-72390000D01*
X113792000Y-72390000D01*
X113305992Y-72486673D01*
X113070483Y-72644034D01*
X112828792Y-72643824D01*
X112649020Y-72718104D01*
X112522000Y-72665361D01*
X112522000Y-65187312D01*
X114062293Y-65187312D01*
X114465762Y-65713924D01*
X115979730Y-66357307D01*
X117624666Y-66372346D01*
X119150145Y-65756750D01*
X119214238Y-65713924D01*
X119617707Y-65187312D01*
X116840000Y-62409605D01*
X114062293Y-65187312D01*
X112522000Y-65187312D01*
X112522000Y-61641981D01*
X112712233Y-61420043D01*
X112697654Y-63014666D01*
G36*
X97472000Y-76058000D02*
X98041329Y-76058000D01*
X98177949Y-76149971D01*
X98425000Y-76200000D01*
X102743110Y-76200000D01*
X102742824Y-76528208D01*
X102897175Y-76901766D01*
X103182731Y-77187821D01*
X103250593Y-77216000D01*
X102372026Y-77216000D01*
X102513327Y-77074698D01*
X102610000Y-76841309D01*
X102610000Y-76600750D01*
X102451250Y-76442000D01*
X101727000Y-76442000D01*
X101727000Y-76462000D01*
X101473000Y-76462000D01*
X101473000Y-76442000D01*
X100748750Y-76442000D01*
X100590000Y-76600750D01*
X100590000Y-76841309D01*
X100686673Y-77074698D01*
X100827974Y-77216000D01*
X99151389Y-77216000D01*
X98800894Y-76865506D01*
X98570165Y-76711337D01*
X98298000Y-76657200D01*
X98250000Y-76657200D01*
X98250000Y-76312000D01*
X97472000Y-76312000D01*
X97472000Y-76332000D01*
X97450000Y-76332000D01*
X97450000Y-76038000D01*
X97472000Y-76038000D01*
X97472000Y-76058000D01*
X97472000Y-76058000D01*
G37*
X97472000Y-76058000D02*
X98041329Y-76058000D01*
X98177949Y-76149971D01*
X98425000Y-76200000D01*
X102743110Y-76200000D01*
X102742824Y-76528208D01*
X102897175Y-76901766D01*
X103182731Y-77187821D01*
X103250593Y-77216000D01*
X102372026Y-77216000D01*
X102513327Y-77074698D01*
X102610000Y-76841309D01*
X102610000Y-76600750D01*
X102451250Y-76442000D01*
X101727000Y-76442000D01*
X101727000Y-76462000D01*
X101473000Y-76462000D01*
X101473000Y-76442000D01*
X100748750Y-76442000D01*
X100590000Y-76600750D01*
X100590000Y-76841309D01*
X100686673Y-77074698D01*
X100827974Y-77216000D01*
X99151389Y-77216000D01*
X98800894Y-76865506D01*
X98570165Y-76711337D01*
X98298000Y-76657200D01*
X98250000Y-76657200D01*
X98250000Y-76312000D01*
X97472000Y-76312000D01*
X97472000Y-76332000D01*
X97450000Y-76332000D01*
X97450000Y-76038000D01*
X97472000Y-76038000D01*
X97472000Y-76058000D01*
G36*
X85237000Y-71997000D02*
X85217000Y-71997000D01*
X85217000Y-72746250D01*
X85375750Y-72905000D01*
X85591310Y-72905000D01*
X85824699Y-72808327D01*
X86003327Y-72629698D01*
X86093833Y-72411198D01*
X86097837Y-72431329D01*
X86133699Y-72485000D01*
X86097837Y-72538671D01*
X86028948Y-72885000D01*
X86097837Y-73231329D01*
X86133699Y-73285000D01*
X86097837Y-73338671D01*
X86028948Y-73685000D01*
X86056141Y-73821710D01*
X86024835Y-73827937D01*
X85794106Y-73982106D01*
X85725000Y-74051212D01*
X84571786Y-72897998D01*
X84588690Y-72905000D01*
X84804250Y-72905000D01*
X84963000Y-72746250D01*
X84963000Y-71997000D01*
X84943000Y-71997000D01*
X84943000Y-71755000D01*
X85237000Y-71755000D01*
X85237000Y-71997000D01*
X85237000Y-71997000D01*
G37*
X85237000Y-71997000D02*
X85217000Y-71997000D01*
X85217000Y-72746250D01*
X85375750Y-72905000D01*
X85591310Y-72905000D01*
X85824699Y-72808327D01*
X86003327Y-72629698D01*
X86093833Y-72411198D01*
X86097837Y-72431329D01*
X86133699Y-72485000D01*
X86097837Y-72538671D01*
X86028948Y-72885000D01*
X86097837Y-73231329D01*
X86133699Y-73285000D01*
X86097837Y-73338671D01*
X86028948Y-73685000D01*
X86056141Y-73821710D01*
X86024835Y-73827937D01*
X85794106Y-73982106D01*
X85725000Y-74051212D01*
X84571786Y-72897998D01*
X84588690Y-72905000D01*
X84804250Y-72905000D01*
X84963000Y-72746250D01*
X84963000Y-71997000D01*
X84943000Y-71997000D01*
X84943000Y-71755000D01*
X85237000Y-71755000D01*
X85237000Y-71997000D01*
G36*
X81153000Y-77522606D02*
X81153000Y-80010000D01*
X81163006Y-80059410D01*
X81190197Y-80099803D01*
X81333360Y-80242966D01*
X81606012Y-80651020D01*
X82014066Y-80923672D01*
X82460197Y-81369803D01*
X82502211Y-81397666D01*
X82550000Y-81407000D01*
X85648659Y-81407000D01*
X85730106Y-81528894D01*
X87254105Y-83052894D01*
X87408274Y-83155906D01*
X87447530Y-83182136D01*
X87540197Y-83274803D01*
X87582211Y-83302666D01*
X87630000Y-83312000D01*
X97737394Y-83312000D01*
X99568000Y-85142606D01*
X99568000Y-98372394D01*
X97737394Y-100203000D01*
X86412606Y-100203000D01*
X86286086Y-100076480D01*
X86205825Y-99882234D01*
X85920269Y-99596179D01*
X85724490Y-99514884D01*
X85179803Y-98970197D01*
X85137789Y-98942334D01*
X85090000Y-98933000D01*
X83872606Y-98933000D01*
X83312000Y-98372394D01*
X83312000Y-90805000D01*
X83301994Y-90755590D01*
X83273553Y-90713965D01*
X83231159Y-90686685D01*
X83185000Y-90678000D01*
X81967606Y-90678000D01*
X78867000Y-87577394D01*
X78867000Y-77522606D01*
X79427606Y-76962000D01*
X80592394Y-76962000D01*
X81153000Y-77522606D01*
X81153000Y-77522606D01*
G37*
X81153000Y-77522606D02*
X81153000Y-80010000D01*
X81163006Y-80059410D01*
X81190197Y-80099803D01*
X81333360Y-80242966D01*
X81606012Y-80651020D01*
X82014066Y-80923672D01*
X82460197Y-81369803D01*
X82502211Y-81397666D01*
X82550000Y-81407000D01*
X85648659Y-81407000D01*
X85730106Y-81528894D01*
X87254105Y-83052894D01*
X87408274Y-83155906D01*
X87447530Y-83182136D01*
X87540197Y-83274803D01*
X87582211Y-83302666D01*
X87630000Y-83312000D01*
X97737394Y-83312000D01*
X99568000Y-85142606D01*
X99568000Y-98372394D01*
X97737394Y-100203000D01*
X86412606Y-100203000D01*
X86286086Y-100076480D01*
X86205825Y-99882234D01*
X85920269Y-99596179D01*
X85724490Y-99514884D01*
X85179803Y-98970197D01*
X85137789Y-98942334D01*
X85090000Y-98933000D01*
X83872606Y-98933000D01*
X83312000Y-98372394D01*
X83312000Y-90805000D01*
X83301994Y-90755590D01*
X83273553Y-90713965D01*
X83231159Y-90686685D01*
X83185000Y-90678000D01*
X81967606Y-90678000D01*
X78867000Y-87577394D01*
X78867000Y-77522606D01*
X79427606Y-76962000D01*
X80592394Y-76962000D01*
X81153000Y-77522606D01*
G36*
X75438000Y-71755000D02*
X75448006Y-71804410D01*
X75475197Y-71844803D01*
X81153000Y-77522606D01*
X81153000Y-83820000D01*
X81163006Y-83869410D01*
X81190197Y-83909803D01*
X82423000Y-85142606D01*
X82423000Y-90678000D01*
X75096683Y-90678000D01*
X74921890Y-90558569D01*
X74670000Y-90507560D01*
X73920000Y-90507560D01*
X73684683Y-90551838D01*
X73662721Y-90565970D01*
X73651890Y-90558569D01*
X73400000Y-90507560D01*
X72650000Y-90507560D01*
X72414683Y-90551838D01*
X72392721Y-90565970D01*
X72381890Y-90558569D01*
X72130000Y-90507560D01*
X71380000Y-90507560D01*
X71144683Y-90551838D01*
X70948622Y-90678000D01*
X51562000Y-90678000D01*
X51562000Y-71497265D01*
X52704670Y-71497265D01*
X52994078Y-72197686D01*
X53529495Y-72734039D01*
X54229410Y-73024668D01*
X54987265Y-73025330D01*
X55687686Y-72735922D01*
X56224039Y-72200505D01*
X56463830Y-71623021D01*
X62229560Y-71623021D01*
X62615437Y-72556915D01*
X63329327Y-73272052D01*
X64262546Y-73659559D01*
X65273021Y-73660440D01*
X66206915Y-73274563D01*
X66922052Y-72560673D01*
X67309559Y-71627454D01*
X67310440Y-70616979D01*
X66924563Y-69683085D01*
X66210673Y-68967948D01*
X65277454Y-68580441D01*
X64266979Y-68579560D01*
X63333085Y-68965437D01*
X62617948Y-69679327D01*
X62230441Y-70612546D01*
X62229560Y-71623021D01*
X56463830Y-71623021D01*
X56514668Y-71500590D01*
X56515330Y-70742735D01*
X56225922Y-70042314D01*
X55690505Y-69505961D01*
X54990590Y-69215332D01*
X54232735Y-69214670D01*
X53532314Y-69504078D01*
X52995961Y-70039495D01*
X52705332Y-70739410D01*
X52704670Y-71497265D01*
X51562000Y-71497265D01*
X51562000Y-62607265D01*
X52704670Y-62607265D01*
X52994078Y-63307686D01*
X53529495Y-63844039D01*
X54229410Y-64134668D01*
X54987265Y-64135330D01*
X55687686Y-63845922D01*
X56224039Y-63310505D01*
X56463830Y-62733021D01*
X62229560Y-62733021D01*
X62615437Y-63666915D01*
X63329327Y-64382052D01*
X64262546Y-64769559D01*
X65273021Y-64770440D01*
X66206915Y-64384563D01*
X66922052Y-63670673D01*
X67309559Y-62737454D01*
X67310440Y-61726979D01*
X66924563Y-60793085D01*
X66210673Y-60077948D01*
X65277454Y-59690441D01*
X64266979Y-59689560D01*
X63333085Y-60075437D01*
X62617948Y-60789327D01*
X62230441Y-61722546D01*
X62229560Y-62733021D01*
X56463830Y-62733021D01*
X56514668Y-62610590D01*
X56515330Y-61852735D01*
X56225922Y-61152314D01*
X55690505Y-60615961D01*
X54990590Y-60325332D01*
X54232735Y-60324670D01*
X53532314Y-60614078D01*
X52995961Y-61149495D01*
X52705332Y-61849410D01*
X52704670Y-62607265D01*
X51562000Y-62607265D01*
X51562000Y-57912000D01*
X75438000Y-57912000D01*
X75438000Y-71755000D01*
X75438000Y-71755000D01*
G37*
X75438000Y-71755000D02*
X75448006Y-71804410D01*
X75475197Y-71844803D01*
X81153000Y-77522606D01*
X81153000Y-83820000D01*
X81163006Y-83869410D01*
X81190197Y-83909803D01*
X82423000Y-85142606D01*
X82423000Y-90678000D01*
X75096683Y-90678000D01*
X74921890Y-90558569D01*
X74670000Y-90507560D01*
X73920000Y-90507560D01*
X73684683Y-90551838D01*
X73662721Y-90565970D01*
X73651890Y-90558569D01*
X73400000Y-90507560D01*
X72650000Y-90507560D01*
X72414683Y-90551838D01*
X72392721Y-90565970D01*
X72381890Y-90558569D01*
X72130000Y-90507560D01*
X71380000Y-90507560D01*
X71144683Y-90551838D01*
X70948622Y-90678000D01*
X51562000Y-90678000D01*
X51562000Y-71497265D01*
X52704670Y-71497265D01*
X52994078Y-72197686D01*
X53529495Y-72734039D01*
X54229410Y-73024668D01*
X54987265Y-73025330D01*
X55687686Y-72735922D01*
X56224039Y-72200505D01*
X56463830Y-71623021D01*
X62229560Y-71623021D01*
X62615437Y-72556915D01*
X63329327Y-73272052D01*
X64262546Y-73659559D01*
X65273021Y-73660440D01*
X66206915Y-73274563D01*
X66922052Y-72560673D01*
X67309559Y-71627454D01*
X67310440Y-70616979D01*
X66924563Y-69683085D01*
X66210673Y-68967948D01*
X65277454Y-68580441D01*
X64266979Y-68579560D01*
X63333085Y-68965437D01*
X62617948Y-69679327D01*
X62230441Y-70612546D01*
X62229560Y-71623021D01*
X56463830Y-71623021D01*
X56514668Y-71500590D01*
X56515330Y-70742735D01*
X56225922Y-70042314D01*
X55690505Y-69505961D01*
X54990590Y-69215332D01*
X54232735Y-69214670D01*
X53532314Y-69504078D01*
X52995961Y-70039495D01*
X52705332Y-70739410D01*
X52704670Y-71497265D01*
X51562000Y-71497265D01*
X51562000Y-62607265D01*
X52704670Y-62607265D01*
X52994078Y-63307686D01*
X53529495Y-63844039D01*
X54229410Y-64134668D01*
X54987265Y-64135330D01*
X55687686Y-63845922D01*
X56224039Y-63310505D01*
X56463830Y-62733021D01*
X62229560Y-62733021D01*
X62615437Y-63666915D01*
X63329327Y-64382052D01*
X64262546Y-64769559D01*
X65273021Y-64770440D01*
X66206915Y-64384563D01*
X66922052Y-63670673D01*
X67309559Y-62737454D01*
X67310440Y-61726979D01*
X66924563Y-60793085D01*
X66210673Y-60077948D01*
X65277454Y-59690441D01*
X64266979Y-59689560D01*
X63333085Y-60075437D01*
X62617948Y-60789327D01*
X62230441Y-61722546D01*
X62229560Y-62733021D01*
X56463830Y-62733021D01*
X56514668Y-62610590D01*
X56515330Y-61852735D01*
X56225922Y-61152314D01*
X55690505Y-60615961D01*
X54990590Y-60325332D01*
X54232735Y-60324670D01*
X53532314Y-60614078D01*
X52995961Y-61149495D01*
X52705332Y-61849410D01*
X52704670Y-62607265D01*
X51562000Y-62607265D01*
X51562000Y-57912000D01*
X75438000Y-57912000D01*
X75438000Y-71755000D01*
G36*
X100203000Y-103557606D02*
X100203000Y-108532394D01*
X98372394Y-110363000D01*
X85142606Y-110363000D01*
X83312000Y-108532394D01*
X83312000Y-105218071D01*
X83366363Y-105183090D01*
X83511353Y-104970890D01*
X83562362Y-104719000D01*
X83562362Y-101556440D01*
X84384922Y-101556440D01*
X84620239Y-101512162D01*
X84779780Y-101409500D01*
X84988518Y-101409500D01*
X85141018Y-101472824D01*
X85545208Y-101473176D01*
X85918766Y-101318825D01*
X86145987Y-101092000D01*
X97737394Y-101092000D01*
X100203000Y-103557606D01*
X100203000Y-103557606D01*
G37*
X100203000Y-103557606D02*
X100203000Y-108532394D01*
X98372394Y-110363000D01*
X85142606Y-110363000D01*
X83312000Y-108532394D01*
X83312000Y-105218071D01*
X83366363Y-105183090D01*
X83511353Y-104970890D01*
X83562362Y-104719000D01*
X83562362Y-101556440D01*
X84384922Y-101556440D01*
X84620239Y-101512162D01*
X84779780Y-101409500D01*
X84988518Y-101409500D01*
X85141018Y-101472824D01*
X85545208Y-101473176D01*
X85918766Y-101318825D01*
X86145987Y-101092000D01*
X97737394Y-101092000D01*
X100203000Y-103557606D01*
G36*
X77893032Y-102775431D02*
X78144922Y-102826440D01*
X78967482Y-102826440D01*
X78967482Y-104719000D01*
X79011760Y-104954317D01*
X79150832Y-105170441D01*
X79248000Y-105236833D01*
X79248000Y-106029634D01*
X79146559Y-106094910D01*
X79001569Y-106307110D01*
X78950560Y-106559000D01*
X78950560Y-107309000D01*
X78994838Y-107544317D01*
X79133910Y-107760441D01*
X79248000Y-107838395D01*
X79248000Y-108418317D01*
X79128569Y-108593110D01*
X79077560Y-108845000D01*
X79077560Y-109475006D01*
X78824566Y-109728000D01*
X77150730Y-109728000D01*
X76997890Y-109623569D01*
X76746000Y-109572560D01*
X75146000Y-109572560D01*
X74910683Y-109616838D01*
X74737932Y-109728000D01*
X74610730Y-109728000D01*
X74457890Y-109623569D01*
X74206000Y-109572560D01*
X72606000Y-109572560D01*
X72370683Y-109616838D01*
X72197932Y-109728000D01*
X72070730Y-109728000D01*
X71917890Y-109623569D01*
X71666000Y-109572560D01*
X70066000Y-109572560D01*
X69830683Y-109616838D01*
X69614559Y-109755910D01*
X69469569Y-109968110D01*
X69418560Y-110220000D01*
X69418560Y-111220000D01*
X69462838Y-111455317D01*
X69601910Y-111671441D01*
X69723000Y-111754178D01*
X69723000Y-116078000D01*
X64235642Y-116078000D01*
X64267840Y-115919000D01*
X64267840Y-111919000D01*
X64223562Y-111683683D01*
X64199207Y-111645834D01*
X64279996Y-111679298D01*
X64279998Y-111679298D01*
X64280000Y-111679299D01*
X64471343Y-111717359D01*
X64768658Y-111717359D01*
X64960000Y-111679299D01*
X64960002Y-111679298D01*
X64960004Y-111679298D01*
X65129716Y-111609000D01*
X65234686Y-111565520D01*
X65234687Y-111565519D01*
X65234689Y-111565518D01*
X65396900Y-111457131D01*
X65550313Y-111303717D01*
X65607131Y-111246900D01*
X65715518Y-111084690D01*
X65717212Y-111080602D01*
X65762110Y-110972208D01*
X65829298Y-110810004D01*
X65829298Y-110810002D01*
X65829299Y-110810000D01*
X65867359Y-110618657D01*
X65867359Y-110543606D01*
X65882000Y-110470000D01*
X65882000Y-107970000D01*
X65867359Y-107896394D01*
X65867359Y-107821343D01*
X65829299Y-107630000D01*
X65829298Y-107629997D01*
X65829298Y-107629996D01*
X65717212Y-107359400D01*
X65715520Y-107355314D01*
X65715519Y-107355313D01*
X65715518Y-107355310D01*
X65607131Y-107193100D01*
X65460686Y-107046656D01*
X65396900Y-106982869D01*
X65234689Y-106874482D01*
X65234687Y-106874481D01*
X65234686Y-106874480D01*
X65087587Y-106813549D01*
X64960004Y-106760702D01*
X64960002Y-106760702D01*
X64960000Y-106760701D01*
X64768658Y-106722641D01*
X64620001Y-106722641D01*
X64280000Y-106760701D01*
X64279998Y-106760702D01*
X64279996Y-106760702D01*
X64099566Y-106835439D01*
X64005314Y-106874480D01*
X64005313Y-106874481D01*
X64005310Y-106874482D01*
X63843100Y-106982869D01*
X63779314Y-107046656D01*
X63632869Y-107193100D01*
X63524482Y-107355311D01*
X63524482Y-107355312D01*
X63524480Y-107355314D01*
X63463549Y-107502413D01*
X63410702Y-107629996D01*
X63410702Y-107629997D01*
X63410701Y-107630000D01*
X63372641Y-107821342D01*
X63372641Y-107896394D01*
X63358000Y-107970000D01*
X63358000Y-110470000D01*
X63372641Y-110543606D01*
X63372641Y-110618658D01*
X63410701Y-110810000D01*
X63410702Y-110810002D01*
X63410702Y-110810004D01*
X63463549Y-110937587D01*
X63524480Y-111084686D01*
X63524481Y-111084687D01*
X63524482Y-111084689D01*
X63632869Y-111246900D01*
X63666957Y-111280988D01*
X63620400Y-111271560D01*
X61722000Y-111271560D01*
X61722000Y-104417440D01*
X62750000Y-104417440D01*
X62985317Y-104373162D01*
X63150297Y-104267000D01*
X63852588Y-104267000D01*
X63998110Y-104366431D01*
X64250000Y-104417440D01*
X66750000Y-104417440D01*
X66985317Y-104373162D01*
X67150297Y-104267000D01*
X76200000Y-104267000D01*
X76249410Y-104256994D01*
X76289803Y-104229803D01*
X77804599Y-102715007D01*
X77893032Y-102775431D01*
X77893032Y-102775431D01*
G37*
X77893032Y-102775431D02*
X78144922Y-102826440D01*
X78967482Y-102826440D01*
X78967482Y-104719000D01*
X79011760Y-104954317D01*
X79150832Y-105170441D01*
X79248000Y-105236833D01*
X79248000Y-106029634D01*
X79146559Y-106094910D01*
X79001569Y-106307110D01*
X78950560Y-106559000D01*
X78950560Y-107309000D01*
X78994838Y-107544317D01*
X79133910Y-107760441D01*
X79248000Y-107838395D01*
X79248000Y-108418317D01*
X79128569Y-108593110D01*
X79077560Y-108845000D01*
X79077560Y-109475006D01*
X78824566Y-109728000D01*
X77150730Y-109728000D01*
X76997890Y-109623569D01*
X76746000Y-109572560D01*
X75146000Y-109572560D01*
X74910683Y-109616838D01*
X74737932Y-109728000D01*
X74610730Y-109728000D01*
X74457890Y-109623569D01*
X74206000Y-109572560D01*
X72606000Y-109572560D01*
X72370683Y-109616838D01*
X72197932Y-109728000D01*
X72070730Y-109728000D01*
X71917890Y-109623569D01*
X71666000Y-109572560D01*
X70066000Y-109572560D01*
X69830683Y-109616838D01*
X69614559Y-109755910D01*
X69469569Y-109968110D01*
X69418560Y-110220000D01*
X69418560Y-111220000D01*
X69462838Y-111455317D01*
X69601910Y-111671441D01*
X69723000Y-111754178D01*
X69723000Y-116078000D01*
X64235642Y-116078000D01*
X64267840Y-115919000D01*
X64267840Y-111919000D01*
X64223562Y-111683683D01*
X64199207Y-111645834D01*
X64279996Y-111679298D01*
X64279998Y-111679298D01*
X64280000Y-111679299D01*
X64471343Y-111717359D01*
X64768658Y-111717359D01*
X64960000Y-111679299D01*
X64960002Y-111679298D01*
X64960004Y-111679298D01*
X65129716Y-111609000D01*
X65234686Y-111565520D01*
X65234687Y-111565519D01*
X65234689Y-111565518D01*
X65396900Y-111457131D01*
X65550313Y-111303717D01*
X65607131Y-111246900D01*
X65715518Y-111084690D01*
X65717212Y-111080602D01*
X65762110Y-110972208D01*
X65829298Y-110810004D01*
X65829298Y-110810002D01*
X65829299Y-110810000D01*
X65867359Y-110618657D01*
X65867359Y-110543606D01*
X65882000Y-110470000D01*
X65882000Y-107970000D01*
X65867359Y-107896394D01*
X65867359Y-107821343D01*
X65829299Y-107630000D01*
X65829298Y-107629997D01*
X65829298Y-107629996D01*
X65717212Y-107359400D01*
X65715520Y-107355314D01*
X65715519Y-107355313D01*
X65715518Y-107355310D01*
X65607131Y-107193100D01*
X65460686Y-107046656D01*
X65396900Y-106982869D01*
X65234689Y-106874482D01*
X65234687Y-106874481D01*
X65234686Y-106874480D01*
X65087587Y-106813549D01*
X64960004Y-106760702D01*
X64960002Y-106760702D01*
X64960000Y-106760701D01*
X64768658Y-106722641D01*
X64620001Y-106722641D01*
X64280000Y-106760701D01*
X64279998Y-106760702D01*
X64279996Y-106760702D01*
X64099566Y-106835439D01*
X64005314Y-106874480D01*
X64005313Y-106874481D01*
X64005310Y-106874482D01*
X63843100Y-106982869D01*
X63779314Y-107046656D01*
X63632869Y-107193100D01*
X63524482Y-107355311D01*
X63524482Y-107355312D01*
X63524480Y-107355314D01*
X63463549Y-107502413D01*
X63410702Y-107629996D01*
X63410702Y-107629997D01*
X63410701Y-107630000D01*
X63372641Y-107821342D01*
X63372641Y-107896394D01*
X63358000Y-107970000D01*
X63358000Y-110470000D01*
X63372641Y-110543606D01*
X63372641Y-110618658D01*
X63410701Y-110810000D01*
X63410702Y-110810002D01*
X63410702Y-110810004D01*
X63463549Y-110937587D01*
X63524480Y-111084686D01*
X63524481Y-111084687D01*
X63524482Y-111084689D01*
X63632869Y-111246900D01*
X63666957Y-111280988D01*
X63620400Y-111271560D01*
X61722000Y-111271560D01*
X61722000Y-104417440D01*
X62750000Y-104417440D01*
X62985317Y-104373162D01*
X63150297Y-104267000D01*
X63852588Y-104267000D01*
X63998110Y-104366431D01*
X64250000Y-104417440D01*
X66750000Y-104417440D01*
X66985317Y-104373162D01*
X67150297Y-104267000D01*
X76200000Y-104267000D01*
X76249410Y-104256994D01*
X76289803Y-104229803D01*
X77804599Y-102715007D01*
X77893032Y-102775431D01*
M02*
