G04 #@! TF.FileFunction,Copper,L2,Bot,Signal*
%FSLAX46Y46*%
G04 Gerber Fmt 4.6, Leading zero omitted, Abs format (unit mm)*
G04 Created by KiCad (PCBNEW 4.0.0-rc2-stable) date 11/29/2015 17:05:23*
%MOMM*%
G01*
G04 APERTURE LIST*
%ADD10C,0.254000*%
%ADD11O,1.905000X1.524000*%
%ADD12R,1.905000X1.524000*%
%ADD13O,1.200000X2.000000*%
%ADD14R,3.000000X3.500000*%
%ADD15O,3.000000X3.500000*%
%ADD16R,3.500000X3.000000*%
%ADD17O,3.500000X3.000000*%
%ADD18R,3.500120X3.500120*%
%ADD19C,3.500000*%
%ADD20O,1.524000X1.905000*%
%ADD21R,1.524000X1.905000*%
%ADD22C,0.762000*%
%ADD23C,0.203200*%
%ADD24C,1.270000*%
%ADD25C,0.406400*%
G04 APERTURE END LIST*
D10*
D11*
X-1270000Y8890000D03*
X1270000Y8890000D03*
X-1270000Y6350000D03*
X1270000Y6350000D03*
X-1270000Y3810000D03*
X1270000Y3810000D03*
X-1270000Y1270000D03*
X1270000Y1270000D03*
X-1270000Y-1270000D03*
X1270000Y-1270000D03*
X-1270000Y-3810000D03*
X1270000Y-3810000D03*
X-1270000Y-6350000D03*
X1270000Y-6350000D03*
X-1270000Y-8890000D03*
D12*
X1270000Y-8890000D03*
D13*
X-36830000Y31750000D03*
X-36830000Y13970000D03*
X-34290000Y31750000D03*
X-34290000Y13970000D03*
X-31750000Y31750000D03*
X-31750000Y13970000D03*
X-29210000Y31750000D03*
X-29210000Y13970000D03*
X-26670000Y31750000D03*
X-26670000Y13970000D03*
X-24130000Y31750000D03*
X-24130000Y13970000D03*
X-21590000Y31750000D03*
X-21590000Y13970000D03*
X-19050000Y31750000D03*
X-19050000Y13970000D03*
X-16510000Y31750000D03*
X-16510000Y13970000D03*
X-13970000Y31750000D03*
X-13970000Y13970000D03*
X-11430000Y31750000D03*
X-11430000Y13970000D03*
X-8890000Y31750000D03*
X-8890000Y13970000D03*
D14*
X-34140000Y-24130000D03*
D15*
X-38100000Y-24130000D03*
X-42060000Y-24130000D03*
X-46020000Y-24130000D03*
D14*
X-16210000Y-24130000D03*
D15*
X-20170000Y-24130000D03*
X-24130000Y-24130000D03*
X-28090000Y-24130000D03*
D16*
X-49530000Y25810000D03*
D17*
X-49530000Y29770000D03*
X-49530000Y33730000D03*
X-49530000Y37690000D03*
D16*
X-49530000Y8030000D03*
D17*
X-49530000Y11990000D03*
X-49530000Y15950000D03*
X-49530000Y19910000D03*
D18*
X-4930140Y-17780000D03*
X1069340Y-17780000D03*
X-1930400Y-13081000D03*
D12*
X-31750000Y6350000D03*
D11*
X-31750000Y3810000D03*
X-31750000Y1270000D03*
X-31750000Y-1270000D03*
X-31750000Y-3810000D03*
X-31750000Y-6350000D03*
X-31750000Y-8890000D03*
X-31750000Y-11430000D03*
D19*
X-53340000Y-27940000D03*
X-53340000Y45720000D03*
X5080000Y-27940000D03*
X3810000Y45720000D03*
D20*
X-8890000Y39370000D03*
D21*
X-8890000Y41910000D03*
D20*
X-11430000Y39370000D03*
X-11430000Y41910000D03*
X-13970000Y39370000D03*
X-13970000Y41910000D03*
X-16510000Y39370000D03*
X-16510000Y41910000D03*
X-19050000Y39370000D03*
X-19050000Y41910000D03*
X-21590000Y39370000D03*
X-21590000Y41910000D03*
X-22225000Y-13970000D03*
D21*
X-22225000Y-16510000D03*
D20*
X-19685000Y-13970000D03*
X-19685000Y-16510000D03*
X-17145000Y-13970000D03*
X-17145000Y-16510000D03*
X-14605000Y-13970000D03*
X-14605000Y-16510000D03*
X-12065000Y-13970000D03*
X-12065000Y-16510000D03*
X-9525000Y-13970000D03*
X-9525000Y-16510000D03*
D22*
X-29845000Y3810000D03*
X-18669000Y-1016000D03*
X-5715000Y-7239000D03*
X-33655000Y8890000D03*
X-11430000Y36830000D03*
X-8255000Y26670000D03*
X-3175000Y31115000D03*
X-5715000Y35560000D03*
X-3175000Y34290000D03*
X-3175000Y36830000D03*
X-5715000Y38735000D03*
X5080000Y40640000D03*
X5080000Y37465000D03*
X5080000Y34925000D03*
X-7620000Y16510000D03*
X-1270000Y20320000D03*
X-635000Y15875000D03*
X2540000Y14605000D03*
X2540000Y19050000D03*
X5080000Y24130000D03*
X-19050000Y27940000D03*
X-15875000Y27940000D03*
X-15875000Y24765000D03*
X-41275000Y35560000D03*
X-34290000Y25400000D03*
X-31750000Y25400000D03*
X-31750000Y22225000D03*
X-34290000Y22225000D03*
X-8890000Y-19177000D03*
X-26797000Y-2032000D03*
X-20828000Y2032000D03*
X-27940000Y1270000D03*
X-24003000Y1651000D03*
X-9398000Y-127000D03*
X-5842000Y635000D03*
X-5715000Y5080000D03*
X-23495000Y-4826000D03*
X-12827000Y762000D03*
X-20006562Y762000D03*
X-8222650Y1580300D03*
X5080000Y13208000D03*
X-39878000Y6477000D03*
X-6985000Y14097000D03*
X0Y29210000D03*
X-25273000Y127000D03*
X-8382000Y4064000D03*
X-4191000Y-762000D03*
X-3429000Y-1651000D03*
X-24130000Y4699000D03*
X-20701000Y3937000D03*
X-19685000Y-3175000D03*
D23*
X-24003000Y1651000D02*
X-24383999Y2031999D01*
X-24383999Y2031999D02*
X-27178001Y2031999D01*
X-27178001Y2031999D02*
X-27559001Y1650999D01*
X-27559001Y1650999D02*
X-27940000Y1270000D01*
X-3175000Y31115000D02*
X-3810000Y31115000D01*
X-3810000Y31115000D02*
X-8255000Y26670000D01*
X-3175000Y34290000D02*
X-4445000Y34290000D01*
X-4445000Y34290000D02*
X-5715000Y35560000D01*
X-5715000Y38735000D02*
X-3810000Y36830000D01*
X-3810000Y36830000D02*
X-3175000Y36830000D01*
X5080000Y34925000D02*
X5080000Y37465000D01*
X-1270000Y10160000D02*
X-7620000Y16510000D01*
X-7620000Y16510000D02*
X-15875000Y24765000D01*
X-635000Y15875000D02*
X-1270000Y16510000D01*
X-1270000Y16510000D02*
X-1270000Y20320000D01*
X2540000Y19050000D02*
X2540000Y14605000D01*
X-15875000Y27940000D02*
X-19050000Y27940000D01*
X-1270000Y8890000D02*
X-1270000Y10160000D01*
X-31750000Y25400000D02*
X-34290000Y25400000D01*
X-34290000Y22225000D02*
X-31750000Y22225000D01*
X190500Y0D02*
X3175000Y0D01*
X-1079500Y-1270000D02*
X190500Y0D01*
X190500Y-5080000D02*
X3810000Y-5080000D01*
X-1079500Y-6350000D02*
X190500Y-5080000D01*
X190500Y-7620000D02*
X3175000Y-7620000D01*
X-1270000Y-6350000D02*
X-1079500Y-6350000D01*
X-1079500Y-6350000D02*
X190500Y-7620000D01*
X190500Y-2540000D02*
X5080000Y-2540000D01*
X-1270000Y-1270000D02*
X-1079500Y-1270000D01*
X-1079500Y-1270000D02*
X190500Y-2540000D01*
X-14605000Y-16510000D02*
X-12065000Y-16510000D01*
X-17145000Y-16510000D02*
X-14605000Y-16510000D01*
X-19685000Y-16510000D02*
X-17145000Y-16510000D01*
X-22225000Y-16510000D02*
X-21259800Y-16510000D01*
X-21259800Y-16510000D02*
X-19685000Y-16510000D01*
X-16510000Y41910000D02*
X-13970000Y41910000D01*
X-19050000Y41910000D02*
X-18084800Y41910000D01*
X-18084800Y41910000D02*
X-16510000Y41910000D01*
X-21590000Y41910000D02*
X-19050000Y41910000D01*
X-5842000Y-9271000D02*
X-2921000Y-6350000D01*
X-2921000Y-6350000D02*
X-1270000Y-6350000D01*
X-5842000Y-13792200D02*
X-5842000Y-9271000D01*
X-9525000Y-16510000D02*
X-8559800Y-16510000D01*
X-8559800Y-16510000D02*
X-5842000Y-13792200D01*
X-3429000Y-3238500D02*
X-3429000Y-4381500D01*
X-3429000Y-4381500D02*
X-1460500Y-6350000D01*
X-1460500Y-6350000D02*
X-1270000Y-6350000D01*
X-1270000Y-1270000D02*
X-1460500Y-1270000D01*
X-1460500Y-1270000D02*
X-3429000Y-3238500D01*
X-38227000Y4318000D02*
X-41783000Y4318000D01*
X-41783000Y4318000D02*
X-41910000Y4318000D01*
X-31750000Y-11430000D02*
X-32905700Y-11430000D01*
X-32905700Y-11430000D02*
X-41783000Y-2552700D01*
X-41783000Y-2552700D02*
X-41783000Y4318000D01*
X-26797000Y-322012D02*
X-26797000Y-2032000D01*
X-27940000Y1270000D02*
X-27940000Y820988D01*
X-27940000Y820988D02*
X-26797000Y-322012D01*
X-36322000Y6223000D02*
X-38227000Y4318000D01*
X-36322000Y10734800D02*
X-36322000Y6223000D01*
X-34290000Y13970000D02*
X-34290000Y12766800D01*
X-34290000Y12766800D02*
X-36322000Y10734800D01*
X-34290000Y21336000D02*
X-29210000Y26416000D01*
X-29210000Y26416000D02*
X-29210000Y31750000D01*
X-34290000Y13970000D02*
X-34290000Y21336000D01*
X-9525000Y0D02*
X-6477000Y0D01*
X-6477000Y0D02*
X-5842000Y635000D01*
X-3937000Y8382000D02*
X-3429000Y8890000D01*
X-3429000Y8890000D02*
X-1270000Y8890000D01*
X-3937000Y6985000D02*
X-3937000Y8382000D01*
X-5842000Y5080000D02*
X-3937000Y6985000D01*
X-5842000Y5080000D02*
X-5842000Y635000D01*
X-21259800Y-16510000D02*
X-9525000Y-16510000D01*
X-31750000Y-11430000D02*
X-31750000Y-12395200D01*
X-31750000Y-12395200D02*
X-27635200Y-16510000D01*
X-27635200Y-16510000D02*
X-23190200Y-16510000D01*
X-23190200Y-16510000D02*
X-22225000Y-16510000D01*
X-13970000Y41910000D02*
X-13970000Y43065700D01*
X-13970000Y43065700D02*
X-13716000Y43319700D01*
D24*
X-25273000Y-2032000D02*
X-25273000Y-3048000D01*
X-25273000Y-3048000D02*
X-23495000Y-4826000D01*
X-12827000Y762000D02*
X-12008700Y1580300D01*
X-12008700Y1580300D02*
X-8222650Y1580300D01*
X-20828000Y127000D02*
X-20193000Y762000D01*
X-20193000Y762000D02*
X-20006562Y762000D01*
X-25273000Y127000D02*
X-20828000Y127000D01*
X-8382000Y4064000D02*
X-8382000Y1739650D01*
X-8382000Y1739650D02*
X-8222650Y1580300D01*
X-11430000Y41910000D02*
X-11430000Y43053000D01*
X-11430000Y43053000D02*
X-10287000Y44196000D01*
X-10287000Y44196000D02*
X-6604000Y44196000D01*
X-6604000Y44196000D02*
X0Y37592000D01*
X0Y37592000D02*
X0Y25019000D01*
X5080000Y13208000D02*
X5080000Y19939000D01*
X5080000Y19939000D02*
X0Y25019000D01*
X-8382000Y4064000D02*
X-6985000Y5461000D01*
X-6985000Y5461000D02*
X-6985000Y14097000D01*
X-25273000Y127000D02*
X-25273000Y-2032000D01*
X-39624000Y25273000D02*
X-39878000Y25019000D01*
X-39878000Y25019000D02*
X-39878000Y6477000D01*
D25*
X-39624000Y13462000D02*
X-39624000Y25273000D01*
D24*
X-36830000Y31750000D02*
X-36830000Y28067000D01*
X-36830000Y28067000D02*
X-39624000Y25273000D01*
D25*
X-39624000Y12865100D02*
X-39624000Y13462000D01*
X-39878000Y6477000D02*
X-39878000Y6926012D01*
X-39878000Y6926012D02*
X-39624000Y7180012D01*
X-39624000Y7180012D02*
X-39624000Y13462000D01*
X0Y37084000D02*
X0Y29591000D01*
X0Y29591000D02*
X0Y29210000D01*
X0Y25019000D02*
X0Y29591000D01*
X-6692900Y43776900D02*
X0Y37084000D01*
X-10922000Y43776900D02*
X-6692900Y43776900D01*
X-11430000Y41910000D02*
X-11430000Y43268900D01*
X-11430000Y43268900D02*
X-10922000Y43776900D01*
D23*
X-8890000Y31750000D02*
X-8890000Y32953200D01*
X-8890000Y32953200D02*
X-8890000Y39370000D01*
X-21590000Y39370000D02*
X-22555200Y39370000D01*
X-22555200Y39370000D02*
X-27940000Y33985200D01*
X-27940000Y30734000D02*
X-13970000Y16764000D01*
X-13970000Y16764000D02*
X-13970000Y13970000D01*
X-27940000Y33985200D02*
X-27940000Y30734000D01*
X-19050000Y31750000D02*
X-11430000Y39370000D01*
X-25400000Y33020000D02*
X-19050000Y39370000D01*
X-25400000Y30880000D02*
X-25400000Y33020000D01*
X-8890000Y13970000D02*
X-8890000Y14370000D01*
X-8890000Y14370000D02*
X-25400000Y30880000D01*
X-21590000Y31750000D02*
X-13970000Y39370000D01*
X-24130000Y31750000D02*
X-16510000Y39370000D01*
X1270000Y8890000D02*
X1270000Y10414000D01*
X-13970000Y28321000D02*
X-13970000Y31750000D01*
X1270000Y10414000D02*
X-13970000Y25654000D01*
X-13970000Y25654000D02*
X-13970000Y28321000D01*
X-4191000Y5080000D02*
X-2921000Y6350000D01*
X-2921000Y6350000D02*
X-1270000Y6350000D01*
X-4191000Y-762000D02*
X-4191000Y5080000D01*
X-1778000Y6350000D02*
X-1270000Y6350000D01*
X-3429000Y-1651000D02*
X-3429000Y3683000D01*
X-190500Y5080000D02*
X1079500Y6350000D01*
X1079500Y6350000D02*
X1270000Y6350000D01*
X-3429000Y3683000D02*
X-2032000Y5080000D01*
X-2032000Y5080000D02*
X-190500Y5080000D01*
X-31559500Y-3810000D02*
X-31750000Y-3810000D01*
X-29337000Y-1587500D02*
X-31559500Y-3810000D01*
X-26355751Y4699000D02*
X-29337000Y1717751D01*
X-29337000Y1717751D02*
X-29337000Y-1587500D01*
X-24130000Y4699000D02*
X-26355751Y4699000D01*
X-26924000Y3556000D02*
X-21082000Y3556000D01*
X-21082000Y3556000D02*
X-20701000Y3937000D01*
X-28702000Y1778000D02*
X-26924000Y3556000D01*
X-28702000Y-4457700D02*
X-28702000Y1778000D01*
X-31750000Y-6350000D02*
X-30594300Y-6350000D01*
X-30594300Y-6350000D02*
X-28702000Y-4457700D01*
X-30594300Y-8890000D02*
X-31750000Y-8890000D01*
X-25400000Y-8890000D02*
X-30594300Y-8890000D01*
X-19685000Y-3175000D02*
X-25400000Y-8890000D01*
D10*
G36*
X8128000Y-32258000D02*
X-57658000Y-32258000D01*
X-57658000Y-28412325D01*
X-55725413Y-28412325D01*
X-55363084Y-29289229D01*
X-54692758Y-29960726D01*
X-53816487Y-30324585D01*
X-52867675Y-30325413D01*
X-51990771Y-29963084D01*
X-51319274Y-29292758D01*
X-50955415Y-28416487D01*
X-50955412Y-28412325D01*
X2694587Y-28412325D01*
X3056916Y-29289229D01*
X3727242Y-29960726D01*
X4603513Y-30324585D01*
X5552325Y-30325413D01*
X6429229Y-29963084D01*
X7100726Y-29292758D01*
X7464585Y-28416487D01*
X7465413Y-27467675D01*
X7103084Y-26590771D01*
X6432758Y-25919274D01*
X5556487Y-25555415D01*
X4607675Y-25554587D01*
X3730771Y-25916916D01*
X3059274Y-26587242D01*
X2695415Y-27463513D01*
X2694587Y-28412325D01*
X-50955412Y-28412325D01*
X-50954587Y-27467675D01*
X-51316916Y-26590771D01*
X-51987242Y-25919274D01*
X-52863513Y-25555415D01*
X-53812325Y-25554587D01*
X-54689229Y-25916916D01*
X-55360726Y-26587242D01*
X-55724585Y-27463513D01*
X-55725413Y-28412325D01*
X-57658000Y-28412325D01*
X-57658000Y-23833275D01*
X-48155000Y-23833275D01*
X-48155000Y-24426725D01*
X-47992483Y-25243754D01*
X-47529673Y-25936398D01*
X-46837029Y-26399208D01*
X-46020000Y-26561725D01*
X-45202971Y-26399208D01*
X-44510327Y-25936398D01*
X-44047517Y-25243754D01*
X-44040000Y-25205963D01*
X-44032483Y-25243754D01*
X-43569673Y-25936398D01*
X-42877029Y-26399208D01*
X-42060000Y-26561725D01*
X-41242971Y-26399208D01*
X-40550327Y-25936398D01*
X-40087517Y-25243754D01*
X-40066051Y-25135837D01*
X-39987765Y-25392566D01*
X-39456575Y-26037905D01*
X-38718859Y-26430843D01*
X-38558833Y-26465113D01*
X-38227000Y-26352165D01*
X-38227000Y-24257000D01*
X-37973000Y-24257000D01*
X-37973000Y-26352165D01*
X-37641167Y-26465113D01*
X-37481141Y-26430843D01*
X-36743425Y-26037905D01*
X-36275000Y-25468819D01*
X-36275000Y-26006310D01*
X-36178327Y-26239699D01*
X-35999698Y-26418327D01*
X-35766309Y-26515000D01*
X-34425750Y-26515000D01*
X-34267000Y-26356250D01*
X-34267000Y-24257000D01*
X-34013000Y-24257000D01*
X-34013000Y-26356250D01*
X-33854250Y-26515000D01*
X-32513691Y-26515000D01*
X-32280302Y-26418327D01*
X-32101673Y-26239699D01*
X-32005000Y-26006310D01*
X-32005000Y-24415750D01*
X-32163750Y-24257000D01*
X-34013000Y-24257000D01*
X-34267000Y-24257000D01*
X-36116250Y-24257000D01*
X-36118904Y-24259654D01*
X-36120101Y-24257000D01*
X-37973000Y-24257000D01*
X-38227000Y-24257000D01*
X-38247000Y-24257000D01*
X-38247000Y-24003000D01*
X-38227000Y-24003000D01*
X-38227000Y-21907835D01*
X-37973000Y-21907835D01*
X-37973000Y-24003000D01*
X-36120101Y-24003000D01*
X-36118904Y-24000346D01*
X-36116250Y-24003000D01*
X-34267000Y-24003000D01*
X-34267000Y-21903750D01*
X-34013000Y-21903750D01*
X-34013000Y-24003000D01*
X-32163750Y-24003000D01*
X-32005000Y-23844250D01*
X-32005000Y-23833275D01*
X-30225000Y-23833275D01*
X-30225000Y-24426725D01*
X-30062483Y-25243754D01*
X-29599673Y-25936398D01*
X-28907029Y-26399208D01*
X-28090000Y-26561725D01*
X-27272971Y-26399208D01*
X-26580327Y-25936398D01*
X-26117517Y-25243754D01*
X-26110000Y-25205963D01*
X-26102483Y-25243754D01*
X-25639673Y-25936398D01*
X-24947029Y-26399208D01*
X-24130000Y-26561725D01*
X-23312971Y-26399208D01*
X-22620327Y-25936398D01*
X-22157517Y-25243754D01*
X-22136051Y-25135837D01*
X-22057765Y-25392566D01*
X-21526575Y-26037905D01*
X-20788859Y-26430843D01*
X-20628833Y-26465113D01*
X-20297000Y-26352165D01*
X-20297000Y-24257000D01*
X-20043000Y-24257000D01*
X-20043000Y-26352165D01*
X-19711167Y-26465113D01*
X-19551141Y-26430843D01*
X-18813425Y-26037905D01*
X-18345000Y-25468819D01*
X-18345000Y-26006310D01*
X-18248327Y-26239699D01*
X-18069698Y-26418327D01*
X-17836309Y-26515000D01*
X-16495750Y-26515000D01*
X-16337000Y-26356250D01*
X-16337000Y-24257000D01*
X-16083000Y-24257000D01*
X-16083000Y-26356250D01*
X-15924250Y-26515000D01*
X-14583691Y-26515000D01*
X-14350302Y-26418327D01*
X-14171673Y-26239699D01*
X-14075000Y-26006310D01*
X-14075000Y-24415750D01*
X-14233750Y-24257000D01*
X-16083000Y-24257000D01*
X-16337000Y-24257000D01*
X-18186250Y-24257000D01*
X-18188904Y-24259654D01*
X-18190101Y-24257000D01*
X-20043000Y-24257000D01*
X-20297000Y-24257000D01*
X-20317000Y-24257000D01*
X-20317000Y-24003000D01*
X-20297000Y-24003000D01*
X-20297000Y-21907835D01*
X-20043000Y-21907835D01*
X-20043000Y-24003000D01*
X-18190101Y-24003000D01*
X-18188904Y-24000346D01*
X-18186250Y-24003000D01*
X-16337000Y-24003000D01*
X-16337000Y-21903750D01*
X-16083000Y-21903750D01*
X-16083000Y-24003000D01*
X-14233750Y-24003000D01*
X-14075000Y-23844250D01*
X-14075000Y-22253690D01*
X-14171673Y-22020301D01*
X-14350302Y-21841673D01*
X-14583691Y-21745000D01*
X-15924250Y-21745000D01*
X-16083000Y-21903750D01*
X-16337000Y-21903750D01*
X-16495750Y-21745000D01*
X-17836309Y-21745000D01*
X-18069698Y-21841673D01*
X-18248327Y-22020301D01*
X-18345000Y-22253690D01*
X-18345000Y-22791181D01*
X-18813425Y-22222095D01*
X-19551141Y-21829157D01*
X-19711167Y-21794887D01*
X-20043000Y-21907835D01*
X-20297000Y-21907835D01*
X-20628833Y-21794887D01*
X-20788859Y-21829157D01*
X-21526575Y-22222095D01*
X-22057765Y-22867434D01*
X-22136051Y-23124163D01*
X-22157517Y-23016246D01*
X-22620327Y-22323602D01*
X-23312971Y-21860792D01*
X-24130000Y-21698275D01*
X-24947029Y-21860792D01*
X-25639673Y-22323602D01*
X-26102483Y-23016246D01*
X-26110000Y-23054037D01*
X-26117517Y-23016246D01*
X-26580327Y-22323602D01*
X-27272971Y-21860792D01*
X-28090000Y-21698275D01*
X-28907029Y-21860792D01*
X-29599673Y-22323602D01*
X-30062483Y-23016246D01*
X-30225000Y-23833275D01*
X-32005000Y-23833275D01*
X-32005000Y-22253690D01*
X-32101673Y-22020301D01*
X-32280302Y-21841673D01*
X-32513691Y-21745000D01*
X-33854250Y-21745000D01*
X-34013000Y-21903750D01*
X-34267000Y-21903750D01*
X-34425750Y-21745000D01*
X-35766309Y-21745000D01*
X-35999698Y-21841673D01*
X-36178327Y-22020301D01*
X-36275000Y-22253690D01*
X-36275000Y-22791181D01*
X-36743425Y-22222095D01*
X-37481141Y-21829157D01*
X-37641167Y-21794887D01*
X-37973000Y-21907835D01*
X-38227000Y-21907835D01*
X-38558833Y-21794887D01*
X-38718859Y-21829157D01*
X-39456575Y-22222095D01*
X-39987765Y-22867434D01*
X-40066051Y-23124163D01*
X-40087517Y-23016246D01*
X-40550327Y-22323602D01*
X-41242971Y-21860792D01*
X-42060000Y-21698275D01*
X-42877029Y-21860792D01*
X-43569673Y-22323602D01*
X-44032483Y-23016246D01*
X-44040000Y-23054037D01*
X-44047517Y-23016246D01*
X-44510327Y-22323602D01*
X-45202971Y-21860792D01*
X-46020000Y-21698275D01*
X-46837029Y-21860792D01*
X-47529673Y-22323602D01*
X-47992483Y-23016246D01*
X-48155000Y-23833275D01*
X-57658000Y-23833275D01*
X-57658000Y-16795750D01*
X-23622000Y-16795750D01*
X-23622000Y-17588810D01*
X-23525327Y-17822199D01*
X-23346698Y-18000827D01*
X-23113309Y-18097500D01*
X-22510750Y-18097500D01*
X-22352000Y-17938750D01*
X-22352000Y-16637000D01*
X-22098000Y-16637000D01*
X-22098000Y-17938750D01*
X-21939250Y-18097500D01*
X-21336691Y-18097500D01*
X-21103302Y-18000827D01*
X-20924673Y-17822199D01*
X-20828000Y-17588810D01*
X-20828000Y-17477087D01*
X-20559200Y-17795701D01*
X-20073540Y-18046876D01*
X-20028070Y-18054720D01*
X-19812000Y-17932220D01*
X-19812000Y-16637000D01*
X-19558000Y-16637000D01*
X-19558000Y-17932220D01*
X-19341930Y-18054720D01*
X-19296460Y-18046876D01*
X-18810800Y-17795701D01*
X-18458229Y-17377792D01*
X-18415000Y-17241951D01*
X-18371771Y-17377792D01*
X-18019200Y-17795701D01*
X-17533540Y-18046876D01*
X-17488070Y-18054720D01*
X-17272000Y-17932220D01*
X-17272000Y-16637000D01*
X-17018000Y-16637000D01*
X-17018000Y-17932220D01*
X-16801930Y-18054720D01*
X-16756460Y-18046876D01*
X-16270800Y-17795701D01*
X-15918229Y-17377792D01*
X-15875000Y-17241951D01*
X-15831771Y-17377792D01*
X-15479200Y-17795701D01*
X-14993540Y-18046876D01*
X-14948070Y-18054720D01*
X-14732000Y-17932220D01*
X-14732000Y-16637000D01*
X-14478000Y-16637000D01*
X-14478000Y-17932220D01*
X-14261930Y-18054720D01*
X-14216460Y-18046876D01*
X-13730800Y-17795701D01*
X-13378229Y-17377792D01*
X-13335000Y-17241951D01*
X-13291771Y-17377792D01*
X-12939200Y-17795701D01*
X-12453540Y-18046876D01*
X-12408070Y-18054720D01*
X-12192000Y-17932220D01*
X-12192000Y-16637000D01*
X-11938000Y-16637000D01*
X-11938000Y-17932220D01*
X-11721930Y-18054720D01*
X-11676460Y-18046876D01*
X-11190800Y-17795701D01*
X-10838229Y-17377792D01*
X-10795000Y-17241951D01*
X-10751771Y-17377792D01*
X-10399200Y-17795701D01*
X-9913540Y-18046876D01*
X-9868070Y-18054720D01*
X-9652000Y-17932220D01*
X-9652000Y-16637000D01*
X-9398000Y-16637000D01*
X-9398000Y-17932220D01*
X-9181930Y-18054720D01*
X-9136460Y-18046876D01*
X-8650800Y-17795701D01*
X-8298229Y-17377792D01*
X-8132423Y-16856771D01*
X-8283872Y-16637000D01*
X-9398000Y-16637000D01*
X-9652000Y-16637000D01*
X-10766128Y-16637000D01*
X-10795000Y-16678897D01*
X-10823872Y-16637000D01*
X-11938000Y-16637000D01*
X-12192000Y-16637000D01*
X-13306128Y-16637000D01*
X-13335000Y-16678897D01*
X-13363872Y-16637000D01*
X-14478000Y-16637000D01*
X-14732000Y-16637000D01*
X-15846128Y-16637000D01*
X-15875000Y-16678897D01*
X-15903872Y-16637000D01*
X-17018000Y-16637000D01*
X-17272000Y-16637000D01*
X-18386128Y-16637000D01*
X-18415000Y-16678897D01*
X-18443872Y-16637000D01*
X-19558000Y-16637000D01*
X-19812000Y-16637000D01*
X-20926128Y-16637000D01*
X-20950860Y-16672890D01*
X-20986750Y-16637000D01*
X-22098000Y-16637000D01*
X-22352000Y-16637000D01*
X-23463250Y-16637000D01*
X-23622000Y-16795750D01*
X-57658000Y-16795750D01*
X-57658000Y-13748399D01*
X-23622000Y-13748399D01*
X-23622000Y-14191601D01*
X-23515660Y-14726210D01*
X-23325715Y-15010482D01*
X-23346698Y-15019173D01*
X-23525327Y-15197801D01*
X-23622000Y-15431190D01*
X-23622000Y-16224250D01*
X-23463250Y-16383000D01*
X-22352000Y-16383000D01*
X-22352000Y-16363000D01*
X-22098000Y-16363000D01*
X-22098000Y-16383000D01*
X-20986750Y-16383000D01*
X-20950860Y-16347110D01*
X-20926128Y-16383000D01*
X-19812000Y-16383000D01*
X-19812000Y-16363000D01*
X-19558000Y-16363000D01*
X-19558000Y-16383000D01*
X-18443872Y-16383000D01*
X-18415000Y-16341103D01*
X-18386128Y-16383000D01*
X-17272000Y-16383000D01*
X-17272000Y-16363000D01*
X-17018000Y-16363000D01*
X-17018000Y-16383000D01*
X-15903872Y-16383000D01*
X-15875000Y-16341103D01*
X-15846128Y-16383000D01*
X-14732000Y-16383000D01*
X-14732000Y-16363000D01*
X-14478000Y-16363000D01*
X-14478000Y-16383000D01*
X-13363872Y-16383000D01*
X-13335000Y-16341103D01*
X-13306128Y-16383000D01*
X-12192000Y-16383000D01*
X-12192000Y-16363000D01*
X-11938000Y-16363000D01*
X-11938000Y-16383000D01*
X-10823872Y-16383000D01*
X-10795000Y-16341103D01*
X-10766128Y-16383000D01*
X-9652000Y-16383000D01*
X-9652000Y-16363000D01*
X-9398000Y-16363000D01*
X-9398000Y-16383000D01*
X-8283872Y-16383000D01*
X-8132423Y-16163229D01*
X-8174839Y-16029940D01*
X-7327640Y-16029940D01*
X-7327640Y-19530060D01*
X-7283362Y-19765377D01*
X-7144290Y-19981501D01*
X-6932090Y-20126491D01*
X-6680200Y-20177500D01*
X-3180080Y-20177500D01*
X-2944763Y-20133222D01*
X-2728639Y-19994150D01*
X-2583649Y-19781950D01*
X-2532640Y-19530060D01*
X-2532640Y-18065750D01*
X-1315720Y-18065750D01*
X-1315720Y-19656370D01*
X-1219047Y-19889759D01*
X-1040418Y-20068387D01*
X-807029Y-20165060D01*
X783590Y-20165060D01*
X942340Y-20006310D01*
X942340Y-17907000D01*
X1196340Y-17907000D01*
X1196340Y-20006310D01*
X1355090Y-20165060D01*
X2945709Y-20165060D01*
X3179098Y-20068387D01*
X3357727Y-19889759D01*
X3454400Y-19656370D01*
X3454400Y-18065750D01*
X3295650Y-17907000D01*
X1196340Y-17907000D01*
X942340Y-17907000D01*
X-1156970Y-17907000D01*
X-1315720Y-18065750D01*
X-2532640Y-18065750D01*
X-2532640Y-16029940D01*
X-2576918Y-15794623D01*
X-2715990Y-15578499D01*
X-2862343Y-15478500D01*
X-1008760Y-15478500D01*
X-1040418Y-15491613D01*
X-1219047Y-15670241D01*
X-1315720Y-15903630D01*
X-1315720Y-17494250D01*
X-1156970Y-17653000D01*
X942340Y-17653000D01*
X942340Y-15553690D01*
X1196340Y-15553690D01*
X1196340Y-17653000D01*
X3295650Y-17653000D01*
X3454400Y-17494250D01*
X3454400Y-15903630D01*
X3357727Y-15670241D01*
X3179098Y-15491613D01*
X2945709Y-15394940D01*
X1355090Y-15394940D01*
X1196340Y-15553690D01*
X942340Y-15553690D01*
X783590Y-15394940D01*
X116023Y-15394940D01*
X271101Y-15295150D01*
X416091Y-15082950D01*
X467100Y-14831060D01*
X467100Y-11330940D01*
X422822Y-11095623D01*
X283750Y-10879499D01*
X71550Y-10734509D01*
X-180340Y-10683500D01*
X-3680460Y-10683500D01*
X-3915777Y-10727778D01*
X-4131901Y-10866850D01*
X-4276891Y-11079050D01*
X-4327900Y-11330940D01*
X-4327900Y-14831060D01*
X-4283622Y-15066377D01*
X-4144550Y-15282501D01*
X-3998197Y-15382500D01*
X-6680200Y-15382500D01*
X-6915517Y-15426778D01*
X-7131641Y-15565850D01*
X-7276631Y-15778050D01*
X-7327640Y-16029940D01*
X-8174839Y-16029940D01*
X-8298229Y-15642208D01*
X-8634046Y-15244158D01*
X-8537172Y-15179429D01*
X-8234340Y-14726210D01*
X-8128000Y-14191601D01*
X-8128000Y-13748399D01*
X-8234340Y-13213790D01*
X-8537172Y-12760571D01*
X-8990391Y-12457739D01*
X-9525000Y-12351399D01*
X-10059609Y-12457739D01*
X-10512828Y-12760571D01*
X-10795000Y-13182870D01*
X-11077172Y-12760571D01*
X-11530391Y-12457739D01*
X-12065000Y-12351399D01*
X-12599609Y-12457739D01*
X-13052828Y-12760571D01*
X-13335000Y-13182870D01*
X-13617172Y-12760571D01*
X-14070391Y-12457739D01*
X-14605000Y-12351399D01*
X-15139609Y-12457739D01*
X-15592828Y-12760571D01*
X-15875000Y-13182870D01*
X-16157172Y-12760571D01*
X-16610391Y-12457739D01*
X-17145000Y-12351399D01*
X-17679609Y-12457739D01*
X-18132828Y-12760571D01*
X-18415000Y-13182870D01*
X-18697172Y-12760571D01*
X-19150391Y-12457739D01*
X-19685000Y-12351399D01*
X-20219609Y-12457739D01*
X-20672828Y-12760571D01*
X-20955000Y-13182870D01*
X-21237172Y-12760571D01*
X-21690391Y-12457739D01*
X-22225000Y-12351399D01*
X-22759609Y-12457739D01*
X-23212828Y-12760571D01*
X-23515660Y-13213790D01*
X-23622000Y-13748399D01*
X-57658000Y-13748399D01*
X-57658000Y-11773070D01*
X-33294720Y-11773070D01*
X-33286876Y-11818540D01*
X-33035701Y-12304200D01*
X-32617792Y-12656771D01*
X-32096771Y-12822577D01*
X-31877000Y-12671128D01*
X-31877000Y-11557000D01*
X-31623000Y-11557000D01*
X-31623000Y-12671128D01*
X-31403229Y-12822577D01*
X-30882208Y-12656771D01*
X-30464299Y-12304200D01*
X-30213124Y-11818540D01*
X-30205280Y-11773070D01*
X-30327780Y-11557000D01*
X-31623000Y-11557000D01*
X-31877000Y-11557000D01*
X-33172220Y-11557000D01*
X-33294720Y-11773070D01*
X-57658000Y-11773070D01*
X-57658000Y3810000D01*
X-33368601Y3810000D01*
X-33262261Y3275391D01*
X-32959429Y2822172D01*
X-32537130Y2540000D01*
X-32959429Y2257828D01*
X-33262261Y1804609D01*
X-33368601Y1270000D01*
X-33262261Y735391D01*
X-32959429Y282172D01*
X-32537130Y0D01*
X-32959429Y-282172D01*
X-33262261Y-735391D01*
X-33368601Y-1270000D01*
X-33262261Y-1804609D01*
X-32959429Y-2257828D01*
X-32537130Y-2540000D01*
X-32959429Y-2822172D01*
X-33262261Y-3275391D01*
X-33368601Y-3810000D01*
X-33262261Y-4344609D01*
X-32959429Y-4797828D01*
X-32537130Y-5080000D01*
X-32959429Y-5362172D01*
X-33262261Y-5815391D01*
X-33368601Y-6350000D01*
X-33262261Y-6884609D01*
X-32959429Y-7337828D01*
X-32537130Y-7620000D01*
X-32959429Y-7902172D01*
X-33262261Y-8355391D01*
X-33368601Y-8890000D01*
X-33262261Y-9424609D01*
X-32959429Y-9877828D01*
X-32519328Y-10171895D01*
X-32617792Y-10203229D01*
X-33035701Y-10555800D01*
X-33286876Y-11041460D01*
X-33294720Y-11086930D01*
X-33172220Y-11303000D01*
X-31877000Y-11303000D01*
X-31877000Y-11283000D01*
X-31623000Y-11283000D01*
X-31623000Y-11303000D01*
X-30327780Y-11303000D01*
X-30205280Y-11086930D01*
X-30213124Y-11041460D01*
X-30464299Y-10555800D01*
X-30882208Y-10203229D01*
X-30980672Y-10171895D01*
X-30540571Y-9877828D01*
X-30372705Y-9626600D01*
X-25400000Y-9626600D01*
X-25118115Y-9570530D01*
X-24879145Y-9410855D01*
X-19659313Y-4191023D01*
X-19483792Y-4191176D01*
X-19110234Y-4036825D01*
X-18824179Y-3751269D01*
X-18669176Y-3377982D01*
X-18668824Y-2973792D01*
X-18823175Y-2600234D01*
X-19108731Y-2314179D01*
X-19482018Y-2159176D01*
X-19886208Y-2158824D01*
X-20259766Y-2313175D01*
X-20545821Y-2598731D01*
X-20700824Y-2972018D01*
X-20700978Y-3149268D01*
X-22250336Y-4698626D01*
X-22321673Y-4339992D01*
X-22596974Y-3927975D01*
X-24003000Y-2521948D01*
X-24003000Y-1143000D01*
X-20828005Y-1143000D01*
X-20828000Y-1143001D01*
X-20341992Y-1046327D01*
X-19929974Y-771026D01*
X-19582622Y-423673D01*
X-19520554Y-411327D01*
X-19108536Y-136026D01*
X-18833235Y275992D01*
X-18736562Y762000D01*
X-18833235Y1248008D01*
X-19108536Y1660026D01*
X-19520554Y1935327D01*
X-20006562Y2032000D01*
X-20192995Y2032000D01*
X-20193000Y2032001D01*
X-20679008Y1935327D01*
X-21091026Y1660026D01*
X-21091028Y1660023D01*
X-21354051Y1397000D01*
X-25273000Y1397000D01*
X-25759008Y1300327D01*
X-26171026Y1025026D01*
X-26446327Y613008D01*
X-26543000Y127000D01*
X-26543000Y-3047995D01*
X-26543001Y-3048000D01*
X-26446327Y-3534008D01*
X-26171026Y-3946026D01*
X-24393025Y-5724026D01*
X-23981008Y-5999327D01*
X-23622374Y-6070664D01*
X-25705110Y-8153400D01*
X-30372705Y-8153400D01*
X-30540571Y-7902172D01*
X-30962870Y-7620000D01*
X-30540571Y-7337828D01*
X-30338739Y-7035766D01*
X-30312415Y-7030530D01*
X-30073445Y-6870855D01*
X-28181145Y-4978555D01*
X-28021470Y-4739585D01*
X-27965400Y-4457700D01*
X-27965400Y1472890D01*
X-26618890Y2819400D01*
X-21082000Y2819400D01*
X-20800115Y2875470D01*
X-20731936Y2921026D01*
X-20499792Y2920824D01*
X-20126234Y3075175D01*
X-19840179Y3360731D01*
X-19685176Y3734018D01*
X-19684824Y4138208D01*
X-19839175Y4511766D01*
X-20124731Y4797821D01*
X-20498018Y4952824D01*
X-20902208Y4953176D01*
X-21275766Y4798825D01*
X-21561821Y4513269D01*
X-21653451Y4292600D01*
X-23198643Y4292600D01*
X-23114176Y4496018D01*
X-23113824Y4900208D01*
X-23268175Y5273766D01*
X-23553731Y5559821D01*
X-23927018Y5714824D01*
X-24331208Y5715176D01*
X-24704766Y5560825D01*
X-24830210Y5435600D01*
X-26355751Y5435600D01*
X-26637636Y5379530D01*
X-26850457Y5237327D01*
X-26876606Y5219855D01*
X-29857855Y2238606D01*
X-30017530Y1999636D01*
X-30073600Y1717751D01*
X-30073600Y-1282390D01*
X-30148827Y-1357617D01*
X-30131399Y-1270000D01*
X-30237739Y-735391D01*
X-30540571Y-282172D01*
X-30962870Y0D01*
X-30540571Y282172D01*
X-30237739Y735391D01*
X-30131399Y1270000D01*
X-30237739Y1804609D01*
X-30540571Y2257828D01*
X-30962870Y2540000D01*
X-30540571Y2822172D01*
X-30441899Y2969845D01*
X-30421269Y2949179D01*
X-30047982Y2794176D01*
X-29643792Y2793824D01*
X-29270234Y2948175D01*
X-28984179Y3233731D01*
X-28829176Y3607018D01*
X-28828824Y4011208D01*
X-28983175Y4384766D01*
X-29268731Y4670821D01*
X-29642018Y4825824D01*
X-30046208Y4826176D01*
X-30419766Y4671825D01*
X-30441729Y4649901D01*
X-30540571Y4797828D01*
X-30763702Y4946920D01*
X-30562183Y4984838D01*
X-30346059Y5123910D01*
X-30201069Y5336110D01*
X-30150060Y5588000D01*
X-30150060Y7112000D01*
X-30194338Y7347317D01*
X-30333410Y7563441D01*
X-30545610Y7708431D01*
X-30797500Y7759440D01*
X-32702500Y7759440D01*
X-32937817Y7715162D01*
X-33153941Y7576090D01*
X-33298931Y7363890D01*
X-33349940Y7112000D01*
X-33349940Y5588000D01*
X-33305662Y5352683D01*
X-33166590Y5136559D01*
X-32954390Y4991569D01*
X-32735742Y4947292D01*
X-32959429Y4797828D01*
X-33262261Y4344609D01*
X-33368601Y3810000D01*
X-57658000Y3810000D01*
X-57658000Y7744250D01*
X-51915000Y7744250D01*
X-51915000Y6403691D01*
X-51818327Y6170302D01*
X-51639699Y5991673D01*
X-51406310Y5895000D01*
X-49815750Y5895000D01*
X-49657000Y6053750D01*
X-49657000Y7903000D01*
X-49403000Y7903000D01*
X-49403000Y6053750D01*
X-49244250Y5895000D01*
X-47653690Y5895000D01*
X-47420301Y5991673D01*
X-47241673Y6170302D01*
X-47145000Y6403691D01*
X-47145000Y7744250D01*
X-47303750Y7903000D01*
X-49403000Y7903000D01*
X-49657000Y7903000D01*
X-51756250Y7903000D01*
X-51915000Y7744250D01*
X-57658000Y7744250D01*
X-57658000Y9656309D01*
X-51915000Y9656309D01*
X-51915000Y8315750D01*
X-51756250Y8157000D01*
X-49657000Y8157000D01*
X-49657000Y10006250D01*
X-49659654Y10008904D01*
X-49657000Y10010101D01*
X-49657000Y11863000D01*
X-49403000Y11863000D01*
X-49403000Y10010101D01*
X-49400346Y10008904D01*
X-49403000Y10006250D01*
X-49403000Y8157000D01*
X-47303750Y8157000D01*
X-47145000Y8315750D01*
X-47145000Y9656309D01*
X-47241673Y9889698D01*
X-47420301Y10068327D01*
X-47653690Y10165000D01*
X-48191181Y10165000D01*
X-47622095Y10633425D01*
X-47229157Y11371141D01*
X-47194887Y11531167D01*
X-47307835Y11863000D01*
X-49403000Y11863000D01*
X-49657000Y11863000D01*
X-51752165Y11863000D01*
X-51865113Y11531167D01*
X-51830843Y11371141D01*
X-51437905Y10633425D01*
X-50868819Y10165000D01*
X-51406310Y10165000D01*
X-51639699Y10068327D01*
X-51818327Y9889698D01*
X-51915000Y9656309D01*
X-57658000Y9656309D01*
X-57658000Y19910000D01*
X-51961725Y19910000D01*
X-51799208Y19092971D01*
X-51336398Y18400327D01*
X-50643754Y17937517D01*
X-50605963Y17930000D01*
X-50643754Y17922483D01*
X-51336398Y17459673D01*
X-51799208Y16767029D01*
X-51961725Y15950000D01*
X-51799208Y15132971D01*
X-51336398Y14440327D01*
X-50643754Y13977517D01*
X-50535837Y13956051D01*
X-50792566Y13877765D01*
X-51437905Y13346575D01*
X-51830843Y12608859D01*
X-51865113Y12448833D01*
X-51752165Y12117000D01*
X-49657000Y12117000D01*
X-49657000Y12137000D01*
X-49403000Y12137000D01*
X-49403000Y12117000D01*
X-47307835Y12117000D01*
X-47194887Y12448833D01*
X-47229157Y12608859D01*
X-47622095Y13346575D01*
X-48267434Y13877765D01*
X-48524163Y13956051D01*
X-48416246Y13977517D01*
X-47723602Y14440327D01*
X-47260792Y15132971D01*
X-47098275Y15950000D01*
X-47260792Y16767029D01*
X-47723602Y17459673D01*
X-48416246Y17922483D01*
X-48454037Y17930000D01*
X-48416246Y17937517D01*
X-47723602Y18400327D01*
X-47260792Y19092971D01*
X-47098275Y19910000D01*
X-47260792Y20727029D01*
X-47723602Y21419673D01*
X-48416246Y21882483D01*
X-49233275Y22045000D01*
X-49826725Y22045000D01*
X-50643754Y21882483D01*
X-51336398Y21419673D01*
X-51799208Y20727029D01*
X-51961725Y19910000D01*
X-57658000Y19910000D01*
X-57658000Y25524250D01*
X-51915000Y25524250D01*
X-51915000Y24183691D01*
X-51818327Y23950302D01*
X-51639699Y23771673D01*
X-51406310Y23675000D01*
X-49815750Y23675000D01*
X-49657000Y23833750D01*
X-49657000Y25683000D01*
X-49403000Y25683000D01*
X-49403000Y23833750D01*
X-49244250Y23675000D01*
X-47653690Y23675000D01*
X-47420301Y23771673D01*
X-47241673Y23950302D01*
X-47145000Y24183691D01*
X-47145000Y25019000D01*
X-41148001Y25019000D01*
X-41148000Y25018995D01*
X-41148000Y6477000D01*
X-41051327Y5990992D01*
X-40776026Y5578974D01*
X-40364008Y5303673D01*
X-39878000Y5207000D01*
X-39391992Y5303673D01*
X-38979974Y5578974D01*
X-38704673Y5990992D01*
X-38608000Y6477000D01*
X-38608000Y14402032D01*
X-38065000Y14402032D01*
X-38065000Y13537968D01*
X-37970991Y13065354D01*
X-37703277Y12664691D01*
X-37302614Y12396977D01*
X-36830000Y12302968D01*
X-36357386Y12396977D01*
X-35956723Y12664691D01*
X-35689009Y13065354D01*
X-35595000Y13537968D01*
X-35595000Y13843000D01*
X-35525000Y13843000D01*
X-35525000Y13443000D01*
X-35382390Y12980053D01*
X-35073474Y12606920D01*
X-34645281Y12380408D01*
X-34607609Y12376538D01*
X-34417000Y12501269D01*
X-34417000Y13843000D01*
X-34163000Y13843000D01*
X-34163000Y12501269D01*
X-33972391Y12376538D01*
X-33934719Y12380408D01*
X-33506526Y12606920D01*
X-33197610Y12980053D01*
X-33055000Y13443000D01*
X-33055000Y13843000D01*
X-34163000Y13843000D01*
X-34417000Y13843000D01*
X-35525000Y13843000D01*
X-35595000Y13843000D01*
X-35595000Y14402032D01*
X-35613890Y14497000D01*
X-35525000Y14497000D01*
X-35525000Y14097000D01*
X-34417000Y14097000D01*
X-34417000Y15438731D01*
X-34163000Y15438731D01*
X-34163000Y14097000D01*
X-33055000Y14097000D01*
X-33055000Y14402032D01*
X-32985000Y14402032D01*
X-32985000Y13537968D01*
X-32890991Y13065354D01*
X-32623277Y12664691D01*
X-32222614Y12396977D01*
X-31750000Y12302968D01*
X-31277386Y12396977D01*
X-30876723Y12664691D01*
X-30609009Y13065354D01*
X-30515000Y13537968D01*
X-30515000Y14402032D01*
X-30445000Y14402032D01*
X-30445000Y13537968D01*
X-30350991Y13065354D01*
X-30083277Y12664691D01*
X-29682614Y12396977D01*
X-29210000Y12302968D01*
X-28737386Y12396977D01*
X-28336723Y12664691D01*
X-28069009Y13065354D01*
X-27975000Y13537968D01*
X-27975000Y14402032D01*
X-27905000Y14402032D01*
X-27905000Y13537968D01*
X-27810991Y13065354D01*
X-27543277Y12664691D01*
X-27142614Y12396977D01*
X-26670000Y12302968D01*
X-26197386Y12396977D01*
X-25796723Y12664691D01*
X-25529009Y13065354D01*
X-25435000Y13537968D01*
X-25435000Y14402032D01*
X-25365000Y14402032D01*
X-25365000Y13537968D01*
X-25270991Y13065354D01*
X-25003277Y12664691D01*
X-24602614Y12396977D01*
X-24130000Y12302968D01*
X-23657386Y12396977D01*
X-23256723Y12664691D01*
X-22989009Y13065354D01*
X-22895000Y13537968D01*
X-22895000Y14402032D01*
X-22825000Y14402032D01*
X-22825000Y13537968D01*
X-22730991Y13065354D01*
X-22463277Y12664691D01*
X-22062614Y12396977D01*
X-21590000Y12302968D01*
X-21117386Y12396977D01*
X-20716723Y12664691D01*
X-20449009Y13065354D01*
X-20355000Y13537968D01*
X-20355000Y14402032D01*
X-20285000Y14402032D01*
X-20285000Y13537968D01*
X-20190991Y13065354D01*
X-19923277Y12664691D01*
X-19522614Y12396977D01*
X-19050000Y12302968D01*
X-18577386Y12396977D01*
X-18176723Y12664691D01*
X-17909009Y13065354D01*
X-17815000Y13537968D01*
X-17815000Y14402032D01*
X-17745000Y14402032D01*
X-17745000Y13537968D01*
X-17650991Y13065354D01*
X-17383277Y12664691D01*
X-16982614Y12396977D01*
X-16510000Y12302968D01*
X-16037386Y12396977D01*
X-15636723Y12664691D01*
X-15369009Y13065354D01*
X-15275000Y13537968D01*
X-15275000Y14402032D01*
X-15369009Y14874646D01*
X-15636723Y15275309D01*
X-16037386Y15543023D01*
X-16510000Y15637032D01*
X-16982614Y15543023D01*
X-17383277Y15275309D01*
X-17650991Y14874646D01*
X-17745000Y14402032D01*
X-17815000Y14402032D01*
X-17909009Y14874646D01*
X-18176723Y15275309D01*
X-18577386Y15543023D01*
X-19050000Y15637032D01*
X-19522614Y15543023D01*
X-19923277Y15275309D01*
X-20190991Y14874646D01*
X-20285000Y14402032D01*
X-20355000Y14402032D01*
X-20449009Y14874646D01*
X-20716723Y15275309D01*
X-21117386Y15543023D01*
X-21590000Y15637032D01*
X-22062614Y15543023D01*
X-22463277Y15275309D01*
X-22730991Y14874646D01*
X-22825000Y14402032D01*
X-22895000Y14402032D01*
X-22989009Y14874646D01*
X-23256723Y15275309D01*
X-23657386Y15543023D01*
X-24130000Y15637032D01*
X-24602614Y15543023D01*
X-25003277Y15275309D01*
X-25270991Y14874646D01*
X-25365000Y14402032D01*
X-25435000Y14402032D01*
X-25529009Y14874646D01*
X-25796723Y15275309D01*
X-26197386Y15543023D01*
X-26670000Y15637032D01*
X-27142614Y15543023D01*
X-27543277Y15275309D01*
X-27810991Y14874646D01*
X-27905000Y14402032D01*
X-27975000Y14402032D01*
X-28069009Y14874646D01*
X-28336723Y15275309D01*
X-28737386Y15543023D01*
X-29210000Y15637032D01*
X-29682614Y15543023D01*
X-30083277Y15275309D01*
X-30350991Y14874646D01*
X-30445000Y14402032D01*
X-30515000Y14402032D01*
X-30609009Y14874646D01*
X-30876723Y15275309D01*
X-31277386Y15543023D01*
X-31750000Y15637032D01*
X-32222614Y15543023D01*
X-32623277Y15275309D01*
X-32890991Y14874646D01*
X-32985000Y14402032D01*
X-33055000Y14402032D01*
X-33055000Y14497000D01*
X-33197610Y14959947D01*
X-33506526Y15333080D01*
X-33934719Y15559592D01*
X-33972391Y15563462D01*
X-34163000Y15438731D01*
X-34417000Y15438731D01*
X-34607609Y15563462D01*
X-34645281Y15559592D01*
X-35073474Y15333080D01*
X-35382390Y14959947D01*
X-35525000Y14497000D01*
X-35613890Y14497000D01*
X-35689009Y14874646D01*
X-35956723Y15275309D01*
X-36357386Y15543023D01*
X-36830000Y15637032D01*
X-37302614Y15543023D01*
X-37703277Y15275309D01*
X-37970991Y14874646D01*
X-38065000Y14402032D01*
X-38608000Y14402032D01*
X-38608000Y24492948D01*
X-35931977Y27168972D01*
X-35931974Y27168974D01*
X-35656673Y27580992D01*
X-35639028Y27669698D01*
X-35559999Y28067000D01*
X-35560000Y28067005D01*
X-35560000Y31750000D01*
X-35595000Y31925957D01*
X-35595000Y32182032D01*
X-35525000Y32182032D01*
X-35525000Y31317968D01*
X-35430991Y30845354D01*
X-35163277Y30444691D01*
X-34762614Y30176977D01*
X-34290000Y30082968D01*
X-33817386Y30176977D01*
X-33416723Y30444691D01*
X-33149009Y30845354D01*
X-33055000Y31317968D01*
X-33055000Y32182032D01*
X-32985000Y32182032D01*
X-32985000Y31317968D01*
X-32890991Y30845354D01*
X-32623277Y30444691D01*
X-32222614Y30176977D01*
X-31750000Y30082968D01*
X-31277386Y30176977D01*
X-30876723Y30444691D01*
X-30609009Y30845354D01*
X-30515000Y31317968D01*
X-30515000Y31623000D01*
X-30445000Y31623000D01*
X-30445000Y31223000D01*
X-30302390Y30760053D01*
X-29993474Y30386920D01*
X-29565281Y30160408D01*
X-29527609Y30156538D01*
X-29337000Y30281269D01*
X-29337000Y31623000D01*
X-30445000Y31623000D01*
X-30515000Y31623000D01*
X-30515000Y32182032D01*
X-30533890Y32277000D01*
X-30445000Y32277000D01*
X-30445000Y31877000D01*
X-29337000Y31877000D01*
X-29337000Y33218731D01*
X-29083000Y33218731D01*
X-29083000Y31877000D01*
X-29063000Y31877000D01*
X-29063000Y31623000D01*
X-29083000Y31623000D01*
X-29083000Y30281269D01*
X-28892391Y30156538D01*
X-28854719Y30160408D01*
X-28537679Y30328120D01*
X-28460855Y30213145D01*
X-14706600Y16458890D01*
X-14706600Y15366633D01*
X-14843277Y15275309D01*
X-15110991Y14874646D01*
X-15205000Y14402032D01*
X-15205000Y13537968D01*
X-15110991Y13065354D01*
X-14843277Y12664691D01*
X-14442614Y12396977D01*
X-13970000Y12302968D01*
X-13497386Y12396977D01*
X-13096723Y12664691D01*
X-12829009Y13065354D01*
X-12735000Y13537968D01*
X-12735000Y14402032D01*
X-12829009Y14874646D01*
X-13096723Y15275309D01*
X-13233400Y15366633D01*
X-13233400Y16764000D01*
X-13289470Y17045885D01*
X-13449145Y17284855D01*
X-26317396Y30153106D01*
X-26197386Y30176977D01*
X-25922058Y30360945D01*
X-25920855Y30359145D01*
X-11141320Y15579610D01*
X-11430000Y15637032D01*
X-11902614Y15543023D01*
X-12303277Y15275309D01*
X-12570991Y14874646D01*
X-12665000Y14402032D01*
X-12665000Y13537968D01*
X-12570991Y13065354D01*
X-12303277Y12664691D01*
X-11902614Y12396977D01*
X-11430000Y12302968D01*
X-10957386Y12396977D01*
X-10556723Y12664691D01*
X-10289009Y13065354D01*
X-10195000Y13537968D01*
X-10195000Y14402032D01*
X-10252422Y14690712D01*
X-10098246Y14536536D01*
X-10125000Y14402032D01*
X-10125000Y13537968D01*
X-10030991Y13065354D01*
X-9763277Y12664691D01*
X-9362614Y12396977D01*
X-8890000Y12302968D01*
X-8417386Y12396977D01*
X-8255000Y12505480D01*
X-8255000Y5987051D01*
X-9280026Y4962026D01*
X-9555327Y4550008D01*
X-9652001Y4064000D01*
X-9652000Y4063995D01*
X-9652000Y2850300D01*
X-12008695Y2850300D01*
X-12008700Y2850301D01*
X-12494708Y2753627D01*
X-12906726Y2478326D01*
X-13725026Y1660026D01*
X-14000327Y1248008D01*
X-14097001Y762000D01*
X-14000327Y275992D01*
X-13725026Y-136026D01*
X-13313008Y-411327D01*
X-12827000Y-508001D01*
X-12340992Y-411327D01*
X-11928974Y-136026D01*
X-11482648Y310300D01*
X-8222655Y310300D01*
X-8222650Y310299D01*
X-7736642Y406973D01*
X-7324624Y682274D01*
X-7049323Y1094292D01*
X-6952649Y1580300D01*
X-7049323Y2066308D01*
X-7112000Y2160111D01*
X-7112000Y3537948D01*
X-6086977Y4562972D01*
X-6086974Y4562974D01*
X-5811673Y4974992D01*
X-5715000Y5461000D01*
X-5715000Y9233070D01*
X-2814720Y9233070D01*
X-2692220Y9017000D01*
X-1397000Y9017000D01*
X-1397000Y10131128D01*
X-1616771Y10282577D01*
X-2137792Y10116771D01*
X-2555701Y9764200D01*
X-2806876Y9278540D01*
X-2814720Y9233070D01*
X-5715000Y9233070D01*
X-5715000Y14097000D01*
X-5811673Y14583008D01*
X-6086974Y14995026D01*
X-6498992Y15270327D01*
X-6985000Y15367000D01*
X-7471008Y15270327D01*
X-7845983Y15019778D01*
X-8016723Y15275309D01*
X-8417386Y15543023D01*
X-8890000Y15637032D01*
X-9077939Y15599649D01*
X-23656116Y30177826D01*
X-23256723Y30444691D01*
X-22989009Y30845354D01*
X-22895000Y31317968D01*
X-22895000Y31943290D01*
X-22825000Y32013290D01*
X-22825000Y31317968D01*
X-22730991Y30845354D01*
X-22463277Y30444691D01*
X-22062614Y30176977D01*
X-21590000Y30082968D01*
X-21117386Y30176977D01*
X-20716723Y30444691D01*
X-20449009Y30845354D01*
X-20355000Y31317968D01*
X-20355000Y31943290D01*
X-20285000Y32013290D01*
X-20285000Y31317968D01*
X-20190991Y30845354D01*
X-19923277Y30444691D01*
X-19522614Y30176977D01*
X-19050000Y30082968D01*
X-18577386Y30176977D01*
X-18176723Y30444691D01*
X-17909009Y30845354D01*
X-17815000Y31317968D01*
X-17815000Y31943290D01*
X-17745000Y32013290D01*
X-17745000Y31317968D01*
X-17650991Y30845354D01*
X-17383277Y30444691D01*
X-16982614Y30176977D01*
X-16510000Y30082968D01*
X-16037386Y30176977D01*
X-15636723Y30444691D01*
X-15369009Y30845354D01*
X-15275000Y31317968D01*
X-15275000Y32182032D01*
X-15205000Y32182032D01*
X-15205000Y31317968D01*
X-15110991Y30845354D01*
X-14843277Y30444691D01*
X-14706600Y30353367D01*
X-14706600Y25654000D01*
X-14650530Y25372115D01*
X-14490855Y25133145D01*
X482522Y10159768D01*
X60571Y9877828D01*
X-4158Y9780954D01*
X-402208Y10116771D01*
X-923229Y10282577D01*
X-1143000Y10131128D01*
X-1143000Y9017000D01*
X-1123000Y9017000D01*
X-1123000Y8763000D01*
X-1143000Y8763000D01*
X-1143000Y8743000D01*
X-1397000Y8743000D01*
X-1397000Y8763000D01*
X-2692220Y8763000D01*
X-2814720Y8546930D01*
X-2806876Y8501460D01*
X-2555701Y8015800D01*
X-2137792Y7663229D01*
X-2039328Y7631895D01*
X-2479429Y7337828D01*
X-2647295Y7086600D01*
X-2921000Y7086600D01*
X-3202885Y7030530D01*
X-3441855Y6870855D01*
X-4711855Y5600855D01*
X-4871530Y5361885D01*
X-4927600Y5080000D01*
X-4927600Y-61727D01*
X-5051821Y-185731D01*
X-5206824Y-559018D01*
X-5207176Y-963208D01*
X-5052825Y-1336766D01*
X-4767269Y-1622821D01*
X-4445093Y-1756601D01*
X-4445176Y-1852208D01*
X-4290825Y-2225766D01*
X-4005269Y-2511821D01*
X-3631982Y-2666824D01*
X-3227792Y-2667176D01*
X-2854234Y-2512825D01*
X-2568179Y-2227269D01*
X-2539397Y-2157955D01*
X-2137792Y-2496771D01*
X-2039328Y-2528105D01*
X-2479429Y-2822172D01*
X-2782261Y-3275391D01*
X-2888601Y-3810000D01*
X-2782261Y-4344609D01*
X-2479429Y-4797828D01*
X-2039328Y-5091895D01*
X-2137792Y-5123229D01*
X-2555701Y-5475800D01*
X-2806876Y-5961460D01*
X-2814720Y-6006930D01*
X-2692220Y-6223000D01*
X-1397000Y-6223000D01*
X-1397000Y-6203000D01*
X-1143000Y-6203000D01*
X-1143000Y-6223000D01*
X-1123000Y-6223000D01*
X-1123000Y-6477000D01*
X-1143000Y-6477000D01*
X-1143000Y-6497000D01*
X-1397000Y-6497000D01*
X-1397000Y-6477000D01*
X-2692220Y-6477000D01*
X-2814720Y-6693070D01*
X-2806876Y-6738540D01*
X-2555701Y-7224200D01*
X-2137792Y-7576771D01*
X-2039328Y-7608105D01*
X-2479429Y-7902172D01*
X-2782261Y-8355391D01*
X-2888601Y-8890000D01*
X-2782261Y-9424609D01*
X-2479429Y-9877828D01*
X-2026210Y-10180660D01*
X-1491601Y-10287000D01*
X-1048399Y-10287000D01*
X-513790Y-10180660D01*
X-222251Y-9985860D01*
X-146590Y-10103441D01*
X65610Y-10248431D01*
X317500Y-10299440D01*
X2222500Y-10299440D01*
X2457817Y-10255162D01*
X2673941Y-10116090D01*
X2818931Y-9903890D01*
X2869940Y-9652000D01*
X2869940Y-8128000D01*
X2825662Y-7892683D01*
X2686590Y-7676559D01*
X2474390Y-7531569D01*
X2255742Y-7487292D01*
X2479429Y-7337828D01*
X2782261Y-6884609D01*
X2888601Y-6350000D01*
X2782261Y-5815391D01*
X2479429Y-5362172D01*
X2057130Y-5080000D01*
X2479429Y-4797828D01*
X2782261Y-4344609D01*
X2888601Y-3810000D01*
X2782261Y-3275391D01*
X2479429Y-2822172D01*
X2057130Y-2540000D01*
X2479429Y-2257828D01*
X2782261Y-1804609D01*
X2888601Y-1270000D01*
X2782261Y-735391D01*
X2479429Y-282172D01*
X2057130Y0D01*
X2479429Y282172D01*
X2782261Y735391D01*
X2888601Y1270000D01*
X2782261Y1804609D01*
X2479429Y2257828D01*
X2057130Y2540000D01*
X2479429Y2822172D01*
X2782261Y3275391D01*
X2888601Y3810000D01*
X2782261Y4344609D01*
X2479429Y4797828D01*
X2057130Y5080000D01*
X2479429Y5362172D01*
X2782261Y5815391D01*
X2888601Y6350000D01*
X2782261Y6884609D01*
X2479429Y7337828D01*
X2057130Y7620000D01*
X2479429Y7902172D01*
X2782261Y8355391D01*
X2888601Y8890000D01*
X2782261Y9424609D01*
X2479429Y9877828D01*
X2026210Y10180660D01*
X2006600Y10184561D01*
X2006600Y10414000D01*
X1950530Y10695885D01*
X1790855Y10934855D01*
X-13233400Y25959110D01*
X-13233400Y30353367D01*
X-13096723Y30444691D01*
X-12829009Y30845354D01*
X-12735000Y31317968D01*
X-12735000Y32182032D01*
X-12665000Y32182032D01*
X-12665000Y31317968D01*
X-12570991Y30845354D01*
X-12303277Y30444691D01*
X-11902614Y30176977D01*
X-11430000Y30082968D01*
X-10957386Y30176977D01*
X-10556723Y30444691D01*
X-10289009Y30845354D01*
X-10195000Y31317968D01*
X-10195000Y32182032D01*
X-10289009Y32654646D01*
X-10556723Y33055309D01*
X-10957386Y33323023D01*
X-11430000Y33417032D01*
X-11902614Y33323023D01*
X-12303277Y33055309D01*
X-12570991Y32654646D01*
X-12665000Y32182032D01*
X-12735000Y32182032D01*
X-12829009Y32654646D01*
X-13096723Y33055309D01*
X-13497386Y33323023D01*
X-13970000Y33417032D01*
X-14442614Y33323023D01*
X-14843277Y33055309D01*
X-15110991Y32654646D01*
X-15205000Y32182032D01*
X-15275000Y32182032D01*
X-15369009Y32654646D01*
X-15636723Y33055309D01*
X-16037386Y33323023D01*
X-16369254Y33389036D01*
X-11911179Y37847111D01*
X-11430000Y37751399D01*
X-10895391Y37857739D01*
X-10442172Y38160571D01*
X-10160000Y38582870D01*
X-9877828Y38160571D01*
X-9626600Y37992705D01*
X-9626600Y33146633D01*
X-9763277Y33055309D01*
X-10030991Y32654646D01*
X-10125000Y32182032D01*
X-10125000Y31317968D01*
X-10030991Y30845354D01*
X-9763277Y30444691D01*
X-9362614Y30176977D01*
X-8890000Y30082968D01*
X-8417386Y30176977D01*
X-8016723Y30444691D01*
X-7749009Y30845354D01*
X-7655000Y31317968D01*
X-7655000Y32182032D01*
X-7749009Y32654646D01*
X-8016723Y33055309D01*
X-8153400Y33146633D01*
X-8153400Y37992705D01*
X-7902172Y38160571D01*
X-7599340Y38613790D01*
X-7493000Y39148399D01*
X-7493000Y39591601D01*
X-7599340Y40126210D01*
X-7794140Y40417749D01*
X-7676559Y40493410D01*
X-7531569Y40705610D01*
X-7480560Y40957500D01*
X-7480560Y42862500D01*
X-7492508Y42926000D01*
X-7130052Y42926000D01*
X-1270000Y37065949D01*
X-1270000Y25019005D01*
X-1270001Y25019000D01*
X-1173327Y24532992D01*
X-898026Y24120974D01*
X3810000Y19412948D01*
X3810000Y13208000D01*
X3906673Y12721992D01*
X4181974Y12309974D01*
X4593992Y12034673D01*
X5080000Y11938000D01*
X5566008Y12034673D01*
X5978026Y12309974D01*
X6253327Y12721992D01*
X6350000Y13208000D01*
X6350000Y19938995D01*
X6350001Y19939000D01*
X6253327Y20425008D01*
X5978026Y20837026D01*
X1270000Y25545052D01*
X1270000Y37592000D01*
X1173327Y38078008D01*
X898026Y38490026D01*
X898023Y38490028D01*
X-5705974Y45094026D01*
X-5935926Y45247675D01*
X1424587Y45247675D01*
X1786916Y44370771D01*
X2457242Y43699274D01*
X3333513Y43335415D01*
X4282325Y43334587D01*
X5159229Y43696916D01*
X5830726Y44367242D01*
X6194585Y45243513D01*
X6195413Y46192325D01*
X5833084Y47069229D01*
X5162758Y47740726D01*
X4286487Y48104585D01*
X3337675Y48105413D01*
X2460771Y47743084D01*
X1789274Y47072758D01*
X1425415Y46196487D01*
X1424587Y45247675D01*
X-5935926Y45247675D01*
X-6117992Y45369327D01*
X-6604000Y45466001D01*
X-6604005Y45466000D01*
X-10287000Y45466000D01*
X-10773008Y45369327D01*
X-11185026Y45094026D01*
X-12328026Y43951026D01*
X-12603327Y43539008D01*
X-12700001Y43053000D01*
X-12700000Y43052995D01*
X-12700000Y42697130D01*
X-12711895Y42679328D01*
X-12743229Y42777792D01*
X-13095800Y43195701D01*
X-13581460Y43446876D01*
X-13626930Y43454720D01*
X-13843000Y43332220D01*
X-13843000Y42037000D01*
X-13823000Y42037000D01*
X-13823000Y41783000D01*
X-13843000Y41783000D01*
X-13843000Y41763000D01*
X-14097000Y41763000D01*
X-14097000Y41783000D01*
X-15211128Y41783000D01*
X-15240000Y41741103D01*
X-15268872Y41783000D01*
X-16383000Y41783000D01*
X-16383000Y41763000D01*
X-16637000Y41763000D01*
X-16637000Y41783000D01*
X-17751128Y41783000D01*
X-17780000Y41741103D01*
X-17808872Y41783000D01*
X-18923000Y41783000D01*
X-18923000Y41763000D01*
X-19177000Y41763000D01*
X-19177000Y41783000D01*
X-20291128Y41783000D01*
X-20320000Y41741103D01*
X-20348872Y41783000D01*
X-21463000Y41783000D01*
X-21463000Y41763000D01*
X-21717000Y41763000D01*
X-21717000Y41783000D01*
X-22831128Y41783000D01*
X-22982577Y41563229D01*
X-22816771Y41042208D01*
X-22480954Y40644158D01*
X-22577828Y40579429D01*
X-22880660Y40126210D01*
X-22904700Y40005351D01*
X-23076055Y39890855D01*
X-28460855Y34506055D01*
X-28620530Y34267085D01*
X-28676600Y33985200D01*
X-28676600Y33245368D01*
X-28854719Y33339592D01*
X-28892391Y33343462D01*
X-29083000Y33218731D01*
X-29337000Y33218731D01*
X-29527609Y33343462D01*
X-29565281Y33339592D01*
X-29993474Y33113080D01*
X-30302390Y32739947D01*
X-30445000Y32277000D01*
X-30533890Y32277000D01*
X-30609009Y32654646D01*
X-30876723Y33055309D01*
X-31277386Y33323023D01*
X-31750000Y33417032D01*
X-32222614Y33323023D01*
X-32623277Y33055309D01*
X-32890991Y32654646D01*
X-32985000Y32182032D01*
X-33055000Y32182032D01*
X-33149009Y32654646D01*
X-33416723Y33055309D01*
X-33817386Y33323023D01*
X-34290000Y33417032D01*
X-34762614Y33323023D01*
X-35163277Y33055309D01*
X-35430991Y32654646D01*
X-35525000Y32182032D01*
X-35595000Y32182032D01*
X-35689009Y32654646D01*
X-35956723Y33055309D01*
X-36357386Y33323023D01*
X-36830000Y33417032D01*
X-37302614Y33323023D01*
X-37703277Y33055309D01*
X-37970991Y32654646D01*
X-38065000Y32182032D01*
X-38065000Y31925957D01*
X-38100000Y31750000D01*
X-38100000Y28593051D01*
X-40522026Y26171026D01*
X-40522028Y26171023D01*
X-40776026Y25917026D01*
X-41051327Y25505008D01*
X-41148001Y25019000D01*
X-47145000Y25019000D01*
X-47145000Y25524250D01*
X-47303750Y25683000D01*
X-49403000Y25683000D01*
X-49657000Y25683000D01*
X-51756250Y25683000D01*
X-51915000Y25524250D01*
X-57658000Y25524250D01*
X-57658000Y27436309D01*
X-51915000Y27436309D01*
X-51915000Y26095750D01*
X-51756250Y25937000D01*
X-49657000Y25937000D01*
X-49657000Y27786250D01*
X-49659654Y27788904D01*
X-49657000Y27790101D01*
X-49657000Y29643000D01*
X-49403000Y29643000D01*
X-49403000Y27790101D01*
X-49400346Y27788904D01*
X-49403000Y27786250D01*
X-49403000Y25937000D01*
X-47303750Y25937000D01*
X-47145000Y26095750D01*
X-47145000Y27436309D01*
X-47241673Y27669698D01*
X-47420301Y27848327D01*
X-47653690Y27945000D01*
X-48191181Y27945000D01*
X-47622095Y28413425D01*
X-47229157Y29151141D01*
X-47194887Y29311167D01*
X-47307835Y29643000D01*
X-49403000Y29643000D01*
X-49657000Y29643000D01*
X-51752165Y29643000D01*
X-51865113Y29311167D01*
X-51830843Y29151141D01*
X-51437905Y28413425D01*
X-50868819Y27945000D01*
X-51406310Y27945000D01*
X-51639699Y27848327D01*
X-51818327Y27669698D01*
X-51915000Y27436309D01*
X-57658000Y27436309D01*
X-57658000Y37690000D01*
X-51961725Y37690000D01*
X-51799208Y36872971D01*
X-51336398Y36180327D01*
X-50643754Y35717517D01*
X-50605963Y35710000D01*
X-50643754Y35702483D01*
X-51336398Y35239673D01*
X-51799208Y34547029D01*
X-51961725Y33730000D01*
X-51799208Y32912971D01*
X-51336398Y32220327D01*
X-50643754Y31757517D01*
X-50535837Y31736051D01*
X-50792566Y31657765D01*
X-51437905Y31126575D01*
X-51830843Y30388859D01*
X-51865113Y30228833D01*
X-51752165Y29897000D01*
X-49657000Y29897000D01*
X-49657000Y29917000D01*
X-49403000Y29917000D01*
X-49403000Y29897000D01*
X-47307835Y29897000D01*
X-47194887Y30228833D01*
X-47229157Y30388859D01*
X-47622095Y31126575D01*
X-48267434Y31657765D01*
X-48524163Y31736051D01*
X-48416246Y31757517D01*
X-47723602Y32220327D01*
X-47260792Y32912971D01*
X-47098275Y33730000D01*
X-47260792Y34547029D01*
X-47723602Y35239673D01*
X-48416246Y35702483D01*
X-48454037Y35710000D01*
X-48416246Y35717517D01*
X-47723602Y36180327D01*
X-47260792Y36872971D01*
X-47098275Y37690000D01*
X-47260792Y38507029D01*
X-47723602Y39199673D01*
X-48416246Y39662483D01*
X-49233275Y39825000D01*
X-49826725Y39825000D01*
X-50643754Y39662483D01*
X-51336398Y39199673D01*
X-51799208Y38507029D01*
X-51961725Y37690000D01*
X-57658000Y37690000D01*
X-57658000Y42256771D01*
X-22982577Y42256771D01*
X-22831128Y42037000D01*
X-21717000Y42037000D01*
X-21717000Y43332220D01*
X-21463000Y43332220D01*
X-21463000Y42037000D01*
X-20348872Y42037000D01*
X-20320000Y42078897D01*
X-20291128Y42037000D01*
X-19177000Y42037000D01*
X-19177000Y43332220D01*
X-18923000Y43332220D01*
X-18923000Y42037000D01*
X-17808872Y42037000D01*
X-17780000Y42078897D01*
X-17751128Y42037000D01*
X-16637000Y42037000D01*
X-16637000Y43332220D01*
X-16383000Y43332220D01*
X-16383000Y42037000D01*
X-15268872Y42037000D01*
X-15240000Y42078897D01*
X-15211128Y42037000D01*
X-14097000Y42037000D01*
X-14097000Y43332220D01*
X-14313070Y43454720D01*
X-14358540Y43446876D01*
X-14844200Y43195701D01*
X-15196771Y42777792D01*
X-15240000Y42641951D01*
X-15283229Y42777792D01*
X-15635800Y43195701D01*
X-16121460Y43446876D01*
X-16166930Y43454720D01*
X-16383000Y43332220D01*
X-16637000Y43332220D01*
X-16853070Y43454720D01*
X-16898540Y43446876D01*
X-17384200Y43195701D01*
X-17736771Y42777792D01*
X-17780000Y42641951D01*
X-17823229Y42777792D01*
X-18175800Y43195701D01*
X-18661460Y43446876D01*
X-18706930Y43454720D01*
X-18923000Y43332220D01*
X-19177000Y43332220D01*
X-19393070Y43454720D01*
X-19438540Y43446876D01*
X-19924200Y43195701D01*
X-20276771Y42777792D01*
X-20320000Y42641951D01*
X-20363229Y42777792D01*
X-20715800Y43195701D01*
X-21201460Y43446876D01*
X-21246930Y43454720D01*
X-21463000Y43332220D01*
X-21717000Y43332220D01*
X-21933070Y43454720D01*
X-21978540Y43446876D01*
X-22464200Y43195701D01*
X-22816771Y42777792D01*
X-22982577Y42256771D01*
X-57658000Y42256771D01*
X-57658000Y45247675D01*
X-55725413Y45247675D01*
X-55363084Y44370771D01*
X-54692758Y43699274D01*
X-53816487Y43335415D01*
X-52867675Y43334587D01*
X-51990771Y43696916D01*
X-51319274Y44367242D01*
X-50955415Y45243513D01*
X-50954587Y46192325D01*
X-51316916Y47069229D01*
X-51987242Y47740726D01*
X-52863513Y48104585D01*
X-53812325Y48105413D01*
X-54689229Y47743084D01*
X-55360726Y47072758D01*
X-55724585Y46196487D01*
X-55725413Y45247675D01*
X-57658000Y45247675D01*
X-57658000Y50038000D01*
X8128000Y50038000D01*
X8128000Y-32258000D01*
X8128000Y-32258000D01*
G37*
X8128000Y-32258000D02*
X-57658000Y-32258000D01*
X-57658000Y-28412325D01*
X-55725413Y-28412325D01*
X-55363084Y-29289229D01*
X-54692758Y-29960726D01*
X-53816487Y-30324585D01*
X-52867675Y-30325413D01*
X-51990771Y-29963084D01*
X-51319274Y-29292758D01*
X-50955415Y-28416487D01*
X-50955412Y-28412325D01*
X2694587Y-28412325D01*
X3056916Y-29289229D01*
X3727242Y-29960726D01*
X4603513Y-30324585D01*
X5552325Y-30325413D01*
X6429229Y-29963084D01*
X7100726Y-29292758D01*
X7464585Y-28416487D01*
X7465413Y-27467675D01*
X7103084Y-26590771D01*
X6432758Y-25919274D01*
X5556487Y-25555415D01*
X4607675Y-25554587D01*
X3730771Y-25916916D01*
X3059274Y-26587242D01*
X2695415Y-27463513D01*
X2694587Y-28412325D01*
X-50955412Y-28412325D01*
X-50954587Y-27467675D01*
X-51316916Y-26590771D01*
X-51987242Y-25919274D01*
X-52863513Y-25555415D01*
X-53812325Y-25554587D01*
X-54689229Y-25916916D01*
X-55360726Y-26587242D01*
X-55724585Y-27463513D01*
X-55725413Y-28412325D01*
X-57658000Y-28412325D01*
X-57658000Y-23833275D01*
X-48155000Y-23833275D01*
X-48155000Y-24426725D01*
X-47992483Y-25243754D01*
X-47529673Y-25936398D01*
X-46837029Y-26399208D01*
X-46020000Y-26561725D01*
X-45202971Y-26399208D01*
X-44510327Y-25936398D01*
X-44047517Y-25243754D01*
X-44040000Y-25205963D01*
X-44032483Y-25243754D01*
X-43569673Y-25936398D01*
X-42877029Y-26399208D01*
X-42060000Y-26561725D01*
X-41242971Y-26399208D01*
X-40550327Y-25936398D01*
X-40087517Y-25243754D01*
X-40066051Y-25135837D01*
X-39987765Y-25392566D01*
X-39456575Y-26037905D01*
X-38718859Y-26430843D01*
X-38558833Y-26465113D01*
X-38227000Y-26352165D01*
X-38227000Y-24257000D01*
X-37973000Y-24257000D01*
X-37973000Y-26352165D01*
X-37641167Y-26465113D01*
X-37481141Y-26430843D01*
X-36743425Y-26037905D01*
X-36275000Y-25468819D01*
X-36275000Y-26006310D01*
X-36178327Y-26239699D01*
X-35999698Y-26418327D01*
X-35766309Y-26515000D01*
X-34425750Y-26515000D01*
X-34267000Y-26356250D01*
X-34267000Y-24257000D01*
X-34013000Y-24257000D01*
X-34013000Y-26356250D01*
X-33854250Y-26515000D01*
X-32513691Y-26515000D01*
X-32280302Y-26418327D01*
X-32101673Y-26239699D01*
X-32005000Y-26006310D01*
X-32005000Y-24415750D01*
X-32163750Y-24257000D01*
X-34013000Y-24257000D01*
X-34267000Y-24257000D01*
X-36116250Y-24257000D01*
X-36118904Y-24259654D01*
X-36120101Y-24257000D01*
X-37973000Y-24257000D01*
X-38227000Y-24257000D01*
X-38247000Y-24257000D01*
X-38247000Y-24003000D01*
X-38227000Y-24003000D01*
X-38227000Y-21907835D01*
X-37973000Y-21907835D01*
X-37973000Y-24003000D01*
X-36120101Y-24003000D01*
X-36118904Y-24000346D01*
X-36116250Y-24003000D01*
X-34267000Y-24003000D01*
X-34267000Y-21903750D01*
X-34013000Y-21903750D01*
X-34013000Y-24003000D01*
X-32163750Y-24003000D01*
X-32005000Y-23844250D01*
X-32005000Y-23833275D01*
X-30225000Y-23833275D01*
X-30225000Y-24426725D01*
X-30062483Y-25243754D01*
X-29599673Y-25936398D01*
X-28907029Y-26399208D01*
X-28090000Y-26561725D01*
X-27272971Y-26399208D01*
X-26580327Y-25936398D01*
X-26117517Y-25243754D01*
X-26110000Y-25205963D01*
X-26102483Y-25243754D01*
X-25639673Y-25936398D01*
X-24947029Y-26399208D01*
X-24130000Y-26561725D01*
X-23312971Y-26399208D01*
X-22620327Y-25936398D01*
X-22157517Y-25243754D01*
X-22136051Y-25135837D01*
X-22057765Y-25392566D01*
X-21526575Y-26037905D01*
X-20788859Y-26430843D01*
X-20628833Y-26465113D01*
X-20297000Y-26352165D01*
X-20297000Y-24257000D01*
X-20043000Y-24257000D01*
X-20043000Y-26352165D01*
X-19711167Y-26465113D01*
X-19551141Y-26430843D01*
X-18813425Y-26037905D01*
X-18345000Y-25468819D01*
X-18345000Y-26006310D01*
X-18248327Y-26239699D01*
X-18069698Y-26418327D01*
X-17836309Y-26515000D01*
X-16495750Y-26515000D01*
X-16337000Y-26356250D01*
X-16337000Y-24257000D01*
X-16083000Y-24257000D01*
X-16083000Y-26356250D01*
X-15924250Y-26515000D01*
X-14583691Y-26515000D01*
X-14350302Y-26418327D01*
X-14171673Y-26239699D01*
X-14075000Y-26006310D01*
X-14075000Y-24415750D01*
X-14233750Y-24257000D01*
X-16083000Y-24257000D01*
X-16337000Y-24257000D01*
X-18186250Y-24257000D01*
X-18188904Y-24259654D01*
X-18190101Y-24257000D01*
X-20043000Y-24257000D01*
X-20297000Y-24257000D01*
X-20317000Y-24257000D01*
X-20317000Y-24003000D01*
X-20297000Y-24003000D01*
X-20297000Y-21907835D01*
X-20043000Y-21907835D01*
X-20043000Y-24003000D01*
X-18190101Y-24003000D01*
X-18188904Y-24000346D01*
X-18186250Y-24003000D01*
X-16337000Y-24003000D01*
X-16337000Y-21903750D01*
X-16083000Y-21903750D01*
X-16083000Y-24003000D01*
X-14233750Y-24003000D01*
X-14075000Y-23844250D01*
X-14075000Y-22253690D01*
X-14171673Y-22020301D01*
X-14350302Y-21841673D01*
X-14583691Y-21745000D01*
X-15924250Y-21745000D01*
X-16083000Y-21903750D01*
X-16337000Y-21903750D01*
X-16495750Y-21745000D01*
X-17836309Y-21745000D01*
X-18069698Y-21841673D01*
X-18248327Y-22020301D01*
X-18345000Y-22253690D01*
X-18345000Y-22791181D01*
X-18813425Y-22222095D01*
X-19551141Y-21829157D01*
X-19711167Y-21794887D01*
X-20043000Y-21907835D01*
X-20297000Y-21907835D01*
X-20628833Y-21794887D01*
X-20788859Y-21829157D01*
X-21526575Y-22222095D01*
X-22057765Y-22867434D01*
X-22136051Y-23124163D01*
X-22157517Y-23016246D01*
X-22620327Y-22323602D01*
X-23312971Y-21860792D01*
X-24130000Y-21698275D01*
X-24947029Y-21860792D01*
X-25639673Y-22323602D01*
X-26102483Y-23016246D01*
X-26110000Y-23054037D01*
X-26117517Y-23016246D01*
X-26580327Y-22323602D01*
X-27272971Y-21860792D01*
X-28090000Y-21698275D01*
X-28907029Y-21860792D01*
X-29599673Y-22323602D01*
X-30062483Y-23016246D01*
X-30225000Y-23833275D01*
X-32005000Y-23833275D01*
X-32005000Y-22253690D01*
X-32101673Y-22020301D01*
X-32280302Y-21841673D01*
X-32513691Y-21745000D01*
X-33854250Y-21745000D01*
X-34013000Y-21903750D01*
X-34267000Y-21903750D01*
X-34425750Y-21745000D01*
X-35766309Y-21745000D01*
X-35999698Y-21841673D01*
X-36178327Y-22020301D01*
X-36275000Y-22253690D01*
X-36275000Y-22791181D01*
X-36743425Y-22222095D01*
X-37481141Y-21829157D01*
X-37641167Y-21794887D01*
X-37973000Y-21907835D01*
X-38227000Y-21907835D01*
X-38558833Y-21794887D01*
X-38718859Y-21829157D01*
X-39456575Y-22222095D01*
X-39987765Y-22867434D01*
X-40066051Y-23124163D01*
X-40087517Y-23016246D01*
X-40550327Y-22323602D01*
X-41242971Y-21860792D01*
X-42060000Y-21698275D01*
X-42877029Y-21860792D01*
X-43569673Y-22323602D01*
X-44032483Y-23016246D01*
X-44040000Y-23054037D01*
X-44047517Y-23016246D01*
X-44510327Y-22323602D01*
X-45202971Y-21860792D01*
X-46020000Y-21698275D01*
X-46837029Y-21860792D01*
X-47529673Y-22323602D01*
X-47992483Y-23016246D01*
X-48155000Y-23833275D01*
X-57658000Y-23833275D01*
X-57658000Y-16795750D01*
X-23622000Y-16795750D01*
X-23622000Y-17588810D01*
X-23525327Y-17822199D01*
X-23346698Y-18000827D01*
X-23113309Y-18097500D01*
X-22510750Y-18097500D01*
X-22352000Y-17938750D01*
X-22352000Y-16637000D01*
X-22098000Y-16637000D01*
X-22098000Y-17938750D01*
X-21939250Y-18097500D01*
X-21336691Y-18097500D01*
X-21103302Y-18000827D01*
X-20924673Y-17822199D01*
X-20828000Y-17588810D01*
X-20828000Y-17477087D01*
X-20559200Y-17795701D01*
X-20073540Y-18046876D01*
X-20028070Y-18054720D01*
X-19812000Y-17932220D01*
X-19812000Y-16637000D01*
X-19558000Y-16637000D01*
X-19558000Y-17932220D01*
X-19341930Y-18054720D01*
X-19296460Y-18046876D01*
X-18810800Y-17795701D01*
X-18458229Y-17377792D01*
X-18415000Y-17241951D01*
X-18371771Y-17377792D01*
X-18019200Y-17795701D01*
X-17533540Y-18046876D01*
X-17488070Y-18054720D01*
X-17272000Y-17932220D01*
X-17272000Y-16637000D01*
X-17018000Y-16637000D01*
X-17018000Y-17932220D01*
X-16801930Y-18054720D01*
X-16756460Y-18046876D01*
X-16270800Y-17795701D01*
X-15918229Y-17377792D01*
X-15875000Y-17241951D01*
X-15831771Y-17377792D01*
X-15479200Y-17795701D01*
X-14993540Y-18046876D01*
X-14948070Y-18054720D01*
X-14732000Y-17932220D01*
X-14732000Y-16637000D01*
X-14478000Y-16637000D01*
X-14478000Y-17932220D01*
X-14261930Y-18054720D01*
X-14216460Y-18046876D01*
X-13730800Y-17795701D01*
X-13378229Y-17377792D01*
X-13335000Y-17241951D01*
X-13291771Y-17377792D01*
X-12939200Y-17795701D01*
X-12453540Y-18046876D01*
X-12408070Y-18054720D01*
X-12192000Y-17932220D01*
X-12192000Y-16637000D01*
X-11938000Y-16637000D01*
X-11938000Y-17932220D01*
X-11721930Y-18054720D01*
X-11676460Y-18046876D01*
X-11190800Y-17795701D01*
X-10838229Y-17377792D01*
X-10795000Y-17241951D01*
X-10751771Y-17377792D01*
X-10399200Y-17795701D01*
X-9913540Y-18046876D01*
X-9868070Y-18054720D01*
X-9652000Y-17932220D01*
X-9652000Y-16637000D01*
X-9398000Y-16637000D01*
X-9398000Y-17932220D01*
X-9181930Y-18054720D01*
X-9136460Y-18046876D01*
X-8650800Y-17795701D01*
X-8298229Y-17377792D01*
X-8132423Y-16856771D01*
X-8283872Y-16637000D01*
X-9398000Y-16637000D01*
X-9652000Y-16637000D01*
X-10766128Y-16637000D01*
X-10795000Y-16678897D01*
X-10823872Y-16637000D01*
X-11938000Y-16637000D01*
X-12192000Y-16637000D01*
X-13306128Y-16637000D01*
X-13335000Y-16678897D01*
X-13363872Y-16637000D01*
X-14478000Y-16637000D01*
X-14732000Y-16637000D01*
X-15846128Y-16637000D01*
X-15875000Y-16678897D01*
X-15903872Y-16637000D01*
X-17018000Y-16637000D01*
X-17272000Y-16637000D01*
X-18386128Y-16637000D01*
X-18415000Y-16678897D01*
X-18443872Y-16637000D01*
X-19558000Y-16637000D01*
X-19812000Y-16637000D01*
X-20926128Y-16637000D01*
X-20950860Y-16672890D01*
X-20986750Y-16637000D01*
X-22098000Y-16637000D01*
X-22352000Y-16637000D01*
X-23463250Y-16637000D01*
X-23622000Y-16795750D01*
X-57658000Y-16795750D01*
X-57658000Y-13748399D01*
X-23622000Y-13748399D01*
X-23622000Y-14191601D01*
X-23515660Y-14726210D01*
X-23325715Y-15010482D01*
X-23346698Y-15019173D01*
X-23525327Y-15197801D01*
X-23622000Y-15431190D01*
X-23622000Y-16224250D01*
X-23463250Y-16383000D01*
X-22352000Y-16383000D01*
X-22352000Y-16363000D01*
X-22098000Y-16363000D01*
X-22098000Y-16383000D01*
X-20986750Y-16383000D01*
X-20950860Y-16347110D01*
X-20926128Y-16383000D01*
X-19812000Y-16383000D01*
X-19812000Y-16363000D01*
X-19558000Y-16363000D01*
X-19558000Y-16383000D01*
X-18443872Y-16383000D01*
X-18415000Y-16341103D01*
X-18386128Y-16383000D01*
X-17272000Y-16383000D01*
X-17272000Y-16363000D01*
X-17018000Y-16363000D01*
X-17018000Y-16383000D01*
X-15903872Y-16383000D01*
X-15875000Y-16341103D01*
X-15846128Y-16383000D01*
X-14732000Y-16383000D01*
X-14732000Y-16363000D01*
X-14478000Y-16363000D01*
X-14478000Y-16383000D01*
X-13363872Y-16383000D01*
X-13335000Y-16341103D01*
X-13306128Y-16383000D01*
X-12192000Y-16383000D01*
X-12192000Y-16363000D01*
X-11938000Y-16363000D01*
X-11938000Y-16383000D01*
X-10823872Y-16383000D01*
X-10795000Y-16341103D01*
X-10766128Y-16383000D01*
X-9652000Y-16383000D01*
X-9652000Y-16363000D01*
X-9398000Y-16363000D01*
X-9398000Y-16383000D01*
X-8283872Y-16383000D01*
X-8132423Y-16163229D01*
X-8174839Y-16029940D01*
X-7327640Y-16029940D01*
X-7327640Y-19530060D01*
X-7283362Y-19765377D01*
X-7144290Y-19981501D01*
X-6932090Y-20126491D01*
X-6680200Y-20177500D01*
X-3180080Y-20177500D01*
X-2944763Y-20133222D01*
X-2728639Y-19994150D01*
X-2583649Y-19781950D01*
X-2532640Y-19530060D01*
X-2532640Y-18065750D01*
X-1315720Y-18065750D01*
X-1315720Y-19656370D01*
X-1219047Y-19889759D01*
X-1040418Y-20068387D01*
X-807029Y-20165060D01*
X783590Y-20165060D01*
X942340Y-20006310D01*
X942340Y-17907000D01*
X1196340Y-17907000D01*
X1196340Y-20006310D01*
X1355090Y-20165060D01*
X2945709Y-20165060D01*
X3179098Y-20068387D01*
X3357727Y-19889759D01*
X3454400Y-19656370D01*
X3454400Y-18065750D01*
X3295650Y-17907000D01*
X1196340Y-17907000D01*
X942340Y-17907000D01*
X-1156970Y-17907000D01*
X-1315720Y-18065750D01*
X-2532640Y-18065750D01*
X-2532640Y-16029940D01*
X-2576918Y-15794623D01*
X-2715990Y-15578499D01*
X-2862343Y-15478500D01*
X-1008760Y-15478500D01*
X-1040418Y-15491613D01*
X-1219047Y-15670241D01*
X-1315720Y-15903630D01*
X-1315720Y-17494250D01*
X-1156970Y-17653000D01*
X942340Y-17653000D01*
X942340Y-15553690D01*
X1196340Y-15553690D01*
X1196340Y-17653000D01*
X3295650Y-17653000D01*
X3454400Y-17494250D01*
X3454400Y-15903630D01*
X3357727Y-15670241D01*
X3179098Y-15491613D01*
X2945709Y-15394940D01*
X1355090Y-15394940D01*
X1196340Y-15553690D01*
X942340Y-15553690D01*
X783590Y-15394940D01*
X116023Y-15394940D01*
X271101Y-15295150D01*
X416091Y-15082950D01*
X467100Y-14831060D01*
X467100Y-11330940D01*
X422822Y-11095623D01*
X283750Y-10879499D01*
X71550Y-10734509D01*
X-180340Y-10683500D01*
X-3680460Y-10683500D01*
X-3915777Y-10727778D01*
X-4131901Y-10866850D01*
X-4276891Y-11079050D01*
X-4327900Y-11330940D01*
X-4327900Y-14831060D01*
X-4283622Y-15066377D01*
X-4144550Y-15282501D01*
X-3998197Y-15382500D01*
X-6680200Y-15382500D01*
X-6915517Y-15426778D01*
X-7131641Y-15565850D01*
X-7276631Y-15778050D01*
X-7327640Y-16029940D01*
X-8174839Y-16029940D01*
X-8298229Y-15642208D01*
X-8634046Y-15244158D01*
X-8537172Y-15179429D01*
X-8234340Y-14726210D01*
X-8128000Y-14191601D01*
X-8128000Y-13748399D01*
X-8234340Y-13213790D01*
X-8537172Y-12760571D01*
X-8990391Y-12457739D01*
X-9525000Y-12351399D01*
X-10059609Y-12457739D01*
X-10512828Y-12760571D01*
X-10795000Y-13182870D01*
X-11077172Y-12760571D01*
X-11530391Y-12457739D01*
X-12065000Y-12351399D01*
X-12599609Y-12457739D01*
X-13052828Y-12760571D01*
X-13335000Y-13182870D01*
X-13617172Y-12760571D01*
X-14070391Y-12457739D01*
X-14605000Y-12351399D01*
X-15139609Y-12457739D01*
X-15592828Y-12760571D01*
X-15875000Y-13182870D01*
X-16157172Y-12760571D01*
X-16610391Y-12457739D01*
X-17145000Y-12351399D01*
X-17679609Y-12457739D01*
X-18132828Y-12760571D01*
X-18415000Y-13182870D01*
X-18697172Y-12760571D01*
X-19150391Y-12457739D01*
X-19685000Y-12351399D01*
X-20219609Y-12457739D01*
X-20672828Y-12760571D01*
X-20955000Y-13182870D01*
X-21237172Y-12760571D01*
X-21690391Y-12457739D01*
X-22225000Y-12351399D01*
X-22759609Y-12457739D01*
X-23212828Y-12760571D01*
X-23515660Y-13213790D01*
X-23622000Y-13748399D01*
X-57658000Y-13748399D01*
X-57658000Y-11773070D01*
X-33294720Y-11773070D01*
X-33286876Y-11818540D01*
X-33035701Y-12304200D01*
X-32617792Y-12656771D01*
X-32096771Y-12822577D01*
X-31877000Y-12671128D01*
X-31877000Y-11557000D01*
X-31623000Y-11557000D01*
X-31623000Y-12671128D01*
X-31403229Y-12822577D01*
X-30882208Y-12656771D01*
X-30464299Y-12304200D01*
X-30213124Y-11818540D01*
X-30205280Y-11773070D01*
X-30327780Y-11557000D01*
X-31623000Y-11557000D01*
X-31877000Y-11557000D01*
X-33172220Y-11557000D01*
X-33294720Y-11773070D01*
X-57658000Y-11773070D01*
X-57658000Y3810000D01*
X-33368601Y3810000D01*
X-33262261Y3275391D01*
X-32959429Y2822172D01*
X-32537130Y2540000D01*
X-32959429Y2257828D01*
X-33262261Y1804609D01*
X-33368601Y1270000D01*
X-33262261Y735391D01*
X-32959429Y282172D01*
X-32537130Y0D01*
X-32959429Y-282172D01*
X-33262261Y-735391D01*
X-33368601Y-1270000D01*
X-33262261Y-1804609D01*
X-32959429Y-2257828D01*
X-32537130Y-2540000D01*
X-32959429Y-2822172D01*
X-33262261Y-3275391D01*
X-33368601Y-3810000D01*
X-33262261Y-4344609D01*
X-32959429Y-4797828D01*
X-32537130Y-5080000D01*
X-32959429Y-5362172D01*
X-33262261Y-5815391D01*
X-33368601Y-6350000D01*
X-33262261Y-6884609D01*
X-32959429Y-7337828D01*
X-32537130Y-7620000D01*
X-32959429Y-7902172D01*
X-33262261Y-8355391D01*
X-33368601Y-8890000D01*
X-33262261Y-9424609D01*
X-32959429Y-9877828D01*
X-32519328Y-10171895D01*
X-32617792Y-10203229D01*
X-33035701Y-10555800D01*
X-33286876Y-11041460D01*
X-33294720Y-11086930D01*
X-33172220Y-11303000D01*
X-31877000Y-11303000D01*
X-31877000Y-11283000D01*
X-31623000Y-11283000D01*
X-31623000Y-11303000D01*
X-30327780Y-11303000D01*
X-30205280Y-11086930D01*
X-30213124Y-11041460D01*
X-30464299Y-10555800D01*
X-30882208Y-10203229D01*
X-30980672Y-10171895D01*
X-30540571Y-9877828D01*
X-30372705Y-9626600D01*
X-25400000Y-9626600D01*
X-25118115Y-9570530D01*
X-24879145Y-9410855D01*
X-19659313Y-4191023D01*
X-19483792Y-4191176D01*
X-19110234Y-4036825D01*
X-18824179Y-3751269D01*
X-18669176Y-3377982D01*
X-18668824Y-2973792D01*
X-18823175Y-2600234D01*
X-19108731Y-2314179D01*
X-19482018Y-2159176D01*
X-19886208Y-2158824D01*
X-20259766Y-2313175D01*
X-20545821Y-2598731D01*
X-20700824Y-2972018D01*
X-20700978Y-3149268D01*
X-22250336Y-4698626D01*
X-22321673Y-4339992D01*
X-22596974Y-3927975D01*
X-24003000Y-2521948D01*
X-24003000Y-1143000D01*
X-20828005Y-1143000D01*
X-20828000Y-1143001D01*
X-20341992Y-1046327D01*
X-19929974Y-771026D01*
X-19582622Y-423673D01*
X-19520554Y-411327D01*
X-19108536Y-136026D01*
X-18833235Y275992D01*
X-18736562Y762000D01*
X-18833235Y1248008D01*
X-19108536Y1660026D01*
X-19520554Y1935327D01*
X-20006562Y2032000D01*
X-20192995Y2032000D01*
X-20193000Y2032001D01*
X-20679008Y1935327D01*
X-21091026Y1660026D01*
X-21091028Y1660023D01*
X-21354051Y1397000D01*
X-25273000Y1397000D01*
X-25759008Y1300327D01*
X-26171026Y1025026D01*
X-26446327Y613008D01*
X-26543000Y127000D01*
X-26543000Y-3047995D01*
X-26543001Y-3048000D01*
X-26446327Y-3534008D01*
X-26171026Y-3946026D01*
X-24393025Y-5724026D01*
X-23981008Y-5999327D01*
X-23622374Y-6070664D01*
X-25705110Y-8153400D01*
X-30372705Y-8153400D01*
X-30540571Y-7902172D01*
X-30962870Y-7620000D01*
X-30540571Y-7337828D01*
X-30338739Y-7035766D01*
X-30312415Y-7030530D01*
X-30073445Y-6870855D01*
X-28181145Y-4978555D01*
X-28021470Y-4739585D01*
X-27965400Y-4457700D01*
X-27965400Y1472890D01*
X-26618890Y2819400D01*
X-21082000Y2819400D01*
X-20800115Y2875470D01*
X-20731936Y2921026D01*
X-20499792Y2920824D01*
X-20126234Y3075175D01*
X-19840179Y3360731D01*
X-19685176Y3734018D01*
X-19684824Y4138208D01*
X-19839175Y4511766D01*
X-20124731Y4797821D01*
X-20498018Y4952824D01*
X-20902208Y4953176D01*
X-21275766Y4798825D01*
X-21561821Y4513269D01*
X-21653451Y4292600D01*
X-23198643Y4292600D01*
X-23114176Y4496018D01*
X-23113824Y4900208D01*
X-23268175Y5273766D01*
X-23553731Y5559821D01*
X-23927018Y5714824D01*
X-24331208Y5715176D01*
X-24704766Y5560825D01*
X-24830210Y5435600D01*
X-26355751Y5435600D01*
X-26637636Y5379530D01*
X-26850457Y5237327D01*
X-26876606Y5219855D01*
X-29857855Y2238606D01*
X-30017530Y1999636D01*
X-30073600Y1717751D01*
X-30073600Y-1282390D01*
X-30148827Y-1357617D01*
X-30131399Y-1270000D01*
X-30237739Y-735391D01*
X-30540571Y-282172D01*
X-30962870Y0D01*
X-30540571Y282172D01*
X-30237739Y735391D01*
X-30131399Y1270000D01*
X-30237739Y1804609D01*
X-30540571Y2257828D01*
X-30962870Y2540000D01*
X-30540571Y2822172D01*
X-30441899Y2969845D01*
X-30421269Y2949179D01*
X-30047982Y2794176D01*
X-29643792Y2793824D01*
X-29270234Y2948175D01*
X-28984179Y3233731D01*
X-28829176Y3607018D01*
X-28828824Y4011208D01*
X-28983175Y4384766D01*
X-29268731Y4670821D01*
X-29642018Y4825824D01*
X-30046208Y4826176D01*
X-30419766Y4671825D01*
X-30441729Y4649901D01*
X-30540571Y4797828D01*
X-30763702Y4946920D01*
X-30562183Y4984838D01*
X-30346059Y5123910D01*
X-30201069Y5336110D01*
X-30150060Y5588000D01*
X-30150060Y7112000D01*
X-30194338Y7347317D01*
X-30333410Y7563441D01*
X-30545610Y7708431D01*
X-30797500Y7759440D01*
X-32702500Y7759440D01*
X-32937817Y7715162D01*
X-33153941Y7576090D01*
X-33298931Y7363890D01*
X-33349940Y7112000D01*
X-33349940Y5588000D01*
X-33305662Y5352683D01*
X-33166590Y5136559D01*
X-32954390Y4991569D01*
X-32735742Y4947292D01*
X-32959429Y4797828D01*
X-33262261Y4344609D01*
X-33368601Y3810000D01*
X-57658000Y3810000D01*
X-57658000Y7744250D01*
X-51915000Y7744250D01*
X-51915000Y6403691D01*
X-51818327Y6170302D01*
X-51639699Y5991673D01*
X-51406310Y5895000D01*
X-49815750Y5895000D01*
X-49657000Y6053750D01*
X-49657000Y7903000D01*
X-49403000Y7903000D01*
X-49403000Y6053750D01*
X-49244250Y5895000D01*
X-47653690Y5895000D01*
X-47420301Y5991673D01*
X-47241673Y6170302D01*
X-47145000Y6403691D01*
X-47145000Y7744250D01*
X-47303750Y7903000D01*
X-49403000Y7903000D01*
X-49657000Y7903000D01*
X-51756250Y7903000D01*
X-51915000Y7744250D01*
X-57658000Y7744250D01*
X-57658000Y9656309D01*
X-51915000Y9656309D01*
X-51915000Y8315750D01*
X-51756250Y8157000D01*
X-49657000Y8157000D01*
X-49657000Y10006250D01*
X-49659654Y10008904D01*
X-49657000Y10010101D01*
X-49657000Y11863000D01*
X-49403000Y11863000D01*
X-49403000Y10010101D01*
X-49400346Y10008904D01*
X-49403000Y10006250D01*
X-49403000Y8157000D01*
X-47303750Y8157000D01*
X-47145000Y8315750D01*
X-47145000Y9656309D01*
X-47241673Y9889698D01*
X-47420301Y10068327D01*
X-47653690Y10165000D01*
X-48191181Y10165000D01*
X-47622095Y10633425D01*
X-47229157Y11371141D01*
X-47194887Y11531167D01*
X-47307835Y11863000D01*
X-49403000Y11863000D01*
X-49657000Y11863000D01*
X-51752165Y11863000D01*
X-51865113Y11531167D01*
X-51830843Y11371141D01*
X-51437905Y10633425D01*
X-50868819Y10165000D01*
X-51406310Y10165000D01*
X-51639699Y10068327D01*
X-51818327Y9889698D01*
X-51915000Y9656309D01*
X-57658000Y9656309D01*
X-57658000Y19910000D01*
X-51961725Y19910000D01*
X-51799208Y19092971D01*
X-51336398Y18400327D01*
X-50643754Y17937517D01*
X-50605963Y17930000D01*
X-50643754Y17922483D01*
X-51336398Y17459673D01*
X-51799208Y16767029D01*
X-51961725Y15950000D01*
X-51799208Y15132971D01*
X-51336398Y14440327D01*
X-50643754Y13977517D01*
X-50535837Y13956051D01*
X-50792566Y13877765D01*
X-51437905Y13346575D01*
X-51830843Y12608859D01*
X-51865113Y12448833D01*
X-51752165Y12117000D01*
X-49657000Y12117000D01*
X-49657000Y12137000D01*
X-49403000Y12137000D01*
X-49403000Y12117000D01*
X-47307835Y12117000D01*
X-47194887Y12448833D01*
X-47229157Y12608859D01*
X-47622095Y13346575D01*
X-48267434Y13877765D01*
X-48524163Y13956051D01*
X-48416246Y13977517D01*
X-47723602Y14440327D01*
X-47260792Y15132971D01*
X-47098275Y15950000D01*
X-47260792Y16767029D01*
X-47723602Y17459673D01*
X-48416246Y17922483D01*
X-48454037Y17930000D01*
X-48416246Y17937517D01*
X-47723602Y18400327D01*
X-47260792Y19092971D01*
X-47098275Y19910000D01*
X-47260792Y20727029D01*
X-47723602Y21419673D01*
X-48416246Y21882483D01*
X-49233275Y22045000D01*
X-49826725Y22045000D01*
X-50643754Y21882483D01*
X-51336398Y21419673D01*
X-51799208Y20727029D01*
X-51961725Y19910000D01*
X-57658000Y19910000D01*
X-57658000Y25524250D01*
X-51915000Y25524250D01*
X-51915000Y24183691D01*
X-51818327Y23950302D01*
X-51639699Y23771673D01*
X-51406310Y23675000D01*
X-49815750Y23675000D01*
X-49657000Y23833750D01*
X-49657000Y25683000D01*
X-49403000Y25683000D01*
X-49403000Y23833750D01*
X-49244250Y23675000D01*
X-47653690Y23675000D01*
X-47420301Y23771673D01*
X-47241673Y23950302D01*
X-47145000Y24183691D01*
X-47145000Y25019000D01*
X-41148001Y25019000D01*
X-41148000Y25018995D01*
X-41148000Y6477000D01*
X-41051327Y5990992D01*
X-40776026Y5578974D01*
X-40364008Y5303673D01*
X-39878000Y5207000D01*
X-39391992Y5303673D01*
X-38979974Y5578974D01*
X-38704673Y5990992D01*
X-38608000Y6477000D01*
X-38608000Y14402032D01*
X-38065000Y14402032D01*
X-38065000Y13537968D01*
X-37970991Y13065354D01*
X-37703277Y12664691D01*
X-37302614Y12396977D01*
X-36830000Y12302968D01*
X-36357386Y12396977D01*
X-35956723Y12664691D01*
X-35689009Y13065354D01*
X-35595000Y13537968D01*
X-35595000Y13843000D01*
X-35525000Y13843000D01*
X-35525000Y13443000D01*
X-35382390Y12980053D01*
X-35073474Y12606920D01*
X-34645281Y12380408D01*
X-34607609Y12376538D01*
X-34417000Y12501269D01*
X-34417000Y13843000D01*
X-34163000Y13843000D01*
X-34163000Y12501269D01*
X-33972391Y12376538D01*
X-33934719Y12380408D01*
X-33506526Y12606920D01*
X-33197610Y12980053D01*
X-33055000Y13443000D01*
X-33055000Y13843000D01*
X-34163000Y13843000D01*
X-34417000Y13843000D01*
X-35525000Y13843000D01*
X-35595000Y13843000D01*
X-35595000Y14402032D01*
X-35613890Y14497000D01*
X-35525000Y14497000D01*
X-35525000Y14097000D01*
X-34417000Y14097000D01*
X-34417000Y15438731D01*
X-34163000Y15438731D01*
X-34163000Y14097000D01*
X-33055000Y14097000D01*
X-33055000Y14402032D01*
X-32985000Y14402032D01*
X-32985000Y13537968D01*
X-32890991Y13065354D01*
X-32623277Y12664691D01*
X-32222614Y12396977D01*
X-31750000Y12302968D01*
X-31277386Y12396977D01*
X-30876723Y12664691D01*
X-30609009Y13065354D01*
X-30515000Y13537968D01*
X-30515000Y14402032D01*
X-30445000Y14402032D01*
X-30445000Y13537968D01*
X-30350991Y13065354D01*
X-30083277Y12664691D01*
X-29682614Y12396977D01*
X-29210000Y12302968D01*
X-28737386Y12396977D01*
X-28336723Y12664691D01*
X-28069009Y13065354D01*
X-27975000Y13537968D01*
X-27975000Y14402032D01*
X-27905000Y14402032D01*
X-27905000Y13537968D01*
X-27810991Y13065354D01*
X-27543277Y12664691D01*
X-27142614Y12396977D01*
X-26670000Y12302968D01*
X-26197386Y12396977D01*
X-25796723Y12664691D01*
X-25529009Y13065354D01*
X-25435000Y13537968D01*
X-25435000Y14402032D01*
X-25365000Y14402032D01*
X-25365000Y13537968D01*
X-25270991Y13065354D01*
X-25003277Y12664691D01*
X-24602614Y12396977D01*
X-24130000Y12302968D01*
X-23657386Y12396977D01*
X-23256723Y12664691D01*
X-22989009Y13065354D01*
X-22895000Y13537968D01*
X-22895000Y14402032D01*
X-22825000Y14402032D01*
X-22825000Y13537968D01*
X-22730991Y13065354D01*
X-22463277Y12664691D01*
X-22062614Y12396977D01*
X-21590000Y12302968D01*
X-21117386Y12396977D01*
X-20716723Y12664691D01*
X-20449009Y13065354D01*
X-20355000Y13537968D01*
X-20355000Y14402032D01*
X-20285000Y14402032D01*
X-20285000Y13537968D01*
X-20190991Y13065354D01*
X-19923277Y12664691D01*
X-19522614Y12396977D01*
X-19050000Y12302968D01*
X-18577386Y12396977D01*
X-18176723Y12664691D01*
X-17909009Y13065354D01*
X-17815000Y13537968D01*
X-17815000Y14402032D01*
X-17745000Y14402032D01*
X-17745000Y13537968D01*
X-17650991Y13065354D01*
X-17383277Y12664691D01*
X-16982614Y12396977D01*
X-16510000Y12302968D01*
X-16037386Y12396977D01*
X-15636723Y12664691D01*
X-15369009Y13065354D01*
X-15275000Y13537968D01*
X-15275000Y14402032D01*
X-15369009Y14874646D01*
X-15636723Y15275309D01*
X-16037386Y15543023D01*
X-16510000Y15637032D01*
X-16982614Y15543023D01*
X-17383277Y15275309D01*
X-17650991Y14874646D01*
X-17745000Y14402032D01*
X-17815000Y14402032D01*
X-17909009Y14874646D01*
X-18176723Y15275309D01*
X-18577386Y15543023D01*
X-19050000Y15637032D01*
X-19522614Y15543023D01*
X-19923277Y15275309D01*
X-20190991Y14874646D01*
X-20285000Y14402032D01*
X-20355000Y14402032D01*
X-20449009Y14874646D01*
X-20716723Y15275309D01*
X-21117386Y15543023D01*
X-21590000Y15637032D01*
X-22062614Y15543023D01*
X-22463277Y15275309D01*
X-22730991Y14874646D01*
X-22825000Y14402032D01*
X-22895000Y14402032D01*
X-22989009Y14874646D01*
X-23256723Y15275309D01*
X-23657386Y15543023D01*
X-24130000Y15637032D01*
X-24602614Y15543023D01*
X-25003277Y15275309D01*
X-25270991Y14874646D01*
X-25365000Y14402032D01*
X-25435000Y14402032D01*
X-25529009Y14874646D01*
X-25796723Y15275309D01*
X-26197386Y15543023D01*
X-26670000Y15637032D01*
X-27142614Y15543023D01*
X-27543277Y15275309D01*
X-27810991Y14874646D01*
X-27905000Y14402032D01*
X-27975000Y14402032D01*
X-28069009Y14874646D01*
X-28336723Y15275309D01*
X-28737386Y15543023D01*
X-29210000Y15637032D01*
X-29682614Y15543023D01*
X-30083277Y15275309D01*
X-30350991Y14874646D01*
X-30445000Y14402032D01*
X-30515000Y14402032D01*
X-30609009Y14874646D01*
X-30876723Y15275309D01*
X-31277386Y15543023D01*
X-31750000Y15637032D01*
X-32222614Y15543023D01*
X-32623277Y15275309D01*
X-32890991Y14874646D01*
X-32985000Y14402032D01*
X-33055000Y14402032D01*
X-33055000Y14497000D01*
X-33197610Y14959947D01*
X-33506526Y15333080D01*
X-33934719Y15559592D01*
X-33972391Y15563462D01*
X-34163000Y15438731D01*
X-34417000Y15438731D01*
X-34607609Y15563462D01*
X-34645281Y15559592D01*
X-35073474Y15333080D01*
X-35382390Y14959947D01*
X-35525000Y14497000D01*
X-35613890Y14497000D01*
X-35689009Y14874646D01*
X-35956723Y15275309D01*
X-36357386Y15543023D01*
X-36830000Y15637032D01*
X-37302614Y15543023D01*
X-37703277Y15275309D01*
X-37970991Y14874646D01*
X-38065000Y14402032D01*
X-38608000Y14402032D01*
X-38608000Y24492948D01*
X-35931977Y27168972D01*
X-35931974Y27168974D01*
X-35656673Y27580992D01*
X-35639028Y27669698D01*
X-35559999Y28067000D01*
X-35560000Y28067005D01*
X-35560000Y31750000D01*
X-35595000Y31925957D01*
X-35595000Y32182032D01*
X-35525000Y32182032D01*
X-35525000Y31317968D01*
X-35430991Y30845354D01*
X-35163277Y30444691D01*
X-34762614Y30176977D01*
X-34290000Y30082968D01*
X-33817386Y30176977D01*
X-33416723Y30444691D01*
X-33149009Y30845354D01*
X-33055000Y31317968D01*
X-33055000Y32182032D01*
X-32985000Y32182032D01*
X-32985000Y31317968D01*
X-32890991Y30845354D01*
X-32623277Y30444691D01*
X-32222614Y30176977D01*
X-31750000Y30082968D01*
X-31277386Y30176977D01*
X-30876723Y30444691D01*
X-30609009Y30845354D01*
X-30515000Y31317968D01*
X-30515000Y31623000D01*
X-30445000Y31623000D01*
X-30445000Y31223000D01*
X-30302390Y30760053D01*
X-29993474Y30386920D01*
X-29565281Y30160408D01*
X-29527609Y30156538D01*
X-29337000Y30281269D01*
X-29337000Y31623000D01*
X-30445000Y31623000D01*
X-30515000Y31623000D01*
X-30515000Y32182032D01*
X-30533890Y32277000D01*
X-30445000Y32277000D01*
X-30445000Y31877000D01*
X-29337000Y31877000D01*
X-29337000Y33218731D01*
X-29083000Y33218731D01*
X-29083000Y31877000D01*
X-29063000Y31877000D01*
X-29063000Y31623000D01*
X-29083000Y31623000D01*
X-29083000Y30281269D01*
X-28892391Y30156538D01*
X-28854719Y30160408D01*
X-28537679Y30328120D01*
X-28460855Y30213145D01*
X-14706600Y16458890D01*
X-14706600Y15366633D01*
X-14843277Y15275309D01*
X-15110991Y14874646D01*
X-15205000Y14402032D01*
X-15205000Y13537968D01*
X-15110991Y13065354D01*
X-14843277Y12664691D01*
X-14442614Y12396977D01*
X-13970000Y12302968D01*
X-13497386Y12396977D01*
X-13096723Y12664691D01*
X-12829009Y13065354D01*
X-12735000Y13537968D01*
X-12735000Y14402032D01*
X-12829009Y14874646D01*
X-13096723Y15275309D01*
X-13233400Y15366633D01*
X-13233400Y16764000D01*
X-13289470Y17045885D01*
X-13449145Y17284855D01*
X-26317396Y30153106D01*
X-26197386Y30176977D01*
X-25922058Y30360945D01*
X-25920855Y30359145D01*
X-11141320Y15579610D01*
X-11430000Y15637032D01*
X-11902614Y15543023D01*
X-12303277Y15275309D01*
X-12570991Y14874646D01*
X-12665000Y14402032D01*
X-12665000Y13537968D01*
X-12570991Y13065354D01*
X-12303277Y12664691D01*
X-11902614Y12396977D01*
X-11430000Y12302968D01*
X-10957386Y12396977D01*
X-10556723Y12664691D01*
X-10289009Y13065354D01*
X-10195000Y13537968D01*
X-10195000Y14402032D01*
X-10252422Y14690712D01*
X-10098246Y14536536D01*
X-10125000Y14402032D01*
X-10125000Y13537968D01*
X-10030991Y13065354D01*
X-9763277Y12664691D01*
X-9362614Y12396977D01*
X-8890000Y12302968D01*
X-8417386Y12396977D01*
X-8255000Y12505480D01*
X-8255000Y5987051D01*
X-9280026Y4962026D01*
X-9555327Y4550008D01*
X-9652001Y4064000D01*
X-9652000Y4063995D01*
X-9652000Y2850300D01*
X-12008695Y2850300D01*
X-12008700Y2850301D01*
X-12494708Y2753627D01*
X-12906726Y2478326D01*
X-13725026Y1660026D01*
X-14000327Y1248008D01*
X-14097001Y762000D01*
X-14000327Y275992D01*
X-13725026Y-136026D01*
X-13313008Y-411327D01*
X-12827000Y-508001D01*
X-12340992Y-411327D01*
X-11928974Y-136026D01*
X-11482648Y310300D01*
X-8222655Y310300D01*
X-8222650Y310299D01*
X-7736642Y406973D01*
X-7324624Y682274D01*
X-7049323Y1094292D01*
X-6952649Y1580300D01*
X-7049323Y2066308D01*
X-7112000Y2160111D01*
X-7112000Y3537948D01*
X-6086977Y4562972D01*
X-6086974Y4562974D01*
X-5811673Y4974992D01*
X-5715000Y5461000D01*
X-5715000Y9233070D01*
X-2814720Y9233070D01*
X-2692220Y9017000D01*
X-1397000Y9017000D01*
X-1397000Y10131128D01*
X-1616771Y10282577D01*
X-2137792Y10116771D01*
X-2555701Y9764200D01*
X-2806876Y9278540D01*
X-2814720Y9233070D01*
X-5715000Y9233070D01*
X-5715000Y14097000D01*
X-5811673Y14583008D01*
X-6086974Y14995026D01*
X-6498992Y15270327D01*
X-6985000Y15367000D01*
X-7471008Y15270327D01*
X-7845983Y15019778D01*
X-8016723Y15275309D01*
X-8417386Y15543023D01*
X-8890000Y15637032D01*
X-9077939Y15599649D01*
X-23656116Y30177826D01*
X-23256723Y30444691D01*
X-22989009Y30845354D01*
X-22895000Y31317968D01*
X-22895000Y31943290D01*
X-22825000Y32013290D01*
X-22825000Y31317968D01*
X-22730991Y30845354D01*
X-22463277Y30444691D01*
X-22062614Y30176977D01*
X-21590000Y30082968D01*
X-21117386Y30176977D01*
X-20716723Y30444691D01*
X-20449009Y30845354D01*
X-20355000Y31317968D01*
X-20355000Y31943290D01*
X-20285000Y32013290D01*
X-20285000Y31317968D01*
X-20190991Y30845354D01*
X-19923277Y30444691D01*
X-19522614Y30176977D01*
X-19050000Y30082968D01*
X-18577386Y30176977D01*
X-18176723Y30444691D01*
X-17909009Y30845354D01*
X-17815000Y31317968D01*
X-17815000Y31943290D01*
X-17745000Y32013290D01*
X-17745000Y31317968D01*
X-17650991Y30845354D01*
X-17383277Y30444691D01*
X-16982614Y30176977D01*
X-16510000Y30082968D01*
X-16037386Y30176977D01*
X-15636723Y30444691D01*
X-15369009Y30845354D01*
X-15275000Y31317968D01*
X-15275000Y32182032D01*
X-15205000Y32182032D01*
X-15205000Y31317968D01*
X-15110991Y30845354D01*
X-14843277Y30444691D01*
X-14706600Y30353367D01*
X-14706600Y25654000D01*
X-14650530Y25372115D01*
X-14490855Y25133145D01*
X482522Y10159768D01*
X60571Y9877828D01*
X-4158Y9780954D01*
X-402208Y10116771D01*
X-923229Y10282577D01*
X-1143000Y10131128D01*
X-1143000Y9017000D01*
X-1123000Y9017000D01*
X-1123000Y8763000D01*
X-1143000Y8763000D01*
X-1143000Y8743000D01*
X-1397000Y8743000D01*
X-1397000Y8763000D01*
X-2692220Y8763000D01*
X-2814720Y8546930D01*
X-2806876Y8501460D01*
X-2555701Y8015800D01*
X-2137792Y7663229D01*
X-2039328Y7631895D01*
X-2479429Y7337828D01*
X-2647295Y7086600D01*
X-2921000Y7086600D01*
X-3202885Y7030530D01*
X-3441855Y6870855D01*
X-4711855Y5600855D01*
X-4871530Y5361885D01*
X-4927600Y5080000D01*
X-4927600Y-61727D01*
X-5051821Y-185731D01*
X-5206824Y-559018D01*
X-5207176Y-963208D01*
X-5052825Y-1336766D01*
X-4767269Y-1622821D01*
X-4445093Y-1756601D01*
X-4445176Y-1852208D01*
X-4290825Y-2225766D01*
X-4005269Y-2511821D01*
X-3631982Y-2666824D01*
X-3227792Y-2667176D01*
X-2854234Y-2512825D01*
X-2568179Y-2227269D01*
X-2539397Y-2157955D01*
X-2137792Y-2496771D01*
X-2039328Y-2528105D01*
X-2479429Y-2822172D01*
X-2782261Y-3275391D01*
X-2888601Y-3810000D01*
X-2782261Y-4344609D01*
X-2479429Y-4797828D01*
X-2039328Y-5091895D01*
X-2137792Y-5123229D01*
X-2555701Y-5475800D01*
X-2806876Y-5961460D01*
X-2814720Y-6006930D01*
X-2692220Y-6223000D01*
X-1397000Y-6223000D01*
X-1397000Y-6203000D01*
X-1143000Y-6203000D01*
X-1143000Y-6223000D01*
X-1123000Y-6223000D01*
X-1123000Y-6477000D01*
X-1143000Y-6477000D01*
X-1143000Y-6497000D01*
X-1397000Y-6497000D01*
X-1397000Y-6477000D01*
X-2692220Y-6477000D01*
X-2814720Y-6693070D01*
X-2806876Y-6738540D01*
X-2555701Y-7224200D01*
X-2137792Y-7576771D01*
X-2039328Y-7608105D01*
X-2479429Y-7902172D01*
X-2782261Y-8355391D01*
X-2888601Y-8890000D01*
X-2782261Y-9424609D01*
X-2479429Y-9877828D01*
X-2026210Y-10180660D01*
X-1491601Y-10287000D01*
X-1048399Y-10287000D01*
X-513790Y-10180660D01*
X-222251Y-9985860D01*
X-146590Y-10103441D01*
X65610Y-10248431D01*
X317500Y-10299440D01*
X2222500Y-10299440D01*
X2457817Y-10255162D01*
X2673941Y-10116090D01*
X2818931Y-9903890D01*
X2869940Y-9652000D01*
X2869940Y-8128000D01*
X2825662Y-7892683D01*
X2686590Y-7676559D01*
X2474390Y-7531569D01*
X2255742Y-7487292D01*
X2479429Y-7337828D01*
X2782261Y-6884609D01*
X2888601Y-6350000D01*
X2782261Y-5815391D01*
X2479429Y-5362172D01*
X2057130Y-5080000D01*
X2479429Y-4797828D01*
X2782261Y-4344609D01*
X2888601Y-3810000D01*
X2782261Y-3275391D01*
X2479429Y-2822172D01*
X2057130Y-2540000D01*
X2479429Y-2257828D01*
X2782261Y-1804609D01*
X2888601Y-1270000D01*
X2782261Y-735391D01*
X2479429Y-282172D01*
X2057130Y0D01*
X2479429Y282172D01*
X2782261Y735391D01*
X2888601Y1270000D01*
X2782261Y1804609D01*
X2479429Y2257828D01*
X2057130Y2540000D01*
X2479429Y2822172D01*
X2782261Y3275391D01*
X2888601Y3810000D01*
X2782261Y4344609D01*
X2479429Y4797828D01*
X2057130Y5080000D01*
X2479429Y5362172D01*
X2782261Y5815391D01*
X2888601Y6350000D01*
X2782261Y6884609D01*
X2479429Y7337828D01*
X2057130Y7620000D01*
X2479429Y7902172D01*
X2782261Y8355391D01*
X2888601Y8890000D01*
X2782261Y9424609D01*
X2479429Y9877828D01*
X2026210Y10180660D01*
X2006600Y10184561D01*
X2006600Y10414000D01*
X1950530Y10695885D01*
X1790855Y10934855D01*
X-13233400Y25959110D01*
X-13233400Y30353367D01*
X-13096723Y30444691D01*
X-12829009Y30845354D01*
X-12735000Y31317968D01*
X-12735000Y32182032D01*
X-12665000Y32182032D01*
X-12665000Y31317968D01*
X-12570991Y30845354D01*
X-12303277Y30444691D01*
X-11902614Y30176977D01*
X-11430000Y30082968D01*
X-10957386Y30176977D01*
X-10556723Y30444691D01*
X-10289009Y30845354D01*
X-10195000Y31317968D01*
X-10195000Y32182032D01*
X-10289009Y32654646D01*
X-10556723Y33055309D01*
X-10957386Y33323023D01*
X-11430000Y33417032D01*
X-11902614Y33323023D01*
X-12303277Y33055309D01*
X-12570991Y32654646D01*
X-12665000Y32182032D01*
X-12735000Y32182032D01*
X-12829009Y32654646D01*
X-13096723Y33055309D01*
X-13497386Y33323023D01*
X-13970000Y33417032D01*
X-14442614Y33323023D01*
X-14843277Y33055309D01*
X-15110991Y32654646D01*
X-15205000Y32182032D01*
X-15275000Y32182032D01*
X-15369009Y32654646D01*
X-15636723Y33055309D01*
X-16037386Y33323023D01*
X-16369254Y33389036D01*
X-11911179Y37847111D01*
X-11430000Y37751399D01*
X-10895391Y37857739D01*
X-10442172Y38160571D01*
X-10160000Y38582870D01*
X-9877828Y38160571D01*
X-9626600Y37992705D01*
X-9626600Y33146633D01*
X-9763277Y33055309D01*
X-10030991Y32654646D01*
X-10125000Y32182032D01*
X-10125000Y31317968D01*
X-10030991Y30845354D01*
X-9763277Y30444691D01*
X-9362614Y30176977D01*
X-8890000Y30082968D01*
X-8417386Y30176977D01*
X-8016723Y30444691D01*
X-7749009Y30845354D01*
X-7655000Y31317968D01*
X-7655000Y32182032D01*
X-7749009Y32654646D01*
X-8016723Y33055309D01*
X-8153400Y33146633D01*
X-8153400Y37992705D01*
X-7902172Y38160571D01*
X-7599340Y38613790D01*
X-7493000Y39148399D01*
X-7493000Y39591601D01*
X-7599340Y40126210D01*
X-7794140Y40417749D01*
X-7676559Y40493410D01*
X-7531569Y40705610D01*
X-7480560Y40957500D01*
X-7480560Y42862500D01*
X-7492508Y42926000D01*
X-7130052Y42926000D01*
X-1270000Y37065949D01*
X-1270000Y25019005D01*
X-1270001Y25019000D01*
X-1173327Y24532992D01*
X-898026Y24120974D01*
X3810000Y19412948D01*
X3810000Y13208000D01*
X3906673Y12721992D01*
X4181974Y12309974D01*
X4593992Y12034673D01*
X5080000Y11938000D01*
X5566008Y12034673D01*
X5978026Y12309974D01*
X6253327Y12721992D01*
X6350000Y13208000D01*
X6350000Y19938995D01*
X6350001Y19939000D01*
X6253327Y20425008D01*
X5978026Y20837026D01*
X1270000Y25545052D01*
X1270000Y37592000D01*
X1173327Y38078008D01*
X898026Y38490026D01*
X898023Y38490028D01*
X-5705974Y45094026D01*
X-5935926Y45247675D01*
X1424587Y45247675D01*
X1786916Y44370771D01*
X2457242Y43699274D01*
X3333513Y43335415D01*
X4282325Y43334587D01*
X5159229Y43696916D01*
X5830726Y44367242D01*
X6194585Y45243513D01*
X6195413Y46192325D01*
X5833084Y47069229D01*
X5162758Y47740726D01*
X4286487Y48104585D01*
X3337675Y48105413D01*
X2460771Y47743084D01*
X1789274Y47072758D01*
X1425415Y46196487D01*
X1424587Y45247675D01*
X-5935926Y45247675D01*
X-6117992Y45369327D01*
X-6604000Y45466001D01*
X-6604005Y45466000D01*
X-10287000Y45466000D01*
X-10773008Y45369327D01*
X-11185026Y45094026D01*
X-12328026Y43951026D01*
X-12603327Y43539008D01*
X-12700001Y43053000D01*
X-12700000Y43052995D01*
X-12700000Y42697130D01*
X-12711895Y42679328D01*
X-12743229Y42777792D01*
X-13095800Y43195701D01*
X-13581460Y43446876D01*
X-13626930Y43454720D01*
X-13843000Y43332220D01*
X-13843000Y42037000D01*
X-13823000Y42037000D01*
X-13823000Y41783000D01*
X-13843000Y41783000D01*
X-13843000Y41763000D01*
X-14097000Y41763000D01*
X-14097000Y41783000D01*
X-15211128Y41783000D01*
X-15240000Y41741103D01*
X-15268872Y41783000D01*
X-16383000Y41783000D01*
X-16383000Y41763000D01*
X-16637000Y41763000D01*
X-16637000Y41783000D01*
X-17751128Y41783000D01*
X-17780000Y41741103D01*
X-17808872Y41783000D01*
X-18923000Y41783000D01*
X-18923000Y41763000D01*
X-19177000Y41763000D01*
X-19177000Y41783000D01*
X-20291128Y41783000D01*
X-20320000Y41741103D01*
X-20348872Y41783000D01*
X-21463000Y41783000D01*
X-21463000Y41763000D01*
X-21717000Y41763000D01*
X-21717000Y41783000D01*
X-22831128Y41783000D01*
X-22982577Y41563229D01*
X-22816771Y41042208D01*
X-22480954Y40644158D01*
X-22577828Y40579429D01*
X-22880660Y40126210D01*
X-22904700Y40005351D01*
X-23076055Y39890855D01*
X-28460855Y34506055D01*
X-28620530Y34267085D01*
X-28676600Y33985200D01*
X-28676600Y33245368D01*
X-28854719Y33339592D01*
X-28892391Y33343462D01*
X-29083000Y33218731D01*
X-29337000Y33218731D01*
X-29527609Y33343462D01*
X-29565281Y33339592D01*
X-29993474Y33113080D01*
X-30302390Y32739947D01*
X-30445000Y32277000D01*
X-30533890Y32277000D01*
X-30609009Y32654646D01*
X-30876723Y33055309D01*
X-31277386Y33323023D01*
X-31750000Y33417032D01*
X-32222614Y33323023D01*
X-32623277Y33055309D01*
X-32890991Y32654646D01*
X-32985000Y32182032D01*
X-33055000Y32182032D01*
X-33149009Y32654646D01*
X-33416723Y33055309D01*
X-33817386Y33323023D01*
X-34290000Y33417032D01*
X-34762614Y33323023D01*
X-35163277Y33055309D01*
X-35430991Y32654646D01*
X-35525000Y32182032D01*
X-35595000Y32182032D01*
X-35689009Y32654646D01*
X-35956723Y33055309D01*
X-36357386Y33323023D01*
X-36830000Y33417032D01*
X-37302614Y33323023D01*
X-37703277Y33055309D01*
X-37970991Y32654646D01*
X-38065000Y32182032D01*
X-38065000Y31925957D01*
X-38100000Y31750000D01*
X-38100000Y28593051D01*
X-40522026Y26171026D01*
X-40522028Y26171023D01*
X-40776026Y25917026D01*
X-41051327Y25505008D01*
X-41148001Y25019000D01*
X-47145000Y25019000D01*
X-47145000Y25524250D01*
X-47303750Y25683000D01*
X-49403000Y25683000D01*
X-49657000Y25683000D01*
X-51756250Y25683000D01*
X-51915000Y25524250D01*
X-57658000Y25524250D01*
X-57658000Y27436309D01*
X-51915000Y27436309D01*
X-51915000Y26095750D01*
X-51756250Y25937000D01*
X-49657000Y25937000D01*
X-49657000Y27786250D01*
X-49659654Y27788904D01*
X-49657000Y27790101D01*
X-49657000Y29643000D01*
X-49403000Y29643000D01*
X-49403000Y27790101D01*
X-49400346Y27788904D01*
X-49403000Y27786250D01*
X-49403000Y25937000D01*
X-47303750Y25937000D01*
X-47145000Y26095750D01*
X-47145000Y27436309D01*
X-47241673Y27669698D01*
X-47420301Y27848327D01*
X-47653690Y27945000D01*
X-48191181Y27945000D01*
X-47622095Y28413425D01*
X-47229157Y29151141D01*
X-47194887Y29311167D01*
X-47307835Y29643000D01*
X-49403000Y29643000D01*
X-49657000Y29643000D01*
X-51752165Y29643000D01*
X-51865113Y29311167D01*
X-51830843Y29151141D01*
X-51437905Y28413425D01*
X-50868819Y27945000D01*
X-51406310Y27945000D01*
X-51639699Y27848327D01*
X-51818327Y27669698D01*
X-51915000Y27436309D01*
X-57658000Y27436309D01*
X-57658000Y37690000D01*
X-51961725Y37690000D01*
X-51799208Y36872971D01*
X-51336398Y36180327D01*
X-50643754Y35717517D01*
X-50605963Y35710000D01*
X-50643754Y35702483D01*
X-51336398Y35239673D01*
X-51799208Y34547029D01*
X-51961725Y33730000D01*
X-51799208Y32912971D01*
X-51336398Y32220327D01*
X-50643754Y31757517D01*
X-50535837Y31736051D01*
X-50792566Y31657765D01*
X-51437905Y31126575D01*
X-51830843Y30388859D01*
X-51865113Y30228833D01*
X-51752165Y29897000D01*
X-49657000Y29897000D01*
X-49657000Y29917000D01*
X-49403000Y29917000D01*
X-49403000Y29897000D01*
X-47307835Y29897000D01*
X-47194887Y30228833D01*
X-47229157Y30388859D01*
X-47622095Y31126575D01*
X-48267434Y31657765D01*
X-48524163Y31736051D01*
X-48416246Y31757517D01*
X-47723602Y32220327D01*
X-47260792Y32912971D01*
X-47098275Y33730000D01*
X-47260792Y34547029D01*
X-47723602Y35239673D01*
X-48416246Y35702483D01*
X-48454037Y35710000D01*
X-48416246Y35717517D01*
X-47723602Y36180327D01*
X-47260792Y36872971D01*
X-47098275Y37690000D01*
X-47260792Y38507029D01*
X-47723602Y39199673D01*
X-48416246Y39662483D01*
X-49233275Y39825000D01*
X-49826725Y39825000D01*
X-50643754Y39662483D01*
X-51336398Y39199673D01*
X-51799208Y38507029D01*
X-51961725Y37690000D01*
X-57658000Y37690000D01*
X-57658000Y42256771D01*
X-22982577Y42256771D01*
X-22831128Y42037000D01*
X-21717000Y42037000D01*
X-21717000Y43332220D01*
X-21463000Y43332220D01*
X-21463000Y42037000D01*
X-20348872Y42037000D01*
X-20320000Y42078897D01*
X-20291128Y42037000D01*
X-19177000Y42037000D01*
X-19177000Y43332220D01*
X-18923000Y43332220D01*
X-18923000Y42037000D01*
X-17808872Y42037000D01*
X-17780000Y42078897D01*
X-17751128Y42037000D01*
X-16637000Y42037000D01*
X-16637000Y43332220D01*
X-16383000Y43332220D01*
X-16383000Y42037000D01*
X-15268872Y42037000D01*
X-15240000Y42078897D01*
X-15211128Y42037000D01*
X-14097000Y42037000D01*
X-14097000Y43332220D01*
X-14313070Y43454720D01*
X-14358540Y43446876D01*
X-14844200Y43195701D01*
X-15196771Y42777792D01*
X-15240000Y42641951D01*
X-15283229Y42777792D01*
X-15635800Y43195701D01*
X-16121460Y43446876D01*
X-16166930Y43454720D01*
X-16383000Y43332220D01*
X-16637000Y43332220D01*
X-16853070Y43454720D01*
X-16898540Y43446876D01*
X-17384200Y43195701D01*
X-17736771Y42777792D01*
X-17780000Y42641951D01*
X-17823229Y42777792D01*
X-18175800Y43195701D01*
X-18661460Y43446876D01*
X-18706930Y43454720D01*
X-18923000Y43332220D01*
X-19177000Y43332220D01*
X-19393070Y43454720D01*
X-19438540Y43446876D01*
X-19924200Y43195701D01*
X-20276771Y42777792D01*
X-20320000Y42641951D01*
X-20363229Y42777792D01*
X-20715800Y43195701D01*
X-21201460Y43446876D01*
X-21246930Y43454720D01*
X-21463000Y43332220D01*
X-21717000Y43332220D01*
X-21933070Y43454720D01*
X-21978540Y43446876D01*
X-22464200Y43195701D01*
X-22816771Y42777792D01*
X-22982577Y42256771D01*
X-57658000Y42256771D01*
X-57658000Y45247675D01*
X-55725413Y45247675D01*
X-55363084Y44370771D01*
X-54692758Y43699274D01*
X-53816487Y43335415D01*
X-52867675Y43334587D01*
X-51990771Y43696916D01*
X-51319274Y44367242D01*
X-50955415Y45243513D01*
X-50954587Y46192325D01*
X-51316916Y47069229D01*
X-51987242Y47740726D01*
X-52863513Y48104585D01*
X-53812325Y48105413D01*
X-54689229Y47743084D01*
X-55360726Y47072758D01*
X-55724585Y46196487D01*
X-55725413Y45247675D01*
X-57658000Y45247675D01*
X-57658000Y50038000D01*
X8128000Y50038000D01*
X8128000Y-32258000D01*
G36*
X60571Y-4797828D02*
X482870Y-5080000D01*
X60571Y-5362172D01*
X-4158Y-5459046D01*
X-402208Y-5123229D01*
X-500672Y-5091895D01*
X-60571Y-4797828D01*
X0Y-4707177D01*
X60571Y-4797828D01*
X60571Y-4797828D01*
G37*
X60571Y-4797828D02*
X482870Y-5080000D01*
X60571Y-5362172D01*
X-4158Y-5459046D01*
X-402208Y-5123229D01*
X-500672Y-5091895D01*
X-60571Y-4797828D01*
X0Y-4707177D01*
X60571Y-4797828D01*
G36*
X60571Y-2257828D02*
X482870Y-2540000D01*
X60571Y-2822172D01*
X0Y-2912823D01*
X-60571Y-2822172D01*
X-500672Y-2528105D01*
X-402208Y-2496771D01*
X-4158Y-2160954D01*
X60571Y-2257828D01*
X60571Y-2257828D01*
G37*
X60571Y-2257828D02*
X482870Y-2540000D01*
X60571Y-2822172D01*
X0Y-2912823D01*
X-60571Y-2822172D01*
X-500672Y-2528105D01*
X-402208Y-2496771D01*
X-4158Y-2160954D01*
X60571Y-2257828D01*
G36*
X-1143000Y-1143000D02*
X-1123000Y-1143000D01*
X-1123000Y-1397000D01*
X-1143000Y-1397000D01*
X-1143000Y-1417000D01*
X-1397000Y-1417000D01*
X-1397000Y-1397000D01*
X-1417000Y-1397000D01*
X-1417000Y-1143000D01*
X-1397000Y-1143000D01*
X-1397000Y-1123000D01*
X-1143000Y-1123000D01*
X-1143000Y-1143000D01*
X-1143000Y-1143000D01*
G37*
X-1143000Y-1143000D02*
X-1123000Y-1143000D01*
X-1123000Y-1397000D01*
X-1143000Y-1397000D01*
X-1143000Y-1417000D01*
X-1397000Y-1417000D01*
X-1397000Y-1397000D01*
X-1417000Y-1397000D01*
X-1417000Y-1143000D01*
X-1397000Y-1143000D01*
X-1397000Y-1123000D01*
X-1143000Y-1123000D01*
X-1143000Y-1143000D01*
G36*
X60571Y282172D02*
X482870Y0D01*
X60571Y-282172D01*
X-4158Y-379046D01*
X-402208Y-43229D01*
X-500672Y-11895D01*
X-60571Y282172D01*
X0Y372823D01*
X60571Y282172D01*
X60571Y282172D01*
G37*
X60571Y282172D02*
X482870Y0D01*
X60571Y-282172D01*
X-4158Y-379046D01*
X-402208Y-43229D01*
X-500672Y-11895D01*
X-60571Y282172D01*
X0Y372823D01*
X60571Y282172D01*
M02*
