G04 #@! TF.FileFunction,Copper,L1,Top,Signal*
%FSLAX46Y46*%
G04 Gerber Fmt 4.6, Leading zero omitted, Abs format (unit mm)*
G04 Created by KiCad (PCBNEW 4.0.1-stable) date 7/4/2016 23:44:38*
%MOMM*%
G01*
G04 APERTURE LIST*
%ADD10C,0.254000*%
%ADD11O,2.000000X1.200000*%
%ADD12R,3.175000X1.270000*%
%ADD13R,1.778000X1.778000*%
%ADD14R,1.143000X1.143000*%
%ADD15R,1.524000X1.778000*%
%ADD16R,3.599180X1.600200*%
%ADD17R,1.250000X1.000000*%
%ADD18R,0.750000X0.800000*%
%ADD19R,0.800000X0.750000*%
%ADD20R,0.900000X1.100000*%
%ADD21R,0.900000X0.900000*%
%ADD22R,4.000000X4.000000*%
%ADD23C,2.540000*%
%ADD24C,3.810000*%
%ADD25R,0.700000X1.300000*%
%ADD26R,0.500000X0.900000*%
%ADD27O,0.540000X1.900000*%
%ADD28O,1.900000X0.540000*%
%ADD29R,0.800000X1.800000*%
%ADD30R,1.727200X2.032000*%
%ADD31O,1.727200X2.032000*%
%ADD32O,1.905000X1.524000*%
%ADD33R,1.905000X1.524000*%
%ADD34C,7.000000*%
%ADD35C,0.600000*%
%ADD36C,0.762000*%
%ADD37C,0.203200*%
%ADD38C,0.406400*%
%ADD39C,1.270000*%
%ADD40C,0.508000*%
G04 APERTURE END LIST*
D10*
D11*
X-44578544Y-11251338D03*
X-26798544Y-11251338D03*
X-44578544Y-8711338D03*
X-26798544Y-8711338D03*
X-44578544Y-6171338D03*
X-26798544Y-6171338D03*
X-44578544Y-3631338D03*
X-26798544Y-3631338D03*
X-44578544Y-1091338D03*
X-26798544Y-1091338D03*
X-44578544Y1448662D03*
X-26798544Y1448662D03*
X-44578544Y3988662D03*
X-26798544Y3988662D03*
X-44578544Y6528662D03*
X-26798544Y6528662D03*
X-44578544Y9068662D03*
X-26798544Y9068662D03*
X-44578544Y11608662D03*
X-26798544Y11608662D03*
X-44578544Y14148662D03*
X-26798544Y14148662D03*
X-44578544Y16688662D03*
X-26798544Y16688662D03*
D12*
X-24893544Y-11251338D03*
X-24893544Y-8711338D03*
X-24893544Y-6171338D03*
X-24893544Y-3631338D03*
X-24893544Y-1091338D03*
X-24893544Y1448662D03*
X-24893544Y3988662D03*
X-24893544Y6528662D03*
X-24893544Y9068662D03*
X-24893544Y11608662D03*
X-24893544Y14148662D03*
X-24893544Y16688662D03*
X-46483544Y16688662D03*
X-46483544Y14148662D03*
X-46483544Y11608662D03*
X-46483544Y9068662D03*
X-46483544Y6528662D03*
X-46483544Y3988662D03*
X-46483544Y1448662D03*
X-46483544Y-1091338D03*
X-46483544Y-3631338D03*
X-46483544Y-6171338D03*
X-46483544Y-8711338D03*
X-46483544Y-11251338D03*
D13*
X-29338544Y-11251338D03*
X-29338544Y-3631338D03*
D14*
X-29338544Y6528662D03*
X-42038544Y-8711338D03*
X-42038544Y-11251338D03*
D15*
X-36704544Y-14045338D03*
X-34672544Y-14045338D03*
D16*
X-16720820Y-10160000D03*
X-11219180Y-10160000D03*
X-16720820Y-17780000D03*
X-11219180Y-17780000D03*
D17*
X-21590000Y-11160000D03*
X-21590000Y-9160000D03*
D18*
X-12700000Y-3060000D03*
X-12700000Y-4560000D03*
X-7620000Y-3060000D03*
X-7620000Y-4560000D03*
D19*
X-44970000Y24765000D03*
X-46470000Y24765000D03*
D18*
X-12700000Y13220000D03*
X-12700000Y14720000D03*
X-16510000Y13220000D03*
X-16510000Y14720000D03*
D20*
X-43250000Y-17780000D03*
D21*
X-45650000Y-17780000D03*
D22*
X-52070000Y-16510000D03*
X-58670000Y-16510000D03*
X-55420000Y-11811000D03*
D23*
X-62230000Y22860000D03*
D24*
X-52070000Y22860000D03*
D23*
X-62230000Y13970000D03*
D24*
X-52070000Y13970000D03*
D23*
X-62230000Y5080000D03*
D24*
X-52070000Y5080000D03*
D23*
X-62230000Y-3810000D03*
D24*
X-52070000Y-3810000D03*
D25*
X-29530000Y24130000D03*
X-31430000Y24130000D03*
D26*
X-46470000Y22860000D03*
X-44970000Y22860000D03*
X-27420000Y24130000D03*
X-25920000Y24130000D03*
D27*
X-16700000Y-620000D03*
X-15900000Y-620000D03*
X-15100000Y-620000D03*
X-14300000Y-620000D03*
X-13500000Y-620000D03*
X-12700000Y-620000D03*
X-11900000Y-620000D03*
X-11100000Y-620000D03*
X-10300000Y-620000D03*
X-9500000Y-620000D03*
X-8700000Y-620000D03*
D28*
X-7000000Y1080000D03*
X-7000000Y1880000D03*
X-7000000Y2680000D03*
X-7000000Y3480000D03*
X-7000000Y4280000D03*
X-7000000Y5080000D03*
X-7000000Y5880000D03*
X-7000000Y6680000D03*
X-7000000Y7480000D03*
X-7000000Y8280000D03*
X-7000000Y9080000D03*
D27*
X-8700000Y10780000D03*
X-9500000Y10780000D03*
X-10300000Y10780000D03*
X-11100000Y10780000D03*
X-11900000Y10780000D03*
X-12700000Y10780000D03*
X-13500000Y10780000D03*
X-14300000Y10780000D03*
X-15100000Y10780000D03*
X-15900000Y10780000D03*
X-16700000Y10780000D03*
D28*
X-18400000Y9080000D03*
X-18400000Y8280000D03*
X-18400000Y7480000D03*
X-18400000Y6680000D03*
X-18400000Y5880000D03*
X-18400000Y5080000D03*
X-18400000Y4280000D03*
X-18400000Y3480000D03*
X-18400000Y2680000D03*
X-18400000Y1880000D03*
X-18400000Y1080000D03*
D29*
X-41275000Y24800000D03*
X-40005000Y24800000D03*
X-38735000Y24800000D03*
X-37465000Y24800000D03*
D30*
X-6350000Y24130000D03*
D31*
X-8890000Y24130000D03*
X-11430000Y24130000D03*
X-13970000Y24130000D03*
X-16510000Y24130000D03*
X-19050000Y24130000D03*
D30*
X-6350000Y20320000D03*
D31*
X-8890000Y20320000D03*
X-11430000Y20320000D03*
X-13970000Y20320000D03*
X-16510000Y20320000D03*
X-19050000Y20320000D03*
D32*
X-1270000Y8890000D03*
X1270000Y8890000D03*
X-1270000Y6350000D03*
X1270000Y6350000D03*
X-1270000Y3810000D03*
X1270000Y3810000D03*
X-1270000Y1270000D03*
X1270000Y1270000D03*
X-1270000Y-1270000D03*
X1270000Y-1270000D03*
X-1270000Y-3810000D03*
X1270000Y-3810000D03*
X-1270000Y-6350000D03*
X1270000Y-6350000D03*
X-1270000Y-8890000D03*
D33*
X1270000Y-8890000D03*
D34*
X0Y22860000D03*
D35*
X2625000Y22860000D03*
X1856155Y21003845D03*
X0Y20235000D03*
X-1856155Y21003845D03*
X-2625000Y22860000D03*
X-1856155Y24716155D03*
X0Y25485000D03*
X1856155Y24716155D03*
D34*
X85000Y-17780000D03*
D35*
X2710000Y-17780000D03*
X1941155Y-19636155D03*
X85000Y-20405000D03*
X-1771155Y-19636155D03*
X-2540000Y-17780000D03*
X-1771155Y-15923845D03*
X85000Y-15155000D03*
X1941155Y-15923845D03*
D36*
X-24638000Y24130000D03*
X-30988000Y18796000D03*
X-30988000Y17907000D03*
X-30988000Y17018000D03*
X-30988000Y16129000D03*
X-30988000Y15240000D03*
X-30099000Y15240000D03*
X-30099000Y16129000D03*
X-30099000Y17018000D03*
X-30099000Y17907000D03*
X-39116000Y8636000D03*
X-39370000Y15367000D03*
X-40005000Y14732000D03*
X-40640000Y14097000D03*
X-41275000Y13462000D03*
X-41910000Y14097000D03*
X-41275000Y14732000D03*
X-40640000Y15367000D03*
X-40005000Y16002000D03*
X-39370000Y16637000D03*
X-38735000Y17272000D03*
X-38100000Y17907000D03*
X-34036000Y18796000D03*
X-30099000Y18796000D03*
X-26797000Y18796000D03*
X-27686000Y18796000D03*
X-16256000Y18034000D03*
X-46992221Y25577780D03*
X-13538220Y1159632D03*
X-11861780Y9325376D03*
X-41275000Y23266420D03*
X-37465000Y23241000D03*
X-18415000Y10033000D03*
X-6985000Y127000D03*
X-17653000Y14732000D03*
X-11557000Y14732000D03*
X-8763000Y-11049000D03*
X-8763000Y-9271000D03*
X-8763000Y-18669000D03*
X-8763000Y-16891000D03*
X-8763000Y-17780000D03*
X-8763000Y-10160000D03*
X-11557000Y-4572000D03*
X-8763000Y-4572000D03*
X-11074370Y8001000D03*
X-22225000Y2667000D03*
X-35560000Y19812000D03*
X-15748000Y-5080000D03*
X-9525000Y1143000D03*
X-36449000Y20320000D03*
X-36957000Y21209000D03*
X-21590000Y3937000D03*
X-15875000Y9144000D03*
X-35208837Y21590033D03*
X-8636000Y3048000D03*
X-15113000Y-5842000D03*
X-29083000Y21971000D03*
D37*
X-26798544Y1448662D02*
X-24893544Y1448662D01*
X-44578544Y16688662D02*
X-46483544Y16688662D01*
D38*
X-25920000Y24130000D02*
X-24638000Y24130000D01*
X-23018400Y-8763000D02*
X-24841882Y-8763000D01*
X-24841882Y-8763000D02*
X-24893544Y-8711338D01*
X-21590000Y-9160000D02*
X-22621400Y-9160000D01*
X-22621400Y-9160000D02*
X-23018400Y-8763000D01*
X-30988000Y17018000D02*
X-30988000Y17907000D01*
X-30988000Y15240000D02*
X-30988000Y16129000D01*
X-30099000Y16129000D02*
X-30099000Y15240000D01*
X-30099000Y17907000D02*
X-30099000Y17018000D01*
X-41275000Y13462000D02*
X-41275000Y10795000D01*
X-41275000Y10795000D02*
X-39116000Y8636000D01*
X-40005000Y14732000D02*
X-39370000Y15367000D01*
X-41275000Y13462000D02*
X-40640000Y14097000D01*
X-41275000Y14732000D02*
X-41910000Y14097000D01*
X-40005000Y16002000D02*
X-40640000Y15367000D01*
X-38735000Y17272000D02*
X-39370000Y16637000D01*
X-34036000Y18796000D02*
X-37211000Y18796000D01*
X-37211000Y18796000D02*
X-38100000Y17907000D01*
X-27686000Y18796000D02*
X-30099000Y18796000D01*
X-21844000Y18796000D02*
X-27686000Y18796000D01*
X-19050000Y20320000D02*
X-20320000Y20320000D01*
X-20320000Y20320000D02*
X-21844000Y18796000D01*
X-16510000Y14720000D02*
X-16510000Y17780000D01*
X-16510000Y17780000D02*
X-16256000Y18034000D01*
X-46483544Y-3631338D02*
X-44578544Y-3631338D01*
X-26798544Y-8711338D02*
X-24893544Y-8711338D01*
X-46501380Y25577780D02*
X-46992221Y25577780D01*
X-46470000Y25546400D02*
X-46501380Y25577780D01*
X-46470000Y24765000D02*
X-46470000Y25546400D01*
X-11900000Y10780000D02*
X-11900000Y9363596D01*
X-13500000Y-620000D02*
X-13500000Y1121412D01*
X-11900000Y9363596D02*
X-11861780Y9325376D01*
X-13500000Y1121412D02*
X-13538220Y1159632D01*
X-41275000Y24800000D02*
X-41275000Y23266420D01*
X-37465000Y24800000D02*
X-37465000Y23241000D01*
X-18400000Y9080000D02*
X-18400000Y10018000D01*
X-18400000Y10018000D02*
X-18415000Y10033000D01*
X-7000000Y1080000D02*
X-7000000Y142000D01*
X-7000000Y142000D02*
X-6985000Y127000D01*
X-16510000Y14720000D02*
X-17641000Y14720000D01*
X-17641000Y14720000D02*
X-17653000Y14732000D01*
X-12700000Y14720000D02*
X-11569000Y14720000D01*
X-11569000Y14720000D02*
X-11557000Y14732000D01*
X-8763000Y-10160000D02*
X-8763000Y-9271000D01*
X-8763000Y-17780000D02*
X-8763000Y-18669000D01*
X-8763000Y-17780000D02*
X-8763000Y-16891000D01*
X-11219180Y-17780000D02*
X-8763000Y-17780000D01*
X-11219180Y-10160000D02*
X-8763000Y-10160000D01*
X-11906600Y-4572000D02*
X-11557000Y-4572000D01*
X-12700000Y-4560000D02*
X-11918600Y-4560000D01*
X-11918600Y-4560000D02*
X-11906600Y-4572000D01*
X-7620000Y-4560000D02*
X-8751000Y-4560000D01*
X-8751000Y-4560000D02*
X-8763000Y-4572000D01*
D39*
X-49911000Y-10681382D02*
X-49911000Y-9792382D01*
X-49911000Y-9792382D02*
X-49326799Y-9208181D01*
X-46483544Y-11251338D02*
X-49341044Y-11251338D01*
X-49341044Y-11251338D02*
X-49911000Y-10681382D01*
D40*
X-16226540Y8255000D02*
X-12700000Y8255000D01*
X-16713202Y9308798D02*
X-16713202Y8741662D01*
X-16700000Y9322000D02*
X-16713202Y9308798D01*
X-16700000Y10780000D02*
X-16700000Y9322000D01*
X-16713202Y8741662D02*
X-16226540Y8255000D01*
D38*
X-44578544Y-11251338D02*
X-46483544Y-11251338D01*
D40*
X-9427460Y2286000D02*
X-12700000Y2286000D01*
X-8686798Y851202D02*
X-8686798Y1545338D01*
X-8686798Y1545338D02*
X-9427460Y2286000D01*
X-8700000Y838000D02*
X-8686798Y851202D01*
X-8700000Y-620000D02*
X-8700000Y838000D01*
D39*
X-12700000Y13220000D02*
X-11055000Y13220000D01*
X-11055000Y13220000D02*
X-6350000Y17925000D01*
X-6350000Y17925000D02*
X-6350000Y18034000D01*
X-6350000Y18034000D02*
X-6350000Y20320000D01*
X-6731000Y26797000D02*
X-31496000Y26797000D01*
X-31496000Y26797000D02*
X-48514000Y26797000D01*
X-31430000Y24130000D02*
X-31430000Y26050000D01*
X-31430000Y26050000D02*
X-31496000Y26116000D01*
X-31496000Y26116000D02*
X-31496000Y26797000D01*
X-49326799Y25984201D02*
X-49326799Y23114000D01*
X-49326799Y23114000D02*
X-49326799Y21523201D01*
X-47990000Y22860000D02*
X-49072799Y22860000D01*
X-49072799Y22860000D02*
X-49326799Y23114000D01*
X-48514000Y26797000D02*
X-49326799Y25984201D01*
X-6350000Y24130000D02*
X-6350000Y26416000D01*
X-6350000Y26416000D02*
X-6731000Y26797000D01*
X-6350000Y24130000D02*
X-6350000Y20320000D01*
D40*
X-12700000Y-620000D02*
X-12700000Y2286000D01*
X-12700000Y8255000D02*
X-12700000Y10780000D01*
D39*
X-12700000Y2286000D02*
X-12700000Y8255000D01*
X-46483544Y-11251338D02*
X-47436044Y-11251338D01*
X-49326799Y-9208181D02*
X-49326799Y21523201D01*
X-49403000Y-9284382D02*
X-49326799Y-9208181D01*
X-47990000Y22860000D02*
X-46470000Y22860000D01*
D38*
X-16700000Y10780000D02*
X-16700000Y13030000D01*
X-16700000Y13030000D02*
X-16510000Y13220000D01*
X-12700000Y10780000D02*
X-12700000Y13220000D01*
X-12700000Y-3060000D02*
X-12700000Y-620000D01*
X-8700000Y-620000D02*
X-8700000Y-1905000D01*
X-7620000Y-3060000D02*
X-7620000Y-3035000D01*
X-7620000Y-3035000D02*
X-8700000Y-1955000D01*
X-8700000Y-1955000D02*
X-8700000Y-1905000D01*
D37*
X-26798544Y11608662D02*
X-24893544Y11608662D01*
X1079500Y-8890000D02*
X1270000Y-8890000D01*
X-317500Y-10287000D02*
X1079500Y-8890000D01*
X-6610501Y-10287000D02*
X-317500Y-10287000D01*
X-10293501Y-6604000D02*
X-6610501Y-10287000D01*
X-13336012Y-6604000D02*
X-10293501Y-6604000D01*
X-15100000Y-4840012D02*
X-13336012Y-6604000D01*
X-15100000Y-620000D02*
X-15100000Y-4840012D01*
X-9652000Y8001000D02*
X-11074370Y8001000D01*
X-7366000Y10287000D02*
X-9652000Y8001000D01*
X-5969000Y10287000D02*
X-317500Y10287000D01*
X-7285904Y10287000D02*
X-5969000Y10287000D01*
X-5969000Y10287000D02*
X-7366000Y10287000D01*
X-317500Y10287000D02*
X1079500Y8890000D01*
X1079500Y8890000D02*
X1270000Y8890000D01*
X-34433682Y2667000D02*
X-22225000Y2667000D01*
X-44578544Y11608662D02*
X-43375344Y11608662D01*
X-43375344Y11608662D02*
X-34433682Y2667000D01*
X-44578544Y11608662D02*
X-46483544Y11608662D01*
X-14300000Y-1773200D02*
X-14300000Y-620000D01*
X-10480750Y-5842000D02*
X-13462000Y-5842000D01*
X-14300000Y-5004000D02*
X-14300000Y-1773200D01*
X-7432750Y-8890000D02*
X-10480750Y-5842000D01*
X-1270000Y-8890000D02*
X-7432750Y-8890000D01*
X-13462000Y-5842000D02*
X-14300000Y-5004000D01*
X-4686000Y7480000D02*
X-3556000Y6350000D01*
X-3556000Y6350000D02*
X-1270000Y6350000D01*
X-7000000Y7480000D02*
X-4686000Y7480000D01*
X1270000Y-6350000D02*
X1079500Y-6350000D01*
X-10668000Y-3683000D02*
X-11900000Y-2451000D01*
X1079500Y-6350000D02*
X-190500Y-7620000D01*
X-8128000Y-7620000D02*
X-10668000Y-5080000D01*
X-10668000Y-5080000D02*
X-10668000Y-3683000D01*
X-190500Y-7620000D02*
X-8128000Y-7620000D01*
X-11900000Y-2451000D02*
X-11900000Y-620000D01*
X-4246800Y5080000D02*
X-190500Y5080000D01*
X-190500Y5080000D02*
X1079500Y6350000D01*
X1079500Y6350000D02*
X1270000Y6350000D01*
X-7000000Y6680000D02*
X-5846800Y6680000D01*
X-5846800Y6680000D02*
X-4246800Y5080000D01*
X-3776800Y3810000D02*
X-5846800Y5880000D01*
X-1270000Y3810000D02*
X-3776800Y3810000D01*
X-5846800Y5880000D02*
X-7000000Y5880000D01*
X1079500Y-3810000D02*
X1270000Y-3810000D01*
X-190500Y-5080000D02*
X1079500Y-3810000D01*
X-2794000Y-5080000D02*
X-190500Y-5080000D01*
X-4318000Y-6604000D02*
X-2794000Y-5080000D01*
X-10160000Y-2733750D02*
X-10160000Y-4826000D01*
X-8382000Y-6604000D02*
X-4318000Y-6604000D01*
X-11100000Y-1793750D02*
X-10160000Y-2733750D01*
X-11100000Y-620000D02*
X-11100000Y-1793750D01*
X-10160000Y-4826000D02*
X-8382000Y-6604000D01*
X-4106800Y2540000D02*
X-190500Y2540000D01*
X-190500Y2540000D02*
X1079500Y3810000D01*
X1079500Y3810000D02*
X1270000Y3810000D01*
X-5846800Y4280000D02*
X-4106800Y2540000D01*
X-7000000Y4280000D02*
X-5846800Y4280000D01*
X-9652000Y-2667000D02*
X-10300000Y-2019000D01*
X-10300000Y-2019000D02*
X-10300000Y-620000D01*
X-9652000Y-4699000D02*
X-9652000Y-2667000D01*
X-8255000Y-6096000D02*
X-9652000Y-4699000D01*
X-4711700Y-6096000D02*
X-8255000Y-6096000D01*
X-1270000Y-3810000D02*
X-2425700Y-3810000D01*
X-2425700Y-3810000D02*
X-4711700Y-6096000D01*
X-3636800Y1270000D02*
X-5846800Y3480000D01*
X-1270000Y1270000D02*
X-3636800Y1270000D01*
X-5846800Y3480000D02*
X-7000000Y3480000D01*
X-4191000Y-1270000D02*
X-4191000Y224200D01*
X-63500Y-2413000D02*
X-3048000Y-2413000D01*
X-5846800Y1880000D02*
X-7000000Y1880000D01*
X1079500Y-1270000D02*
X-63500Y-2413000D01*
X1270000Y-1270000D02*
X1079500Y-1270000D01*
X-4191000Y224200D02*
X-5846800Y1880000D01*
X-3048000Y-2413000D02*
X-4191000Y-1270000D01*
X-7000000Y2680000D02*
X-5846800Y2680000D01*
X-5846800Y2680000D02*
X-3166800Y0D01*
X-3166800Y0D02*
X-190500Y0D01*
X-190500Y0D02*
X1079500Y1270000D01*
X1079500Y1270000D02*
X1270000Y1270000D01*
X-32045340Y19862771D02*
X-35509229Y19862771D01*
X-35509229Y19862771D02*
X-35560000Y19812000D01*
X-8890000Y24130000D02*
X-8890000Y23977600D01*
X-24513976Y19862771D02*
X-32045340Y19862771D01*
X-11150600Y21717000D02*
X-22659747Y21717000D01*
X-8890000Y23977600D02*
X-11150600Y21717000D01*
X-22659747Y21717000D02*
X-24513976Y19862771D01*
X-16128999Y-5460999D02*
X-15748000Y-5080000D01*
X-17881589Y-7213589D02*
X-16128999Y-5460999D01*
X-29930661Y-7213589D02*
X-17881589Y-7213589D01*
X-31343589Y-5800661D02*
X-29930661Y-7213589D01*
X-31343589Y-2692411D02*
X-31343589Y-5800661D01*
X-35484662Y1448662D02*
X-31343589Y-2692411D01*
X-44578544Y1448662D02*
X-35484662Y1448662D01*
X-46483544Y1448662D02*
X-44578544Y1448662D01*
X-9500000Y-620000D02*
X-9500000Y1118000D01*
X-9500000Y1118000D02*
X-9525000Y1143000D01*
X-35230814Y20497802D02*
X-36271198Y20497802D01*
X-35078423Y20345411D02*
X-35230814Y20497802D01*
X-36271198Y20497802D02*
X-36449000Y20320000D01*
X-22726498Y22225000D02*
X-24606087Y20345411D01*
X-13182600Y22225000D02*
X-22726498Y22225000D01*
X-11430000Y23977600D02*
X-13182600Y22225000D01*
X-24606087Y20345411D02*
X-35078423Y20345411D01*
X-11430000Y24130000D02*
X-11430000Y23977600D01*
X-17173200Y-620000D02*
X-16700000Y-620000D01*
X-30937178Y-4359346D02*
X-29835524Y-5461000D01*
X-21379200Y-4826000D02*
X-17173200Y-620000D01*
X-30937178Y-2463822D02*
X-30937178Y-4359346D01*
X-28321000Y-5461000D02*
X-27686000Y-4826000D01*
X-27686000Y-4826000D02*
X-21379200Y-4826000D01*
X-37389662Y3988662D02*
X-30937178Y-2463822D01*
X-44578544Y3988662D02*
X-37389662Y3988662D01*
X-29835524Y-5461000D02*
X-28321000Y-5461000D01*
X-44578544Y3988662D02*
X-46483544Y3988662D01*
X-24774427Y20751822D02*
X-34910083Y20751822D01*
X-34910083Y20751822D02*
X-35062474Y20904213D01*
X-36196012Y21209000D02*
X-36418185Y21209000D01*
X-35062474Y20904213D02*
X-35891225Y20904213D01*
X-35891225Y20904213D02*
X-36196012Y21209000D01*
X-13970000Y24130000D02*
X-13970000Y23977600D01*
X-22767838Y22758411D02*
X-24774427Y20751822D01*
X-36418185Y21209000D02*
X-36957000Y21209000D01*
X-15189189Y22758411D02*
X-22767838Y22758411D01*
X-13970000Y23977600D02*
X-15189189Y22758411D01*
X-21209001Y2362063D02*
X-21209001Y3556001D01*
X-33274861Y508861D02*
X-23062203Y508861D01*
X-39294662Y6528662D02*
X-33274861Y508861D01*
X-21209001Y3556001D02*
X-21590000Y3937000D01*
X-23062203Y508861D02*
X-21209001Y2362063D01*
X-44578544Y6528662D02*
X-39294662Y6528662D01*
X-15900000Y10780000D02*
X-15900000Y9169000D01*
X-15900000Y9169000D02*
X-15875000Y9144000D01*
X-46483544Y6528662D02*
X-44578544Y6528662D01*
X-16510000Y24130000D02*
X-16510000Y24282400D01*
X-16510000Y24282400D02*
X-17678410Y25450810D01*
X-17678410Y25450810D02*
X-20650190Y25450810D01*
X-20650190Y25450810D02*
X-24942767Y21158233D01*
X-24942767Y21158233D02*
X-34238222Y21158233D01*
X-34238222Y21158233D02*
X-34670022Y21590033D01*
X-34670022Y21590033D02*
X-35208837Y21590033D01*
X-30099000Y-7620000D02*
X-16891000Y-7620000D01*
X-31750000Y-2921000D02*
X-31750000Y-5969000D01*
X-31750000Y-5969000D02*
X-30099000Y-7620000D01*
X-33579662Y-1091338D02*
X-31750000Y-2921000D01*
X-44578544Y-1091338D02*
X-33579662Y-1091338D01*
X-11760190Y8431798D02*
X-11760190Y5633375D01*
X-11505186Y8686802D02*
X-11760190Y8431798D01*
X-9174815Y3048000D02*
X-8636000Y3048000D01*
X-11760190Y5633375D02*
X-9174815Y3048000D01*
X-9639998Y8686802D02*
X-11505186Y8686802D01*
X-8700000Y9626800D02*
X-9639998Y8686802D01*
X-8700000Y10780000D02*
X-8700000Y9626800D01*
X-16891000Y-7620000D02*
X-15113000Y-5842000D01*
X-44578544Y-1091338D02*
X-46483544Y-1091338D01*
X-29083000Y21971000D02*
X-29530000Y22418000D01*
X-29530000Y22418000D02*
X-29530000Y24130000D01*
X-26798544Y14148662D02*
X-24893544Y14148662D01*
X-29530000Y24130000D02*
X-27420000Y24130000D01*
X-44578544Y-6171338D02*
X-46483544Y-6171338D01*
X-26798544Y-6171338D02*
X-24893544Y-6171338D01*
X-24893544Y-6171338D02*
X-20298138Y-6171338D01*
X-20298138Y-6171338D02*
X-15900000Y-1773200D01*
X-15900000Y-1773200D02*
X-15900000Y-620000D01*
X-26798544Y-3631338D02*
X-24893544Y-3631338D01*
X-18400000Y1080000D02*
X-19748000Y1080000D01*
X-19748000Y1080000D02*
X-21071706Y-243706D01*
X-21071706Y-243706D02*
X-21071706Y-2275706D01*
X-21071706Y-2275706D02*
X-22427338Y-3631338D01*
X-22427338Y-3631338D02*
X-24893544Y-3631338D01*
X-21463000Y8890000D02*
X-20053000Y7480000D01*
X-20053000Y7480000D02*
X-18400000Y7480000D01*
X-21463000Y15875000D02*
X-21463000Y8890000D01*
X-22276662Y16688662D02*
X-21463000Y15875000D01*
X-26798544Y16688662D02*
X-24893544Y16688662D01*
X-22276662Y16688662D02*
X-24893544Y16688662D01*
X-26798544Y-1091338D02*
X-24893544Y-1091338D01*
X-23102844Y3988662D02*
X-22352000Y4739506D01*
X-18400000Y5080000D02*
X-22011506Y5080000D01*
X-22011506Y5080000D02*
X-22352000Y4739506D01*
X-26798544Y3988662D02*
X-24893544Y3988662D01*
X-24893544Y3988662D02*
X-23102844Y3988662D01*
X-21538338Y6528662D02*
X-20889676Y5880000D01*
X-20889676Y5880000D02*
X-18400000Y5880000D01*
X-24893544Y6528662D02*
X-26798544Y6528662D01*
X-24893544Y6528662D02*
X-21538338Y6528662D01*
X-20269000Y6680000D02*
X-22657662Y9068662D01*
X-22657662Y9068662D02*
X-24893544Y9068662D01*
X-18400000Y6680000D02*
X-20269000Y6680000D01*
X-26798544Y9068662D02*
X-24893544Y9068662D01*
X-46483544Y14148662D02*
X-44578544Y14148662D01*
X-38735000Y18789006D02*
X-38735000Y24800000D01*
X-44578544Y14148662D02*
X-43375344Y14148662D01*
X-43375344Y14148662D02*
X-38735000Y18789006D01*
X-26798544Y-11251338D02*
X-24893544Y-11251338D01*
D38*
X-44970000Y22860000D02*
X-44970000Y24765000D01*
X-40005000Y24800000D02*
X-40005000Y23241000D01*
X-40005000Y23241000D02*
X-40767000Y22479000D01*
X-40767000Y22479000D02*
X-42672000Y22479000D01*
X-42672000Y22479000D02*
X-43053000Y22860000D01*
X-43053000Y22860000D02*
X-44970000Y22860000D01*
D37*
X-46483544Y9068662D02*
X-44578544Y9068662D01*
X-46483544Y-8711338D02*
X-44578544Y-8711338D01*
X-13500000Y10780000D02*
X-13500000Y11933200D01*
X-13500000Y11933200D02*
X-13639810Y12073010D01*
X-13639810Y12073010D02*
X-13639810Y16967190D01*
X-13639810Y16967190D02*
X-12573000Y18034000D01*
X-12573000Y18034000D02*
X-11023600Y18034000D01*
X-11023600Y18034000D02*
X-8890000Y20167600D01*
X-8890000Y20167600D02*
X-8890000Y20320000D01*
X-14300000Y10780000D02*
X-14300000Y17297600D01*
X-14300000Y17297600D02*
X-11430000Y20167600D01*
X-11430000Y20167600D02*
X-11430000Y20320000D01*
X-15113000Y17957800D02*
X-15100000Y17944800D01*
X-15100000Y17944800D02*
X-15100000Y10780000D01*
X-13970000Y20320000D02*
X-13970000Y19100800D01*
X-13970000Y19100800D02*
X-15113000Y17957800D01*
X-20701000Y9427800D02*
X-20701000Y15976600D01*
X-20701000Y15976600D02*
X-16510000Y20167600D01*
X-16510000Y20167600D02*
X-16510000Y20320000D01*
X-18400000Y8280000D02*
X-19553200Y8280000D01*
X-19553200Y8280000D02*
X-20701000Y9427800D01*
D10*
G36*
X-50224825Y26882227D02*
X-50500126Y26470209D01*
X-50596800Y25984201D01*
X-50596799Y25984196D01*
X-50596799Y24931458D01*
X-50652353Y25027289D01*
X-51589650Y25404824D01*
X-52600077Y25394933D01*
X-53487647Y25027289D01*
X-53696835Y24666440D01*
X-52070000Y23039605D01*
X-52055858Y23053748D01*
X-51876253Y22874143D01*
X-51890395Y22860000D01*
X-51876253Y22845858D01*
X-52055858Y22666253D01*
X-52070000Y22680395D01*
X-53696835Y21053560D01*
X-53487647Y20692711D01*
X-52550350Y20315176D01*
X-51539923Y20325067D01*
X-50652353Y20692711D01*
X-50596799Y20788542D01*
X-50596799Y16089467D01*
X-50629327Y16122052D01*
X-51562546Y16509559D01*
X-52573021Y16510440D01*
X-53506915Y16124563D01*
X-54222052Y15410673D01*
X-54609559Y14477454D01*
X-54610440Y13466979D01*
X-54224563Y12533085D01*
X-53510673Y11817948D01*
X-52577454Y11430441D01*
X-51566979Y11429560D01*
X-50633085Y11815437D01*
X-50596799Y11851660D01*
X-50596799Y7151458D01*
X-50652353Y7247289D01*
X-51589650Y7624824D01*
X-52600077Y7614933D01*
X-53487647Y7247289D01*
X-53696835Y6886440D01*
X-52070000Y5259605D01*
X-52055858Y5273748D01*
X-51876253Y5094143D01*
X-51890395Y5080000D01*
X-51876253Y5065858D01*
X-52055858Y4886253D01*
X-52070000Y4900395D01*
X-53696835Y3273560D01*
X-53487647Y2912711D01*
X-52550350Y2535176D01*
X-51539923Y2545067D01*
X-50652353Y2912711D01*
X-50596799Y3008542D01*
X-50596799Y-1690533D01*
X-50629327Y-1657948D01*
X-51562546Y-1270441D01*
X-52573021Y-1269560D01*
X-53506915Y-1655437D01*
X-54222052Y-2369327D01*
X-54609559Y-3302546D01*
X-54610440Y-4313021D01*
X-54224563Y-5246915D01*
X-53510673Y-5962052D01*
X-52577454Y-6349559D01*
X-51566979Y-6350440D01*
X-50633085Y-5964563D01*
X-50596799Y-5928340D01*
X-50596799Y-8682129D01*
X-50809026Y-8894356D01*
X-51084327Y-9306374D01*
X-51181001Y-9792382D01*
X-51181000Y-9792387D01*
X-51181000Y-10681377D01*
X-51181001Y-10681382D01*
X-51084327Y-11167390D01*
X-50809026Y-11579408D01*
X-50239072Y-12149361D01*
X-50239070Y-12149364D01*
X-49957086Y-12337779D01*
X-49827052Y-12424665D01*
X-49341044Y-12521339D01*
X-49341039Y-12521338D01*
X-48387000Y-12521338D01*
X-48387000Y-15240000D01*
X-48376994Y-15289410D01*
X-48348553Y-15331035D01*
X-48306159Y-15358315D01*
X-48260000Y-15367000D01*
X-45212000Y-15367000D01*
X-45212000Y-16695000D01*
X-45364250Y-16695000D01*
X-45523000Y-16853750D01*
X-45523000Y-17653000D01*
X-45503000Y-17653000D01*
X-45503000Y-17907000D01*
X-45523000Y-17907000D01*
X-45523000Y-18706250D01*
X-45364250Y-18865000D01*
X-45212000Y-18865000D01*
X-45212000Y-22098000D01*
X-65278000Y-22098000D01*
X-65278000Y-14510000D01*
X-61317440Y-14510000D01*
X-61317440Y-18510000D01*
X-61273162Y-18745317D01*
X-61134090Y-18961441D01*
X-60921890Y-19106431D01*
X-60670000Y-19157440D01*
X-56670000Y-19157440D01*
X-56434683Y-19113162D01*
X-56218559Y-18974090D01*
X-56073569Y-18761890D01*
X-56022560Y-18510000D01*
X-56022560Y-16795750D01*
X-54705000Y-16795750D01*
X-54705000Y-18636310D01*
X-54608327Y-18869699D01*
X-54429698Y-19048327D01*
X-54196309Y-19145000D01*
X-52355750Y-19145000D01*
X-52197000Y-18986250D01*
X-52197000Y-16637000D01*
X-51943000Y-16637000D01*
X-51943000Y-18986250D01*
X-51784250Y-19145000D01*
X-49943691Y-19145000D01*
X-49710302Y-19048327D01*
X-49531673Y-18869699D01*
X-49435000Y-18636310D01*
X-49435000Y-18065750D01*
X-46735000Y-18065750D01*
X-46735000Y-18356310D01*
X-46638327Y-18589699D01*
X-46459698Y-18768327D01*
X-46226309Y-18865000D01*
X-45935750Y-18865000D01*
X-45777000Y-18706250D01*
X-45777000Y-17907000D01*
X-46576250Y-17907000D01*
X-46735000Y-18065750D01*
X-49435000Y-18065750D01*
X-49435000Y-17203690D01*
X-46735000Y-17203690D01*
X-46735000Y-17494250D01*
X-46576250Y-17653000D01*
X-45777000Y-17653000D01*
X-45777000Y-16853750D01*
X-45935750Y-16695000D01*
X-46226309Y-16695000D01*
X-46459698Y-16791673D01*
X-46638327Y-16970301D01*
X-46735000Y-17203690D01*
X-49435000Y-17203690D01*
X-49435000Y-16795750D01*
X-49593750Y-16637000D01*
X-51943000Y-16637000D01*
X-52197000Y-16637000D01*
X-54546250Y-16637000D01*
X-54705000Y-16795750D01*
X-56022560Y-16795750D01*
X-56022560Y-14510000D01*
X-56032262Y-14458440D01*
X-54705000Y-14458440D01*
X-54705000Y-16224250D01*
X-54546250Y-16383000D01*
X-52197000Y-16383000D01*
X-52197000Y-14033750D01*
X-51943000Y-14033750D01*
X-51943000Y-16383000D01*
X-49593750Y-16383000D01*
X-49435000Y-16224250D01*
X-49435000Y-14383690D01*
X-49531673Y-14150301D01*
X-49710302Y-13971673D01*
X-49943691Y-13875000D01*
X-51784250Y-13875000D01*
X-51943000Y-14033750D01*
X-52197000Y-14033750D01*
X-52355750Y-13875000D01*
X-52785520Y-13875000D01*
X-52772560Y-13811000D01*
X-52772560Y-9811000D01*
X-52816838Y-9575683D01*
X-52955910Y-9359559D01*
X-53168110Y-9214569D01*
X-53420000Y-9163560D01*
X-57420000Y-9163560D01*
X-57655317Y-9207838D01*
X-57871441Y-9346910D01*
X-58016431Y-9559110D01*
X-58067440Y-9811000D01*
X-58067440Y-13811000D01*
X-58057738Y-13862560D01*
X-60670000Y-13862560D01*
X-60905317Y-13906838D01*
X-61121441Y-14045910D01*
X-61266431Y-14258110D01*
X-61317440Y-14510000D01*
X-65278000Y-14510000D01*
X-65278000Y-10632325D01*
X-64615413Y-10632325D01*
X-64253084Y-11509229D01*
X-63582758Y-12180726D01*
X-62706487Y-12544585D01*
X-61757675Y-12545413D01*
X-60880771Y-12183084D01*
X-60209274Y-11512758D01*
X-59845415Y-10636487D01*
X-59844587Y-9687675D01*
X-60206916Y-8810771D01*
X-60877242Y-8139274D01*
X-61753513Y-7775415D01*
X-62702325Y-7774587D01*
X-63579229Y-8136916D01*
X-64250726Y-8807242D01*
X-64614585Y-9683513D01*
X-64615413Y-10632325D01*
X-65278000Y-10632325D01*
X-65278000Y-4187265D01*
X-64135330Y-4187265D01*
X-63845922Y-4887686D01*
X-63310505Y-5424039D01*
X-62610590Y-5714668D01*
X-61852735Y-5715330D01*
X-61152314Y-5425922D01*
X-60615961Y-4890505D01*
X-60325332Y-4190590D01*
X-60324670Y-3432735D01*
X-60614078Y-2732314D01*
X-61149495Y-2195961D01*
X-61849410Y-1905332D01*
X-62607265Y-1904670D01*
X-63307686Y-2194078D01*
X-63844039Y-2729495D01*
X-64134668Y-3429410D01*
X-64135330Y-4187265D01*
X-65278000Y-4187265D01*
X-65278000Y3732223D01*
X-63398172Y3732223D01*
X-63266480Y3437343D01*
X-62558964Y3165739D01*
X-61801368Y3185564D01*
X-61193520Y3437343D01*
X-61061828Y3732223D01*
X-62230000Y4900395D01*
X-63398172Y3732223D01*
X-65278000Y3732223D01*
X-65278000Y5408964D01*
X-64144261Y5408964D01*
X-64124436Y4651368D01*
X-63872657Y4043520D01*
X-63577777Y3911828D01*
X-62409605Y5080000D01*
X-62050395Y5080000D01*
X-60882223Y3911828D01*
X-60587343Y4043520D01*
X-60315739Y4751036D01*
X-60335564Y5508632D01*
X-60356986Y5560350D01*
X-54614824Y5560350D01*
X-54604933Y4549923D01*
X-54237289Y3662353D01*
X-53876440Y3453165D01*
X-52249605Y5080000D01*
X-53876440Y6706835D01*
X-54237289Y6497647D01*
X-54614824Y5560350D01*
X-60356986Y5560350D01*
X-60587343Y6116480D01*
X-60882223Y6248172D01*
X-62050395Y5080000D01*
X-62409605Y5080000D01*
X-63577777Y6248172D01*
X-63872657Y6116480D01*
X-64144261Y5408964D01*
X-65278000Y5408964D01*
X-65278000Y6427777D01*
X-63398172Y6427777D01*
X-62230000Y5259605D01*
X-61061828Y6427777D01*
X-61193520Y6722657D01*
X-61901036Y6994261D01*
X-62658632Y6974436D01*
X-63266480Y6722657D01*
X-63398172Y6427777D01*
X-65278000Y6427777D01*
X-65278000Y13592735D01*
X-64135330Y13592735D01*
X-63845922Y12892314D01*
X-63310505Y12355961D01*
X-62610590Y12065332D01*
X-61852735Y12064670D01*
X-61152314Y12354078D01*
X-60615961Y12889495D01*
X-60325332Y13589410D01*
X-60324670Y14347265D01*
X-60614078Y15047686D01*
X-61149495Y15584039D01*
X-61849410Y15874668D01*
X-62607265Y15875330D01*
X-63307686Y15585922D01*
X-63844039Y15050505D01*
X-64134668Y14350590D01*
X-64135330Y13592735D01*
X-65278000Y13592735D01*
X-65278000Y21512223D01*
X-63398172Y21512223D01*
X-63266480Y21217343D01*
X-62558964Y20945739D01*
X-61801368Y20965564D01*
X-61193520Y21217343D01*
X-61061828Y21512223D01*
X-62230000Y22680395D01*
X-63398172Y21512223D01*
X-65278000Y21512223D01*
X-65278000Y23188964D01*
X-64144261Y23188964D01*
X-64124436Y22431368D01*
X-63872657Y21823520D01*
X-63577777Y21691828D01*
X-62409605Y22860000D01*
X-62050395Y22860000D01*
X-60882223Y21691828D01*
X-60587343Y21823520D01*
X-60315739Y22531036D01*
X-60335564Y23288632D01*
X-60488426Y23657675D01*
X-59535413Y23657675D01*
X-59173084Y22780771D01*
X-58502758Y22109274D01*
X-57626487Y21745415D01*
X-56677675Y21744587D01*
X-55800771Y22106916D01*
X-55129274Y22777242D01*
X-54895452Y23340350D01*
X-54614824Y23340350D01*
X-54604933Y22329923D01*
X-54237289Y21442353D01*
X-53876440Y21233165D01*
X-52249605Y22860000D01*
X-53876440Y24486835D01*
X-54237289Y24277647D01*
X-54614824Y23340350D01*
X-54895452Y23340350D01*
X-54765415Y23653513D01*
X-54764587Y24602325D01*
X-55126916Y25479229D01*
X-55797242Y26150726D01*
X-56673513Y26514585D01*
X-57622325Y26515413D01*
X-58499229Y26153084D01*
X-59170726Y25482758D01*
X-59534585Y24606487D01*
X-59535413Y23657675D01*
X-60488426Y23657675D01*
X-60587343Y23896480D01*
X-60882223Y24028172D01*
X-62050395Y22860000D01*
X-62409605Y22860000D01*
X-63577777Y24028172D01*
X-63872657Y23896480D01*
X-64144261Y23188964D01*
X-65278000Y23188964D01*
X-65278000Y24207777D01*
X-63398172Y24207777D01*
X-62230000Y23039605D01*
X-61061828Y24207777D01*
X-61193520Y24502657D01*
X-61901036Y24774261D01*
X-62658632Y24754436D01*
X-63266480Y24502657D01*
X-63398172Y24207777D01*
X-65278000Y24207777D01*
X-65278000Y27178000D01*
X-49929052Y27178000D01*
X-50224825Y26882227D01*
X-50224825Y26882227D01*
G37*
X-50224825Y26882227D02*
X-50500126Y26470209D01*
X-50596800Y25984201D01*
X-50596799Y25984196D01*
X-50596799Y24931458D01*
X-50652353Y25027289D01*
X-51589650Y25404824D01*
X-52600077Y25394933D01*
X-53487647Y25027289D01*
X-53696835Y24666440D01*
X-52070000Y23039605D01*
X-52055858Y23053748D01*
X-51876253Y22874143D01*
X-51890395Y22860000D01*
X-51876253Y22845858D01*
X-52055858Y22666253D01*
X-52070000Y22680395D01*
X-53696835Y21053560D01*
X-53487647Y20692711D01*
X-52550350Y20315176D01*
X-51539923Y20325067D01*
X-50652353Y20692711D01*
X-50596799Y20788542D01*
X-50596799Y16089467D01*
X-50629327Y16122052D01*
X-51562546Y16509559D01*
X-52573021Y16510440D01*
X-53506915Y16124563D01*
X-54222052Y15410673D01*
X-54609559Y14477454D01*
X-54610440Y13466979D01*
X-54224563Y12533085D01*
X-53510673Y11817948D01*
X-52577454Y11430441D01*
X-51566979Y11429560D01*
X-50633085Y11815437D01*
X-50596799Y11851660D01*
X-50596799Y7151458D01*
X-50652353Y7247289D01*
X-51589650Y7624824D01*
X-52600077Y7614933D01*
X-53487647Y7247289D01*
X-53696835Y6886440D01*
X-52070000Y5259605D01*
X-52055858Y5273748D01*
X-51876253Y5094143D01*
X-51890395Y5080000D01*
X-51876253Y5065858D01*
X-52055858Y4886253D01*
X-52070000Y4900395D01*
X-53696835Y3273560D01*
X-53487647Y2912711D01*
X-52550350Y2535176D01*
X-51539923Y2545067D01*
X-50652353Y2912711D01*
X-50596799Y3008542D01*
X-50596799Y-1690533D01*
X-50629327Y-1657948D01*
X-51562546Y-1270441D01*
X-52573021Y-1269560D01*
X-53506915Y-1655437D01*
X-54222052Y-2369327D01*
X-54609559Y-3302546D01*
X-54610440Y-4313021D01*
X-54224563Y-5246915D01*
X-53510673Y-5962052D01*
X-52577454Y-6349559D01*
X-51566979Y-6350440D01*
X-50633085Y-5964563D01*
X-50596799Y-5928340D01*
X-50596799Y-8682129D01*
X-50809026Y-8894356D01*
X-51084327Y-9306374D01*
X-51181001Y-9792382D01*
X-51181000Y-9792387D01*
X-51181000Y-10681377D01*
X-51181001Y-10681382D01*
X-51084327Y-11167390D01*
X-50809026Y-11579408D01*
X-50239072Y-12149361D01*
X-50239070Y-12149364D01*
X-49957086Y-12337779D01*
X-49827052Y-12424665D01*
X-49341044Y-12521339D01*
X-49341039Y-12521338D01*
X-48387000Y-12521338D01*
X-48387000Y-15240000D01*
X-48376994Y-15289410D01*
X-48348553Y-15331035D01*
X-48306159Y-15358315D01*
X-48260000Y-15367000D01*
X-45212000Y-15367000D01*
X-45212000Y-16695000D01*
X-45364250Y-16695000D01*
X-45523000Y-16853750D01*
X-45523000Y-17653000D01*
X-45503000Y-17653000D01*
X-45503000Y-17907000D01*
X-45523000Y-17907000D01*
X-45523000Y-18706250D01*
X-45364250Y-18865000D01*
X-45212000Y-18865000D01*
X-45212000Y-22098000D01*
X-65278000Y-22098000D01*
X-65278000Y-14510000D01*
X-61317440Y-14510000D01*
X-61317440Y-18510000D01*
X-61273162Y-18745317D01*
X-61134090Y-18961441D01*
X-60921890Y-19106431D01*
X-60670000Y-19157440D01*
X-56670000Y-19157440D01*
X-56434683Y-19113162D01*
X-56218559Y-18974090D01*
X-56073569Y-18761890D01*
X-56022560Y-18510000D01*
X-56022560Y-16795750D01*
X-54705000Y-16795750D01*
X-54705000Y-18636310D01*
X-54608327Y-18869699D01*
X-54429698Y-19048327D01*
X-54196309Y-19145000D01*
X-52355750Y-19145000D01*
X-52197000Y-18986250D01*
X-52197000Y-16637000D01*
X-51943000Y-16637000D01*
X-51943000Y-18986250D01*
X-51784250Y-19145000D01*
X-49943691Y-19145000D01*
X-49710302Y-19048327D01*
X-49531673Y-18869699D01*
X-49435000Y-18636310D01*
X-49435000Y-18065750D01*
X-46735000Y-18065750D01*
X-46735000Y-18356310D01*
X-46638327Y-18589699D01*
X-46459698Y-18768327D01*
X-46226309Y-18865000D01*
X-45935750Y-18865000D01*
X-45777000Y-18706250D01*
X-45777000Y-17907000D01*
X-46576250Y-17907000D01*
X-46735000Y-18065750D01*
X-49435000Y-18065750D01*
X-49435000Y-17203690D01*
X-46735000Y-17203690D01*
X-46735000Y-17494250D01*
X-46576250Y-17653000D01*
X-45777000Y-17653000D01*
X-45777000Y-16853750D01*
X-45935750Y-16695000D01*
X-46226309Y-16695000D01*
X-46459698Y-16791673D01*
X-46638327Y-16970301D01*
X-46735000Y-17203690D01*
X-49435000Y-17203690D01*
X-49435000Y-16795750D01*
X-49593750Y-16637000D01*
X-51943000Y-16637000D01*
X-52197000Y-16637000D01*
X-54546250Y-16637000D01*
X-54705000Y-16795750D01*
X-56022560Y-16795750D01*
X-56022560Y-14510000D01*
X-56032262Y-14458440D01*
X-54705000Y-14458440D01*
X-54705000Y-16224250D01*
X-54546250Y-16383000D01*
X-52197000Y-16383000D01*
X-52197000Y-14033750D01*
X-51943000Y-14033750D01*
X-51943000Y-16383000D01*
X-49593750Y-16383000D01*
X-49435000Y-16224250D01*
X-49435000Y-14383690D01*
X-49531673Y-14150301D01*
X-49710302Y-13971673D01*
X-49943691Y-13875000D01*
X-51784250Y-13875000D01*
X-51943000Y-14033750D01*
X-52197000Y-14033750D01*
X-52355750Y-13875000D01*
X-52785520Y-13875000D01*
X-52772560Y-13811000D01*
X-52772560Y-9811000D01*
X-52816838Y-9575683D01*
X-52955910Y-9359559D01*
X-53168110Y-9214569D01*
X-53420000Y-9163560D01*
X-57420000Y-9163560D01*
X-57655317Y-9207838D01*
X-57871441Y-9346910D01*
X-58016431Y-9559110D01*
X-58067440Y-9811000D01*
X-58067440Y-13811000D01*
X-58057738Y-13862560D01*
X-60670000Y-13862560D01*
X-60905317Y-13906838D01*
X-61121441Y-14045910D01*
X-61266431Y-14258110D01*
X-61317440Y-14510000D01*
X-65278000Y-14510000D01*
X-65278000Y-10632325D01*
X-64615413Y-10632325D01*
X-64253084Y-11509229D01*
X-63582758Y-12180726D01*
X-62706487Y-12544585D01*
X-61757675Y-12545413D01*
X-60880771Y-12183084D01*
X-60209274Y-11512758D01*
X-59845415Y-10636487D01*
X-59844587Y-9687675D01*
X-60206916Y-8810771D01*
X-60877242Y-8139274D01*
X-61753513Y-7775415D01*
X-62702325Y-7774587D01*
X-63579229Y-8136916D01*
X-64250726Y-8807242D01*
X-64614585Y-9683513D01*
X-64615413Y-10632325D01*
X-65278000Y-10632325D01*
X-65278000Y-4187265D01*
X-64135330Y-4187265D01*
X-63845922Y-4887686D01*
X-63310505Y-5424039D01*
X-62610590Y-5714668D01*
X-61852735Y-5715330D01*
X-61152314Y-5425922D01*
X-60615961Y-4890505D01*
X-60325332Y-4190590D01*
X-60324670Y-3432735D01*
X-60614078Y-2732314D01*
X-61149495Y-2195961D01*
X-61849410Y-1905332D01*
X-62607265Y-1904670D01*
X-63307686Y-2194078D01*
X-63844039Y-2729495D01*
X-64134668Y-3429410D01*
X-64135330Y-4187265D01*
X-65278000Y-4187265D01*
X-65278000Y3732223D01*
X-63398172Y3732223D01*
X-63266480Y3437343D01*
X-62558964Y3165739D01*
X-61801368Y3185564D01*
X-61193520Y3437343D01*
X-61061828Y3732223D01*
X-62230000Y4900395D01*
X-63398172Y3732223D01*
X-65278000Y3732223D01*
X-65278000Y5408964D01*
X-64144261Y5408964D01*
X-64124436Y4651368D01*
X-63872657Y4043520D01*
X-63577777Y3911828D01*
X-62409605Y5080000D01*
X-62050395Y5080000D01*
X-60882223Y3911828D01*
X-60587343Y4043520D01*
X-60315739Y4751036D01*
X-60335564Y5508632D01*
X-60356986Y5560350D01*
X-54614824Y5560350D01*
X-54604933Y4549923D01*
X-54237289Y3662353D01*
X-53876440Y3453165D01*
X-52249605Y5080000D01*
X-53876440Y6706835D01*
X-54237289Y6497647D01*
X-54614824Y5560350D01*
X-60356986Y5560350D01*
X-60587343Y6116480D01*
X-60882223Y6248172D01*
X-62050395Y5080000D01*
X-62409605Y5080000D01*
X-63577777Y6248172D01*
X-63872657Y6116480D01*
X-64144261Y5408964D01*
X-65278000Y5408964D01*
X-65278000Y6427777D01*
X-63398172Y6427777D01*
X-62230000Y5259605D01*
X-61061828Y6427777D01*
X-61193520Y6722657D01*
X-61901036Y6994261D01*
X-62658632Y6974436D01*
X-63266480Y6722657D01*
X-63398172Y6427777D01*
X-65278000Y6427777D01*
X-65278000Y13592735D01*
X-64135330Y13592735D01*
X-63845922Y12892314D01*
X-63310505Y12355961D01*
X-62610590Y12065332D01*
X-61852735Y12064670D01*
X-61152314Y12354078D01*
X-60615961Y12889495D01*
X-60325332Y13589410D01*
X-60324670Y14347265D01*
X-60614078Y15047686D01*
X-61149495Y15584039D01*
X-61849410Y15874668D01*
X-62607265Y15875330D01*
X-63307686Y15585922D01*
X-63844039Y15050505D01*
X-64134668Y14350590D01*
X-64135330Y13592735D01*
X-65278000Y13592735D01*
X-65278000Y21512223D01*
X-63398172Y21512223D01*
X-63266480Y21217343D01*
X-62558964Y20945739D01*
X-61801368Y20965564D01*
X-61193520Y21217343D01*
X-61061828Y21512223D01*
X-62230000Y22680395D01*
X-63398172Y21512223D01*
X-65278000Y21512223D01*
X-65278000Y23188964D01*
X-64144261Y23188964D01*
X-64124436Y22431368D01*
X-63872657Y21823520D01*
X-63577777Y21691828D01*
X-62409605Y22860000D01*
X-62050395Y22860000D01*
X-60882223Y21691828D01*
X-60587343Y21823520D01*
X-60315739Y22531036D01*
X-60335564Y23288632D01*
X-60488426Y23657675D01*
X-59535413Y23657675D01*
X-59173084Y22780771D01*
X-58502758Y22109274D01*
X-57626487Y21745415D01*
X-56677675Y21744587D01*
X-55800771Y22106916D01*
X-55129274Y22777242D01*
X-54895452Y23340350D01*
X-54614824Y23340350D01*
X-54604933Y22329923D01*
X-54237289Y21442353D01*
X-53876440Y21233165D01*
X-52249605Y22860000D01*
X-53876440Y24486835D01*
X-54237289Y24277647D01*
X-54614824Y23340350D01*
X-54895452Y23340350D01*
X-54765415Y23653513D01*
X-54764587Y24602325D01*
X-55126916Y25479229D01*
X-55797242Y26150726D01*
X-56673513Y26514585D01*
X-57622325Y26515413D01*
X-58499229Y26153084D01*
X-59170726Y25482758D01*
X-59534585Y24606487D01*
X-59535413Y23657675D01*
X-60488426Y23657675D01*
X-60587343Y23896480D01*
X-60882223Y24028172D01*
X-62050395Y22860000D01*
X-62409605Y22860000D01*
X-63577777Y24028172D01*
X-63872657Y23896480D01*
X-64144261Y23188964D01*
X-65278000Y23188964D01*
X-65278000Y24207777D01*
X-63398172Y24207777D01*
X-62230000Y23039605D01*
X-61061828Y24207777D01*
X-61193520Y24502657D01*
X-61901036Y24774261D01*
X-62658632Y24754436D01*
X-63266480Y24502657D01*
X-63398172Y24207777D01*
X-65278000Y24207777D01*
X-65278000Y27178000D01*
X-49929052Y27178000D01*
X-50224825Y26882227D01*
G36*
X-13462000Y-8890526D02*
X-13470211Y-8895810D01*
X-13615201Y-9108010D01*
X-13666210Y-9359900D01*
X-13666210Y-10960100D01*
X-13621932Y-11195417D01*
X-13482860Y-11411541D01*
X-13462000Y-11425794D01*
X-13462000Y-16510526D01*
X-13470211Y-16515810D01*
X-13615201Y-16728010D01*
X-13666210Y-16979900D01*
X-13666210Y-18580100D01*
X-13621932Y-18815417D01*
X-13482860Y-19031541D01*
X-13462000Y-19045794D01*
X-13462000Y-22098000D01*
X-43688000Y-22098000D01*
X-43688000Y-18965000D01*
X-43535750Y-18965000D01*
X-43377000Y-18806250D01*
X-43377000Y-17907000D01*
X-43123000Y-17907000D01*
X-43123000Y-18806250D01*
X-42964250Y-18965000D01*
X-42673691Y-18965000D01*
X-42440302Y-18868327D01*
X-42261673Y-18689699D01*
X-42165000Y-18456310D01*
X-42165000Y-18065750D01*
X-19155410Y-18065750D01*
X-19155410Y-18706410D01*
X-19058737Y-18939799D01*
X-18880108Y-19118427D01*
X-18646719Y-19215100D01*
X-17006570Y-19215100D01*
X-16847820Y-19056350D01*
X-16847820Y-17907000D01*
X-16593820Y-17907000D01*
X-16593820Y-19056350D01*
X-16435070Y-19215100D01*
X-14794921Y-19215100D01*
X-14561532Y-19118427D01*
X-14382903Y-18939799D01*
X-14286230Y-18706410D01*
X-14286230Y-18065750D01*
X-14444980Y-17907000D01*
X-16593820Y-17907000D01*
X-16847820Y-17907000D01*
X-18996660Y-17907000D01*
X-19155410Y-18065750D01*
X-42165000Y-18065750D01*
X-42323750Y-17907000D01*
X-43123000Y-17907000D01*
X-43377000Y-17907000D01*
X-43397000Y-17907000D01*
X-43397000Y-17653000D01*
X-43377000Y-17653000D01*
X-43377000Y-16753750D01*
X-43123000Y-16753750D01*
X-43123000Y-17653000D01*
X-42323750Y-17653000D01*
X-42165000Y-17494250D01*
X-42165000Y-17103690D01*
X-42261673Y-16870301D01*
X-42278384Y-16853590D01*
X-19155410Y-16853590D01*
X-19155410Y-17494250D01*
X-18996660Y-17653000D01*
X-16847820Y-17653000D01*
X-16847820Y-16503650D01*
X-16593820Y-16503650D01*
X-16593820Y-17653000D01*
X-14444980Y-17653000D01*
X-14286230Y-17494250D01*
X-14286230Y-16853590D01*
X-14382903Y-16620201D01*
X-14561532Y-16441573D01*
X-14794921Y-16344900D01*
X-16435070Y-16344900D01*
X-16593820Y-16503650D01*
X-16847820Y-16503650D01*
X-17006570Y-16344900D01*
X-18646719Y-16344900D01*
X-18880108Y-16441573D01*
X-19058737Y-16620201D01*
X-19155410Y-16853590D01*
X-42278384Y-16853590D01*
X-42440302Y-16691673D01*
X-42673691Y-16595000D01*
X-42964250Y-16595000D01*
X-43123000Y-16753750D01*
X-43377000Y-16753750D01*
X-43535750Y-16595000D01*
X-43688000Y-16595000D01*
X-43688000Y-15367000D01*
X-37942718Y-15367000D01*
X-37930634Y-15385779D01*
X-37718434Y-15530769D01*
X-37466544Y-15581778D01*
X-35942544Y-15581778D01*
X-35707227Y-15537500D01*
X-35691445Y-15527345D01*
X-35686434Y-15530769D01*
X-35434544Y-15581778D01*
X-33910544Y-15581778D01*
X-33675227Y-15537500D01*
X-33459103Y-15398428D01*
X-33437629Y-15367000D01*
X-30480000Y-15367000D01*
X-30430590Y-15356994D01*
X-30390197Y-15329803D01*
X-27850197Y-12789803D01*
X-27822334Y-12747789D01*
X-27813000Y-12700000D01*
X-27813000Y-12323437D01*
X-27788491Y-12343728D01*
X-27325544Y-12486338D01*
X-26925544Y-12486338D01*
X-26925544Y-12339864D01*
X-26840743Y-12424665D01*
X-26607354Y-12521338D01*
X-25179294Y-12521338D01*
X-25020544Y-12362588D01*
X-25020544Y-11378338D01*
X-24766544Y-11378338D01*
X-24766544Y-12362588D01*
X-24607794Y-12521338D01*
X-23179734Y-12521338D01*
X-22946345Y-12424665D01*
X-22767717Y-12246036D01*
X-22697209Y-12075816D01*
X-22574699Y-12198327D01*
X-22341310Y-12295000D01*
X-21875750Y-12295000D01*
X-21717000Y-12136250D01*
X-21717000Y-11287000D01*
X-21463000Y-11287000D01*
X-21463000Y-12136250D01*
X-21304250Y-12295000D01*
X-20838690Y-12295000D01*
X-20605301Y-12198327D01*
X-20426673Y-12019698D01*
X-20330000Y-11786309D01*
X-20330000Y-11445750D01*
X-20488750Y-11287000D01*
X-21463000Y-11287000D01*
X-21717000Y-11287000D01*
X-22691250Y-11287000D01*
X-22806191Y-11401941D01*
X-22829794Y-11378338D01*
X-24766544Y-11378338D01*
X-25020544Y-11378338D01*
X-26945544Y-11378338D01*
X-26945544Y-11124338D01*
X-25020544Y-11124338D01*
X-25020544Y-11104338D01*
X-24766544Y-11104338D01*
X-24766544Y-11124338D01*
X-22829794Y-11124338D01*
X-22714853Y-11009397D01*
X-22691250Y-11033000D01*
X-21717000Y-11033000D01*
X-21717000Y-11013000D01*
X-21463000Y-11013000D01*
X-21463000Y-11033000D01*
X-20488750Y-11033000D01*
X-20330000Y-10874250D01*
X-20330000Y-10533691D01*
X-20366426Y-10445750D01*
X-19155410Y-10445750D01*
X-19155410Y-11086410D01*
X-19058737Y-11319799D01*
X-18880108Y-11498427D01*
X-18646719Y-11595100D01*
X-17006570Y-11595100D01*
X-16847820Y-11436350D01*
X-16847820Y-10287000D01*
X-16593820Y-10287000D01*
X-16593820Y-11436350D01*
X-16435070Y-11595100D01*
X-14794921Y-11595100D01*
X-14561532Y-11498427D01*
X-14382903Y-11319799D01*
X-14286230Y-11086410D01*
X-14286230Y-10445750D01*
X-14444980Y-10287000D01*
X-16593820Y-10287000D01*
X-16847820Y-10287000D01*
X-18996660Y-10287000D01*
X-19155410Y-10445750D01*
X-20366426Y-10445750D01*
X-20426673Y-10300302D01*
X-20567910Y-10159064D01*
X-20513559Y-10124090D01*
X-20368569Y-9911890D01*
X-20328267Y-9712873D01*
X-19848984Y-9233590D01*
X-19155410Y-9233590D01*
X-19155410Y-9874250D01*
X-18996660Y-10033000D01*
X-16847820Y-10033000D01*
X-16847820Y-8883650D01*
X-16593820Y-8883650D01*
X-16593820Y-10033000D01*
X-14444980Y-10033000D01*
X-14286230Y-9874250D01*
X-14286230Y-9233590D01*
X-14382903Y-9000201D01*
X-14561532Y-8821573D01*
X-14794921Y-8724900D01*
X-16435070Y-8724900D01*
X-16593820Y-8883650D01*
X-16847820Y-8883650D01*
X-17006570Y-8724900D01*
X-18646719Y-8724900D01*
X-18880108Y-8821573D01*
X-19058737Y-9000201D01*
X-19155410Y-9233590D01*
X-19848984Y-9233590D01*
X-18971994Y-8356600D01*
X-16891000Y-8356600D01*
X-16609115Y-8300530D01*
X-16370145Y-8140855D01*
X-15976290Y-7747000D01*
X-13462000Y-7747000D01*
X-13462000Y-8890526D01*
X-13462000Y-8890526D01*
G37*
X-13462000Y-8890526D02*
X-13470211Y-8895810D01*
X-13615201Y-9108010D01*
X-13666210Y-9359900D01*
X-13666210Y-10960100D01*
X-13621932Y-11195417D01*
X-13482860Y-11411541D01*
X-13462000Y-11425794D01*
X-13462000Y-16510526D01*
X-13470211Y-16515810D01*
X-13615201Y-16728010D01*
X-13666210Y-16979900D01*
X-13666210Y-18580100D01*
X-13621932Y-18815417D01*
X-13482860Y-19031541D01*
X-13462000Y-19045794D01*
X-13462000Y-22098000D01*
X-43688000Y-22098000D01*
X-43688000Y-18965000D01*
X-43535750Y-18965000D01*
X-43377000Y-18806250D01*
X-43377000Y-17907000D01*
X-43123000Y-17907000D01*
X-43123000Y-18806250D01*
X-42964250Y-18965000D01*
X-42673691Y-18965000D01*
X-42440302Y-18868327D01*
X-42261673Y-18689699D01*
X-42165000Y-18456310D01*
X-42165000Y-18065750D01*
X-19155410Y-18065750D01*
X-19155410Y-18706410D01*
X-19058737Y-18939799D01*
X-18880108Y-19118427D01*
X-18646719Y-19215100D01*
X-17006570Y-19215100D01*
X-16847820Y-19056350D01*
X-16847820Y-17907000D01*
X-16593820Y-17907000D01*
X-16593820Y-19056350D01*
X-16435070Y-19215100D01*
X-14794921Y-19215100D01*
X-14561532Y-19118427D01*
X-14382903Y-18939799D01*
X-14286230Y-18706410D01*
X-14286230Y-18065750D01*
X-14444980Y-17907000D01*
X-16593820Y-17907000D01*
X-16847820Y-17907000D01*
X-18996660Y-17907000D01*
X-19155410Y-18065750D01*
X-42165000Y-18065750D01*
X-42323750Y-17907000D01*
X-43123000Y-17907000D01*
X-43377000Y-17907000D01*
X-43397000Y-17907000D01*
X-43397000Y-17653000D01*
X-43377000Y-17653000D01*
X-43377000Y-16753750D01*
X-43123000Y-16753750D01*
X-43123000Y-17653000D01*
X-42323750Y-17653000D01*
X-42165000Y-17494250D01*
X-42165000Y-17103690D01*
X-42261673Y-16870301D01*
X-42278384Y-16853590D01*
X-19155410Y-16853590D01*
X-19155410Y-17494250D01*
X-18996660Y-17653000D01*
X-16847820Y-17653000D01*
X-16847820Y-16503650D01*
X-16593820Y-16503650D01*
X-16593820Y-17653000D01*
X-14444980Y-17653000D01*
X-14286230Y-17494250D01*
X-14286230Y-16853590D01*
X-14382903Y-16620201D01*
X-14561532Y-16441573D01*
X-14794921Y-16344900D01*
X-16435070Y-16344900D01*
X-16593820Y-16503650D01*
X-16847820Y-16503650D01*
X-17006570Y-16344900D01*
X-18646719Y-16344900D01*
X-18880108Y-16441573D01*
X-19058737Y-16620201D01*
X-19155410Y-16853590D01*
X-42278384Y-16853590D01*
X-42440302Y-16691673D01*
X-42673691Y-16595000D01*
X-42964250Y-16595000D01*
X-43123000Y-16753750D01*
X-43377000Y-16753750D01*
X-43535750Y-16595000D01*
X-43688000Y-16595000D01*
X-43688000Y-15367000D01*
X-37942718Y-15367000D01*
X-37930634Y-15385779D01*
X-37718434Y-15530769D01*
X-37466544Y-15581778D01*
X-35942544Y-15581778D01*
X-35707227Y-15537500D01*
X-35691445Y-15527345D01*
X-35686434Y-15530769D01*
X-35434544Y-15581778D01*
X-33910544Y-15581778D01*
X-33675227Y-15537500D01*
X-33459103Y-15398428D01*
X-33437629Y-15367000D01*
X-30480000Y-15367000D01*
X-30430590Y-15356994D01*
X-30390197Y-15329803D01*
X-27850197Y-12789803D01*
X-27822334Y-12747789D01*
X-27813000Y-12700000D01*
X-27813000Y-12323437D01*
X-27788491Y-12343728D01*
X-27325544Y-12486338D01*
X-26925544Y-12486338D01*
X-26925544Y-12339864D01*
X-26840743Y-12424665D01*
X-26607354Y-12521338D01*
X-25179294Y-12521338D01*
X-25020544Y-12362588D01*
X-25020544Y-11378338D01*
X-24766544Y-11378338D01*
X-24766544Y-12362588D01*
X-24607794Y-12521338D01*
X-23179734Y-12521338D01*
X-22946345Y-12424665D01*
X-22767717Y-12246036D01*
X-22697209Y-12075816D01*
X-22574699Y-12198327D01*
X-22341310Y-12295000D01*
X-21875750Y-12295000D01*
X-21717000Y-12136250D01*
X-21717000Y-11287000D01*
X-21463000Y-11287000D01*
X-21463000Y-12136250D01*
X-21304250Y-12295000D01*
X-20838690Y-12295000D01*
X-20605301Y-12198327D01*
X-20426673Y-12019698D01*
X-20330000Y-11786309D01*
X-20330000Y-11445750D01*
X-20488750Y-11287000D01*
X-21463000Y-11287000D01*
X-21717000Y-11287000D01*
X-22691250Y-11287000D01*
X-22806191Y-11401941D01*
X-22829794Y-11378338D01*
X-24766544Y-11378338D01*
X-25020544Y-11378338D01*
X-26945544Y-11378338D01*
X-26945544Y-11124338D01*
X-25020544Y-11124338D01*
X-25020544Y-11104338D01*
X-24766544Y-11104338D01*
X-24766544Y-11124338D01*
X-22829794Y-11124338D01*
X-22714853Y-11009397D01*
X-22691250Y-11033000D01*
X-21717000Y-11033000D01*
X-21717000Y-11013000D01*
X-21463000Y-11013000D01*
X-21463000Y-11033000D01*
X-20488750Y-11033000D01*
X-20330000Y-10874250D01*
X-20330000Y-10533691D01*
X-20366426Y-10445750D01*
X-19155410Y-10445750D01*
X-19155410Y-11086410D01*
X-19058737Y-11319799D01*
X-18880108Y-11498427D01*
X-18646719Y-11595100D01*
X-17006570Y-11595100D01*
X-16847820Y-11436350D01*
X-16847820Y-10287000D01*
X-16593820Y-10287000D01*
X-16593820Y-11436350D01*
X-16435070Y-11595100D01*
X-14794921Y-11595100D01*
X-14561532Y-11498427D01*
X-14382903Y-11319799D01*
X-14286230Y-11086410D01*
X-14286230Y-10445750D01*
X-14444980Y-10287000D01*
X-16593820Y-10287000D01*
X-16847820Y-10287000D01*
X-18996660Y-10287000D01*
X-19155410Y-10445750D01*
X-20366426Y-10445750D01*
X-20426673Y-10300302D01*
X-20567910Y-10159064D01*
X-20513559Y-10124090D01*
X-20368569Y-9911890D01*
X-20328267Y-9712873D01*
X-19848984Y-9233590D01*
X-19155410Y-9233590D01*
X-19155410Y-9874250D01*
X-18996660Y-10033000D01*
X-16847820Y-10033000D01*
X-16847820Y-8883650D01*
X-16593820Y-8883650D01*
X-16593820Y-10033000D01*
X-14444980Y-10033000D01*
X-14286230Y-9874250D01*
X-14286230Y-9233590D01*
X-14382903Y-9000201D01*
X-14561532Y-8821573D01*
X-14794921Y-8724900D01*
X-16435070Y-8724900D01*
X-16593820Y-8883650D01*
X-16847820Y-8883650D01*
X-17006570Y-8724900D01*
X-18646719Y-8724900D01*
X-18880108Y-8821573D01*
X-19058737Y-9000201D01*
X-19155410Y-9233590D01*
X-19848984Y-9233590D01*
X-18971994Y-8356600D01*
X-16891000Y-8356600D01*
X-16609115Y-8300530D01*
X-16370145Y-8140855D01*
X-15976290Y-7747000D01*
X-13462000Y-7747000D01*
X-13462000Y-8890526D01*
G36*
X4318000Y-22098000D02*
X-12700000Y-22098000D01*
X-12700000Y-20737312D01*
X-2692707Y-20737312D01*
X-2289238Y-21263924D01*
X-775270Y-21907307D01*
X869666Y-21922346D01*
X2395145Y-21306750D01*
X2459238Y-21263924D01*
X2862707Y-20737312D01*
X85000Y-17959605D01*
X-2692707Y-20737312D01*
X-12700000Y-20737312D01*
X-12700000Y-19215100D01*
X-11504930Y-19215100D01*
X-11346180Y-19056350D01*
X-11346180Y-17907000D01*
X-11092180Y-17907000D01*
X-11092180Y-19056350D01*
X-10933430Y-19215100D01*
X-9293281Y-19215100D01*
X-9059892Y-19118427D01*
X-8881263Y-18939799D01*
X-8784590Y-18706410D01*
X-8784590Y-18564666D01*
X-4057346Y-18564666D01*
X-3441750Y-20090145D01*
X-3398924Y-20154238D01*
X-2872312Y-20557707D01*
X-94605Y-17780000D01*
X264605Y-17780000D01*
X3042312Y-20557707D01*
X3568924Y-20154238D01*
X4212307Y-18640270D01*
X4227346Y-16995334D01*
X3611750Y-15469855D01*
X3568924Y-15405762D01*
X3042312Y-15002293D01*
X264605Y-17780000D01*
X-94605Y-17780000D01*
X-2872312Y-15002293D01*
X-3398924Y-15405762D01*
X-4042307Y-16919730D01*
X-4057346Y-18564666D01*
X-8784590Y-18564666D01*
X-8784590Y-18065750D01*
X-8943340Y-17907000D01*
X-11092180Y-17907000D01*
X-11346180Y-17907000D01*
X-11366180Y-17907000D01*
X-11366180Y-17653000D01*
X-11346180Y-17653000D01*
X-11346180Y-16503650D01*
X-11092180Y-16503650D01*
X-11092180Y-17653000D01*
X-8943340Y-17653000D01*
X-8784590Y-17494250D01*
X-8784590Y-16853590D01*
X-8881263Y-16620201D01*
X-9059892Y-16441573D01*
X-9293281Y-16344900D01*
X-10933430Y-16344900D01*
X-11092180Y-16503650D01*
X-11346180Y-16503650D01*
X-11504930Y-16344900D01*
X-12700000Y-16344900D01*
X-12700000Y-14822688D01*
X-2692707Y-14822688D01*
X85000Y-17600395D01*
X2862707Y-14822688D01*
X2459238Y-14296076D01*
X945270Y-13652693D01*
X-699666Y-13637654D01*
X-2225145Y-14253250D01*
X-2289238Y-14296076D01*
X-2692707Y-14822688D01*
X-12700000Y-14822688D01*
X-12700000Y-11595100D01*
X-11504930Y-11595100D01*
X-11346180Y-11436350D01*
X-11346180Y-10287000D01*
X-11092180Y-10287000D01*
X-11092180Y-11436350D01*
X-10933430Y-11595100D01*
X-9293281Y-11595100D01*
X-9059892Y-11498427D01*
X-8881263Y-11319799D01*
X-8784590Y-11086410D01*
X-8784590Y-10445750D01*
X-8943340Y-10287000D01*
X-11092180Y-10287000D01*
X-11346180Y-10287000D01*
X-11366180Y-10287000D01*
X-11366180Y-10033000D01*
X-11346180Y-10033000D01*
X-11346180Y-8883650D01*
X-11504930Y-8724900D01*
X-12700000Y-8724900D01*
X-12700000Y-7620000D01*
X-12743427Y-7389205D01*
X-12774703Y-7340600D01*
X-10598611Y-7340600D01*
X-9158471Y-8780740D01*
X-9293281Y-8724900D01*
X-10933430Y-8724900D01*
X-11092180Y-8883650D01*
X-11092180Y-10033000D01*
X-8943340Y-10033000D01*
X-8784590Y-9874250D01*
X-8784590Y-9233590D01*
X-8840430Y-9098781D01*
X-7131356Y-10807855D01*
X-6892386Y-10967530D01*
X-6882718Y-10969453D01*
X-6610501Y-11023601D01*
X-6610496Y-11023600D01*
X-317500Y-11023600D01*
X-35615Y-10967530D01*
X203355Y-10807855D01*
X711770Y-10299440D01*
X2222500Y-10299440D01*
X2457817Y-10255162D01*
X2673941Y-10116090D01*
X2818931Y-9903890D01*
X2869940Y-9652000D01*
X2869940Y-8128000D01*
X2825662Y-7892683D01*
X2686590Y-7676559D01*
X2474390Y-7531569D01*
X2255742Y-7487292D01*
X2479429Y-7337828D01*
X2782261Y-6884609D01*
X2888601Y-6350000D01*
X2782261Y-5815391D01*
X2479429Y-5362172D01*
X2057130Y-5080000D01*
X2479429Y-4797828D01*
X2782261Y-4344609D01*
X2888601Y-3810000D01*
X2782261Y-3275391D01*
X2479429Y-2822172D01*
X2057130Y-2540000D01*
X2479429Y-2257828D01*
X2782261Y-1804609D01*
X2888601Y-1270000D01*
X2782261Y-735391D01*
X2479429Y-282172D01*
X2057130Y0D01*
X2479429Y282172D01*
X2782261Y735391D01*
X2888601Y1270000D01*
X2782261Y1804609D01*
X2479429Y2257828D01*
X2057130Y2540000D01*
X2479429Y2822172D01*
X2782261Y3275391D01*
X2888601Y3810000D01*
X2782261Y4344609D01*
X2479429Y4797828D01*
X2057130Y5080000D01*
X2479429Y5362172D01*
X2782261Y5815391D01*
X2888601Y6350000D01*
X2782261Y6884609D01*
X2479429Y7337828D01*
X2057130Y7620000D01*
X2479429Y7902172D01*
X2782261Y8355391D01*
X2888601Y8890000D01*
X2782261Y9424609D01*
X2479429Y9877828D01*
X2026210Y10180660D01*
X1491601Y10287000D01*
X1048399Y10287000D01*
X777996Y10233214D01*
X203355Y10807855D01*
X-35615Y10967530D01*
X-317500Y11023600D01*
X-7366000Y11023600D01*
X-7647885Y10967530D01*
X-7795000Y10869231D01*
X-7795000Y11491052D01*
X-7863889Y11837381D01*
X-8060068Y12130984D01*
X-8353671Y12327163D01*
X-8700000Y12396052D01*
X-9046329Y12327163D01*
X-9100000Y12291301D01*
X-9153671Y12327163D01*
X-9500000Y12396052D01*
X-9846329Y12327163D01*
X-9900000Y12291301D01*
X-9953671Y12327163D01*
X-10118916Y12360032D01*
X-5451977Y17026972D01*
X-5451974Y17026974D01*
X-5176673Y17438992D01*
X-5161923Y17513145D01*
X-5079999Y17925000D01*
X-5080000Y17925005D01*
X-5080000Y18810927D01*
X-5034959Y18839910D01*
X-4889969Y19052110D01*
X-4838960Y19304000D01*
X-4838960Y19902688D01*
X-2777707Y19902688D01*
X-2374238Y19376076D01*
X-860270Y18732693D01*
X784666Y18717654D01*
X2310145Y19333250D01*
X2374238Y19376076D01*
X2777707Y19902688D01*
X0Y22680395D01*
X-2777707Y19902688D01*
X-4838960Y19902688D01*
X-4838960Y21336000D01*
X-4883238Y21571317D01*
X-5022310Y21787441D01*
X-5080000Y21826859D01*
X-5080000Y22075334D01*
X-4142346Y22075334D01*
X-3526750Y20549855D01*
X-3483924Y20485762D01*
X-2957312Y20082293D01*
X-179605Y22860000D01*
X179605Y22860000D01*
X2957312Y20082293D01*
X3483924Y20485762D01*
X4127307Y21999730D01*
X4142346Y23644666D01*
X3526750Y25170145D01*
X3483924Y25234238D01*
X2957312Y25637707D01*
X179605Y22860000D01*
X-179605Y22860000D01*
X-2957312Y25637707D01*
X-3483924Y25234238D01*
X-4127307Y23720270D01*
X-4142346Y22075334D01*
X-5080000Y22075334D01*
X-5080000Y22620927D01*
X-5034959Y22649910D01*
X-4889969Y22862110D01*
X-4838960Y23114000D01*
X-4838960Y25146000D01*
X-4883238Y25381317D01*
X-5022310Y25597441D01*
X-5080000Y25636859D01*
X-5080000Y25817312D01*
X-2777707Y25817312D01*
X0Y23039605D01*
X2777707Y25817312D01*
X2374238Y26343924D01*
X860270Y26987307D01*
X-784666Y27002346D01*
X-2310145Y26386750D01*
X-2374238Y26343924D01*
X-2777707Y25817312D01*
X-5080000Y25817312D01*
X-5080000Y26416000D01*
X-5176673Y26902008D01*
X-5361085Y27178000D01*
X4318000Y27178000D01*
X4318000Y-22098000D01*
X4318000Y-22098000D01*
G37*
X4318000Y-22098000D02*
X-12700000Y-22098000D01*
X-12700000Y-20737312D01*
X-2692707Y-20737312D01*
X-2289238Y-21263924D01*
X-775270Y-21907307D01*
X869666Y-21922346D01*
X2395145Y-21306750D01*
X2459238Y-21263924D01*
X2862707Y-20737312D01*
X85000Y-17959605D01*
X-2692707Y-20737312D01*
X-12700000Y-20737312D01*
X-12700000Y-19215100D01*
X-11504930Y-19215100D01*
X-11346180Y-19056350D01*
X-11346180Y-17907000D01*
X-11092180Y-17907000D01*
X-11092180Y-19056350D01*
X-10933430Y-19215100D01*
X-9293281Y-19215100D01*
X-9059892Y-19118427D01*
X-8881263Y-18939799D01*
X-8784590Y-18706410D01*
X-8784590Y-18564666D01*
X-4057346Y-18564666D01*
X-3441750Y-20090145D01*
X-3398924Y-20154238D01*
X-2872312Y-20557707D01*
X-94605Y-17780000D01*
X264605Y-17780000D01*
X3042312Y-20557707D01*
X3568924Y-20154238D01*
X4212307Y-18640270D01*
X4227346Y-16995334D01*
X3611750Y-15469855D01*
X3568924Y-15405762D01*
X3042312Y-15002293D01*
X264605Y-17780000D01*
X-94605Y-17780000D01*
X-2872312Y-15002293D01*
X-3398924Y-15405762D01*
X-4042307Y-16919730D01*
X-4057346Y-18564666D01*
X-8784590Y-18564666D01*
X-8784590Y-18065750D01*
X-8943340Y-17907000D01*
X-11092180Y-17907000D01*
X-11346180Y-17907000D01*
X-11366180Y-17907000D01*
X-11366180Y-17653000D01*
X-11346180Y-17653000D01*
X-11346180Y-16503650D01*
X-11092180Y-16503650D01*
X-11092180Y-17653000D01*
X-8943340Y-17653000D01*
X-8784590Y-17494250D01*
X-8784590Y-16853590D01*
X-8881263Y-16620201D01*
X-9059892Y-16441573D01*
X-9293281Y-16344900D01*
X-10933430Y-16344900D01*
X-11092180Y-16503650D01*
X-11346180Y-16503650D01*
X-11504930Y-16344900D01*
X-12700000Y-16344900D01*
X-12700000Y-14822688D01*
X-2692707Y-14822688D01*
X85000Y-17600395D01*
X2862707Y-14822688D01*
X2459238Y-14296076D01*
X945270Y-13652693D01*
X-699666Y-13637654D01*
X-2225145Y-14253250D01*
X-2289238Y-14296076D01*
X-2692707Y-14822688D01*
X-12700000Y-14822688D01*
X-12700000Y-11595100D01*
X-11504930Y-11595100D01*
X-11346180Y-11436350D01*
X-11346180Y-10287000D01*
X-11092180Y-10287000D01*
X-11092180Y-11436350D01*
X-10933430Y-11595100D01*
X-9293281Y-11595100D01*
X-9059892Y-11498427D01*
X-8881263Y-11319799D01*
X-8784590Y-11086410D01*
X-8784590Y-10445750D01*
X-8943340Y-10287000D01*
X-11092180Y-10287000D01*
X-11346180Y-10287000D01*
X-11366180Y-10287000D01*
X-11366180Y-10033000D01*
X-11346180Y-10033000D01*
X-11346180Y-8883650D01*
X-11504930Y-8724900D01*
X-12700000Y-8724900D01*
X-12700000Y-7620000D01*
X-12743427Y-7389205D01*
X-12774703Y-7340600D01*
X-10598611Y-7340600D01*
X-9158471Y-8780740D01*
X-9293281Y-8724900D01*
X-10933430Y-8724900D01*
X-11092180Y-8883650D01*
X-11092180Y-10033000D01*
X-8943340Y-10033000D01*
X-8784590Y-9874250D01*
X-8784590Y-9233590D01*
X-8840430Y-9098781D01*
X-7131356Y-10807855D01*
X-6892386Y-10967530D01*
X-6882718Y-10969453D01*
X-6610501Y-11023601D01*
X-6610496Y-11023600D01*
X-317500Y-11023600D01*
X-35615Y-10967530D01*
X203355Y-10807855D01*
X711770Y-10299440D01*
X2222500Y-10299440D01*
X2457817Y-10255162D01*
X2673941Y-10116090D01*
X2818931Y-9903890D01*
X2869940Y-9652000D01*
X2869940Y-8128000D01*
X2825662Y-7892683D01*
X2686590Y-7676559D01*
X2474390Y-7531569D01*
X2255742Y-7487292D01*
X2479429Y-7337828D01*
X2782261Y-6884609D01*
X2888601Y-6350000D01*
X2782261Y-5815391D01*
X2479429Y-5362172D01*
X2057130Y-5080000D01*
X2479429Y-4797828D01*
X2782261Y-4344609D01*
X2888601Y-3810000D01*
X2782261Y-3275391D01*
X2479429Y-2822172D01*
X2057130Y-2540000D01*
X2479429Y-2257828D01*
X2782261Y-1804609D01*
X2888601Y-1270000D01*
X2782261Y-735391D01*
X2479429Y-282172D01*
X2057130Y0D01*
X2479429Y282172D01*
X2782261Y735391D01*
X2888601Y1270000D01*
X2782261Y1804609D01*
X2479429Y2257828D01*
X2057130Y2540000D01*
X2479429Y2822172D01*
X2782261Y3275391D01*
X2888601Y3810000D01*
X2782261Y4344609D01*
X2479429Y4797828D01*
X2057130Y5080000D01*
X2479429Y5362172D01*
X2782261Y5815391D01*
X2888601Y6350000D01*
X2782261Y6884609D01*
X2479429Y7337828D01*
X2057130Y7620000D01*
X2479429Y7902172D01*
X2782261Y8355391D01*
X2888601Y8890000D01*
X2782261Y9424609D01*
X2479429Y9877828D01*
X2026210Y10180660D01*
X1491601Y10287000D01*
X1048399Y10287000D01*
X777996Y10233214D01*
X203355Y10807855D01*
X-35615Y10967530D01*
X-317500Y11023600D01*
X-7366000Y11023600D01*
X-7647885Y10967530D01*
X-7795000Y10869231D01*
X-7795000Y11491052D01*
X-7863889Y11837381D01*
X-8060068Y12130984D01*
X-8353671Y12327163D01*
X-8700000Y12396052D01*
X-9046329Y12327163D01*
X-9100000Y12291301D01*
X-9153671Y12327163D01*
X-9500000Y12396052D01*
X-9846329Y12327163D01*
X-9900000Y12291301D01*
X-9953671Y12327163D01*
X-10118916Y12360032D01*
X-5451977Y17026972D01*
X-5451974Y17026974D01*
X-5176673Y17438992D01*
X-5161923Y17513145D01*
X-5079999Y17925000D01*
X-5080000Y17925005D01*
X-5080000Y18810927D01*
X-5034959Y18839910D01*
X-4889969Y19052110D01*
X-4838960Y19304000D01*
X-4838960Y19902688D01*
X-2777707Y19902688D01*
X-2374238Y19376076D01*
X-860270Y18732693D01*
X784666Y18717654D01*
X2310145Y19333250D01*
X2374238Y19376076D01*
X2777707Y19902688D01*
X0Y22680395D01*
X-2777707Y19902688D01*
X-4838960Y19902688D01*
X-4838960Y21336000D01*
X-4883238Y21571317D01*
X-5022310Y21787441D01*
X-5080000Y21826859D01*
X-5080000Y22075334D01*
X-4142346Y22075334D01*
X-3526750Y20549855D01*
X-3483924Y20485762D01*
X-2957312Y20082293D01*
X-179605Y22860000D01*
X179605Y22860000D01*
X2957312Y20082293D01*
X3483924Y20485762D01*
X4127307Y21999730D01*
X4142346Y23644666D01*
X3526750Y25170145D01*
X3483924Y25234238D01*
X2957312Y25637707D01*
X179605Y22860000D01*
X-179605Y22860000D01*
X-2957312Y25637707D01*
X-3483924Y25234238D01*
X-4127307Y23720270D01*
X-4142346Y22075334D01*
X-5080000Y22075334D01*
X-5080000Y22620927D01*
X-5034959Y22649910D01*
X-4889969Y22862110D01*
X-4838960Y23114000D01*
X-4838960Y25146000D01*
X-4883238Y25381317D01*
X-5022310Y25597441D01*
X-5080000Y25636859D01*
X-5080000Y25817312D01*
X-2777707Y25817312D01*
X0Y23039605D01*
X2777707Y25817312D01*
X2374238Y26343924D01*
X860270Y26987307D01*
X-784666Y27002346D01*
X-2310145Y26386750D01*
X-2374238Y26343924D01*
X-2777707Y25817312D01*
X-5080000Y25817312D01*
X-5080000Y26416000D01*
X-5176673Y26902008D01*
X-5361085Y27178000D01*
X4318000Y27178000D01*
X4318000Y-22098000D01*
G36*
X-32486600Y-3226110D02*
X-32486600Y-5969000D01*
X-32430530Y-6250885D01*
X-32270855Y-6489855D01*
X-30619855Y-8140855D01*
X-30380885Y-8300530D01*
X-30099000Y-8356600D01*
X-28388192Y-8356600D01*
X-28392006Y-8393729D01*
X-28267275Y-8584338D01*
X-25020544Y-8584338D01*
X-25020544Y-8564338D01*
X-24766544Y-8564338D01*
X-24766544Y-8584338D01*
X-24746544Y-8584338D01*
X-24746544Y-8838338D01*
X-24766544Y-8838338D01*
X-24766544Y-8858338D01*
X-25020544Y-8858338D01*
X-25020544Y-8838338D01*
X-28267275Y-8838338D01*
X-28392006Y-9028947D01*
X-28388136Y-9066619D01*
X-28161624Y-9494812D01*
X-28090871Y-9553388D01*
X-28170795Y-9568427D01*
X-28382767Y-9704827D01*
X-28396928Y-9725553D01*
X-28449544Y-9714898D01*
X-30227544Y-9714898D01*
X-30462861Y-9759176D01*
X-30678985Y-9898248D01*
X-30823975Y-10110448D01*
X-30874984Y-10362338D01*
X-30874984Y-12140338D01*
X-30830706Y-12375655D01*
X-30691634Y-12591779D01*
X-30479434Y-12736769D01*
X-30227544Y-12787778D01*
X-28925804Y-12787778D01*
X-30743026Y-14605000D01*
X-33263104Y-14605000D01*
X-33263104Y-13156338D01*
X-33307382Y-12921021D01*
X-33446454Y-12704897D01*
X-33658654Y-12559907D01*
X-33910544Y-12508898D01*
X-35434544Y-12508898D01*
X-35669861Y-12553176D01*
X-35685643Y-12563331D01*
X-35690654Y-12559907D01*
X-35942544Y-12508898D01*
X-37466544Y-12508898D01*
X-37701861Y-12553176D01*
X-37917985Y-12692248D01*
X-38062975Y-12904448D01*
X-38113984Y-13156338D01*
X-38113984Y-14605000D01*
X-43815000Y-14605000D01*
X-44045795Y-14648427D01*
X-44257767Y-14784827D01*
X-44399971Y-14992949D01*
X-44450000Y-15240000D01*
X-44493427Y-15009205D01*
X-44629827Y-14797233D01*
X-44837949Y-14655029D01*
X-45085000Y-14605000D01*
X-47625000Y-14605000D01*
X-47625000Y-12533778D01*
X-44896044Y-12533778D01*
X-44660727Y-12489500D01*
X-44655813Y-12486338D01*
X-44146512Y-12486338D01*
X-43673898Y-12392329D01*
X-43273235Y-12124615D01*
X-43216639Y-12039912D01*
X-43213206Y-12058155D01*
X-43074134Y-12274279D01*
X-42861934Y-12419269D01*
X-42610044Y-12470278D01*
X-41467044Y-12470278D01*
X-41231727Y-12426000D01*
X-41015603Y-12286928D01*
X-40870613Y-12074728D01*
X-40819604Y-11822838D01*
X-40819604Y-10679838D01*
X-40863882Y-10444521D01*
X-41002954Y-10228397D01*
X-41215154Y-10083407D01*
X-41467044Y-10032398D01*
X-42610044Y-10032398D01*
X-42845361Y-10076676D01*
X-43061485Y-10215748D01*
X-43206475Y-10427948D01*
X-43214249Y-10466339D01*
X-43273235Y-10378061D01*
X-43673898Y-10110347D01*
X-44146512Y-10016338D01*
X-44661778Y-10016338D01*
X-44832358Y-9981795D01*
X-44660727Y-9949500D01*
X-44655813Y-9946338D01*
X-44146512Y-9946338D01*
X-43673898Y-9852329D01*
X-43273235Y-9584615D01*
X-43216639Y-9499912D01*
X-43213206Y-9518155D01*
X-43074134Y-9734279D01*
X-42861934Y-9879269D01*
X-42610044Y-9930278D01*
X-41467044Y-9930278D01*
X-41231727Y-9886000D01*
X-41015603Y-9746928D01*
X-40870613Y-9534728D01*
X-40819604Y-9282838D01*
X-40819604Y-8139838D01*
X-40863882Y-7904521D01*
X-41002954Y-7688397D01*
X-41215154Y-7543407D01*
X-41467044Y-7492398D01*
X-42610044Y-7492398D01*
X-42845361Y-7536676D01*
X-43061485Y-7675748D01*
X-43206475Y-7887948D01*
X-43214249Y-7926339D01*
X-43273235Y-7838061D01*
X-43673898Y-7570347D01*
X-44146512Y-7476338D01*
X-44661778Y-7476338D01*
X-44832358Y-7441795D01*
X-44660727Y-7409500D01*
X-44655813Y-7406338D01*
X-44146512Y-7406338D01*
X-43673898Y-7312329D01*
X-43273235Y-7044615D01*
X-43005521Y-6643952D01*
X-42911512Y-6171338D01*
X-43005521Y-5698724D01*
X-43273235Y-5298061D01*
X-43673898Y-5030347D01*
X-44146512Y-4936338D01*
X-44661778Y-4936338D01*
X-44834613Y-4901338D01*
X-44769734Y-4901338D01*
X-44536345Y-4804665D01*
X-44451544Y-4719864D01*
X-44451544Y-4866338D01*
X-44051544Y-4866338D01*
X-43588597Y-4723728D01*
X-43215464Y-4414812D01*
X-42988952Y-3986619D01*
X-42985082Y-3948947D01*
X-43109813Y-3758338D01*
X-46356544Y-3758338D01*
X-46356544Y-3778338D01*
X-46610544Y-3778338D01*
X-46610544Y-3758338D01*
X-46630544Y-3758338D01*
X-46630544Y-3504338D01*
X-46610544Y-3504338D01*
X-46610544Y-3484338D01*
X-46356544Y-3484338D01*
X-46356544Y-3504338D01*
X-43109813Y-3504338D01*
X-42985082Y-3313729D01*
X-42988952Y-3276057D01*
X-43215464Y-2847864D01*
X-43588597Y-2538948D01*
X-44051544Y-2396338D01*
X-44451544Y-2396338D01*
X-44451544Y-2542812D01*
X-44536345Y-2458011D01*
X-44769734Y-2361338D01*
X-44829931Y-2361338D01*
X-44660727Y-2329500D01*
X-44655813Y-2326338D01*
X-44146512Y-2326338D01*
X-43673898Y-2232329D01*
X-43273235Y-1964615D01*
X-43181911Y-1827938D01*
X-33884772Y-1827938D01*
X-32486600Y-3226110D01*
X-32486600Y-3226110D01*
G37*
X-32486600Y-3226110D02*
X-32486600Y-5969000D01*
X-32430530Y-6250885D01*
X-32270855Y-6489855D01*
X-30619855Y-8140855D01*
X-30380885Y-8300530D01*
X-30099000Y-8356600D01*
X-28388192Y-8356600D01*
X-28392006Y-8393729D01*
X-28267275Y-8584338D01*
X-25020544Y-8584338D01*
X-25020544Y-8564338D01*
X-24766544Y-8564338D01*
X-24766544Y-8584338D01*
X-24746544Y-8584338D01*
X-24746544Y-8838338D01*
X-24766544Y-8838338D01*
X-24766544Y-8858338D01*
X-25020544Y-8858338D01*
X-25020544Y-8838338D01*
X-28267275Y-8838338D01*
X-28392006Y-9028947D01*
X-28388136Y-9066619D01*
X-28161624Y-9494812D01*
X-28090871Y-9553388D01*
X-28170795Y-9568427D01*
X-28382767Y-9704827D01*
X-28396928Y-9725553D01*
X-28449544Y-9714898D01*
X-30227544Y-9714898D01*
X-30462861Y-9759176D01*
X-30678985Y-9898248D01*
X-30823975Y-10110448D01*
X-30874984Y-10362338D01*
X-30874984Y-12140338D01*
X-30830706Y-12375655D01*
X-30691634Y-12591779D01*
X-30479434Y-12736769D01*
X-30227544Y-12787778D01*
X-28925804Y-12787778D01*
X-30743026Y-14605000D01*
X-33263104Y-14605000D01*
X-33263104Y-13156338D01*
X-33307382Y-12921021D01*
X-33446454Y-12704897D01*
X-33658654Y-12559907D01*
X-33910544Y-12508898D01*
X-35434544Y-12508898D01*
X-35669861Y-12553176D01*
X-35685643Y-12563331D01*
X-35690654Y-12559907D01*
X-35942544Y-12508898D01*
X-37466544Y-12508898D01*
X-37701861Y-12553176D01*
X-37917985Y-12692248D01*
X-38062975Y-12904448D01*
X-38113984Y-13156338D01*
X-38113984Y-14605000D01*
X-43815000Y-14605000D01*
X-44045795Y-14648427D01*
X-44257767Y-14784827D01*
X-44399971Y-14992949D01*
X-44450000Y-15240000D01*
X-44493427Y-15009205D01*
X-44629827Y-14797233D01*
X-44837949Y-14655029D01*
X-45085000Y-14605000D01*
X-47625000Y-14605000D01*
X-47625000Y-12533778D01*
X-44896044Y-12533778D01*
X-44660727Y-12489500D01*
X-44655813Y-12486338D01*
X-44146512Y-12486338D01*
X-43673898Y-12392329D01*
X-43273235Y-12124615D01*
X-43216639Y-12039912D01*
X-43213206Y-12058155D01*
X-43074134Y-12274279D01*
X-42861934Y-12419269D01*
X-42610044Y-12470278D01*
X-41467044Y-12470278D01*
X-41231727Y-12426000D01*
X-41015603Y-12286928D01*
X-40870613Y-12074728D01*
X-40819604Y-11822838D01*
X-40819604Y-10679838D01*
X-40863882Y-10444521D01*
X-41002954Y-10228397D01*
X-41215154Y-10083407D01*
X-41467044Y-10032398D01*
X-42610044Y-10032398D01*
X-42845361Y-10076676D01*
X-43061485Y-10215748D01*
X-43206475Y-10427948D01*
X-43214249Y-10466339D01*
X-43273235Y-10378061D01*
X-43673898Y-10110347D01*
X-44146512Y-10016338D01*
X-44661778Y-10016338D01*
X-44832358Y-9981795D01*
X-44660727Y-9949500D01*
X-44655813Y-9946338D01*
X-44146512Y-9946338D01*
X-43673898Y-9852329D01*
X-43273235Y-9584615D01*
X-43216639Y-9499912D01*
X-43213206Y-9518155D01*
X-43074134Y-9734279D01*
X-42861934Y-9879269D01*
X-42610044Y-9930278D01*
X-41467044Y-9930278D01*
X-41231727Y-9886000D01*
X-41015603Y-9746928D01*
X-40870613Y-9534728D01*
X-40819604Y-9282838D01*
X-40819604Y-8139838D01*
X-40863882Y-7904521D01*
X-41002954Y-7688397D01*
X-41215154Y-7543407D01*
X-41467044Y-7492398D01*
X-42610044Y-7492398D01*
X-42845361Y-7536676D01*
X-43061485Y-7675748D01*
X-43206475Y-7887948D01*
X-43214249Y-7926339D01*
X-43273235Y-7838061D01*
X-43673898Y-7570347D01*
X-44146512Y-7476338D01*
X-44661778Y-7476338D01*
X-44832358Y-7441795D01*
X-44660727Y-7409500D01*
X-44655813Y-7406338D01*
X-44146512Y-7406338D01*
X-43673898Y-7312329D01*
X-43273235Y-7044615D01*
X-43005521Y-6643952D01*
X-42911512Y-6171338D01*
X-43005521Y-5698724D01*
X-43273235Y-5298061D01*
X-43673898Y-5030347D01*
X-44146512Y-4936338D01*
X-44661778Y-4936338D01*
X-44834613Y-4901338D01*
X-44769734Y-4901338D01*
X-44536345Y-4804665D01*
X-44451544Y-4719864D01*
X-44451544Y-4866338D01*
X-44051544Y-4866338D01*
X-43588597Y-4723728D01*
X-43215464Y-4414812D01*
X-42988952Y-3986619D01*
X-42985082Y-3948947D01*
X-43109813Y-3758338D01*
X-46356544Y-3758338D01*
X-46356544Y-3778338D01*
X-46610544Y-3778338D01*
X-46610544Y-3758338D01*
X-46630544Y-3758338D01*
X-46630544Y-3504338D01*
X-46610544Y-3504338D01*
X-46610544Y-3484338D01*
X-46356544Y-3484338D01*
X-46356544Y-3504338D01*
X-43109813Y-3504338D01*
X-42985082Y-3313729D01*
X-42988952Y-3276057D01*
X-43215464Y-2847864D01*
X-43588597Y-2538948D01*
X-44051544Y-2396338D01*
X-44451544Y-2396338D01*
X-44451544Y-2542812D01*
X-44536345Y-2458011D01*
X-44769734Y-2361338D01*
X-44829931Y-2361338D01*
X-44660727Y-2329500D01*
X-44655813Y-2326338D01*
X-44146512Y-2326338D01*
X-43673898Y-2232329D01*
X-43273235Y-1964615D01*
X-43181911Y-1827938D01*
X-33884772Y-1827938D01*
X-32486600Y-3226110D01*
G36*
X-21463000Y-9033000D02*
X-21443000Y-9033000D01*
X-21443000Y-9287000D01*
X-21463000Y-9287000D01*
X-21463000Y-9307000D01*
X-21717000Y-9307000D01*
X-21717000Y-9287000D01*
X-21737000Y-9287000D01*
X-21737000Y-9033000D01*
X-21717000Y-9033000D01*
X-21717000Y-9013000D01*
X-21463000Y-9013000D01*
X-21463000Y-9033000D01*
X-21463000Y-9033000D01*
G37*
X-21463000Y-9033000D02*
X-21443000Y-9033000D01*
X-21443000Y-9287000D01*
X-21463000Y-9287000D01*
X-21463000Y-9307000D01*
X-21717000Y-9307000D01*
X-21717000Y-9287000D01*
X-21737000Y-9287000D01*
X-21737000Y-9033000D01*
X-21717000Y-9033000D01*
X-21717000Y-9013000D01*
X-21463000Y-9013000D01*
X-21463000Y-9033000D01*
G36*
X-2692220Y-6223000D02*
X-1397000Y-6223000D01*
X-1397000Y-6203000D01*
X-1143000Y-6203000D01*
X-1143000Y-6223000D01*
X-1123000Y-6223000D01*
X-1123000Y-6477000D01*
X-1143000Y-6477000D01*
X-1143000Y-6497000D01*
X-1397000Y-6497000D01*
X-1397000Y-6477000D01*
X-2692220Y-6477000D01*
X-2814720Y-6693070D01*
X-2806876Y-6738540D01*
X-2731957Y-6883400D01*
X-3555690Y-6883400D01*
X-2765694Y-6093404D01*
X-2692220Y-6223000D01*
X-2692220Y-6223000D01*
G37*
X-2692220Y-6223000D02*
X-1397000Y-6223000D01*
X-1397000Y-6203000D01*
X-1143000Y-6203000D01*
X-1143000Y-6223000D01*
X-1123000Y-6223000D01*
X-1123000Y-6477000D01*
X-1143000Y-6477000D01*
X-1143000Y-6497000D01*
X-1397000Y-6497000D01*
X-1397000Y-6477000D01*
X-2692220Y-6477000D01*
X-2814720Y-6693070D01*
X-2806876Y-6738540D01*
X-2731957Y-6883400D01*
X-3555690Y-6883400D01*
X-2765694Y-6093404D01*
X-2692220Y-6223000D01*
G36*
X-6853000Y953000D02*
X-6873000Y953000D01*
X-6873000Y175000D01*
X-6193000Y175000D01*
X-5856339Y292490D01*
X-5590266Y529871D01*
X-5573535Y565025D01*
X-4927600Y-80910D01*
X-4927600Y-1270000D01*
X-4871530Y-1551885D01*
X-4711855Y-1790855D01*
X-3568855Y-2933855D01*
X-3329885Y-3093530D01*
X-3048000Y-3149600D01*
X-2737712Y-3149600D01*
X-2946555Y-3289145D01*
X-5016810Y-5359400D01*
X-6746375Y-5359400D01*
X-6706673Y-5319698D01*
X-6610000Y-5086309D01*
X-6610000Y-4845750D01*
X-6768750Y-4687000D01*
X-7493000Y-4687000D01*
X-7493000Y-4707000D01*
X-7747000Y-4707000D01*
X-7747000Y-4687000D01*
X-8471250Y-4687000D01*
X-8546770Y-4762520D01*
X-8915400Y-4393890D01*
X-8915400Y-2924994D01*
X-8642440Y-3197954D01*
X-8642440Y-3460000D01*
X-8598162Y-3695317D01*
X-8531671Y-3798646D01*
X-8533327Y-3800302D01*
X-8630000Y-4033691D01*
X-8630000Y-4274250D01*
X-8471250Y-4433000D01*
X-7747000Y-4433000D01*
X-7747000Y-4413000D01*
X-7493000Y-4413000D01*
X-7493000Y-4433000D01*
X-6768750Y-4433000D01*
X-6610000Y-4274250D01*
X-6610000Y-4033691D01*
X-6706673Y-3800302D01*
X-6708043Y-3798932D01*
X-6648569Y-3711890D01*
X-6597560Y-3460000D01*
X-6597560Y-2660000D01*
X-6641838Y-2424683D01*
X-6780910Y-2208559D01*
X-6993110Y-2063569D01*
X-7245000Y-2012560D01*
X-7457046Y-2012560D01*
X-7851999Y-1617607D01*
X-7795000Y-1331052D01*
X-7795000Y91052D01*
X-7811000Y171490D01*
X-7811000Y176396D01*
X-7807000Y175000D01*
X-7127000Y175000D01*
X-7127000Y953000D01*
X-7147000Y953000D01*
X-7147000Y975000D01*
X-6853000Y975000D01*
X-6853000Y953000D01*
X-6853000Y953000D01*
G37*
X-6853000Y953000D02*
X-6873000Y953000D01*
X-6873000Y175000D01*
X-6193000Y175000D01*
X-5856339Y292490D01*
X-5590266Y529871D01*
X-5573535Y565025D01*
X-4927600Y-80910D01*
X-4927600Y-1270000D01*
X-4871530Y-1551885D01*
X-4711855Y-1790855D01*
X-3568855Y-2933855D01*
X-3329885Y-3093530D01*
X-3048000Y-3149600D01*
X-2737712Y-3149600D01*
X-2946555Y-3289145D01*
X-5016810Y-5359400D01*
X-6746375Y-5359400D01*
X-6706673Y-5319698D01*
X-6610000Y-5086309D01*
X-6610000Y-4845750D01*
X-6768750Y-4687000D01*
X-7493000Y-4687000D01*
X-7493000Y-4707000D01*
X-7747000Y-4707000D01*
X-7747000Y-4687000D01*
X-8471250Y-4687000D01*
X-8546770Y-4762520D01*
X-8915400Y-4393890D01*
X-8915400Y-2924994D01*
X-8642440Y-3197954D01*
X-8642440Y-3460000D01*
X-8598162Y-3695317D01*
X-8531671Y-3798646D01*
X-8533327Y-3800302D01*
X-8630000Y-4033691D01*
X-8630000Y-4274250D01*
X-8471250Y-4433000D01*
X-7747000Y-4433000D01*
X-7747000Y-4413000D01*
X-7493000Y-4413000D01*
X-7493000Y-4433000D01*
X-6768750Y-4433000D01*
X-6610000Y-4274250D01*
X-6610000Y-4033691D01*
X-6706673Y-3800302D01*
X-6708043Y-3798932D01*
X-6648569Y-3711890D01*
X-6597560Y-3460000D01*
X-6597560Y-2660000D01*
X-6641838Y-2424683D01*
X-6780910Y-2208559D01*
X-6993110Y-2063569D01*
X-7245000Y-2012560D01*
X-7457046Y-2012560D01*
X-7851999Y-1617607D01*
X-7795000Y-1331052D01*
X-7795000Y91052D01*
X-7811000Y171490D01*
X-7811000Y176396D01*
X-7807000Y175000D01*
X-7127000Y175000D01*
X-7127000Y953000D01*
X-7147000Y953000D01*
X-7147000Y975000D01*
X-6853000Y975000D01*
X-6853000Y953000D01*
G36*
X-11404600Y-3988110D02*
X-11404600Y-5080000D01*
X-11399548Y-5105400D01*
X-11697908Y-5105400D01*
X-11690000Y-5086309D01*
X-11690000Y-4845750D01*
X-11848750Y-4687000D01*
X-12573000Y-4687000D01*
X-12573000Y-4707000D01*
X-12827000Y-4707000D01*
X-12827000Y-4687000D01*
X-12847000Y-4687000D01*
X-12847000Y-4433000D01*
X-12827000Y-4433000D01*
X-12827000Y-4413000D01*
X-12573000Y-4413000D01*
X-12573000Y-4433000D01*
X-11848750Y-4433000D01*
X-11690000Y-4274250D01*
X-11690000Y-4033691D01*
X-11786673Y-3800302D01*
X-11788043Y-3798932D01*
X-11728569Y-3711890D01*
X-11720528Y-3672182D01*
X-11404600Y-3988110D01*
X-11404600Y-3988110D01*
G37*
X-11404600Y-3988110D02*
X-11404600Y-5080000D01*
X-11399548Y-5105400D01*
X-11697908Y-5105400D01*
X-11690000Y-5086309D01*
X-11690000Y-4845750D01*
X-11848750Y-4687000D01*
X-12573000Y-4687000D01*
X-12573000Y-4707000D01*
X-12827000Y-4707000D01*
X-12827000Y-4687000D01*
X-12847000Y-4687000D01*
X-12847000Y-4433000D01*
X-12827000Y-4433000D01*
X-12827000Y-4413000D01*
X-12573000Y-4413000D01*
X-12573000Y-4433000D01*
X-11848750Y-4433000D01*
X-11690000Y-4274250D01*
X-11690000Y-4033691D01*
X-11786673Y-3800302D01*
X-11788043Y-3798932D01*
X-11728569Y-3711890D01*
X-11720528Y-3672182D01*
X-11404600Y-3988110D01*
G36*
X-3448685Y-680530D02*
X-3166800Y-736600D01*
X-2731957Y-736600D01*
X-2806876Y-881460D01*
X-2814720Y-926930D01*
X-2692220Y-1143000D01*
X-1397000Y-1143000D01*
X-1397000Y-1123000D01*
X-1143000Y-1123000D01*
X-1143000Y-1143000D01*
X-1123000Y-1143000D01*
X-1123000Y-1397000D01*
X-1143000Y-1397000D01*
X-1143000Y-1417000D01*
X-1397000Y-1417000D01*
X-1397000Y-1397000D01*
X-2692220Y-1397000D01*
X-2811645Y-1607645D01*
X-3454400Y-964890D01*
X-3454400Y-676711D01*
X-3448685Y-680530D01*
X-3448685Y-680530D01*
G37*
X-3448685Y-680530D02*
X-3166800Y-736600D01*
X-2731957Y-736600D01*
X-2806876Y-881460D01*
X-2814720Y-926930D01*
X-2692220Y-1143000D01*
X-1397000Y-1143000D01*
X-1397000Y-1123000D01*
X-1143000Y-1123000D01*
X-1143000Y-1143000D01*
X-1123000Y-1143000D01*
X-1123000Y-1397000D01*
X-1143000Y-1397000D01*
X-1143000Y-1417000D01*
X-1397000Y-1417000D01*
X-1397000Y-1397000D01*
X-2692220Y-1397000D01*
X-2811645Y-1607645D01*
X-3454400Y-964890D01*
X-3454400Y-676711D01*
X-3448685Y-680530D01*
G36*
X-32700000Y24130000D02*
X-32603327Y23643992D01*
X-32401446Y23341855D01*
X-32383162Y23244683D01*
X-32244090Y23028559D01*
X-32031890Y22883569D01*
X-31780000Y22832560D01*
X-31080000Y22832560D01*
X-30844683Y22876838D01*
X-30628559Y23015910D01*
X-30483569Y23228110D01*
X-30480919Y23241197D01*
X-30344090Y23028559D01*
X-30266600Y22975612D01*
X-30266600Y22418000D01*
X-30210530Y22136115D01*
X-30099002Y21969202D01*
X-30099067Y21894833D01*
X-33933112Y21894833D01*
X-34149167Y22110888D01*
X-34388137Y22270563D01*
X-34468561Y22286560D01*
X-34632568Y22450854D01*
X-35005855Y22605857D01*
X-35410045Y22606209D01*
X-35783603Y22451858D01*
X-36069658Y22166302D01*
X-36163950Y21939223D01*
X-36196012Y21945600D01*
X-36256727Y21945600D01*
X-36380731Y22069821D01*
X-36754018Y22224824D01*
X-37158208Y22225176D01*
X-37531766Y22070825D01*
X-37817821Y21785269D01*
X-37972824Y21411982D01*
X-37973176Y21007792D01*
X-37818825Y20634234D01*
X-37533269Y20348179D01*
X-37465001Y20319831D01*
X-37465176Y20118792D01*
X-37310825Y19745234D01*
X-37025269Y19459179D01*
X-36651982Y19304176D01*
X-36449412Y19304000D01*
X-36421825Y19237234D01*
X-36136269Y18951179D01*
X-35762982Y18796176D01*
X-35358792Y18795824D01*
X-34985234Y18950175D01*
X-34808930Y19126171D01*
X-24513976Y19126171D01*
X-24232091Y19182241D01*
X-23993121Y19341916D01*
X-22354637Y20980400D01*
X-20430774Y20980400D01*
X-20535184Y20681913D01*
X-20390924Y20447000D01*
X-19177000Y20447000D01*
X-19177000Y20467000D01*
X-18923000Y20467000D01*
X-18923000Y20447000D01*
X-18903000Y20447000D01*
X-18903000Y20193000D01*
X-18923000Y20193000D01*
X-18923000Y20173000D01*
X-19177000Y20173000D01*
X-19177000Y20193000D01*
X-20390924Y20193000D01*
X-20535184Y19958087D01*
X-20341954Y19405680D01*
X-19952036Y18969268D01*
X-19424791Y18715291D01*
X-19409026Y18712642D01*
X-19177002Y18833782D01*
X-19177002Y18669000D01*
X-19050310Y18669000D01*
X-21132800Y16586510D01*
X-21755807Y17209517D01*
X-21994777Y17369192D01*
X-22276662Y17425262D01*
X-22677721Y17425262D01*
X-22702882Y17558979D01*
X-22841954Y17775103D01*
X-23054154Y17920093D01*
X-23306044Y17971102D01*
X-26481044Y17971102D01*
X-26716361Y17926824D01*
X-26721275Y17923662D01*
X-27230576Y17923662D01*
X-27703190Y17829653D01*
X-28103853Y17561939D01*
X-28371567Y17161276D01*
X-28465576Y16688662D01*
X-28371567Y16216048D01*
X-28103853Y15815385D01*
X-27703190Y15547671D01*
X-27230576Y15453662D01*
X-26715310Y15453662D01*
X-26544730Y15419119D01*
X-26716361Y15386824D01*
X-26721275Y15383662D01*
X-27230576Y15383662D01*
X-27703190Y15289653D01*
X-28103853Y15021939D01*
X-28371567Y14621276D01*
X-28465576Y14148662D01*
X-28371567Y13676048D01*
X-28103853Y13275385D01*
X-27703190Y13007671D01*
X-27230576Y12913662D01*
X-26715310Y12913662D01*
X-26544730Y12879119D01*
X-26716361Y12846824D01*
X-26721275Y12843662D01*
X-27230576Y12843662D01*
X-27703190Y12749653D01*
X-28103853Y12481939D01*
X-28371567Y12081276D01*
X-28465576Y11608662D01*
X-28371567Y11136048D01*
X-28103853Y10735385D01*
X-27703190Y10467671D01*
X-27230576Y10373662D01*
X-26715310Y10373662D01*
X-26544730Y10339119D01*
X-26716361Y10306824D01*
X-26721275Y10303662D01*
X-27230576Y10303662D01*
X-27703190Y10209653D01*
X-28103853Y9941939D01*
X-28371567Y9541276D01*
X-28465576Y9068662D01*
X-28371567Y8596048D01*
X-28103853Y8195385D01*
X-27703190Y7927671D01*
X-27230576Y7833662D01*
X-26715310Y7833662D01*
X-26544730Y7799119D01*
X-26716361Y7766824D01*
X-26721275Y7763662D01*
X-27230576Y7763662D01*
X-27703190Y7669653D01*
X-28103853Y7401939D01*
X-28160449Y7317236D01*
X-28163882Y7335479D01*
X-28302954Y7551603D01*
X-28515154Y7696593D01*
X-28767044Y7747602D01*
X-29910044Y7747602D01*
X-30145361Y7703324D01*
X-30361485Y7564252D01*
X-30506475Y7352052D01*
X-30557484Y7100162D01*
X-30557484Y5957162D01*
X-30513206Y5721845D01*
X-30374134Y5505721D01*
X-30161934Y5360731D01*
X-29910044Y5309722D01*
X-28767044Y5309722D01*
X-28531727Y5354000D01*
X-28315603Y5493072D01*
X-28170613Y5705272D01*
X-28162839Y5743663D01*
X-28103853Y5655385D01*
X-27703190Y5387671D01*
X-27230576Y5293662D01*
X-26715310Y5293662D01*
X-26544730Y5259119D01*
X-26716361Y5226824D01*
X-26721275Y5223662D01*
X-27230576Y5223662D01*
X-27703190Y5129653D01*
X-28103853Y4861939D01*
X-28371567Y4461276D01*
X-28465576Y3988662D01*
X-28371567Y3516048D01*
X-28296432Y3403600D01*
X-34128572Y3403600D01*
X-42854489Y12129517D01*
X-43093459Y12289192D01*
X-43152261Y12300888D01*
X-43273235Y12481939D01*
X-43673898Y12749653D01*
X-44146512Y12843662D01*
X-44661778Y12843662D01*
X-44832358Y12878205D01*
X-44660727Y12910500D01*
X-44655813Y12913662D01*
X-44146512Y12913662D01*
X-43673898Y13007671D01*
X-43273235Y13275385D01*
X-43152261Y13456436D01*
X-43093459Y13468132D01*
X-42854489Y13627807D01*
X-38214145Y18268151D01*
X-38054470Y18507121D01*
X-37998400Y18789006D01*
X-37998400Y23267937D01*
X-37991309Y23265000D01*
X-37750750Y23265000D01*
X-37592000Y23423750D01*
X-37592000Y24673000D01*
X-37338000Y24673000D01*
X-37338000Y23423750D01*
X-37179250Y23265000D01*
X-36938691Y23265000D01*
X-36705302Y23361673D01*
X-36526673Y23540301D01*
X-36430000Y23773690D01*
X-36430000Y24514250D01*
X-36588750Y24673000D01*
X-37338000Y24673000D01*
X-37592000Y24673000D01*
X-37612000Y24673000D01*
X-37612000Y24927000D01*
X-37592000Y24927000D01*
X-37592000Y24947000D01*
X-37338000Y24947000D01*
X-37338000Y24927000D01*
X-36588750Y24927000D01*
X-36430000Y25085750D01*
X-36430000Y25527000D01*
X-32700000Y25527000D01*
X-32700000Y24130000D01*
X-32700000Y24130000D01*
G37*
X-32700000Y24130000D02*
X-32603327Y23643992D01*
X-32401446Y23341855D01*
X-32383162Y23244683D01*
X-32244090Y23028559D01*
X-32031890Y22883569D01*
X-31780000Y22832560D01*
X-31080000Y22832560D01*
X-30844683Y22876838D01*
X-30628559Y23015910D01*
X-30483569Y23228110D01*
X-30480919Y23241197D01*
X-30344090Y23028559D01*
X-30266600Y22975612D01*
X-30266600Y22418000D01*
X-30210530Y22136115D01*
X-30099002Y21969202D01*
X-30099067Y21894833D01*
X-33933112Y21894833D01*
X-34149167Y22110888D01*
X-34388137Y22270563D01*
X-34468561Y22286560D01*
X-34632568Y22450854D01*
X-35005855Y22605857D01*
X-35410045Y22606209D01*
X-35783603Y22451858D01*
X-36069658Y22166302D01*
X-36163950Y21939223D01*
X-36196012Y21945600D01*
X-36256727Y21945600D01*
X-36380731Y22069821D01*
X-36754018Y22224824D01*
X-37158208Y22225176D01*
X-37531766Y22070825D01*
X-37817821Y21785269D01*
X-37972824Y21411982D01*
X-37973176Y21007792D01*
X-37818825Y20634234D01*
X-37533269Y20348179D01*
X-37465001Y20319831D01*
X-37465176Y20118792D01*
X-37310825Y19745234D01*
X-37025269Y19459179D01*
X-36651982Y19304176D01*
X-36449412Y19304000D01*
X-36421825Y19237234D01*
X-36136269Y18951179D01*
X-35762982Y18796176D01*
X-35358792Y18795824D01*
X-34985234Y18950175D01*
X-34808930Y19126171D01*
X-24513976Y19126171D01*
X-24232091Y19182241D01*
X-23993121Y19341916D01*
X-22354637Y20980400D01*
X-20430774Y20980400D01*
X-20535184Y20681913D01*
X-20390924Y20447000D01*
X-19177000Y20447000D01*
X-19177000Y20467000D01*
X-18923000Y20467000D01*
X-18923000Y20447000D01*
X-18903000Y20447000D01*
X-18903000Y20193000D01*
X-18923000Y20193000D01*
X-18923000Y20173000D01*
X-19177000Y20173000D01*
X-19177000Y20193000D01*
X-20390924Y20193000D01*
X-20535184Y19958087D01*
X-20341954Y19405680D01*
X-19952036Y18969268D01*
X-19424791Y18715291D01*
X-19409026Y18712642D01*
X-19177002Y18833782D01*
X-19177002Y18669000D01*
X-19050310Y18669000D01*
X-21132800Y16586510D01*
X-21755807Y17209517D01*
X-21994777Y17369192D01*
X-22276662Y17425262D01*
X-22677721Y17425262D01*
X-22702882Y17558979D01*
X-22841954Y17775103D01*
X-23054154Y17920093D01*
X-23306044Y17971102D01*
X-26481044Y17971102D01*
X-26716361Y17926824D01*
X-26721275Y17923662D01*
X-27230576Y17923662D01*
X-27703190Y17829653D01*
X-28103853Y17561939D01*
X-28371567Y17161276D01*
X-28465576Y16688662D01*
X-28371567Y16216048D01*
X-28103853Y15815385D01*
X-27703190Y15547671D01*
X-27230576Y15453662D01*
X-26715310Y15453662D01*
X-26544730Y15419119D01*
X-26716361Y15386824D01*
X-26721275Y15383662D01*
X-27230576Y15383662D01*
X-27703190Y15289653D01*
X-28103853Y15021939D01*
X-28371567Y14621276D01*
X-28465576Y14148662D01*
X-28371567Y13676048D01*
X-28103853Y13275385D01*
X-27703190Y13007671D01*
X-27230576Y12913662D01*
X-26715310Y12913662D01*
X-26544730Y12879119D01*
X-26716361Y12846824D01*
X-26721275Y12843662D01*
X-27230576Y12843662D01*
X-27703190Y12749653D01*
X-28103853Y12481939D01*
X-28371567Y12081276D01*
X-28465576Y11608662D01*
X-28371567Y11136048D01*
X-28103853Y10735385D01*
X-27703190Y10467671D01*
X-27230576Y10373662D01*
X-26715310Y10373662D01*
X-26544730Y10339119D01*
X-26716361Y10306824D01*
X-26721275Y10303662D01*
X-27230576Y10303662D01*
X-27703190Y10209653D01*
X-28103853Y9941939D01*
X-28371567Y9541276D01*
X-28465576Y9068662D01*
X-28371567Y8596048D01*
X-28103853Y8195385D01*
X-27703190Y7927671D01*
X-27230576Y7833662D01*
X-26715310Y7833662D01*
X-26544730Y7799119D01*
X-26716361Y7766824D01*
X-26721275Y7763662D01*
X-27230576Y7763662D01*
X-27703190Y7669653D01*
X-28103853Y7401939D01*
X-28160449Y7317236D01*
X-28163882Y7335479D01*
X-28302954Y7551603D01*
X-28515154Y7696593D01*
X-28767044Y7747602D01*
X-29910044Y7747602D01*
X-30145361Y7703324D01*
X-30361485Y7564252D01*
X-30506475Y7352052D01*
X-30557484Y7100162D01*
X-30557484Y5957162D01*
X-30513206Y5721845D01*
X-30374134Y5505721D01*
X-30161934Y5360731D01*
X-29910044Y5309722D01*
X-28767044Y5309722D01*
X-28531727Y5354000D01*
X-28315603Y5493072D01*
X-28170613Y5705272D01*
X-28162839Y5743663D01*
X-28103853Y5655385D01*
X-27703190Y5387671D01*
X-27230576Y5293662D01*
X-26715310Y5293662D01*
X-26544730Y5259119D01*
X-26716361Y5226824D01*
X-26721275Y5223662D01*
X-27230576Y5223662D01*
X-27703190Y5129653D01*
X-28103853Y4861939D01*
X-28371567Y4461276D01*
X-28465576Y3988662D01*
X-28371567Y3516048D01*
X-28296432Y3403600D01*
X-34128572Y3403600D01*
X-42854489Y12129517D01*
X-43093459Y12289192D01*
X-43152261Y12300888D01*
X-43273235Y12481939D01*
X-43673898Y12749653D01*
X-44146512Y12843662D01*
X-44661778Y12843662D01*
X-44832358Y12878205D01*
X-44660727Y12910500D01*
X-44655813Y12913662D01*
X-44146512Y12913662D01*
X-43673898Y13007671D01*
X-43273235Y13275385D01*
X-43152261Y13456436D01*
X-43093459Y13468132D01*
X-42854489Y13627807D01*
X-38214145Y18268151D01*
X-38054470Y18507121D01*
X-37998400Y18789006D01*
X-37998400Y23267937D01*
X-37991309Y23265000D01*
X-37750750Y23265000D01*
X-37592000Y23423750D01*
X-37592000Y24673000D01*
X-37338000Y24673000D01*
X-37338000Y23423750D01*
X-37179250Y23265000D01*
X-36938691Y23265000D01*
X-36705302Y23361673D01*
X-36526673Y23540301D01*
X-36430000Y23773690D01*
X-36430000Y24514250D01*
X-36588750Y24673000D01*
X-37338000Y24673000D01*
X-37592000Y24673000D01*
X-37612000Y24673000D01*
X-37612000Y24927000D01*
X-37592000Y24927000D01*
X-37592000Y24947000D01*
X-37338000Y24947000D01*
X-37338000Y24927000D01*
X-36588750Y24927000D01*
X-36430000Y25085750D01*
X-36430000Y25527000D01*
X-32700000Y25527000D01*
X-32700000Y24130000D01*
G36*
X-2806876Y9278540D02*
X-2814720Y9233070D01*
X-2692220Y9017000D01*
X-1397000Y9017000D01*
X-1397000Y9037000D01*
X-1143000Y9037000D01*
X-1143000Y9017000D01*
X-1123000Y9017000D01*
X-1123000Y8763000D01*
X-1143000Y8763000D01*
X-1143000Y8743000D01*
X-1397000Y8743000D01*
X-1397000Y8763000D01*
X-2692220Y8763000D01*
X-2814720Y8546930D01*
X-2806876Y8501460D01*
X-2555701Y8015800D01*
X-2137792Y7663229D01*
X-2039328Y7631895D01*
X-2479429Y7337828D01*
X-2647295Y7086600D01*
X-3250890Y7086600D01*
X-4165145Y8000855D01*
X-4404115Y8160530D01*
X-4686000Y8216600D01*
X-5396559Y8216600D01*
X-5383948Y8280000D01*
X-5452837Y8626329D01*
X-5488699Y8680000D01*
X-5452837Y8733671D01*
X-5383948Y9080000D01*
X-5452837Y9426329D01*
X-5535738Y9550400D01*
X-2666275Y9550400D01*
X-2806876Y9278540D01*
X-2806876Y9278540D01*
G37*
X-2806876Y9278540D02*
X-2814720Y9233070D01*
X-2692220Y9017000D01*
X-1397000Y9017000D01*
X-1397000Y9037000D01*
X-1143000Y9037000D01*
X-1143000Y9017000D01*
X-1123000Y9017000D01*
X-1123000Y8763000D01*
X-1143000Y8763000D01*
X-1143000Y8743000D01*
X-1397000Y8743000D01*
X-1397000Y8763000D01*
X-2692220Y8763000D01*
X-2814720Y8546930D01*
X-2806876Y8501460D01*
X-2555701Y8015800D01*
X-2137792Y7663229D01*
X-2039328Y7631895D01*
X-2479429Y7337828D01*
X-2647295Y7086600D01*
X-3250890Y7086600D01*
X-4165145Y8000855D01*
X-4404115Y8160530D01*
X-4686000Y8216600D01*
X-5396559Y8216600D01*
X-5383948Y8280000D01*
X-5452837Y8626329D01*
X-5488699Y8680000D01*
X-5452837Y8733671D01*
X-5383948Y9080000D01*
X-5452837Y9426329D01*
X-5535738Y9550400D01*
X-2666275Y9550400D01*
X-2806876Y9278540D01*
G36*
X-15032576Y19079934D02*
X-15633855Y18478655D01*
X-15793530Y18239685D01*
X-15849600Y17957800D01*
X-15836600Y17892444D01*
X-15836600Y15683718D01*
X-16008690Y15755000D01*
X-16224250Y15755000D01*
X-16383000Y15596250D01*
X-16383000Y14847000D01*
X-16363000Y14847000D01*
X-16363000Y14593000D01*
X-16383000Y14593000D01*
X-16383000Y14573000D01*
X-16637000Y14573000D01*
X-16637000Y14593000D01*
X-17361250Y14593000D01*
X-17520000Y14434250D01*
X-17520000Y14193691D01*
X-17423327Y13960302D01*
X-17421957Y13958932D01*
X-17481431Y13871890D01*
X-17532440Y13620000D01*
X-17532440Y13058958D01*
X-17538200Y13030000D01*
X-17538200Y11826879D01*
X-17605000Y11491052D01*
X-17605000Y10068948D01*
X-17589000Y9988510D01*
X-17589000Y9983604D01*
X-17593000Y9985000D01*
X-18273000Y9985000D01*
X-18273000Y9207000D01*
X-18253000Y9207000D01*
X-18253000Y9185000D01*
X-18547000Y9185000D01*
X-18547000Y9207000D01*
X-18527000Y9207000D01*
X-18527000Y9985000D01*
X-19207000Y9985000D01*
X-19543661Y9867510D01*
X-19809734Y9630129D01*
X-19826465Y9594975D01*
X-19964400Y9732910D01*
X-19964400Y15246309D01*
X-17520000Y15246309D01*
X-17520000Y15005750D01*
X-17361250Y14847000D01*
X-16637000Y14847000D01*
X-16637000Y15596250D01*
X-16795750Y15755000D01*
X-17011310Y15755000D01*
X-17244699Y15658327D01*
X-17423327Y15479698D01*
X-17520000Y15246309D01*
X-19964400Y15246309D01*
X-19964400Y15671490D01*
X-16918066Y18717824D01*
X-16510000Y18636655D01*
X-15936511Y18750729D01*
X-15450330Y19075585D01*
X-15240000Y19390366D01*
X-15032576Y19079934D01*
X-15032576Y19079934D01*
G37*
X-15032576Y19079934D02*
X-15633855Y18478655D01*
X-15793530Y18239685D01*
X-15849600Y17957800D01*
X-15836600Y17892444D01*
X-15836600Y15683718D01*
X-16008690Y15755000D01*
X-16224250Y15755000D01*
X-16383000Y15596250D01*
X-16383000Y14847000D01*
X-16363000Y14847000D01*
X-16363000Y14593000D01*
X-16383000Y14593000D01*
X-16383000Y14573000D01*
X-16637000Y14573000D01*
X-16637000Y14593000D01*
X-17361250Y14593000D01*
X-17520000Y14434250D01*
X-17520000Y14193691D01*
X-17423327Y13960302D01*
X-17421957Y13958932D01*
X-17481431Y13871890D01*
X-17532440Y13620000D01*
X-17532440Y13058958D01*
X-17538200Y13030000D01*
X-17538200Y11826879D01*
X-17605000Y11491052D01*
X-17605000Y10068948D01*
X-17589000Y9988510D01*
X-17589000Y9983604D01*
X-17593000Y9985000D01*
X-18273000Y9985000D01*
X-18273000Y9207000D01*
X-18253000Y9207000D01*
X-18253000Y9185000D01*
X-18547000Y9185000D01*
X-18547000Y9207000D01*
X-18527000Y9207000D01*
X-18527000Y9985000D01*
X-19207000Y9985000D01*
X-19543661Y9867510D01*
X-19809734Y9630129D01*
X-19826465Y9594975D01*
X-19964400Y9732910D01*
X-19964400Y15246309D01*
X-17520000Y15246309D01*
X-17520000Y15005750D01*
X-17361250Y14847000D01*
X-16637000Y14847000D01*
X-16637000Y15596250D01*
X-16795750Y15755000D01*
X-17011310Y15755000D01*
X-17244699Y15658327D01*
X-17423327Y15479698D01*
X-17520000Y15246309D01*
X-19964400Y15246309D01*
X-19964400Y15671490D01*
X-16918066Y18717824D01*
X-16510000Y18636655D01*
X-15936511Y18750729D01*
X-15450330Y19075585D01*
X-15240000Y19390366D01*
X-15032576Y19079934D01*
G36*
X-7816762Y19068683D02*
X-7677690Y18852559D01*
X-7620000Y18813141D01*
X-7620000Y18451051D01*
X-11581052Y14490000D01*
X-11745750Y14490000D01*
X-11848750Y14593000D01*
X-12573000Y14593000D01*
X-12573000Y14573000D01*
X-12827000Y14573000D01*
X-12827000Y14593000D01*
X-12847000Y14593000D01*
X-12847000Y14847000D01*
X-12827000Y14847000D01*
X-12827000Y15596250D01*
X-12573000Y15596250D01*
X-12573000Y14847000D01*
X-11848750Y14847000D01*
X-11690000Y15005750D01*
X-11690000Y15246309D01*
X-11786673Y15479698D01*
X-11965301Y15658327D01*
X-12198690Y15755000D01*
X-12414250Y15755000D01*
X-12573000Y15596250D01*
X-12827000Y15596250D01*
X-12903210Y15672460D01*
X-12903210Y16662080D01*
X-12267890Y17297400D01*
X-11023600Y17297400D01*
X-10741715Y17353470D01*
X-10502745Y17513145D01*
X-9298066Y18717824D01*
X-8890000Y18636655D01*
X-8316511Y18750729D01*
X-7830330Y19075585D01*
X-7820757Y19089913D01*
X-7816762Y19068683D01*
X-7816762Y19068683D01*
G37*
X-7816762Y19068683D02*
X-7677690Y18852559D01*
X-7620000Y18813141D01*
X-7620000Y18451051D01*
X-11581052Y14490000D01*
X-11745750Y14490000D01*
X-11848750Y14593000D01*
X-12573000Y14593000D01*
X-12573000Y14573000D01*
X-12827000Y14573000D01*
X-12827000Y14593000D01*
X-12847000Y14593000D01*
X-12847000Y14847000D01*
X-12827000Y14847000D01*
X-12827000Y15596250D01*
X-12573000Y15596250D01*
X-12573000Y14847000D01*
X-11848750Y14847000D01*
X-11690000Y15005750D01*
X-11690000Y15246309D01*
X-11786673Y15479698D01*
X-11965301Y15658327D01*
X-12198690Y15755000D01*
X-12414250Y15755000D01*
X-12573000Y15596250D01*
X-12827000Y15596250D01*
X-12903210Y15672460D01*
X-12903210Y16662080D01*
X-12267890Y17297400D01*
X-11023600Y17297400D01*
X-10741715Y17353470D01*
X-10502745Y17513145D01*
X-9298066Y18717824D01*
X-8890000Y18636655D01*
X-8316511Y18750729D01*
X-7830330Y19075585D01*
X-7820757Y19089913D01*
X-7816762Y19068683D01*
G36*
X-25247877Y21894833D02*
X-28067066Y21894833D01*
X-28066824Y22172208D01*
X-28221175Y22545766D01*
X-28506731Y22831821D01*
X-28793400Y22950857D01*
X-28793400Y22974186D01*
X-28728559Y23015910D01*
X-28583569Y23228110D01*
X-28550097Y23393400D01*
X-28240162Y23393400D01*
X-28134090Y23228559D01*
X-27921890Y23083569D01*
X-27670000Y23032560D01*
X-27170000Y23032560D01*
X-26934683Y23076838D01*
X-26718559Y23215910D01*
X-26672031Y23284006D01*
X-26529698Y23141673D01*
X-26296309Y23045000D01*
X-26203750Y23045000D01*
X-26045000Y23203750D01*
X-26045000Y24003000D01*
X-25795000Y24003000D01*
X-25795000Y23203750D01*
X-25636250Y23045000D01*
X-25543691Y23045000D01*
X-25310302Y23141673D01*
X-25131673Y23320301D01*
X-25035000Y23553690D01*
X-25035000Y23844250D01*
X-25193750Y24003000D01*
X-25795000Y24003000D01*
X-26045000Y24003000D01*
X-26067000Y24003000D01*
X-26067000Y24257000D01*
X-26045000Y24257000D01*
X-26045000Y25056250D01*
X-25795000Y25056250D01*
X-25795000Y24257000D01*
X-25193750Y24257000D01*
X-25035000Y24415750D01*
X-25035000Y24706310D01*
X-25131673Y24939699D01*
X-25310302Y25118327D01*
X-25543691Y25215000D01*
X-25636250Y25215000D01*
X-25795000Y25056250D01*
X-26045000Y25056250D01*
X-26203750Y25215000D01*
X-26296309Y25215000D01*
X-26529698Y25118327D01*
X-26670936Y24977090D01*
X-26705910Y25031441D01*
X-26918110Y25176431D01*
X-27170000Y25227440D01*
X-27670000Y25227440D01*
X-27905317Y25183162D01*
X-28121441Y25044090D01*
X-28242715Y24866600D01*
X-28548855Y24866600D01*
X-28576838Y25015317D01*
X-28715910Y25231441D01*
X-28928110Y25376431D01*
X-29180000Y25427440D01*
X-29880000Y25427440D01*
X-30115317Y25383162D01*
X-30160000Y25354409D01*
X-30160000Y25527000D01*
X-21615710Y25527000D01*
X-25247877Y21894833D01*
X-25247877Y21894833D01*
G37*
X-25247877Y21894833D02*
X-28067066Y21894833D01*
X-28066824Y22172208D01*
X-28221175Y22545766D01*
X-28506731Y22831821D01*
X-28793400Y22950857D01*
X-28793400Y22974186D01*
X-28728559Y23015910D01*
X-28583569Y23228110D01*
X-28550097Y23393400D01*
X-28240162Y23393400D01*
X-28134090Y23228559D01*
X-27921890Y23083569D01*
X-27670000Y23032560D01*
X-27170000Y23032560D01*
X-26934683Y23076838D01*
X-26718559Y23215910D01*
X-26672031Y23284006D01*
X-26529698Y23141673D01*
X-26296309Y23045000D01*
X-26203750Y23045000D01*
X-26045000Y23203750D01*
X-26045000Y24003000D01*
X-25795000Y24003000D01*
X-25795000Y23203750D01*
X-25636250Y23045000D01*
X-25543691Y23045000D01*
X-25310302Y23141673D01*
X-25131673Y23320301D01*
X-25035000Y23553690D01*
X-25035000Y23844250D01*
X-25193750Y24003000D01*
X-25795000Y24003000D01*
X-26045000Y24003000D01*
X-26067000Y24003000D01*
X-26067000Y24257000D01*
X-26045000Y24257000D01*
X-26045000Y25056250D01*
X-25795000Y25056250D01*
X-25795000Y24257000D01*
X-25193750Y24257000D01*
X-25035000Y24415750D01*
X-25035000Y24706310D01*
X-25131673Y24939699D01*
X-25310302Y25118327D01*
X-25543691Y25215000D01*
X-25636250Y25215000D01*
X-25795000Y25056250D01*
X-26045000Y25056250D01*
X-26203750Y25215000D01*
X-26296309Y25215000D01*
X-26529698Y25118327D01*
X-26670936Y24977090D01*
X-26705910Y25031441D01*
X-26918110Y25176431D01*
X-27170000Y25227440D01*
X-27670000Y25227440D01*
X-27905317Y25183162D01*
X-28121441Y25044090D01*
X-28242715Y24866600D01*
X-28548855Y24866600D01*
X-28576838Y25015317D01*
X-28715910Y25231441D01*
X-28928110Y25376431D01*
X-29180000Y25427440D01*
X-29880000Y25427440D01*
X-30115317Y25383162D01*
X-30160000Y25354409D01*
X-30160000Y25527000D01*
X-21615710Y25527000D01*
X-25247877Y21894833D01*
G36*
X-42310000Y25085750D02*
X-42151250Y24927000D01*
X-41402000Y24927000D01*
X-41402000Y24947000D01*
X-41148000Y24947000D01*
X-41148000Y24927000D01*
X-41128000Y24927000D01*
X-41128000Y24673000D01*
X-41148000Y24673000D01*
X-41148000Y24653000D01*
X-41402000Y24653000D01*
X-41402000Y24673000D01*
X-42151250Y24673000D01*
X-42310000Y24514250D01*
X-42310000Y23773690D01*
X-42213327Y23540301D01*
X-42034698Y23361673D01*
X-41927331Y23317200D01*
X-42324806Y23317200D01*
X-42460303Y23452697D01*
X-42732234Y23634396D01*
X-43053000Y23698200D01*
X-44131800Y23698200D01*
X-44131800Y23917390D01*
X-44118559Y23925910D01*
X-43973569Y24138110D01*
X-43922560Y24390000D01*
X-43922560Y25140000D01*
X-43966838Y25375317D01*
X-44064443Y25527000D01*
X-42310000Y25527000D01*
X-42310000Y25085750D01*
X-42310000Y25085750D01*
G37*
X-42310000Y25085750D02*
X-42151250Y24927000D01*
X-41402000Y24927000D01*
X-41402000Y24947000D01*
X-41148000Y24947000D01*
X-41148000Y24927000D01*
X-41128000Y24927000D01*
X-41128000Y24673000D01*
X-41148000Y24673000D01*
X-41148000Y24653000D01*
X-41402000Y24653000D01*
X-41402000Y24673000D01*
X-42151250Y24673000D01*
X-42310000Y24514250D01*
X-42310000Y23773690D01*
X-42213327Y23540301D01*
X-42034698Y23361673D01*
X-41927331Y23317200D01*
X-42324806Y23317200D01*
X-42460303Y23452697D01*
X-42732234Y23634396D01*
X-43053000Y23698200D01*
X-44131800Y23698200D01*
X-44131800Y23917390D01*
X-44118559Y23925910D01*
X-43973569Y24138110D01*
X-43922560Y24390000D01*
X-43922560Y25140000D01*
X-43966838Y25375317D01*
X-44064443Y25527000D01*
X-42310000Y25527000D01*
X-42310000Y25085750D01*
G36*
X-20535184Y24491913D02*
X-20390924Y24257000D01*
X-19177000Y24257000D01*
X-19177000Y24277000D01*
X-18923000Y24277000D01*
X-18923000Y24257000D01*
X-18903000Y24257000D01*
X-18903000Y24003000D01*
X-18923000Y24003000D01*
X-18923000Y23983000D01*
X-19177000Y23983000D01*
X-19177000Y24003000D01*
X-20390924Y24003000D01*
X-20535184Y23768087D01*
X-20439663Y23495011D01*
X-21564279Y23495011D01*
X-20517865Y24541425D01*
X-20535184Y24491913D01*
X-20535184Y24491913D01*
G37*
X-20535184Y24491913D02*
X-20390924Y24257000D01*
X-19177000Y24257000D01*
X-19177000Y24277000D01*
X-18923000Y24277000D01*
X-18923000Y24257000D01*
X-18903000Y24257000D01*
X-18903000Y24003000D01*
X-18923000Y24003000D01*
X-18923000Y23983000D01*
X-19177000Y23983000D01*
X-19177000Y24003000D01*
X-20390924Y24003000D01*
X-20535184Y23768087D01*
X-20439663Y23495011D01*
X-21564279Y23495011D01*
X-20517865Y24541425D01*
X-20535184Y24491913D01*
G36*
X-47408327Y25499699D02*
X-47505000Y25266310D01*
X-47505000Y25050750D01*
X-47346250Y24892000D01*
X-46597000Y24892000D01*
X-46597000Y24912000D01*
X-46343000Y24912000D01*
X-46343000Y24892000D01*
X-46323000Y24892000D01*
X-46323000Y24638000D01*
X-46343000Y24638000D01*
X-46343000Y24618000D01*
X-46597000Y24618000D01*
X-46597000Y24638000D01*
X-47346250Y24638000D01*
X-47505000Y24479250D01*
X-47505000Y24263690D01*
X-47449624Y24130000D01*
X-47625000Y24130000D01*
X-47625000Y25527000D01*
X-47381026Y25527000D01*
X-47408327Y25499699D01*
X-47408327Y25499699D01*
G37*
X-47408327Y25499699D02*
X-47505000Y25266310D01*
X-47505000Y25050750D01*
X-47346250Y24892000D01*
X-46597000Y24892000D01*
X-46597000Y24912000D01*
X-46343000Y24912000D01*
X-46343000Y24892000D01*
X-46323000Y24892000D01*
X-46323000Y24638000D01*
X-46343000Y24638000D01*
X-46343000Y24618000D01*
X-46597000Y24618000D01*
X-46597000Y24638000D01*
X-47346250Y24638000D01*
X-47505000Y24479250D01*
X-47505000Y24263690D01*
X-47449624Y24130000D01*
X-47625000Y24130000D01*
X-47625000Y25527000D01*
X-47381026Y25527000D01*
X-47408327Y25499699D01*
M02*
