M48
;DRILL file {KiCad 4.0.4-stable} date 01/08/17 17:33:35
;FORMAT={2:4/ absolute / inch / suppress leading zeros}
FMAT,2
INCH,TZ
T1C0.015
T2C0.020
T3C0.039
T4C0.040
T5C0.067
T6C0.104
T7C0.138
%
G90
G05
M72
T1
X24700Y-37050
X24700Y-37400
X24700Y-37750
X24700Y-38100
X24700Y-38450
X24700Y-38800
X25050Y-37050
X25050Y-37400
X25050Y-37750
X25050Y-38100
X25050Y-38450
X25050Y-38800
X25400Y-37050
X25400Y-37400
X25400Y-37750
X25400Y-38100
X25400Y-38450
X25400Y-38800
X25750Y-37050
X25750Y-37400
X25750Y-37750
X25750Y-38100
X25750Y-38450
X25750Y-38800
X27700Y-37400
X27700Y-37750
X27700Y-38100
X27700Y-38450
X27700Y-38800
X27700Y-39150
X28050Y-37400
X28050Y-37750
X28050Y-38100
X28050Y-38450
X28050Y-38800
X28050Y-39150
X28400Y-37750
X28400Y-38100
X28400Y-38450
X28400Y-38800
X28400Y-39150
X28750Y-38100
X28750Y-38450
X28750Y-38800
X28750Y-39150
X29100Y-38450
X29100Y-38800
X29100Y-39150
X29500Y-38800
X29500Y-39150
X30500Y-23250
X30500Y-26450
X32450Y-28100
X32474Y-40650
X32800Y-28100
X33300Y-25200
X33500Y-28750
X33750Y-24850
X33800Y-26500
X38650Y-39000
X39550Y-33700
X39550Y-39000
X39750Y-44500
X40000Y-26200
X40450Y-29450
X40450Y-30050
X40500Y-27300
X40500Y-27900
X40500Y-28250
X40850Y-30050
X41250Y-33250
X41250Y-39000
X41300Y-30150
X42750Y-36750
X44200Y-29000
X44500Y-29000
X44800Y-29000
X45700Y-41500
X46850Y-42050
T2
X21360Y-38902
X21663Y-38171
X21663Y-39632
X22394Y-37868
X22394Y-39935
X23124Y-38171
X23124Y-39632
X23427Y-38902
X44967Y-24500
X44967Y-44000
X45269Y-23769
X45269Y-25231
X45269Y-43269
X45269Y-44731
X46000Y-23467
X46000Y-25533
X46000Y-42967
X46000Y-45033
X46731Y-23769
X46731Y-25231
X46731Y-43269
X46731Y-44731
X47033Y-24500
X47033Y-44000
T4
X31500Y-24250
X31500Y-31250
X32500Y-24250
X32500Y-31250
X33500Y-24250
X33500Y-31250
X34500Y-24250
X34500Y-31250
X35500Y-24250
X35500Y-31250
X36500Y-24250
X36500Y-31250
X37500Y-24250
X37500Y-31250
X38500Y-24250
X38500Y-31250
X39500Y-24250
X39500Y-31250
X40500Y-24250
X40500Y-31250
X41500Y-24250
X41500Y-31250
X42500Y-24250
X42500Y-31250
X42500Y-40000
X42500Y-41000
X42500Y-42000
X42500Y-43000
X42500Y-44000
X42500Y-45000
X43500Y-40000
X43500Y-41000
X43500Y-42000
X43500Y-43000
X43500Y-44000
X43500Y-45000
X45500Y-32000
X45500Y-33000
X45500Y-34000
X45500Y-35000
X45500Y-36000
X45500Y-37000
X45500Y-38000
X45500Y-39000
X46500Y-32000
X46500Y-33000
X46500Y-34000
X46500Y-35000
X46500Y-36000
X46500Y-37000
X46500Y-38000
X46500Y-39000
X47000Y-27000
X47000Y-28000
X47000Y-29000
T5
X21500Y-24500
X21500Y-28000
X21500Y-31500
X21500Y-35000
T6
X25500Y-24500
X25500Y-28000
X25500Y-31500
X25500Y-35000
T7
X22394Y-38902
X46000Y-24500
X46000Y-44000
T3
X23079Y-43492G85X23079Y-42508
G05
X23768Y-44850G85X24752Y-44850
G05
X25441Y-42508G85X25441Y-43492
G05
T0
M30
