M48
;DRILL file {KiCad 4.0.1-stable} date 7/4/2016 23:44:51
;FORMAT={2:4/ absolute / inch / suppress leading zeros}
FMAT,2
INCH,TZ
T1C0.015
T2C0.020
T3C0.040
T4C0.067
T5C0.104
T6C0.138
T7C0.140
T8C0.138
%
G90
G05
M72
T1
X-18501Y10070
X-16500Y5550
X-16250Y9160
X-16250Y5800
X-16250Y5300
X-16000Y6050
X-16000Y5550
X-15750Y6300
X-15750Y5800
X-15500Y6550
X-15500Y6050
X-15400Y3400
X-15250Y6800
X-15000Y7050
X-14750Y9150
X-14550Y8350
X-14350Y8000
X-14000Y7800
X-13862Y8500
X-13400Y7400
X-12200Y7400
X-12200Y7050
X-12200Y6700
X-12200Y6350
X-12200Y6000
X-11850Y7400
X-11850Y7050
X-11850Y6700
X-11850Y6350
X-11850Y6000
X-11450Y8650
X-10900Y7400
X-10550Y7400
X-9700Y9500
X-8750Y1050
X-8500Y1550
X-7250Y3950
X-6950Y5800
X-6400Y7100
X-6250Y3600
X-6200Y-2000
X-5950Y-2300
X-5330Y457
X-4670Y3671
X-4550Y5800
X-4550Y-1800
X-4360Y3150
X-3750Y450
X-3450Y-1800
X-3450Y-3650
X-3450Y-4000
X-3450Y-4350
X-3450Y-6650
X-3450Y-7000
X-3450Y-7350
X-3400Y1200
X-2750Y50
T2
X-1033Y9000
X-1000Y-7000
X-731Y9731
X-731Y8269
X-697Y-6269
X-697Y-7731
X0Y10033
X0Y7967
X33Y-5967
X33Y-8033
X731Y9731
X731Y8269
X764Y-6269
X764Y-7731
X1033Y9000
X1067Y-7000
T3
X-17551Y6570
X-17551Y5570
X-17551Y4570
X-17551Y3570
X-17551Y2570
X-17551Y1570
X-17551Y570
X-17551Y-430
X-17551Y-1430
X-17551Y-2430
X-17551Y-3430
X-17551Y-4430
X-10551Y6570
X-10551Y5570
X-10551Y4570
X-10551Y3570
X-10551Y2570
X-10551Y1570
X-10551Y570
X-10551Y-430
X-10551Y-1430
X-10551Y-2430
X-10551Y-3430
X-10551Y-4430
X-7500Y9500
X-7500Y8000
X-6500Y9500
X-6500Y8000
X-5500Y9500
X-5500Y8000
X-4500Y9500
X-4500Y8000
X-3500Y9500
X-3500Y8000
X-2500Y9500
X-2500Y8000
X-500Y3500
X-500Y2500
X-500Y1500
X-500Y500
X-500Y-500
X-500Y-1500
X-500Y-2500
X-500Y-3500
X500Y3500
X500Y2500
X500Y1500
X500Y500
X500Y-500
X500Y-1500
X500Y-2500
X500Y-3500
T4
X-24500Y9000
X-24500Y5500
X-24500Y2000
X-24500Y-1500
T5
X-20500Y9000
X-20500Y5500
X-20500Y2000
X-20500Y-1500
T6
X0Y9000
X33Y-7000
T7
X-23098Y-6500
X-21819Y-4650
X-20500Y-6500
T8
X-24500Y-4000
X-22500Y9500
T0
M30
