M48
;DRILL file {KiCad 4.0.0-rc2-stable} date 11/29/2015 17:05:25
;FORMAT={2:4/ absolute / inch / suppress leading zeros}
FMAT,2
INCH,TZ
T1C0.015
T2C0.031
T3C0.039
T4C0.065
T5C0.138
%
G90
G05
M72
T1
X-16250Y14000
X-15700Y2550
X-13500Y10000
X-13500Y8750
X-13250Y3500
X-12500Y10000
X-12500Y8750
X-11750Y1500
X-11000Y500
X-10550Y-800
X-9950Y50
X-9500Y1850
X-9450Y650
X-9250Y-1900
X-8200Y800
X-8150Y1550
X-7877Y300
X-7750Y-1250
X-7500Y11000
X-7350Y-400
X-6250Y11000
X-6250Y9750
X-5050Y300
X-4500Y14500
X-3700Y-50
X-3500Y-7550
X-3300Y1600
X-3250Y10500
X-3237Y622
X-3000Y6500
X-2750Y5550
X-2300Y250
X-2250Y15250
X-2250Y14000
X-2250Y2000
X-2250Y-2850
X-1650Y-300
X-1350Y-650
X-1250Y14500
X-1250Y13500
X-1250Y12250
X-500Y8000
X-250Y6250
X0Y11500
X1000Y7500
X1000Y5750
X2000Y16000
X2000Y14750
X2000Y13750
X2000Y9500
X2000Y5200
T2
X-14500Y12500
X-14500Y5500
X-13500Y12500
X-13500Y5500
X-12500Y12500
X-12500Y5500
X-12500Y2500
X-12500Y1500
X-12500Y500
X-12500Y-500
X-12500Y-1500
X-12500Y-2500
X-12500Y-3500
X-12500Y-4500
X-11500Y12500
X-11500Y5500
X-10500Y12500
X-10500Y5500
X-9500Y12500
X-9500Y5500
X-8750Y-5500
X-8750Y-6500
X-8500Y16500
X-8500Y15500
X-8500Y12500
X-8500Y5500
X-7750Y-5500
X-7750Y-6500
X-7500Y16500
X-7500Y15500
X-7500Y12500
X-7500Y5500
X-6750Y-5500
X-6750Y-6500
X-6500Y16500
X-6500Y15500
X-6500Y12500
X-6500Y5500
X-5750Y-5500
X-5750Y-6500
X-5500Y16500
X-5500Y15500
X-5500Y12500
X-5500Y5500
X-4750Y-5500
X-4750Y-6500
X-4500Y16500
X-4500Y15500
X-4500Y12500
X-4500Y5500
X-3750Y-5500
X-3750Y-6500
X-3500Y16500
X-3500Y15500
X-3500Y12500
X-3500Y5500
X-500Y3500
X-500Y2500
X-500Y1500
X-500Y500
X-500Y-500
X-500Y-1500
X-500Y-2500
X-500Y-3500
X500Y3500
X500Y2500
X500Y1500
X500Y500
X500Y-500
X500Y-1500
X500Y-2500
X500Y-3500
T4
X-19500Y14839
X-19500Y13280
X-19500Y11720
X-19500Y10161
X-19500Y7839
X-19500Y6280
X-19500Y4720
X-19500Y3161
X-18118Y-9500
X-16559Y-9500
X-15000Y-9500
X-13441Y-9500
X-11059Y-9500
X-9500Y-9500
X-7941Y-9500
X-6382Y-9500
T5
X-21000Y18000
X-21000Y-11000
X1500Y18000
X2000Y-11000
T3
X-1941Y-7394G85X-1941Y-6607
G05
X-367Y-5150G85X-1154Y-5150
G05
X421Y-7394G85X421Y-6607
G05
T0
M30
