G04 #@! TF.FileFunction,Copper,L2,Bot,Signal*
%FSLAX46Y46*%
G04 Gerber Fmt 4.6, Leading zero omitted, Abs format (unit mm)*
G04 Created by KiCad (PCBNEW 4.0.4-stable) date 01/08/17 17:33:34*
%MOMM*%
%LPD*%
G01*
G04 APERTURE LIST*
%ADD10C,0.254000*%
%ADD11O,1.900000X0.540000*%
%ADD12O,0.540000X1.900000*%
%ADD13O,1.905000X1.524000*%
%ADD14R,1.905000X1.524000*%
%ADD15C,2.540000*%
%ADD16C,3.810000*%
%ADD17C,7.000000*%
%ADD18C,0.600000*%
%ADD19R,4.000000X4.000000*%
%ADD20R,1.600000X1.000000*%
%ADD21R,1.250000X1.000000*%
%ADD22R,0.750000X0.800000*%
%ADD23R,0.800000X0.750000*%
%ADD24R,2.032000X1.727200*%
%ADD25O,2.032000X1.727200*%
%ADD26R,4.000000X4.500000*%
%ADD27R,0.700000X0.700000*%
%ADD28R,4.510000X4.295000*%
%ADD29R,1.670000X1.335000*%
%ADD30R,1.670000X1.685000*%
%ADD31R,1.780000X0.420000*%
%ADD32R,3.000000X3.100000*%
%ADD33O,1.400000X2.000000*%
%ADD34C,0.762000*%
%ADD35C,0.635000*%
%ADD36C,0.508000*%
%ADD37C,0.406400*%
%ADD38C,1.270000*%
%ADD39C,0.127000*%
G04 APERTURE END LIST*
D10*
D11*
X87645000Y-74485000D03*
X87645000Y-73685000D03*
X87645000Y-72885000D03*
X87645000Y-72085000D03*
X87645000Y-71285000D03*
X87645000Y-70485000D03*
X87645000Y-69685000D03*
X87645000Y-68885000D03*
X87645000Y-68085000D03*
X87645000Y-67285000D03*
X87645000Y-66485000D03*
D12*
X89345000Y-64785000D03*
X90145000Y-64785000D03*
X90945000Y-64785000D03*
X91745000Y-64785000D03*
X92545000Y-64785000D03*
X93345000Y-64785000D03*
X94145000Y-64785000D03*
X94945000Y-64785000D03*
X95745000Y-64785000D03*
X96545000Y-64785000D03*
X97345000Y-64785000D03*
D11*
X99045000Y-66485000D03*
X99045000Y-67285000D03*
X99045000Y-68085000D03*
X99045000Y-68885000D03*
X99045000Y-69685000D03*
X99045000Y-70485000D03*
X99045000Y-71285000D03*
X99045000Y-72085000D03*
X99045000Y-72885000D03*
X99045000Y-73685000D03*
X99045000Y-74485000D03*
D12*
X97345000Y-76185000D03*
X96545000Y-76185000D03*
X95745000Y-76185000D03*
X94945000Y-76185000D03*
X94145000Y-76185000D03*
X93345000Y-76185000D03*
X92545000Y-76185000D03*
X91745000Y-76185000D03*
X90945000Y-76185000D03*
X90145000Y-76185000D03*
X89345000Y-76185000D03*
D13*
X115570000Y-81280000D03*
X118110000Y-81280000D03*
X115570000Y-83820000D03*
X118110000Y-83820000D03*
X115570000Y-86360000D03*
X118110000Y-86360000D03*
X115570000Y-88900000D03*
X118110000Y-88900000D03*
X115570000Y-91440000D03*
X118110000Y-91440000D03*
X115570000Y-93980000D03*
X118110000Y-93980000D03*
X115570000Y-96520000D03*
X118110000Y-96520000D03*
X115570000Y-99060000D03*
D14*
X118110000Y-99060000D03*
D15*
X54610000Y-62230000D03*
D16*
X64770000Y-62230000D03*
D15*
X54610000Y-71120000D03*
D16*
X64770000Y-71120000D03*
D15*
X54610000Y-80010000D03*
D16*
X64770000Y-80010000D03*
D15*
X54610000Y-88900000D03*
D16*
X64770000Y-88900000D03*
D17*
X116840000Y-62230000D03*
D18*
X119465000Y-62230000D03*
X118696155Y-64086155D03*
X116840000Y-64855000D03*
X114983845Y-64086155D03*
X114215000Y-62230000D03*
X114983845Y-60373845D03*
X116840000Y-59605000D03*
X118696155Y-60373845D03*
D17*
X56880000Y-98810000D03*
D18*
X59505000Y-98810000D03*
X58736155Y-100666155D03*
X56880000Y-101435000D03*
X55023845Y-100666155D03*
X54255000Y-98810000D03*
X55023845Y-96953845D03*
X56880000Y-96185000D03*
X58736155Y-96953845D03*
D17*
X116840000Y-111760000D03*
D18*
X119465000Y-111760000D03*
X118696155Y-113616155D03*
X116840000Y-114385000D03*
X114983845Y-113616155D03*
X114215000Y-111760000D03*
X114983845Y-109903845D03*
X116840000Y-109135000D03*
X118696155Y-109903845D03*
D19*
X64620140Y-109220000D03*
X58620660Y-109220000D03*
X61620400Y-113919000D03*
D20*
X81280000Y-110720000D03*
X81280000Y-107720000D03*
X83820000Y-110720000D03*
X83820000Y-107720000D03*
X86360000Y-110720000D03*
X86360000Y-107720000D03*
D21*
X89535000Y-110220000D03*
X89535000Y-108220000D03*
D22*
X72390000Y-102350000D03*
X72390000Y-100850000D03*
X101727000Y-70854000D03*
X101727000Y-69354000D03*
X85725000Y-65520000D03*
X85725000Y-64020000D03*
X101600000Y-74815000D03*
X101600000Y-76315000D03*
X85090000Y-70370000D03*
X85090000Y-71870000D03*
D21*
X83693000Y-103616000D03*
X83693000Y-101616000D03*
D23*
X74673425Y-108382417D03*
X76173425Y-108382417D03*
D22*
X66675000Y-100850000D03*
X66675000Y-102350000D03*
D20*
X79233425Y-95452417D03*
X79233425Y-98452417D03*
X76693425Y-95452417D03*
X76693425Y-98452417D03*
D24*
X110490000Y-114300000D03*
D25*
X110490000Y-111760000D03*
X110490000Y-109220000D03*
X110490000Y-106680000D03*
X110490000Y-104140000D03*
X110490000Y-101600000D03*
D24*
X107950000Y-114300000D03*
D25*
X107950000Y-111760000D03*
X107950000Y-109220000D03*
X107950000Y-106680000D03*
X107950000Y-104140000D03*
X107950000Y-101600000D03*
D24*
X119380000Y-68580000D03*
D25*
X119380000Y-71120000D03*
X119380000Y-73660000D03*
D26*
X94893425Y-90170000D03*
X83893425Y-90170000D03*
D27*
X92568425Y-99032417D03*
X93838425Y-99032417D03*
X95108425Y-99032417D03*
X96378425Y-99032417D03*
X92568425Y-104572417D03*
X93838425Y-104572417D03*
X95108425Y-104572417D03*
X96378425Y-104572417D03*
D28*
X94473425Y-102369917D03*
D29*
X95568425Y-100934917D03*
X93378425Y-100934917D03*
D30*
X93378425Y-102844917D03*
X95568425Y-102844917D03*
D27*
X90028425Y-104572417D03*
X88758425Y-104572417D03*
X87488425Y-104572417D03*
X86218425Y-104572417D03*
X90028425Y-99032417D03*
X88758425Y-99032417D03*
X87488425Y-99032417D03*
X86218425Y-99032417D03*
D28*
X88123425Y-101234917D03*
D29*
X87028425Y-102669917D03*
X89218425Y-102669917D03*
D30*
X89218425Y-100759917D03*
X87028425Y-100759917D03*
D22*
X64770000Y-102350000D03*
X64770000Y-100850000D03*
D23*
X83793425Y-98857417D03*
X82293425Y-98857417D03*
D22*
X68580000Y-100850000D03*
X68580000Y-102350000D03*
X70485000Y-102350000D03*
X70485000Y-100850000D03*
D31*
X80943425Y-105252417D03*
X74983425Y-105252417D03*
X80943425Y-104602417D03*
X74983425Y-104602417D03*
X80943425Y-103952417D03*
X74983425Y-103952417D03*
X80943425Y-103302417D03*
X74983425Y-103302417D03*
X80943425Y-102652417D03*
X74983425Y-102652417D03*
X80943425Y-102002417D03*
X74983425Y-102002417D03*
X80943425Y-101352417D03*
X74983425Y-101352417D03*
D32*
X77963425Y-103302417D03*
D33*
X80010000Y-61595000D03*
X80010000Y-79375000D03*
X82550000Y-61595000D03*
X82550000Y-79375000D03*
X85090000Y-61595000D03*
X85090000Y-79375000D03*
X87630000Y-61595000D03*
X87630000Y-79375000D03*
X90170000Y-61595000D03*
X90170000Y-79375000D03*
X92710000Y-61595000D03*
X92710000Y-79375000D03*
X95250000Y-61595000D03*
X95250000Y-79375000D03*
X97790000Y-61595000D03*
X97790000Y-79375000D03*
X100330000Y-61595000D03*
X100330000Y-79375000D03*
X102870000Y-61595000D03*
X102870000Y-79375000D03*
X105410000Y-61595000D03*
X105410000Y-79375000D03*
X107950000Y-61595000D03*
X107950000Y-79375000D03*
D34*
X108585000Y-93345000D03*
X104775000Y-84455000D03*
X104775000Y-99060000D03*
X77470000Y-59055000D03*
X77470000Y-67183000D03*
X100457000Y-85598000D03*
X100457000Y-99060000D03*
X100965000Y-113030000D03*
X62738000Y-94107000D03*
X62738000Y-94996000D03*
X62738000Y-95885000D03*
X62738000Y-96774000D03*
X62738000Y-97663000D03*
X62738000Y-98552000D03*
X63627000Y-98552000D03*
X63627000Y-97663000D03*
X63627000Y-96774000D03*
X63627000Y-95885000D03*
X63627000Y-94996000D03*
X63627000Y-94107000D03*
X65405000Y-94107000D03*
X64516000Y-94107000D03*
X64516000Y-94996000D03*
X65405000Y-94996000D03*
X65405000Y-95885000D03*
X64516000Y-95885000D03*
X64516000Y-96774000D03*
X65405000Y-96774000D03*
X65405000Y-97663000D03*
X64516000Y-97663000D03*
X64516000Y-98552000D03*
X65405000Y-98552000D03*
X70358000Y-99441000D03*
X70358000Y-98552000D03*
X70358000Y-97663000D03*
X70358000Y-96774000D03*
X70358000Y-95885000D03*
X70358000Y-94996000D03*
X71247000Y-94996000D03*
X71247000Y-95885000D03*
X72136000Y-95885000D03*
X73025000Y-96774000D03*
X72136000Y-96774000D03*
X71247000Y-96774000D03*
X71247000Y-97663000D03*
X71247000Y-98552000D03*
X71247000Y-99441000D03*
X72136000Y-99441000D03*
X72136000Y-98552000D03*
X72136000Y-97663000D03*
X73914000Y-97663000D03*
X73025000Y-97663000D03*
X73025000Y-98552000D03*
X73025000Y-99441000D03*
X74930000Y-99441000D03*
X73914000Y-99441000D03*
X73914000Y-98552000D03*
X74930000Y-98552000D03*
X85725000Y-63119000D03*
X84582000Y-64008000D03*
X85090000Y-73025000D03*
X102870000Y-69342000D03*
X102743000Y-76327000D03*
X118999000Y-106807000D03*
X102870000Y-71755000D03*
X112268000Y-73660000D03*
X113792000Y-73660000D03*
X113030000Y-73660000D03*
X102743000Y-74803000D03*
X102870000Y-70866000D03*
X82423000Y-71374000D03*
X85852000Y-67310000D03*
X83312000Y-71374000D03*
X104902000Y-76581000D03*
X103759000Y-76327000D03*
X101600000Y-66548000D03*
X116078000Y-105410000D03*
X82483798Y-103251000D03*
X98171000Y-99060000D03*
D10*
X72009000Y-91948000D02*
X75513417Y-95452417D01*
X75513417Y-95452417D02*
X76693425Y-95452417D01*
X66675000Y-91948000D02*
X72009000Y-91948000D01*
X66675000Y-100850000D02*
X66675000Y-91948000D01*
X68580000Y-100850000D02*
X66675000Y-100850000D01*
X104775000Y-84455000D02*
X104775000Y-89535000D01*
X104775000Y-89535000D02*
X108585000Y-93345000D01*
X106045000Y-101600000D02*
X104775000Y-100330000D01*
X104775000Y-100330000D02*
X104775000Y-99060000D01*
X107797600Y-101600000D02*
X106045000Y-101600000D01*
X107950000Y-101600000D02*
X107797600Y-101600000D01*
X82550000Y-75946000D02*
X77470000Y-70866000D01*
X77470000Y-70866000D02*
X77470000Y-67183000D01*
X82550000Y-79375000D02*
X82550000Y-75946000D01*
X84074000Y-83185000D02*
X82550000Y-81661000D01*
X82550000Y-81661000D02*
X82550000Y-79375000D01*
X98044000Y-83185000D02*
X84074000Y-83185000D01*
X100457000Y-85598000D02*
X98044000Y-83185000D01*
X100965000Y-113030000D02*
X100965000Y-99568000D01*
X100965000Y-99568000D02*
X100457000Y-99060000D01*
X104013000Y-116078000D02*
X100965000Y-113030000D01*
X112522000Y-116078000D02*
X104013000Y-116078000D01*
X116840000Y-111760000D02*
X112522000Y-116078000D01*
X62738000Y-95885000D02*
X62738000Y-94996000D01*
X62738000Y-97663000D02*
X62738000Y-96774000D01*
X63627000Y-98552000D02*
X62738000Y-98552000D01*
X63627000Y-96774000D02*
X63627000Y-97663000D01*
X63627000Y-94996000D02*
X63627000Y-95885000D01*
X65405000Y-94107000D02*
X63627000Y-94107000D01*
X64516000Y-94996000D02*
X64516000Y-94107000D01*
X65405000Y-95885000D02*
X65405000Y-94996000D01*
X64516000Y-96774000D02*
X64516000Y-95885000D01*
X65405000Y-97663000D02*
X65405000Y-96774000D01*
X64516000Y-98552000D02*
X64516000Y-97663000D01*
X56880000Y-98810000D02*
X65147000Y-98810000D01*
X65147000Y-98810000D02*
X65405000Y-98552000D01*
D35*
X102743000Y-76327000D02*
X101612000Y-76327000D01*
X101612000Y-76327000D02*
X101600000Y-76315000D01*
D10*
X70358000Y-97663000D02*
X70358000Y-98552000D01*
X70358000Y-95885000D02*
X70358000Y-96774000D01*
X71247000Y-94996000D02*
X70358000Y-94996000D01*
X72136000Y-95885000D02*
X71247000Y-95885000D01*
X72136000Y-96774000D02*
X73025000Y-96774000D01*
X71247000Y-97663000D02*
X71247000Y-96774000D01*
X71247000Y-99441000D02*
X71247000Y-98552000D01*
X72136000Y-98552000D02*
X72136000Y-99441000D01*
X73914000Y-97663000D02*
X72136000Y-97663000D01*
X73025000Y-98552000D02*
X73025000Y-97663000D01*
X74930000Y-99441000D02*
X73025000Y-99441000D01*
X73914000Y-98552000D02*
X73914000Y-99441000D01*
X76693425Y-98452417D02*
X75029583Y-98452417D01*
X75029583Y-98452417D02*
X74930000Y-98552000D01*
D35*
X85725000Y-64020000D02*
X84594000Y-64020000D01*
X84594000Y-64020000D02*
X84582000Y-64008000D01*
X85090000Y-71870000D02*
X85090000Y-73025000D01*
D36*
X101727000Y-69354000D02*
X102858000Y-69354000D01*
X102858000Y-69354000D02*
X102870000Y-69342000D01*
X100838000Y-69350000D02*
X100842000Y-69354000D01*
X100842000Y-69354000D02*
X101727000Y-69354000D01*
X99045000Y-69685000D02*
X100503000Y-69685000D01*
X100503000Y-69685000D02*
X100838000Y-69350000D01*
D35*
X99172000Y-76185000D02*
X99302000Y-76315000D01*
X99302000Y-76315000D02*
X101600000Y-76315000D01*
X97345000Y-76185000D02*
X99172000Y-76185000D01*
X89345000Y-64785000D02*
X88440000Y-64785000D01*
X88440000Y-64785000D02*
X87675000Y-64020000D01*
X87675000Y-64020000D02*
X86626000Y-64020000D01*
D36*
X87617000Y-62103000D02*
X86728000Y-62992000D01*
X85725000Y-63373000D02*
X86106000Y-62992000D01*
X86106000Y-62992000D02*
X86728000Y-62992000D01*
X85725000Y-64020000D02*
X85725000Y-63373000D01*
X86626000Y-64020000D02*
X85725000Y-64020000D01*
X87630000Y-62103000D02*
X87617000Y-62103000D01*
X87630000Y-61595000D02*
X87630000Y-62103000D01*
X85483000Y-71870000D02*
X86068000Y-71285000D01*
X86068000Y-71285000D02*
X87645000Y-71285000D01*
X85090000Y-71870000D02*
X85483000Y-71870000D01*
D37*
X80943425Y-105252417D02*
X79913425Y-105252417D01*
X79913425Y-105252417D02*
X77963425Y-103302417D01*
X80943425Y-102002417D02*
X79263425Y-102002417D01*
X79263425Y-102002417D02*
X77963425Y-103302417D01*
X74983425Y-102652417D02*
X77313425Y-102652417D01*
X77313425Y-102652417D02*
X77963425Y-103302417D01*
D38*
X55880000Y-99060000D02*
X52578000Y-102362000D01*
X55880000Y-99060000D02*
X52578000Y-95758000D01*
X55880000Y-99060000D02*
X59379999Y-95560001D01*
X58620660Y-101800660D02*
X55880000Y-99060000D01*
X58620660Y-109220000D02*
X58620660Y-111559340D01*
X58620660Y-109220000D02*
X54356000Y-109220000D01*
X59379999Y-95560001D02*
X59633999Y-95560001D01*
D37*
X58620660Y-109220000D02*
X58620660Y-107063540D01*
D38*
X118999000Y-106807000D02*
X114808000Y-106807000D01*
X114808000Y-106807000D02*
X112395000Y-109220000D01*
X112395000Y-109220000D02*
X112395000Y-113411000D01*
X112395000Y-113411000D02*
X111506000Y-114300000D01*
X111506000Y-114300000D02*
X110490000Y-114300000D01*
X113792000Y-73660000D02*
X114935000Y-73660000D01*
X114935000Y-73660000D02*
X120269000Y-78994000D01*
X120269000Y-78994000D02*
X120269000Y-105537000D01*
X120269000Y-105537000D02*
X118999000Y-106807000D01*
D36*
X99045000Y-70485000D02*
X94615000Y-70485000D01*
X94615000Y-70485000D02*
X92075000Y-70485000D01*
X99045000Y-74485000D02*
X97587000Y-74485000D01*
X97587000Y-74485000D02*
X94615000Y-71513000D01*
X94615000Y-71513000D02*
X94615000Y-70485000D01*
X92075000Y-70485000D02*
X87645000Y-70485000D01*
X87645000Y-66485000D02*
X89103000Y-66485000D01*
X89103000Y-66485000D02*
X92075000Y-69457000D01*
X92075000Y-69457000D02*
X92075000Y-70485000D01*
D35*
X102870000Y-71755000D02*
X102870000Y-70866000D01*
X107950000Y-114300000D02*
X110490000Y-114300000D01*
D36*
X101600000Y-74815000D02*
X102731000Y-74815000D01*
X102731000Y-74815000D02*
X102743000Y-74803000D01*
X101727000Y-70854000D02*
X102858000Y-70854000D01*
X102858000Y-70854000D02*
X102870000Y-70866000D01*
X100711000Y-70693000D02*
X100711000Y-70721000D01*
X100711000Y-70721000D02*
X100844000Y-70854000D01*
X100844000Y-70854000D02*
X101727000Y-70854000D01*
X99045000Y-70485000D02*
X100503000Y-70485000D01*
X100503000Y-70485000D02*
X100711000Y-70693000D01*
X100584000Y-74566000D02*
X100584000Y-74682000D01*
X100584000Y-74682000D02*
X100717000Y-74815000D01*
X100717000Y-74815000D02*
X101600000Y-74815000D01*
X99045000Y-74485000D02*
X100503000Y-74485000D01*
X100503000Y-74485000D02*
X100584000Y-74566000D01*
X85725000Y-66023000D02*
X85725000Y-65520000D01*
X87645000Y-66485000D02*
X86187000Y-66485000D01*
X86187000Y-66485000D02*
X85725000Y-66023000D01*
X86233000Y-70485000D02*
X86118000Y-70370000D01*
X86118000Y-70370000D02*
X85090000Y-70370000D01*
X87645000Y-70485000D02*
X86233000Y-70485000D01*
D39*
X100122000Y-72085000D02*
X99045000Y-72085000D01*
X108585000Y-75945989D02*
X105522515Y-75945989D01*
X101661526Y-72085000D02*
X100122000Y-72085000D01*
X105522515Y-75945989D02*
X101661526Y-72085000D01*
X108479786Y-75945989D02*
X108585000Y-75945989D01*
X108585000Y-75945989D02*
X109452214Y-75945989D01*
X116649500Y-97790000D02*
X117919500Y-99060000D01*
X117919500Y-99060000D02*
X118110000Y-99060000D01*
X109452214Y-75945989D02*
X111252000Y-77745775D01*
X111252000Y-77745775D02*
X111252000Y-95250000D01*
X111252000Y-95250000D02*
X113792000Y-97790000D01*
X113792000Y-97790000D02*
X116649500Y-97790000D01*
X105918000Y-67564000D02*
X105918000Y-71755000D01*
X105918000Y-71755000D02*
X105918000Y-72009000D01*
X118110000Y-81280000D02*
X118110000Y-79756000D01*
X110870869Y-73151869D02*
X106679869Y-73151869D01*
X106679869Y-73151869D02*
X105918000Y-72390000D01*
X105918000Y-72390000D02*
X105918000Y-71755000D01*
X118110000Y-79756000D02*
X114681000Y-76327000D01*
X114681000Y-76327000D02*
X114046000Y-76327000D01*
X114046000Y-76327000D02*
X110870869Y-73151869D01*
X102870000Y-61595000D02*
X102870000Y-64516000D01*
X102870000Y-64516000D02*
X105918000Y-67564000D01*
X100122000Y-72885000D02*
X99045000Y-72885000D01*
X102102301Y-72885000D02*
X100122000Y-72885000D01*
X109347000Y-76200000D02*
X105417301Y-76200000D01*
X110998000Y-77851000D02*
X109347000Y-76200000D01*
X110998000Y-95567500D02*
X110998000Y-77851000D01*
X114490500Y-99060000D02*
X110998000Y-95567500D01*
X105417301Y-76200000D02*
X102102301Y-72885000D01*
X115570000Y-99060000D02*
X114490500Y-99060000D01*
X101473000Y-63968103D02*
X101473000Y-60452000D01*
X105409989Y-72600437D02*
X105409989Y-67905092D01*
X94145000Y-63708000D02*
X94145000Y-64785000D01*
X100711000Y-59690000D02*
X94488000Y-59690000D01*
X101473000Y-60452000D02*
X100711000Y-59690000D01*
X106469439Y-73659887D02*
X105409989Y-72600437D01*
X105409989Y-67905092D02*
X101473000Y-63968103D01*
X113538110Y-76581110D02*
X110616890Y-73659890D01*
X113538110Y-81978610D02*
X113538110Y-76581110D01*
X115570000Y-83820000D02*
X115379500Y-83820000D01*
X115379500Y-83820000D02*
X113538110Y-81978610D01*
X94145000Y-62522000D02*
X94145000Y-63708000D01*
X94107000Y-62484000D02*
X94145000Y-62522000D01*
X110616890Y-73659890D02*
X106469439Y-73659887D01*
X94488000Y-59690000D02*
X94107000Y-60071000D01*
X94107000Y-60071000D02*
X94107000Y-62484000D01*
X100465000Y-71628000D02*
X101563752Y-71628000D01*
X100122000Y-71285000D02*
X100465000Y-71628000D01*
X99045000Y-71285000D02*
X100122000Y-71285000D01*
X101563752Y-71628000D02*
X105627730Y-75691978D01*
X105627730Y-75691978D02*
X108458000Y-75691978D01*
X108458000Y-75691978D02*
X108374572Y-75691978D01*
X109557428Y-75691978D02*
X108458000Y-75691978D01*
X111506022Y-92964021D02*
X111506022Y-77640572D01*
X118110000Y-96520000D02*
X117919500Y-96520000D01*
X116649500Y-95250000D02*
X113792000Y-95250000D01*
X111506022Y-77640572D02*
X109557428Y-75691978D01*
X117919500Y-96520000D02*
X116649500Y-95250000D01*
X113792000Y-95250000D02*
X111506022Y-92964021D01*
X105664000Y-67691000D02*
X105410000Y-67437000D01*
X105664000Y-72495224D02*
X105664000Y-67691000D01*
X106574654Y-73405878D02*
X105664000Y-72495224D01*
X107696000Y-73405879D02*
X106574654Y-73405878D01*
X105410000Y-67437000D02*
X105283000Y-67310000D01*
X101727000Y-63754000D02*
X105410000Y-67437000D01*
X101727000Y-60325000D02*
X101727000Y-63754000D01*
X100838000Y-59436000D02*
X101727000Y-60325000D01*
X94361000Y-59436000D02*
X100838000Y-59436000D01*
X93853000Y-59944000D02*
X94361000Y-59436000D01*
X93853000Y-62738000D02*
X93853000Y-59944000D01*
X93472000Y-63119000D02*
X93853000Y-62738000D01*
X93091000Y-63119000D02*
X93472000Y-63119000D01*
X92545000Y-63665000D02*
X93091000Y-63119000D01*
X92545000Y-64785000D02*
X92545000Y-63665000D01*
X107696000Y-73405879D02*
X107315121Y-73405879D01*
X110722104Y-73405879D02*
X107696000Y-73405879D01*
X113792121Y-81661121D02*
X113792121Y-76475896D01*
X116649500Y-82550000D02*
X114681000Y-82550000D01*
X113792121Y-76475896D02*
X110722104Y-73405879D01*
X118110000Y-83820000D02*
X117919500Y-83820000D01*
X114681000Y-82550000D02*
X113792121Y-81661121D01*
X117919500Y-83820000D02*
X116649500Y-82550000D01*
X96603989Y-63246011D02*
X100032459Y-63246011D01*
X115379500Y-86360000D02*
X115570000Y-86360000D01*
X104901967Y-72810865D02*
X106259014Y-74167912D01*
X110362912Y-74167912D02*
X113030088Y-76835088D01*
X104901967Y-68115519D02*
X104901967Y-72810865D01*
X95745000Y-64105000D02*
X96603989Y-63246011D01*
X95745000Y-64785000D02*
X95745000Y-64105000D01*
X106259014Y-74167912D02*
X110362912Y-74167912D01*
X100032459Y-63246011D02*
X104901967Y-68115519D01*
X113030088Y-76835088D02*
X113030088Y-84010588D01*
X113030088Y-84010588D02*
X115379500Y-86360000D01*
X99045000Y-68085000D02*
X100571000Y-68085000D01*
X113792000Y-92710000D02*
X116649500Y-92710000D01*
X116649500Y-92710000D02*
X117919500Y-93980000D01*
X117919500Y-93980000D02*
X118110000Y-93980000D01*
X112014044Y-77343044D02*
X112014044Y-90932044D01*
X100571000Y-68085000D02*
X100711000Y-67945000D01*
X100711000Y-67945000D02*
X103124000Y-67945000D01*
X103885923Y-73231721D02*
X105838158Y-75183956D01*
X105838158Y-75183956D02*
X109854956Y-75183956D01*
X109854956Y-75183956D02*
X112014044Y-77343044D01*
X103885923Y-68706923D02*
X103885923Y-73231721D01*
X112014044Y-90932044D02*
X113792000Y-92710000D01*
X103124000Y-67945000D02*
X103885923Y-68706923D01*
X118110000Y-86360000D02*
X117919500Y-86360000D01*
X106364227Y-73913901D02*
X105155978Y-72705652D01*
X117919500Y-86360000D02*
X116649500Y-85090000D01*
X94945000Y-64105000D02*
X94945000Y-64785000D01*
X96058000Y-62992000D02*
X94945000Y-64105000D01*
X116649500Y-85090000D02*
X114739025Y-85090000D01*
X113284099Y-76708099D02*
X110489901Y-73913901D01*
X110489901Y-73913901D02*
X106364227Y-73913901D01*
X105155978Y-72705652D02*
X105155978Y-68010306D01*
X105155978Y-68010306D02*
X100137672Y-62992000D01*
X114739025Y-85090000D02*
X113284099Y-83635074D01*
X113284099Y-83635074D02*
X113284099Y-76708099D01*
X100137672Y-62992000D02*
X96058000Y-62992000D01*
X114490500Y-93091000D02*
X113726675Y-93091000D01*
X103124000Y-68326000D02*
X100965000Y-68326000D01*
X100122000Y-68885000D02*
X99045000Y-68885000D01*
X103631912Y-73336936D02*
X103631912Y-68833912D01*
X103631912Y-68833912D02*
X103124000Y-68326000D01*
X100406000Y-68885000D02*
X100122000Y-68885000D01*
X100965000Y-68326000D02*
X100406000Y-68885000D01*
X105732943Y-75437967D02*
X103631912Y-73336936D01*
X115570000Y-93980000D02*
X115379500Y-93980000D01*
X115379500Y-93980000D02*
X114490500Y-93091000D01*
X111760033Y-77470033D02*
X109727967Y-75437967D01*
X113726675Y-93091000D02*
X111760033Y-91124358D01*
X109727967Y-75437967D02*
X105732943Y-75437967D01*
X111760033Y-91124358D02*
X111760033Y-77470033D01*
X114423350Y-88011000D02*
X112522066Y-86109716D01*
X104393945Y-73021294D02*
X104393945Y-68369495D01*
X106048585Y-74675934D02*
X104393945Y-73021294D01*
X110108934Y-74675934D02*
X106048585Y-74675934D01*
X112522066Y-77089066D02*
X110108934Y-74675934D01*
X112522066Y-86109716D02*
X112522066Y-77089066D01*
X115379500Y-88900000D02*
X114490500Y-88011000D01*
X115570000Y-88900000D02*
X115379500Y-88900000D01*
X114490500Y-88011000D02*
X114423350Y-88011000D01*
X104393945Y-68369495D02*
X100809450Y-64785000D01*
X100809450Y-64785000D02*
X97345000Y-64785000D01*
X104393945Y-68369495D02*
X104393945Y-68325945D01*
X112268055Y-77216055D02*
X109981945Y-74929945D01*
X112268055Y-88646055D02*
X112268055Y-77216055D01*
X102950225Y-67285000D02*
X100122000Y-67285000D01*
X116649500Y-90170000D02*
X113792000Y-90170000D01*
X118110000Y-91440000D02*
X117919500Y-91440000D01*
X109981945Y-74929945D02*
X105943371Y-74929945D01*
X104139934Y-68474709D02*
X102950225Y-67285000D01*
X117919500Y-91440000D02*
X116649500Y-90170000D01*
X105943371Y-74929945D02*
X104139934Y-73126508D01*
X100122000Y-67285000D02*
X99045000Y-67285000D01*
X113792000Y-90170000D02*
X112268055Y-88646055D01*
X104139934Y-73126508D02*
X104139934Y-68474709D01*
X112776077Y-86004502D02*
X112776077Y-76962077D01*
X110235923Y-74421923D02*
X106153799Y-74421923D01*
X104647956Y-72916080D02*
X104647956Y-68220733D01*
X99927245Y-63500022D02*
X97149978Y-63500022D01*
X117919500Y-88900000D02*
X116649500Y-87630000D01*
X112776077Y-76962077D02*
X110235923Y-74421923D01*
X96545000Y-64105000D02*
X96545000Y-64785000D01*
X97149978Y-63500022D02*
X96545000Y-64105000D01*
X104647956Y-68220733D02*
X99927245Y-63500022D01*
X106153799Y-74421923D02*
X104647956Y-72916080D01*
X114401575Y-87630000D02*
X112776077Y-86004502D01*
X118110000Y-88900000D02*
X117919500Y-88900000D01*
X116649500Y-87630000D02*
X114401575Y-87630000D01*
X83121498Y-73066723D02*
X82423000Y-72368225D01*
X82423000Y-72368225D02*
X82423000Y-71374000D01*
X83693000Y-75311000D02*
X85979000Y-77597000D01*
X83566000Y-75184000D02*
X83693000Y-75311000D01*
X83566000Y-73511225D02*
X83566000Y-75184000D01*
X83121498Y-73066723D02*
X83566000Y-73511225D01*
X87645000Y-67285000D02*
X85877000Y-67285000D01*
X86360000Y-77978000D02*
X85979000Y-77597000D01*
X85979000Y-77597000D02*
X85852000Y-77470000D01*
X85877000Y-67285000D02*
X85852000Y-67310000D01*
X110490000Y-111760000D02*
X110337600Y-111760000D01*
X110337600Y-111760000D02*
X108940600Y-113157000D01*
X108940600Y-113157000D02*
X105791000Y-113157000D01*
X105791000Y-113157000D02*
X101727000Y-109093000D01*
X101727000Y-109093000D02*
X101727000Y-85090000D01*
X101727000Y-85090000D02*
X98679000Y-82042000D01*
X98679000Y-82042000D02*
X87249000Y-82042000D01*
X87249000Y-82042000D02*
X86360000Y-81153000D01*
X86360000Y-81153000D02*
X86360000Y-77978000D01*
X83693000Y-73279000D02*
X83312000Y-72898000D01*
X83312000Y-72898000D02*
X83312000Y-71374000D01*
X85488000Y-75074000D02*
X83693000Y-73279000D01*
X85979000Y-75074000D02*
X85488000Y-75074000D01*
X101981000Y-103886000D02*
X101981000Y-103505000D01*
X101981000Y-103505000D02*
X101981000Y-84836000D01*
X101981000Y-108966000D02*
X101981000Y-103505000D01*
X105918000Y-112903000D02*
X101981000Y-108966000D01*
X108712000Y-112903000D02*
X105918000Y-112903000D01*
X109220000Y-112395000D02*
X108712000Y-112903000D01*
X109220000Y-110337600D02*
X109220000Y-112395000D01*
X110337600Y-109220000D02*
X109220000Y-110337600D01*
X110490000Y-109220000D02*
X110642400Y-109220000D01*
X110490000Y-109220000D02*
X110337600Y-109220000D01*
X101981000Y-84836000D02*
X98933000Y-81788000D01*
X98933000Y-81788000D02*
X90297000Y-81788000D01*
X90297000Y-81788000D02*
X88900000Y-80391000D01*
X88900000Y-80391000D02*
X88900000Y-78613000D01*
X88900000Y-78613000D02*
X85979000Y-75692000D01*
X85979000Y-75692000D02*
X85979000Y-75074000D01*
X85979000Y-75074000D02*
X86568000Y-74485000D01*
X86568000Y-74485000D02*
X87645000Y-74485000D01*
X108077000Y-76940225D02*
X109854991Y-78718216D01*
X104902000Y-76581000D02*
X107717775Y-76581000D01*
X107717775Y-76581000D02*
X108077000Y-76940225D01*
X102543076Y-73685000D02*
X103886000Y-75027924D01*
X103886000Y-75027924D02*
X104902000Y-76043924D01*
X104902000Y-76043924D02*
X104902000Y-76581000D01*
X99045000Y-73685000D02*
X102543076Y-73685000D01*
X110642400Y-106680000D02*
X110490000Y-106680000D01*
X109854991Y-78718216D02*
X109854991Y-82020215D01*
X109854991Y-82020215D02*
X110743989Y-82909213D01*
X110743989Y-82909213D02*
X110743989Y-96371214D01*
X110743989Y-96371214D02*
X112268000Y-97895225D01*
X112268000Y-97895225D02*
X112268000Y-105054400D01*
X112268000Y-105054400D02*
X110642400Y-106680000D01*
X103759000Y-76327000D02*
X104648000Y-77216000D01*
X104648000Y-77216000D02*
X107993550Y-77216000D01*
X110489978Y-90761427D02*
X110489978Y-97662978D01*
X110489978Y-97662978D02*
X112013989Y-99186989D01*
X112013989Y-99186989D02*
X112013989Y-102768411D01*
X112013989Y-102768411D02*
X110642400Y-104140000D01*
X107993550Y-77216000D02*
X109474011Y-78696461D01*
X109474011Y-78696461D02*
X109474011Y-81069540D01*
X109474011Y-81069540D02*
X109219980Y-81323571D01*
X109219980Y-81323571D02*
X109219980Y-89491429D01*
X109219980Y-89491429D02*
X110489978Y-90761427D01*
X110642400Y-104140000D02*
X110490000Y-104140000D01*
X99045000Y-66485000D02*
X101537000Y-66485000D01*
X101537000Y-66485000D02*
X101600000Y-66548000D01*
X114300000Y-105410000D02*
X116078000Y-105410000D01*
X111760000Y-107950000D02*
X114300000Y-105410000D01*
X111760000Y-107950000D02*
X109728000Y-107950000D01*
X109220000Y-99822000D02*
X110109000Y-98933000D01*
X110109000Y-98933000D02*
X110109000Y-90805000D01*
X105410000Y-81534000D02*
X105410000Y-79375000D01*
X109728000Y-107950000D02*
X109220000Y-107442000D01*
X109220000Y-107442000D02*
X109220000Y-99822000D01*
X110109000Y-90805000D02*
X108839000Y-89535000D01*
X108839000Y-89535000D02*
X108839000Y-84963000D01*
X108839000Y-84963000D02*
X105410000Y-81534000D01*
X95745000Y-76185000D02*
X95745000Y-77262000D01*
X95745000Y-77262000D02*
X95953000Y-77470000D01*
X95953000Y-77470000D02*
X99314000Y-77470000D01*
X99314000Y-77470000D02*
X99822000Y-77978000D01*
X99822000Y-77978000D02*
X106953000Y-77978000D01*
X107950000Y-78975000D02*
X107950000Y-79375000D01*
X106953000Y-77978000D02*
X107950000Y-78975000D01*
X93807000Y-77724000D02*
X93999000Y-77724000D01*
X93999000Y-77724000D02*
X95250000Y-78975000D01*
X95250000Y-78975000D02*
X95250000Y-79375000D01*
X93345000Y-76185000D02*
X93345000Y-77262000D01*
X93345000Y-77262000D02*
X93807000Y-77724000D01*
X94145000Y-76185000D02*
X94145000Y-77262000D01*
X94145000Y-77262000D02*
X94861000Y-77978000D01*
X94861000Y-77978000D02*
X96793000Y-77978000D01*
X96793000Y-77978000D02*
X97790000Y-78975000D01*
X97790000Y-78975000D02*
X97790000Y-79375000D01*
X94945000Y-76185000D02*
X94945000Y-77262000D01*
X94945000Y-77262000D02*
X95407000Y-77724000D01*
X95407000Y-77724000D02*
X99079000Y-77724000D01*
X99079000Y-77724000D02*
X100330000Y-78975000D01*
X100330000Y-78975000D02*
X100330000Y-79375000D01*
X121031000Y-65151000D02*
X119380000Y-66802000D01*
X119380000Y-66802000D02*
X119380000Y-68580000D01*
X121031000Y-60325000D02*
X121031000Y-65151000D01*
X118618000Y-57912000D02*
X121031000Y-60325000D01*
X107966000Y-57912000D02*
X118618000Y-57912000D01*
X105410000Y-61595000D02*
X105410000Y-60468000D01*
X105410000Y-60468000D02*
X107966000Y-57912000D01*
D38*
X64620140Y-109220000D02*
X64620140Y-102499860D01*
X64620140Y-102499860D02*
X64770000Y-102350000D01*
D10*
X72263000Y-104602417D02*
X65740417Y-104602417D01*
D36*
X74983425Y-104602417D02*
X72263000Y-104602417D01*
D10*
X65740417Y-104602417D02*
X64770000Y-103632000D01*
X64770000Y-103632000D02*
X64770000Y-102350000D01*
X72390000Y-102350000D02*
X73019000Y-102350000D01*
X73019000Y-102350000D02*
X73366583Y-102002417D01*
X73366583Y-102002417D02*
X73839425Y-102002417D01*
X73839425Y-102002417D02*
X74983425Y-102002417D01*
X83346799Y-103962201D02*
X83693000Y-103616000D01*
X82087425Y-103952417D02*
X82097209Y-103962201D01*
X80943425Y-103952417D02*
X82087425Y-103952417D01*
X82097209Y-103962201D02*
X83346799Y-103962201D01*
X82437425Y-102302417D02*
X83678425Y-102302417D01*
X80943425Y-102652417D02*
X82087425Y-102652417D01*
X82087425Y-102652417D02*
X82437425Y-102302417D01*
X73025000Y-107569000D02*
X73838417Y-108382417D01*
X73838417Y-108382417D02*
X74673425Y-108382417D01*
X73025000Y-105664000D02*
X73025000Y-107569000D01*
X73436583Y-105252417D02*
X73025000Y-105664000D01*
X74983425Y-105252417D02*
X73436583Y-105252417D01*
X66675000Y-102350000D02*
X68580000Y-102350000D01*
X70485000Y-102350000D02*
X68580000Y-102350000D01*
X74983425Y-103302417D02*
X73839425Y-103302417D01*
X73839425Y-103302417D02*
X73636842Y-103505000D01*
X73636842Y-103505000D02*
X71120000Y-103505000D01*
X71120000Y-103505000D02*
X70485000Y-102870000D01*
X70485000Y-102870000D02*
X70485000Y-102350000D01*
X98171000Y-99060000D02*
X96406008Y-99060000D01*
X96406008Y-99060000D02*
X96378425Y-99032417D01*
X80943425Y-103302417D02*
X82432381Y-103302417D01*
X82432381Y-103302417D02*
X82483798Y-103251000D01*
X84836000Y-104902000D02*
X85165583Y-104572417D01*
X85165583Y-104572417D02*
X86218425Y-104572417D01*
X82423000Y-104902000D02*
X84836000Y-104902000D01*
X82123417Y-104602417D02*
X82423000Y-104902000D01*
X80943425Y-104602417D02*
X82123417Y-104602417D01*
D39*
X65495000Y-101600000D02*
X64770000Y-100875000D01*
X64770000Y-100875000D02*
X64770000Y-100850000D01*
X74983425Y-101352417D02*
X73526583Y-101352417D01*
X73526583Y-101352417D02*
X73279000Y-101600000D01*
X73279000Y-101600000D02*
X65495000Y-101600000D01*
X82293425Y-98857417D02*
X82293425Y-100584000D01*
X82035583Y-101352417D02*
X82293425Y-101094575D01*
X82293425Y-101094575D02*
X82293425Y-100584000D01*
X80943425Y-101352417D02*
X82035583Y-101352417D01*
X90145000Y-76185000D02*
X90145000Y-77445000D01*
X90145000Y-77445000D02*
X91313000Y-78613000D01*
X91313000Y-78613000D02*
X91313000Y-81153000D01*
X91313000Y-81153000D02*
X91694000Y-81534000D01*
X91694000Y-81534000D02*
X99060000Y-81534000D01*
X99060000Y-81534000D02*
X102235000Y-84709000D01*
X102235000Y-84709000D02*
X102235000Y-108839000D01*
X102235000Y-108839000D02*
X105156000Y-111760000D01*
X105156000Y-111760000D02*
X107950000Y-111760000D01*
X107950000Y-109220000D02*
X103251000Y-109220000D01*
X103251000Y-109220000D02*
X102489000Y-108458000D01*
X102489000Y-108458000D02*
X102489000Y-84582000D01*
X91567000Y-81026000D02*
X91567000Y-77884000D01*
X102489000Y-84582000D02*
X99187000Y-81280000D01*
X99187000Y-81280000D02*
X91821000Y-81280000D01*
X91821000Y-81280000D02*
X91567000Y-81026000D01*
X91567000Y-77884000D02*
X90945000Y-77262000D01*
X90945000Y-77262000D02*
X90945000Y-76185000D01*
X91745000Y-76185000D02*
X91745000Y-77262000D01*
X91745000Y-77262000D02*
X92461000Y-77978000D01*
X93853000Y-78740000D02*
X93853000Y-80772000D01*
X92461000Y-77978000D02*
X93091000Y-77978000D01*
X93091000Y-77978000D02*
X93853000Y-78740000D01*
X93853000Y-80772000D02*
X94107000Y-81026000D01*
X94107000Y-81026000D02*
X99081776Y-81026000D01*
X99081776Y-81026000D02*
X99081785Y-81025991D01*
X99292215Y-81025991D02*
X102743000Y-84476776D01*
X102743000Y-84476776D02*
X102743000Y-105283000D01*
X102743000Y-105283000D02*
X104140000Y-106680000D01*
X99081785Y-81025991D02*
X99292215Y-81025991D01*
X104140000Y-106680000D02*
X107950000Y-106680000D01*
X94488000Y-80772000D02*
X98933000Y-80772000D01*
X98933000Y-80772000D02*
X99060000Y-80772000D01*
X102997010Y-84328010D02*
X99440981Y-80771981D01*
X99440981Y-80771981D02*
X98976571Y-80771981D01*
X98976571Y-80771981D02*
X98976552Y-80772000D01*
X98976552Y-80772000D02*
X98933000Y-80772000D01*
X102997010Y-102997010D02*
X102997010Y-84328010D01*
X104140000Y-104140000D02*
X102997010Y-102997010D01*
X107950000Y-104140000D02*
X104140000Y-104140000D01*
X94107000Y-80391000D02*
X94488000Y-80772000D01*
X94107000Y-78486000D02*
X94107000Y-80010000D01*
X94107000Y-80010000D02*
X94107000Y-80391000D01*
X93091000Y-77470000D02*
X94107000Y-78486000D01*
X92710000Y-77470000D02*
X93091000Y-77470000D01*
X92545000Y-77305000D02*
X92710000Y-77470000D01*
X92545000Y-76185000D02*
X92545000Y-77305000D01*
D10*
G36*
X99568000Y-116078000D02*
X64235642Y-116078000D01*
X64267840Y-115919000D01*
X64267840Y-111919000D01*
X64223562Y-111683683D01*
X64199207Y-111645834D01*
X64279996Y-111679298D01*
X64279998Y-111679298D01*
X64280000Y-111679299D01*
X64471343Y-111717359D01*
X64768658Y-111717359D01*
X64960000Y-111679299D01*
X64960002Y-111679298D01*
X64960004Y-111679298D01*
X65087587Y-111626451D01*
X65234686Y-111565520D01*
X65234687Y-111565519D01*
X65234689Y-111565518D01*
X65396900Y-111457131D01*
X65538192Y-111315838D01*
X65607131Y-111246900D01*
X65715518Y-111084690D01*
X65717212Y-111080602D01*
X65824602Y-110821340D01*
X65829298Y-110810004D01*
X65829298Y-110810002D01*
X65829299Y-110810000D01*
X65867359Y-110618657D01*
X65867359Y-110543606D01*
X65882000Y-110470000D01*
X65882000Y-107970000D01*
X65867359Y-107896394D01*
X65867359Y-107821343D01*
X65829299Y-107630000D01*
X65829298Y-107629997D01*
X65829298Y-107629996D01*
X65717212Y-107359400D01*
X65715520Y-107355314D01*
X65715519Y-107355313D01*
X65715518Y-107355310D01*
X65607131Y-107193100D01*
X65460686Y-107046656D01*
X65396900Y-106982869D01*
X65234689Y-106874482D01*
X65234687Y-106874481D01*
X65234686Y-106874480D01*
X65071778Y-106807001D01*
X64960004Y-106760702D01*
X64960002Y-106760702D01*
X64960000Y-106760701D01*
X64768658Y-106722641D01*
X64620001Y-106722641D01*
X64280000Y-106760701D01*
X64279998Y-106760702D01*
X64279996Y-106760702D01*
X64168222Y-106807001D01*
X64005314Y-106874480D01*
X64005313Y-106874481D01*
X64005310Y-106874482D01*
X63843100Y-106982869D01*
X63779314Y-107046656D01*
X63632869Y-107193100D01*
X63524482Y-107355311D01*
X63524482Y-107355312D01*
X63524480Y-107355314D01*
X63463549Y-107502413D01*
X63410702Y-107629996D01*
X63410702Y-107629997D01*
X63410701Y-107630000D01*
X63372641Y-107821342D01*
X63372641Y-107896394D01*
X63358000Y-107970000D01*
X63358000Y-110470000D01*
X63372641Y-110543606D01*
X63372641Y-110618658D01*
X63410701Y-110810000D01*
X63410702Y-110810002D01*
X63410702Y-110810004D01*
X63415398Y-110821340D01*
X63524480Y-111084686D01*
X63524481Y-111084687D01*
X63524482Y-111084689D01*
X63632869Y-111246900D01*
X63666957Y-111280988D01*
X63620400Y-111271560D01*
X61722000Y-111271560D01*
X61722000Y-106732606D01*
X64224803Y-104229803D01*
X64252666Y-104187789D01*
X64262000Y-104140000D01*
X64262000Y-101870507D01*
X64395000Y-101897440D01*
X64804612Y-101897440D01*
X65001086Y-102093914D01*
X65227695Y-102245330D01*
X65495000Y-102298500D01*
X65652560Y-102298500D01*
X65652560Y-102750000D01*
X65696838Y-102985317D01*
X65835910Y-103201441D01*
X66048110Y-103346431D01*
X66300000Y-103397440D01*
X66548000Y-103397440D01*
X66548000Y-104140000D01*
X66558006Y-104189410D01*
X66586447Y-104231035D01*
X66628841Y-104258315D01*
X66675000Y-104267000D01*
X72898000Y-104267000D01*
X72898000Y-104713446D01*
X72897767Y-104713602D01*
X72486185Y-105125185D01*
X72321004Y-105372395D01*
X72263000Y-105664000D01*
X72263000Y-107569000D01*
X72321004Y-107860605D01*
X72474824Y-108090812D01*
X72486185Y-108107815D01*
X72898000Y-108519631D01*
X72898000Y-109855000D01*
X72908006Y-109904410D01*
X72936447Y-109946035D01*
X72978841Y-109973315D01*
X73025000Y-109982000D01*
X77470000Y-109982000D01*
X77519410Y-109971994D01*
X77559803Y-109944803D01*
X78157606Y-109347000D01*
X88809064Y-109347000D01*
X88910000Y-109367440D01*
X90160000Y-109367440D01*
X90268629Y-109347000D01*
X90805000Y-109347000D01*
X90854410Y-109336994D01*
X90894803Y-109309803D01*
X91529803Y-108674803D01*
X91557666Y-108632789D01*
X91567000Y-108585000D01*
X91567000Y-100457000D01*
X99568000Y-100457000D01*
X99568000Y-116078000D01*
X99568000Y-116078000D01*
G37*
X99568000Y-116078000D02*
X64235642Y-116078000D01*
X64267840Y-115919000D01*
X64267840Y-111919000D01*
X64223562Y-111683683D01*
X64199207Y-111645834D01*
X64279996Y-111679298D01*
X64279998Y-111679298D01*
X64280000Y-111679299D01*
X64471343Y-111717359D01*
X64768658Y-111717359D01*
X64960000Y-111679299D01*
X64960002Y-111679298D01*
X64960004Y-111679298D01*
X65087587Y-111626451D01*
X65234686Y-111565520D01*
X65234687Y-111565519D01*
X65234689Y-111565518D01*
X65396900Y-111457131D01*
X65538192Y-111315838D01*
X65607131Y-111246900D01*
X65715518Y-111084690D01*
X65717212Y-111080602D01*
X65824602Y-110821340D01*
X65829298Y-110810004D01*
X65829298Y-110810002D01*
X65829299Y-110810000D01*
X65867359Y-110618657D01*
X65867359Y-110543606D01*
X65882000Y-110470000D01*
X65882000Y-107970000D01*
X65867359Y-107896394D01*
X65867359Y-107821343D01*
X65829299Y-107630000D01*
X65829298Y-107629997D01*
X65829298Y-107629996D01*
X65717212Y-107359400D01*
X65715520Y-107355314D01*
X65715519Y-107355313D01*
X65715518Y-107355310D01*
X65607131Y-107193100D01*
X65460686Y-107046656D01*
X65396900Y-106982869D01*
X65234689Y-106874482D01*
X65234687Y-106874481D01*
X65234686Y-106874480D01*
X65071778Y-106807001D01*
X64960004Y-106760702D01*
X64960002Y-106760702D01*
X64960000Y-106760701D01*
X64768658Y-106722641D01*
X64620001Y-106722641D01*
X64280000Y-106760701D01*
X64279998Y-106760702D01*
X64279996Y-106760702D01*
X64168222Y-106807001D01*
X64005314Y-106874480D01*
X64005313Y-106874481D01*
X64005310Y-106874482D01*
X63843100Y-106982869D01*
X63779314Y-107046656D01*
X63632869Y-107193100D01*
X63524482Y-107355311D01*
X63524482Y-107355312D01*
X63524480Y-107355314D01*
X63463549Y-107502413D01*
X63410702Y-107629996D01*
X63410702Y-107629997D01*
X63410701Y-107630000D01*
X63372641Y-107821342D01*
X63372641Y-107896394D01*
X63358000Y-107970000D01*
X63358000Y-110470000D01*
X63372641Y-110543606D01*
X63372641Y-110618658D01*
X63410701Y-110810000D01*
X63410702Y-110810002D01*
X63410702Y-110810004D01*
X63415398Y-110821340D01*
X63524480Y-111084686D01*
X63524481Y-111084687D01*
X63524482Y-111084689D01*
X63632869Y-111246900D01*
X63666957Y-111280988D01*
X63620400Y-111271560D01*
X61722000Y-111271560D01*
X61722000Y-106732606D01*
X64224803Y-104229803D01*
X64252666Y-104187789D01*
X64262000Y-104140000D01*
X64262000Y-101870507D01*
X64395000Y-101897440D01*
X64804612Y-101897440D01*
X65001086Y-102093914D01*
X65227695Y-102245330D01*
X65495000Y-102298500D01*
X65652560Y-102298500D01*
X65652560Y-102750000D01*
X65696838Y-102985317D01*
X65835910Y-103201441D01*
X66048110Y-103346431D01*
X66300000Y-103397440D01*
X66548000Y-103397440D01*
X66548000Y-104140000D01*
X66558006Y-104189410D01*
X66586447Y-104231035D01*
X66628841Y-104258315D01*
X66675000Y-104267000D01*
X72898000Y-104267000D01*
X72898000Y-104713446D01*
X72897767Y-104713602D01*
X72486185Y-105125185D01*
X72321004Y-105372395D01*
X72263000Y-105664000D01*
X72263000Y-107569000D01*
X72321004Y-107860605D01*
X72474824Y-108090812D01*
X72486185Y-108107815D01*
X72898000Y-108519631D01*
X72898000Y-109855000D01*
X72908006Y-109904410D01*
X72936447Y-109946035D01*
X72978841Y-109973315D01*
X73025000Y-109982000D01*
X77470000Y-109982000D01*
X77519410Y-109971994D01*
X77559803Y-109944803D01*
X78157606Y-109347000D01*
X88809064Y-109347000D01*
X88910000Y-109367440D01*
X90160000Y-109367440D01*
X90268629Y-109347000D01*
X90805000Y-109347000D01*
X90854410Y-109336994D01*
X90894803Y-109309803D01*
X91529803Y-108674803D01*
X91557666Y-108632789D01*
X91567000Y-108585000D01*
X91567000Y-100457000D01*
X99568000Y-100457000D01*
X99568000Y-116078000D01*
G36*
X99568000Y-86412606D02*
X99568000Y-93292394D01*
X95795197Y-97065197D01*
X95767334Y-97107211D01*
X95758000Y-97155000D01*
X95758000Y-98101846D01*
X95576984Y-98218327D01*
X95431994Y-98430527D01*
X95380985Y-98682417D01*
X95380985Y-99382417D01*
X95417218Y-99574977D01*
X92218425Y-99574977D01*
X91983108Y-99619255D01*
X91865397Y-99695000D01*
X91440000Y-99695000D01*
X91209205Y-99738427D01*
X90997233Y-99874827D01*
X90855029Y-100082949D01*
X90805000Y-100330000D01*
X90805000Y-103378000D01*
X84965440Y-103378000D01*
X84965440Y-103116000D01*
X84921162Y-102880683D01*
X84782090Y-102664559D01*
X84569890Y-102519569D01*
X84318000Y-102468560D01*
X83138311Y-102468560D01*
X83060067Y-102390179D01*
X82686780Y-102235176D01*
X82677000Y-102235167D01*
X82677000Y-101698828D01*
X82787339Y-101588489D01*
X82938755Y-101361880D01*
X82991925Y-101094575D01*
X82991925Y-100067681D01*
X83274803Y-99784803D01*
X83302666Y-99742789D01*
X83312000Y-99695000D01*
X83312000Y-99374957D01*
X83340865Y-99232417D01*
X83340865Y-98482417D01*
X83312000Y-98329013D01*
X83312000Y-97291026D01*
X83956026Y-96647000D01*
X85090000Y-96647000D01*
X85139410Y-96636994D01*
X85172651Y-96616426D01*
X85389414Y-96430629D01*
X85496517Y-96372821D01*
X89306517Y-93197821D01*
X89484971Y-92957051D01*
X89494013Y-92912402D01*
X89617651Y-92806426D01*
X89648654Y-92766673D01*
X89662000Y-92710000D01*
X89662000Y-84582000D01*
X97737394Y-84582000D01*
X99568000Y-86412606D01*
X99568000Y-86412606D01*
G37*
X99568000Y-86412606D02*
X99568000Y-93292394D01*
X95795197Y-97065197D01*
X95767334Y-97107211D01*
X95758000Y-97155000D01*
X95758000Y-98101846D01*
X95576984Y-98218327D01*
X95431994Y-98430527D01*
X95380985Y-98682417D01*
X95380985Y-99382417D01*
X95417218Y-99574977D01*
X92218425Y-99574977D01*
X91983108Y-99619255D01*
X91865397Y-99695000D01*
X91440000Y-99695000D01*
X91209205Y-99738427D01*
X90997233Y-99874827D01*
X90855029Y-100082949D01*
X90805000Y-100330000D01*
X90805000Y-103378000D01*
X84965440Y-103378000D01*
X84965440Y-103116000D01*
X84921162Y-102880683D01*
X84782090Y-102664559D01*
X84569890Y-102519569D01*
X84318000Y-102468560D01*
X83138311Y-102468560D01*
X83060067Y-102390179D01*
X82686780Y-102235176D01*
X82677000Y-102235167D01*
X82677000Y-101698828D01*
X82787339Y-101588489D01*
X82938755Y-101361880D01*
X82991925Y-101094575D01*
X82991925Y-100067681D01*
X83274803Y-99784803D01*
X83302666Y-99742789D01*
X83312000Y-99695000D01*
X83312000Y-99374957D01*
X83340865Y-99232417D01*
X83340865Y-98482417D01*
X83312000Y-98329013D01*
X83312000Y-97291026D01*
X83956026Y-96647000D01*
X85090000Y-96647000D01*
X85139410Y-96636994D01*
X85172651Y-96616426D01*
X85389414Y-96430629D01*
X85496517Y-96372821D01*
X89306517Y-93197821D01*
X89484971Y-92957051D01*
X89494013Y-92912402D01*
X89617651Y-92806426D01*
X89648654Y-92766673D01*
X89662000Y-92710000D01*
X89662000Y-84582000D01*
X97737394Y-84582000D01*
X99568000Y-86412606D01*
G36*
X76073000Y-73660000D02*
X76083006Y-73709410D01*
X76110197Y-73749803D01*
X79285197Y-76924803D01*
X79327211Y-76952666D01*
X79375000Y-76962000D01*
X80592394Y-76962000D01*
X81153000Y-77522606D01*
X81153000Y-84455000D01*
X81163006Y-84504410D01*
X81191447Y-84546035D01*
X81233841Y-84573315D01*
X81280000Y-84582000D01*
X88773000Y-84582000D01*
X88773000Y-92650517D01*
X85044020Y-95758000D01*
X83820000Y-95758000D01*
X83770590Y-95768006D01*
X83730197Y-95795197D01*
X82497394Y-97028000D01*
X75617606Y-97028000D01*
X71209803Y-92620197D01*
X71167789Y-92592334D01*
X71120000Y-92583000D01*
X51562000Y-92583000D01*
X51562000Y-89277265D01*
X52704670Y-89277265D01*
X52994078Y-89977686D01*
X53529495Y-90514039D01*
X54229410Y-90804668D01*
X54987265Y-90805330D01*
X55687686Y-90515922D01*
X56224039Y-89980505D01*
X56463830Y-89403021D01*
X62229560Y-89403021D01*
X62615437Y-90336915D01*
X63329327Y-91052052D01*
X64262546Y-91439559D01*
X65273021Y-91440440D01*
X66206915Y-91054563D01*
X66922052Y-90340673D01*
X67309559Y-89407454D01*
X67310440Y-88396979D01*
X66924563Y-87463085D01*
X66210673Y-86747948D01*
X65277454Y-86360441D01*
X64266979Y-86359560D01*
X63333085Y-86745437D01*
X62617948Y-87459327D01*
X62230441Y-88392546D01*
X62229560Y-89403021D01*
X56463830Y-89403021D01*
X56514668Y-89280590D01*
X56515330Y-88522735D01*
X56225922Y-87822314D01*
X55690505Y-87285961D01*
X54990590Y-86995332D01*
X54232735Y-86994670D01*
X53532314Y-87284078D01*
X52995961Y-87819495D01*
X52705332Y-88519410D01*
X52704670Y-89277265D01*
X51562000Y-89277265D01*
X51562000Y-71497265D01*
X52704670Y-71497265D01*
X52994078Y-72197686D01*
X53529495Y-72734039D01*
X54229410Y-73024668D01*
X54987265Y-73025330D01*
X55687686Y-72735922D01*
X56224039Y-72200505D01*
X56463830Y-71623021D01*
X62229560Y-71623021D01*
X62615437Y-72556915D01*
X63329327Y-73272052D01*
X64262546Y-73659559D01*
X65273021Y-73660440D01*
X66206915Y-73274563D01*
X66922052Y-72560673D01*
X67309559Y-71627454D01*
X67310440Y-70616979D01*
X66924563Y-69683085D01*
X66210673Y-68967948D01*
X65277454Y-68580441D01*
X64266979Y-68579560D01*
X63333085Y-68965437D01*
X62617948Y-69679327D01*
X62230441Y-70612546D01*
X62229560Y-71623021D01*
X56463830Y-71623021D01*
X56514668Y-71500590D01*
X56515330Y-70742735D01*
X56225922Y-70042314D01*
X55690505Y-69505961D01*
X54990590Y-69215332D01*
X54232735Y-69214670D01*
X53532314Y-69504078D01*
X52995961Y-70039495D01*
X52705332Y-70739410D01*
X52704670Y-71497265D01*
X51562000Y-71497265D01*
X51562000Y-57912000D01*
X76073000Y-57912000D01*
X76073000Y-73660000D01*
X76073000Y-73660000D01*
G37*
X76073000Y-73660000D02*
X76083006Y-73709410D01*
X76110197Y-73749803D01*
X79285197Y-76924803D01*
X79327211Y-76952666D01*
X79375000Y-76962000D01*
X80592394Y-76962000D01*
X81153000Y-77522606D01*
X81153000Y-84455000D01*
X81163006Y-84504410D01*
X81191447Y-84546035D01*
X81233841Y-84573315D01*
X81280000Y-84582000D01*
X88773000Y-84582000D01*
X88773000Y-92650517D01*
X85044020Y-95758000D01*
X83820000Y-95758000D01*
X83770590Y-95768006D01*
X83730197Y-95795197D01*
X82497394Y-97028000D01*
X75617606Y-97028000D01*
X71209803Y-92620197D01*
X71167789Y-92592334D01*
X71120000Y-92583000D01*
X51562000Y-92583000D01*
X51562000Y-89277265D01*
X52704670Y-89277265D01*
X52994078Y-89977686D01*
X53529495Y-90514039D01*
X54229410Y-90804668D01*
X54987265Y-90805330D01*
X55687686Y-90515922D01*
X56224039Y-89980505D01*
X56463830Y-89403021D01*
X62229560Y-89403021D01*
X62615437Y-90336915D01*
X63329327Y-91052052D01*
X64262546Y-91439559D01*
X65273021Y-91440440D01*
X66206915Y-91054563D01*
X66922052Y-90340673D01*
X67309559Y-89407454D01*
X67310440Y-88396979D01*
X66924563Y-87463085D01*
X66210673Y-86747948D01*
X65277454Y-86360441D01*
X64266979Y-86359560D01*
X63333085Y-86745437D01*
X62617948Y-87459327D01*
X62230441Y-88392546D01*
X62229560Y-89403021D01*
X56463830Y-89403021D01*
X56514668Y-89280590D01*
X56515330Y-88522735D01*
X56225922Y-87822314D01*
X55690505Y-87285961D01*
X54990590Y-86995332D01*
X54232735Y-86994670D01*
X53532314Y-87284078D01*
X52995961Y-87819495D01*
X52705332Y-88519410D01*
X52704670Y-89277265D01*
X51562000Y-89277265D01*
X51562000Y-71497265D01*
X52704670Y-71497265D01*
X52994078Y-72197686D01*
X53529495Y-72734039D01*
X54229410Y-73024668D01*
X54987265Y-73025330D01*
X55687686Y-72735922D01*
X56224039Y-72200505D01*
X56463830Y-71623021D01*
X62229560Y-71623021D01*
X62615437Y-72556915D01*
X63329327Y-73272052D01*
X64262546Y-73659559D01*
X65273021Y-73660440D01*
X66206915Y-73274563D01*
X66922052Y-72560673D01*
X67309559Y-71627454D01*
X67310440Y-70616979D01*
X66924563Y-69683085D01*
X66210673Y-68967948D01*
X65277454Y-68580441D01*
X64266979Y-68579560D01*
X63333085Y-68965437D01*
X62617948Y-69679327D01*
X62230441Y-70612546D01*
X62229560Y-71623021D01*
X56463830Y-71623021D01*
X56514668Y-71500590D01*
X56515330Y-70742735D01*
X56225922Y-70042314D01*
X55690505Y-69505961D01*
X54990590Y-69215332D01*
X54232735Y-69214670D01*
X53532314Y-69504078D01*
X52995961Y-70039495D01*
X52705332Y-70739410D01*
X52704670Y-71497265D01*
X51562000Y-71497265D01*
X51562000Y-57912000D01*
X76073000Y-57912000D01*
X76073000Y-73660000D01*
G36*
X65913000Y-99944443D02*
X65848559Y-99985910D01*
X65721042Y-100172537D01*
X65609090Y-99998559D01*
X65396890Y-99853569D01*
X65145000Y-99802560D01*
X64395000Y-99802560D01*
X64159683Y-99846838D01*
X63943559Y-99985910D01*
X63798569Y-100198110D01*
X63747560Y-100450000D01*
X63747560Y-101109225D01*
X63692233Y-101144827D01*
X63550029Y-101352949D01*
X63500000Y-101600000D01*
X63500000Y-101934252D01*
X63446813Y-102013852D01*
X63350139Y-102499860D01*
X63350140Y-102499865D01*
X63350140Y-104026834D01*
X61145987Y-106230987D01*
X61010029Y-106432949D01*
X60960000Y-106680000D01*
X60960000Y-111271560D01*
X59620400Y-111271560D01*
X59573680Y-111280351D01*
X59607131Y-111246900D01*
X59715518Y-111084690D01*
X59717212Y-111080602D01*
X59824602Y-110821340D01*
X59829298Y-110810004D01*
X59829298Y-110810002D01*
X59829299Y-110810000D01*
X59867359Y-110618657D01*
X59867359Y-110543606D01*
X59882000Y-110470000D01*
X59882000Y-107970000D01*
X59867359Y-107896394D01*
X59867359Y-107821343D01*
X59829299Y-107630000D01*
X59829298Y-107629997D01*
X59829298Y-107629996D01*
X59717212Y-107359400D01*
X59715520Y-107355314D01*
X59715519Y-107355313D01*
X59715518Y-107355310D01*
X59607131Y-107193100D01*
X59460686Y-107046656D01*
X59396900Y-106982869D01*
X59234689Y-106874482D01*
X59234687Y-106874481D01*
X59234686Y-106874480D01*
X59071778Y-106807001D01*
X58960004Y-106760702D01*
X58960002Y-106760702D01*
X58960000Y-106760701D01*
X58768658Y-106722641D01*
X58620001Y-106722641D01*
X58280000Y-106760701D01*
X58279998Y-106760702D01*
X58279996Y-106760702D01*
X58168222Y-106807001D01*
X58005314Y-106874480D01*
X58005313Y-106874481D01*
X58005310Y-106874482D01*
X57843100Y-106982869D01*
X57779314Y-107046656D01*
X57632869Y-107193100D01*
X57524482Y-107355311D01*
X57524482Y-107355312D01*
X57524480Y-107355314D01*
X57522788Y-107359400D01*
X57410702Y-107629996D01*
X57410702Y-107629997D01*
X57410701Y-107630000D01*
X57372641Y-107821342D01*
X57372641Y-107896394D01*
X57358000Y-107970000D01*
X57358000Y-110470000D01*
X57372641Y-110543606D01*
X57372641Y-110618658D01*
X57410701Y-110810000D01*
X57410702Y-110810002D01*
X57410702Y-110810004D01*
X57415398Y-110821340D01*
X57524480Y-111084686D01*
X57524481Y-111084687D01*
X57524482Y-111084689D01*
X57632869Y-111246900D01*
X57701808Y-111315838D01*
X57843100Y-111457131D01*
X58005310Y-111565518D01*
X58005313Y-111565519D01*
X58005314Y-111565520D01*
X58097196Y-111603579D01*
X58279996Y-111679298D01*
X58279998Y-111679298D01*
X58280000Y-111679299D01*
X58471343Y-111717359D01*
X58768658Y-111717359D01*
X58960000Y-111679299D01*
X58960002Y-111679298D01*
X58960004Y-111679298D01*
X59037604Y-111647155D01*
X59023969Y-111667110D01*
X58972960Y-111919000D01*
X58972960Y-115919000D01*
X59002878Y-116078000D01*
X51562000Y-116078000D01*
X51562000Y-93345000D01*
X65913000Y-93345000D01*
X65913000Y-99944443D01*
X65913000Y-99944443D01*
G37*
X65913000Y-99944443D02*
X65848559Y-99985910D01*
X65721042Y-100172537D01*
X65609090Y-99998559D01*
X65396890Y-99853569D01*
X65145000Y-99802560D01*
X64395000Y-99802560D01*
X64159683Y-99846838D01*
X63943559Y-99985910D01*
X63798569Y-100198110D01*
X63747560Y-100450000D01*
X63747560Y-101109225D01*
X63692233Y-101144827D01*
X63550029Y-101352949D01*
X63500000Y-101600000D01*
X63500000Y-101934252D01*
X63446813Y-102013852D01*
X63350139Y-102499860D01*
X63350140Y-102499865D01*
X63350140Y-104026834D01*
X61145987Y-106230987D01*
X61010029Y-106432949D01*
X60960000Y-106680000D01*
X60960000Y-111271560D01*
X59620400Y-111271560D01*
X59573680Y-111280351D01*
X59607131Y-111246900D01*
X59715518Y-111084690D01*
X59717212Y-111080602D01*
X59824602Y-110821340D01*
X59829298Y-110810004D01*
X59829298Y-110810002D01*
X59829299Y-110810000D01*
X59867359Y-110618657D01*
X59867359Y-110543606D01*
X59882000Y-110470000D01*
X59882000Y-107970000D01*
X59867359Y-107896394D01*
X59867359Y-107821343D01*
X59829299Y-107630000D01*
X59829298Y-107629997D01*
X59829298Y-107629996D01*
X59717212Y-107359400D01*
X59715520Y-107355314D01*
X59715519Y-107355313D01*
X59715518Y-107355310D01*
X59607131Y-107193100D01*
X59460686Y-107046656D01*
X59396900Y-106982869D01*
X59234689Y-106874482D01*
X59234687Y-106874481D01*
X59234686Y-106874480D01*
X59071778Y-106807001D01*
X58960004Y-106760702D01*
X58960002Y-106760702D01*
X58960000Y-106760701D01*
X58768658Y-106722641D01*
X58620001Y-106722641D01*
X58280000Y-106760701D01*
X58279998Y-106760702D01*
X58279996Y-106760702D01*
X58168222Y-106807001D01*
X58005314Y-106874480D01*
X58005313Y-106874481D01*
X58005310Y-106874482D01*
X57843100Y-106982869D01*
X57779314Y-107046656D01*
X57632869Y-107193100D01*
X57524482Y-107355311D01*
X57524482Y-107355312D01*
X57524480Y-107355314D01*
X57522788Y-107359400D01*
X57410702Y-107629996D01*
X57410702Y-107629997D01*
X57410701Y-107630000D01*
X57372641Y-107821342D01*
X57372641Y-107896394D01*
X57358000Y-107970000D01*
X57358000Y-110470000D01*
X57372641Y-110543606D01*
X57372641Y-110618658D01*
X57410701Y-110810000D01*
X57410702Y-110810002D01*
X57410702Y-110810004D01*
X57415398Y-110821340D01*
X57524480Y-111084686D01*
X57524481Y-111084687D01*
X57524482Y-111084689D01*
X57632869Y-111246900D01*
X57701808Y-111315838D01*
X57843100Y-111457131D01*
X58005310Y-111565518D01*
X58005313Y-111565519D01*
X58005314Y-111565520D01*
X58097196Y-111603579D01*
X58279996Y-111679298D01*
X58279998Y-111679298D01*
X58280000Y-111679299D01*
X58471343Y-111717359D01*
X58768658Y-111717359D01*
X58960000Y-111679299D01*
X58960002Y-111679298D01*
X58960004Y-111679298D01*
X59037604Y-111647155D01*
X59023969Y-111667110D01*
X58972960Y-111919000D01*
X58972960Y-115919000D01*
X59002878Y-116078000D01*
X51562000Y-116078000D01*
X51562000Y-93345000D01*
X65913000Y-93345000D01*
X65913000Y-99944443D01*
G36*
X75115987Y-97604013D02*
X75317949Y-97739971D01*
X75565000Y-97790000D01*
X82550000Y-97790000D01*
X82550000Y-97834977D01*
X81893425Y-97834977D01*
X81658108Y-97879255D01*
X81441984Y-98018327D01*
X81296994Y-98230527D01*
X81245985Y-98482417D01*
X81245985Y-99232417D01*
X81290263Y-99467734D01*
X81429335Y-99683858D01*
X81594925Y-99797001D01*
X81594925Y-100494977D01*
X80053425Y-100494977D01*
X79818108Y-100539255D01*
X79601984Y-100678327D01*
X79456994Y-100890527D01*
X79405985Y-101142417D01*
X79405985Y-101562417D01*
X79450263Y-101797734D01*
X79583695Y-102005094D01*
X79456994Y-102190527D01*
X79405985Y-102442417D01*
X79405985Y-102862417D01*
X79428418Y-102981639D01*
X79405985Y-103092417D01*
X79405985Y-103512417D01*
X79428418Y-103631639D01*
X79405985Y-103742417D01*
X79405985Y-104162417D01*
X79428418Y-104281639D01*
X79405985Y-104392417D01*
X79405985Y-104812417D01*
X79450263Y-105047734D01*
X79589335Y-105263858D01*
X79801535Y-105408848D01*
X80053425Y-105459857D01*
X81833425Y-105459857D01*
X81895267Y-105448221D01*
X82077309Y-105569857D01*
X82131395Y-105605996D01*
X82423000Y-105664000D01*
X84836000Y-105664000D01*
X85127605Y-105605996D01*
X85374815Y-105440815D01*
X85426576Y-105389054D01*
X85616535Y-105518848D01*
X85868425Y-105569857D01*
X86568425Y-105569857D01*
X86803742Y-105525579D01*
X87019866Y-105386507D01*
X87164856Y-105174307D01*
X87215865Y-104922417D01*
X87215865Y-104222417D01*
X87200357Y-104140000D01*
X90805000Y-104140000D01*
X90805000Y-108321974D01*
X90541974Y-108585000D01*
X78105000Y-108585000D01*
X77866054Y-108631672D01*
X77655987Y-108770987D01*
X77206974Y-109220000D01*
X75525896Y-109220000D01*
X75669856Y-109009307D01*
X75720865Y-108757417D01*
X75720865Y-108007417D01*
X75676587Y-107772100D01*
X75537515Y-107555976D01*
X75325315Y-107410986D01*
X75073425Y-107359977D01*
X74273425Y-107359977D01*
X74038108Y-107404255D01*
X73977126Y-107443496D01*
X73787000Y-107253370D01*
X73787000Y-106021586D01*
X73841535Y-106058848D01*
X74093425Y-106109857D01*
X75873425Y-106109857D01*
X76108742Y-106065579D01*
X76324866Y-105926507D01*
X76469856Y-105714307D01*
X76520865Y-105462417D01*
X76520865Y-105042417D01*
X76498432Y-104923195D01*
X76520865Y-104812417D01*
X76520865Y-104392417D01*
X76498432Y-104273195D01*
X76520865Y-104162417D01*
X76520865Y-103742417D01*
X76498432Y-103623195D01*
X76520865Y-103512417D01*
X76520865Y-103092417D01*
X76476587Y-102857100D01*
X76343155Y-102649740D01*
X76469856Y-102464307D01*
X76520865Y-102212417D01*
X76520865Y-101792417D01*
X76498432Y-101673195D01*
X76520865Y-101562417D01*
X76520865Y-101142417D01*
X76476587Y-100907100D01*
X76337515Y-100690976D01*
X76125315Y-100545986D01*
X75873425Y-100494977D01*
X74093425Y-100494977D01*
X73858108Y-100539255D01*
X73679918Y-100653917D01*
X73526583Y-100653917D01*
X73259278Y-100707087D01*
X73032669Y-100858503D01*
X72989672Y-100901500D01*
X69602440Y-100901500D01*
X69602440Y-100450000D01*
X69558162Y-100214683D01*
X69419090Y-99998559D01*
X69206890Y-99853569D01*
X68955000Y-99802560D01*
X68205000Y-99802560D01*
X67969683Y-99846838D01*
X67753559Y-99985910D01*
X67683804Y-100088000D01*
X67571644Y-100088000D01*
X67514090Y-99998559D01*
X67437000Y-99945886D01*
X67437000Y-93345000D01*
X70856974Y-93345000D01*
X75115987Y-97604013D01*
X75115987Y-97604013D01*
G37*
X75115987Y-97604013D02*
X75317949Y-97739971D01*
X75565000Y-97790000D01*
X82550000Y-97790000D01*
X82550000Y-97834977D01*
X81893425Y-97834977D01*
X81658108Y-97879255D01*
X81441984Y-98018327D01*
X81296994Y-98230527D01*
X81245985Y-98482417D01*
X81245985Y-99232417D01*
X81290263Y-99467734D01*
X81429335Y-99683858D01*
X81594925Y-99797001D01*
X81594925Y-100494977D01*
X80053425Y-100494977D01*
X79818108Y-100539255D01*
X79601984Y-100678327D01*
X79456994Y-100890527D01*
X79405985Y-101142417D01*
X79405985Y-101562417D01*
X79450263Y-101797734D01*
X79583695Y-102005094D01*
X79456994Y-102190527D01*
X79405985Y-102442417D01*
X79405985Y-102862417D01*
X79428418Y-102981639D01*
X79405985Y-103092417D01*
X79405985Y-103512417D01*
X79428418Y-103631639D01*
X79405985Y-103742417D01*
X79405985Y-104162417D01*
X79428418Y-104281639D01*
X79405985Y-104392417D01*
X79405985Y-104812417D01*
X79450263Y-105047734D01*
X79589335Y-105263858D01*
X79801535Y-105408848D01*
X80053425Y-105459857D01*
X81833425Y-105459857D01*
X81895267Y-105448221D01*
X82077309Y-105569857D01*
X82131395Y-105605996D01*
X82423000Y-105664000D01*
X84836000Y-105664000D01*
X85127605Y-105605996D01*
X85374815Y-105440815D01*
X85426576Y-105389054D01*
X85616535Y-105518848D01*
X85868425Y-105569857D01*
X86568425Y-105569857D01*
X86803742Y-105525579D01*
X87019866Y-105386507D01*
X87164856Y-105174307D01*
X87215865Y-104922417D01*
X87215865Y-104222417D01*
X87200357Y-104140000D01*
X90805000Y-104140000D01*
X90805000Y-108321974D01*
X90541974Y-108585000D01*
X78105000Y-108585000D01*
X77866054Y-108631672D01*
X77655987Y-108770987D01*
X77206974Y-109220000D01*
X75525896Y-109220000D01*
X75669856Y-109009307D01*
X75720865Y-108757417D01*
X75720865Y-108007417D01*
X75676587Y-107772100D01*
X75537515Y-107555976D01*
X75325315Y-107410986D01*
X75073425Y-107359977D01*
X74273425Y-107359977D01*
X74038108Y-107404255D01*
X73977126Y-107443496D01*
X73787000Y-107253370D01*
X73787000Y-106021586D01*
X73841535Y-106058848D01*
X74093425Y-106109857D01*
X75873425Y-106109857D01*
X76108742Y-106065579D01*
X76324866Y-105926507D01*
X76469856Y-105714307D01*
X76520865Y-105462417D01*
X76520865Y-105042417D01*
X76498432Y-104923195D01*
X76520865Y-104812417D01*
X76520865Y-104392417D01*
X76498432Y-104273195D01*
X76520865Y-104162417D01*
X76520865Y-103742417D01*
X76498432Y-103623195D01*
X76520865Y-103512417D01*
X76520865Y-103092417D01*
X76476587Y-102857100D01*
X76343155Y-102649740D01*
X76469856Y-102464307D01*
X76520865Y-102212417D01*
X76520865Y-101792417D01*
X76498432Y-101673195D01*
X76520865Y-101562417D01*
X76520865Y-101142417D01*
X76476587Y-100907100D01*
X76337515Y-100690976D01*
X76125315Y-100545986D01*
X75873425Y-100494977D01*
X74093425Y-100494977D01*
X73858108Y-100539255D01*
X73679918Y-100653917D01*
X73526583Y-100653917D01*
X73259278Y-100707087D01*
X73032669Y-100858503D01*
X72989672Y-100901500D01*
X69602440Y-100901500D01*
X69602440Y-100450000D01*
X69558162Y-100214683D01*
X69419090Y-99998559D01*
X69206890Y-99853569D01*
X68955000Y-99802560D01*
X68205000Y-99802560D01*
X67969683Y-99846838D01*
X67753559Y-99985910D01*
X67683804Y-100088000D01*
X67571644Y-100088000D01*
X67514090Y-99998559D01*
X67437000Y-99945886D01*
X67437000Y-93345000D01*
X70856974Y-93345000D01*
X75115987Y-97604013D01*
G36*
X100748750Y-74688000D02*
X101473000Y-74688000D01*
X101473000Y-74668000D01*
X101727000Y-74668000D01*
X101727000Y-74688000D01*
X102451250Y-74688000D01*
X102504749Y-74634501D01*
X103291218Y-75420970D01*
X103250706Y-75437709D01*
X102945982Y-75311176D01*
X102610000Y-75310883D01*
X102610000Y-75100750D01*
X102451250Y-74942000D01*
X101727000Y-74942000D01*
X101727000Y-74962000D01*
X101473000Y-74962000D01*
X101473000Y-74942000D01*
X100748750Y-74942000D01*
X100590000Y-75100750D01*
X100590000Y-75341309D01*
X100598778Y-75362500D01*
X99930800Y-75362500D01*
X100188661Y-75272510D01*
X100454734Y-75035129D01*
X100590146Y-74750609D01*
X100460366Y-74612002D01*
X100630000Y-74612002D01*
X100630000Y-74569250D01*
X100748750Y-74688000D01*
X100748750Y-74688000D01*
G37*
X100748750Y-74688000D02*
X101473000Y-74688000D01*
X101473000Y-74668000D01*
X101727000Y-74668000D01*
X101727000Y-74688000D01*
X102451250Y-74688000D01*
X102504749Y-74634501D01*
X103291218Y-75420970D01*
X103250706Y-75437709D01*
X102945982Y-75311176D01*
X102610000Y-75310883D01*
X102610000Y-75100750D01*
X102451250Y-74942000D01*
X101727000Y-74942000D01*
X101727000Y-74962000D01*
X101473000Y-74962000D01*
X101473000Y-74942000D01*
X100748750Y-74942000D01*
X100590000Y-75100750D01*
X100590000Y-75341309D01*
X100598778Y-75362500D01*
X99930800Y-75362500D01*
X100188661Y-75272510D01*
X100454734Y-75035129D01*
X100590146Y-74750609D01*
X100460366Y-74612002D01*
X100630000Y-74612002D01*
X100630000Y-74569250D01*
X100748750Y-74688000D01*
G36*
X80137000Y-61468000D02*
X80157000Y-61468000D01*
X80157000Y-61722000D01*
X80137000Y-61722000D01*
X80137000Y-63064374D01*
X80343329Y-63187716D01*
X80403550Y-63176980D01*
X80864185Y-62928790D01*
X81153000Y-62574469D01*
X81153000Y-62865000D01*
X81163006Y-62914410D01*
X81191447Y-62956035D01*
X81233841Y-62983315D01*
X81280000Y-62992000D01*
X81787072Y-62992000D01*
X82039118Y-63160411D01*
X82550000Y-63262032D01*
X83060882Y-63160411D01*
X83204706Y-63064312D01*
X83677446Y-63537052D01*
X83566176Y-63805018D01*
X83565824Y-64209208D01*
X83720175Y-64582766D01*
X84005731Y-64868821D01*
X84379018Y-65023824D01*
X84715000Y-65024117D01*
X84715000Y-65234250D01*
X84873750Y-65393000D01*
X85598000Y-65393000D01*
X85598000Y-65373000D01*
X85852000Y-65373000D01*
X85852000Y-65393000D01*
X86576250Y-65393000D01*
X86735000Y-65234250D01*
X86735000Y-64993691D01*
X86726222Y-64972500D01*
X87017894Y-64972500D01*
X87540197Y-65494803D01*
X87582211Y-65522666D01*
X87630000Y-65532000D01*
X87876453Y-65532000D01*
X87948290Y-65580000D01*
X87772000Y-65580000D01*
X87772000Y-66358000D01*
X89060364Y-66358000D01*
X89071071Y-66346564D01*
X89345000Y-66401052D01*
X89691329Y-66332163D01*
X89745000Y-66296301D01*
X89798671Y-66332163D01*
X90145000Y-66401052D01*
X90491329Y-66332163D01*
X90545000Y-66296301D01*
X90598671Y-66332163D01*
X90945000Y-66401052D01*
X91291329Y-66332163D01*
X91345000Y-66296301D01*
X91398671Y-66332163D01*
X91745000Y-66401052D01*
X92091329Y-66332163D01*
X92145000Y-66296301D01*
X92198671Y-66332163D01*
X92545000Y-66401052D01*
X92891329Y-66332163D01*
X92945000Y-66296301D01*
X92998671Y-66332163D01*
X93345000Y-66401052D01*
X93691329Y-66332163D01*
X93745000Y-66296301D01*
X93798671Y-66332163D01*
X94145000Y-66401052D01*
X94491329Y-66332163D01*
X94545000Y-66296301D01*
X94598671Y-66332163D01*
X94945000Y-66401052D01*
X95291329Y-66332163D01*
X95345000Y-66296301D01*
X95398671Y-66332163D01*
X95745000Y-66401052D01*
X96091329Y-66332163D01*
X96145000Y-66296301D01*
X96198671Y-66332163D01*
X96545000Y-66401052D01*
X96891329Y-66332163D01*
X96945000Y-66296301D01*
X96998671Y-66332163D01*
X97345000Y-66401052D01*
X97449792Y-66380208D01*
X97428948Y-66485000D01*
X97497837Y-66831329D01*
X97533699Y-66885000D01*
X97497837Y-66938671D01*
X97428948Y-67285000D01*
X97497837Y-67631329D01*
X97533699Y-67685000D01*
X97497837Y-67738671D01*
X97428948Y-68085000D01*
X97497837Y-68431329D01*
X97533699Y-68485000D01*
X97497837Y-68538671D01*
X97428948Y-68885000D01*
X97497837Y-69231329D01*
X97533699Y-69285000D01*
X97497837Y-69338671D01*
X97428948Y-69685000D01*
X97497837Y-70031329D01*
X97551287Y-70111323D01*
X97499854Y-70219391D01*
X97629636Y-70358000D01*
X97743506Y-70358000D01*
X97933575Y-70485000D01*
X97743506Y-70612000D01*
X97629636Y-70612000D01*
X97499854Y-70750609D01*
X97551287Y-70858677D01*
X97497837Y-70938671D01*
X97428948Y-71285000D01*
X97497837Y-71631329D01*
X97533699Y-71685000D01*
X97497837Y-71738671D01*
X97428948Y-72085000D01*
X97497837Y-72431329D01*
X97533699Y-72485000D01*
X97497837Y-72538671D01*
X97428948Y-72885000D01*
X97497837Y-73231329D01*
X97533699Y-73285000D01*
X97497837Y-73338671D01*
X97428948Y-73685000D01*
X97497837Y-74031329D01*
X97551287Y-74111323D01*
X97499854Y-74219391D01*
X97629636Y-74358000D01*
X97743506Y-74358000D01*
X97987619Y-74521111D01*
X98333948Y-74590000D01*
X99192000Y-74590000D01*
X99192000Y-74612000D01*
X99172000Y-74612000D01*
X99172000Y-74632000D01*
X98918000Y-74632000D01*
X98918000Y-74612000D01*
X97629636Y-74612000D01*
X97618929Y-74623436D01*
X97345000Y-74568948D01*
X96998671Y-74637837D01*
X96945000Y-74673699D01*
X96891329Y-74637837D01*
X96545000Y-74568948D01*
X96198671Y-74637837D01*
X96145000Y-74673699D01*
X96091329Y-74637837D01*
X95745000Y-74568948D01*
X95398671Y-74637837D01*
X95345000Y-74673699D01*
X95291329Y-74637837D01*
X94945000Y-74568948D01*
X94598671Y-74637837D01*
X94545000Y-74673699D01*
X94491329Y-74637837D01*
X94145000Y-74568948D01*
X93798671Y-74637837D01*
X93745000Y-74673699D01*
X93691329Y-74637837D01*
X93345000Y-74568948D01*
X92998671Y-74637837D01*
X92945000Y-74673699D01*
X92891329Y-74637837D01*
X92545000Y-74568948D01*
X92198671Y-74637837D01*
X92145000Y-74673699D01*
X92091329Y-74637837D01*
X91745000Y-74568948D01*
X91398671Y-74637837D01*
X91345000Y-74673699D01*
X91291329Y-74637837D01*
X90945000Y-74568948D01*
X90598671Y-74637837D01*
X90545000Y-74673699D01*
X90491329Y-74637837D01*
X90145000Y-74568948D01*
X89798671Y-74637837D01*
X89745000Y-74673699D01*
X89691329Y-74637837D01*
X89345000Y-74568948D01*
X89240208Y-74589792D01*
X89261052Y-74485000D01*
X89192163Y-74138671D01*
X89156301Y-74085000D01*
X89192163Y-74031329D01*
X89261052Y-73685000D01*
X89192163Y-73338671D01*
X89156301Y-73285000D01*
X89192163Y-73231329D01*
X89261052Y-72885000D01*
X89192163Y-72538671D01*
X89156301Y-72485000D01*
X89192163Y-72431329D01*
X89261052Y-72085000D01*
X89192163Y-71738671D01*
X89156301Y-71685000D01*
X89192163Y-71631329D01*
X89261052Y-71285000D01*
X89192163Y-70938671D01*
X89138713Y-70858677D01*
X89190146Y-70750609D01*
X89060364Y-70612000D01*
X88946494Y-70612000D01*
X88756425Y-70485000D01*
X88946494Y-70358000D01*
X89060364Y-70358000D01*
X89190146Y-70219391D01*
X89138713Y-70111323D01*
X89192163Y-70031329D01*
X89261052Y-69685000D01*
X89192163Y-69338671D01*
X89156301Y-69285000D01*
X89192163Y-69231329D01*
X89261052Y-68885000D01*
X89192163Y-68538671D01*
X89156301Y-68485000D01*
X89192163Y-68431329D01*
X89261052Y-68085000D01*
X89192163Y-67738671D01*
X89156301Y-67685000D01*
X89192163Y-67631329D01*
X89261052Y-67285000D01*
X89192163Y-66938671D01*
X89138713Y-66858677D01*
X89190146Y-66750609D01*
X89060364Y-66612000D01*
X88946494Y-66612000D01*
X88702381Y-66448889D01*
X88356052Y-66380000D01*
X87498000Y-66380000D01*
X87498000Y-66358000D01*
X87518000Y-66358000D01*
X87518000Y-65580000D01*
X86838000Y-65580000D01*
X86594298Y-65665048D01*
X86576250Y-65647000D01*
X85852000Y-65647000D01*
X85852000Y-65667000D01*
X85598000Y-65667000D01*
X85598000Y-65647000D01*
X84873750Y-65647000D01*
X84715000Y-65805750D01*
X84715000Y-66046309D01*
X84811673Y-66279698D01*
X84990301Y-66458327D01*
X85185902Y-66539348D01*
X84991179Y-66733731D01*
X84836176Y-67107018D01*
X84835824Y-67511208D01*
X84990175Y-67884766D01*
X85275731Y-68170821D01*
X85649018Y-68325824D01*
X86053208Y-68326176D01*
X86075120Y-68317122D01*
X86097837Y-68431329D01*
X86133699Y-68485000D01*
X86097837Y-68538671D01*
X86028948Y-68885000D01*
X86097837Y-69231329D01*
X86133699Y-69285000D01*
X86097837Y-69338671D01*
X86030674Y-69676323D01*
X86003327Y-69610302D01*
X85824699Y-69431673D01*
X85591310Y-69335000D01*
X85375750Y-69335000D01*
X85217000Y-69493750D01*
X85217000Y-70243000D01*
X85941250Y-70243000D01*
X86100000Y-70084250D01*
X86100000Y-70034566D01*
X86151287Y-70111323D01*
X86099854Y-70219391D01*
X86229634Y-70357998D01*
X86060000Y-70357998D01*
X86060000Y-70397591D01*
X85727794Y-70463671D01*
X85677914Y-70497000D01*
X85217000Y-70497000D01*
X85217000Y-70517000D01*
X84963000Y-70517000D01*
X84963000Y-70497000D01*
X84238750Y-70497000D01*
X84080000Y-70655750D01*
X84080000Y-70705245D01*
X83888269Y-70513179D01*
X83514982Y-70358176D01*
X83110792Y-70357824D01*
X82867363Y-70458407D01*
X82625982Y-70358176D01*
X82221792Y-70357824D01*
X81848234Y-70512175D01*
X81562179Y-70797731D01*
X81481096Y-70993000D01*
X81332606Y-70993000D01*
X80183297Y-69843691D01*
X84080000Y-69843691D01*
X84080000Y-70084250D01*
X84238750Y-70243000D01*
X84963000Y-70243000D01*
X84963000Y-69493750D01*
X84804250Y-69335000D01*
X84588690Y-69335000D01*
X84355301Y-69431673D01*
X84176673Y-69610302D01*
X84080000Y-69843691D01*
X80183297Y-69843691D01*
X78867000Y-68527394D01*
X78867000Y-62574469D01*
X79155815Y-62928790D01*
X79616450Y-63176980D01*
X79676671Y-63187716D01*
X79883000Y-63064374D01*
X79883000Y-61722000D01*
X79863000Y-61722000D01*
X79863000Y-61468000D01*
X79883000Y-61468000D01*
X79883000Y-61448000D01*
X80137000Y-61448000D01*
X80137000Y-61468000D01*
X80137000Y-61468000D01*
G37*
X80137000Y-61468000D02*
X80157000Y-61468000D01*
X80157000Y-61722000D01*
X80137000Y-61722000D01*
X80137000Y-63064374D01*
X80343329Y-63187716D01*
X80403550Y-63176980D01*
X80864185Y-62928790D01*
X81153000Y-62574469D01*
X81153000Y-62865000D01*
X81163006Y-62914410D01*
X81191447Y-62956035D01*
X81233841Y-62983315D01*
X81280000Y-62992000D01*
X81787072Y-62992000D01*
X82039118Y-63160411D01*
X82550000Y-63262032D01*
X83060882Y-63160411D01*
X83204706Y-63064312D01*
X83677446Y-63537052D01*
X83566176Y-63805018D01*
X83565824Y-64209208D01*
X83720175Y-64582766D01*
X84005731Y-64868821D01*
X84379018Y-65023824D01*
X84715000Y-65024117D01*
X84715000Y-65234250D01*
X84873750Y-65393000D01*
X85598000Y-65393000D01*
X85598000Y-65373000D01*
X85852000Y-65373000D01*
X85852000Y-65393000D01*
X86576250Y-65393000D01*
X86735000Y-65234250D01*
X86735000Y-64993691D01*
X86726222Y-64972500D01*
X87017894Y-64972500D01*
X87540197Y-65494803D01*
X87582211Y-65522666D01*
X87630000Y-65532000D01*
X87876453Y-65532000D01*
X87948290Y-65580000D01*
X87772000Y-65580000D01*
X87772000Y-66358000D01*
X89060364Y-66358000D01*
X89071071Y-66346564D01*
X89345000Y-66401052D01*
X89691329Y-66332163D01*
X89745000Y-66296301D01*
X89798671Y-66332163D01*
X90145000Y-66401052D01*
X90491329Y-66332163D01*
X90545000Y-66296301D01*
X90598671Y-66332163D01*
X90945000Y-66401052D01*
X91291329Y-66332163D01*
X91345000Y-66296301D01*
X91398671Y-66332163D01*
X91745000Y-66401052D01*
X92091329Y-66332163D01*
X92145000Y-66296301D01*
X92198671Y-66332163D01*
X92545000Y-66401052D01*
X92891329Y-66332163D01*
X92945000Y-66296301D01*
X92998671Y-66332163D01*
X93345000Y-66401052D01*
X93691329Y-66332163D01*
X93745000Y-66296301D01*
X93798671Y-66332163D01*
X94145000Y-66401052D01*
X94491329Y-66332163D01*
X94545000Y-66296301D01*
X94598671Y-66332163D01*
X94945000Y-66401052D01*
X95291329Y-66332163D01*
X95345000Y-66296301D01*
X95398671Y-66332163D01*
X95745000Y-66401052D01*
X96091329Y-66332163D01*
X96145000Y-66296301D01*
X96198671Y-66332163D01*
X96545000Y-66401052D01*
X96891329Y-66332163D01*
X96945000Y-66296301D01*
X96998671Y-66332163D01*
X97345000Y-66401052D01*
X97449792Y-66380208D01*
X97428948Y-66485000D01*
X97497837Y-66831329D01*
X97533699Y-66885000D01*
X97497837Y-66938671D01*
X97428948Y-67285000D01*
X97497837Y-67631329D01*
X97533699Y-67685000D01*
X97497837Y-67738671D01*
X97428948Y-68085000D01*
X97497837Y-68431329D01*
X97533699Y-68485000D01*
X97497837Y-68538671D01*
X97428948Y-68885000D01*
X97497837Y-69231329D01*
X97533699Y-69285000D01*
X97497837Y-69338671D01*
X97428948Y-69685000D01*
X97497837Y-70031329D01*
X97551287Y-70111323D01*
X97499854Y-70219391D01*
X97629636Y-70358000D01*
X97743506Y-70358000D01*
X97933575Y-70485000D01*
X97743506Y-70612000D01*
X97629636Y-70612000D01*
X97499854Y-70750609D01*
X97551287Y-70858677D01*
X97497837Y-70938671D01*
X97428948Y-71285000D01*
X97497837Y-71631329D01*
X97533699Y-71685000D01*
X97497837Y-71738671D01*
X97428948Y-72085000D01*
X97497837Y-72431329D01*
X97533699Y-72485000D01*
X97497837Y-72538671D01*
X97428948Y-72885000D01*
X97497837Y-73231329D01*
X97533699Y-73285000D01*
X97497837Y-73338671D01*
X97428948Y-73685000D01*
X97497837Y-74031329D01*
X97551287Y-74111323D01*
X97499854Y-74219391D01*
X97629636Y-74358000D01*
X97743506Y-74358000D01*
X97987619Y-74521111D01*
X98333948Y-74590000D01*
X99192000Y-74590000D01*
X99192000Y-74612000D01*
X99172000Y-74612000D01*
X99172000Y-74632000D01*
X98918000Y-74632000D01*
X98918000Y-74612000D01*
X97629636Y-74612000D01*
X97618929Y-74623436D01*
X97345000Y-74568948D01*
X96998671Y-74637837D01*
X96945000Y-74673699D01*
X96891329Y-74637837D01*
X96545000Y-74568948D01*
X96198671Y-74637837D01*
X96145000Y-74673699D01*
X96091329Y-74637837D01*
X95745000Y-74568948D01*
X95398671Y-74637837D01*
X95345000Y-74673699D01*
X95291329Y-74637837D01*
X94945000Y-74568948D01*
X94598671Y-74637837D01*
X94545000Y-74673699D01*
X94491329Y-74637837D01*
X94145000Y-74568948D01*
X93798671Y-74637837D01*
X93745000Y-74673699D01*
X93691329Y-74637837D01*
X93345000Y-74568948D01*
X92998671Y-74637837D01*
X92945000Y-74673699D01*
X92891329Y-74637837D01*
X92545000Y-74568948D01*
X92198671Y-74637837D01*
X92145000Y-74673699D01*
X92091329Y-74637837D01*
X91745000Y-74568948D01*
X91398671Y-74637837D01*
X91345000Y-74673699D01*
X91291329Y-74637837D01*
X90945000Y-74568948D01*
X90598671Y-74637837D01*
X90545000Y-74673699D01*
X90491329Y-74637837D01*
X90145000Y-74568948D01*
X89798671Y-74637837D01*
X89745000Y-74673699D01*
X89691329Y-74637837D01*
X89345000Y-74568948D01*
X89240208Y-74589792D01*
X89261052Y-74485000D01*
X89192163Y-74138671D01*
X89156301Y-74085000D01*
X89192163Y-74031329D01*
X89261052Y-73685000D01*
X89192163Y-73338671D01*
X89156301Y-73285000D01*
X89192163Y-73231329D01*
X89261052Y-72885000D01*
X89192163Y-72538671D01*
X89156301Y-72485000D01*
X89192163Y-72431329D01*
X89261052Y-72085000D01*
X89192163Y-71738671D01*
X89156301Y-71685000D01*
X89192163Y-71631329D01*
X89261052Y-71285000D01*
X89192163Y-70938671D01*
X89138713Y-70858677D01*
X89190146Y-70750609D01*
X89060364Y-70612000D01*
X88946494Y-70612000D01*
X88756425Y-70485000D01*
X88946494Y-70358000D01*
X89060364Y-70358000D01*
X89190146Y-70219391D01*
X89138713Y-70111323D01*
X89192163Y-70031329D01*
X89261052Y-69685000D01*
X89192163Y-69338671D01*
X89156301Y-69285000D01*
X89192163Y-69231329D01*
X89261052Y-68885000D01*
X89192163Y-68538671D01*
X89156301Y-68485000D01*
X89192163Y-68431329D01*
X89261052Y-68085000D01*
X89192163Y-67738671D01*
X89156301Y-67685000D01*
X89192163Y-67631329D01*
X89261052Y-67285000D01*
X89192163Y-66938671D01*
X89138713Y-66858677D01*
X89190146Y-66750609D01*
X89060364Y-66612000D01*
X88946494Y-66612000D01*
X88702381Y-66448889D01*
X88356052Y-66380000D01*
X87498000Y-66380000D01*
X87498000Y-66358000D01*
X87518000Y-66358000D01*
X87518000Y-65580000D01*
X86838000Y-65580000D01*
X86594298Y-65665048D01*
X86576250Y-65647000D01*
X85852000Y-65647000D01*
X85852000Y-65667000D01*
X85598000Y-65667000D01*
X85598000Y-65647000D01*
X84873750Y-65647000D01*
X84715000Y-65805750D01*
X84715000Y-66046309D01*
X84811673Y-66279698D01*
X84990301Y-66458327D01*
X85185902Y-66539348D01*
X84991179Y-66733731D01*
X84836176Y-67107018D01*
X84835824Y-67511208D01*
X84990175Y-67884766D01*
X85275731Y-68170821D01*
X85649018Y-68325824D01*
X86053208Y-68326176D01*
X86075120Y-68317122D01*
X86097837Y-68431329D01*
X86133699Y-68485000D01*
X86097837Y-68538671D01*
X86028948Y-68885000D01*
X86097837Y-69231329D01*
X86133699Y-69285000D01*
X86097837Y-69338671D01*
X86030674Y-69676323D01*
X86003327Y-69610302D01*
X85824699Y-69431673D01*
X85591310Y-69335000D01*
X85375750Y-69335000D01*
X85217000Y-69493750D01*
X85217000Y-70243000D01*
X85941250Y-70243000D01*
X86100000Y-70084250D01*
X86100000Y-70034566D01*
X86151287Y-70111323D01*
X86099854Y-70219391D01*
X86229634Y-70357998D01*
X86060000Y-70357998D01*
X86060000Y-70397591D01*
X85727794Y-70463671D01*
X85677914Y-70497000D01*
X85217000Y-70497000D01*
X85217000Y-70517000D01*
X84963000Y-70517000D01*
X84963000Y-70497000D01*
X84238750Y-70497000D01*
X84080000Y-70655750D01*
X84080000Y-70705245D01*
X83888269Y-70513179D01*
X83514982Y-70358176D01*
X83110792Y-70357824D01*
X82867363Y-70458407D01*
X82625982Y-70358176D01*
X82221792Y-70357824D01*
X81848234Y-70512175D01*
X81562179Y-70797731D01*
X81481096Y-70993000D01*
X81332606Y-70993000D01*
X80183297Y-69843691D01*
X84080000Y-69843691D01*
X84080000Y-70084250D01*
X84238750Y-70243000D01*
X84963000Y-70243000D01*
X84963000Y-69493750D01*
X84804250Y-69335000D01*
X84588690Y-69335000D01*
X84355301Y-69431673D01*
X84176673Y-69610302D01*
X84080000Y-69843691D01*
X80183297Y-69843691D01*
X78867000Y-68527394D01*
X78867000Y-62574469D01*
X79155815Y-62928790D01*
X79616450Y-63176980D01*
X79676671Y-63187716D01*
X79883000Y-63064374D01*
X79883000Y-61722000D01*
X79863000Y-61722000D01*
X79863000Y-61468000D01*
X79883000Y-61468000D01*
X79883000Y-61448000D01*
X80137000Y-61448000D01*
X80137000Y-61468000D01*
G36*
X102933412Y-70358056D02*
X102933412Y-72009832D01*
X102588803Y-71665223D01*
X102640327Y-71613698D01*
X102737000Y-71380309D01*
X102737000Y-71139750D01*
X102578250Y-70981000D01*
X101854000Y-70981000D01*
X101854000Y-70998000D01*
X101831057Y-70982670D01*
X101563752Y-70929500D01*
X100754328Y-70929500D01*
X100615914Y-70791086D01*
X100581747Y-70768256D01*
X100590146Y-70750609D01*
X100460366Y-70612002D01*
X100630000Y-70612002D01*
X100630000Y-70548738D01*
X100717000Y-70531433D01*
X100717000Y-70568250D01*
X100875750Y-70727000D01*
X101600000Y-70727000D01*
X101600000Y-70707000D01*
X101854000Y-70707000D01*
X101854000Y-70727000D01*
X102578250Y-70727000D01*
X102737000Y-70568250D01*
X102737000Y-70357885D01*
X102933412Y-70358056D01*
X102933412Y-70358056D01*
G37*
X102933412Y-70358056D02*
X102933412Y-72009832D01*
X102588803Y-71665223D01*
X102640327Y-71613698D01*
X102737000Y-71380309D01*
X102737000Y-71139750D01*
X102578250Y-70981000D01*
X101854000Y-70981000D01*
X101854000Y-70998000D01*
X101831057Y-70982670D01*
X101563752Y-70929500D01*
X100754328Y-70929500D01*
X100615914Y-70791086D01*
X100581747Y-70768256D01*
X100590146Y-70750609D01*
X100460366Y-70612002D01*
X100630000Y-70612002D01*
X100630000Y-70548738D01*
X100717000Y-70531433D01*
X100717000Y-70568250D01*
X100875750Y-70727000D01*
X101600000Y-70727000D01*
X101600000Y-70707000D01*
X101854000Y-70707000D01*
X101854000Y-70727000D01*
X102578250Y-70727000D01*
X102737000Y-70568250D01*
X102737000Y-70357885D01*
X102933412Y-70358056D01*
G36*
X90043000Y-59953230D02*
X89659118Y-60029589D01*
X89226012Y-60318980D01*
X88936621Y-60752086D01*
X88898214Y-60945170D01*
X88814778Y-60666785D01*
X88484185Y-60261210D01*
X88023550Y-60013020D01*
X87963329Y-60002284D01*
X87757000Y-60125626D01*
X87757000Y-61468000D01*
X87777000Y-61468000D01*
X87777000Y-61722000D01*
X87757000Y-61722000D01*
X87757000Y-63064374D01*
X87963329Y-63187716D01*
X88023550Y-63176980D01*
X88484185Y-62928790D01*
X88814778Y-62523215D01*
X88898214Y-62244830D01*
X88936621Y-62437914D01*
X89226012Y-62871020D01*
X89659118Y-63160411D01*
X89923518Y-63213003D01*
X89798671Y-63237837D01*
X89718677Y-63291287D01*
X89610609Y-63239854D01*
X89472000Y-63369636D01*
X89472000Y-63483506D01*
X89308889Y-63727619D01*
X89240000Y-64073948D01*
X89240000Y-64932000D01*
X89218000Y-64932000D01*
X89218000Y-64912000D01*
X88648671Y-64912000D01*
X88512051Y-64820029D01*
X88265000Y-64770000D01*
X87893026Y-64770000D01*
X87444013Y-64320987D01*
X87242051Y-64185029D01*
X86995000Y-64135000D01*
X85578000Y-64135000D01*
X85578000Y-63978000D01*
X88440000Y-63978000D01*
X88440000Y-64658000D01*
X89218000Y-64658000D01*
X89218000Y-63369636D01*
X89079391Y-63239854D01*
X88794871Y-63375266D01*
X88557490Y-63641339D01*
X88440000Y-63978000D01*
X85578000Y-63978000D01*
X85578000Y-63893000D01*
X85598000Y-63893000D01*
X85598000Y-63873000D01*
X85852000Y-63873000D01*
X85852000Y-63893000D01*
X86576250Y-63893000D01*
X86735000Y-63734250D01*
X86735000Y-63493691D01*
X86638327Y-63260302D01*
X86459699Y-63081673D01*
X86226310Y-62985000D01*
X86010750Y-62985000D01*
X85852002Y-63143748D01*
X85852002Y-62992619D01*
X86033988Y-62871020D01*
X86323379Y-62437914D01*
X86361786Y-62244830D01*
X86445222Y-62523215D01*
X86775815Y-62928790D01*
X87236450Y-63176980D01*
X87296671Y-63187716D01*
X87503000Y-63064374D01*
X87503000Y-61722000D01*
X87483000Y-61722000D01*
X87483000Y-61468000D01*
X87503000Y-61468000D01*
X87503000Y-60125626D01*
X87296671Y-60002284D01*
X87236450Y-60013020D01*
X86775815Y-60261210D01*
X86445222Y-60666785D01*
X86361786Y-60945170D01*
X86323379Y-60752086D01*
X86033988Y-60318980D01*
X85600882Y-60029589D01*
X85090000Y-59927968D01*
X84579118Y-60029589D01*
X84146012Y-60318980D01*
X83856621Y-60752086D01*
X83820000Y-60936192D01*
X83783379Y-60752086D01*
X83493988Y-60318980D01*
X83060882Y-60029589D01*
X82550000Y-59927968D01*
X82039118Y-60029589D01*
X81879485Y-60136252D01*
X81871573Y-60094205D01*
X81735173Y-59882233D01*
X81527051Y-59740029D01*
X81280000Y-59690000D01*
X78740000Y-59690000D01*
X78509205Y-59733427D01*
X78297233Y-59869827D01*
X78155029Y-60077949D01*
X78105000Y-60325000D01*
X78105000Y-68580000D01*
X78151672Y-68818946D01*
X78290987Y-69029013D01*
X80830987Y-71569013D01*
X81032949Y-71704971D01*
X81280000Y-71755000D01*
X81481113Y-71755000D01*
X81561175Y-71948766D01*
X81724500Y-72112376D01*
X81724500Y-72368225D01*
X81777670Y-72635530D01*
X81929086Y-72862139D01*
X82867500Y-73800553D01*
X82867500Y-75184000D01*
X82920670Y-75451305D01*
X83072086Y-75677914D01*
X85105154Y-77710982D01*
X85090000Y-77707968D01*
X84579118Y-77809589D01*
X84146012Y-78098980D01*
X83856621Y-78532086D01*
X83818214Y-78725170D01*
X83734778Y-78446785D01*
X83404185Y-78041210D01*
X82943550Y-77793020D01*
X82883329Y-77782284D01*
X82677000Y-77905626D01*
X82677000Y-79248000D01*
X82697000Y-79248000D01*
X82697000Y-79502000D01*
X82677000Y-79502000D01*
X82677000Y-80844374D01*
X82883329Y-80967716D01*
X82943550Y-80956980D01*
X83404185Y-80708790D01*
X83734778Y-80303215D01*
X83818214Y-80024830D01*
X83856621Y-80217914D01*
X84146012Y-80651020D01*
X84579118Y-80940411D01*
X85090000Y-81042032D01*
X85600882Y-80940411D01*
X85661500Y-80899908D01*
X85661500Y-81153000D01*
X85714670Y-81420305D01*
X85866086Y-81646914D01*
X86755086Y-82535914D01*
X86981695Y-82687330D01*
X87249000Y-82740500D01*
X98389672Y-82740500D01*
X101028500Y-85379328D01*
X101028500Y-109093000D01*
X101081670Y-109360305D01*
X101233086Y-109586914D01*
X105297086Y-113650914D01*
X105523695Y-113802330D01*
X105791000Y-113855500D01*
X106286560Y-113855500D01*
X106286560Y-115163600D01*
X106330838Y-115398917D01*
X106469910Y-115615041D01*
X106682110Y-115760031D01*
X106934000Y-115811040D01*
X108966000Y-115811040D01*
X109201317Y-115766762D01*
X109217099Y-115756607D01*
X109222110Y-115760031D01*
X109474000Y-115811040D01*
X111506000Y-115811040D01*
X111741317Y-115766762D01*
X111957441Y-115627690D01*
X112102431Y-115415490D01*
X112106165Y-115397050D01*
X112404026Y-115198026D01*
X112884740Y-114717312D01*
X114062293Y-114717312D01*
X114465762Y-115243924D01*
X115979730Y-115887307D01*
X117624666Y-115902346D01*
X119150145Y-115286750D01*
X119214238Y-115243924D01*
X119617707Y-114717312D01*
X116840000Y-111939605D01*
X114062293Y-114717312D01*
X112884740Y-114717312D01*
X113293026Y-114309026D01*
X113391620Y-114161470D01*
X113882688Y-114537707D01*
X116660395Y-111760000D01*
X117019605Y-111760000D01*
X119797312Y-114537707D01*
X120323924Y-114134238D01*
X120967307Y-112620270D01*
X120982346Y-110975334D01*
X120366750Y-109449855D01*
X120323924Y-109385762D01*
X119797312Y-108982293D01*
X117019605Y-111760000D01*
X116660395Y-111760000D01*
X116646253Y-111745858D01*
X116825858Y-111566253D01*
X116840000Y-111580395D01*
X119617707Y-108802688D01*
X119214238Y-108276076D01*
X118745785Y-108077000D01*
X118998995Y-108077000D01*
X118999000Y-108077001D01*
X119485008Y-107980327D01*
X119897026Y-107705026D01*
X121158000Y-106444051D01*
X121158000Y-116078000D01*
X100330000Y-116078000D01*
X100330000Y-100330000D01*
X100286573Y-100099205D01*
X100150173Y-99887233D01*
X99942051Y-99745029D01*
X99822000Y-99720718D01*
X99822000Y-94116026D01*
X100144013Y-93794013D01*
X100279971Y-93592051D01*
X100330000Y-93345000D01*
X100330000Y-86360000D01*
X100283328Y-86121054D01*
X100144013Y-85910987D01*
X98239013Y-84005987D01*
X98037051Y-83870029D01*
X97790000Y-83820000D01*
X89535000Y-83820000D01*
X89304205Y-83863427D01*
X89218295Y-83918708D01*
X89147051Y-83870029D01*
X88900000Y-83820000D01*
X81915000Y-83820000D01*
X81915000Y-80826887D01*
X82156450Y-80956980D01*
X82216671Y-80967716D01*
X82423000Y-80844374D01*
X82423000Y-79502000D01*
X82403000Y-79502000D01*
X82403000Y-79248000D01*
X82423000Y-79248000D01*
X82423000Y-77905626D01*
X82216671Y-77782284D01*
X82156450Y-77793020D01*
X81915000Y-77923113D01*
X81915000Y-77470000D01*
X81868328Y-77231054D01*
X81729013Y-77020987D01*
X81094013Y-76385987D01*
X80892051Y-76250029D01*
X80645000Y-76200000D01*
X79638026Y-76200000D01*
X76835000Y-73396974D01*
X76835000Y-57912000D01*
X90043000Y-57912000D01*
X90043000Y-59953230D01*
X90043000Y-59953230D01*
G37*
X90043000Y-59953230D02*
X89659118Y-60029589D01*
X89226012Y-60318980D01*
X88936621Y-60752086D01*
X88898214Y-60945170D01*
X88814778Y-60666785D01*
X88484185Y-60261210D01*
X88023550Y-60013020D01*
X87963329Y-60002284D01*
X87757000Y-60125626D01*
X87757000Y-61468000D01*
X87777000Y-61468000D01*
X87777000Y-61722000D01*
X87757000Y-61722000D01*
X87757000Y-63064374D01*
X87963329Y-63187716D01*
X88023550Y-63176980D01*
X88484185Y-62928790D01*
X88814778Y-62523215D01*
X88898214Y-62244830D01*
X88936621Y-62437914D01*
X89226012Y-62871020D01*
X89659118Y-63160411D01*
X89923518Y-63213003D01*
X89798671Y-63237837D01*
X89718677Y-63291287D01*
X89610609Y-63239854D01*
X89472000Y-63369636D01*
X89472000Y-63483506D01*
X89308889Y-63727619D01*
X89240000Y-64073948D01*
X89240000Y-64932000D01*
X89218000Y-64932000D01*
X89218000Y-64912000D01*
X88648671Y-64912000D01*
X88512051Y-64820029D01*
X88265000Y-64770000D01*
X87893026Y-64770000D01*
X87444013Y-64320987D01*
X87242051Y-64185029D01*
X86995000Y-64135000D01*
X85578000Y-64135000D01*
X85578000Y-63978000D01*
X88440000Y-63978000D01*
X88440000Y-64658000D01*
X89218000Y-64658000D01*
X89218000Y-63369636D01*
X89079391Y-63239854D01*
X88794871Y-63375266D01*
X88557490Y-63641339D01*
X88440000Y-63978000D01*
X85578000Y-63978000D01*
X85578000Y-63893000D01*
X85598000Y-63893000D01*
X85598000Y-63873000D01*
X85852000Y-63873000D01*
X85852000Y-63893000D01*
X86576250Y-63893000D01*
X86735000Y-63734250D01*
X86735000Y-63493691D01*
X86638327Y-63260302D01*
X86459699Y-63081673D01*
X86226310Y-62985000D01*
X86010750Y-62985000D01*
X85852002Y-63143748D01*
X85852002Y-62992619D01*
X86033988Y-62871020D01*
X86323379Y-62437914D01*
X86361786Y-62244830D01*
X86445222Y-62523215D01*
X86775815Y-62928790D01*
X87236450Y-63176980D01*
X87296671Y-63187716D01*
X87503000Y-63064374D01*
X87503000Y-61722000D01*
X87483000Y-61722000D01*
X87483000Y-61468000D01*
X87503000Y-61468000D01*
X87503000Y-60125626D01*
X87296671Y-60002284D01*
X87236450Y-60013020D01*
X86775815Y-60261210D01*
X86445222Y-60666785D01*
X86361786Y-60945170D01*
X86323379Y-60752086D01*
X86033988Y-60318980D01*
X85600882Y-60029589D01*
X85090000Y-59927968D01*
X84579118Y-60029589D01*
X84146012Y-60318980D01*
X83856621Y-60752086D01*
X83820000Y-60936192D01*
X83783379Y-60752086D01*
X83493988Y-60318980D01*
X83060882Y-60029589D01*
X82550000Y-59927968D01*
X82039118Y-60029589D01*
X81879485Y-60136252D01*
X81871573Y-60094205D01*
X81735173Y-59882233D01*
X81527051Y-59740029D01*
X81280000Y-59690000D01*
X78740000Y-59690000D01*
X78509205Y-59733427D01*
X78297233Y-59869827D01*
X78155029Y-60077949D01*
X78105000Y-60325000D01*
X78105000Y-68580000D01*
X78151672Y-68818946D01*
X78290987Y-69029013D01*
X80830987Y-71569013D01*
X81032949Y-71704971D01*
X81280000Y-71755000D01*
X81481113Y-71755000D01*
X81561175Y-71948766D01*
X81724500Y-72112376D01*
X81724500Y-72368225D01*
X81777670Y-72635530D01*
X81929086Y-72862139D01*
X82867500Y-73800553D01*
X82867500Y-75184000D01*
X82920670Y-75451305D01*
X83072086Y-75677914D01*
X85105154Y-77710982D01*
X85090000Y-77707968D01*
X84579118Y-77809589D01*
X84146012Y-78098980D01*
X83856621Y-78532086D01*
X83818214Y-78725170D01*
X83734778Y-78446785D01*
X83404185Y-78041210D01*
X82943550Y-77793020D01*
X82883329Y-77782284D01*
X82677000Y-77905626D01*
X82677000Y-79248000D01*
X82697000Y-79248000D01*
X82697000Y-79502000D01*
X82677000Y-79502000D01*
X82677000Y-80844374D01*
X82883329Y-80967716D01*
X82943550Y-80956980D01*
X83404185Y-80708790D01*
X83734778Y-80303215D01*
X83818214Y-80024830D01*
X83856621Y-80217914D01*
X84146012Y-80651020D01*
X84579118Y-80940411D01*
X85090000Y-81042032D01*
X85600882Y-80940411D01*
X85661500Y-80899908D01*
X85661500Y-81153000D01*
X85714670Y-81420305D01*
X85866086Y-81646914D01*
X86755086Y-82535914D01*
X86981695Y-82687330D01*
X87249000Y-82740500D01*
X98389672Y-82740500D01*
X101028500Y-85379328D01*
X101028500Y-109093000D01*
X101081670Y-109360305D01*
X101233086Y-109586914D01*
X105297086Y-113650914D01*
X105523695Y-113802330D01*
X105791000Y-113855500D01*
X106286560Y-113855500D01*
X106286560Y-115163600D01*
X106330838Y-115398917D01*
X106469910Y-115615041D01*
X106682110Y-115760031D01*
X106934000Y-115811040D01*
X108966000Y-115811040D01*
X109201317Y-115766762D01*
X109217099Y-115756607D01*
X109222110Y-115760031D01*
X109474000Y-115811040D01*
X111506000Y-115811040D01*
X111741317Y-115766762D01*
X111957441Y-115627690D01*
X112102431Y-115415490D01*
X112106165Y-115397050D01*
X112404026Y-115198026D01*
X112884740Y-114717312D01*
X114062293Y-114717312D01*
X114465762Y-115243924D01*
X115979730Y-115887307D01*
X117624666Y-115902346D01*
X119150145Y-115286750D01*
X119214238Y-115243924D01*
X119617707Y-114717312D01*
X116840000Y-111939605D01*
X114062293Y-114717312D01*
X112884740Y-114717312D01*
X113293026Y-114309026D01*
X113391620Y-114161470D01*
X113882688Y-114537707D01*
X116660395Y-111760000D01*
X117019605Y-111760000D01*
X119797312Y-114537707D01*
X120323924Y-114134238D01*
X120967307Y-112620270D01*
X120982346Y-110975334D01*
X120366750Y-109449855D01*
X120323924Y-109385762D01*
X119797312Y-108982293D01*
X117019605Y-111760000D01*
X116660395Y-111760000D01*
X116646253Y-111745858D01*
X116825858Y-111566253D01*
X116840000Y-111580395D01*
X119617707Y-108802688D01*
X119214238Y-108276076D01*
X118745785Y-108077000D01*
X118998995Y-108077000D01*
X118999000Y-108077001D01*
X119485008Y-107980327D01*
X119897026Y-107705026D01*
X121158000Y-106444051D01*
X121158000Y-116078000D01*
X100330000Y-116078000D01*
X100330000Y-100330000D01*
X100286573Y-100099205D01*
X100150173Y-99887233D01*
X99942051Y-99745029D01*
X99822000Y-99720718D01*
X99822000Y-94116026D01*
X100144013Y-93794013D01*
X100279971Y-93592051D01*
X100330000Y-93345000D01*
X100330000Y-86360000D01*
X100283328Y-86121054D01*
X100144013Y-85910987D01*
X98239013Y-84005987D01*
X98037051Y-83870029D01*
X97790000Y-83820000D01*
X89535000Y-83820000D01*
X89304205Y-83863427D01*
X89218295Y-83918708D01*
X89147051Y-83870029D01*
X88900000Y-83820000D01*
X81915000Y-83820000D01*
X81915000Y-80826887D01*
X82156450Y-80956980D01*
X82216671Y-80967716D01*
X82423000Y-80844374D01*
X82423000Y-79502000D01*
X82403000Y-79502000D01*
X82403000Y-79248000D01*
X82423000Y-79248000D01*
X82423000Y-77905626D01*
X82216671Y-77782284D01*
X82156450Y-77793020D01*
X81915000Y-77923113D01*
X81915000Y-77470000D01*
X81868328Y-77231054D01*
X81729013Y-77020987D01*
X81094013Y-76385987D01*
X80892051Y-76250029D01*
X80645000Y-76200000D01*
X79638026Y-76200000D01*
X76835000Y-73396974D01*
X76835000Y-57912000D01*
X90043000Y-57912000D01*
X90043000Y-59953230D01*
G36*
X104176621Y-80217914D02*
X104466012Y-80651020D01*
X104711500Y-80815049D01*
X104711500Y-81534000D01*
X104764670Y-81801305D01*
X104916086Y-82027914D01*
X108140500Y-85252328D01*
X108140500Y-89535000D01*
X108193670Y-89802305D01*
X108345086Y-90028914D01*
X109410500Y-91094328D01*
X109410500Y-98643672D01*
X108726086Y-99328086D01*
X108574670Y-99554695D01*
X108549566Y-99680903D01*
X108521500Y-99822000D01*
X108521500Y-100188129D01*
X108311913Y-100114816D01*
X108077000Y-100259076D01*
X108077000Y-101473000D01*
X108097000Y-101473000D01*
X108097000Y-101727000D01*
X108077000Y-101727000D01*
X108077000Y-101747000D01*
X107823000Y-101747000D01*
X107823000Y-101727000D01*
X106463783Y-101727000D01*
X106342642Y-101959026D01*
X106345291Y-101974791D01*
X106599268Y-102502036D01*
X107015069Y-102873539D01*
X106705585Y-103080330D01*
X106464259Y-103441500D01*
X104429328Y-103441500D01*
X103695510Y-102707682D01*
X103695510Y-101240974D01*
X106342642Y-101240974D01*
X106463783Y-101473000D01*
X107823000Y-101473000D01*
X107823000Y-100259076D01*
X107588087Y-100114816D01*
X107035680Y-100308046D01*
X106599268Y-100697964D01*
X106345291Y-101225209D01*
X106342642Y-101240974D01*
X103695510Y-101240974D01*
X103695510Y-84328010D01*
X103642340Y-84060706D01*
X103490924Y-83834096D01*
X100637662Y-80980834D01*
X100840882Y-80940411D01*
X101273988Y-80651020D01*
X101563379Y-80217914D01*
X101600000Y-80033808D01*
X101636621Y-80217914D01*
X101926012Y-80651020D01*
X102359118Y-80940411D01*
X102870000Y-81042032D01*
X103380882Y-80940411D01*
X103813988Y-80651020D01*
X104103379Y-80217914D01*
X104140000Y-80033808D01*
X104176621Y-80217914D01*
X104176621Y-80217914D01*
G37*
X104176621Y-80217914D02*
X104466012Y-80651020D01*
X104711500Y-80815049D01*
X104711500Y-81534000D01*
X104764670Y-81801305D01*
X104916086Y-82027914D01*
X108140500Y-85252328D01*
X108140500Y-89535000D01*
X108193670Y-89802305D01*
X108345086Y-90028914D01*
X109410500Y-91094328D01*
X109410500Y-98643672D01*
X108726086Y-99328086D01*
X108574670Y-99554695D01*
X108549566Y-99680903D01*
X108521500Y-99822000D01*
X108521500Y-100188129D01*
X108311913Y-100114816D01*
X108077000Y-100259076D01*
X108077000Y-101473000D01*
X108097000Y-101473000D01*
X108097000Y-101727000D01*
X108077000Y-101727000D01*
X108077000Y-101747000D01*
X107823000Y-101747000D01*
X107823000Y-101727000D01*
X106463783Y-101727000D01*
X106342642Y-101959026D01*
X106345291Y-101974791D01*
X106599268Y-102502036D01*
X107015069Y-102873539D01*
X106705585Y-103080330D01*
X106464259Y-103441500D01*
X104429328Y-103441500D01*
X103695510Y-102707682D01*
X103695510Y-101240974D01*
X106342642Y-101240974D01*
X106463783Y-101473000D01*
X107823000Y-101473000D01*
X107823000Y-100259076D01*
X107588087Y-100114816D01*
X107035680Y-100308046D01*
X106599268Y-100697964D01*
X106345291Y-101225209D01*
X106342642Y-101240974D01*
X103695510Y-101240974D01*
X103695510Y-84328010D01*
X103642340Y-84060706D01*
X103490924Y-83834096D01*
X100637662Y-80980834D01*
X100840882Y-80940411D01*
X101273988Y-80651020D01*
X101563379Y-80217914D01*
X101600000Y-80033808D01*
X101636621Y-80217914D01*
X101926012Y-80651020D01*
X102359118Y-80940411D01*
X102870000Y-81042032D01*
X103380882Y-80940411D01*
X103813988Y-80651020D01*
X104103379Y-80217914D01*
X104140000Y-80033808D01*
X104176621Y-80217914D01*
G36*
X111315489Y-99476317D02*
X111315489Y-100276973D01*
X110851913Y-100114816D01*
X110617000Y-100259076D01*
X110617000Y-101473000D01*
X110637000Y-101473000D01*
X110637000Y-101727000D01*
X110617000Y-101727000D01*
X110617000Y-101747000D01*
X110363000Y-101747000D01*
X110363000Y-101727000D01*
X110343000Y-101727000D01*
X110343000Y-101473000D01*
X110363000Y-101473000D01*
X110363000Y-100259076D01*
X110128087Y-100114816D01*
X109918500Y-100188129D01*
X109918500Y-100111328D01*
X110602914Y-99426914D01*
X110754330Y-99200305D01*
X110801639Y-98962467D01*
X111315489Y-99476317D01*
X111315489Y-99476317D01*
G37*
X111315489Y-99476317D02*
X111315489Y-100276973D01*
X110851913Y-100114816D01*
X110617000Y-100259076D01*
X110617000Y-101473000D01*
X110637000Y-101473000D01*
X110637000Y-101727000D01*
X110617000Y-101727000D01*
X110617000Y-101747000D01*
X110363000Y-101747000D01*
X110363000Y-101727000D01*
X110343000Y-101727000D01*
X110343000Y-101473000D01*
X110363000Y-101473000D01*
X110363000Y-100259076D01*
X110128087Y-100114816D01*
X109918500Y-100188129D01*
X109918500Y-100111328D01*
X110602914Y-99426914D01*
X110754330Y-99200305D01*
X110801639Y-98962467D01*
X111315489Y-99476317D01*
G36*
X113298086Y-95743914D02*
X113524695Y-95895330D01*
X113792000Y-95948500D01*
X114127748Y-95948500D01*
X114033124Y-96131460D01*
X114025280Y-96176930D01*
X114147780Y-96393000D01*
X115443000Y-96393000D01*
X115443000Y-96373000D01*
X115697000Y-96373000D01*
X115697000Y-96393000D01*
X115717000Y-96393000D01*
X115717000Y-96647000D01*
X115697000Y-96647000D01*
X115697000Y-96667000D01*
X115443000Y-96667000D01*
X115443000Y-96647000D01*
X114147780Y-96647000D01*
X114025280Y-96863070D01*
X114033124Y-96908540D01*
X114127748Y-97091500D01*
X114081328Y-97091500D01*
X111950500Y-94960672D01*
X111950500Y-94396327D01*
X113298086Y-95743914D01*
X113298086Y-95743914D01*
G37*
X113298086Y-95743914D02*
X113524695Y-95895330D01*
X113792000Y-95948500D01*
X114127748Y-95948500D01*
X114033124Y-96131460D01*
X114025280Y-96176930D01*
X114147780Y-96393000D01*
X115443000Y-96393000D01*
X115443000Y-96373000D01*
X115697000Y-96373000D01*
X115697000Y-96393000D01*
X115717000Y-96393000D01*
X115717000Y-96647000D01*
X115697000Y-96647000D01*
X115697000Y-96667000D01*
X115443000Y-96667000D01*
X115443000Y-96647000D01*
X114147780Y-96647000D01*
X114025280Y-96863070D01*
X114033124Y-96908540D01*
X114127748Y-97091500D01*
X114081328Y-97091500D01*
X111950500Y-94960672D01*
X111950500Y-94396327D01*
X113298086Y-95743914D01*
G36*
X113298086Y-90663914D02*
X113524695Y-90815330D01*
X113792000Y-90868500D01*
X114127748Y-90868500D01*
X114033124Y-91051460D01*
X114025280Y-91096930D01*
X114147780Y-91313000D01*
X115443000Y-91313000D01*
X115443000Y-91293000D01*
X115697000Y-91293000D01*
X115697000Y-91313000D01*
X115717000Y-91313000D01*
X115717000Y-91567000D01*
X115697000Y-91567000D01*
X115697000Y-91587000D01*
X115443000Y-91587000D01*
X115443000Y-91567000D01*
X114147780Y-91567000D01*
X114025280Y-91783070D01*
X114033124Y-91828540D01*
X114127748Y-92011500D01*
X114081328Y-92011500D01*
X112712544Y-90642716D01*
X112712544Y-90078372D01*
X113298086Y-90663914D01*
X113298086Y-90663914D01*
G37*
X113298086Y-90663914D02*
X113524695Y-90815330D01*
X113792000Y-90868500D01*
X114127748Y-90868500D01*
X114033124Y-91051460D01*
X114025280Y-91096930D01*
X114147780Y-91313000D01*
X115443000Y-91313000D01*
X115443000Y-91293000D01*
X115697000Y-91293000D01*
X115697000Y-91313000D01*
X115717000Y-91313000D01*
X115717000Y-91567000D01*
X115697000Y-91567000D01*
X115697000Y-91587000D01*
X115443000Y-91587000D01*
X115443000Y-91567000D01*
X114147780Y-91567000D01*
X114025280Y-91783070D01*
X114033124Y-91828540D01*
X114127748Y-92011500D01*
X114081328Y-92011500D01*
X112712544Y-90642716D01*
X112712544Y-90078372D01*
X113298086Y-90663914D01*
G36*
X117355226Y-79989054D02*
X117353790Y-79989340D01*
X116900571Y-80292172D01*
X116835842Y-80389046D01*
X116437792Y-80053229D01*
X115916771Y-79887423D01*
X115697000Y-80038872D01*
X115697000Y-81153000D01*
X115717000Y-81153000D01*
X115717000Y-81407000D01*
X115697000Y-81407000D01*
X115697000Y-81427000D01*
X115443000Y-81427000D01*
X115443000Y-81407000D01*
X115423000Y-81407000D01*
X115423000Y-81153000D01*
X115443000Y-81153000D01*
X115443000Y-80038872D01*
X115223229Y-79887423D01*
X114702208Y-80053229D01*
X114490621Y-80231735D01*
X114490621Y-77124449D01*
X117355226Y-79989054D01*
X117355226Y-79989054D01*
G37*
X117355226Y-79989054D02*
X117353790Y-79989340D01*
X116900571Y-80292172D01*
X116835842Y-80389046D01*
X116437792Y-80053229D01*
X115916771Y-79887423D01*
X115697000Y-80038872D01*
X115697000Y-81153000D01*
X115717000Y-81153000D01*
X115717000Y-81407000D01*
X115697000Y-81407000D01*
X115697000Y-81427000D01*
X115443000Y-81427000D01*
X115443000Y-81407000D01*
X115423000Y-81407000D01*
X115423000Y-81153000D01*
X115443000Y-81153000D01*
X115443000Y-80038872D01*
X115223229Y-79887423D01*
X114702208Y-80053229D01*
X114490621Y-80231735D01*
X114490621Y-77124449D01*
X117355226Y-79989054D01*
G36*
X117033748Y-62215858D02*
X117019605Y-62230000D01*
X119797312Y-65007707D01*
X120323924Y-64604238D01*
X120332500Y-64584058D01*
X120332500Y-64861672D01*
X118886086Y-66308086D01*
X118734670Y-66534695D01*
X118694781Y-66735234D01*
X118681500Y-66802000D01*
X118681500Y-67068960D01*
X118364000Y-67068960D01*
X118128683Y-67113238D01*
X117912559Y-67252310D01*
X117767569Y-67464510D01*
X117716560Y-67716400D01*
X117716560Y-69443600D01*
X117760838Y-69678917D01*
X117899910Y-69895041D01*
X118112110Y-70040031D01*
X118206927Y-70059232D01*
X118029268Y-70217964D01*
X117775291Y-70745209D01*
X117772642Y-70760974D01*
X117893783Y-70993000D01*
X119253000Y-70993000D01*
X119253000Y-70973000D01*
X119507000Y-70973000D01*
X119507000Y-70993000D01*
X120866217Y-70993000D01*
X120987358Y-70760974D01*
X120984709Y-70745209D01*
X120730732Y-70217964D01*
X120555155Y-70061093D01*
X120631317Y-70046762D01*
X120847441Y-69907690D01*
X120992431Y-69695490D01*
X121043440Y-69443600D01*
X121043440Y-67716400D01*
X120999162Y-67481083D01*
X120860090Y-67264959D01*
X120647890Y-67119969D01*
X120396000Y-67068960D01*
X120100868Y-67068960D01*
X121158000Y-66011828D01*
X121158000Y-78086948D01*
X116731052Y-73660000D01*
X117696655Y-73660000D01*
X117810729Y-74233489D01*
X118135585Y-74719670D01*
X118621766Y-75044526D01*
X119195255Y-75158600D01*
X119564745Y-75158600D01*
X120138234Y-75044526D01*
X120624415Y-74719670D01*
X120949271Y-74233489D01*
X121063345Y-73660000D01*
X120949271Y-73086511D01*
X120624415Y-72600330D01*
X120314931Y-72393539D01*
X120730732Y-72022036D01*
X120984709Y-71494791D01*
X120987358Y-71479026D01*
X120866217Y-71247000D01*
X119507000Y-71247000D01*
X119507000Y-71267000D01*
X119253000Y-71267000D01*
X119253000Y-71247000D01*
X117893783Y-71247000D01*
X117772642Y-71479026D01*
X117775291Y-71494791D01*
X118029268Y-72022036D01*
X118445069Y-72393539D01*
X118135585Y-72600330D01*
X117810729Y-73086511D01*
X117696655Y-73660000D01*
X116731052Y-73660000D01*
X115833026Y-72761974D01*
X115421008Y-72486673D01*
X114935000Y-72389999D01*
X114934995Y-72390000D01*
X113792000Y-72390000D01*
X113305992Y-72486673D01*
X113157000Y-72586226D01*
X113157000Y-65187312D01*
X114062293Y-65187312D01*
X114465762Y-65713924D01*
X115979730Y-66357307D01*
X117624666Y-66372346D01*
X119150145Y-65756750D01*
X119214238Y-65713924D01*
X119617707Y-65187312D01*
X116840000Y-62409605D01*
X114062293Y-65187312D01*
X113157000Y-65187312D01*
X113157000Y-64152949D01*
X113313250Y-64540145D01*
X113356076Y-64604238D01*
X113882688Y-65007707D01*
X116660395Y-62230000D01*
X116646253Y-62215858D01*
X116825858Y-62036253D01*
X116840000Y-62050395D01*
X116854143Y-62036253D01*
X117033748Y-62215858D01*
X117033748Y-62215858D01*
G37*
X117033748Y-62215858D02*
X117019605Y-62230000D01*
X119797312Y-65007707D01*
X120323924Y-64604238D01*
X120332500Y-64584058D01*
X120332500Y-64861672D01*
X118886086Y-66308086D01*
X118734670Y-66534695D01*
X118694781Y-66735234D01*
X118681500Y-66802000D01*
X118681500Y-67068960D01*
X118364000Y-67068960D01*
X118128683Y-67113238D01*
X117912559Y-67252310D01*
X117767569Y-67464510D01*
X117716560Y-67716400D01*
X117716560Y-69443600D01*
X117760838Y-69678917D01*
X117899910Y-69895041D01*
X118112110Y-70040031D01*
X118206927Y-70059232D01*
X118029268Y-70217964D01*
X117775291Y-70745209D01*
X117772642Y-70760974D01*
X117893783Y-70993000D01*
X119253000Y-70993000D01*
X119253000Y-70973000D01*
X119507000Y-70973000D01*
X119507000Y-70993000D01*
X120866217Y-70993000D01*
X120987358Y-70760974D01*
X120984709Y-70745209D01*
X120730732Y-70217964D01*
X120555155Y-70061093D01*
X120631317Y-70046762D01*
X120847441Y-69907690D01*
X120992431Y-69695490D01*
X121043440Y-69443600D01*
X121043440Y-67716400D01*
X120999162Y-67481083D01*
X120860090Y-67264959D01*
X120647890Y-67119969D01*
X120396000Y-67068960D01*
X120100868Y-67068960D01*
X121158000Y-66011828D01*
X121158000Y-78086948D01*
X116731052Y-73660000D01*
X117696655Y-73660000D01*
X117810729Y-74233489D01*
X118135585Y-74719670D01*
X118621766Y-75044526D01*
X119195255Y-75158600D01*
X119564745Y-75158600D01*
X120138234Y-75044526D01*
X120624415Y-74719670D01*
X120949271Y-74233489D01*
X121063345Y-73660000D01*
X120949271Y-73086511D01*
X120624415Y-72600330D01*
X120314931Y-72393539D01*
X120730732Y-72022036D01*
X120984709Y-71494791D01*
X120987358Y-71479026D01*
X120866217Y-71247000D01*
X119507000Y-71247000D01*
X119507000Y-71267000D01*
X119253000Y-71267000D01*
X119253000Y-71247000D01*
X117893783Y-71247000D01*
X117772642Y-71479026D01*
X117775291Y-71494791D01*
X118029268Y-72022036D01*
X118445069Y-72393539D01*
X118135585Y-72600330D01*
X117810729Y-73086511D01*
X117696655Y-73660000D01*
X116731052Y-73660000D01*
X115833026Y-72761974D01*
X115421008Y-72486673D01*
X114935000Y-72389999D01*
X114934995Y-72390000D01*
X113792000Y-72390000D01*
X113305992Y-72486673D01*
X113157000Y-72586226D01*
X113157000Y-65187312D01*
X114062293Y-65187312D01*
X114465762Y-65713924D01*
X115979730Y-66357307D01*
X117624666Y-66372346D01*
X119150145Y-65756750D01*
X119214238Y-65713924D01*
X119617707Y-65187312D01*
X116840000Y-62409605D01*
X114062293Y-65187312D01*
X113157000Y-65187312D01*
X113157000Y-64152949D01*
X113313250Y-64540145D01*
X113356076Y-64604238D01*
X113882688Y-65007707D01*
X116660395Y-62230000D01*
X116646253Y-62215858D01*
X116825858Y-62036253D01*
X116840000Y-62050395D01*
X116854143Y-62036253D01*
X117033748Y-62215858D01*
G36*
X97472000Y-76058000D02*
X98041329Y-76058000D01*
X98177949Y-76149971D01*
X98425000Y-76200000D01*
X102743110Y-76200000D01*
X102742824Y-76528208D01*
X102897175Y-76901766D01*
X103182731Y-77187821D01*
X103403518Y-77279500D01*
X102271512Y-77279500D01*
X102334699Y-77253327D01*
X102513327Y-77074698D01*
X102610000Y-76841309D01*
X102610000Y-76600750D01*
X102451250Y-76442000D01*
X101727000Y-76442000D01*
X101727000Y-76462000D01*
X101473000Y-76462000D01*
X101473000Y-76442000D01*
X100748750Y-76442000D01*
X100590000Y-76600750D01*
X100590000Y-76841309D01*
X100686673Y-77074698D01*
X100865301Y-77253327D01*
X100928488Y-77279500D01*
X100111328Y-77279500D01*
X99807914Y-76976086D01*
X99581305Y-76824670D01*
X99314000Y-76771500D01*
X98250000Y-76771500D01*
X98250000Y-76312000D01*
X97472000Y-76312000D01*
X97472000Y-76332000D01*
X97450000Y-76332000D01*
X97450000Y-76038000D01*
X97472000Y-76038000D01*
X97472000Y-76058000D01*
X97472000Y-76058000D01*
G37*
X97472000Y-76058000D02*
X98041329Y-76058000D01*
X98177949Y-76149971D01*
X98425000Y-76200000D01*
X102743110Y-76200000D01*
X102742824Y-76528208D01*
X102897175Y-76901766D01*
X103182731Y-77187821D01*
X103403518Y-77279500D01*
X102271512Y-77279500D01*
X102334699Y-77253327D01*
X102513327Y-77074698D01*
X102610000Y-76841309D01*
X102610000Y-76600750D01*
X102451250Y-76442000D01*
X101727000Y-76442000D01*
X101727000Y-76462000D01*
X101473000Y-76462000D01*
X101473000Y-76442000D01*
X100748750Y-76442000D01*
X100590000Y-76600750D01*
X100590000Y-76841309D01*
X100686673Y-77074698D01*
X100865301Y-77253327D01*
X100928488Y-77279500D01*
X100111328Y-77279500D01*
X99807914Y-76976086D01*
X99581305Y-76824670D01*
X99314000Y-76771500D01*
X98250000Y-76771500D01*
X98250000Y-76312000D01*
X97472000Y-76312000D01*
X97472000Y-76332000D01*
X97450000Y-76332000D01*
X97450000Y-76038000D01*
X97472000Y-76038000D01*
X97472000Y-76058000D01*
G36*
X85237000Y-71997000D02*
X85217000Y-71997000D01*
X85217000Y-72746250D01*
X85375750Y-72905000D01*
X85591310Y-72905000D01*
X85824699Y-72808327D01*
X86003327Y-72629698D01*
X86093833Y-72411198D01*
X86097837Y-72431329D01*
X86133699Y-72485000D01*
X86097837Y-72538671D01*
X86028948Y-72885000D01*
X86097837Y-73231329D01*
X86133699Y-73285000D01*
X86097837Y-73338671D01*
X86028948Y-73685000D01*
X86087985Y-73981799D01*
X86074086Y-73991086D01*
X85733500Y-74331672D01*
X84010500Y-72608672D01*
X84010500Y-72112307D01*
X84126006Y-71997002D01*
X84238748Y-71997002D01*
X84080000Y-72155750D01*
X84080000Y-72396309D01*
X84176673Y-72629698D01*
X84355301Y-72808327D01*
X84588690Y-72905000D01*
X84804250Y-72905000D01*
X84963000Y-72746250D01*
X84963000Y-71997000D01*
X84943000Y-71997000D01*
X84943000Y-71755000D01*
X85237000Y-71755000D01*
X85237000Y-71997000D01*
X85237000Y-71997000D01*
G37*
X85237000Y-71997000D02*
X85217000Y-71997000D01*
X85217000Y-72746250D01*
X85375750Y-72905000D01*
X85591310Y-72905000D01*
X85824699Y-72808327D01*
X86003327Y-72629698D01*
X86093833Y-72411198D01*
X86097837Y-72431329D01*
X86133699Y-72485000D01*
X86097837Y-72538671D01*
X86028948Y-72885000D01*
X86097837Y-73231329D01*
X86133699Y-73285000D01*
X86097837Y-73338671D01*
X86028948Y-73685000D01*
X86087985Y-73981799D01*
X86074086Y-73991086D01*
X85733500Y-74331672D01*
X84010500Y-72608672D01*
X84010500Y-72112307D01*
X84126006Y-71997002D01*
X84238748Y-71997002D01*
X84080000Y-72155750D01*
X84080000Y-72396309D01*
X84176673Y-72629698D01*
X84355301Y-72808327D01*
X84588690Y-72905000D01*
X84804250Y-72905000D01*
X84963000Y-72746250D01*
X84963000Y-71997000D01*
X84943000Y-71997000D01*
X84943000Y-71755000D01*
X85237000Y-71755000D01*
X85237000Y-71997000D01*
M02*
