G04 #@! TF.FileFunction,Legend,Bot*
%FSLAX46Y46*%
G04 Gerber Fmt 4.6, Leading zero omitted, Abs format (unit mm)*
G04 Created by KiCad (PCBNEW 4.0.1-stable) date 7/4/2016 23:44:38*
%MOMM*%
G01*
G04 APERTURE LIST*
%ADD10C,0.254000*%
%ADD11C,0.150000*%
%ADD12O,2.406400X1.606400*%
%ADD13R,4.406400X4.406400*%
%ADD14C,2.946400*%
%ADD15C,4.216400*%
%ADD16R,2.133600X2.438400*%
%ADD17O,2.133600X2.438400*%
%ADD18O,2.311400X1.930400*%
%ADD19R,2.311400X1.930400*%
%ADD20C,3.906400*%
%ADD21C,7.406400*%
%ADD22C,1.006400*%
G04 APERTURE END LIST*
D10*
D11*
X-62670500Y-21010880D02*
X-62670500Y-12009120D01*
X-66170620Y-21010880D02*
X-66170620Y-12009120D01*
X-66170620Y-12009120D02*
X-51669760Y-12009120D01*
X-51669760Y-12009120D02*
X-51669760Y-21010880D01*
X-51669760Y-21010880D02*
X-66170620Y-21010880D01*
D10*
X3000000Y2032000D02*
X4064000Y2032000D01*
X4064000Y2032000D02*
X4064000Y-2032000D01*
X4064000Y-2032000D02*
X3000000Y-2032000D01*
X3000000Y12700000D02*
X3000000Y-12700000D01*
X3000000Y-12700000D02*
X-3000000Y-12700000D01*
X-3000000Y-12700000D02*
X-3000000Y12700000D01*
X-3000000Y12700000D02*
X3000000Y12700000D01*
X-49266436Y-16086667D02*
X-48359293Y-16086667D01*
X-48177865Y-16026191D01*
X-48056912Y-15905239D01*
X-47996436Y-15723810D01*
X-47996436Y-15602858D01*
X-47996436Y-17356667D02*
X-47996436Y-16630953D01*
X-47996436Y-16993810D02*
X-49266436Y-16993810D01*
X-49085008Y-16872858D01*
X-48964055Y-16751905D01*
X-48903579Y-16630953D01*
X423333Y14792476D02*
X423333Y13885333D01*
X483809Y13703905D01*
X604761Y13582952D01*
X786190Y13522476D01*
X907142Y13522476D01*
X-60477Y14792476D02*
X-907143Y14792476D01*
X-362858Y13522476D01*
%LPC*%
D12*
X-44578544Y-11251338D03*
X-26798544Y-11251338D03*
X-44578544Y-8711338D03*
X-26798544Y-8711338D03*
X-44578544Y-6171338D03*
X-26798544Y-6171338D03*
X-44578544Y-3631338D03*
X-26798544Y-3631338D03*
X-44578544Y-1091338D03*
X-26798544Y-1091338D03*
X-44578544Y1448662D03*
X-26798544Y1448662D03*
X-44578544Y3988662D03*
X-26798544Y3988662D03*
X-44578544Y6528662D03*
X-26798544Y6528662D03*
X-44578544Y9068662D03*
X-26798544Y9068662D03*
X-44578544Y11608662D03*
X-26798544Y11608662D03*
X-44578544Y14148662D03*
X-26798544Y14148662D03*
X-44578544Y16688662D03*
X-26798544Y16688662D03*
D13*
X-52070000Y-16510000D03*
X-58670000Y-16510000D03*
X-55420000Y-11811000D03*
D14*
X-62230000Y22860000D03*
D15*
X-52070000Y22860000D03*
D14*
X-62230000Y13970000D03*
D15*
X-52070000Y13970000D03*
D14*
X-62230000Y5080000D03*
D15*
X-52070000Y5080000D03*
D14*
X-62230000Y-3810000D03*
D15*
X-52070000Y-3810000D03*
D16*
X-6350000Y24130000D03*
D17*
X-8890000Y24130000D03*
X-11430000Y24130000D03*
X-13970000Y24130000D03*
X-16510000Y24130000D03*
X-19050000Y24130000D03*
D16*
X-6350000Y20320000D03*
D17*
X-8890000Y20320000D03*
X-11430000Y20320000D03*
X-13970000Y20320000D03*
X-16510000Y20320000D03*
X-19050000Y20320000D03*
D18*
X-1270000Y8890000D03*
X1270000Y8890000D03*
X-1270000Y6350000D03*
X1270000Y6350000D03*
X-1270000Y3810000D03*
X1270000Y3810000D03*
X-1270000Y1270000D03*
X1270000Y1270000D03*
X-1270000Y-1270000D03*
X1270000Y-1270000D03*
X-1270000Y-3810000D03*
X1270000Y-3810000D03*
X-1270000Y-6350000D03*
X1270000Y-6350000D03*
X-1270000Y-8890000D03*
D19*
X1270000Y-8890000D03*
D20*
X-62230000Y-10160000D03*
X-57150000Y24130000D03*
D21*
X0Y22860000D03*
D22*
X2625000Y22860000D03*
X1856155Y21003845D03*
X0Y20235000D03*
X-1856155Y21003845D03*
X-2625000Y22860000D03*
X-1856155Y24716155D03*
X0Y25485000D03*
X1856155Y24716155D03*
D21*
X85000Y-17780000D03*
D22*
X2710000Y-17780000D03*
X1941155Y-19636155D03*
X85000Y-20405000D03*
X-1771155Y-19636155D03*
X-2540000Y-17780000D03*
X-1771155Y-15923845D03*
X85000Y-15155000D03*
X1941155Y-15923845D03*
M02*
