G04 #@! TF.FileFunction,Copper,L1,Top,Signal*
%FSLAX46Y46*%
G04 Gerber Fmt 4.6, Leading zero omitted, Abs format (unit mm)*
G04 Created by KiCad (PCBNEW 4.0.4-stable) date 01/08/17 17:33:34*
%MOMM*%
%LPD*%
G01*
G04 APERTURE LIST*
%ADD10C,0.254000*%
%ADD11O,1.905000X1.524000*%
%ADD12R,1.905000X1.524000*%
%ADD13C,2.540000*%
%ADD14C,3.810000*%
%ADD15C,7.000000*%
%ADD16C,0.600000*%
%ADD17R,4.000000X4.000000*%
%ADD18R,0.800000X0.750000*%
%ADD19R,2.032000X1.727200*%
%ADD20O,2.032000X1.727200*%
%ADD21R,1.300000X0.700000*%
%ADD22O,1.400000X2.000000*%
%ADD23R,1.400000X3.175000*%
%ADD24R,1.778000X1.778000*%
%ADD25R,1.143000X1.143000*%
%ADD26R,1.778000X1.524000*%
%ADD27C,0.762000*%
%ADD28C,0.635000*%
%ADD29C,1.270000*%
%ADD30C,0.127000*%
%ADD31C,0.508000*%
G04 APERTURE END LIST*
D10*
D11*
X115570000Y-81280000D03*
X118110000Y-81280000D03*
X115570000Y-83820000D03*
X118110000Y-83820000D03*
X115570000Y-86360000D03*
X118110000Y-86360000D03*
X115570000Y-88900000D03*
X118110000Y-88900000D03*
X115570000Y-91440000D03*
X118110000Y-91440000D03*
X115570000Y-93980000D03*
X118110000Y-93980000D03*
X115570000Y-96520000D03*
X118110000Y-96520000D03*
X115570000Y-99060000D03*
D12*
X118110000Y-99060000D03*
D13*
X54610000Y-62230000D03*
D14*
X64770000Y-62230000D03*
D13*
X54610000Y-71120000D03*
D14*
X64770000Y-71120000D03*
D13*
X54610000Y-80010000D03*
D14*
X64770000Y-80010000D03*
D13*
X54610000Y-88900000D03*
D14*
X64770000Y-88900000D03*
D15*
X116840000Y-62230000D03*
D16*
X119465000Y-62230000D03*
X118696155Y-64086155D03*
X116840000Y-64855000D03*
X114983845Y-64086155D03*
X114215000Y-62230000D03*
X114983845Y-60373845D03*
X116840000Y-59605000D03*
X118696155Y-60373845D03*
D15*
X56880000Y-98810000D03*
D16*
X59505000Y-98810000D03*
X58736155Y-100666155D03*
X56880000Y-101435000D03*
X55023845Y-100666155D03*
X54255000Y-98810000D03*
X55023845Y-96953845D03*
X56880000Y-96185000D03*
X58736155Y-96953845D03*
D15*
X116840000Y-111760000D03*
D16*
X119465000Y-111760000D03*
X118696155Y-113616155D03*
X116840000Y-114385000D03*
X114983845Y-113616155D03*
X114215000Y-111760000D03*
X114983845Y-109903845D03*
X116840000Y-109135000D03*
X118696155Y-109903845D03*
D17*
X64620140Y-109220000D03*
X58620660Y-109220000D03*
X61620400Y-113919000D03*
D18*
X116955000Y-71755000D03*
X115455000Y-71755000D03*
D19*
X110490000Y-114300000D03*
D20*
X110490000Y-111760000D03*
X110490000Y-109220000D03*
X110490000Y-106680000D03*
X110490000Y-104140000D03*
X110490000Y-101600000D03*
D19*
X107950000Y-114300000D03*
D20*
X107950000Y-111760000D03*
X107950000Y-109220000D03*
X107950000Y-106680000D03*
X107950000Y-104140000D03*
X107950000Y-101600000D03*
D19*
X119380000Y-68580000D03*
D20*
X119380000Y-71120000D03*
X119380000Y-73660000D03*
D21*
X119380000Y-103825000D03*
X119380000Y-105725000D03*
D18*
X115455000Y-73660000D03*
X116955000Y-73660000D03*
X117590000Y-104140000D03*
X116090000Y-104140000D03*
D22*
X80010000Y-61595000D03*
X80010000Y-79375000D03*
X82550000Y-61595000D03*
X82550000Y-79375000D03*
X85090000Y-61595000D03*
X85090000Y-79375000D03*
X87630000Y-61595000D03*
X87630000Y-79375000D03*
X90170000Y-61595000D03*
X90170000Y-79375000D03*
X92710000Y-61595000D03*
X92710000Y-79375000D03*
X95250000Y-61595000D03*
X95250000Y-79375000D03*
X97790000Y-61595000D03*
X97790000Y-79375000D03*
X100330000Y-61595000D03*
X100330000Y-79375000D03*
X102870000Y-61595000D03*
X102870000Y-79375000D03*
X105410000Y-61595000D03*
X105410000Y-79375000D03*
X107950000Y-61595000D03*
X107950000Y-79375000D03*
D23*
X80010000Y-81280000D03*
X82550000Y-81280000D03*
X85090000Y-81280000D03*
X87630000Y-81280000D03*
X90170000Y-81280000D03*
X92710000Y-81280000D03*
X95250000Y-81280000D03*
X97790000Y-81280000D03*
X100330000Y-81280000D03*
X102870000Y-81280000D03*
X105410000Y-81280000D03*
X107950000Y-81280000D03*
X107950000Y-59690000D03*
X105410000Y-59690000D03*
X102870000Y-59690000D03*
X100330000Y-59690000D03*
X97790000Y-59690000D03*
X95250000Y-59690000D03*
X92710000Y-59690000D03*
X90170000Y-59690000D03*
X87630000Y-59690000D03*
X85090000Y-59690000D03*
X82550000Y-59690000D03*
X80010000Y-59690000D03*
D24*
X80010000Y-76835000D03*
X87630000Y-76835000D03*
D25*
X97790000Y-76835000D03*
X82550000Y-64135000D03*
X80010000Y-64135000D03*
D26*
X77216000Y-69469000D03*
X77216000Y-71501000D03*
D27*
X108585000Y-93345000D03*
X104775000Y-84455000D03*
X104775000Y-99060000D03*
X77470000Y-59055000D03*
X77470000Y-67183000D03*
X100457000Y-85598000D03*
X100457000Y-99060000D03*
X100965000Y-113030000D03*
X62738000Y-94107000D03*
X62738000Y-94996000D03*
X62738000Y-95885000D03*
X62738000Y-96774000D03*
X62738000Y-97663000D03*
X62738000Y-98552000D03*
X63627000Y-98552000D03*
X63627000Y-97663000D03*
X63627000Y-96774000D03*
X63627000Y-95885000D03*
X63627000Y-94996000D03*
X63627000Y-94107000D03*
X65405000Y-94107000D03*
X64516000Y-94107000D03*
X64516000Y-94996000D03*
X65405000Y-94996000D03*
X65405000Y-95885000D03*
X64516000Y-95885000D03*
X64516000Y-96774000D03*
X65405000Y-96774000D03*
X65405000Y-97663000D03*
X64516000Y-97663000D03*
X64516000Y-98552000D03*
X65405000Y-98552000D03*
X70358000Y-99441000D03*
X70358000Y-98552000D03*
X70358000Y-97663000D03*
X70358000Y-96774000D03*
X70358000Y-95885000D03*
X70358000Y-94996000D03*
X71247000Y-94996000D03*
X71247000Y-95885000D03*
X72136000Y-95885000D03*
X73025000Y-96774000D03*
X72136000Y-96774000D03*
X71247000Y-96774000D03*
X71247000Y-97663000D03*
X71247000Y-98552000D03*
X71247000Y-99441000D03*
X72136000Y-99441000D03*
X72136000Y-98552000D03*
X72136000Y-97663000D03*
X73914000Y-97663000D03*
X73025000Y-97663000D03*
X73025000Y-98552000D03*
X73025000Y-99441000D03*
X74930000Y-99441000D03*
X73914000Y-99441000D03*
X73914000Y-98552000D03*
X74930000Y-98552000D03*
X85725000Y-63119000D03*
X84582000Y-64008000D03*
X85090000Y-73025000D03*
X102870000Y-69342000D03*
X102743000Y-76327000D03*
X118999000Y-106807000D03*
X102870000Y-71755000D03*
X112268000Y-73660000D03*
X113792000Y-73660000D03*
X113030000Y-73660000D03*
X102743000Y-74803000D03*
X102870000Y-70866000D03*
X82423000Y-71374000D03*
X85852000Y-67310000D03*
X83312000Y-71374000D03*
X104902000Y-76581000D03*
X103759000Y-76327000D03*
X101600000Y-66548000D03*
X116078000Y-105410000D03*
X82483798Y-103251000D03*
X98171000Y-99060000D03*
D10*
X80010000Y-79375000D02*
X80010000Y-81280000D01*
X104775000Y-99060000D02*
X104775000Y-84455000D01*
X77470000Y-67183000D02*
X77470000Y-59055000D01*
X100457000Y-99060000D02*
X100457000Y-85598000D01*
X62738000Y-94996000D02*
X62738000Y-94107000D01*
X62738000Y-96774000D02*
X62738000Y-95885000D01*
X62738000Y-98552000D02*
X62738000Y-97663000D01*
X63627000Y-97663000D02*
X63627000Y-98552000D01*
X63627000Y-95885000D02*
X63627000Y-96774000D01*
X63627000Y-94107000D02*
X63627000Y-94996000D01*
X64516000Y-94107000D02*
X65405000Y-94107000D01*
X65405000Y-94996000D02*
X64516000Y-94996000D01*
X64516000Y-95885000D02*
X65405000Y-95885000D01*
X65405000Y-96774000D02*
X64516000Y-96774000D01*
X64516000Y-97663000D02*
X65405000Y-97663000D01*
X65405000Y-98552000D02*
X64516000Y-98552000D01*
D28*
X99949000Y-70231000D02*
X100838000Y-69342000D01*
X100838000Y-69342000D02*
X102870000Y-69342000D01*
X99949000Y-75311000D02*
X99949000Y-70231000D01*
X100965000Y-76327000D02*
X99949000Y-75311000D01*
X102743000Y-76327000D02*
X100965000Y-76327000D01*
D10*
X70358000Y-98552000D02*
X70358000Y-99441000D01*
X70358000Y-96774000D02*
X70358000Y-97663000D01*
X70358000Y-94996000D02*
X70358000Y-95885000D01*
X71247000Y-95885000D02*
X71247000Y-94996000D01*
X73025000Y-96774000D02*
X72136000Y-95885000D01*
X71247000Y-96774000D02*
X72136000Y-96774000D01*
X71247000Y-98552000D02*
X71247000Y-97663000D01*
X72136000Y-99441000D02*
X71247000Y-99441000D01*
X72136000Y-97663000D02*
X72136000Y-98552000D01*
X73025000Y-97663000D02*
X73914000Y-97663000D01*
X73025000Y-99441000D02*
X73025000Y-98552000D01*
X73914000Y-99441000D02*
X74930000Y-99441000D01*
X74930000Y-98552000D02*
X73914000Y-98552000D01*
X82550000Y-79375000D02*
X82550000Y-81280000D01*
X87630000Y-61595000D02*
X87630000Y-59690000D01*
D28*
X84582000Y-64008000D02*
X84836000Y-64008000D01*
X84836000Y-64008000D02*
X85725000Y-63119000D01*
D29*
X119380000Y-105725000D02*
X119380000Y-106426000D01*
X119380000Y-106426000D02*
X118999000Y-106807000D01*
D10*
X80010000Y-61595000D02*
X80010000Y-59690000D01*
D29*
X103886000Y-73660000D02*
X103886000Y-72771000D01*
X103886000Y-72771000D02*
X103886000Y-71882000D01*
X102870000Y-71755000D02*
X103886000Y-72771000D01*
X103886000Y-71882000D02*
X102870000Y-70866000D01*
X112268000Y-73660000D02*
X103886000Y-73660000D01*
X103886000Y-73660000D02*
X102743000Y-74803000D01*
X113030000Y-73660000D02*
X112268000Y-73660000D01*
X113792000Y-73660000D02*
X113030000Y-73660000D01*
D28*
X115455000Y-73660000D02*
X113792000Y-73660000D01*
D30*
X102870000Y-61595000D02*
X102870000Y-59690000D01*
X82423000Y-71374000D02*
X82803999Y-70993001D01*
X82803999Y-70993001D02*
X82803999Y-70358001D01*
X82803999Y-70358001D02*
X83566000Y-69596000D01*
X90551000Y-67310000D02*
X92710000Y-65151000D01*
X92710000Y-65151000D02*
X92710000Y-61595000D01*
X85852000Y-67310000D02*
X90551000Y-67310000D01*
X85852000Y-67310000D02*
X83566000Y-69596000D01*
X92710000Y-61595000D02*
X92710000Y-59690000D01*
X83312000Y-71374000D02*
X83692999Y-70993001D01*
X83692999Y-70993001D02*
X83692999Y-70358001D01*
X83692999Y-70358001D02*
X86487000Y-67564000D01*
X86487000Y-67564000D02*
X90678000Y-67564000D01*
X90678000Y-67564000D02*
X95250000Y-62992000D01*
X95250000Y-62992000D02*
X95250000Y-61595000D01*
X95250000Y-61595000D02*
X95250000Y-59690000D01*
X102870000Y-79375000D02*
X102870000Y-78248000D01*
X102870000Y-78248000D02*
X103394000Y-77724000D01*
X103394000Y-77724000D02*
X103759000Y-77724000D01*
X104902000Y-76581000D02*
X103759000Y-77724000D01*
X102870000Y-79375000D02*
X102870000Y-81280000D01*
X103124000Y-75692000D02*
X103759000Y-76327000D01*
X102362000Y-75692000D02*
X103124000Y-75692000D01*
X101854000Y-75184000D02*
X102362000Y-75692000D01*
X101854000Y-74549000D02*
X101854000Y-70612000D01*
X101854000Y-74549000D02*
X101854000Y-75184000D01*
X101854000Y-70612000D02*
X102489000Y-69977000D01*
X102489000Y-69977000D02*
X103378000Y-69977000D01*
X103378000Y-69977000D02*
X103632000Y-69723000D01*
X103632000Y-69723000D02*
X103632000Y-68580000D01*
X103632000Y-68580000D02*
X101600000Y-66548000D01*
X100330000Y-61595000D02*
X100330000Y-65278000D01*
X100330000Y-65278000D02*
X101600000Y-66548000D01*
X100330000Y-61595000D02*
X100330000Y-59690000D01*
X105410000Y-79375000D02*
X105410000Y-81280000D01*
X117590000Y-104140000D02*
X118117000Y-104140000D01*
X118117000Y-104140000D02*
X118432000Y-103825000D01*
X118432000Y-103825000D02*
X119380000Y-103825000D01*
X116967000Y-105410000D02*
X117590000Y-104787000D01*
X117590000Y-104787000D02*
X117590000Y-104140000D01*
X116078000Y-105410000D02*
X116967000Y-105410000D01*
X85090000Y-61595000D02*
X85090000Y-59690000D01*
X85090000Y-79375000D02*
X85090000Y-81280000D01*
X87630000Y-79375000D02*
X87630000Y-81280000D01*
X107950000Y-79375000D02*
X107950000Y-81280000D01*
X90170000Y-79375000D02*
X90170000Y-81280000D01*
X95250000Y-79375000D02*
X95250000Y-81280000D01*
X97790000Y-79375000D02*
X97790000Y-81280000D01*
X100330000Y-79375000D02*
X100330000Y-81280000D01*
X105410000Y-61595000D02*
X105410000Y-59690000D01*
X82550000Y-61595000D02*
X82550000Y-59690000D01*
D31*
X116955000Y-73660000D02*
X119380000Y-73660000D01*
X116955000Y-71755000D02*
X116955000Y-73660000D01*
D10*
X82483798Y-103251000D02*
X93980000Y-103251000D01*
X93980000Y-103251000D02*
X98171000Y-99060000D01*
D30*
X90170000Y-61595000D02*
X90170000Y-59690000D01*
X92710000Y-79375000D02*
X92710000Y-81280000D01*
X97790000Y-61595000D02*
X97790000Y-59690000D01*
X107950000Y-61595000D02*
X107950000Y-59690000D01*
D10*
G36*
X76073000Y-68115860D02*
X75875559Y-68242910D01*
X75730569Y-68455110D01*
X75679560Y-68707000D01*
X75679560Y-70231000D01*
X75723838Y-70466317D01*
X75733993Y-70482099D01*
X75730569Y-70487110D01*
X75679560Y-70739000D01*
X75679560Y-72263000D01*
X75723838Y-72498317D01*
X75862910Y-72714441D01*
X76073000Y-72857989D01*
X76073000Y-93218000D01*
X61595000Y-93218000D01*
X61545590Y-93228006D01*
X61503965Y-93256447D01*
X61476685Y-93298841D01*
X61468000Y-93345000D01*
X61468000Y-111271560D01*
X59620400Y-111271560D01*
X59573680Y-111280351D01*
X59607131Y-111246900D01*
X59715518Y-111084690D01*
X59717212Y-111080602D01*
X59824602Y-110821340D01*
X59829298Y-110810004D01*
X59829298Y-110810002D01*
X59829299Y-110810000D01*
X59867359Y-110618657D01*
X59867359Y-110543606D01*
X59882000Y-110470000D01*
X59882000Y-107970000D01*
X59867359Y-107896394D01*
X59867359Y-107821343D01*
X59829299Y-107630000D01*
X59829298Y-107629997D01*
X59829298Y-107629996D01*
X59717212Y-107359400D01*
X59715520Y-107355314D01*
X59715519Y-107355313D01*
X59715518Y-107355310D01*
X59607131Y-107193100D01*
X59460686Y-107046656D01*
X59396900Y-106982869D01*
X59234689Y-106874482D01*
X59234687Y-106874481D01*
X59234686Y-106874480D01*
X59087587Y-106813549D01*
X58960004Y-106760702D01*
X58960002Y-106760702D01*
X58960000Y-106760701D01*
X58768658Y-106722641D01*
X58620001Y-106722641D01*
X58280000Y-106760701D01*
X58279998Y-106760702D01*
X58279996Y-106760702D01*
X58099566Y-106835439D01*
X58005314Y-106874480D01*
X58005313Y-106874481D01*
X58005310Y-106874482D01*
X57843100Y-106982869D01*
X57779314Y-107046656D01*
X57632869Y-107193100D01*
X57524482Y-107355311D01*
X57524482Y-107355312D01*
X57524480Y-107355314D01*
X57522788Y-107359400D01*
X57410702Y-107629996D01*
X57410702Y-107629997D01*
X57410701Y-107630000D01*
X57372641Y-107821342D01*
X57372641Y-107896394D01*
X57358000Y-107970000D01*
X57358000Y-110470000D01*
X57372641Y-110543606D01*
X57372641Y-110618658D01*
X57410701Y-110810000D01*
X57410702Y-110810002D01*
X57410702Y-110810004D01*
X57415398Y-110821340D01*
X57524480Y-111084686D01*
X57524481Y-111084687D01*
X57524482Y-111084689D01*
X57632869Y-111246900D01*
X57701808Y-111315838D01*
X57843100Y-111457131D01*
X58005310Y-111565518D01*
X58005313Y-111565519D01*
X58005314Y-111565520D01*
X58097196Y-111603579D01*
X58279996Y-111679298D01*
X58279998Y-111679298D01*
X58280000Y-111679299D01*
X58471343Y-111717359D01*
X58768658Y-111717359D01*
X58960000Y-111679299D01*
X58960002Y-111679298D01*
X58960004Y-111679298D01*
X59037604Y-111647155D01*
X59023969Y-111667110D01*
X58972960Y-111919000D01*
X58972960Y-115919000D01*
X59002878Y-116078000D01*
X51562000Y-116078000D01*
X51562000Y-80387265D01*
X52704670Y-80387265D01*
X52994078Y-81087686D01*
X53529495Y-81624039D01*
X54229410Y-81914668D01*
X54987265Y-81915330D01*
X55687686Y-81625922D01*
X56224039Y-81090505D01*
X56463830Y-80513021D01*
X62229560Y-80513021D01*
X62615437Y-81446915D01*
X63329327Y-82162052D01*
X64262546Y-82549559D01*
X65273021Y-82550440D01*
X66206915Y-82164563D01*
X66922052Y-81450673D01*
X67309559Y-80517454D01*
X67310440Y-79506979D01*
X66924563Y-78573085D01*
X66210673Y-77857948D01*
X65277454Y-77470441D01*
X64266979Y-77469560D01*
X63333085Y-77855437D01*
X62617948Y-78569327D01*
X62230441Y-79502546D01*
X62229560Y-80513021D01*
X56463830Y-80513021D01*
X56514668Y-80390590D01*
X56515330Y-79632735D01*
X56225922Y-78932314D01*
X55690505Y-78395961D01*
X54990590Y-78105332D01*
X54232735Y-78104670D01*
X53532314Y-78394078D01*
X52995961Y-78929495D01*
X52705332Y-79629410D01*
X52704670Y-80387265D01*
X51562000Y-80387265D01*
X51562000Y-62607265D01*
X52704670Y-62607265D01*
X52994078Y-63307686D01*
X53529495Y-63844039D01*
X54229410Y-64134668D01*
X54987265Y-64135330D01*
X55687686Y-63845922D01*
X56224039Y-63310505D01*
X56463830Y-62733021D01*
X62229560Y-62733021D01*
X62615437Y-63666915D01*
X63329327Y-64382052D01*
X64262546Y-64769559D01*
X65273021Y-64770440D01*
X66206915Y-64384563D01*
X66922052Y-63670673D01*
X67309559Y-62737454D01*
X67310440Y-61726979D01*
X66924563Y-60793085D01*
X66210673Y-60077948D01*
X65277454Y-59690441D01*
X64266979Y-59689560D01*
X63333085Y-60075437D01*
X62617948Y-60789327D01*
X62230441Y-61722546D01*
X62229560Y-62733021D01*
X56463830Y-62733021D01*
X56514668Y-62610590D01*
X56515330Y-61852735D01*
X56225922Y-61152314D01*
X55690505Y-60615961D01*
X54990590Y-60325332D01*
X54232735Y-60324670D01*
X53532314Y-60614078D01*
X52995961Y-61149495D01*
X52705332Y-61849410D01*
X52704670Y-62607265D01*
X51562000Y-62607265D01*
X51562000Y-57912000D01*
X76073000Y-57912000D01*
X76073000Y-68115860D01*
X76073000Y-68115860D01*
G37*
X76073000Y-68115860D02*
X75875559Y-68242910D01*
X75730569Y-68455110D01*
X75679560Y-68707000D01*
X75679560Y-70231000D01*
X75723838Y-70466317D01*
X75733993Y-70482099D01*
X75730569Y-70487110D01*
X75679560Y-70739000D01*
X75679560Y-72263000D01*
X75723838Y-72498317D01*
X75862910Y-72714441D01*
X76073000Y-72857989D01*
X76073000Y-93218000D01*
X61595000Y-93218000D01*
X61545590Y-93228006D01*
X61503965Y-93256447D01*
X61476685Y-93298841D01*
X61468000Y-93345000D01*
X61468000Y-111271560D01*
X59620400Y-111271560D01*
X59573680Y-111280351D01*
X59607131Y-111246900D01*
X59715518Y-111084690D01*
X59717212Y-111080602D01*
X59824602Y-110821340D01*
X59829298Y-110810004D01*
X59829298Y-110810002D01*
X59829299Y-110810000D01*
X59867359Y-110618657D01*
X59867359Y-110543606D01*
X59882000Y-110470000D01*
X59882000Y-107970000D01*
X59867359Y-107896394D01*
X59867359Y-107821343D01*
X59829299Y-107630000D01*
X59829298Y-107629997D01*
X59829298Y-107629996D01*
X59717212Y-107359400D01*
X59715520Y-107355314D01*
X59715519Y-107355313D01*
X59715518Y-107355310D01*
X59607131Y-107193100D01*
X59460686Y-107046656D01*
X59396900Y-106982869D01*
X59234689Y-106874482D01*
X59234687Y-106874481D01*
X59234686Y-106874480D01*
X59087587Y-106813549D01*
X58960004Y-106760702D01*
X58960002Y-106760702D01*
X58960000Y-106760701D01*
X58768658Y-106722641D01*
X58620001Y-106722641D01*
X58280000Y-106760701D01*
X58279998Y-106760702D01*
X58279996Y-106760702D01*
X58099566Y-106835439D01*
X58005314Y-106874480D01*
X58005313Y-106874481D01*
X58005310Y-106874482D01*
X57843100Y-106982869D01*
X57779314Y-107046656D01*
X57632869Y-107193100D01*
X57524482Y-107355311D01*
X57524482Y-107355312D01*
X57524480Y-107355314D01*
X57522788Y-107359400D01*
X57410702Y-107629996D01*
X57410702Y-107629997D01*
X57410701Y-107630000D01*
X57372641Y-107821342D01*
X57372641Y-107896394D01*
X57358000Y-107970000D01*
X57358000Y-110470000D01*
X57372641Y-110543606D01*
X57372641Y-110618658D01*
X57410701Y-110810000D01*
X57410702Y-110810002D01*
X57410702Y-110810004D01*
X57415398Y-110821340D01*
X57524480Y-111084686D01*
X57524481Y-111084687D01*
X57524482Y-111084689D01*
X57632869Y-111246900D01*
X57701808Y-111315838D01*
X57843100Y-111457131D01*
X58005310Y-111565518D01*
X58005313Y-111565519D01*
X58005314Y-111565520D01*
X58097196Y-111603579D01*
X58279996Y-111679298D01*
X58279998Y-111679298D01*
X58280000Y-111679299D01*
X58471343Y-111717359D01*
X58768658Y-111717359D01*
X58960000Y-111679299D01*
X58960002Y-111679298D01*
X58960004Y-111679298D01*
X59037604Y-111647155D01*
X59023969Y-111667110D01*
X58972960Y-111919000D01*
X58972960Y-115919000D01*
X59002878Y-116078000D01*
X51562000Y-116078000D01*
X51562000Y-80387265D01*
X52704670Y-80387265D01*
X52994078Y-81087686D01*
X53529495Y-81624039D01*
X54229410Y-81914668D01*
X54987265Y-81915330D01*
X55687686Y-81625922D01*
X56224039Y-81090505D01*
X56463830Y-80513021D01*
X62229560Y-80513021D01*
X62615437Y-81446915D01*
X63329327Y-82162052D01*
X64262546Y-82549559D01*
X65273021Y-82550440D01*
X66206915Y-82164563D01*
X66922052Y-81450673D01*
X67309559Y-80517454D01*
X67310440Y-79506979D01*
X66924563Y-78573085D01*
X66210673Y-77857948D01*
X65277454Y-77470441D01*
X64266979Y-77469560D01*
X63333085Y-77855437D01*
X62617948Y-78569327D01*
X62230441Y-79502546D01*
X62229560Y-80513021D01*
X56463830Y-80513021D01*
X56514668Y-80390590D01*
X56515330Y-79632735D01*
X56225922Y-78932314D01*
X55690505Y-78395961D01*
X54990590Y-78105332D01*
X54232735Y-78104670D01*
X53532314Y-78394078D01*
X52995961Y-78929495D01*
X52705332Y-79629410D01*
X52704670Y-80387265D01*
X51562000Y-80387265D01*
X51562000Y-62607265D01*
X52704670Y-62607265D01*
X52994078Y-63307686D01*
X53529495Y-63844039D01*
X54229410Y-64134668D01*
X54987265Y-64135330D01*
X55687686Y-63845922D01*
X56224039Y-63310505D01*
X56463830Y-62733021D01*
X62229560Y-62733021D01*
X62615437Y-63666915D01*
X63329327Y-64382052D01*
X64262546Y-64769559D01*
X65273021Y-64770440D01*
X66206915Y-64384563D01*
X66922052Y-63670673D01*
X67309559Y-62737454D01*
X67310440Y-61726979D01*
X66924563Y-60793085D01*
X66210673Y-60077948D01*
X65277454Y-59690441D01*
X64266979Y-59689560D01*
X63333085Y-60075437D01*
X62617948Y-60789327D01*
X62230441Y-61722546D01*
X62229560Y-62733021D01*
X56463830Y-62733021D01*
X56514668Y-62610590D01*
X56515330Y-61852735D01*
X56225922Y-61152314D01*
X55690505Y-60615961D01*
X54990590Y-60325332D01*
X54232735Y-60324670D01*
X53532314Y-60614078D01*
X52995961Y-61149495D01*
X52705332Y-61849410D01*
X52704670Y-62607265D01*
X51562000Y-62607265D01*
X51562000Y-57912000D01*
X76073000Y-57912000D01*
X76073000Y-68115860D01*
G36*
X78662560Y-58102500D02*
X78662560Y-61277500D01*
X78675000Y-61343613D01*
X78675000Y-61927032D01*
X78776621Y-62437914D01*
X79066012Y-62871020D01*
X79201402Y-62961484D01*
X78987059Y-63099410D01*
X78842069Y-63311610D01*
X78791060Y-63563500D01*
X78791060Y-64706500D01*
X78835338Y-64941817D01*
X78974410Y-65157941D01*
X79186610Y-65302931D01*
X79438500Y-65353940D01*
X80581500Y-65353940D01*
X80816817Y-65309662D01*
X81032941Y-65170590D01*
X81177931Y-64958390D01*
X81228940Y-64706500D01*
X81228940Y-63563500D01*
X81184662Y-63328183D01*
X81045590Y-63112059D01*
X80833390Y-62967069D01*
X80815624Y-62963471D01*
X80953988Y-62871020D01*
X81243379Y-62437914D01*
X81280000Y-62253808D01*
X81316621Y-62437914D01*
X81606012Y-62871020D01*
X81741402Y-62961484D01*
X81527059Y-63099410D01*
X81382069Y-63311610D01*
X81331060Y-63563500D01*
X81331060Y-64706500D01*
X81375338Y-64941817D01*
X81514410Y-65157941D01*
X81726610Y-65302931D01*
X81978500Y-65353940D01*
X83121500Y-65353940D01*
X83356817Y-65309662D01*
X83572941Y-65170590D01*
X83717931Y-64958390D01*
X83768940Y-64706500D01*
X83768940Y-63563500D01*
X83724662Y-63328183D01*
X83585590Y-63112059D01*
X83373390Y-62967069D01*
X83355624Y-62963471D01*
X83493988Y-62871020D01*
X83783379Y-62437914D01*
X83820000Y-62253808D01*
X83856621Y-62437914D01*
X84146012Y-62871020D01*
X84579118Y-63160411D01*
X85090000Y-63262032D01*
X85600882Y-63160411D01*
X86033988Y-62871020D01*
X86323379Y-62437914D01*
X86361786Y-62244830D01*
X86445222Y-62523215D01*
X86775815Y-62928790D01*
X87236450Y-63176980D01*
X87296671Y-63187716D01*
X87503000Y-63064374D01*
X87503000Y-59817000D01*
X87483000Y-59817000D01*
X87483000Y-59563000D01*
X87503000Y-59563000D01*
X87503000Y-59543000D01*
X87757000Y-59543000D01*
X87757000Y-59563000D01*
X87777000Y-59563000D01*
X87777000Y-59817000D01*
X87757000Y-59817000D01*
X87757000Y-63064374D01*
X87963329Y-63187716D01*
X88023550Y-63176980D01*
X88484185Y-62928790D01*
X88814778Y-62523215D01*
X88898214Y-62244830D01*
X88936621Y-62437914D01*
X89226012Y-62871020D01*
X89659118Y-63160411D01*
X90170000Y-63262032D01*
X90680882Y-63160411D01*
X91113988Y-62871020D01*
X91403379Y-62437914D01*
X91440000Y-62253808D01*
X91476621Y-62437914D01*
X91766012Y-62871020D01*
X92011500Y-63035049D01*
X92011500Y-64861672D01*
X90261672Y-66611500D01*
X86590307Y-66611500D01*
X86428269Y-66449179D01*
X86054982Y-66294176D01*
X85650792Y-66293824D01*
X85277234Y-66448175D01*
X84991179Y-66733731D01*
X84836176Y-67107018D01*
X84835975Y-67338197D01*
X82310085Y-69864087D01*
X82158669Y-70090696D01*
X82122027Y-70274910D01*
X82105499Y-70358001D01*
X82105499Y-70405875D01*
X81848234Y-70512175D01*
X81562179Y-70797731D01*
X81407176Y-71171018D01*
X81406824Y-71575208D01*
X81561175Y-71948766D01*
X81846731Y-72234821D01*
X82220018Y-72389824D01*
X82624208Y-72390176D01*
X82867637Y-72289593D01*
X83109018Y-72389824D01*
X83513208Y-72390176D01*
X83886766Y-72235825D01*
X84172821Y-71950269D01*
X84327824Y-71576982D01*
X84328086Y-71275635D01*
X84338329Y-71260306D01*
X84391499Y-70993001D01*
X84391499Y-70647329D01*
X86776328Y-68262500D01*
X90678000Y-68262500D01*
X90945305Y-68209330D01*
X91171914Y-68057914D01*
X95743914Y-63485914D01*
X95773436Y-63441731D01*
X95895330Y-63259304D01*
X95938624Y-63041648D01*
X96193988Y-62871020D01*
X96483379Y-62437914D01*
X96520000Y-62253808D01*
X96556621Y-62437914D01*
X96846012Y-62871020D01*
X97279118Y-63160411D01*
X97790000Y-63262032D01*
X98300882Y-63160411D01*
X98733988Y-62871020D01*
X99023379Y-62437914D01*
X99060000Y-62253808D01*
X99096621Y-62437914D01*
X99386012Y-62871020D01*
X99631500Y-63035049D01*
X99631500Y-65278000D01*
X99684670Y-65545305D01*
X99836086Y-65771914D01*
X100584024Y-66519852D01*
X100583824Y-66749208D01*
X100738175Y-67122766D01*
X101023731Y-67408821D01*
X101397018Y-67563824D01*
X101628197Y-67564025D01*
X102933500Y-68869328D01*
X102933500Y-69278500D01*
X102489000Y-69278500D01*
X102221696Y-69331670D01*
X101995086Y-69483086D01*
X101360086Y-70118086D01*
X101208670Y-70344695D01*
X101175356Y-70512175D01*
X101155500Y-70612000D01*
X101155500Y-75184000D01*
X101208670Y-75451305D01*
X101360086Y-75677914D01*
X101868086Y-76185914D01*
X102094696Y-76337330D01*
X102362000Y-76390500D01*
X102742944Y-76390500D01*
X102742824Y-76528208D01*
X102897175Y-76901766D01*
X103094947Y-77099884D01*
X102900086Y-77230086D01*
X102376086Y-77754086D01*
X102322773Y-77833874D01*
X101926012Y-78098980D01*
X101636621Y-78532086D01*
X101600000Y-78716192D01*
X101563379Y-78532086D01*
X101273988Y-78098980D01*
X100840882Y-77809589D01*
X100330000Y-77707968D01*
X99819118Y-77809589D01*
X99386012Y-78098980D01*
X99096621Y-78532086D01*
X99060000Y-78716192D01*
X99023379Y-78532086D01*
X98733988Y-78098980D01*
X98598598Y-78008516D01*
X98812941Y-77870590D01*
X98957931Y-77658390D01*
X99008940Y-77406500D01*
X99008940Y-76263500D01*
X98964662Y-76028183D01*
X98825590Y-75812059D01*
X98613390Y-75667069D01*
X98361500Y-75616060D01*
X97218500Y-75616060D01*
X96983183Y-75660338D01*
X96767059Y-75799410D01*
X96622069Y-76011610D01*
X96571060Y-76263500D01*
X96571060Y-77406500D01*
X96615338Y-77641817D01*
X96754410Y-77857941D01*
X96966610Y-78002931D01*
X96984376Y-78006529D01*
X96846012Y-78098980D01*
X96556621Y-78532086D01*
X96520000Y-78716192D01*
X96483379Y-78532086D01*
X96193988Y-78098980D01*
X95760882Y-77809589D01*
X95250000Y-77707968D01*
X94739118Y-77809589D01*
X94306012Y-78098980D01*
X94016621Y-78532086D01*
X93980000Y-78716192D01*
X93943379Y-78532086D01*
X93653988Y-78098980D01*
X93220882Y-77809589D01*
X92710000Y-77707968D01*
X92199118Y-77809589D01*
X91766012Y-78098980D01*
X91476621Y-78532086D01*
X91440000Y-78716192D01*
X91403379Y-78532086D01*
X91113988Y-78098980D01*
X90680882Y-77809589D01*
X90170000Y-77707968D01*
X89659118Y-77809589D01*
X89226012Y-78098980D01*
X88936621Y-78532086D01*
X88900000Y-78716192D01*
X88863379Y-78532086D01*
X88729566Y-78331819D01*
X88754317Y-78327162D01*
X88970441Y-78188090D01*
X89115431Y-77975890D01*
X89166440Y-77724000D01*
X89166440Y-75946000D01*
X89122162Y-75710683D01*
X88983090Y-75494559D01*
X88770890Y-75349569D01*
X88519000Y-75298560D01*
X86741000Y-75298560D01*
X86505683Y-75342838D01*
X86289559Y-75481910D01*
X86144569Y-75694110D01*
X86093560Y-75946000D01*
X86093560Y-77724000D01*
X86137838Y-77959317D01*
X86276910Y-78175441D01*
X86489110Y-78320431D01*
X86532212Y-78329159D01*
X86396621Y-78532086D01*
X86360000Y-78716192D01*
X86323379Y-78532086D01*
X86033988Y-78098980D01*
X85600882Y-77809589D01*
X85090000Y-77707968D01*
X84579118Y-77809589D01*
X84146012Y-78098980D01*
X83856621Y-78532086D01*
X83818214Y-78725170D01*
X83734778Y-78446785D01*
X83404185Y-78041210D01*
X82943550Y-77793020D01*
X82883329Y-77782284D01*
X82677000Y-77905626D01*
X82677000Y-81153000D01*
X82697000Y-81153000D01*
X82697000Y-81407000D01*
X82677000Y-81407000D01*
X82677000Y-83343750D01*
X82835750Y-83502500D01*
X83376309Y-83502500D01*
X83609698Y-83405827D01*
X83788327Y-83227199D01*
X83819088Y-83152935D01*
X83925910Y-83318941D01*
X84138110Y-83463931D01*
X84390000Y-83514940D01*
X85790000Y-83514940D01*
X86025317Y-83470662D01*
X86241441Y-83331590D01*
X86361233Y-83156268D01*
X86465910Y-83318941D01*
X86678110Y-83463931D01*
X86930000Y-83514940D01*
X88330000Y-83514940D01*
X88565317Y-83470662D01*
X88781441Y-83331590D01*
X88901233Y-83156268D01*
X89005910Y-83318941D01*
X89218110Y-83463931D01*
X89470000Y-83514940D01*
X90870000Y-83514940D01*
X91105317Y-83470662D01*
X91321441Y-83331590D01*
X91441233Y-83156268D01*
X91545910Y-83318941D01*
X91758110Y-83463931D01*
X92010000Y-83514940D01*
X93410000Y-83514940D01*
X93645317Y-83470662D01*
X93861441Y-83331590D01*
X93981233Y-83156268D01*
X94085910Y-83318941D01*
X94298110Y-83463931D01*
X94550000Y-83514940D01*
X95950000Y-83514940D01*
X96185317Y-83470662D01*
X96401441Y-83331590D01*
X96521233Y-83156268D01*
X96625910Y-83318941D01*
X96838110Y-83463931D01*
X97090000Y-83514940D01*
X98490000Y-83514940D01*
X98725317Y-83470662D01*
X98941441Y-83331590D01*
X99061233Y-83156268D01*
X99165910Y-83318941D01*
X99378110Y-83463931D01*
X99630000Y-83514940D01*
X101030000Y-83514940D01*
X101265317Y-83470662D01*
X101481441Y-83331590D01*
X101601233Y-83156268D01*
X101705910Y-83318941D01*
X101918110Y-83463931D01*
X102170000Y-83514940D01*
X103570000Y-83514940D01*
X103805317Y-83470662D01*
X104021441Y-83331590D01*
X104141233Y-83156268D01*
X104245910Y-83318941D01*
X104458110Y-83463931D01*
X104710000Y-83514940D01*
X106110000Y-83514940D01*
X106345317Y-83470662D01*
X106561441Y-83331590D01*
X106681233Y-83156268D01*
X106785910Y-83318941D01*
X106998110Y-83463931D01*
X107250000Y-83514940D01*
X108650000Y-83514940D01*
X108885317Y-83470662D01*
X109101441Y-83331590D01*
X109246431Y-83119390D01*
X109297440Y-82867500D01*
X109297440Y-80936930D01*
X114025280Y-80936930D01*
X114147780Y-81153000D01*
X115443000Y-81153000D01*
X115443000Y-80038872D01*
X115223229Y-79887423D01*
X114702208Y-80053229D01*
X114284299Y-80405800D01*
X114033124Y-80891460D01*
X114025280Y-80936930D01*
X109297440Y-80936930D01*
X109297440Y-79692500D01*
X109285000Y-79626387D01*
X109285000Y-79042968D01*
X109183379Y-78532086D01*
X108893988Y-78098980D01*
X108460882Y-77809589D01*
X107950000Y-77707968D01*
X107439118Y-77809589D01*
X107006012Y-78098980D01*
X106716621Y-78532086D01*
X106680000Y-78716192D01*
X106643379Y-78532086D01*
X106353988Y-78098980D01*
X105920882Y-77809589D01*
X105410000Y-77707968D01*
X104899118Y-77809589D01*
X104466012Y-78098980D01*
X104176621Y-78532086D01*
X104140000Y-78716192D01*
X104103379Y-78532086D01*
X103998345Y-78374891D01*
X104026305Y-78369330D01*
X104252914Y-78217914D01*
X104873852Y-77596976D01*
X105103208Y-77597176D01*
X105476766Y-77442825D01*
X105762821Y-77157269D01*
X105917824Y-76783982D01*
X105918176Y-76379792D01*
X105763825Y-76006234D01*
X105478269Y-75720179D01*
X105104982Y-75565176D01*
X104700792Y-75564824D01*
X104511726Y-75642944D01*
X104335269Y-75466179D01*
X104010662Y-75331390D01*
X104412052Y-74930000D01*
X113792000Y-74930000D01*
X114278008Y-74833327D01*
X114608500Y-74612500D01*
X114775404Y-74612500D01*
X114803110Y-74631431D01*
X115055000Y-74682440D01*
X115855000Y-74682440D01*
X116090317Y-74638162D01*
X116204978Y-74564380D01*
X116303110Y-74631431D01*
X116555000Y-74682440D01*
X117355000Y-74682440D01*
X117590317Y-74638162D01*
X117728879Y-74549000D01*
X118021547Y-74549000D01*
X118135585Y-74719670D01*
X118621766Y-75044526D01*
X119195255Y-75158600D01*
X119564745Y-75158600D01*
X120138234Y-75044526D01*
X120624415Y-74719670D01*
X120949271Y-74233489D01*
X121063345Y-73660000D01*
X120949271Y-73086511D01*
X120624415Y-72600330D01*
X120314931Y-72393539D01*
X120730732Y-72022036D01*
X120984709Y-71494791D01*
X120987358Y-71479026D01*
X120866217Y-71247000D01*
X119507000Y-71247000D01*
X119507000Y-71267000D01*
X119253000Y-71267000D01*
X119253000Y-71247000D01*
X119233000Y-71247000D01*
X119233000Y-70993000D01*
X119253000Y-70993000D01*
X119253000Y-70973000D01*
X119507000Y-70973000D01*
X119507000Y-70993000D01*
X120866217Y-70993000D01*
X120987358Y-70760974D01*
X120984709Y-70745209D01*
X120730732Y-70217964D01*
X120555155Y-70061093D01*
X120631317Y-70046762D01*
X120847441Y-69907690D01*
X120992431Y-69695490D01*
X121043440Y-69443600D01*
X121043440Y-67716400D01*
X120999162Y-67481083D01*
X120860090Y-67264959D01*
X120647890Y-67119969D01*
X120396000Y-67068960D01*
X118364000Y-67068960D01*
X118128683Y-67113238D01*
X117912559Y-67252310D01*
X117767569Y-67464510D01*
X117716560Y-67716400D01*
X117716560Y-69443600D01*
X117760838Y-69678917D01*
X117899910Y-69895041D01*
X118112110Y-70040031D01*
X118206927Y-70059232D01*
X118029268Y-70217964D01*
X117775291Y-70745209D01*
X117772642Y-70760974D01*
X117893782Y-70992998D01*
X117860555Y-70992998D01*
X117819090Y-70928559D01*
X117606890Y-70783569D01*
X117355000Y-70732560D01*
X116555000Y-70732560D01*
X116319683Y-70776838D01*
X116216354Y-70843329D01*
X116214698Y-70841673D01*
X115981309Y-70745000D01*
X115740750Y-70745000D01*
X115582000Y-70903750D01*
X115582000Y-71628000D01*
X115602000Y-71628000D01*
X115602000Y-71882000D01*
X115582000Y-71882000D01*
X115582000Y-71902000D01*
X115328000Y-71902000D01*
X115328000Y-71882000D01*
X114578750Y-71882000D01*
X114420000Y-72040750D01*
X114420000Y-72256310D01*
X114516673Y-72489699D01*
X114695302Y-72668327D01*
X114783747Y-72704962D01*
X114779803Y-72707500D01*
X114608500Y-72707500D01*
X114278008Y-72486673D01*
X113792000Y-72390000D01*
X113157000Y-72390000D01*
X113157000Y-71253690D01*
X114420000Y-71253690D01*
X114420000Y-71469250D01*
X114578750Y-71628000D01*
X115328000Y-71628000D01*
X115328000Y-70903750D01*
X115169250Y-70745000D01*
X114928691Y-70745000D01*
X114695302Y-70841673D01*
X114516673Y-71020301D01*
X114420000Y-71253690D01*
X113157000Y-71253690D01*
X113157000Y-65187312D01*
X114062293Y-65187312D01*
X114465762Y-65713924D01*
X115979730Y-66357307D01*
X117624666Y-66372346D01*
X119150145Y-65756750D01*
X119214238Y-65713924D01*
X119617707Y-65187312D01*
X116840000Y-62409605D01*
X114062293Y-65187312D01*
X113157000Y-65187312D01*
X113157000Y-64152949D01*
X113313250Y-64540145D01*
X113356076Y-64604238D01*
X113882688Y-65007707D01*
X116660395Y-62230000D01*
X117019605Y-62230000D01*
X119797312Y-65007707D01*
X120323924Y-64604238D01*
X120967307Y-63090270D01*
X120982346Y-61445334D01*
X120366750Y-59919855D01*
X120323924Y-59855762D01*
X119797312Y-59452293D01*
X117019605Y-62230000D01*
X116660395Y-62230000D01*
X116646253Y-62215858D01*
X116825858Y-62036253D01*
X116840000Y-62050395D01*
X119617707Y-59272688D01*
X119214238Y-58746076D01*
X117700270Y-58102693D01*
X116055334Y-58087654D01*
X115037867Y-58498245D01*
X115330990Y-57912000D01*
X121158000Y-57912000D01*
X121158000Y-116078000D01*
X64235642Y-116078000D01*
X64267840Y-115919000D01*
X64267840Y-111919000D01*
X64258138Y-111867440D01*
X66620140Y-111867440D01*
X66855457Y-111823162D01*
X67071581Y-111684090D01*
X67216571Y-111471890D01*
X67267580Y-111220000D01*
X67267580Y-107220000D01*
X67223302Y-106984683D01*
X67084230Y-106768559D01*
X66872030Y-106623569D01*
X66620140Y-106572560D01*
X62620140Y-106572560D01*
X62384823Y-106616838D01*
X62168699Y-106755910D01*
X62023709Y-106968110D01*
X61972700Y-107220000D01*
X61972700Y-111220000D01*
X61982402Y-111271560D01*
X61722000Y-111271560D01*
X61722000Y-103452208D01*
X81467622Y-103452208D01*
X81621973Y-103825766D01*
X81907529Y-104111821D01*
X82280816Y-104266824D01*
X82685006Y-104267176D01*
X82992795Y-104140000D01*
X106266655Y-104140000D01*
X106380729Y-104713489D01*
X106705585Y-105199670D01*
X107020366Y-105410000D01*
X106705585Y-105620330D01*
X106380729Y-106106511D01*
X106266655Y-106680000D01*
X106380729Y-107253489D01*
X106705585Y-107739670D01*
X107020366Y-107950000D01*
X106705585Y-108160330D01*
X106380729Y-108646511D01*
X106266655Y-109220000D01*
X106380729Y-109793489D01*
X106705585Y-110279670D01*
X107020366Y-110490000D01*
X106705585Y-110700330D01*
X106380729Y-111186511D01*
X106266655Y-111760000D01*
X106380729Y-112333489D01*
X106705585Y-112819670D01*
X106719913Y-112829243D01*
X106698683Y-112833238D01*
X106482559Y-112972310D01*
X106337569Y-113184510D01*
X106286560Y-113436400D01*
X106286560Y-115163600D01*
X106330838Y-115398917D01*
X106469910Y-115615041D01*
X106682110Y-115760031D01*
X106934000Y-115811040D01*
X108966000Y-115811040D01*
X109201317Y-115766762D01*
X109217099Y-115756607D01*
X109222110Y-115760031D01*
X109474000Y-115811040D01*
X111506000Y-115811040D01*
X111741317Y-115766762D01*
X111957441Y-115627690D01*
X112102431Y-115415490D01*
X112153440Y-115163600D01*
X112153440Y-114717312D01*
X114062293Y-114717312D01*
X114465762Y-115243924D01*
X115979730Y-115887307D01*
X117624666Y-115902346D01*
X119150145Y-115286750D01*
X119214238Y-115243924D01*
X119617707Y-114717312D01*
X116840000Y-111939605D01*
X114062293Y-114717312D01*
X112153440Y-114717312D01*
X112153440Y-113436400D01*
X112109162Y-113201083D01*
X111970090Y-112984959D01*
X111757890Y-112839969D01*
X111716561Y-112831600D01*
X111734415Y-112819670D01*
X111918166Y-112544666D01*
X112697654Y-112544666D01*
X113313250Y-114070145D01*
X113356076Y-114134238D01*
X113882688Y-114537707D01*
X116660395Y-111760000D01*
X117019605Y-111760000D01*
X119797312Y-114537707D01*
X120323924Y-114134238D01*
X120967307Y-112620270D01*
X120982346Y-110975334D01*
X120366750Y-109449855D01*
X120323924Y-109385762D01*
X119797312Y-108982293D01*
X117019605Y-111760000D01*
X116660395Y-111760000D01*
X113882688Y-108982293D01*
X113356076Y-109385762D01*
X112712693Y-110899730D01*
X112697654Y-112544666D01*
X111918166Y-112544666D01*
X112059271Y-112333489D01*
X112173345Y-111760000D01*
X112059271Y-111186511D01*
X111734415Y-110700330D01*
X111419634Y-110490000D01*
X111734415Y-110279670D01*
X112059271Y-109793489D01*
X112173345Y-109220000D01*
X112090337Y-108802688D01*
X114062293Y-108802688D01*
X116840000Y-111580395D01*
X119617707Y-108802688D01*
X119214238Y-108276076D01*
X118522971Y-107982312D01*
X118999000Y-108077001D01*
X119485008Y-107980327D01*
X119897026Y-107705026D01*
X120278023Y-107324028D01*
X120278026Y-107324026D01*
X120553327Y-106912008D01*
X120650000Y-106426000D01*
X120650000Y-106210503D01*
X120677440Y-106075000D01*
X120677440Y-105375000D01*
X120633162Y-105139683D01*
X120494090Y-104923559D01*
X120281890Y-104778569D01*
X120268803Y-104775919D01*
X120481441Y-104639090D01*
X120626431Y-104426890D01*
X120677440Y-104175000D01*
X120677440Y-103475000D01*
X120633162Y-103239683D01*
X120494090Y-103023559D01*
X120281890Y-102878569D01*
X120030000Y-102827560D01*
X118730000Y-102827560D01*
X118494683Y-102871838D01*
X118278559Y-103010910D01*
X118179472Y-103155929D01*
X117990000Y-103117560D01*
X117190000Y-103117560D01*
X116954683Y-103161838D01*
X116851354Y-103228329D01*
X116849698Y-103226673D01*
X116616309Y-103130000D01*
X116375750Y-103130000D01*
X116217000Y-103288750D01*
X116217000Y-104013000D01*
X116237000Y-104013000D01*
X116237000Y-104267000D01*
X116217000Y-104267000D01*
X116217000Y-104287000D01*
X115963000Y-104287000D01*
X115963000Y-104267000D01*
X115213750Y-104267000D01*
X115055000Y-104425750D01*
X115055000Y-104641310D01*
X115151673Y-104874699D01*
X115185939Y-104908965D01*
X115062176Y-105207018D01*
X115061824Y-105611208D01*
X115216175Y-105984766D01*
X115501731Y-106270821D01*
X115875018Y-106425824D01*
X116279208Y-106426176D01*
X116652766Y-106271825D01*
X116816376Y-106108500D01*
X116967000Y-106108500D01*
X117234305Y-106055330D01*
X117460914Y-105903914D01*
X118083914Y-105280914D01*
X118109309Y-105242907D01*
X118082560Y-105375000D01*
X118082560Y-105936533D01*
X117825673Y-106320992D01*
X117728999Y-106807000D01*
X117825673Y-107293008D01*
X118100974Y-107705026D01*
X118503717Y-107974130D01*
X117700270Y-107632693D01*
X116055334Y-107617654D01*
X114529855Y-108233250D01*
X114465762Y-108276076D01*
X114062293Y-108802688D01*
X112090337Y-108802688D01*
X112059271Y-108646511D01*
X111734415Y-108160330D01*
X111419634Y-107950000D01*
X111734415Y-107739670D01*
X112059271Y-107253489D01*
X112173345Y-106680000D01*
X112059271Y-106106511D01*
X111734415Y-105620330D01*
X111419634Y-105410000D01*
X111734415Y-105199670D01*
X112059271Y-104713489D01*
X112173345Y-104140000D01*
X112073629Y-103638690D01*
X115055000Y-103638690D01*
X115055000Y-103854250D01*
X115213750Y-104013000D01*
X115963000Y-104013000D01*
X115963000Y-103288750D01*
X115804250Y-103130000D01*
X115563691Y-103130000D01*
X115330302Y-103226673D01*
X115151673Y-103405301D01*
X115055000Y-103638690D01*
X112073629Y-103638690D01*
X112059271Y-103566511D01*
X111734415Y-103080330D01*
X111424931Y-102873539D01*
X111840732Y-102502036D01*
X112094709Y-101974791D01*
X112097358Y-101959026D01*
X111976217Y-101727000D01*
X110617000Y-101727000D01*
X110617000Y-101747000D01*
X110363000Y-101747000D01*
X110363000Y-101727000D01*
X108077000Y-101727000D01*
X108077000Y-101747000D01*
X107823000Y-101747000D01*
X107823000Y-101727000D01*
X106463783Y-101727000D01*
X106342642Y-101959026D01*
X106345291Y-101974791D01*
X106599268Y-102502036D01*
X107015069Y-102873539D01*
X106705585Y-103080330D01*
X106380729Y-103566511D01*
X106266655Y-104140000D01*
X82992795Y-104140000D01*
X83058564Y-104112825D01*
X83158563Y-104013000D01*
X93980000Y-104013000D01*
X94271605Y-103954996D01*
X94518815Y-103789815D01*
X97067656Y-101240974D01*
X106342642Y-101240974D01*
X106463783Y-101473000D01*
X107823000Y-101473000D01*
X107823000Y-100259076D01*
X108077000Y-100259076D01*
X108077000Y-101473000D01*
X110363000Y-101473000D01*
X110363000Y-100259076D01*
X110617000Y-100259076D01*
X110617000Y-101473000D01*
X111976217Y-101473000D01*
X112097358Y-101240974D01*
X112094709Y-101225209D01*
X111840732Y-100697964D01*
X111404320Y-100308046D01*
X110851913Y-100114816D01*
X110617000Y-100259076D01*
X110363000Y-100259076D01*
X110128087Y-100114816D01*
X109575680Y-100308046D01*
X109220000Y-100625833D01*
X108864320Y-100308046D01*
X108311913Y-100114816D01*
X108077000Y-100259076D01*
X107823000Y-100259076D01*
X107588087Y-100114816D01*
X107035680Y-100308046D01*
X106599268Y-100697964D01*
X106345291Y-101225209D01*
X106342642Y-101240974D01*
X97067656Y-101240974D01*
X98232576Y-100076054D01*
X98372208Y-100076176D01*
X98745766Y-99921825D01*
X99031821Y-99636269D01*
X99186824Y-99262982D01*
X99187176Y-98858792D01*
X99032825Y-98485234D01*
X98747269Y-98199179D01*
X98373982Y-98044176D01*
X97969792Y-98043824D01*
X97596234Y-98198175D01*
X97310179Y-98483731D01*
X97155176Y-98857018D01*
X97155053Y-98998317D01*
X93664370Y-102489000D01*
X83158716Y-102489000D01*
X83060067Y-102390179D01*
X82686780Y-102235176D01*
X82282590Y-102234824D01*
X81909032Y-102389175D01*
X81622977Y-102674731D01*
X81467974Y-103048018D01*
X81467622Y-103452208D01*
X61722000Y-103452208D01*
X61722000Y-93472000D01*
X76200000Y-93472000D01*
X76246159Y-93463315D01*
X76288553Y-93436035D01*
X76316994Y-93394410D01*
X76327000Y-93345000D01*
X76327000Y-83820000D01*
X113951399Y-83820000D01*
X114057739Y-84354609D01*
X114360571Y-84807828D01*
X114782870Y-85090000D01*
X114360571Y-85372172D01*
X114057739Y-85825391D01*
X113951399Y-86360000D01*
X114057739Y-86894609D01*
X114360571Y-87347828D01*
X114782870Y-87630000D01*
X114360571Y-87912172D01*
X114057739Y-88365391D01*
X113951399Y-88900000D01*
X114057739Y-89434609D01*
X114360571Y-89887828D01*
X114800672Y-90181895D01*
X114702208Y-90213229D01*
X114284299Y-90565800D01*
X114033124Y-91051460D01*
X114025280Y-91096930D01*
X114147780Y-91313000D01*
X115443000Y-91313000D01*
X115443000Y-91293000D01*
X115697000Y-91293000D01*
X115697000Y-91313000D01*
X115717000Y-91313000D01*
X115717000Y-91567000D01*
X115697000Y-91567000D01*
X115697000Y-91587000D01*
X115443000Y-91587000D01*
X115443000Y-91567000D01*
X114147780Y-91567000D01*
X114025280Y-91783070D01*
X114033124Y-91828540D01*
X114284299Y-92314200D01*
X114702208Y-92666771D01*
X114800672Y-92698105D01*
X114360571Y-92992172D01*
X114057739Y-93445391D01*
X113951399Y-93980000D01*
X114057739Y-94514609D01*
X114360571Y-94967828D01*
X114800672Y-95261895D01*
X114702208Y-95293229D01*
X114284299Y-95645800D01*
X114033124Y-96131460D01*
X114025280Y-96176930D01*
X114147780Y-96393000D01*
X115443000Y-96393000D01*
X115443000Y-96373000D01*
X115697000Y-96373000D01*
X115697000Y-96393000D01*
X115717000Y-96393000D01*
X115717000Y-96647000D01*
X115697000Y-96647000D01*
X115697000Y-96667000D01*
X115443000Y-96667000D01*
X115443000Y-96647000D01*
X114147780Y-96647000D01*
X114025280Y-96863070D01*
X114033124Y-96908540D01*
X114284299Y-97394200D01*
X114702208Y-97746771D01*
X114800672Y-97778105D01*
X114360571Y-98072172D01*
X114057739Y-98525391D01*
X113951399Y-99060000D01*
X114057739Y-99594609D01*
X114360571Y-100047828D01*
X114813790Y-100350660D01*
X115348399Y-100457000D01*
X115791601Y-100457000D01*
X116326210Y-100350660D01*
X116617749Y-100155860D01*
X116693410Y-100273441D01*
X116905610Y-100418431D01*
X117157500Y-100469440D01*
X119062500Y-100469440D01*
X119297817Y-100425162D01*
X119513941Y-100286090D01*
X119658931Y-100073890D01*
X119709940Y-99822000D01*
X119709940Y-98298000D01*
X119665662Y-98062683D01*
X119526590Y-97846559D01*
X119314390Y-97701569D01*
X119095742Y-97657292D01*
X119319429Y-97507828D01*
X119622261Y-97054609D01*
X119728601Y-96520000D01*
X119622261Y-95985391D01*
X119319429Y-95532172D01*
X118897130Y-95250000D01*
X119319429Y-94967828D01*
X119622261Y-94514609D01*
X119728601Y-93980000D01*
X119622261Y-93445391D01*
X119319429Y-92992172D01*
X118897130Y-92710000D01*
X119319429Y-92427828D01*
X119622261Y-91974609D01*
X119728601Y-91440000D01*
X119622261Y-90905391D01*
X119319429Y-90452172D01*
X118897130Y-90170000D01*
X119319429Y-89887828D01*
X119622261Y-89434609D01*
X119728601Y-88900000D01*
X119622261Y-88365391D01*
X119319429Y-87912172D01*
X118897130Y-87630000D01*
X119319429Y-87347828D01*
X119622261Y-86894609D01*
X119728601Y-86360000D01*
X119622261Y-85825391D01*
X119319429Y-85372172D01*
X118897130Y-85090000D01*
X119319429Y-84807828D01*
X119622261Y-84354609D01*
X119728601Y-83820000D01*
X119622261Y-83285391D01*
X119319429Y-82832172D01*
X118897130Y-82550000D01*
X119319429Y-82267828D01*
X119622261Y-81814609D01*
X119728601Y-81280000D01*
X119622261Y-80745391D01*
X119319429Y-80292172D01*
X118866210Y-79989340D01*
X118331601Y-79883000D01*
X117888399Y-79883000D01*
X117353790Y-79989340D01*
X116900571Y-80292172D01*
X116835842Y-80389046D01*
X116437792Y-80053229D01*
X115916771Y-79887423D01*
X115697000Y-80038872D01*
X115697000Y-81153000D01*
X115717000Y-81153000D01*
X115717000Y-81407000D01*
X115697000Y-81407000D01*
X115697000Y-81427000D01*
X115443000Y-81427000D01*
X115443000Y-81407000D01*
X114147780Y-81407000D01*
X114025280Y-81623070D01*
X114033124Y-81668540D01*
X114284299Y-82154200D01*
X114702208Y-82506771D01*
X114800672Y-82538105D01*
X114360571Y-82832172D01*
X114057739Y-83285391D01*
X113951399Y-83820000D01*
X76327000Y-83820000D01*
X76327000Y-75946000D01*
X78473560Y-75946000D01*
X78473560Y-77724000D01*
X78517838Y-77959317D01*
X78656910Y-78175441D01*
X78869110Y-78320431D01*
X78912212Y-78329159D01*
X78776621Y-78532086D01*
X78675000Y-79042968D01*
X78675000Y-79631069D01*
X78662560Y-79692500D01*
X78662560Y-82867500D01*
X78706838Y-83102817D01*
X78845910Y-83318941D01*
X79058110Y-83463931D01*
X79310000Y-83514940D01*
X80710000Y-83514940D01*
X80945317Y-83470662D01*
X81161441Y-83331590D01*
X81281893Y-83155303D01*
X81311673Y-83227199D01*
X81490302Y-83405827D01*
X81723691Y-83502500D01*
X82264250Y-83502500D01*
X82423000Y-83343750D01*
X82423000Y-81407000D01*
X82403000Y-81407000D01*
X82403000Y-81153000D01*
X82423000Y-81153000D01*
X82423000Y-77905626D01*
X82216671Y-77782284D01*
X82156450Y-77793020D01*
X81695815Y-78041210D01*
X81365222Y-78446785D01*
X81281786Y-78725170D01*
X81243379Y-78532086D01*
X81109566Y-78331819D01*
X81134317Y-78327162D01*
X81350441Y-78188090D01*
X81495431Y-77975890D01*
X81546440Y-77724000D01*
X81546440Y-75946000D01*
X81502162Y-75710683D01*
X81363090Y-75494559D01*
X81150890Y-75349569D01*
X80899000Y-75298560D01*
X79121000Y-75298560D01*
X78885683Y-75342838D01*
X78669559Y-75481910D01*
X78524569Y-75694110D01*
X78473560Y-75946000D01*
X76327000Y-75946000D01*
X76327000Y-72910440D01*
X78105000Y-72910440D01*
X78340317Y-72866162D01*
X78556441Y-72727090D01*
X78701431Y-72514890D01*
X78752440Y-72263000D01*
X78752440Y-70739000D01*
X78708162Y-70503683D01*
X78698007Y-70487901D01*
X78701431Y-70482890D01*
X78752440Y-70231000D01*
X78752440Y-68707000D01*
X78708162Y-68471683D01*
X78569090Y-68255559D01*
X78356890Y-68110569D01*
X78105000Y-68059560D01*
X76327000Y-68059560D01*
X76327000Y-57912000D01*
X78701137Y-57912000D01*
X78662560Y-58102500D01*
X78662560Y-58102500D01*
G37*
X78662560Y-58102500D02*
X78662560Y-61277500D01*
X78675000Y-61343613D01*
X78675000Y-61927032D01*
X78776621Y-62437914D01*
X79066012Y-62871020D01*
X79201402Y-62961484D01*
X78987059Y-63099410D01*
X78842069Y-63311610D01*
X78791060Y-63563500D01*
X78791060Y-64706500D01*
X78835338Y-64941817D01*
X78974410Y-65157941D01*
X79186610Y-65302931D01*
X79438500Y-65353940D01*
X80581500Y-65353940D01*
X80816817Y-65309662D01*
X81032941Y-65170590D01*
X81177931Y-64958390D01*
X81228940Y-64706500D01*
X81228940Y-63563500D01*
X81184662Y-63328183D01*
X81045590Y-63112059D01*
X80833390Y-62967069D01*
X80815624Y-62963471D01*
X80953988Y-62871020D01*
X81243379Y-62437914D01*
X81280000Y-62253808D01*
X81316621Y-62437914D01*
X81606012Y-62871020D01*
X81741402Y-62961484D01*
X81527059Y-63099410D01*
X81382069Y-63311610D01*
X81331060Y-63563500D01*
X81331060Y-64706500D01*
X81375338Y-64941817D01*
X81514410Y-65157941D01*
X81726610Y-65302931D01*
X81978500Y-65353940D01*
X83121500Y-65353940D01*
X83356817Y-65309662D01*
X83572941Y-65170590D01*
X83717931Y-64958390D01*
X83768940Y-64706500D01*
X83768940Y-63563500D01*
X83724662Y-63328183D01*
X83585590Y-63112059D01*
X83373390Y-62967069D01*
X83355624Y-62963471D01*
X83493988Y-62871020D01*
X83783379Y-62437914D01*
X83820000Y-62253808D01*
X83856621Y-62437914D01*
X84146012Y-62871020D01*
X84579118Y-63160411D01*
X85090000Y-63262032D01*
X85600882Y-63160411D01*
X86033988Y-62871020D01*
X86323379Y-62437914D01*
X86361786Y-62244830D01*
X86445222Y-62523215D01*
X86775815Y-62928790D01*
X87236450Y-63176980D01*
X87296671Y-63187716D01*
X87503000Y-63064374D01*
X87503000Y-59817000D01*
X87483000Y-59817000D01*
X87483000Y-59563000D01*
X87503000Y-59563000D01*
X87503000Y-59543000D01*
X87757000Y-59543000D01*
X87757000Y-59563000D01*
X87777000Y-59563000D01*
X87777000Y-59817000D01*
X87757000Y-59817000D01*
X87757000Y-63064374D01*
X87963329Y-63187716D01*
X88023550Y-63176980D01*
X88484185Y-62928790D01*
X88814778Y-62523215D01*
X88898214Y-62244830D01*
X88936621Y-62437914D01*
X89226012Y-62871020D01*
X89659118Y-63160411D01*
X90170000Y-63262032D01*
X90680882Y-63160411D01*
X91113988Y-62871020D01*
X91403379Y-62437914D01*
X91440000Y-62253808D01*
X91476621Y-62437914D01*
X91766012Y-62871020D01*
X92011500Y-63035049D01*
X92011500Y-64861672D01*
X90261672Y-66611500D01*
X86590307Y-66611500D01*
X86428269Y-66449179D01*
X86054982Y-66294176D01*
X85650792Y-66293824D01*
X85277234Y-66448175D01*
X84991179Y-66733731D01*
X84836176Y-67107018D01*
X84835975Y-67338197D01*
X82310085Y-69864087D01*
X82158669Y-70090696D01*
X82122027Y-70274910D01*
X82105499Y-70358001D01*
X82105499Y-70405875D01*
X81848234Y-70512175D01*
X81562179Y-70797731D01*
X81407176Y-71171018D01*
X81406824Y-71575208D01*
X81561175Y-71948766D01*
X81846731Y-72234821D01*
X82220018Y-72389824D01*
X82624208Y-72390176D01*
X82867637Y-72289593D01*
X83109018Y-72389824D01*
X83513208Y-72390176D01*
X83886766Y-72235825D01*
X84172821Y-71950269D01*
X84327824Y-71576982D01*
X84328086Y-71275635D01*
X84338329Y-71260306D01*
X84391499Y-70993001D01*
X84391499Y-70647329D01*
X86776328Y-68262500D01*
X90678000Y-68262500D01*
X90945305Y-68209330D01*
X91171914Y-68057914D01*
X95743914Y-63485914D01*
X95773436Y-63441731D01*
X95895330Y-63259304D01*
X95938624Y-63041648D01*
X96193988Y-62871020D01*
X96483379Y-62437914D01*
X96520000Y-62253808D01*
X96556621Y-62437914D01*
X96846012Y-62871020D01*
X97279118Y-63160411D01*
X97790000Y-63262032D01*
X98300882Y-63160411D01*
X98733988Y-62871020D01*
X99023379Y-62437914D01*
X99060000Y-62253808D01*
X99096621Y-62437914D01*
X99386012Y-62871020D01*
X99631500Y-63035049D01*
X99631500Y-65278000D01*
X99684670Y-65545305D01*
X99836086Y-65771914D01*
X100584024Y-66519852D01*
X100583824Y-66749208D01*
X100738175Y-67122766D01*
X101023731Y-67408821D01*
X101397018Y-67563824D01*
X101628197Y-67564025D01*
X102933500Y-68869328D01*
X102933500Y-69278500D01*
X102489000Y-69278500D01*
X102221696Y-69331670D01*
X101995086Y-69483086D01*
X101360086Y-70118086D01*
X101208670Y-70344695D01*
X101175356Y-70512175D01*
X101155500Y-70612000D01*
X101155500Y-75184000D01*
X101208670Y-75451305D01*
X101360086Y-75677914D01*
X101868086Y-76185914D01*
X102094696Y-76337330D01*
X102362000Y-76390500D01*
X102742944Y-76390500D01*
X102742824Y-76528208D01*
X102897175Y-76901766D01*
X103094947Y-77099884D01*
X102900086Y-77230086D01*
X102376086Y-77754086D01*
X102322773Y-77833874D01*
X101926012Y-78098980D01*
X101636621Y-78532086D01*
X101600000Y-78716192D01*
X101563379Y-78532086D01*
X101273988Y-78098980D01*
X100840882Y-77809589D01*
X100330000Y-77707968D01*
X99819118Y-77809589D01*
X99386012Y-78098980D01*
X99096621Y-78532086D01*
X99060000Y-78716192D01*
X99023379Y-78532086D01*
X98733988Y-78098980D01*
X98598598Y-78008516D01*
X98812941Y-77870590D01*
X98957931Y-77658390D01*
X99008940Y-77406500D01*
X99008940Y-76263500D01*
X98964662Y-76028183D01*
X98825590Y-75812059D01*
X98613390Y-75667069D01*
X98361500Y-75616060D01*
X97218500Y-75616060D01*
X96983183Y-75660338D01*
X96767059Y-75799410D01*
X96622069Y-76011610D01*
X96571060Y-76263500D01*
X96571060Y-77406500D01*
X96615338Y-77641817D01*
X96754410Y-77857941D01*
X96966610Y-78002931D01*
X96984376Y-78006529D01*
X96846012Y-78098980D01*
X96556621Y-78532086D01*
X96520000Y-78716192D01*
X96483379Y-78532086D01*
X96193988Y-78098980D01*
X95760882Y-77809589D01*
X95250000Y-77707968D01*
X94739118Y-77809589D01*
X94306012Y-78098980D01*
X94016621Y-78532086D01*
X93980000Y-78716192D01*
X93943379Y-78532086D01*
X93653988Y-78098980D01*
X93220882Y-77809589D01*
X92710000Y-77707968D01*
X92199118Y-77809589D01*
X91766012Y-78098980D01*
X91476621Y-78532086D01*
X91440000Y-78716192D01*
X91403379Y-78532086D01*
X91113988Y-78098980D01*
X90680882Y-77809589D01*
X90170000Y-77707968D01*
X89659118Y-77809589D01*
X89226012Y-78098980D01*
X88936621Y-78532086D01*
X88900000Y-78716192D01*
X88863379Y-78532086D01*
X88729566Y-78331819D01*
X88754317Y-78327162D01*
X88970441Y-78188090D01*
X89115431Y-77975890D01*
X89166440Y-77724000D01*
X89166440Y-75946000D01*
X89122162Y-75710683D01*
X88983090Y-75494559D01*
X88770890Y-75349569D01*
X88519000Y-75298560D01*
X86741000Y-75298560D01*
X86505683Y-75342838D01*
X86289559Y-75481910D01*
X86144569Y-75694110D01*
X86093560Y-75946000D01*
X86093560Y-77724000D01*
X86137838Y-77959317D01*
X86276910Y-78175441D01*
X86489110Y-78320431D01*
X86532212Y-78329159D01*
X86396621Y-78532086D01*
X86360000Y-78716192D01*
X86323379Y-78532086D01*
X86033988Y-78098980D01*
X85600882Y-77809589D01*
X85090000Y-77707968D01*
X84579118Y-77809589D01*
X84146012Y-78098980D01*
X83856621Y-78532086D01*
X83818214Y-78725170D01*
X83734778Y-78446785D01*
X83404185Y-78041210D01*
X82943550Y-77793020D01*
X82883329Y-77782284D01*
X82677000Y-77905626D01*
X82677000Y-81153000D01*
X82697000Y-81153000D01*
X82697000Y-81407000D01*
X82677000Y-81407000D01*
X82677000Y-83343750D01*
X82835750Y-83502500D01*
X83376309Y-83502500D01*
X83609698Y-83405827D01*
X83788327Y-83227199D01*
X83819088Y-83152935D01*
X83925910Y-83318941D01*
X84138110Y-83463931D01*
X84390000Y-83514940D01*
X85790000Y-83514940D01*
X86025317Y-83470662D01*
X86241441Y-83331590D01*
X86361233Y-83156268D01*
X86465910Y-83318941D01*
X86678110Y-83463931D01*
X86930000Y-83514940D01*
X88330000Y-83514940D01*
X88565317Y-83470662D01*
X88781441Y-83331590D01*
X88901233Y-83156268D01*
X89005910Y-83318941D01*
X89218110Y-83463931D01*
X89470000Y-83514940D01*
X90870000Y-83514940D01*
X91105317Y-83470662D01*
X91321441Y-83331590D01*
X91441233Y-83156268D01*
X91545910Y-83318941D01*
X91758110Y-83463931D01*
X92010000Y-83514940D01*
X93410000Y-83514940D01*
X93645317Y-83470662D01*
X93861441Y-83331590D01*
X93981233Y-83156268D01*
X94085910Y-83318941D01*
X94298110Y-83463931D01*
X94550000Y-83514940D01*
X95950000Y-83514940D01*
X96185317Y-83470662D01*
X96401441Y-83331590D01*
X96521233Y-83156268D01*
X96625910Y-83318941D01*
X96838110Y-83463931D01*
X97090000Y-83514940D01*
X98490000Y-83514940D01*
X98725317Y-83470662D01*
X98941441Y-83331590D01*
X99061233Y-83156268D01*
X99165910Y-83318941D01*
X99378110Y-83463931D01*
X99630000Y-83514940D01*
X101030000Y-83514940D01*
X101265317Y-83470662D01*
X101481441Y-83331590D01*
X101601233Y-83156268D01*
X101705910Y-83318941D01*
X101918110Y-83463931D01*
X102170000Y-83514940D01*
X103570000Y-83514940D01*
X103805317Y-83470662D01*
X104021441Y-83331590D01*
X104141233Y-83156268D01*
X104245910Y-83318941D01*
X104458110Y-83463931D01*
X104710000Y-83514940D01*
X106110000Y-83514940D01*
X106345317Y-83470662D01*
X106561441Y-83331590D01*
X106681233Y-83156268D01*
X106785910Y-83318941D01*
X106998110Y-83463931D01*
X107250000Y-83514940D01*
X108650000Y-83514940D01*
X108885317Y-83470662D01*
X109101441Y-83331590D01*
X109246431Y-83119390D01*
X109297440Y-82867500D01*
X109297440Y-80936930D01*
X114025280Y-80936930D01*
X114147780Y-81153000D01*
X115443000Y-81153000D01*
X115443000Y-80038872D01*
X115223229Y-79887423D01*
X114702208Y-80053229D01*
X114284299Y-80405800D01*
X114033124Y-80891460D01*
X114025280Y-80936930D01*
X109297440Y-80936930D01*
X109297440Y-79692500D01*
X109285000Y-79626387D01*
X109285000Y-79042968D01*
X109183379Y-78532086D01*
X108893988Y-78098980D01*
X108460882Y-77809589D01*
X107950000Y-77707968D01*
X107439118Y-77809589D01*
X107006012Y-78098980D01*
X106716621Y-78532086D01*
X106680000Y-78716192D01*
X106643379Y-78532086D01*
X106353988Y-78098980D01*
X105920882Y-77809589D01*
X105410000Y-77707968D01*
X104899118Y-77809589D01*
X104466012Y-78098980D01*
X104176621Y-78532086D01*
X104140000Y-78716192D01*
X104103379Y-78532086D01*
X103998345Y-78374891D01*
X104026305Y-78369330D01*
X104252914Y-78217914D01*
X104873852Y-77596976D01*
X105103208Y-77597176D01*
X105476766Y-77442825D01*
X105762821Y-77157269D01*
X105917824Y-76783982D01*
X105918176Y-76379792D01*
X105763825Y-76006234D01*
X105478269Y-75720179D01*
X105104982Y-75565176D01*
X104700792Y-75564824D01*
X104511726Y-75642944D01*
X104335269Y-75466179D01*
X104010662Y-75331390D01*
X104412052Y-74930000D01*
X113792000Y-74930000D01*
X114278008Y-74833327D01*
X114608500Y-74612500D01*
X114775404Y-74612500D01*
X114803110Y-74631431D01*
X115055000Y-74682440D01*
X115855000Y-74682440D01*
X116090317Y-74638162D01*
X116204978Y-74564380D01*
X116303110Y-74631431D01*
X116555000Y-74682440D01*
X117355000Y-74682440D01*
X117590317Y-74638162D01*
X117728879Y-74549000D01*
X118021547Y-74549000D01*
X118135585Y-74719670D01*
X118621766Y-75044526D01*
X119195255Y-75158600D01*
X119564745Y-75158600D01*
X120138234Y-75044526D01*
X120624415Y-74719670D01*
X120949271Y-74233489D01*
X121063345Y-73660000D01*
X120949271Y-73086511D01*
X120624415Y-72600330D01*
X120314931Y-72393539D01*
X120730732Y-72022036D01*
X120984709Y-71494791D01*
X120987358Y-71479026D01*
X120866217Y-71247000D01*
X119507000Y-71247000D01*
X119507000Y-71267000D01*
X119253000Y-71267000D01*
X119253000Y-71247000D01*
X119233000Y-71247000D01*
X119233000Y-70993000D01*
X119253000Y-70993000D01*
X119253000Y-70973000D01*
X119507000Y-70973000D01*
X119507000Y-70993000D01*
X120866217Y-70993000D01*
X120987358Y-70760974D01*
X120984709Y-70745209D01*
X120730732Y-70217964D01*
X120555155Y-70061093D01*
X120631317Y-70046762D01*
X120847441Y-69907690D01*
X120992431Y-69695490D01*
X121043440Y-69443600D01*
X121043440Y-67716400D01*
X120999162Y-67481083D01*
X120860090Y-67264959D01*
X120647890Y-67119969D01*
X120396000Y-67068960D01*
X118364000Y-67068960D01*
X118128683Y-67113238D01*
X117912559Y-67252310D01*
X117767569Y-67464510D01*
X117716560Y-67716400D01*
X117716560Y-69443600D01*
X117760838Y-69678917D01*
X117899910Y-69895041D01*
X118112110Y-70040031D01*
X118206927Y-70059232D01*
X118029268Y-70217964D01*
X117775291Y-70745209D01*
X117772642Y-70760974D01*
X117893782Y-70992998D01*
X117860555Y-70992998D01*
X117819090Y-70928559D01*
X117606890Y-70783569D01*
X117355000Y-70732560D01*
X116555000Y-70732560D01*
X116319683Y-70776838D01*
X116216354Y-70843329D01*
X116214698Y-70841673D01*
X115981309Y-70745000D01*
X115740750Y-70745000D01*
X115582000Y-70903750D01*
X115582000Y-71628000D01*
X115602000Y-71628000D01*
X115602000Y-71882000D01*
X115582000Y-71882000D01*
X115582000Y-71902000D01*
X115328000Y-71902000D01*
X115328000Y-71882000D01*
X114578750Y-71882000D01*
X114420000Y-72040750D01*
X114420000Y-72256310D01*
X114516673Y-72489699D01*
X114695302Y-72668327D01*
X114783747Y-72704962D01*
X114779803Y-72707500D01*
X114608500Y-72707500D01*
X114278008Y-72486673D01*
X113792000Y-72390000D01*
X113157000Y-72390000D01*
X113157000Y-71253690D01*
X114420000Y-71253690D01*
X114420000Y-71469250D01*
X114578750Y-71628000D01*
X115328000Y-71628000D01*
X115328000Y-70903750D01*
X115169250Y-70745000D01*
X114928691Y-70745000D01*
X114695302Y-70841673D01*
X114516673Y-71020301D01*
X114420000Y-71253690D01*
X113157000Y-71253690D01*
X113157000Y-65187312D01*
X114062293Y-65187312D01*
X114465762Y-65713924D01*
X115979730Y-66357307D01*
X117624666Y-66372346D01*
X119150145Y-65756750D01*
X119214238Y-65713924D01*
X119617707Y-65187312D01*
X116840000Y-62409605D01*
X114062293Y-65187312D01*
X113157000Y-65187312D01*
X113157000Y-64152949D01*
X113313250Y-64540145D01*
X113356076Y-64604238D01*
X113882688Y-65007707D01*
X116660395Y-62230000D01*
X117019605Y-62230000D01*
X119797312Y-65007707D01*
X120323924Y-64604238D01*
X120967307Y-63090270D01*
X120982346Y-61445334D01*
X120366750Y-59919855D01*
X120323924Y-59855762D01*
X119797312Y-59452293D01*
X117019605Y-62230000D01*
X116660395Y-62230000D01*
X116646253Y-62215858D01*
X116825858Y-62036253D01*
X116840000Y-62050395D01*
X119617707Y-59272688D01*
X119214238Y-58746076D01*
X117700270Y-58102693D01*
X116055334Y-58087654D01*
X115037867Y-58498245D01*
X115330990Y-57912000D01*
X121158000Y-57912000D01*
X121158000Y-116078000D01*
X64235642Y-116078000D01*
X64267840Y-115919000D01*
X64267840Y-111919000D01*
X64258138Y-111867440D01*
X66620140Y-111867440D01*
X66855457Y-111823162D01*
X67071581Y-111684090D01*
X67216571Y-111471890D01*
X67267580Y-111220000D01*
X67267580Y-107220000D01*
X67223302Y-106984683D01*
X67084230Y-106768559D01*
X66872030Y-106623569D01*
X66620140Y-106572560D01*
X62620140Y-106572560D01*
X62384823Y-106616838D01*
X62168699Y-106755910D01*
X62023709Y-106968110D01*
X61972700Y-107220000D01*
X61972700Y-111220000D01*
X61982402Y-111271560D01*
X61722000Y-111271560D01*
X61722000Y-103452208D01*
X81467622Y-103452208D01*
X81621973Y-103825766D01*
X81907529Y-104111821D01*
X82280816Y-104266824D01*
X82685006Y-104267176D01*
X82992795Y-104140000D01*
X106266655Y-104140000D01*
X106380729Y-104713489D01*
X106705585Y-105199670D01*
X107020366Y-105410000D01*
X106705585Y-105620330D01*
X106380729Y-106106511D01*
X106266655Y-106680000D01*
X106380729Y-107253489D01*
X106705585Y-107739670D01*
X107020366Y-107950000D01*
X106705585Y-108160330D01*
X106380729Y-108646511D01*
X106266655Y-109220000D01*
X106380729Y-109793489D01*
X106705585Y-110279670D01*
X107020366Y-110490000D01*
X106705585Y-110700330D01*
X106380729Y-111186511D01*
X106266655Y-111760000D01*
X106380729Y-112333489D01*
X106705585Y-112819670D01*
X106719913Y-112829243D01*
X106698683Y-112833238D01*
X106482559Y-112972310D01*
X106337569Y-113184510D01*
X106286560Y-113436400D01*
X106286560Y-115163600D01*
X106330838Y-115398917D01*
X106469910Y-115615041D01*
X106682110Y-115760031D01*
X106934000Y-115811040D01*
X108966000Y-115811040D01*
X109201317Y-115766762D01*
X109217099Y-115756607D01*
X109222110Y-115760031D01*
X109474000Y-115811040D01*
X111506000Y-115811040D01*
X111741317Y-115766762D01*
X111957441Y-115627690D01*
X112102431Y-115415490D01*
X112153440Y-115163600D01*
X112153440Y-114717312D01*
X114062293Y-114717312D01*
X114465762Y-115243924D01*
X115979730Y-115887307D01*
X117624666Y-115902346D01*
X119150145Y-115286750D01*
X119214238Y-115243924D01*
X119617707Y-114717312D01*
X116840000Y-111939605D01*
X114062293Y-114717312D01*
X112153440Y-114717312D01*
X112153440Y-113436400D01*
X112109162Y-113201083D01*
X111970090Y-112984959D01*
X111757890Y-112839969D01*
X111716561Y-112831600D01*
X111734415Y-112819670D01*
X111918166Y-112544666D01*
X112697654Y-112544666D01*
X113313250Y-114070145D01*
X113356076Y-114134238D01*
X113882688Y-114537707D01*
X116660395Y-111760000D01*
X117019605Y-111760000D01*
X119797312Y-114537707D01*
X120323924Y-114134238D01*
X120967307Y-112620270D01*
X120982346Y-110975334D01*
X120366750Y-109449855D01*
X120323924Y-109385762D01*
X119797312Y-108982293D01*
X117019605Y-111760000D01*
X116660395Y-111760000D01*
X113882688Y-108982293D01*
X113356076Y-109385762D01*
X112712693Y-110899730D01*
X112697654Y-112544666D01*
X111918166Y-112544666D01*
X112059271Y-112333489D01*
X112173345Y-111760000D01*
X112059271Y-111186511D01*
X111734415Y-110700330D01*
X111419634Y-110490000D01*
X111734415Y-110279670D01*
X112059271Y-109793489D01*
X112173345Y-109220000D01*
X112090337Y-108802688D01*
X114062293Y-108802688D01*
X116840000Y-111580395D01*
X119617707Y-108802688D01*
X119214238Y-108276076D01*
X118522971Y-107982312D01*
X118999000Y-108077001D01*
X119485008Y-107980327D01*
X119897026Y-107705026D01*
X120278023Y-107324028D01*
X120278026Y-107324026D01*
X120553327Y-106912008D01*
X120650000Y-106426000D01*
X120650000Y-106210503D01*
X120677440Y-106075000D01*
X120677440Y-105375000D01*
X120633162Y-105139683D01*
X120494090Y-104923559D01*
X120281890Y-104778569D01*
X120268803Y-104775919D01*
X120481441Y-104639090D01*
X120626431Y-104426890D01*
X120677440Y-104175000D01*
X120677440Y-103475000D01*
X120633162Y-103239683D01*
X120494090Y-103023559D01*
X120281890Y-102878569D01*
X120030000Y-102827560D01*
X118730000Y-102827560D01*
X118494683Y-102871838D01*
X118278559Y-103010910D01*
X118179472Y-103155929D01*
X117990000Y-103117560D01*
X117190000Y-103117560D01*
X116954683Y-103161838D01*
X116851354Y-103228329D01*
X116849698Y-103226673D01*
X116616309Y-103130000D01*
X116375750Y-103130000D01*
X116217000Y-103288750D01*
X116217000Y-104013000D01*
X116237000Y-104013000D01*
X116237000Y-104267000D01*
X116217000Y-104267000D01*
X116217000Y-104287000D01*
X115963000Y-104287000D01*
X115963000Y-104267000D01*
X115213750Y-104267000D01*
X115055000Y-104425750D01*
X115055000Y-104641310D01*
X115151673Y-104874699D01*
X115185939Y-104908965D01*
X115062176Y-105207018D01*
X115061824Y-105611208D01*
X115216175Y-105984766D01*
X115501731Y-106270821D01*
X115875018Y-106425824D01*
X116279208Y-106426176D01*
X116652766Y-106271825D01*
X116816376Y-106108500D01*
X116967000Y-106108500D01*
X117234305Y-106055330D01*
X117460914Y-105903914D01*
X118083914Y-105280914D01*
X118109309Y-105242907D01*
X118082560Y-105375000D01*
X118082560Y-105936533D01*
X117825673Y-106320992D01*
X117728999Y-106807000D01*
X117825673Y-107293008D01*
X118100974Y-107705026D01*
X118503717Y-107974130D01*
X117700270Y-107632693D01*
X116055334Y-107617654D01*
X114529855Y-108233250D01*
X114465762Y-108276076D01*
X114062293Y-108802688D01*
X112090337Y-108802688D01*
X112059271Y-108646511D01*
X111734415Y-108160330D01*
X111419634Y-107950000D01*
X111734415Y-107739670D01*
X112059271Y-107253489D01*
X112173345Y-106680000D01*
X112059271Y-106106511D01*
X111734415Y-105620330D01*
X111419634Y-105410000D01*
X111734415Y-105199670D01*
X112059271Y-104713489D01*
X112173345Y-104140000D01*
X112073629Y-103638690D01*
X115055000Y-103638690D01*
X115055000Y-103854250D01*
X115213750Y-104013000D01*
X115963000Y-104013000D01*
X115963000Y-103288750D01*
X115804250Y-103130000D01*
X115563691Y-103130000D01*
X115330302Y-103226673D01*
X115151673Y-103405301D01*
X115055000Y-103638690D01*
X112073629Y-103638690D01*
X112059271Y-103566511D01*
X111734415Y-103080330D01*
X111424931Y-102873539D01*
X111840732Y-102502036D01*
X112094709Y-101974791D01*
X112097358Y-101959026D01*
X111976217Y-101727000D01*
X110617000Y-101727000D01*
X110617000Y-101747000D01*
X110363000Y-101747000D01*
X110363000Y-101727000D01*
X108077000Y-101727000D01*
X108077000Y-101747000D01*
X107823000Y-101747000D01*
X107823000Y-101727000D01*
X106463783Y-101727000D01*
X106342642Y-101959026D01*
X106345291Y-101974791D01*
X106599268Y-102502036D01*
X107015069Y-102873539D01*
X106705585Y-103080330D01*
X106380729Y-103566511D01*
X106266655Y-104140000D01*
X82992795Y-104140000D01*
X83058564Y-104112825D01*
X83158563Y-104013000D01*
X93980000Y-104013000D01*
X94271605Y-103954996D01*
X94518815Y-103789815D01*
X97067656Y-101240974D01*
X106342642Y-101240974D01*
X106463783Y-101473000D01*
X107823000Y-101473000D01*
X107823000Y-100259076D01*
X108077000Y-100259076D01*
X108077000Y-101473000D01*
X110363000Y-101473000D01*
X110363000Y-100259076D01*
X110617000Y-100259076D01*
X110617000Y-101473000D01*
X111976217Y-101473000D01*
X112097358Y-101240974D01*
X112094709Y-101225209D01*
X111840732Y-100697964D01*
X111404320Y-100308046D01*
X110851913Y-100114816D01*
X110617000Y-100259076D01*
X110363000Y-100259076D01*
X110128087Y-100114816D01*
X109575680Y-100308046D01*
X109220000Y-100625833D01*
X108864320Y-100308046D01*
X108311913Y-100114816D01*
X108077000Y-100259076D01*
X107823000Y-100259076D01*
X107588087Y-100114816D01*
X107035680Y-100308046D01*
X106599268Y-100697964D01*
X106345291Y-101225209D01*
X106342642Y-101240974D01*
X97067656Y-101240974D01*
X98232576Y-100076054D01*
X98372208Y-100076176D01*
X98745766Y-99921825D01*
X99031821Y-99636269D01*
X99186824Y-99262982D01*
X99187176Y-98858792D01*
X99032825Y-98485234D01*
X98747269Y-98199179D01*
X98373982Y-98044176D01*
X97969792Y-98043824D01*
X97596234Y-98198175D01*
X97310179Y-98483731D01*
X97155176Y-98857018D01*
X97155053Y-98998317D01*
X93664370Y-102489000D01*
X83158716Y-102489000D01*
X83060067Y-102390179D01*
X82686780Y-102235176D01*
X82282590Y-102234824D01*
X81909032Y-102389175D01*
X81622977Y-102674731D01*
X81467974Y-103048018D01*
X81467622Y-103452208D01*
X61722000Y-103452208D01*
X61722000Y-93472000D01*
X76200000Y-93472000D01*
X76246159Y-93463315D01*
X76288553Y-93436035D01*
X76316994Y-93394410D01*
X76327000Y-93345000D01*
X76327000Y-83820000D01*
X113951399Y-83820000D01*
X114057739Y-84354609D01*
X114360571Y-84807828D01*
X114782870Y-85090000D01*
X114360571Y-85372172D01*
X114057739Y-85825391D01*
X113951399Y-86360000D01*
X114057739Y-86894609D01*
X114360571Y-87347828D01*
X114782870Y-87630000D01*
X114360571Y-87912172D01*
X114057739Y-88365391D01*
X113951399Y-88900000D01*
X114057739Y-89434609D01*
X114360571Y-89887828D01*
X114800672Y-90181895D01*
X114702208Y-90213229D01*
X114284299Y-90565800D01*
X114033124Y-91051460D01*
X114025280Y-91096930D01*
X114147780Y-91313000D01*
X115443000Y-91313000D01*
X115443000Y-91293000D01*
X115697000Y-91293000D01*
X115697000Y-91313000D01*
X115717000Y-91313000D01*
X115717000Y-91567000D01*
X115697000Y-91567000D01*
X115697000Y-91587000D01*
X115443000Y-91587000D01*
X115443000Y-91567000D01*
X114147780Y-91567000D01*
X114025280Y-91783070D01*
X114033124Y-91828540D01*
X114284299Y-92314200D01*
X114702208Y-92666771D01*
X114800672Y-92698105D01*
X114360571Y-92992172D01*
X114057739Y-93445391D01*
X113951399Y-93980000D01*
X114057739Y-94514609D01*
X114360571Y-94967828D01*
X114800672Y-95261895D01*
X114702208Y-95293229D01*
X114284299Y-95645800D01*
X114033124Y-96131460D01*
X114025280Y-96176930D01*
X114147780Y-96393000D01*
X115443000Y-96393000D01*
X115443000Y-96373000D01*
X115697000Y-96373000D01*
X115697000Y-96393000D01*
X115717000Y-96393000D01*
X115717000Y-96647000D01*
X115697000Y-96647000D01*
X115697000Y-96667000D01*
X115443000Y-96667000D01*
X115443000Y-96647000D01*
X114147780Y-96647000D01*
X114025280Y-96863070D01*
X114033124Y-96908540D01*
X114284299Y-97394200D01*
X114702208Y-97746771D01*
X114800672Y-97778105D01*
X114360571Y-98072172D01*
X114057739Y-98525391D01*
X113951399Y-99060000D01*
X114057739Y-99594609D01*
X114360571Y-100047828D01*
X114813790Y-100350660D01*
X115348399Y-100457000D01*
X115791601Y-100457000D01*
X116326210Y-100350660D01*
X116617749Y-100155860D01*
X116693410Y-100273441D01*
X116905610Y-100418431D01*
X117157500Y-100469440D01*
X119062500Y-100469440D01*
X119297817Y-100425162D01*
X119513941Y-100286090D01*
X119658931Y-100073890D01*
X119709940Y-99822000D01*
X119709940Y-98298000D01*
X119665662Y-98062683D01*
X119526590Y-97846559D01*
X119314390Y-97701569D01*
X119095742Y-97657292D01*
X119319429Y-97507828D01*
X119622261Y-97054609D01*
X119728601Y-96520000D01*
X119622261Y-95985391D01*
X119319429Y-95532172D01*
X118897130Y-95250000D01*
X119319429Y-94967828D01*
X119622261Y-94514609D01*
X119728601Y-93980000D01*
X119622261Y-93445391D01*
X119319429Y-92992172D01*
X118897130Y-92710000D01*
X119319429Y-92427828D01*
X119622261Y-91974609D01*
X119728601Y-91440000D01*
X119622261Y-90905391D01*
X119319429Y-90452172D01*
X118897130Y-90170000D01*
X119319429Y-89887828D01*
X119622261Y-89434609D01*
X119728601Y-88900000D01*
X119622261Y-88365391D01*
X119319429Y-87912172D01*
X118897130Y-87630000D01*
X119319429Y-87347828D01*
X119622261Y-86894609D01*
X119728601Y-86360000D01*
X119622261Y-85825391D01*
X119319429Y-85372172D01*
X118897130Y-85090000D01*
X119319429Y-84807828D01*
X119622261Y-84354609D01*
X119728601Y-83820000D01*
X119622261Y-83285391D01*
X119319429Y-82832172D01*
X118897130Y-82550000D01*
X119319429Y-82267828D01*
X119622261Y-81814609D01*
X119728601Y-81280000D01*
X119622261Y-80745391D01*
X119319429Y-80292172D01*
X118866210Y-79989340D01*
X118331601Y-79883000D01*
X117888399Y-79883000D01*
X117353790Y-79989340D01*
X116900571Y-80292172D01*
X116835842Y-80389046D01*
X116437792Y-80053229D01*
X115916771Y-79887423D01*
X115697000Y-80038872D01*
X115697000Y-81153000D01*
X115717000Y-81153000D01*
X115717000Y-81407000D01*
X115697000Y-81407000D01*
X115697000Y-81427000D01*
X115443000Y-81427000D01*
X115443000Y-81407000D01*
X114147780Y-81407000D01*
X114025280Y-81623070D01*
X114033124Y-81668540D01*
X114284299Y-82154200D01*
X114702208Y-82506771D01*
X114800672Y-82538105D01*
X114360571Y-82832172D01*
X114057739Y-83285391D01*
X113951399Y-83820000D01*
X76327000Y-83820000D01*
X76327000Y-75946000D01*
X78473560Y-75946000D01*
X78473560Y-77724000D01*
X78517838Y-77959317D01*
X78656910Y-78175441D01*
X78869110Y-78320431D01*
X78912212Y-78329159D01*
X78776621Y-78532086D01*
X78675000Y-79042968D01*
X78675000Y-79631069D01*
X78662560Y-79692500D01*
X78662560Y-82867500D01*
X78706838Y-83102817D01*
X78845910Y-83318941D01*
X79058110Y-83463931D01*
X79310000Y-83514940D01*
X80710000Y-83514940D01*
X80945317Y-83470662D01*
X81161441Y-83331590D01*
X81281893Y-83155303D01*
X81311673Y-83227199D01*
X81490302Y-83405827D01*
X81723691Y-83502500D01*
X82264250Y-83502500D01*
X82423000Y-83343750D01*
X82423000Y-81407000D01*
X82403000Y-81407000D01*
X82403000Y-81153000D01*
X82423000Y-81153000D01*
X82423000Y-77905626D01*
X82216671Y-77782284D01*
X82156450Y-77793020D01*
X81695815Y-78041210D01*
X81365222Y-78446785D01*
X81281786Y-78725170D01*
X81243379Y-78532086D01*
X81109566Y-78331819D01*
X81134317Y-78327162D01*
X81350441Y-78188090D01*
X81495431Y-77975890D01*
X81546440Y-77724000D01*
X81546440Y-75946000D01*
X81502162Y-75710683D01*
X81363090Y-75494559D01*
X81150890Y-75349569D01*
X80899000Y-75298560D01*
X79121000Y-75298560D01*
X78885683Y-75342838D01*
X78669559Y-75481910D01*
X78524569Y-75694110D01*
X78473560Y-75946000D01*
X76327000Y-75946000D01*
X76327000Y-72910440D01*
X78105000Y-72910440D01*
X78340317Y-72866162D01*
X78556441Y-72727090D01*
X78701431Y-72514890D01*
X78752440Y-72263000D01*
X78752440Y-70739000D01*
X78708162Y-70503683D01*
X78698007Y-70487901D01*
X78701431Y-70482890D01*
X78752440Y-70231000D01*
X78752440Y-68707000D01*
X78708162Y-68471683D01*
X78569090Y-68255559D01*
X78356890Y-68110569D01*
X78105000Y-68059560D01*
X76327000Y-68059560D01*
X76327000Y-57912000D01*
X78701137Y-57912000D01*
X78662560Y-58102500D01*
M02*
