G04 #@! TF.FileFunction,Copper,L1,Top,Signal*
%FSLAX46Y46*%
G04 Gerber Fmt 4.6, Leading zero omitted, Abs format (unit mm)*
G04 Created by KiCad (PCBNEW 4.0.4-stable) date 12/21/16 23:30:34*
%MOMM*%
%LPD*%
G01*
G04 APERTURE LIST*
%ADD10C,0.254000*%
%ADD11O,1.905000X1.524000*%
%ADD12R,1.905000X1.524000*%
%ADD13O,2.000000X1.200000*%
%ADD14R,3.175000X1.270000*%
%ADD15R,1.778000X1.778000*%
%ADD16R,1.143000X1.143000*%
%ADD17R,1.524000X1.778000*%
%ADD18R,3.599180X1.600200*%
%ADD19R,0.750000X0.800000*%
%ADD20C,2.540000*%
%ADD21C,3.810000*%
%ADD22R,0.700000X1.300000*%
%ADD23R,0.900000X0.500000*%
%ADD24R,0.500000X0.900000*%
%ADD25O,0.540000X1.900000*%
%ADD26O,1.900000X0.540000*%
%ADD27R,1.800000X0.800000*%
%ADD28R,1.727200X2.032000*%
%ADD29O,1.727200X2.032000*%
%ADD30C,7.000000*%
%ADD31C,0.600000*%
%ADD32R,1.600000X1.000000*%
%ADD33R,2.499360X1.800860*%
%ADD34R,4.000000X4.000000*%
%ADD35C,0.762000*%
%ADD36C,0.203200*%
%ADD37C,0.406400*%
%ADD38C,1.270000*%
%ADD39C,0.635000*%
%ADD40C,0.508000*%
G04 APERTURE END LIST*
D10*
D11*
X115570000Y-81280000D03*
X118110000Y-81280000D03*
X115570000Y-83820000D03*
X118110000Y-83820000D03*
X115570000Y-86360000D03*
X118110000Y-86360000D03*
X115570000Y-88900000D03*
X118110000Y-88900000D03*
X115570000Y-91440000D03*
X118110000Y-91440000D03*
X115570000Y-93980000D03*
X118110000Y-93980000D03*
X115570000Y-96520000D03*
X118110000Y-96520000D03*
X115570000Y-99060000D03*
D12*
X118110000Y-99060000D03*
D13*
X72261456Y-110744000D03*
X90041456Y-110744000D03*
X72261456Y-108204000D03*
X90041456Y-108204000D03*
X72261456Y-105664000D03*
X90041456Y-105664000D03*
X72261456Y-103124000D03*
X90041456Y-103124000D03*
X72261456Y-100584000D03*
X90041456Y-100584000D03*
X72261456Y-98044000D03*
X90041456Y-98044000D03*
X72261456Y-95504000D03*
X90041456Y-95504000D03*
X72261456Y-92964000D03*
X90041456Y-92964000D03*
X72261456Y-90424000D03*
X90041456Y-90424000D03*
X72261456Y-87884000D03*
X90041456Y-87884000D03*
X72261456Y-85344000D03*
X90041456Y-85344000D03*
X72261456Y-82804000D03*
X90041456Y-82804000D03*
D14*
X91946456Y-110744000D03*
X91946456Y-108204000D03*
X91946456Y-105664000D03*
X91946456Y-103124000D03*
X91946456Y-100584000D03*
X91946456Y-98044000D03*
X91946456Y-95504000D03*
X91946456Y-92964000D03*
X91946456Y-90424000D03*
X91946456Y-87884000D03*
X91946456Y-85344000D03*
X91946456Y-82804000D03*
X70356456Y-82804000D03*
X70356456Y-85344000D03*
X70356456Y-87884000D03*
X70356456Y-90424000D03*
X70356456Y-92964000D03*
X70356456Y-95504000D03*
X70356456Y-98044000D03*
X70356456Y-100584000D03*
X70356456Y-103124000D03*
X70356456Y-105664000D03*
X70356456Y-108204000D03*
X70356456Y-110744000D03*
D15*
X87501456Y-110744000D03*
X87501456Y-103124000D03*
D16*
X87501456Y-92964000D03*
X74801456Y-108204000D03*
X74801456Y-110744000D03*
D17*
X80135456Y-113538000D03*
X82167456Y-113538000D03*
D18*
X102659180Y-111760000D03*
X108160820Y-111760000D03*
X102659180Y-104140000D03*
X108160820Y-104140000D03*
D19*
X104140000Y-97040000D03*
X104140000Y-98540000D03*
X109220000Y-97040000D03*
X109220000Y-98540000D03*
X119380000Y-69330000D03*
X119380000Y-67830000D03*
X104140000Y-80760000D03*
X104140000Y-79260000D03*
X100330000Y-80760000D03*
X100330000Y-79260000D03*
D20*
X54610000Y-62230000D03*
D21*
X64770000Y-62230000D03*
D20*
X54610000Y-71120000D03*
D21*
X64770000Y-71120000D03*
D20*
X54610000Y-80010000D03*
D21*
X64770000Y-80010000D03*
D20*
X54610000Y-88900000D03*
D21*
X64770000Y-88900000D03*
D22*
X109540000Y-59055000D03*
X111440000Y-59055000D03*
D23*
X117475000Y-67830000D03*
X117475000Y-69330000D03*
D24*
X107430000Y-59055000D03*
X105930000Y-59055000D03*
D25*
X100140000Y-94600000D03*
X100940000Y-94600000D03*
X101740000Y-94600000D03*
X102540000Y-94600000D03*
X103340000Y-94600000D03*
X104140000Y-94600000D03*
X104940000Y-94600000D03*
X105740000Y-94600000D03*
X106540000Y-94600000D03*
X107340000Y-94600000D03*
X108140000Y-94600000D03*
D26*
X109840000Y-92900000D03*
X109840000Y-92100000D03*
X109840000Y-91300000D03*
X109840000Y-90500000D03*
X109840000Y-89700000D03*
X109840000Y-88900000D03*
X109840000Y-88100000D03*
X109840000Y-87300000D03*
X109840000Y-86500000D03*
X109840000Y-85700000D03*
X109840000Y-84900000D03*
D25*
X108140000Y-83200000D03*
X107340000Y-83200000D03*
X106540000Y-83200000D03*
X105740000Y-83200000D03*
X104940000Y-83200000D03*
X104140000Y-83200000D03*
X103340000Y-83200000D03*
X102540000Y-83200000D03*
X101740000Y-83200000D03*
X100940000Y-83200000D03*
X100140000Y-83200000D03*
D26*
X98440000Y-84900000D03*
X98440000Y-85700000D03*
X98440000Y-86500000D03*
X98440000Y-87300000D03*
X98440000Y-88100000D03*
X98440000Y-88900000D03*
X98440000Y-89700000D03*
X98440000Y-90500000D03*
X98440000Y-91300000D03*
X98440000Y-92100000D03*
X98440000Y-92900000D03*
D27*
X119415000Y-73025000D03*
X119415000Y-74295000D03*
X119415000Y-75565000D03*
X119415000Y-76835000D03*
D28*
X110490000Y-69850000D03*
D29*
X107950000Y-69850000D03*
X105410000Y-69850000D03*
X102870000Y-69850000D03*
X100330000Y-69850000D03*
X97790000Y-69850000D03*
D28*
X110490000Y-73660000D03*
D29*
X107950000Y-73660000D03*
X105410000Y-73660000D03*
X102870000Y-73660000D03*
X100330000Y-73660000D03*
X97790000Y-73660000D03*
D30*
X116840000Y-62230000D03*
D31*
X119465000Y-62230000D03*
X118696155Y-64086155D03*
X116840000Y-64855000D03*
X114983845Y-64086155D03*
X114215000Y-62230000D03*
X114983845Y-60373845D03*
X116840000Y-59605000D03*
X118696155Y-60373845D03*
D30*
X56880000Y-98810000D03*
D31*
X59505000Y-98810000D03*
X58736155Y-100666155D03*
X56880000Y-101435000D03*
X55023845Y-100666155D03*
X54255000Y-98810000D03*
X55023845Y-96953845D03*
X56880000Y-96185000D03*
X58736155Y-96953845D03*
D30*
X116840000Y-111760000D03*
D31*
X119465000Y-111760000D03*
X118696155Y-113616155D03*
X116840000Y-114385000D03*
X114983845Y-113616155D03*
X114215000Y-111760000D03*
X114983845Y-109903845D03*
X116840000Y-109135000D03*
X118696155Y-109903845D03*
D32*
X95885000Y-110720000D03*
X95885000Y-107720000D03*
D33*
X98518980Y-114300000D03*
X94521020Y-114300000D03*
D34*
X64620140Y-109220000D03*
X58620660Y-109220000D03*
X61620400Y-113919000D03*
D35*
X90297000Y-77978000D03*
X90297000Y-77216000D03*
X90297000Y-76454000D03*
X90297000Y-75692000D03*
X111252000Y-102997000D03*
X111125000Y-112776000D03*
X111125000Y-111760000D03*
X111125000Y-110617000D03*
X110490000Y-109728000D03*
X109347000Y-109728000D03*
X108204000Y-109728000D03*
X108204000Y-106045000D03*
X109347000Y-106045000D03*
X110490000Y-106045000D03*
X111252000Y-105283000D03*
X111252000Y-104140000D03*
X69977000Y-72771000D03*
X69977000Y-72009000D03*
X69977000Y-71247000D03*
X69977000Y-70485000D03*
X69977000Y-69723000D03*
X69977000Y-68961000D03*
X105918000Y-64389000D03*
X105918000Y-63627000D03*
X105918000Y-62865000D03*
X105918000Y-62103000D03*
X105918000Y-61341000D03*
X105918000Y-60579000D03*
X69977000Y-61849000D03*
X69977000Y-62611000D03*
X69977000Y-63373000D03*
X69977000Y-64135000D03*
X69977000Y-64897000D03*
X69977000Y-65659000D03*
X120650000Y-67945000D03*
X95885000Y-104775000D03*
X97155000Y-104775000D03*
X97155000Y-106045000D03*
X95885000Y-106045000D03*
X104648000Y-59055000D03*
X100584000Y-75946000D03*
X103301780Y-92820368D03*
X104978220Y-84654624D03*
X117881420Y-73025000D03*
X117856000Y-76835000D03*
X98425000Y-83947000D03*
X109855000Y-93853000D03*
X99187000Y-79248000D03*
X105283000Y-79248000D03*
X105283000Y-98552000D03*
X108077000Y-98552000D03*
X94497389Y-91159003D03*
X105765630Y-85979000D03*
X93726000Y-73660000D03*
X94488000Y-99060000D03*
X101092000Y-99060000D03*
X107315000Y-92837000D03*
X92964000Y-72898000D03*
X93726000Y-96774000D03*
X92202000Y-72136000D03*
X92964000Y-94234000D03*
X95590552Y-89748552D03*
X100965000Y-84836000D03*
X91440000Y-71374000D03*
X92202000Y-101854000D03*
X101600000Y-99949000D03*
X108204000Y-90932000D03*
X94361000Y-85344000D03*
X87630000Y-65405000D03*
X109728000Y-82931000D03*
X94742000Y-86614000D03*
D36*
X90041456Y-98044000D02*
X91946456Y-98044000D01*
X70356456Y-82804000D02*
X72261456Y-82804000D01*
D37*
X64620140Y-112880140D02*
X64620140Y-111760000D01*
D38*
X64620140Y-109220000D02*
X64620140Y-111760000D01*
D37*
X64620140Y-106172000D02*
X64620140Y-95608140D01*
D38*
X64620140Y-109220000D02*
X64620140Y-106172000D01*
D37*
X59944000Y-90932000D02*
X59944000Y-84836000D01*
X59944000Y-84836000D02*
X64770000Y-80010000D01*
X64620140Y-95608140D02*
X59944000Y-90932000D01*
X94521020Y-114300000D02*
X87376000Y-114300000D01*
X87376000Y-114300000D02*
X84074000Y-110998000D01*
X84074000Y-110998000D02*
X78486000Y-110998000D01*
X78486000Y-110998000D02*
X76454000Y-113030000D01*
X76454000Y-113030000D02*
X64770000Y-113030000D01*
X64770000Y-113030000D02*
X64620140Y-112880140D01*
X94521020Y-114300000D02*
X92864940Y-114300000D01*
X90041456Y-108204000D02*
X91946456Y-108204000D01*
X90297000Y-76200000D02*
X90297000Y-76962000D01*
X94742000Y-75438000D02*
X90297000Y-75438000D01*
X97790000Y-73660000D02*
X96520000Y-73660000D01*
X96520000Y-73660000D02*
X94742000Y-75438000D01*
X72261456Y-103124000D02*
X72261456Y-104265456D01*
X72261456Y-103124000D02*
X72261456Y-102117600D01*
X72261456Y-102117600D02*
X72263000Y-102116056D01*
X90041456Y-108204000D02*
X90041456Y-106935544D01*
X117881420Y-72237580D02*
X118618000Y-71501000D01*
X117881420Y-73025000D02*
X117881420Y-72237580D01*
X111252000Y-104140000D02*
X111252000Y-102997000D01*
X111125000Y-111760000D02*
X111125000Y-112776000D01*
X110490000Y-109728000D02*
X110490000Y-109982000D01*
X110490000Y-109982000D02*
X111125000Y-110617000D01*
X108204000Y-109728000D02*
X109347000Y-109728000D01*
X109347000Y-106045000D02*
X108331000Y-106045000D01*
X108331000Y-106045000D02*
X108204000Y-106172000D01*
X111252000Y-105283000D02*
X110490000Y-106045000D01*
X108160820Y-104140000D02*
X111252000Y-104140000D01*
X69977000Y-72009000D02*
X69977000Y-72771000D01*
X69977000Y-70485000D02*
X69977000Y-71247000D01*
X69977000Y-68961000D02*
X69977000Y-69723000D01*
X105791000Y-62865000D02*
X105791000Y-63500000D01*
X105791000Y-63500000D02*
X105918000Y-63627000D01*
X105918000Y-61341000D02*
X105918000Y-62103000D01*
X105930000Y-59055000D02*
X105930000Y-60567000D01*
X105930000Y-60567000D02*
X105918000Y-60579000D01*
X69977000Y-62611000D02*
X69977000Y-61849000D01*
X69977000Y-64135000D02*
X69977000Y-63373000D01*
X69977000Y-65659000D02*
X69977000Y-64897000D01*
X119380000Y-67830000D02*
X120535000Y-67830000D01*
X120535000Y-67830000D02*
X120650000Y-67945000D01*
D38*
X97155000Y-106045000D02*
X97155000Y-104775000D01*
X95885000Y-107720000D02*
X95885000Y-106045000D01*
X94361000Y-108204000D02*
X94845000Y-107720000D01*
X94845000Y-107720000D02*
X95885000Y-107720000D01*
X90041456Y-108204000D02*
X94361000Y-108204000D01*
D37*
X105930000Y-59055000D02*
X104648000Y-59055000D01*
X100330000Y-79260000D02*
X100330000Y-76200000D01*
X100330000Y-76200000D02*
X100584000Y-75946000D01*
X104940000Y-83200000D02*
X104940000Y-84616404D01*
X103340000Y-94600000D02*
X103340000Y-92858588D01*
X104940000Y-84616404D02*
X104978220Y-84654624D01*
X103340000Y-92858588D02*
X103301780Y-92820368D01*
X119415000Y-73025000D02*
X117881420Y-73025000D01*
X119415000Y-76835000D02*
X117856000Y-76835000D01*
X98440000Y-84900000D02*
X98440000Y-83962000D01*
X98440000Y-83962000D02*
X98425000Y-83947000D01*
X109840000Y-92900000D02*
X109840000Y-93838000D01*
X109840000Y-93838000D02*
X109855000Y-93853000D01*
X100330000Y-79260000D02*
X99199000Y-79260000D01*
X99199000Y-79260000D02*
X99187000Y-79248000D01*
X104140000Y-79260000D02*
X105271000Y-79260000D01*
X105271000Y-79260000D02*
X105283000Y-79248000D01*
X104933400Y-98552000D02*
X105283000Y-98552000D01*
X104140000Y-98540000D02*
X104921400Y-98540000D01*
X104921400Y-98540000D02*
X104933400Y-98552000D01*
X109220000Y-98540000D02*
X108089000Y-98540000D01*
X108089000Y-98540000D02*
X108077000Y-98552000D01*
X70356456Y-110744000D02*
X72261456Y-110744000D01*
D38*
X110109000Y-67183000D02*
X111760000Y-67183000D01*
X111760000Y-67183000D02*
X112903000Y-67183000D01*
D39*
X111440000Y-59055000D02*
X111440000Y-66863000D01*
X111440000Y-66863000D02*
X111760000Y-67183000D01*
D38*
X112903000Y-67183000D02*
X113550000Y-67830000D01*
X113550000Y-67830000D02*
X117475000Y-67830000D01*
X67513201Y-70866000D02*
X67513201Y-110058201D01*
X67513201Y-110058201D02*
X68199000Y-110744000D01*
X68199000Y-110744000D02*
X70356456Y-110744000D01*
D40*
X100613460Y-85725000D02*
X104140000Y-85725000D01*
X100126798Y-84671202D02*
X100126798Y-85238338D01*
X100140000Y-84658000D02*
X100126798Y-84671202D01*
X100140000Y-83200000D02*
X100140000Y-84658000D01*
X100126798Y-85238338D02*
X100613460Y-85725000D01*
X107412540Y-91694000D02*
X104140000Y-91694000D01*
X108153202Y-93128798D02*
X108153202Y-92434662D01*
X108153202Y-92434662D02*
X107412540Y-91694000D01*
X108140000Y-93142000D02*
X108153202Y-93128798D01*
X108140000Y-94600000D02*
X108140000Y-93142000D01*
D38*
X104140000Y-80760000D02*
X105785000Y-80760000D01*
X105785000Y-80760000D02*
X110490000Y-76055000D01*
X110490000Y-76055000D02*
X110490000Y-75946000D01*
X110490000Y-75946000D02*
X110490000Y-73660000D01*
X110109000Y-67183000D02*
X85344000Y-67183000D01*
X85344000Y-67183000D02*
X68326000Y-67183000D01*
X67513201Y-67995799D02*
X67513201Y-70866000D01*
X68326000Y-67183000D02*
X67513201Y-67995799D01*
X110490000Y-69850000D02*
X110490000Y-67564000D01*
X110490000Y-67564000D02*
X110109000Y-67183000D01*
X110490000Y-69850000D02*
X110490000Y-73660000D01*
D40*
X104140000Y-94600000D02*
X104140000Y-91694000D01*
X104140000Y-85725000D02*
X104140000Y-83200000D01*
D38*
X104140000Y-91694000D02*
X104140000Y-85725000D01*
D37*
X100140000Y-83200000D02*
X100140000Y-80950000D01*
X100140000Y-80950000D02*
X100330000Y-80760000D01*
X104140000Y-83200000D02*
X104140000Y-80760000D01*
X104140000Y-97040000D02*
X104140000Y-94600000D01*
X108140000Y-94600000D02*
X108140000Y-95885000D01*
X109220000Y-97040000D02*
X109220000Y-97015000D01*
X109220000Y-97015000D02*
X108140000Y-95935000D01*
X108140000Y-95935000D02*
X108140000Y-95885000D01*
D36*
X90041456Y-87884000D02*
X91946456Y-87884000D01*
X101740000Y-94600000D02*
X101740000Y-98820012D01*
X101740000Y-98820012D02*
X103884988Y-100965000D01*
X103884988Y-100965000D02*
X106807000Y-100965000D01*
X106807000Y-100965000D02*
X107442000Y-101600000D01*
X107442000Y-101600000D02*
X115379500Y-101600000D01*
X115379500Y-101600000D02*
X117919500Y-99060000D01*
X117919500Y-99060000D02*
X118110000Y-99060000D01*
X113030000Y-82550000D02*
X116649500Y-82550000D01*
X116649500Y-82550000D02*
X117919500Y-81280000D01*
X117919500Y-81280000D02*
X118110000Y-81280000D01*
X111887000Y-83693000D02*
X113030000Y-82550000D01*
X110871000Y-83693000D02*
X111887000Y-83693000D01*
X70356456Y-87884000D02*
X72261456Y-87884000D01*
X94116390Y-91540002D02*
X94497389Y-91159003D01*
X76581000Y-91000344D02*
X77120658Y-91540002D01*
X77120658Y-91540002D02*
X94116390Y-91540002D01*
X76581000Y-91000344D02*
X76893656Y-91313000D01*
X73464656Y-87884000D02*
X76581000Y-91000344D01*
X72261456Y-87884000D02*
X73464656Y-87884000D01*
X107188000Y-85979000D02*
X105765630Y-85979000D01*
X109474000Y-83693000D02*
X107188000Y-85979000D01*
X109554096Y-83693000D02*
X110871000Y-83693000D01*
X110871000Y-83693000D02*
X109474000Y-83693000D01*
X111506000Y-101193589D02*
X113245911Y-101193589D01*
X113245911Y-101193589D02*
X115379500Y-99060000D01*
X115379500Y-99060000D02*
X115570000Y-99060000D01*
X111506000Y-101193589D02*
X107730839Y-101193589D01*
X112769143Y-101193589D02*
X111506000Y-101193589D01*
X107730839Y-101193589D02*
X106994250Y-100457000D01*
X106994250Y-100457000D02*
X104013000Y-100457000D01*
X104013000Y-100457000D02*
X102540000Y-98984000D01*
X102540000Y-98984000D02*
X102540000Y-94600000D01*
X114414300Y-83820000D02*
X115570000Y-83820000D01*
X113898450Y-83820000D02*
X114414300Y-83820000D01*
X111218450Y-86500000D02*
X113898450Y-83820000D01*
X109840000Y-86500000D02*
X111218450Y-86500000D01*
X111760000Y-100787178D02*
X107899178Y-100787178D01*
X113792000Y-98044000D02*
X113792000Y-99060000D01*
X111760000Y-100787178D02*
X112064822Y-100787178D01*
X112064822Y-100787178D02*
X113792000Y-99060000D01*
X114046000Y-97790000D02*
X113792000Y-98044000D01*
X116649500Y-97790000D02*
X114046000Y-97790000D01*
X118110000Y-96520000D02*
X117919500Y-96520000D01*
X117919500Y-96520000D02*
X116649500Y-97790000D01*
X107899178Y-100787178D02*
X106172000Y-99060000D01*
X104940000Y-95753200D02*
X104940000Y-94600000D01*
X106172000Y-99060000D02*
X106172000Y-97663000D01*
X104940000Y-96431000D02*
X104940000Y-95753200D01*
X106172000Y-97663000D02*
X104940000Y-96431000D01*
X113203200Y-85090000D02*
X116649500Y-85090000D01*
X116649500Y-85090000D02*
X117919500Y-83820000D01*
X117919500Y-83820000D02*
X118110000Y-83820000D01*
X110993200Y-87300000D02*
X113203200Y-85090000D01*
X109840000Y-87300000D02*
X110993200Y-87300000D01*
X109840000Y-88100000D02*
X111252000Y-88100000D01*
X113284000Y-86360000D02*
X111544000Y-88100000D01*
X111544000Y-88100000D02*
X111252000Y-88100000D01*
X115570000Y-86360000D02*
X113284000Y-86360000D01*
X110993200Y-88100000D02*
X109840000Y-88100000D01*
X105740000Y-94600000D02*
X105740000Y-95773750D01*
X105740000Y-95773750D02*
X106680000Y-96713750D01*
X106680000Y-96713750D02*
X106680000Y-98806000D01*
X108254767Y-100380767D02*
X111709233Y-100380767D01*
X106680000Y-98806000D02*
X108254767Y-100380767D01*
X116649500Y-95250000D02*
X117919500Y-93980000D01*
X111709233Y-100380767D02*
X113030000Y-99060000D01*
X114046000Y-95250000D02*
X116649500Y-95250000D01*
X113030000Y-99060000D02*
X113030000Y-96266000D01*
X113030000Y-96266000D02*
X114046000Y-95250000D01*
X117919500Y-93980000D02*
X118110000Y-93980000D01*
X113063200Y-87630000D02*
X116649500Y-87630000D01*
X116649500Y-87630000D02*
X117919500Y-86360000D01*
X117919500Y-86360000D02*
X118110000Y-86360000D01*
X110993200Y-89700000D02*
X113063200Y-87630000D01*
X109840000Y-89700000D02*
X110993200Y-89700000D01*
X106540000Y-94600000D02*
X106540000Y-95999000D01*
X107188000Y-96647000D02*
X107188000Y-98679000D01*
X106540000Y-95999000D02*
X107188000Y-96647000D01*
X107188000Y-98679000D02*
X108483356Y-99974356D01*
X108483356Y-99974356D02*
X111353644Y-99974356D01*
X111353644Y-99974356D02*
X112522000Y-98806000D01*
X112522000Y-98806000D02*
X112522000Y-95250000D01*
X112522000Y-95250000D02*
X113792000Y-93980000D01*
X113792000Y-93980000D02*
X115570000Y-93980000D01*
X112593200Y-88900000D02*
X115570000Y-88900000D01*
X110993200Y-90500000D02*
X112593200Y-88900000D01*
X110993200Y-90500000D02*
X109840000Y-90500000D01*
X109840000Y-92100000D02*
X112420000Y-92100000D01*
X112420000Y-92100000D02*
X113030000Y-92710000D01*
X113030000Y-92710000D02*
X116649500Y-92710000D01*
X117919500Y-91440000D02*
X118110000Y-91440000D01*
X116649500Y-92710000D02*
X117919500Y-91440000D01*
X112123200Y-90170000D02*
X116649500Y-90170000D01*
X116649500Y-90170000D02*
X117919500Y-88900000D01*
X117919500Y-88900000D02*
X118110000Y-88900000D01*
X110993200Y-91300000D02*
X112123200Y-90170000D01*
X109840000Y-91300000D02*
X110993200Y-91300000D01*
X70356456Y-98044000D02*
X72261456Y-98044000D01*
X93726000Y-73660000D02*
X95123000Y-72263000D01*
X95123000Y-72263000D02*
X105689400Y-72263000D01*
X105689400Y-72263000D02*
X107950000Y-70002400D01*
X107950000Y-70002400D02*
X107950000Y-69850000D01*
X80899000Y-99314000D02*
X94234000Y-99314000D01*
X74734656Y-99314000D02*
X80899000Y-99314000D01*
X72261456Y-98044000D02*
X73464656Y-98044000D01*
X73464656Y-98044000D02*
X74734656Y-99314000D01*
X94234000Y-99314000D02*
X94488000Y-99060000D01*
X94488000Y-99060000D02*
X101092000Y-99060000D01*
X107340000Y-94600000D02*
X107340000Y-92862000D01*
X107340000Y-92862000D02*
X107315000Y-92837000D01*
X72261456Y-95504000D02*
X70356456Y-95504000D01*
X92964000Y-72898000D02*
X94107000Y-71755000D01*
X94107000Y-71755000D02*
X103657400Y-71755000D01*
X93726000Y-96774000D02*
X93218000Y-96774000D01*
X97492800Y-96774000D02*
X93726000Y-96774000D01*
X93218000Y-96774000D02*
X87376000Y-96774000D01*
X103657400Y-71755000D02*
X105410000Y-70002400D01*
X105410000Y-70002400D02*
X105410000Y-69850000D01*
X87376000Y-96774000D02*
X80137000Y-96774000D01*
X80137000Y-96774000D02*
X75438000Y-96774000D01*
X75438000Y-96774000D02*
X74168000Y-95504000D01*
X74168000Y-95504000D02*
X72261456Y-95504000D01*
X87376000Y-96774000D02*
X86233000Y-96774000D01*
X99666800Y-94600000D02*
X97492800Y-96774000D01*
X99666800Y-94600000D02*
X100140000Y-94600000D01*
X70356456Y-92964000D02*
X72261456Y-92964000D01*
X92202000Y-72136000D02*
X93116411Y-71221589D01*
X93116411Y-71221589D02*
X101650811Y-71221589D01*
X92964000Y-94234000D02*
X92202000Y-94234000D01*
X94107000Y-94234000D02*
X92964000Y-94234000D01*
X92202000Y-94234000D02*
X84455000Y-94234000D01*
X101650811Y-71221589D02*
X102870000Y-70002400D01*
X102870000Y-70002400D02*
X102870000Y-69850000D01*
X84455000Y-94234000D02*
X79629000Y-94234000D01*
X79629000Y-94234000D02*
X75819000Y-94234000D01*
X95783411Y-91084412D02*
X95783411Y-91821000D01*
X95590552Y-89748552D02*
X95590552Y-90287367D01*
X95783411Y-91821000D02*
X95783411Y-92557589D01*
X95590552Y-90287367D02*
X95783411Y-90480226D01*
X95783411Y-90480226D02*
X95783411Y-91821000D01*
X95783411Y-92557589D02*
X94107000Y-94234000D01*
X75819000Y-94234000D02*
X74549000Y-92964000D01*
X74549000Y-92964000D02*
X72261456Y-92964000D01*
X84455000Y-94234000D02*
X84328000Y-94234000D01*
X100940000Y-83200000D02*
X100940000Y-84811000D01*
X100940000Y-84811000D02*
X100965000Y-84836000D01*
X70356456Y-100584000D02*
X72261456Y-100584000D01*
X99161590Y-68529190D02*
X96266000Y-68529190D01*
X96266000Y-68529190D02*
X96189810Y-68529190D01*
X91440000Y-71374000D02*
X94284810Y-68529190D01*
X94284810Y-68529190D02*
X96266000Y-68529190D01*
X92202000Y-101854000D02*
X91821000Y-101854000D01*
X99156185Y-101854000D02*
X92202000Y-101854000D01*
X91821000Y-101854000D02*
X89027000Y-101854000D01*
X87757000Y-100584000D02*
X81661000Y-100584000D01*
X81661000Y-100584000D02*
X72261456Y-100584000D01*
X89027000Y-101854000D02*
X87757000Y-100584000D01*
X101600000Y-99949000D02*
X101061185Y-99949000D01*
X101061185Y-99949000D02*
X99156185Y-101854000D01*
X100330000Y-69850000D02*
X100330000Y-69697600D01*
X100330000Y-69697600D02*
X99161590Y-68529190D01*
X105079810Y-85548202D02*
X105079810Y-88346625D01*
X105334814Y-85293198D02*
X105079810Y-85548202D01*
X107665185Y-90932000D02*
X108204000Y-90932000D01*
X105079810Y-88346625D02*
X107665185Y-90932000D01*
X107200002Y-85293198D02*
X105334814Y-85293198D01*
X108140000Y-84353200D02*
X107200002Y-85293198D01*
X108140000Y-83200000D02*
X108140000Y-84353200D01*
X90041456Y-85344000D02*
X91946456Y-85344000D01*
X91946456Y-85344000D02*
X93737156Y-85344000D01*
X93737156Y-85344000D02*
X94361000Y-85344000D01*
X108585000Y-65405000D02*
X87630000Y-65405000D01*
X109540000Y-59055000D02*
X109540000Y-63881000D01*
X108585000Y-65405000D02*
X109540000Y-64450000D01*
X109540000Y-64450000D02*
X109540000Y-63881000D01*
X109540000Y-59055000D02*
X107430000Y-59055000D01*
X70356456Y-105664000D02*
X72261456Y-105664000D01*
X90041456Y-105664000D02*
X91946456Y-105664000D01*
X90041456Y-103124000D02*
X91946456Y-103124000D01*
X91660684Y-103124000D02*
X91787693Y-103251009D01*
X91787693Y-103251009D02*
X91946456Y-103251009D01*
X90041456Y-82804000D02*
X91946456Y-82804000D01*
X98440000Y-86500000D02*
X96594956Y-86500000D01*
X96594956Y-86500000D02*
X92898956Y-82804000D01*
X92898956Y-82804000D02*
X91946456Y-82804000D01*
X91946456Y-100584000D02*
X90041456Y-100584000D01*
X90041456Y-95504000D02*
X91946456Y-95504000D01*
X96651800Y-93213200D02*
X94361000Y-95504000D01*
X94361000Y-95504000D02*
X91946456Y-95504000D01*
X96651800Y-89535000D02*
X96651800Y-93213200D01*
X98440000Y-88900000D02*
X97286800Y-88900000D01*
X97286800Y-88900000D02*
X96651800Y-89535000D01*
X90041456Y-95071338D02*
X91946456Y-95071338D01*
X90041456Y-92964000D02*
X91946456Y-92964000D01*
X98440000Y-88100000D02*
X95923000Y-88100000D01*
X95923000Y-88100000D02*
X94869000Y-89154000D01*
X94869000Y-89154000D02*
X94869000Y-90551000D01*
X95184142Y-90866142D02*
X95184142Y-91517014D01*
X94869000Y-90551000D02*
X95184142Y-90866142D01*
X95184142Y-91517014D02*
X93737156Y-92964000D01*
X93737156Y-92964000D02*
X91946456Y-92964000D01*
X90041456Y-90424000D02*
X91946456Y-90424000D01*
X94361000Y-88519000D02*
X95580000Y-87300000D01*
X95580000Y-87300000D02*
X98440000Y-87300000D01*
X94361000Y-89800156D02*
X94361000Y-88519000D01*
X91946456Y-90424000D02*
X93737156Y-90424000D01*
X93737156Y-90424000D02*
X94361000Y-89800156D01*
X70356456Y-85344000D02*
X72261456Y-85344000D01*
X109728000Y-79248000D02*
X109728000Y-82931000D01*
X111125000Y-77851000D02*
X109728000Y-79248000D01*
X72261456Y-85344000D02*
X72261456Y-86147200D01*
X72261456Y-86147200D02*
X72728256Y-86614000D01*
X72728256Y-86614000D02*
X74930000Y-86614000D01*
X74930000Y-86614000D02*
X94742000Y-86614000D01*
X115951000Y-75565000D02*
X113665000Y-77851000D01*
X113665000Y-77851000D02*
X111125000Y-77851000D01*
X119415000Y-75565000D02*
X115951000Y-75565000D01*
X90041456Y-110744000D02*
X91946456Y-110744000D01*
D37*
X117475000Y-69330000D02*
X119380000Y-69330000D01*
X119415000Y-74295000D02*
X117856000Y-74295000D01*
X117856000Y-74295000D02*
X117094000Y-73533000D01*
X117094000Y-73533000D02*
X117094000Y-71628000D01*
X117094000Y-71628000D02*
X117475000Y-71247000D01*
X117475000Y-71247000D02*
X117475000Y-69330000D01*
D36*
X70356456Y-90424000D02*
X72261456Y-90424000D01*
X70356456Y-108204000D02*
X72261456Y-108204000D01*
X103340000Y-83200000D02*
X103340000Y-82046800D01*
X103340000Y-82046800D02*
X103200190Y-81906990D01*
X103200190Y-81906990D02*
X103200190Y-77012810D01*
X103200190Y-77012810D02*
X104267000Y-75946000D01*
X104267000Y-75946000D02*
X105816400Y-75946000D01*
X105816400Y-75946000D02*
X107950000Y-73812400D01*
X107950000Y-73812400D02*
X107950000Y-73660000D01*
X102540000Y-83200000D02*
X102540000Y-76682400D01*
X102540000Y-76682400D02*
X105410000Y-73812400D01*
X105410000Y-73812400D02*
X105410000Y-73660000D01*
X101727000Y-76022200D02*
X101740000Y-76035200D01*
X101740000Y-76035200D02*
X101740000Y-83200000D01*
X102870000Y-73660000D02*
X102870000Y-74879200D01*
X102870000Y-74879200D02*
X101727000Y-76022200D01*
X96139000Y-84552200D02*
X96139000Y-78003400D01*
X96139000Y-78003400D02*
X100330000Y-73812400D01*
X100330000Y-73812400D02*
X100330000Y-73660000D01*
X98440000Y-85700000D02*
X97286800Y-85700000D01*
X97286800Y-85700000D02*
X96139000Y-84552200D01*
D10*
G36*
X86161015Y-109390910D02*
X86016025Y-109603110D01*
X85965016Y-109855000D01*
X85965016Y-111633000D01*
X86009294Y-111868317D01*
X86148366Y-112084441D01*
X86360566Y-112229431D01*
X86612456Y-112280440D01*
X88390456Y-112280440D01*
X88625773Y-112236162D01*
X88841897Y-112097090D01*
X88986887Y-111884890D01*
X89004737Y-111796743D01*
X89136810Y-111884991D01*
X89609424Y-111979000D01*
X90124690Y-111979000D01*
X90358956Y-112026440D01*
X90551000Y-112026440D01*
X90551000Y-112395000D01*
X90594427Y-112625795D01*
X90730827Y-112837767D01*
X90938949Y-112979971D01*
X91186000Y-113030000D01*
X92742884Y-113030000D01*
X92733013Y-113039871D01*
X92636340Y-113273260D01*
X92636340Y-113691035D01*
X92795090Y-113849785D01*
X94013020Y-113849785D01*
X94013020Y-113772000D01*
X95029020Y-113772000D01*
X95029020Y-113849785D01*
X95049020Y-113849785D01*
X95049020Y-114750215D01*
X95029020Y-114750215D01*
X95029020Y-115676680D01*
X95187770Y-115835430D01*
X95885000Y-115835430D01*
X95885000Y-116078000D01*
X63859583Y-116078000D01*
X63966891Y-115920950D01*
X64017900Y-115669060D01*
X64017900Y-112649000D01*
X78726016Y-112649000D01*
X78726016Y-114427000D01*
X78770294Y-114662317D01*
X78909366Y-114878441D01*
X79121566Y-115023431D01*
X79373456Y-115074440D01*
X80897456Y-115074440D01*
X81132773Y-115030162D01*
X81148555Y-115020007D01*
X81153566Y-115023431D01*
X81405456Y-115074440D01*
X82929456Y-115074440D01*
X83164773Y-115030162D01*
X83353118Y-114908965D01*
X92636340Y-114908965D01*
X92636340Y-115326740D01*
X92733013Y-115560129D01*
X92911642Y-115738757D01*
X93145031Y-115835430D01*
X93854270Y-115835430D01*
X94013020Y-115676680D01*
X94013020Y-114750215D01*
X92795090Y-114750215D01*
X92636340Y-114908965D01*
X83353118Y-114908965D01*
X83380897Y-114891090D01*
X83525887Y-114678890D01*
X83576896Y-114427000D01*
X83576896Y-112649000D01*
X83532618Y-112413683D01*
X83393546Y-112197559D01*
X83181346Y-112052569D01*
X82929456Y-112001560D01*
X81405456Y-112001560D01*
X81170139Y-112045838D01*
X81154357Y-112055993D01*
X81149346Y-112052569D01*
X80897456Y-112001560D01*
X79373456Y-112001560D01*
X79138139Y-112045838D01*
X78922015Y-112184910D01*
X78777025Y-112397110D01*
X78726016Y-112649000D01*
X64017900Y-112649000D01*
X64017900Y-112168940D01*
X63973622Y-111933623D01*
X63834550Y-111717499D01*
X63669990Y-111605060D01*
X63953390Y-111605060D01*
X64112140Y-111446310D01*
X64112140Y-111385422D01*
X64274539Y-111452690D01*
X64468942Y-111491359D01*
X64766258Y-111491359D01*
X64960662Y-111452689D01*
X64960663Y-111452689D01*
X65074441Y-111405560D01*
X65128140Y-111383318D01*
X65128140Y-111446310D01*
X65286890Y-111605060D01*
X66496509Y-111605060D01*
X66729898Y-111508387D01*
X66908527Y-111329759D01*
X66932011Y-111273063D01*
X67300972Y-111642023D01*
X67300974Y-111642026D01*
X67664598Y-111884991D01*
X67712992Y-111917327D01*
X68199000Y-112014000D01*
X68707525Y-112014000D01*
X68768956Y-112026440D01*
X71943956Y-112026440D01*
X72179273Y-111982162D01*
X72184187Y-111979000D01*
X72693488Y-111979000D01*
X73156002Y-111887000D01*
X73941578Y-111887000D01*
X73978066Y-111911931D01*
X74229956Y-111962940D01*
X75372956Y-111962940D01*
X75608273Y-111918662D01*
X75824397Y-111779590D01*
X75969387Y-111567390D01*
X76020396Y-111315500D01*
X76020396Y-110172500D01*
X75976118Y-109937183D01*
X75837046Y-109721059D01*
X75692000Y-109621953D01*
X75692000Y-109347000D01*
X86229253Y-109347000D01*
X86161015Y-109390910D01*
X86161015Y-109390910D01*
G37*
X86161015Y-109390910D02*
X86016025Y-109603110D01*
X85965016Y-109855000D01*
X85965016Y-111633000D01*
X86009294Y-111868317D01*
X86148366Y-112084441D01*
X86360566Y-112229431D01*
X86612456Y-112280440D01*
X88390456Y-112280440D01*
X88625773Y-112236162D01*
X88841897Y-112097090D01*
X88986887Y-111884890D01*
X89004737Y-111796743D01*
X89136810Y-111884991D01*
X89609424Y-111979000D01*
X90124690Y-111979000D01*
X90358956Y-112026440D01*
X90551000Y-112026440D01*
X90551000Y-112395000D01*
X90594427Y-112625795D01*
X90730827Y-112837767D01*
X90938949Y-112979971D01*
X91186000Y-113030000D01*
X92742884Y-113030000D01*
X92733013Y-113039871D01*
X92636340Y-113273260D01*
X92636340Y-113691035D01*
X92795090Y-113849785D01*
X94013020Y-113849785D01*
X94013020Y-113772000D01*
X95029020Y-113772000D01*
X95029020Y-113849785D01*
X95049020Y-113849785D01*
X95049020Y-114750215D01*
X95029020Y-114750215D01*
X95029020Y-115676680D01*
X95187770Y-115835430D01*
X95885000Y-115835430D01*
X95885000Y-116078000D01*
X63859583Y-116078000D01*
X63966891Y-115920950D01*
X64017900Y-115669060D01*
X64017900Y-112649000D01*
X78726016Y-112649000D01*
X78726016Y-114427000D01*
X78770294Y-114662317D01*
X78909366Y-114878441D01*
X79121566Y-115023431D01*
X79373456Y-115074440D01*
X80897456Y-115074440D01*
X81132773Y-115030162D01*
X81148555Y-115020007D01*
X81153566Y-115023431D01*
X81405456Y-115074440D01*
X82929456Y-115074440D01*
X83164773Y-115030162D01*
X83353118Y-114908965D01*
X92636340Y-114908965D01*
X92636340Y-115326740D01*
X92733013Y-115560129D01*
X92911642Y-115738757D01*
X93145031Y-115835430D01*
X93854270Y-115835430D01*
X94013020Y-115676680D01*
X94013020Y-114750215D01*
X92795090Y-114750215D01*
X92636340Y-114908965D01*
X83353118Y-114908965D01*
X83380897Y-114891090D01*
X83525887Y-114678890D01*
X83576896Y-114427000D01*
X83576896Y-112649000D01*
X83532618Y-112413683D01*
X83393546Y-112197559D01*
X83181346Y-112052569D01*
X82929456Y-112001560D01*
X81405456Y-112001560D01*
X81170139Y-112045838D01*
X81154357Y-112055993D01*
X81149346Y-112052569D01*
X80897456Y-112001560D01*
X79373456Y-112001560D01*
X79138139Y-112045838D01*
X78922015Y-112184910D01*
X78777025Y-112397110D01*
X78726016Y-112649000D01*
X64017900Y-112649000D01*
X64017900Y-112168940D01*
X63973622Y-111933623D01*
X63834550Y-111717499D01*
X63669990Y-111605060D01*
X63953390Y-111605060D01*
X64112140Y-111446310D01*
X64112140Y-111385422D01*
X64274539Y-111452690D01*
X64468942Y-111491359D01*
X64766258Y-111491359D01*
X64960662Y-111452689D01*
X64960663Y-111452689D01*
X65074441Y-111405560D01*
X65128140Y-111383318D01*
X65128140Y-111446310D01*
X65286890Y-111605060D01*
X66496509Y-111605060D01*
X66729898Y-111508387D01*
X66908527Y-111329759D01*
X66932011Y-111273063D01*
X67300972Y-111642023D01*
X67300974Y-111642026D01*
X67664598Y-111884991D01*
X67712992Y-111917327D01*
X68199000Y-112014000D01*
X68707525Y-112014000D01*
X68768956Y-112026440D01*
X71943956Y-112026440D01*
X72179273Y-111982162D01*
X72184187Y-111979000D01*
X72693488Y-111979000D01*
X73156002Y-111887000D01*
X73941578Y-111887000D01*
X73978066Y-111911931D01*
X74229956Y-111962940D01*
X75372956Y-111962940D01*
X75608273Y-111918662D01*
X75824397Y-111779590D01*
X75969387Y-111567390D01*
X76020396Y-111315500D01*
X76020396Y-110172500D01*
X75976118Y-109937183D01*
X75837046Y-109721059D01*
X75692000Y-109621953D01*
X75692000Y-109347000D01*
X86229253Y-109347000D01*
X86161015Y-109390910D01*
G36*
X68453000Y-65913000D02*
X68326000Y-65913000D01*
X67839992Y-66009673D01*
X67427974Y-66284974D01*
X67427972Y-66284977D01*
X66615175Y-67097773D01*
X66339874Y-67509791D01*
X66243200Y-67995799D01*
X66243201Y-67995804D01*
X66243201Y-69000533D01*
X66210673Y-68967948D01*
X65277454Y-68580441D01*
X64266979Y-68579560D01*
X63333085Y-68965437D01*
X62617948Y-69679327D01*
X62230441Y-70612546D01*
X62229560Y-71623021D01*
X62615437Y-72556915D01*
X63329327Y-73272052D01*
X64262546Y-73659559D01*
X65273021Y-73660440D01*
X66206915Y-73274563D01*
X66243201Y-73238340D01*
X66243201Y-77824244D01*
X66240267Y-77821310D01*
X66091823Y-77969754D01*
X65851670Y-77656948D01*
X64868859Y-77422126D01*
X63870997Y-77581285D01*
X63688330Y-77656948D01*
X63448176Y-77969755D01*
X64770000Y-79291580D01*
X64784142Y-79277437D01*
X65502563Y-79995858D01*
X65488420Y-80010000D01*
X65502563Y-80024142D01*
X64784142Y-80742563D01*
X64770000Y-80728420D01*
X63448176Y-82050245D01*
X63688330Y-82363052D01*
X64671141Y-82597874D01*
X65669003Y-82438715D01*
X65851670Y-82363052D01*
X66091823Y-82050246D01*
X66240267Y-82198690D01*
X66243201Y-82195756D01*
X66243201Y-86780533D01*
X66210673Y-86747948D01*
X65277454Y-86360441D01*
X64266979Y-86359560D01*
X63333085Y-86745437D01*
X62617948Y-87459327D01*
X62230441Y-88392546D01*
X62229560Y-89403021D01*
X62615437Y-90336915D01*
X63329327Y-91052052D01*
X64262546Y-91439559D01*
X65273021Y-91440440D01*
X66206915Y-91054563D01*
X66243201Y-91018340D01*
X66243201Y-106834940D01*
X65286890Y-106834940D01*
X65128140Y-106993690D01*
X65128140Y-107056682D01*
X65035957Y-107018499D01*
X64960663Y-106987311D01*
X64960662Y-106987311D01*
X64766258Y-106948641D01*
X64617600Y-106948641D01*
X64274539Y-106987310D01*
X64112140Y-107054578D01*
X64112140Y-106993690D01*
X63953390Y-106834940D01*
X62743771Y-106834940D01*
X62510382Y-106931613D01*
X62331753Y-107110241D01*
X62235080Y-107343630D01*
X62235080Y-108553250D01*
X62393830Y-108712000D01*
X63347600Y-108712000D01*
X63347600Y-109728000D01*
X62393830Y-109728000D01*
X62235080Y-109886750D01*
X62235080Y-111096370D01*
X62331753Y-111329759D01*
X62510382Y-111508387D01*
X62542040Y-111521500D01*
X60686415Y-111521500D01*
X60822161Y-111434150D01*
X60967151Y-111221950D01*
X61018160Y-110970060D01*
X61018160Y-107469940D01*
X60973882Y-107234623D01*
X60834810Y-107018499D01*
X60622610Y-106873509D01*
X60370720Y-106822500D01*
X56870600Y-106822500D01*
X56635283Y-106866778D01*
X56419159Y-107005850D01*
X56274169Y-107218050D01*
X56223160Y-107469940D01*
X56223160Y-110970060D01*
X56267438Y-111205377D01*
X56406510Y-111421501D01*
X56618710Y-111566491D01*
X56870600Y-111617500D01*
X59554645Y-111617500D01*
X59418899Y-111704850D01*
X59273909Y-111917050D01*
X59222900Y-112168940D01*
X59222900Y-115669060D01*
X59267178Y-115904377D01*
X59378901Y-116078000D01*
X51562000Y-116078000D01*
X51562000Y-99628894D01*
X52744284Y-99628894D01*
X53372474Y-101149229D01*
X54534653Y-102313438D01*
X56053889Y-102944280D01*
X57698894Y-102945716D01*
X59219229Y-102317526D01*
X60383438Y-101155347D01*
X61014280Y-99636111D01*
X61015716Y-97991106D01*
X60387526Y-96470771D01*
X59225347Y-95306562D01*
X57706111Y-94675720D01*
X56061106Y-94674284D01*
X54540771Y-95302474D01*
X53376562Y-96464653D01*
X52745720Y-97983889D01*
X52744284Y-99628894D01*
X51562000Y-99628894D01*
X51562000Y-89277265D01*
X52704670Y-89277265D01*
X52994078Y-89977686D01*
X53529495Y-90514039D01*
X54229410Y-90804668D01*
X54987265Y-90805330D01*
X55687686Y-90515922D01*
X56224039Y-89980505D01*
X56514668Y-89280590D01*
X56515330Y-88522735D01*
X56225922Y-87822314D01*
X55690505Y-87285961D01*
X54990590Y-86995332D01*
X54232735Y-86994670D01*
X53532314Y-87284078D01*
X52995961Y-87819495D01*
X52705332Y-88519410D01*
X52704670Y-89277265D01*
X51562000Y-89277265D01*
X51562000Y-81578148D01*
X53760273Y-81578148D01*
X53919053Y-81825268D01*
X54666321Y-81951503D01*
X55300947Y-81825268D01*
X55459727Y-81578148D01*
X54610000Y-80728420D01*
X53760273Y-81578148D01*
X51562000Y-81578148D01*
X51562000Y-80066321D01*
X52668497Y-80066321D01*
X52794732Y-80700947D01*
X53041852Y-80859727D01*
X53891580Y-80010000D01*
X55328420Y-80010000D01*
X56178148Y-80859727D01*
X56425268Y-80700947D01*
X56551503Y-79953679D01*
X56543042Y-79911141D01*
X62182126Y-79911141D01*
X62341285Y-80909003D01*
X62416948Y-81091670D01*
X62729755Y-81331824D01*
X64051580Y-80010000D01*
X62729755Y-78688176D01*
X62416948Y-78928330D01*
X62182126Y-79911141D01*
X56543042Y-79911141D01*
X56425268Y-79319053D01*
X56178148Y-79160273D01*
X55328420Y-80010000D01*
X53891580Y-80010000D01*
X53041852Y-79160273D01*
X52794732Y-79319053D01*
X52668497Y-80066321D01*
X51562000Y-80066321D01*
X51562000Y-78441852D01*
X53760273Y-78441852D01*
X54610000Y-79291580D01*
X55459727Y-78441852D01*
X55300947Y-78194732D01*
X54553679Y-78068497D01*
X53919053Y-78194732D01*
X53760273Y-78441852D01*
X51562000Y-78441852D01*
X51562000Y-71497265D01*
X52704670Y-71497265D01*
X52994078Y-72197686D01*
X53529495Y-72734039D01*
X54229410Y-73024668D01*
X54987265Y-73025330D01*
X55687686Y-72735922D01*
X56224039Y-72200505D01*
X56514668Y-71500590D01*
X56515330Y-70742735D01*
X56225922Y-70042314D01*
X55690505Y-69505961D01*
X54990590Y-69215332D01*
X54232735Y-69214670D01*
X53532314Y-69504078D01*
X52995961Y-70039495D01*
X52705332Y-70739410D01*
X52704670Y-71497265D01*
X51562000Y-71497265D01*
X51562000Y-64270245D01*
X63448176Y-64270245D01*
X63688330Y-64583052D01*
X64671141Y-64817874D01*
X65669003Y-64658715D01*
X65851670Y-64583052D01*
X66091824Y-64270245D01*
X64770000Y-62948420D01*
X63448176Y-64270245D01*
X51562000Y-64270245D01*
X51562000Y-63798148D01*
X53760273Y-63798148D01*
X53919053Y-64045268D01*
X54666321Y-64171503D01*
X55300947Y-64045268D01*
X55459727Y-63798148D01*
X54610000Y-62948420D01*
X53760273Y-63798148D01*
X51562000Y-63798148D01*
X51562000Y-62286321D01*
X52668497Y-62286321D01*
X52794732Y-62920947D01*
X53041852Y-63079727D01*
X53891580Y-62230000D01*
X55328420Y-62230000D01*
X56178148Y-63079727D01*
X56425268Y-62920947D01*
X56551503Y-62173679D01*
X56543042Y-62131141D01*
X62182126Y-62131141D01*
X62341285Y-63129003D01*
X62416948Y-63311670D01*
X62729755Y-63551824D01*
X64051580Y-62230000D01*
X65488420Y-62230000D01*
X66810245Y-63551824D01*
X67123052Y-63311670D01*
X67357874Y-62328859D01*
X67198715Y-61330997D01*
X67123052Y-61148330D01*
X66810245Y-60908176D01*
X65488420Y-62230000D01*
X64051580Y-62230000D01*
X62729755Y-60908176D01*
X62416948Y-61148330D01*
X62182126Y-62131141D01*
X56543042Y-62131141D01*
X56425268Y-61539053D01*
X56178148Y-61380273D01*
X55328420Y-62230000D01*
X53891580Y-62230000D01*
X53041852Y-61380273D01*
X52794732Y-61539053D01*
X52668497Y-62286321D01*
X51562000Y-62286321D01*
X51562000Y-60661852D01*
X53760273Y-60661852D01*
X54610000Y-61511580D01*
X55459727Y-60661852D01*
X55300947Y-60414732D01*
X54553679Y-60288497D01*
X53919053Y-60414732D01*
X53760273Y-60661852D01*
X51562000Y-60661852D01*
X51562000Y-60189755D01*
X63448176Y-60189755D01*
X64770000Y-61511580D01*
X66091824Y-60189755D01*
X65851670Y-59876948D01*
X64868859Y-59642126D01*
X63870997Y-59801285D01*
X63688330Y-59876948D01*
X63448176Y-60189755D01*
X51562000Y-60189755D01*
X51562000Y-57912000D01*
X68453000Y-57912000D01*
X68453000Y-65913000D01*
X68453000Y-65913000D01*
G37*
X68453000Y-65913000D02*
X68326000Y-65913000D01*
X67839992Y-66009673D01*
X67427974Y-66284974D01*
X67427972Y-66284977D01*
X66615175Y-67097773D01*
X66339874Y-67509791D01*
X66243200Y-67995799D01*
X66243201Y-67995804D01*
X66243201Y-69000533D01*
X66210673Y-68967948D01*
X65277454Y-68580441D01*
X64266979Y-68579560D01*
X63333085Y-68965437D01*
X62617948Y-69679327D01*
X62230441Y-70612546D01*
X62229560Y-71623021D01*
X62615437Y-72556915D01*
X63329327Y-73272052D01*
X64262546Y-73659559D01*
X65273021Y-73660440D01*
X66206915Y-73274563D01*
X66243201Y-73238340D01*
X66243201Y-77824244D01*
X66240267Y-77821310D01*
X66091823Y-77969754D01*
X65851670Y-77656948D01*
X64868859Y-77422126D01*
X63870997Y-77581285D01*
X63688330Y-77656948D01*
X63448176Y-77969755D01*
X64770000Y-79291580D01*
X64784142Y-79277437D01*
X65502563Y-79995858D01*
X65488420Y-80010000D01*
X65502563Y-80024142D01*
X64784142Y-80742563D01*
X64770000Y-80728420D01*
X63448176Y-82050245D01*
X63688330Y-82363052D01*
X64671141Y-82597874D01*
X65669003Y-82438715D01*
X65851670Y-82363052D01*
X66091823Y-82050246D01*
X66240267Y-82198690D01*
X66243201Y-82195756D01*
X66243201Y-86780533D01*
X66210673Y-86747948D01*
X65277454Y-86360441D01*
X64266979Y-86359560D01*
X63333085Y-86745437D01*
X62617948Y-87459327D01*
X62230441Y-88392546D01*
X62229560Y-89403021D01*
X62615437Y-90336915D01*
X63329327Y-91052052D01*
X64262546Y-91439559D01*
X65273021Y-91440440D01*
X66206915Y-91054563D01*
X66243201Y-91018340D01*
X66243201Y-106834940D01*
X65286890Y-106834940D01*
X65128140Y-106993690D01*
X65128140Y-107056682D01*
X65035957Y-107018499D01*
X64960663Y-106987311D01*
X64960662Y-106987311D01*
X64766258Y-106948641D01*
X64617600Y-106948641D01*
X64274539Y-106987310D01*
X64112140Y-107054578D01*
X64112140Y-106993690D01*
X63953390Y-106834940D01*
X62743771Y-106834940D01*
X62510382Y-106931613D01*
X62331753Y-107110241D01*
X62235080Y-107343630D01*
X62235080Y-108553250D01*
X62393830Y-108712000D01*
X63347600Y-108712000D01*
X63347600Y-109728000D01*
X62393830Y-109728000D01*
X62235080Y-109886750D01*
X62235080Y-111096370D01*
X62331753Y-111329759D01*
X62510382Y-111508387D01*
X62542040Y-111521500D01*
X60686415Y-111521500D01*
X60822161Y-111434150D01*
X60967151Y-111221950D01*
X61018160Y-110970060D01*
X61018160Y-107469940D01*
X60973882Y-107234623D01*
X60834810Y-107018499D01*
X60622610Y-106873509D01*
X60370720Y-106822500D01*
X56870600Y-106822500D01*
X56635283Y-106866778D01*
X56419159Y-107005850D01*
X56274169Y-107218050D01*
X56223160Y-107469940D01*
X56223160Y-110970060D01*
X56267438Y-111205377D01*
X56406510Y-111421501D01*
X56618710Y-111566491D01*
X56870600Y-111617500D01*
X59554645Y-111617500D01*
X59418899Y-111704850D01*
X59273909Y-111917050D01*
X59222900Y-112168940D01*
X59222900Y-115669060D01*
X59267178Y-115904377D01*
X59378901Y-116078000D01*
X51562000Y-116078000D01*
X51562000Y-99628894D01*
X52744284Y-99628894D01*
X53372474Y-101149229D01*
X54534653Y-102313438D01*
X56053889Y-102944280D01*
X57698894Y-102945716D01*
X59219229Y-102317526D01*
X60383438Y-101155347D01*
X61014280Y-99636111D01*
X61015716Y-97991106D01*
X60387526Y-96470771D01*
X59225347Y-95306562D01*
X57706111Y-94675720D01*
X56061106Y-94674284D01*
X54540771Y-95302474D01*
X53376562Y-96464653D01*
X52745720Y-97983889D01*
X52744284Y-99628894D01*
X51562000Y-99628894D01*
X51562000Y-89277265D01*
X52704670Y-89277265D01*
X52994078Y-89977686D01*
X53529495Y-90514039D01*
X54229410Y-90804668D01*
X54987265Y-90805330D01*
X55687686Y-90515922D01*
X56224039Y-89980505D01*
X56514668Y-89280590D01*
X56515330Y-88522735D01*
X56225922Y-87822314D01*
X55690505Y-87285961D01*
X54990590Y-86995332D01*
X54232735Y-86994670D01*
X53532314Y-87284078D01*
X52995961Y-87819495D01*
X52705332Y-88519410D01*
X52704670Y-89277265D01*
X51562000Y-89277265D01*
X51562000Y-81578148D01*
X53760273Y-81578148D01*
X53919053Y-81825268D01*
X54666321Y-81951503D01*
X55300947Y-81825268D01*
X55459727Y-81578148D01*
X54610000Y-80728420D01*
X53760273Y-81578148D01*
X51562000Y-81578148D01*
X51562000Y-80066321D01*
X52668497Y-80066321D01*
X52794732Y-80700947D01*
X53041852Y-80859727D01*
X53891580Y-80010000D01*
X55328420Y-80010000D01*
X56178148Y-80859727D01*
X56425268Y-80700947D01*
X56551503Y-79953679D01*
X56543042Y-79911141D01*
X62182126Y-79911141D01*
X62341285Y-80909003D01*
X62416948Y-81091670D01*
X62729755Y-81331824D01*
X64051580Y-80010000D01*
X62729755Y-78688176D01*
X62416948Y-78928330D01*
X62182126Y-79911141D01*
X56543042Y-79911141D01*
X56425268Y-79319053D01*
X56178148Y-79160273D01*
X55328420Y-80010000D01*
X53891580Y-80010000D01*
X53041852Y-79160273D01*
X52794732Y-79319053D01*
X52668497Y-80066321D01*
X51562000Y-80066321D01*
X51562000Y-78441852D01*
X53760273Y-78441852D01*
X54610000Y-79291580D01*
X55459727Y-78441852D01*
X55300947Y-78194732D01*
X54553679Y-78068497D01*
X53919053Y-78194732D01*
X53760273Y-78441852D01*
X51562000Y-78441852D01*
X51562000Y-71497265D01*
X52704670Y-71497265D01*
X52994078Y-72197686D01*
X53529495Y-72734039D01*
X54229410Y-73024668D01*
X54987265Y-73025330D01*
X55687686Y-72735922D01*
X56224039Y-72200505D01*
X56514668Y-71500590D01*
X56515330Y-70742735D01*
X56225922Y-70042314D01*
X55690505Y-69505961D01*
X54990590Y-69215332D01*
X54232735Y-69214670D01*
X53532314Y-69504078D01*
X52995961Y-70039495D01*
X52705332Y-70739410D01*
X52704670Y-71497265D01*
X51562000Y-71497265D01*
X51562000Y-64270245D01*
X63448176Y-64270245D01*
X63688330Y-64583052D01*
X64671141Y-64817874D01*
X65669003Y-64658715D01*
X65851670Y-64583052D01*
X66091824Y-64270245D01*
X64770000Y-62948420D01*
X63448176Y-64270245D01*
X51562000Y-64270245D01*
X51562000Y-63798148D01*
X53760273Y-63798148D01*
X53919053Y-64045268D01*
X54666321Y-64171503D01*
X55300947Y-64045268D01*
X55459727Y-63798148D01*
X54610000Y-62948420D01*
X53760273Y-63798148D01*
X51562000Y-63798148D01*
X51562000Y-62286321D01*
X52668497Y-62286321D01*
X52794732Y-62920947D01*
X53041852Y-63079727D01*
X53891580Y-62230000D01*
X55328420Y-62230000D01*
X56178148Y-63079727D01*
X56425268Y-62920947D01*
X56551503Y-62173679D01*
X56543042Y-62131141D01*
X62182126Y-62131141D01*
X62341285Y-63129003D01*
X62416948Y-63311670D01*
X62729755Y-63551824D01*
X64051580Y-62230000D01*
X65488420Y-62230000D01*
X66810245Y-63551824D01*
X67123052Y-63311670D01*
X67357874Y-62328859D01*
X67198715Y-61330997D01*
X67123052Y-61148330D01*
X66810245Y-60908176D01*
X65488420Y-62230000D01*
X64051580Y-62230000D01*
X62729755Y-60908176D01*
X62416948Y-61148330D01*
X62182126Y-62131141D01*
X56543042Y-62131141D01*
X56425268Y-61539053D01*
X56178148Y-61380273D01*
X55328420Y-62230000D01*
X53891580Y-62230000D01*
X53041852Y-61380273D01*
X52794732Y-61539053D01*
X52668497Y-62286321D01*
X51562000Y-62286321D01*
X51562000Y-60661852D01*
X53760273Y-60661852D01*
X54610000Y-61511580D01*
X55459727Y-60661852D01*
X55300947Y-60414732D01*
X54553679Y-60288497D01*
X53919053Y-60414732D01*
X53760273Y-60661852D01*
X51562000Y-60661852D01*
X51562000Y-60189755D01*
X63448176Y-60189755D01*
X64770000Y-61511580D01*
X66091824Y-60189755D01*
X65851670Y-59876948D01*
X64868859Y-59642126D01*
X63870997Y-59801285D01*
X63688330Y-59876948D01*
X63448176Y-60189755D01*
X51562000Y-60189755D01*
X51562000Y-57912000D01*
X68453000Y-57912000D01*
X68453000Y-65913000D01*
G36*
X105283000Y-116078000D02*
X96647000Y-116078000D01*
X96647000Y-115357400D01*
X96730973Y-115560129D01*
X96909602Y-115738757D01*
X97142991Y-115835430D01*
X97852230Y-115835430D01*
X98010980Y-115676680D01*
X98010980Y-114750215D01*
X99026980Y-114750215D01*
X99026980Y-115676680D01*
X99185730Y-115835430D01*
X99894969Y-115835430D01*
X100128358Y-115738757D01*
X100306987Y-115560129D01*
X100403660Y-115326740D01*
X100403660Y-114908965D01*
X100244910Y-114750215D01*
X99026980Y-114750215D01*
X98010980Y-114750215D01*
X97990980Y-114750215D01*
X97990980Y-113849785D01*
X98010980Y-113849785D01*
X98010980Y-112923320D01*
X99026980Y-112923320D01*
X99026980Y-113849785D01*
X100244910Y-113849785D01*
X100403660Y-113691035D01*
X100403660Y-113273260D01*
X100306987Y-113039871D01*
X100128358Y-112861243D01*
X99894969Y-112764570D01*
X99185730Y-112764570D01*
X99026980Y-112923320D01*
X98010980Y-112923320D01*
X97852230Y-112764570D01*
X97142991Y-112764570D01*
X96909602Y-112861243D01*
X96730973Y-113039871D01*
X96647000Y-113242600D01*
X96647000Y-112395000D01*
X96636994Y-112345590D01*
X96618690Y-112318800D01*
X100224590Y-112318800D01*
X100224590Y-112686410D01*
X100321263Y-112919799D01*
X100499892Y-113098427D01*
X100733281Y-113195100D01*
X101992430Y-113195100D01*
X102151180Y-113036350D01*
X102151180Y-112160050D01*
X103167180Y-112160050D01*
X103167180Y-113036350D01*
X103325930Y-113195100D01*
X104585079Y-113195100D01*
X104818468Y-113098427D01*
X104997097Y-112919799D01*
X105093770Y-112686410D01*
X105093770Y-112318800D01*
X104935020Y-112160050D01*
X103167180Y-112160050D01*
X102151180Y-112160050D01*
X100383340Y-112160050D01*
X100224590Y-112318800D01*
X96618690Y-112318800D01*
X96608553Y-112303965D01*
X96566159Y-112276685D01*
X96520000Y-112268000D01*
X91313000Y-112268000D01*
X91313000Y-111980706D01*
X91438456Y-111855250D01*
X91438456Y-111425411D01*
X91482865Y-111377021D01*
X91577785Y-111227716D01*
X91484836Y-111061500D01*
X92454456Y-111061500D01*
X92454456Y-111855250D01*
X92613206Y-112014000D01*
X93660266Y-112014000D01*
X93893655Y-111917327D01*
X94072283Y-111738698D01*
X94168956Y-111505309D01*
X94168956Y-111220250D01*
X94077456Y-111128750D01*
X94450000Y-111128750D01*
X94450000Y-111346309D01*
X94546673Y-111579698D01*
X94725301Y-111758327D01*
X94958690Y-111855000D01*
X95326250Y-111855000D01*
X95485000Y-111696250D01*
X95485000Y-110970000D01*
X96285000Y-110970000D01*
X96285000Y-111696250D01*
X96443750Y-111855000D01*
X96811310Y-111855000D01*
X97044699Y-111758327D01*
X97223327Y-111579698D01*
X97320000Y-111346309D01*
X97320000Y-111128750D01*
X97161250Y-110970000D01*
X96285000Y-110970000D01*
X95485000Y-110970000D01*
X94608750Y-110970000D01*
X94450000Y-111128750D01*
X94077456Y-111128750D01*
X94010206Y-111061500D01*
X92454456Y-111061500D01*
X91484836Y-111061500D01*
X91475049Y-111044000D01*
X91418456Y-111044000D01*
X91418456Y-110833590D01*
X100224590Y-110833590D01*
X100224590Y-111201200D01*
X100383340Y-111359950D01*
X102151180Y-111359950D01*
X102151180Y-110483650D01*
X103167180Y-110483650D01*
X103167180Y-111359950D01*
X104935020Y-111359950D01*
X105093770Y-111201200D01*
X105093770Y-110833590D01*
X104997097Y-110600201D01*
X104818468Y-110421573D01*
X104585079Y-110324900D01*
X103325930Y-110324900D01*
X103167180Y-110483650D01*
X102151180Y-110483650D01*
X101992430Y-110324900D01*
X100733281Y-110324900D01*
X100499892Y-110421573D01*
X100321263Y-110600201D01*
X100224590Y-110833590D01*
X91418456Y-110833590D01*
X91418456Y-110444000D01*
X91475049Y-110444000D01*
X91577785Y-110260284D01*
X91549632Y-110216000D01*
X92454456Y-110216000D01*
X92454456Y-110426500D01*
X94010206Y-110426500D01*
X94168956Y-110267750D01*
X94168956Y-110093691D01*
X94450000Y-110093691D01*
X94450000Y-110311250D01*
X94608750Y-110470000D01*
X95485000Y-110470000D01*
X95485000Y-109743750D01*
X96285000Y-109743750D01*
X96285000Y-110470000D01*
X97161250Y-110470000D01*
X97320000Y-110311250D01*
X97320000Y-110093691D01*
X97223327Y-109860302D01*
X97044699Y-109681673D01*
X96811310Y-109585000D01*
X96443750Y-109585000D01*
X96285000Y-109743750D01*
X95485000Y-109743750D01*
X95326250Y-109585000D01*
X94958690Y-109585000D01*
X94725301Y-109681673D01*
X94546673Y-109860302D01*
X94450000Y-110093691D01*
X94168956Y-110093691D01*
X94168956Y-109982691D01*
X94072283Y-109749302D01*
X93893655Y-109570673D01*
X93660266Y-109474000D01*
X94360995Y-109474000D01*
X94361000Y-109474001D01*
X94847008Y-109377327D01*
X94892396Y-109347000D01*
X98425000Y-109347000D01*
X98474410Y-109336994D01*
X98516035Y-109308553D01*
X98543315Y-109266159D01*
X98552000Y-109220000D01*
X98552000Y-104698800D01*
X100224590Y-104698800D01*
X100224590Y-105066410D01*
X100321263Y-105299799D01*
X100499892Y-105478427D01*
X100733281Y-105575100D01*
X101992430Y-105575100D01*
X102151180Y-105416350D01*
X102151180Y-104540050D01*
X103167180Y-104540050D01*
X103167180Y-105416350D01*
X103325930Y-105575100D01*
X104585079Y-105575100D01*
X104818468Y-105478427D01*
X104997097Y-105299799D01*
X105093770Y-105066410D01*
X105093770Y-104698800D01*
X104935020Y-104540050D01*
X103167180Y-104540050D01*
X102151180Y-104540050D01*
X100383340Y-104540050D01*
X100224590Y-104698800D01*
X98552000Y-104698800D01*
X98552000Y-103213590D01*
X100224590Y-103213590D01*
X100224590Y-103581200D01*
X100383340Y-103739950D01*
X102151180Y-103739950D01*
X102151180Y-102863650D01*
X103167180Y-102863650D01*
X103167180Y-103739950D01*
X104935020Y-103739950D01*
X105093770Y-103581200D01*
X105093770Y-103213590D01*
X104997097Y-102980201D01*
X104818468Y-102801573D01*
X104585079Y-102704900D01*
X103325930Y-102704900D01*
X103167180Y-102863650D01*
X102151180Y-102863650D01*
X101992430Y-102704900D01*
X100733281Y-102704900D01*
X100499892Y-102801573D01*
X100321263Y-102980201D01*
X100224590Y-103213590D01*
X98552000Y-103213590D01*
X98552000Y-102590600D01*
X99156185Y-102590600D01*
X99438070Y-102534530D01*
X99677040Y-102374855D01*
X100324895Y-101727000D01*
X105283000Y-101727000D01*
X105283000Y-116078000D01*
X105283000Y-116078000D01*
G37*
X105283000Y-116078000D02*
X96647000Y-116078000D01*
X96647000Y-115357400D01*
X96730973Y-115560129D01*
X96909602Y-115738757D01*
X97142991Y-115835430D01*
X97852230Y-115835430D01*
X98010980Y-115676680D01*
X98010980Y-114750215D01*
X99026980Y-114750215D01*
X99026980Y-115676680D01*
X99185730Y-115835430D01*
X99894969Y-115835430D01*
X100128358Y-115738757D01*
X100306987Y-115560129D01*
X100403660Y-115326740D01*
X100403660Y-114908965D01*
X100244910Y-114750215D01*
X99026980Y-114750215D01*
X98010980Y-114750215D01*
X97990980Y-114750215D01*
X97990980Y-113849785D01*
X98010980Y-113849785D01*
X98010980Y-112923320D01*
X99026980Y-112923320D01*
X99026980Y-113849785D01*
X100244910Y-113849785D01*
X100403660Y-113691035D01*
X100403660Y-113273260D01*
X100306987Y-113039871D01*
X100128358Y-112861243D01*
X99894969Y-112764570D01*
X99185730Y-112764570D01*
X99026980Y-112923320D01*
X98010980Y-112923320D01*
X97852230Y-112764570D01*
X97142991Y-112764570D01*
X96909602Y-112861243D01*
X96730973Y-113039871D01*
X96647000Y-113242600D01*
X96647000Y-112395000D01*
X96636994Y-112345590D01*
X96618690Y-112318800D01*
X100224590Y-112318800D01*
X100224590Y-112686410D01*
X100321263Y-112919799D01*
X100499892Y-113098427D01*
X100733281Y-113195100D01*
X101992430Y-113195100D01*
X102151180Y-113036350D01*
X102151180Y-112160050D01*
X103167180Y-112160050D01*
X103167180Y-113036350D01*
X103325930Y-113195100D01*
X104585079Y-113195100D01*
X104818468Y-113098427D01*
X104997097Y-112919799D01*
X105093770Y-112686410D01*
X105093770Y-112318800D01*
X104935020Y-112160050D01*
X103167180Y-112160050D01*
X102151180Y-112160050D01*
X100383340Y-112160050D01*
X100224590Y-112318800D01*
X96618690Y-112318800D01*
X96608553Y-112303965D01*
X96566159Y-112276685D01*
X96520000Y-112268000D01*
X91313000Y-112268000D01*
X91313000Y-111980706D01*
X91438456Y-111855250D01*
X91438456Y-111425411D01*
X91482865Y-111377021D01*
X91577785Y-111227716D01*
X91484836Y-111061500D01*
X92454456Y-111061500D01*
X92454456Y-111855250D01*
X92613206Y-112014000D01*
X93660266Y-112014000D01*
X93893655Y-111917327D01*
X94072283Y-111738698D01*
X94168956Y-111505309D01*
X94168956Y-111220250D01*
X94077456Y-111128750D01*
X94450000Y-111128750D01*
X94450000Y-111346309D01*
X94546673Y-111579698D01*
X94725301Y-111758327D01*
X94958690Y-111855000D01*
X95326250Y-111855000D01*
X95485000Y-111696250D01*
X95485000Y-110970000D01*
X96285000Y-110970000D01*
X96285000Y-111696250D01*
X96443750Y-111855000D01*
X96811310Y-111855000D01*
X97044699Y-111758327D01*
X97223327Y-111579698D01*
X97320000Y-111346309D01*
X97320000Y-111128750D01*
X97161250Y-110970000D01*
X96285000Y-110970000D01*
X95485000Y-110970000D01*
X94608750Y-110970000D01*
X94450000Y-111128750D01*
X94077456Y-111128750D01*
X94010206Y-111061500D01*
X92454456Y-111061500D01*
X91484836Y-111061500D01*
X91475049Y-111044000D01*
X91418456Y-111044000D01*
X91418456Y-110833590D01*
X100224590Y-110833590D01*
X100224590Y-111201200D01*
X100383340Y-111359950D01*
X102151180Y-111359950D01*
X102151180Y-110483650D01*
X103167180Y-110483650D01*
X103167180Y-111359950D01*
X104935020Y-111359950D01*
X105093770Y-111201200D01*
X105093770Y-110833590D01*
X104997097Y-110600201D01*
X104818468Y-110421573D01*
X104585079Y-110324900D01*
X103325930Y-110324900D01*
X103167180Y-110483650D01*
X102151180Y-110483650D01*
X101992430Y-110324900D01*
X100733281Y-110324900D01*
X100499892Y-110421573D01*
X100321263Y-110600201D01*
X100224590Y-110833590D01*
X91418456Y-110833590D01*
X91418456Y-110444000D01*
X91475049Y-110444000D01*
X91577785Y-110260284D01*
X91549632Y-110216000D01*
X92454456Y-110216000D01*
X92454456Y-110426500D01*
X94010206Y-110426500D01*
X94168956Y-110267750D01*
X94168956Y-110093691D01*
X94450000Y-110093691D01*
X94450000Y-110311250D01*
X94608750Y-110470000D01*
X95485000Y-110470000D01*
X95485000Y-109743750D01*
X96285000Y-109743750D01*
X96285000Y-110470000D01*
X97161250Y-110470000D01*
X97320000Y-110311250D01*
X97320000Y-110093691D01*
X97223327Y-109860302D01*
X97044699Y-109681673D01*
X96811310Y-109585000D01*
X96443750Y-109585000D01*
X96285000Y-109743750D01*
X95485000Y-109743750D01*
X95326250Y-109585000D01*
X94958690Y-109585000D01*
X94725301Y-109681673D01*
X94546673Y-109860302D01*
X94450000Y-110093691D01*
X94168956Y-110093691D01*
X94168956Y-109982691D01*
X94072283Y-109749302D01*
X93893655Y-109570673D01*
X93660266Y-109474000D01*
X94360995Y-109474000D01*
X94361000Y-109474001D01*
X94847008Y-109377327D01*
X94892396Y-109347000D01*
X98425000Y-109347000D01*
X98474410Y-109336994D01*
X98516035Y-109308553D01*
X98543315Y-109266159D01*
X98552000Y-109220000D01*
X98552000Y-104698800D01*
X100224590Y-104698800D01*
X100224590Y-105066410D01*
X100321263Y-105299799D01*
X100499892Y-105478427D01*
X100733281Y-105575100D01*
X101992430Y-105575100D01*
X102151180Y-105416350D01*
X102151180Y-104540050D01*
X103167180Y-104540050D01*
X103167180Y-105416350D01*
X103325930Y-105575100D01*
X104585079Y-105575100D01*
X104818468Y-105478427D01*
X104997097Y-105299799D01*
X105093770Y-105066410D01*
X105093770Y-104698800D01*
X104935020Y-104540050D01*
X103167180Y-104540050D01*
X102151180Y-104540050D01*
X100383340Y-104540050D01*
X100224590Y-104698800D01*
X98552000Y-104698800D01*
X98552000Y-103213590D01*
X100224590Y-103213590D01*
X100224590Y-103581200D01*
X100383340Y-103739950D01*
X102151180Y-103739950D01*
X102151180Y-102863650D01*
X103167180Y-102863650D01*
X103167180Y-103739950D01*
X104935020Y-103739950D01*
X105093770Y-103581200D01*
X105093770Y-103213590D01*
X104997097Y-102980201D01*
X104818468Y-102801573D01*
X104585079Y-102704900D01*
X103325930Y-102704900D01*
X103167180Y-102863650D01*
X102151180Y-102863650D01*
X101992430Y-102704900D01*
X100733281Y-102704900D01*
X100499892Y-102801573D01*
X100321263Y-102980201D01*
X100224590Y-103213590D01*
X98552000Y-103213590D01*
X98552000Y-102590600D01*
X99156185Y-102590600D01*
X99438070Y-102534530D01*
X99677040Y-102374855D01*
X100324895Y-101727000D01*
X105283000Y-101727000D01*
X105283000Y-116078000D01*
G36*
X121158000Y-116078000D02*
X106045000Y-116078000D01*
X106045000Y-114717312D01*
X114062293Y-114717312D01*
X114465762Y-115243924D01*
X115979730Y-115887307D01*
X117624666Y-115902346D01*
X119150145Y-115286750D01*
X119214238Y-115243924D01*
X119617707Y-114717312D01*
X116840000Y-111939605D01*
X114062293Y-114717312D01*
X106045000Y-114717312D01*
X106045000Y-113116432D01*
X106234921Y-113195100D01*
X107875070Y-113195100D01*
X108033820Y-113036350D01*
X108033820Y-111887000D01*
X108287820Y-111887000D01*
X108287820Y-113036350D01*
X108446570Y-113195100D01*
X110086719Y-113195100D01*
X110320108Y-113098427D01*
X110498737Y-112919799D01*
X110595410Y-112686410D01*
X110595410Y-112544666D01*
X112697654Y-112544666D01*
X113313250Y-114070145D01*
X113356076Y-114134238D01*
X113882688Y-114537707D01*
X116660395Y-111760000D01*
X117019605Y-111760000D01*
X119797312Y-114537707D01*
X120323924Y-114134238D01*
X120967307Y-112620270D01*
X120982346Y-110975334D01*
X120366750Y-109449855D01*
X120323924Y-109385762D01*
X119797312Y-108982293D01*
X117019605Y-111760000D01*
X116660395Y-111760000D01*
X113882688Y-108982293D01*
X113356076Y-109385762D01*
X112712693Y-110899730D01*
X112697654Y-112544666D01*
X110595410Y-112544666D01*
X110595410Y-112045750D01*
X110436660Y-111887000D01*
X108287820Y-111887000D01*
X108033820Y-111887000D01*
X108013820Y-111887000D01*
X108013820Y-111633000D01*
X108033820Y-111633000D01*
X108033820Y-110483650D01*
X108287820Y-110483650D01*
X108287820Y-111633000D01*
X110436660Y-111633000D01*
X110595410Y-111474250D01*
X110595410Y-110833590D01*
X110498737Y-110600201D01*
X110320108Y-110421573D01*
X110086719Y-110324900D01*
X108446570Y-110324900D01*
X108287820Y-110483650D01*
X108033820Y-110483650D01*
X107875070Y-110324900D01*
X106234921Y-110324900D01*
X106045000Y-110403568D01*
X106045000Y-108802688D01*
X114062293Y-108802688D01*
X116840000Y-111580395D01*
X119617707Y-108802688D01*
X119214238Y-108276076D01*
X117700270Y-107632693D01*
X116055334Y-107617654D01*
X114529855Y-108233250D01*
X114465762Y-108276076D01*
X114062293Y-108802688D01*
X106045000Y-108802688D01*
X106045000Y-105496432D01*
X106234921Y-105575100D01*
X107875070Y-105575100D01*
X108033820Y-105416350D01*
X108033820Y-104267000D01*
X108287820Y-104267000D01*
X108287820Y-105416350D01*
X108446570Y-105575100D01*
X110086719Y-105575100D01*
X110320108Y-105478427D01*
X110498737Y-105299799D01*
X110595410Y-105066410D01*
X110595410Y-104425750D01*
X110436660Y-104267000D01*
X108287820Y-104267000D01*
X108033820Y-104267000D01*
X108013820Y-104267000D01*
X108013820Y-104013000D01*
X108033820Y-104013000D01*
X108033820Y-102863650D01*
X108287820Y-102863650D01*
X108287820Y-104013000D01*
X110436660Y-104013000D01*
X110595410Y-103854250D01*
X110595410Y-103213590D01*
X110498737Y-102980201D01*
X110320108Y-102801573D01*
X110086719Y-102704900D01*
X108446570Y-102704900D01*
X108287820Y-102863650D01*
X108033820Y-102863650D01*
X107875070Y-102704900D01*
X106234921Y-102704900D01*
X106045000Y-102783568D01*
X106045000Y-101701600D01*
X106501890Y-101701600D01*
X106921145Y-102120855D01*
X107160115Y-102280530D01*
X107442000Y-102336600D01*
X115379500Y-102336600D01*
X115661385Y-102280530D01*
X115900355Y-102120855D01*
X117551770Y-100469440D01*
X119062500Y-100469440D01*
X119297817Y-100425162D01*
X119513941Y-100286090D01*
X119658931Y-100073890D01*
X119709940Y-99822000D01*
X119709940Y-98298000D01*
X119665662Y-98062683D01*
X119526590Y-97846559D01*
X119314390Y-97701569D01*
X119095742Y-97657292D01*
X119319429Y-97507828D01*
X119622261Y-97054609D01*
X119728601Y-96520000D01*
X119622261Y-95985391D01*
X119319429Y-95532172D01*
X118897130Y-95250000D01*
X119319429Y-94967828D01*
X119622261Y-94514609D01*
X119728601Y-93980000D01*
X119622261Y-93445391D01*
X119319429Y-92992172D01*
X118897130Y-92710000D01*
X119319429Y-92427828D01*
X119622261Y-91974609D01*
X119728601Y-91440000D01*
X119622261Y-90905391D01*
X119319429Y-90452172D01*
X118897130Y-90170000D01*
X119319429Y-89887828D01*
X119622261Y-89434609D01*
X119728601Y-88900000D01*
X119622261Y-88365391D01*
X119319429Y-87912172D01*
X118897130Y-87630000D01*
X119319429Y-87347828D01*
X119622261Y-86894609D01*
X119728601Y-86360000D01*
X119622261Y-85825391D01*
X119319429Y-85372172D01*
X118897130Y-85090000D01*
X119319429Y-84807828D01*
X119622261Y-84354609D01*
X119728601Y-83820000D01*
X119622261Y-83285391D01*
X119319429Y-82832172D01*
X118897130Y-82550000D01*
X119319429Y-82267828D01*
X119622261Y-81814609D01*
X119728601Y-81280000D01*
X119622261Y-80745391D01*
X119319429Y-80292172D01*
X118866210Y-79989340D01*
X118331601Y-79883000D01*
X117888399Y-79883000D01*
X117353790Y-79989340D01*
X116900571Y-80292172D01*
X116835842Y-80389046D01*
X116437792Y-80053229D01*
X115916771Y-79887423D01*
X115697000Y-80038872D01*
X115697000Y-81153000D01*
X115717000Y-81153000D01*
X115717000Y-81407000D01*
X115697000Y-81407000D01*
X115697000Y-81427000D01*
X115443000Y-81427000D01*
X115443000Y-81407000D01*
X114147780Y-81407000D01*
X114025280Y-81623070D01*
X114033124Y-81668540D01*
X114108043Y-81813400D01*
X113030000Y-81813400D01*
X112748115Y-81869470D01*
X112509145Y-82029145D01*
X111581890Y-82956400D01*
X110743979Y-82956400D01*
X110744176Y-82729792D01*
X110589825Y-82356234D01*
X110464600Y-82230790D01*
X110464600Y-80936930D01*
X114025280Y-80936930D01*
X114147780Y-81153000D01*
X115443000Y-81153000D01*
X115443000Y-80038872D01*
X115223229Y-79887423D01*
X114702208Y-80053229D01*
X114284299Y-80405800D01*
X114033124Y-80891460D01*
X114025280Y-80936930D01*
X110464600Y-80936930D01*
X110464600Y-79553110D01*
X111430110Y-78587600D01*
X113665000Y-78587600D01*
X113946885Y-78531530D01*
X114185855Y-78371855D01*
X115436960Y-77120750D01*
X117880000Y-77120750D01*
X117880000Y-77361309D01*
X117976673Y-77594698D01*
X118155301Y-77773327D01*
X118388690Y-77870000D01*
X119129250Y-77870000D01*
X119288000Y-77711250D01*
X119288000Y-76962000D01*
X119542000Y-76962000D01*
X119542000Y-77711250D01*
X119700750Y-77870000D01*
X120441310Y-77870000D01*
X120674699Y-77773327D01*
X120853327Y-77594698D01*
X120950000Y-77361309D01*
X120950000Y-77120750D01*
X120791250Y-76962000D01*
X119542000Y-76962000D01*
X119288000Y-76962000D01*
X118038750Y-76962000D01*
X117880000Y-77120750D01*
X115436960Y-77120750D01*
X116256110Y-76301600D01*
X117882937Y-76301600D01*
X117880000Y-76308691D01*
X117880000Y-76549250D01*
X118038750Y-76708000D01*
X119288000Y-76708000D01*
X119288000Y-76688000D01*
X119542000Y-76688000D01*
X119542000Y-76708000D01*
X120791250Y-76708000D01*
X120950000Y-76549250D01*
X120950000Y-76308691D01*
X120911610Y-76216008D01*
X120962440Y-75965000D01*
X120962440Y-75165000D01*
X120918162Y-74929683D01*
X120915693Y-74925845D01*
X120962440Y-74695000D01*
X120962440Y-73895000D01*
X120918162Y-73659683D01*
X120910221Y-73647343D01*
X120950000Y-73551309D01*
X120950000Y-73310750D01*
X120791250Y-73152000D01*
X119542000Y-73152000D01*
X119542000Y-73172000D01*
X119288000Y-73172000D01*
X119288000Y-73152000D01*
X119268000Y-73152000D01*
X119268000Y-72898000D01*
X119288000Y-72898000D01*
X119288000Y-72148750D01*
X119542000Y-72148750D01*
X119542000Y-72898000D01*
X120791250Y-72898000D01*
X120950000Y-72739250D01*
X120950000Y-72498691D01*
X120853327Y-72265302D01*
X120674699Y-72086673D01*
X120441310Y-71990000D01*
X119700750Y-71990000D01*
X119542000Y-72148750D01*
X119288000Y-72148750D01*
X119129250Y-71990000D01*
X118388690Y-71990000D01*
X118155301Y-72086673D01*
X117976673Y-72265302D01*
X117932200Y-72372669D01*
X117932200Y-71975194D01*
X118067697Y-71839697D01*
X118249396Y-71567766D01*
X118313200Y-71247000D01*
X118313200Y-70168200D01*
X118532390Y-70168200D01*
X118540910Y-70181441D01*
X118753110Y-70326431D01*
X119005000Y-70377440D01*
X119755000Y-70377440D01*
X119990317Y-70333162D01*
X120206441Y-70194090D01*
X120351431Y-69981890D01*
X120402440Y-69730000D01*
X120402440Y-68930000D01*
X120358162Y-68694683D01*
X120291671Y-68591354D01*
X120293327Y-68589698D01*
X120390000Y-68356309D01*
X120390000Y-68115750D01*
X120231250Y-67957000D01*
X119507000Y-67957000D01*
X119507000Y-67977000D01*
X119253000Y-67977000D01*
X119253000Y-67957000D01*
X119233000Y-67957000D01*
X119233000Y-67703000D01*
X119253000Y-67703000D01*
X119253000Y-66953750D01*
X119507000Y-66953750D01*
X119507000Y-67703000D01*
X120231250Y-67703000D01*
X120390000Y-67544250D01*
X120390000Y-67303691D01*
X120293327Y-67070302D01*
X120114699Y-66891673D01*
X119881310Y-66795000D01*
X119665750Y-66795000D01*
X119507000Y-66953750D01*
X119253000Y-66953750D01*
X119094250Y-66795000D01*
X118878690Y-66795000D01*
X118645301Y-66891673D01*
X118466673Y-67070302D01*
X118466206Y-67071429D01*
X118373026Y-66931974D01*
X117961008Y-66656673D01*
X117475000Y-66560000D01*
X114076052Y-66560000D01*
X113801026Y-66284974D01*
X113389008Y-66009673D01*
X112903000Y-65912999D01*
X112902995Y-65913000D01*
X112392500Y-65913000D01*
X112392500Y-65187312D01*
X114062293Y-65187312D01*
X114465762Y-65713924D01*
X115979730Y-66357307D01*
X117624666Y-66372346D01*
X119150145Y-65756750D01*
X119214238Y-65713924D01*
X119617707Y-65187312D01*
X116840000Y-62409605D01*
X114062293Y-65187312D01*
X112392500Y-65187312D01*
X112392500Y-63014666D01*
X112697654Y-63014666D01*
X113313250Y-64540145D01*
X113356076Y-64604238D01*
X113882688Y-65007707D01*
X116660395Y-62230000D01*
X117019605Y-62230000D01*
X119797312Y-65007707D01*
X120323924Y-64604238D01*
X120967307Y-63090270D01*
X120982346Y-61445334D01*
X120366750Y-59919855D01*
X120323924Y-59855762D01*
X119797312Y-59452293D01*
X117019605Y-62230000D01*
X116660395Y-62230000D01*
X113882688Y-59452293D01*
X113356076Y-59855762D01*
X112712693Y-61369730D01*
X112697654Y-63014666D01*
X112392500Y-63014666D01*
X112392500Y-59926920D01*
X112437440Y-59705000D01*
X112437440Y-59272688D01*
X114062293Y-59272688D01*
X116840000Y-62050395D01*
X119617707Y-59272688D01*
X119214238Y-58746076D01*
X117700270Y-58102693D01*
X116055334Y-58087654D01*
X114529855Y-58703250D01*
X114465762Y-58746076D01*
X114062293Y-59272688D01*
X112437440Y-59272688D01*
X112437440Y-58405000D01*
X112393162Y-58169683D01*
X112254090Y-57953559D01*
X112193266Y-57912000D01*
X121158000Y-57912000D01*
X121158000Y-116078000D01*
X121158000Y-116078000D01*
G37*
X121158000Y-116078000D02*
X106045000Y-116078000D01*
X106045000Y-114717312D01*
X114062293Y-114717312D01*
X114465762Y-115243924D01*
X115979730Y-115887307D01*
X117624666Y-115902346D01*
X119150145Y-115286750D01*
X119214238Y-115243924D01*
X119617707Y-114717312D01*
X116840000Y-111939605D01*
X114062293Y-114717312D01*
X106045000Y-114717312D01*
X106045000Y-113116432D01*
X106234921Y-113195100D01*
X107875070Y-113195100D01*
X108033820Y-113036350D01*
X108033820Y-111887000D01*
X108287820Y-111887000D01*
X108287820Y-113036350D01*
X108446570Y-113195100D01*
X110086719Y-113195100D01*
X110320108Y-113098427D01*
X110498737Y-112919799D01*
X110595410Y-112686410D01*
X110595410Y-112544666D01*
X112697654Y-112544666D01*
X113313250Y-114070145D01*
X113356076Y-114134238D01*
X113882688Y-114537707D01*
X116660395Y-111760000D01*
X117019605Y-111760000D01*
X119797312Y-114537707D01*
X120323924Y-114134238D01*
X120967307Y-112620270D01*
X120982346Y-110975334D01*
X120366750Y-109449855D01*
X120323924Y-109385762D01*
X119797312Y-108982293D01*
X117019605Y-111760000D01*
X116660395Y-111760000D01*
X113882688Y-108982293D01*
X113356076Y-109385762D01*
X112712693Y-110899730D01*
X112697654Y-112544666D01*
X110595410Y-112544666D01*
X110595410Y-112045750D01*
X110436660Y-111887000D01*
X108287820Y-111887000D01*
X108033820Y-111887000D01*
X108013820Y-111887000D01*
X108013820Y-111633000D01*
X108033820Y-111633000D01*
X108033820Y-110483650D01*
X108287820Y-110483650D01*
X108287820Y-111633000D01*
X110436660Y-111633000D01*
X110595410Y-111474250D01*
X110595410Y-110833590D01*
X110498737Y-110600201D01*
X110320108Y-110421573D01*
X110086719Y-110324900D01*
X108446570Y-110324900D01*
X108287820Y-110483650D01*
X108033820Y-110483650D01*
X107875070Y-110324900D01*
X106234921Y-110324900D01*
X106045000Y-110403568D01*
X106045000Y-108802688D01*
X114062293Y-108802688D01*
X116840000Y-111580395D01*
X119617707Y-108802688D01*
X119214238Y-108276076D01*
X117700270Y-107632693D01*
X116055334Y-107617654D01*
X114529855Y-108233250D01*
X114465762Y-108276076D01*
X114062293Y-108802688D01*
X106045000Y-108802688D01*
X106045000Y-105496432D01*
X106234921Y-105575100D01*
X107875070Y-105575100D01*
X108033820Y-105416350D01*
X108033820Y-104267000D01*
X108287820Y-104267000D01*
X108287820Y-105416350D01*
X108446570Y-105575100D01*
X110086719Y-105575100D01*
X110320108Y-105478427D01*
X110498737Y-105299799D01*
X110595410Y-105066410D01*
X110595410Y-104425750D01*
X110436660Y-104267000D01*
X108287820Y-104267000D01*
X108033820Y-104267000D01*
X108013820Y-104267000D01*
X108013820Y-104013000D01*
X108033820Y-104013000D01*
X108033820Y-102863650D01*
X108287820Y-102863650D01*
X108287820Y-104013000D01*
X110436660Y-104013000D01*
X110595410Y-103854250D01*
X110595410Y-103213590D01*
X110498737Y-102980201D01*
X110320108Y-102801573D01*
X110086719Y-102704900D01*
X108446570Y-102704900D01*
X108287820Y-102863650D01*
X108033820Y-102863650D01*
X107875070Y-102704900D01*
X106234921Y-102704900D01*
X106045000Y-102783568D01*
X106045000Y-101701600D01*
X106501890Y-101701600D01*
X106921145Y-102120855D01*
X107160115Y-102280530D01*
X107442000Y-102336600D01*
X115379500Y-102336600D01*
X115661385Y-102280530D01*
X115900355Y-102120855D01*
X117551770Y-100469440D01*
X119062500Y-100469440D01*
X119297817Y-100425162D01*
X119513941Y-100286090D01*
X119658931Y-100073890D01*
X119709940Y-99822000D01*
X119709940Y-98298000D01*
X119665662Y-98062683D01*
X119526590Y-97846559D01*
X119314390Y-97701569D01*
X119095742Y-97657292D01*
X119319429Y-97507828D01*
X119622261Y-97054609D01*
X119728601Y-96520000D01*
X119622261Y-95985391D01*
X119319429Y-95532172D01*
X118897130Y-95250000D01*
X119319429Y-94967828D01*
X119622261Y-94514609D01*
X119728601Y-93980000D01*
X119622261Y-93445391D01*
X119319429Y-92992172D01*
X118897130Y-92710000D01*
X119319429Y-92427828D01*
X119622261Y-91974609D01*
X119728601Y-91440000D01*
X119622261Y-90905391D01*
X119319429Y-90452172D01*
X118897130Y-90170000D01*
X119319429Y-89887828D01*
X119622261Y-89434609D01*
X119728601Y-88900000D01*
X119622261Y-88365391D01*
X119319429Y-87912172D01*
X118897130Y-87630000D01*
X119319429Y-87347828D01*
X119622261Y-86894609D01*
X119728601Y-86360000D01*
X119622261Y-85825391D01*
X119319429Y-85372172D01*
X118897130Y-85090000D01*
X119319429Y-84807828D01*
X119622261Y-84354609D01*
X119728601Y-83820000D01*
X119622261Y-83285391D01*
X119319429Y-82832172D01*
X118897130Y-82550000D01*
X119319429Y-82267828D01*
X119622261Y-81814609D01*
X119728601Y-81280000D01*
X119622261Y-80745391D01*
X119319429Y-80292172D01*
X118866210Y-79989340D01*
X118331601Y-79883000D01*
X117888399Y-79883000D01*
X117353790Y-79989340D01*
X116900571Y-80292172D01*
X116835842Y-80389046D01*
X116437792Y-80053229D01*
X115916771Y-79887423D01*
X115697000Y-80038872D01*
X115697000Y-81153000D01*
X115717000Y-81153000D01*
X115717000Y-81407000D01*
X115697000Y-81407000D01*
X115697000Y-81427000D01*
X115443000Y-81427000D01*
X115443000Y-81407000D01*
X114147780Y-81407000D01*
X114025280Y-81623070D01*
X114033124Y-81668540D01*
X114108043Y-81813400D01*
X113030000Y-81813400D01*
X112748115Y-81869470D01*
X112509145Y-82029145D01*
X111581890Y-82956400D01*
X110743979Y-82956400D01*
X110744176Y-82729792D01*
X110589825Y-82356234D01*
X110464600Y-82230790D01*
X110464600Y-80936930D01*
X114025280Y-80936930D01*
X114147780Y-81153000D01*
X115443000Y-81153000D01*
X115443000Y-80038872D01*
X115223229Y-79887423D01*
X114702208Y-80053229D01*
X114284299Y-80405800D01*
X114033124Y-80891460D01*
X114025280Y-80936930D01*
X110464600Y-80936930D01*
X110464600Y-79553110D01*
X111430110Y-78587600D01*
X113665000Y-78587600D01*
X113946885Y-78531530D01*
X114185855Y-78371855D01*
X115436960Y-77120750D01*
X117880000Y-77120750D01*
X117880000Y-77361309D01*
X117976673Y-77594698D01*
X118155301Y-77773327D01*
X118388690Y-77870000D01*
X119129250Y-77870000D01*
X119288000Y-77711250D01*
X119288000Y-76962000D01*
X119542000Y-76962000D01*
X119542000Y-77711250D01*
X119700750Y-77870000D01*
X120441310Y-77870000D01*
X120674699Y-77773327D01*
X120853327Y-77594698D01*
X120950000Y-77361309D01*
X120950000Y-77120750D01*
X120791250Y-76962000D01*
X119542000Y-76962000D01*
X119288000Y-76962000D01*
X118038750Y-76962000D01*
X117880000Y-77120750D01*
X115436960Y-77120750D01*
X116256110Y-76301600D01*
X117882937Y-76301600D01*
X117880000Y-76308691D01*
X117880000Y-76549250D01*
X118038750Y-76708000D01*
X119288000Y-76708000D01*
X119288000Y-76688000D01*
X119542000Y-76688000D01*
X119542000Y-76708000D01*
X120791250Y-76708000D01*
X120950000Y-76549250D01*
X120950000Y-76308691D01*
X120911610Y-76216008D01*
X120962440Y-75965000D01*
X120962440Y-75165000D01*
X120918162Y-74929683D01*
X120915693Y-74925845D01*
X120962440Y-74695000D01*
X120962440Y-73895000D01*
X120918162Y-73659683D01*
X120910221Y-73647343D01*
X120950000Y-73551309D01*
X120950000Y-73310750D01*
X120791250Y-73152000D01*
X119542000Y-73152000D01*
X119542000Y-73172000D01*
X119288000Y-73172000D01*
X119288000Y-73152000D01*
X119268000Y-73152000D01*
X119268000Y-72898000D01*
X119288000Y-72898000D01*
X119288000Y-72148750D01*
X119542000Y-72148750D01*
X119542000Y-72898000D01*
X120791250Y-72898000D01*
X120950000Y-72739250D01*
X120950000Y-72498691D01*
X120853327Y-72265302D01*
X120674699Y-72086673D01*
X120441310Y-71990000D01*
X119700750Y-71990000D01*
X119542000Y-72148750D01*
X119288000Y-72148750D01*
X119129250Y-71990000D01*
X118388690Y-71990000D01*
X118155301Y-72086673D01*
X117976673Y-72265302D01*
X117932200Y-72372669D01*
X117932200Y-71975194D01*
X118067697Y-71839697D01*
X118249396Y-71567766D01*
X118313200Y-71247000D01*
X118313200Y-70168200D01*
X118532390Y-70168200D01*
X118540910Y-70181441D01*
X118753110Y-70326431D01*
X119005000Y-70377440D01*
X119755000Y-70377440D01*
X119990317Y-70333162D01*
X120206441Y-70194090D01*
X120351431Y-69981890D01*
X120402440Y-69730000D01*
X120402440Y-68930000D01*
X120358162Y-68694683D01*
X120291671Y-68591354D01*
X120293327Y-68589698D01*
X120390000Y-68356309D01*
X120390000Y-68115750D01*
X120231250Y-67957000D01*
X119507000Y-67957000D01*
X119507000Y-67977000D01*
X119253000Y-67977000D01*
X119253000Y-67957000D01*
X119233000Y-67957000D01*
X119233000Y-67703000D01*
X119253000Y-67703000D01*
X119253000Y-66953750D01*
X119507000Y-66953750D01*
X119507000Y-67703000D01*
X120231250Y-67703000D01*
X120390000Y-67544250D01*
X120390000Y-67303691D01*
X120293327Y-67070302D01*
X120114699Y-66891673D01*
X119881310Y-66795000D01*
X119665750Y-66795000D01*
X119507000Y-66953750D01*
X119253000Y-66953750D01*
X119094250Y-66795000D01*
X118878690Y-66795000D01*
X118645301Y-66891673D01*
X118466673Y-67070302D01*
X118466206Y-67071429D01*
X118373026Y-66931974D01*
X117961008Y-66656673D01*
X117475000Y-66560000D01*
X114076052Y-66560000D01*
X113801026Y-66284974D01*
X113389008Y-66009673D01*
X112903000Y-65912999D01*
X112902995Y-65913000D01*
X112392500Y-65913000D01*
X112392500Y-65187312D01*
X114062293Y-65187312D01*
X114465762Y-65713924D01*
X115979730Y-66357307D01*
X117624666Y-66372346D01*
X119150145Y-65756750D01*
X119214238Y-65713924D01*
X119617707Y-65187312D01*
X116840000Y-62409605D01*
X114062293Y-65187312D01*
X112392500Y-65187312D01*
X112392500Y-63014666D01*
X112697654Y-63014666D01*
X113313250Y-64540145D01*
X113356076Y-64604238D01*
X113882688Y-65007707D01*
X116660395Y-62230000D01*
X117019605Y-62230000D01*
X119797312Y-65007707D01*
X120323924Y-64604238D01*
X120967307Y-63090270D01*
X120982346Y-61445334D01*
X120366750Y-59919855D01*
X120323924Y-59855762D01*
X119797312Y-59452293D01*
X117019605Y-62230000D01*
X116660395Y-62230000D01*
X113882688Y-59452293D01*
X113356076Y-59855762D01*
X112712693Y-61369730D01*
X112697654Y-63014666D01*
X112392500Y-63014666D01*
X112392500Y-59926920D01*
X112437440Y-59705000D01*
X112437440Y-59272688D01*
X114062293Y-59272688D01*
X116840000Y-62050395D01*
X119617707Y-59272688D01*
X119214238Y-58746076D01*
X117700270Y-58102693D01*
X116055334Y-58087654D01*
X114529855Y-58703250D01*
X114465762Y-58746076D01*
X114062293Y-59272688D01*
X112437440Y-59272688D01*
X112437440Y-58405000D01*
X112393162Y-58169683D01*
X112254090Y-57953559D01*
X112193266Y-57912000D01*
X121158000Y-57912000D01*
X121158000Y-116078000D01*
G36*
X87718850Y-101587560D02*
X86612456Y-101587560D01*
X86377139Y-101631838D01*
X86161015Y-101770910D01*
X86016025Y-101983110D01*
X85965016Y-102235000D01*
X85965016Y-104013000D01*
X86009294Y-104248317D01*
X86148366Y-104464441D01*
X86360566Y-104609431D01*
X86612456Y-104660440D01*
X88390456Y-104660440D01*
X88625773Y-104616162D01*
X88841897Y-104477090D01*
X88986887Y-104264890D01*
X89004737Y-104176743D01*
X89136810Y-104264991D01*
X89609424Y-104359000D01*
X90124690Y-104359000D01*
X90295270Y-104393543D01*
X90123639Y-104425838D01*
X90118725Y-104429000D01*
X89609424Y-104429000D01*
X89136810Y-104523009D01*
X88736147Y-104790723D01*
X88468433Y-105191386D01*
X88374424Y-105664000D01*
X88468433Y-106136614D01*
X88736147Y-106537277D01*
X89136810Y-106804991D01*
X89609424Y-106899000D01*
X90124690Y-106899000D01*
X90297525Y-106934000D01*
X90232646Y-106934000D01*
X89999257Y-107030673D01*
X89914456Y-107115474D01*
X89914456Y-106969000D01*
X89514456Y-106969000D01*
X89051509Y-107111610D01*
X88678376Y-107420526D01*
X88451864Y-107848719D01*
X88447994Y-107886391D01*
X88572725Y-108077000D01*
X91819456Y-108077000D01*
X91819456Y-108057000D01*
X92073456Y-108057000D01*
X92073456Y-108077000D01*
X94010206Y-108077000D01*
X94168956Y-107918250D01*
X94168956Y-107442691D01*
X94072283Y-107209302D01*
X93956673Y-107093691D01*
X94450000Y-107093691D01*
X94450000Y-107434250D01*
X94608750Y-107593000D01*
X95758000Y-107593000D01*
X95758000Y-106743750D01*
X96012000Y-106743750D01*
X96012000Y-107593000D01*
X97161250Y-107593000D01*
X97320000Y-107434250D01*
X97320000Y-107093691D01*
X97223327Y-106860302D01*
X97044699Y-106681673D01*
X96811310Y-106585000D01*
X96170750Y-106585000D01*
X96012000Y-106743750D01*
X95758000Y-106743750D01*
X95599250Y-106585000D01*
X94958690Y-106585000D01*
X94725301Y-106681673D01*
X94546673Y-106860302D01*
X94450000Y-107093691D01*
X93956673Y-107093691D01*
X93893655Y-107030673D01*
X93660266Y-106934000D01*
X93600069Y-106934000D01*
X93769273Y-106902162D01*
X93985397Y-106763090D01*
X94130387Y-106550890D01*
X94181396Y-106299000D01*
X94181396Y-105029000D01*
X94137118Y-104793683D01*
X93998046Y-104577559D01*
X93785846Y-104432569D01*
X93597642Y-104394457D01*
X93769273Y-104362162D01*
X93985397Y-104223090D01*
X94130387Y-104010890D01*
X94181396Y-103759000D01*
X94181396Y-102590600D01*
X97790000Y-102590600D01*
X97790000Y-108585000D01*
X97218025Y-108585000D01*
X97223327Y-108579698D01*
X97320000Y-108346309D01*
X97320000Y-108005750D01*
X97161250Y-107847000D01*
X96012000Y-107847000D01*
X96012000Y-107867000D01*
X95758000Y-107867000D01*
X95758000Y-107847000D01*
X94608750Y-107847000D01*
X94450000Y-108005750D01*
X94450000Y-108346309D01*
X94546673Y-108579698D01*
X94551975Y-108585000D01*
X94168956Y-108585000D01*
X94168956Y-108489750D01*
X94010206Y-108331000D01*
X92073456Y-108331000D01*
X92073456Y-108351000D01*
X91819456Y-108351000D01*
X91819456Y-108331000D01*
X88572725Y-108331000D01*
X88447994Y-108521609D01*
X88451864Y-108559281D01*
X88465469Y-108585000D01*
X76020396Y-108585000D01*
X76020396Y-107632500D01*
X75976118Y-107397183D01*
X75837046Y-107181059D01*
X75624846Y-107036069D01*
X75372956Y-106985060D01*
X74229956Y-106985060D01*
X73994639Y-107029338D01*
X73778515Y-107168410D01*
X73633525Y-107380610D01*
X73625751Y-107419001D01*
X73566765Y-107330723D01*
X73166102Y-107063009D01*
X72693488Y-106969000D01*
X72178222Y-106969000D01*
X72007642Y-106934457D01*
X72179273Y-106902162D01*
X72184187Y-106899000D01*
X72693488Y-106899000D01*
X73166102Y-106804991D01*
X73566765Y-106537277D01*
X73834479Y-106136614D01*
X73928488Y-105664000D01*
X73834479Y-105191386D01*
X73566765Y-104790723D01*
X73166102Y-104523009D01*
X72693488Y-104429000D01*
X72178222Y-104429000D01*
X72005387Y-104394000D01*
X72070266Y-104394000D01*
X72303655Y-104297327D01*
X72388456Y-104212526D01*
X72388456Y-104359000D01*
X72788456Y-104359000D01*
X73251403Y-104216390D01*
X73624536Y-103907474D01*
X73851048Y-103479281D01*
X73854918Y-103441609D01*
X73730187Y-103251000D01*
X70483456Y-103251000D01*
X70483456Y-103271000D01*
X70229456Y-103271000D01*
X70229456Y-103251000D01*
X70209456Y-103251000D01*
X70209456Y-102997000D01*
X70229456Y-102997000D01*
X70229456Y-102977000D01*
X70483456Y-102977000D01*
X70483456Y-102997000D01*
X73730187Y-102997000D01*
X73854918Y-102806391D01*
X73851048Y-102768719D01*
X73624536Y-102340526D01*
X73251403Y-102031610D01*
X72788456Y-101889000D01*
X72388456Y-101889000D01*
X72388456Y-102035474D01*
X72303655Y-101950673D01*
X72070266Y-101854000D01*
X72010069Y-101854000D01*
X72179273Y-101822162D01*
X72184187Y-101819000D01*
X72693488Y-101819000D01*
X73166102Y-101724991D01*
X73566765Y-101457277D01*
X73658089Y-101320600D01*
X87451890Y-101320600D01*
X87718850Y-101587560D01*
X87718850Y-101587560D01*
G37*
X87718850Y-101587560D02*
X86612456Y-101587560D01*
X86377139Y-101631838D01*
X86161015Y-101770910D01*
X86016025Y-101983110D01*
X85965016Y-102235000D01*
X85965016Y-104013000D01*
X86009294Y-104248317D01*
X86148366Y-104464441D01*
X86360566Y-104609431D01*
X86612456Y-104660440D01*
X88390456Y-104660440D01*
X88625773Y-104616162D01*
X88841897Y-104477090D01*
X88986887Y-104264890D01*
X89004737Y-104176743D01*
X89136810Y-104264991D01*
X89609424Y-104359000D01*
X90124690Y-104359000D01*
X90295270Y-104393543D01*
X90123639Y-104425838D01*
X90118725Y-104429000D01*
X89609424Y-104429000D01*
X89136810Y-104523009D01*
X88736147Y-104790723D01*
X88468433Y-105191386D01*
X88374424Y-105664000D01*
X88468433Y-106136614D01*
X88736147Y-106537277D01*
X89136810Y-106804991D01*
X89609424Y-106899000D01*
X90124690Y-106899000D01*
X90297525Y-106934000D01*
X90232646Y-106934000D01*
X89999257Y-107030673D01*
X89914456Y-107115474D01*
X89914456Y-106969000D01*
X89514456Y-106969000D01*
X89051509Y-107111610D01*
X88678376Y-107420526D01*
X88451864Y-107848719D01*
X88447994Y-107886391D01*
X88572725Y-108077000D01*
X91819456Y-108077000D01*
X91819456Y-108057000D01*
X92073456Y-108057000D01*
X92073456Y-108077000D01*
X94010206Y-108077000D01*
X94168956Y-107918250D01*
X94168956Y-107442691D01*
X94072283Y-107209302D01*
X93956673Y-107093691D01*
X94450000Y-107093691D01*
X94450000Y-107434250D01*
X94608750Y-107593000D01*
X95758000Y-107593000D01*
X95758000Y-106743750D01*
X96012000Y-106743750D01*
X96012000Y-107593000D01*
X97161250Y-107593000D01*
X97320000Y-107434250D01*
X97320000Y-107093691D01*
X97223327Y-106860302D01*
X97044699Y-106681673D01*
X96811310Y-106585000D01*
X96170750Y-106585000D01*
X96012000Y-106743750D01*
X95758000Y-106743750D01*
X95599250Y-106585000D01*
X94958690Y-106585000D01*
X94725301Y-106681673D01*
X94546673Y-106860302D01*
X94450000Y-107093691D01*
X93956673Y-107093691D01*
X93893655Y-107030673D01*
X93660266Y-106934000D01*
X93600069Y-106934000D01*
X93769273Y-106902162D01*
X93985397Y-106763090D01*
X94130387Y-106550890D01*
X94181396Y-106299000D01*
X94181396Y-105029000D01*
X94137118Y-104793683D01*
X93998046Y-104577559D01*
X93785846Y-104432569D01*
X93597642Y-104394457D01*
X93769273Y-104362162D01*
X93985397Y-104223090D01*
X94130387Y-104010890D01*
X94181396Y-103759000D01*
X94181396Y-102590600D01*
X97790000Y-102590600D01*
X97790000Y-108585000D01*
X97218025Y-108585000D01*
X97223327Y-108579698D01*
X97320000Y-108346309D01*
X97320000Y-108005750D01*
X97161250Y-107847000D01*
X96012000Y-107847000D01*
X96012000Y-107867000D01*
X95758000Y-107867000D01*
X95758000Y-107847000D01*
X94608750Y-107847000D01*
X94450000Y-108005750D01*
X94450000Y-108346309D01*
X94546673Y-108579698D01*
X94551975Y-108585000D01*
X94168956Y-108585000D01*
X94168956Y-108489750D01*
X94010206Y-108331000D01*
X92073456Y-108331000D01*
X92073456Y-108351000D01*
X91819456Y-108351000D01*
X91819456Y-108331000D01*
X88572725Y-108331000D01*
X88447994Y-108521609D01*
X88451864Y-108559281D01*
X88465469Y-108585000D01*
X76020396Y-108585000D01*
X76020396Y-107632500D01*
X75976118Y-107397183D01*
X75837046Y-107181059D01*
X75624846Y-107036069D01*
X75372956Y-106985060D01*
X74229956Y-106985060D01*
X73994639Y-107029338D01*
X73778515Y-107168410D01*
X73633525Y-107380610D01*
X73625751Y-107419001D01*
X73566765Y-107330723D01*
X73166102Y-107063009D01*
X72693488Y-106969000D01*
X72178222Y-106969000D01*
X72007642Y-106934457D01*
X72179273Y-106902162D01*
X72184187Y-106899000D01*
X72693488Y-106899000D01*
X73166102Y-106804991D01*
X73566765Y-106537277D01*
X73834479Y-106136614D01*
X73928488Y-105664000D01*
X73834479Y-105191386D01*
X73566765Y-104790723D01*
X73166102Y-104523009D01*
X72693488Y-104429000D01*
X72178222Y-104429000D01*
X72005387Y-104394000D01*
X72070266Y-104394000D01*
X72303655Y-104297327D01*
X72388456Y-104212526D01*
X72388456Y-104359000D01*
X72788456Y-104359000D01*
X73251403Y-104216390D01*
X73624536Y-103907474D01*
X73851048Y-103479281D01*
X73854918Y-103441609D01*
X73730187Y-103251000D01*
X70483456Y-103251000D01*
X70483456Y-103271000D01*
X70229456Y-103271000D01*
X70229456Y-103251000D01*
X70209456Y-103251000D01*
X70209456Y-102997000D01*
X70229456Y-102997000D01*
X70229456Y-102977000D01*
X70483456Y-102977000D01*
X70483456Y-102997000D01*
X73730187Y-102997000D01*
X73854918Y-102806391D01*
X73851048Y-102768719D01*
X73624536Y-102340526D01*
X73251403Y-102031610D01*
X72788456Y-101889000D01*
X72388456Y-101889000D01*
X72388456Y-102035474D01*
X72303655Y-101950673D01*
X72070266Y-101854000D01*
X72010069Y-101854000D01*
X72179273Y-101822162D01*
X72184187Y-101819000D01*
X72693488Y-101819000D01*
X73166102Y-101724991D01*
X73566765Y-101457277D01*
X73658089Y-101320600D01*
X87451890Y-101320600D01*
X87718850Y-101587560D01*
G36*
X105435400Y-97968110D02*
X105435400Y-99060000D01*
X105491470Y-99341885D01*
X105651145Y-99580855D01*
X105790690Y-99720400D01*
X104318110Y-99720400D01*
X104172710Y-99575000D01*
X104267002Y-99575000D01*
X104267002Y-99416252D01*
X104425750Y-99575000D01*
X104641310Y-99575000D01*
X104874699Y-99478327D01*
X105053327Y-99299698D01*
X105150000Y-99066309D01*
X105150000Y-98825750D01*
X104991250Y-98667000D01*
X104267000Y-98667000D01*
X104267000Y-98687000D01*
X104013000Y-98687000D01*
X104013000Y-98667000D01*
X103993000Y-98667000D01*
X103993000Y-98413000D01*
X104013000Y-98413000D01*
X104013000Y-98393000D01*
X104267000Y-98393000D01*
X104267000Y-98413000D01*
X104991250Y-98413000D01*
X105150000Y-98254250D01*
X105150000Y-98013691D01*
X105053327Y-97780302D01*
X105051957Y-97778932D01*
X105111431Y-97691890D01*
X105119472Y-97652182D01*
X105435400Y-97968110D01*
X105435400Y-97968110D01*
G37*
X105435400Y-97968110D02*
X105435400Y-99060000D01*
X105491470Y-99341885D01*
X105651145Y-99580855D01*
X105790690Y-99720400D01*
X104318110Y-99720400D01*
X104172710Y-99575000D01*
X104267002Y-99575000D01*
X104267002Y-99416252D01*
X104425750Y-99575000D01*
X104641310Y-99575000D01*
X104874699Y-99478327D01*
X105053327Y-99299698D01*
X105150000Y-99066309D01*
X105150000Y-98825750D01*
X104991250Y-98667000D01*
X104267000Y-98667000D01*
X104267000Y-98687000D01*
X104013000Y-98687000D01*
X104013000Y-98667000D01*
X103993000Y-98667000D01*
X103993000Y-98413000D01*
X104013000Y-98413000D01*
X104013000Y-98393000D01*
X104267000Y-98393000D01*
X104267000Y-98413000D01*
X104991250Y-98413000D01*
X105150000Y-98254250D01*
X105150000Y-98013691D01*
X105053327Y-97780302D01*
X105051957Y-97778932D01*
X105111431Y-97691890D01*
X105119472Y-97652182D01*
X105435400Y-97968110D01*
G36*
X112509145Y-93230855D02*
X112748115Y-93390530D01*
X113030000Y-93446600D01*
X113289920Y-93446600D01*
X113271145Y-93459145D01*
X112001145Y-94729145D01*
X111841470Y-94968115D01*
X111785400Y-95250000D01*
X111785400Y-98500890D01*
X111048534Y-99237756D01*
X110158984Y-99237756D01*
X110230000Y-99066309D01*
X110230000Y-98825750D01*
X110071250Y-98667000D01*
X109347000Y-98667000D01*
X109347000Y-98687000D01*
X109093000Y-98687000D01*
X109093000Y-98667000D01*
X108368750Y-98667000D01*
X108293230Y-98742520D01*
X107924600Y-98373890D01*
X107924600Y-96904994D01*
X108197560Y-97177954D01*
X108197560Y-97440000D01*
X108241838Y-97675317D01*
X108308329Y-97778646D01*
X108306673Y-97780302D01*
X108210000Y-98013691D01*
X108210000Y-98254250D01*
X108368750Y-98413000D01*
X109093000Y-98413000D01*
X109093000Y-98393000D01*
X109347000Y-98393000D01*
X109347000Y-98413000D01*
X110071250Y-98413000D01*
X110230000Y-98254250D01*
X110230000Y-98013691D01*
X110133327Y-97780302D01*
X110131957Y-97778932D01*
X110191431Y-97691890D01*
X110242440Y-97440000D01*
X110242440Y-96640000D01*
X110198162Y-96404683D01*
X110059090Y-96188559D01*
X109846890Y-96043569D01*
X109595000Y-95992560D01*
X109382954Y-95992560D01*
X108988001Y-95597607D01*
X109045000Y-95311052D01*
X109045000Y-93888948D01*
X109029000Y-93808510D01*
X109029000Y-93803604D01*
X109033000Y-93805000D01*
X109713000Y-93805000D01*
X109713000Y-93027000D01*
X109967000Y-93027000D01*
X109967000Y-93805000D01*
X110647000Y-93805000D01*
X110983661Y-93687510D01*
X111249734Y-93450129D01*
X111385146Y-93165609D01*
X111255364Y-93027000D01*
X109967000Y-93027000D01*
X109713000Y-93027000D01*
X109693000Y-93027000D01*
X109693000Y-93005000D01*
X110551052Y-93005000D01*
X110897381Y-92936111D01*
X111046310Y-92836600D01*
X112114890Y-92836600D01*
X112509145Y-93230855D01*
X112509145Y-93230855D01*
G37*
X112509145Y-93230855D02*
X112748115Y-93390530D01*
X113030000Y-93446600D01*
X113289920Y-93446600D01*
X113271145Y-93459145D01*
X112001145Y-94729145D01*
X111841470Y-94968115D01*
X111785400Y-95250000D01*
X111785400Y-98500890D01*
X111048534Y-99237756D01*
X110158984Y-99237756D01*
X110230000Y-99066309D01*
X110230000Y-98825750D01*
X110071250Y-98667000D01*
X109347000Y-98667000D01*
X109347000Y-98687000D01*
X109093000Y-98687000D01*
X109093000Y-98667000D01*
X108368750Y-98667000D01*
X108293230Y-98742520D01*
X107924600Y-98373890D01*
X107924600Y-96904994D01*
X108197560Y-97177954D01*
X108197560Y-97440000D01*
X108241838Y-97675317D01*
X108308329Y-97778646D01*
X108306673Y-97780302D01*
X108210000Y-98013691D01*
X108210000Y-98254250D01*
X108368750Y-98413000D01*
X109093000Y-98413000D01*
X109093000Y-98393000D01*
X109347000Y-98393000D01*
X109347000Y-98413000D01*
X110071250Y-98413000D01*
X110230000Y-98254250D01*
X110230000Y-98013691D01*
X110133327Y-97780302D01*
X110131957Y-97778932D01*
X110191431Y-97691890D01*
X110242440Y-97440000D01*
X110242440Y-96640000D01*
X110198162Y-96404683D01*
X110059090Y-96188559D01*
X109846890Y-96043569D01*
X109595000Y-95992560D01*
X109382954Y-95992560D01*
X108988001Y-95597607D01*
X109045000Y-95311052D01*
X109045000Y-93888948D01*
X109029000Y-93808510D01*
X109029000Y-93803604D01*
X109033000Y-93805000D01*
X109713000Y-93805000D01*
X109713000Y-93027000D01*
X109967000Y-93027000D01*
X109967000Y-93805000D01*
X110647000Y-93805000D01*
X110983661Y-93687510D01*
X111249734Y-93450129D01*
X111385146Y-93165609D01*
X111255364Y-93027000D01*
X109967000Y-93027000D01*
X109713000Y-93027000D01*
X109693000Y-93027000D01*
X109693000Y-93005000D01*
X110551052Y-93005000D01*
X110897381Y-92936111D01*
X111046310Y-92836600D01*
X112114890Y-92836600D01*
X112509145Y-93230855D01*
G36*
X114147780Y-96393000D02*
X115443000Y-96393000D01*
X115443000Y-96373000D01*
X115697000Y-96373000D01*
X115697000Y-96393000D01*
X115717000Y-96393000D01*
X115717000Y-96647000D01*
X115697000Y-96647000D01*
X115697000Y-96667000D01*
X115443000Y-96667000D01*
X115443000Y-96647000D01*
X114147780Y-96647000D01*
X114025280Y-96863070D01*
X114033124Y-96908540D01*
X114108043Y-97053400D01*
X114046000Y-97053400D01*
X113766600Y-97108976D01*
X113766600Y-96571110D01*
X114074306Y-96263404D01*
X114147780Y-96393000D01*
X114147780Y-96393000D01*
G37*
X114147780Y-96393000D02*
X115443000Y-96393000D01*
X115443000Y-96373000D01*
X115697000Y-96373000D01*
X115697000Y-96393000D01*
X115717000Y-96393000D01*
X115717000Y-96647000D01*
X115697000Y-96647000D01*
X115697000Y-96667000D01*
X115443000Y-96667000D01*
X115443000Y-96647000D01*
X114147780Y-96647000D01*
X114025280Y-96863070D01*
X114033124Y-96908540D01*
X114108043Y-97053400D01*
X114046000Y-97053400D01*
X113766600Y-97108976D01*
X113766600Y-96571110D01*
X114074306Y-96263404D01*
X114147780Y-96393000D01*
G36*
X114033124Y-91051460D02*
X114025280Y-91096930D01*
X114147780Y-91313000D01*
X115443000Y-91313000D01*
X115443000Y-91293000D01*
X115697000Y-91293000D01*
X115697000Y-91313000D01*
X115717000Y-91313000D01*
X115717000Y-91567000D01*
X115697000Y-91567000D01*
X115697000Y-91587000D01*
X115443000Y-91587000D01*
X115443000Y-91567000D01*
X114147780Y-91567000D01*
X114025280Y-91783070D01*
X114033124Y-91828540D01*
X114108043Y-91973400D01*
X113335110Y-91973400D01*
X112940855Y-91579145D01*
X112701885Y-91419470D01*
X112420000Y-91363400D01*
X111971510Y-91363400D01*
X112428310Y-90906600D01*
X114108043Y-90906600D01*
X114033124Y-91051460D01*
X114033124Y-91051460D01*
G37*
X114033124Y-91051460D02*
X114025280Y-91096930D01*
X114147780Y-91313000D01*
X115443000Y-91313000D01*
X115443000Y-91293000D01*
X115697000Y-91293000D01*
X115697000Y-91313000D01*
X115717000Y-91313000D01*
X115717000Y-91567000D01*
X115697000Y-91567000D01*
X115697000Y-91587000D01*
X115443000Y-91587000D01*
X115443000Y-91567000D01*
X114147780Y-91567000D01*
X114025280Y-91783070D01*
X114033124Y-91828540D01*
X114108043Y-91973400D01*
X113335110Y-91973400D01*
X112940855Y-91579145D01*
X112701885Y-91419470D01*
X112420000Y-91363400D01*
X111971510Y-91363400D01*
X112428310Y-90906600D01*
X114108043Y-90906600D01*
X114033124Y-91051460D01*
G36*
X101807424Y-74900066D02*
X101206145Y-75501345D01*
X101046470Y-75740315D01*
X100990400Y-76022200D01*
X101003400Y-76087556D01*
X101003400Y-78296282D01*
X100831310Y-78225000D01*
X100615750Y-78225000D01*
X100457000Y-78383750D01*
X100457000Y-79133000D01*
X100477000Y-79133000D01*
X100477000Y-79387000D01*
X100457000Y-79387000D01*
X100457000Y-79407000D01*
X100203000Y-79407000D01*
X100203000Y-79387000D01*
X99478750Y-79387000D01*
X99320000Y-79545750D01*
X99320000Y-79786309D01*
X99416673Y-80019698D01*
X99418043Y-80021068D01*
X99358569Y-80108110D01*
X99307560Y-80360000D01*
X99307560Y-80921042D01*
X99301800Y-80950000D01*
X99301800Y-82153121D01*
X99235000Y-82488948D01*
X99235000Y-83911052D01*
X99251000Y-83991490D01*
X99251000Y-83996396D01*
X99247000Y-83995000D01*
X98567000Y-83995000D01*
X98567000Y-84773000D01*
X98587000Y-84773000D01*
X98587000Y-84795000D01*
X98293000Y-84795000D01*
X98293000Y-84773000D01*
X98313000Y-84773000D01*
X98313000Y-83995000D01*
X97633000Y-83995000D01*
X97296339Y-84112490D01*
X97030266Y-84349871D01*
X97013535Y-84385025D01*
X96875600Y-84247090D01*
X96875600Y-78733691D01*
X99320000Y-78733691D01*
X99320000Y-78974250D01*
X99478750Y-79133000D01*
X100203000Y-79133000D01*
X100203000Y-78383750D01*
X100044250Y-78225000D01*
X99828690Y-78225000D01*
X99595301Y-78321673D01*
X99416673Y-78500302D01*
X99320000Y-78733691D01*
X96875600Y-78733691D01*
X96875600Y-78308510D01*
X99921934Y-75262176D01*
X100330000Y-75343345D01*
X100903489Y-75229271D01*
X101389670Y-74904415D01*
X101600000Y-74589634D01*
X101807424Y-74900066D01*
X101807424Y-74900066D01*
G37*
X101807424Y-74900066D02*
X101206145Y-75501345D01*
X101046470Y-75740315D01*
X100990400Y-76022200D01*
X101003400Y-76087556D01*
X101003400Y-78296282D01*
X100831310Y-78225000D01*
X100615750Y-78225000D01*
X100457000Y-78383750D01*
X100457000Y-79133000D01*
X100477000Y-79133000D01*
X100477000Y-79387000D01*
X100457000Y-79387000D01*
X100457000Y-79407000D01*
X100203000Y-79407000D01*
X100203000Y-79387000D01*
X99478750Y-79387000D01*
X99320000Y-79545750D01*
X99320000Y-79786309D01*
X99416673Y-80019698D01*
X99418043Y-80021068D01*
X99358569Y-80108110D01*
X99307560Y-80360000D01*
X99307560Y-80921042D01*
X99301800Y-80950000D01*
X99301800Y-82153121D01*
X99235000Y-82488948D01*
X99235000Y-83911052D01*
X99251000Y-83991490D01*
X99251000Y-83996396D01*
X99247000Y-83995000D01*
X98567000Y-83995000D01*
X98567000Y-84773000D01*
X98587000Y-84773000D01*
X98587000Y-84795000D01*
X98293000Y-84795000D01*
X98293000Y-84773000D01*
X98313000Y-84773000D01*
X98313000Y-83995000D01*
X97633000Y-83995000D01*
X97296339Y-84112490D01*
X97030266Y-84349871D01*
X97013535Y-84385025D01*
X96875600Y-84247090D01*
X96875600Y-78733691D01*
X99320000Y-78733691D01*
X99320000Y-78974250D01*
X99478750Y-79133000D01*
X100203000Y-79133000D01*
X100203000Y-78383750D01*
X100044250Y-78225000D01*
X99828690Y-78225000D01*
X99595301Y-78321673D01*
X99416673Y-78500302D01*
X99320000Y-78733691D01*
X96875600Y-78733691D01*
X96875600Y-78308510D01*
X99921934Y-75262176D01*
X100330000Y-75343345D01*
X100903489Y-75229271D01*
X101389670Y-74904415D01*
X101600000Y-74589634D01*
X101807424Y-74900066D01*
G36*
X91414313Y-70357977D02*
X91238792Y-70357824D01*
X90865234Y-70512175D01*
X90579179Y-70797731D01*
X90424176Y-71171018D01*
X90423824Y-71575208D01*
X90578175Y-71948766D01*
X90863731Y-72234821D01*
X91201464Y-72375061D01*
X91340175Y-72710766D01*
X91625731Y-72996821D01*
X91963464Y-73137061D01*
X92102175Y-73472766D01*
X92387731Y-73758821D01*
X92725464Y-73899061D01*
X92864175Y-74234766D01*
X93149731Y-74520821D01*
X93523018Y-74675824D01*
X93927208Y-74676176D01*
X94300766Y-74521825D01*
X94586821Y-74236269D01*
X94741824Y-73862982D01*
X94741978Y-73685732D01*
X95428110Y-72999600D01*
X96409226Y-72999600D01*
X96304816Y-73298087D01*
X96449076Y-73533000D01*
X97663000Y-73533000D01*
X97663000Y-73513000D01*
X97917000Y-73513000D01*
X97917000Y-73533000D01*
X97937000Y-73533000D01*
X97937000Y-73787000D01*
X97917000Y-73787000D01*
X97917000Y-73807000D01*
X97663000Y-73807000D01*
X97663000Y-73787000D01*
X96449076Y-73787000D01*
X96304816Y-74021913D01*
X96498046Y-74574320D01*
X96887964Y-75010732D01*
X97415209Y-75264709D01*
X97430974Y-75267358D01*
X97662998Y-75146218D01*
X97662998Y-75311000D01*
X97789690Y-75311000D01*
X95618145Y-77482545D01*
X95458470Y-77721515D01*
X95402400Y-78003400D01*
X95402400Y-84265734D01*
X94181396Y-83044730D01*
X94181396Y-82169000D01*
X94137118Y-81933683D01*
X93998046Y-81717559D01*
X93785846Y-81572569D01*
X93533956Y-81521560D01*
X90358956Y-81521560D01*
X90123639Y-81565838D01*
X90118725Y-81569000D01*
X89609424Y-81569000D01*
X89136810Y-81663009D01*
X89027000Y-81736382D01*
X89027000Y-74930000D01*
X89018315Y-74883841D01*
X88991035Y-74841447D01*
X88949410Y-74813006D01*
X88900000Y-74803000D01*
X73660000Y-74803000D01*
X73613841Y-74811685D01*
X73571447Y-74838965D01*
X73543006Y-74880590D01*
X73533000Y-74930000D01*
X73533000Y-81908162D01*
X73166102Y-81663009D01*
X72693488Y-81569000D01*
X72178222Y-81569000D01*
X71943956Y-81521560D01*
X69215000Y-81521560D01*
X69215000Y-68453000D01*
X93319290Y-68453000D01*
X91414313Y-70357977D01*
X91414313Y-70357977D01*
G37*
X91414313Y-70357977D02*
X91238792Y-70357824D01*
X90865234Y-70512175D01*
X90579179Y-70797731D01*
X90424176Y-71171018D01*
X90423824Y-71575208D01*
X90578175Y-71948766D01*
X90863731Y-72234821D01*
X91201464Y-72375061D01*
X91340175Y-72710766D01*
X91625731Y-72996821D01*
X91963464Y-73137061D01*
X92102175Y-73472766D01*
X92387731Y-73758821D01*
X92725464Y-73899061D01*
X92864175Y-74234766D01*
X93149731Y-74520821D01*
X93523018Y-74675824D01*
X93927208Y-74676176D01*
X94300766Y-74521825D01*
X94586821Y-74236269D01*
X94741824Y-73862982D01*
X94741978Y-73685732D01*
X95428110Y-72999600D01*
X96409226Y-72999600D01*
X96304816Y-73298087D01*
X96449076Y-73533000D01*
X97663000Y-73533000D01*
X97663000Y-73513000D01*
X97917000Y-73513000D01*
X97917000Y-73533000D01*
X97937000Y-73533000D01*
X97937000Y-73787000D01*
X97917000Y-73787000D01*
X97917000Y-73807000D01*
X97663000Y-73807000D01*
X97663000Y-73787000D01*
X96449076Y-73787000D01*
X96304816Y-74021913D01*
X96498046Y-74574320D01*
X96887964Y-75010732D01*
X97415209Y-75264709D01*
X97430974Y-75267358D01*
X97662998Y-75146218D01*
X97662998Y-75311000D01*
X97789690Y-75311000D01*
X95618145Y-77482545D01*
X95458470Y-77721515D01*
X95402400Y-78003400D01*
X95402400Y-84265734D01*
X94181396Y-83044730D01*
X94181396Y-82169000D01*
X94137118Y-81933683D01*
X93998046Y-81717559D01*
X93785846Y-81572569D01*
X93533956Y-81521560D01*
X90358956Y-81521560D01*
X90123639Y-81565838D01*
X90118725Y-81569000D01*
X89609424Y-81569000D01*
X89136810Y-81663009D01*
X89027000Y-81736382D01*
X89027000Y-74930000D01*
X89018315Y-74883841D01*
X88991035Y-74841447D01*
X88949410Y-74813006D01*
X88900000Y-74803000D01*
X73660000Y-74803000D01*
X73613841Y-74811685D01*
X73571447Y-74838965D01*
X73543006Y-74880590D01*
X73533000Y-74930000D01*
X73533000Y-81908162D01*
X73166102Y-81663009D01*
X72693488Y-81569000D01*
X72178222Y-81569000D01*
X71943956Y-81521560D01*
X69215000Y-81521560D01*
X69215000Y-68453000D01*
X93319290Y-68453000D01*
X91414313Y-70357977D01*
G36*
X109023238Y-74911317D02*
X109162310Y-75127441D01*
X109220000Y-75166859D01*
X109220000Y-75528949D01*
X105258948Y-79490000D01*
X105094250Y-79490000D01*
X104991250Y-79387000D01*
X104267000Y-79387000D01*
X104267000Y-79407000D01*
X104013000Y-79407000D01*
X104013000Y-79387000D01*
X103993000Y-79387000D01*
X103993000Y-79133000D01*
X104013000Y-79133000D01*
X104013000Y-78383750D01*
X104267000Y-78383750D01*
X104267000Y-79133000D01*
X104991250Y-79133000D01*
X105150000Y-78974250D01*
X105150000Y-78733691D01*
X105053327Y-78500302D01*
X104874699Y-78321673D01*
X104641310Y-78225000D01*
X104425750Y-78225000D01*
X104267000Y-78383750D01*
X104013000Y-78383750D01*
X103936790Y-78307540D01*
X103936790Y-77317920D01*
X104572110Y-76682600D01*
X105816400Y-76682600D01*
X106098285Y-76626530D01*
X106337255Y-76466855D01*
X107541934Y-75262176D01*
X107950000Y-75343345D01*
X108523489Y-75229271D01*
X109009670Y-74904415D01*
X109019243Y-74890087D01*
X109023238Y-74911317D01*
X109023238Y-74911317D01*
G37*
X109023238Y-74911317D02*
X109162310Y-75127441D01*
X109220000Y-75166859D01*
X109220000Y-75528949D01*
X105258948Y-79490000D01*
X105094250Y-79490000D01*
X104991250Y-79387000D01*
X104267000Y-79387000D01*
X104267000Y-79407000D01*
X104013000Y-79407000D01*
X104013000Y-79387000D01*
X103993000Y-79387000D01*
X103993000Y-79133000D01*
X104013000Y-79133000D01*
X104013000Y-78383750D01*
X104267000Y-78383750D01*
X104267000Y-79133000D01*
X104991250Y-79133000D01*
X105150000Y-78974250D01*
X105150000Y-78733691D01*
X105053327Y-78500302D01*
X104874699Y-78321673D01*
X104641310Y-78225000D01*
X104425750Y-78225000D01*
X104267000Y-78383750D01*
X104013000Y-78383750D01*
X103936790Y-78307540D01*
X103936790Y-77317920D01*
X104572110Y-76682600D01*
X105816400Y-76682600D01*
X106098285Y-76626530D01*
X106337255Y-76466855D01*
X107541934Y-75262176D01*
X107950000Y-75343345D01*
X108523489Y-75229271D01*
X109009670Y-74904415D01*
X109019243Y-74890087D01*
X109023238Y-74911317D01*
G36*
X96304816Y-69488087D02*
X96449076Y-69723000D01*
X97663000Y-69723000D01*
X97663000Y-69703000D01*
X97917000Y-69703000D01*
X97917000Y-69723000D01*
X97937000Y-69723000D01*
X97937000Y-69977000D01*
X97917000Y-69977000D01*
X97917000Y-69997000D01*
X97663000Y-69997000D01*
X97663000Y-69977000D01*
X96449076Y-69977000D01*
X96304816Y-70211913D01*
X96400337Y-70484989D01*
X93370721Y-70484989D01*
X94589920Y-69265790D01*
X96382575Y-69265790D01*
X96304816Y-69488087D01*
X96304816Y-69488087D01*
G37*
X96304816Y-69488087D02*
X96449076Y-69723000D01*
X97663000Y-69723000D01*
X97663000Y-69703000D01*
X97917000Y-69703000D01*
X97917000Y-69723000D01*
X97937000Y-69723000D01*
X97937000Y-69977000D01*
X97917000Y-69977000D01*
X97917000Y-69997000D01*
X97663000Y-69997000D01*
X97663000Y-69977000D01*
X96449076Y-69977000D01*
X96304816Y-70211913D01*
X96400337Y-70484989D01*
X93370721Y-70484989D01*
X94589920Y-69265790D01*
X96382575Y-69265790D01*
X96304816Y-69488087D01*
G36*
X108738559Y-57940910D02*
X108593569Y-58153110D01*
X108560097Y-58318400D01*
X108250162Y-58318400D01*
X108144090Y-58153559D01*
X107931890Y-58008569D01*
X107680000Y-57957560D01*
X107180000Y-57957560D01*
X106944683Y-58001838D01*
X106728559Y-58140910D01*
X106682031Y-58209006D01*
X106539698Y-58066673D01*
X106306309Y-57970000D01*
X106213750Y-57970000D01*
X106055000Y-58128750D01*
X106055000Y-58928000D01*
X106077000Y-58928000D01*
X106077000Y-59182000D01*
X106055000Y-59182000D01*
X106055000Y-59981250D01*
X106213750Y-60140000D01*
X106306309Y-60140000D01*
X106539698Y-60043327D01*
X106680936Y-59902090D01*
X106715910Y-59956441D01*
X106928110Y-60101431D01*
X107180000Y-60152440D01*
X107680000Y-60152440D01*
X107915317Y-60108162D01*
X108131441Y-59969090D01*
X108252715Y-59791600D01*
X108558855Y-59791600D01*
X108586838Y-59940317D01*
X108725910Y-60156441D01*
X108803400Y-60209388D01*
X108803400Y-64144890D01*
X108279890Y-64668400D01*
X88330273Y-64668400D01*
X88206269Y-64544179D01*
X87832982Y-64389176D01*
X87428792Y-64388824D01*
X87055234Y-64543175D01*
X86769179Y-64828731D01*
X86614176Y-65202018D01*
X86613824Y-65606208D01*
X86740588Y-65913000D01*
X69215000Y-65913000D01*
X69215000Y-59340750D01*
X105045000Y-59340750D01*
X105045000Y-59631310D01*
X105141673Y-59864699D01*
X105320302Y-60043327D01*
X105553691Y-60140000D01*
X105646250Y-60140000D01*
X105805000Y-59981250D01*
X105805000Y-59182000D01*
X105203750Y-59182000D01*
X105045000Y-59340750D01*
X69215000Y-59340750D01*
X69215000Y-58478690D01*
X105045000Y-58478690D01*
X105045000Y-58769250D01*
X105203750Y-58928000D01*
X105805000Y-58928000D01*
X105805000Y-58128750D01*
X105646250Y-57970000D01*
X105553691Y-57970000D01*
X105320302Y-58066673D01*
X105141673Y-58245301D01*
X105045000Y-58478690D01*
X69215000Y-58478690D01*
X69215000Y-57912000D01*
X108783486Y-57912000D01*
X108738559Y-57940910D01*
X108738559Y-57940910D01*
G37*
X108738559Y-57940910D02*
X108593569Y-58153110D01*
X108560097Y-58318400D01*
X108250162Y-58318400D01*
X108144090Y-58153559D01*
X107931890Y-58008569D01*
X107680000Y-57957560D01*
X107180000Y-57957560D01*
X106944683Y-58001838D01*
X106728559Y-58140910D01*
X106682031Y-58209006D01*
X106539698Y-58066673D01*
X106306309Y-57970000D01*
X106213750Y-57970000D01*
X106055000Y-58128750D01*
X106055000Y-58928000D01*
X106077000Y-58928000D01*
X106077000Y-59182000D01*
X106055000Y-59182000D01*
X106055000Y-59981250D01*
X106213750Y-60140000D01*
X106306309Y-60140000D01*
X106539698Y-60043327D01*
X106680936Y-59902090D01*
X106715910Y-59956441D01*
X106928110Y-60101431D01*
X107180000Y-60152440D01*
X107680000Y-60152440D01*
X107915317Y-60108162D01*
X108131441Y-59969090D01*
X108252715Y-59791600D01*
X108558855Y-59791600D01*
X108586838Y-59940317D01*
X108725910Y-60156441D01*
X108803400Y-60209388D01*
X108803400Y-64144890D01*
X108279890Y-64668400D01*
X88330273Y-64668400D01*
X88206269Y-64544179D01*
X87832982Y-64389176D01*
X87428792Y-64388824D01*
X87055234Y-64543175D01*
X86769179Y-64828731D01*
X86614176Y-65202018D01*
X86613824Y-65606208D01*
X86740588Y-65913000D01*
X69215000Y-65913000D01*
X69215000Y-59340750D01*
X105045000Y-59340750D01*
X105045000Y-59631310D01*
X105141673Y-59864699D01*
X105320302Y-60043327D01*
X105553691Y-60140000D01*
X105646250Y-60140000D01*
X105805000Y-59981250D01*
X105805000Y-59182000D01*
X105203750Y-59182000D01*
X105045000Y-59340750D01*
X69215000Y-59340750D01*
X69215000Y-58478690D01*
X105045000Y-58478690D01*
X105045000Y-58769250D01*
X105203750Y-58928000D01*
X105805000Y-58928000D01*
X105805000Y-58128750D01*
X105646250Y-57970000D01*
X105553691Y-57970000D01*
X105320302Y-58066673D01*
X105141673Y-58245301D01*
X105045000Y-58478690D01*
X69215000Y-58478690D01*
X69215000Y-57912000D01*
X108783486Y-57912000D01*
X108738559Y-57940910D01*
M02*
