M48
;DRILL file {KiCad 4.0.6} date 04/12/17 01:17:07
;FORMAT={2:4/ absolute / inch / suppress leading zeros}
FMAT,2
INCH,TZ
T1C0.015
T2C0.020
T3C0.039
T4C0.040
T5C0.067
T6C0.104
T7C0.138
%
G90
G05
M72
T1
X25700Y-38250
X26019Y-37731
X26050Y-39850
X26054Y-38188
X26446Y-39685
X26500Y-41250
X26722Y-38134
X26780Y-40560
X27100Y-40560
X27420Y-40560
X27740Y-40560
X28060Y-40560
X28380Y-40560
X28850Y-38200
X29050Y-39403
X29100Y-40350
X29750Y-39900
X30500Y-23250
X30500Y-26450
X30800Y-38350
X30950Y-38600
X31000Y-38100
X31050Y-45250
X31150Y-38350
X31150Y-38850
X31300Y-38100
X31300Y-38600
X31450Y-38350
X31450Y-38850
X31500Y-45250
X31600Y-38100
X31650Y-38600
X31750Y-38850
X32050Y-38850
X32250Y-42000
X32250Y-42500
X32250Y-43000
X32250Y-43500
X32250Y-44000
X32250Y-44500
X32350Y-38850
X32450Y-28100
X32450Y-28100
X32750Y-44000
X32750Y-44500
X32809Y-28100
X33250Y-44050
X33250Y-44500
X33300Y-25200
X33500Y-28750
X33600Y-39550
X33750Y-24850
X33800Y-26500
X36350Y-44000
X36350Y-44350
X36350Y-44700
X36700Y-44000
X36700Y-44350
X36700Y-44700
X37100Y-44000
X37100Y-44350
X37100Y-44700
X37500Y-44000
X37500Y-44350
X37500Y-44700
X40000Y-26200
X40450Y-29450
X40450Y-30050
X40500Y-27300
X40500Y-27900
X40500Y-28250
X40850Y-30050
X41000Y-39000
X41300Y-30150
X42350Y-33600
X44200Y-29000
X44500Y-29000
X44800Y-29000
X45700Y-41500
X46850Y-42050
T2
X21360Y-38902
X21663Y-38171
X21663Y-39632
X22394Y-37868
X22394Y-39935
X23124Y-38171
X23124Y-39632
X23427Y-38902
X44967Y-24500
X44967Y-44000
X45269Y-23769
X45269Y-25231
X45269Y-43269
X45269Y-44731
X46000Y-23467
X46000Y-25533
X46000Y-42967
X46000Y-45033
X46731Y-23769
X46731Y-25231
X46731Y-43269
X46731Y-44731
X47033Y-24500
X47033Y-44000
T4
X31500Y-24250
X31500Y-31250
X32500Y-24250
X32500Y-31250
X33500Y-24250
X33500Y-31250
X34500Y-24250
X34500Y-31250
X35500Y-24250
X35500Y-31250
X36500Y-24250
X36500Y-31250
X37500Y-24250
X37500Y-31250
X38500Y-24250
X38500Y-31250
X39500Y-24250
X39500Y-31250
X40500Y-24250
X40500Y-31250
X41500Y-24250
X41500Y-31250
X42500Y-24250
X42500Y-31250
X42500Y-40000
X42500Y-41000
X42500Y-42000
X42500Y-43000
X42500Y-44000
X42500Y-45000
X43500Y-40000
X43500Y-41000
X43500Y-42000
X43500Y-43000
X43500Y-44000
X43500Y-45000
X45500Y-32000
X45500Y-33000
X45500Y-34000
X45500Y-35000
X45500Y-36000
X45500Y-37000
X45500Y-38000
X45500Y-39000
X46500Y-26750
X46500Y-27750
X46500Y-28750
X46500Y-32000
X46500Y-33000
X46500Y-34000
X46500Y-35000
X46500Y-36000
X46500Y-37000
X46500Y-38000
X46500Y-39000
T5
X21500Y-24500
X21500Y-28000
X21500Y-31500
X21500Y-35000
T6
X25500Y-24500
X25500Y-28000
X25500Y-31500
X25500Y-35000
T7
X22394Y-38902
X46000Y-24500
X46000Y-44000
T3
X23079Y-43492G85X23079Y-42508
G05
X23768Y-44850G85X24752Y-44850
G05
X25441Y-42508G85X25441Y-43492
G05
T0
M30
