G04 #@! TF.FileFunction,Legend,Top*
%FSLAX46Y46*%
G04 Gerber Fmt 4.6, Leading zero omitted, Abs format (unit mm)*
G04 Created by KiCad (PCBNEW 4.0.4-stable) date 12/21/16 23:30:34*
%MOMM*%
%LPD*%
G01*
G04 APERTURE LIST*
%ADD10C,0.254000*%
%ADD11C,0.200000*%
%ADD12C,0.100000*%
%ADD13C,0.150000*%
%ADD14O,2.311400X1.930400*%
%ADD15R,2.311400X1.930400*%
%ADD16O,2.406400X1.606400*%
%ADD17R,3.581400X1.676400*%
%ADD18R,2.184400X2.184400*%
%ADD19R,1.549400X1.549400*%
%ADD20R,1.930400X2.184400*%
%ADD21R,4.005580X2.006600*%
%ADD22R,1.156400X1.206400*%
%ADD23C,2.946400*%
%ADD24C,4.216400*%
%ADD25R,1.106400X1.706400*%
%ADD26R,1.306400X0.906400*%
%ADD27R,0.906400X1.306400*%
%ADD28O,0.946400X2.306400*%
%ADD29O,2.306400X0.946400*%
%ADD30R,2.206400X1.206400*%
%ADD31R,2.133600X2.438400*%
%ADD32O,2.133600X2.438400*%
%ADD33C,7.406400*%
%ADD34C,1.006400*%
%ADD35R,2.006400X1.406400*%
%ADD36R,2.905760X2.207260*%
%ADD37R,4.406400X4.406400*%
G04 APERTURE END LIST*
D10*
D11*
X118491000Y-78486000D02*
X118491000Y-77724000D01*
X121539000Y-78486000D02*
X118491000Y-78486000D01*
X121539000Y-71374000D02*
X121539000Y-78486000D01*
X118491000Y-71374000D02*
X121539000Y-71374000D01*
X118491000Y-72136000D02*
X118491000Y-71374000D01*
X120904000Y-92202000D02*
X119888000Y-92202000D01*
X120904000Y-88138000D02*
X120904000Y-92202000D01*
X119888000Y-88138000D02*
X120904000Y-88138000D01*
X119888000Y-102870000D02*
X113792000Y-102870000D01*
X119888000Y-77343000D02*
X119888000Y-102870000D01*
X113792000Y-77343000D02*
X119888000Y-77343000D01*
X113792000Y-102870000D02*
X113792000Y-77343000D01*
D10*
X63711667Y-102809524D02*
X63711667Y-103716667D01*
X63651191Y-103898095D01*
X63530239Y-104019048D01*
X63348810Y-104079524D01*
X63227858Y-104079524D01*
X64981667Y-104079524D02*
X64255953Y-104079524D01*
X64618810Y-104079524D02*
X64618810Y-102809524D01*
X64497858Y-102990952D01*
X64376905Y-103111905D01*
X64255953Y-103172381D01*
X116416667Y-78044524D02*
X116416667Y-78951667D01*
X116356191Y-79133095D01*
X116235239Y-79254048D01*
X116053810Y-79314524D01*
X115932858Y-79314524D01*
X116900477Y-78044524D02*
X117747143Y-78044524D01*
X117202858Y-79314524D01*
D11*
X98552000Y-94488000D02*
G75*
G03X98552000Y-94488000I-635000J0D01*
G01*
D10*
X52281667Y-58994524D02*
X52281667Y-57724524D01*
X52765476Y-57724524D01*
X52886429Y-57785000D01*
X52946905Y-57845476D01*
X53007381Y-57966429D01*
X53007381Y-58147857D01*
X52946905Y-58268810D01*
X52886429Y-58329286D01*
X52765476Y-58389762D01*
X52281667Y-58389762D01*
X53430715Y-57724524D02*
X53733096Y-58994524D01*
X53975000Y-58087381D01*
X54216905Y-58994524D01*
X54519286Y-57724524D01*
X55728810Y-58994524D02*
X55305477Y-58389762D01*
X55003096Y-58994524D02*
X55003096Y-57724524D01*
X55486905Y-57724524D01*
X55607858Y-57785000D01*
X55668334Y-57845476D01*
X55728810Y-57966429D01*
X55728810Y-58147857D01*
X55668334Y-58268810D01*
X55607858Y-58329286D01*
X55486905Y-58389762D01*
X55003096Y-58389762D01*
X53642381Y-66675000D02*
X53521429Y-66614524D01*
X53340000Y-66614524D01*
X53158572Y-66675000D01*
X53037619Y-66795952D01*
X52977143Y-66916905D01*
X52916667Y-67158810D01*
X52916667Y-67340238D01*
X52977143Y-67582143D01*
X53037619Y-67703095D01*
X53158572Y-67824048D01*
X53340000Y-67884524D01*
X53460952Y-67884524D01*
X53642381Y-67824048D01*
X53702857Y-67763571D01*
X53702857Y-67340238D01*
X53460952Y-67340238D01*
X54247143Y-67884524D02*
X54247143Y-66614524D01*
X54972857Y-67884524D01*
X54972857Y-66614524D01*
X55577619Y-67884524D02*
X55577619Y-66614524D01*
X55880000Y-66614524D01*
X56061428Y-66675000D01*
X56182381Y-66795952D01*
X56242857Y-66916905D01*
X56303333Y-67158810D01*
X56303333Y-67340238D01*
X56242857Y-67582143D01*
X56182381Y-67703095D01*
X56061428Y-67824048D01*
X55880000Y-67884524D01*
X55577619Y-67884524D01*
X52916667Y-76774524D02*
X52916667Y-75504524D01*
X53400476Y-75504524D01*
X53521429Y-75565000D01*
X53581905Y-75625476D01*
X53642381Y-75746429D01*
X53642381Y-75927857D01*
X53581905Y-76048810D01*
X53521429Y-76109286D01*
X53400476Y-76169762D01*
X52916667Y-76169762D01*
X54065715Y-75504524D02*
X54368096Y-76774524D01*
X54610000Y-75867381D01*
X54851905Y-76774524D01*
X55154286Y-75504524D01*
X56363810Y-76774524D02*
X55940477Y-76169762D01*
X55638096Y-76774524D02*
X55638096Y-75504524D01*
X56121905Y-75504524D01*
X56242858Y-75565000D01*
X56303334Y-75625476D01*
X56363810Y-75746429D01*
X56363810Y-75927857D01*
X56303334Y-76048810D01*
X56242858Y-76109286D01*
X56121905Y-76169762D01*
X55638096Y-76169762D01*
X53642381Y-84455000D02*
X53521429Y-84394524D01*
X53340000Y-84394524D01*
X53158572Y-84455000D01*
X53037619Y-84575952D01*
X52977143Y-84696905D01*
X52916667Y-84938810D01*
X52916667Y-85120238D01*
X52977143Y-85362143D01*
X53037619Y-85483095D01*
X53158572Y-85604048D01*
X53340000Y-85664524D01*
X53460952Y-85664524D01*
X53642381Y-85604048D01*
X53702857Y-85543571D01*
X53702857Y-85120238D01*
X53460952Y-85120238D01*
X54247143Y-85664524D02*
X54247143Y-84394524D01*
X54972857Y-85664524D01*
X54972857Y-84394524D01*
X55577619Y-85664524D02*
X55577619Y-84394524D01*
X55880000Y-84394524D01*
X56061428Y-84455000D01*
X56182381Y-84575952D01*
X56242857Y-84696905D01*
X56303333Y-84938810D01*
X56303333Y-85120238D01*
X56242857Y-85362143D01*
X56182381Y-85483095D01*
X56061428Y-85604048D01*
X55880000Y-85664524D01*
X55577619Y-85664524D01*
D11*
X54229000Y-115062000D02*
X54991000Y-115062000D01*
X58166000Y-114681000D02*
X58166000Y-115443000D01*
X57785000Y-115062000D02*
X58547000Y-115062000D01*
X55753000Y-115062000D02*
X55372000Y-115062000D01*
X56515000Y-115062000D02*
X57404000Y-115062000D01*
X56515000Y-114300000D02*
G75*
G03X56515000Y-115824000I0J-762000D01*
G01*
X56642000Y-115062000D02*
G75*
G03X56642000Y-115062000I-127000J0D01*
G01*
X56694605Y-115062000D02*
G75*
G03X56694605Y-115062000I-179605J0D01*
G01*
X56896000Y-115062000D02*
G75*
G03X56896000Y-115062000I-381000J0D01*
G01*
D10*
X65677143Y-114239524D02*
X65072381Y-114239524D01*
X65011905Y-114844286D01*
X65072381Y-114783810D01*
X65193333Y-114723333D01*
X65495714Y-114723333D01*
X65616667Y-114783810D01*
X65677143Y-114844286D01*
X65737619Y-114965238D01*
X65737619Y-115267619D01*
X65677143Y-115388571D01*
X65616667Y-115449048D01*
X65495714Y-115509524D01*
X65193333Y-115509524D01*
X65072381Y-115449048D01*
X65011905Y-115388571D01*
X66100476Y-114239524D02*
X66523810Y-115509524D01*
X66947143Y-114239524D01*
X67370476Y-115509524D02*
X67370476Y-114239524D01*
X67672857Y-114239524D01*
X67854285Y-114300000D01*
X67975238Y-114420952D01*
X68035714Y-114541905D01*
X68096190Y-114783810D01*
X68096190Y-114965238D01*
X68035714Y-115207143D01*
X67975238Y-115328095D01*
X67854285Y-115449048D01*
X67672857Y-115509524D01*
X67370476Y-115509524D01*
X69366190Y-115388571D02*
X69305714Y-115449048D01*
X69124285Y-115509524D01*
X69003333Y-115509524D01*
X68821905Y-115449048D01*
X68700952Y-115328095D01*
X68640476Y-115207143D01*
X68580000Y-114965238D01*
X68580000Y-114783810D01*
X68640476Y-114541905D01*
X68700952Y-114420952D01*
X68821905Y-114300000D01*
X69003333Y-114239524D01*
X69124285Y-114239524D01*
X69305714Y-114300000D01*
X69366190Y-114360476D01*
D11*
X68707000Y-113030000D02*
X69088000Y-113030000D01*
X67945000Y-113030000D02*
X68326000Y-113030000D01*
X67183000Y-113030000D02*
X67564000Y-113030000D01*
X66421000Y-113030000D02*
X66802000Y-113030000D01*
X66421000Y-112649000D02*
X69088000Y-112649000D01*
D10*
X77772381Y-60010524D02*
X77772381Y-58740524D01*
X78377143Y-59163857D02*
X78377143Y-60010524D01*
X78377143Y-59284810D02*
X78437619Y-59224333D01*
X78558572Y-59163857D01*
X78740000Y-59163857D01*
X78860952Y-59224333D01*
X78921429Y-59345286D01*
X78921429Y-60010524D01*
X79344762Y-59163857D02*
X79828572Y-59163857D01*
X79526191Y-58740524D02*
X79526191Y-59829095D01*
X79586667Y-59950048D01*
X79707620Y-60010524D01*
X79828572Y-60010524D01*
X80735714Y-59950048D02*
X80614762Y-60010524D01*
X80372857Y-60010524D01*
X80251905Y-59950048D01*
X80191429Y-59829095D01*
X80191429Y-59345286D01*
X80251905Y-59224333D01*
X80372857Y-59163857D01*
X80614762Y-59163857D01*
X80735714Y-59224333D01*
X80796191Y-59345286D01*
X80796191Y-59466238D01*
X80191429Y-59587190D01*
X81340476Y-60010524D02*
X81340476Y-59163857D01*
X81340476Y-59405762D02*
X81400952Y-59284810D01*
X81461428Y-59224333D01*
X81582381Y-59163857D01*
X81703333Y-59163857D01*
X82126666Y-59163857D02*
X82126666Y-60010524D01*
X82126666Y-59284810D02*
X82187142Y-59224333D01*
X82308095Y-59163857D01*
X82489523Y-59163857D01*
X82610475Y-59224333D01*
X82670952Y-59345286D01*
X82670952Y-60010524D01*
X83759523Y-59950048D02*
X83638571Y-60010524D01*
X83396666Y-60010524D01*
X83275714Y-59950048D01*
X83215238Y-59829095D01*
X83215238Y-59345286D01*
X83275714Y-59224333D01*
X83396666Y-59163857D01*
X83638571Y-59163857D01*
X83759523Y-59224333D01*
X83820000Y-59345286D01*
X83820000Y-59466238D01*
X83215238Y-59587190D01*
X84182856Y-59163857D02*
X84666666Y-59163857D01*
X84364285Y-58740524D02*
X84364285Y-59829095D01*
X84424761Y-59950048D01*
X84545714Y-60010524D01*
X84666666Y-60010524D01*
X85936666Y-58740524D02*
X86239047Y-60010524D01*
X86480951Y-59103381D01*
X86722856Y-60010524D01*
X87025237Y-58740524D01*
X87509047Y-60010524D02*
X87509047Y-59163857D01*
X87509047Y-58740524D02*
X87448571Y-58801000D01*
X87509047Y-58861476D01*
X87569523Y-58801000D01*
X87509047Y-58740524D01*
X87509047Y-58861476D01*
X88113809Y-59163857D02*
X88113809Y-60010524D01*
X88113809Y-59284810D02*
X88174285Y-59224333D01*
X88295238Y-59163857D01*
X88476666Y-59163857D01*
X88597618Y-59224333D01*
X88658095Y-59345286D01*
X88658095Y-60010524D01*
X89807143Y-60010524D02*
X89807143Y-58740524D01*
X89807143Y-59950048D02*
X89686190Y-60010524D01*
X89444286Y-60010524D01*
X89323333Y-59950048D01*
X89262857Y-59889571D01*
X89202381Y-59768619D01*
X89202381Y-59405762D01*
X89262857Y-59284810D01*
X89323333Y-59224333D01*
X89444286Y-59163857D01*
X89686190Y-59163857D01*
X89807143Y-59224333D01*
X90593334Y-60010524D02*
X90472381Y-59950048D01*
X90411905Y-59889571D01*
X90351429Y-59768619D01*
X90351429Y-59405762D01*
X90411905Y-59284810D01*
X90472381Y-59224333D01*
X90593334Y-59163857D01*
X90774762Y-59163857D01*
X90895714Y-59224333D01*
X90956191Y-59284810D01*
X91016667Y-59405762D01*
X91016667Y-59768619D01*
X90956191Y-59889571D01*
X90895714Y-59950048D01*
X90774762Y-60010524D01*
X90593334Y-60010524D01*
X91440001Y-59163857D02*
X91681905Y-60010524D01*
X91923810Y-59405762D01*
X92165715Y-60010524D01*
X92407620Y-59163857D01*
X94282381Y-59345286D02*
X94463810Y-59405762D01*
X94524286Y-59466238D01*
X94584762Y-59587190D01*
X94584762Y-59768619D01*
X94524286Y-59889571D01*
X94463810Y-59950048D01*
X94342857Y-60010524D01*
X93859048Y-60010524D01*
X93859048Y-58740524D01*
X94282381Y-58740524D01*
X94403334Y-58801000D01*
X94463810Y-58861476D01*
X94524286Y-58982429D01*
X94524286Y-59103381D01*
X94463810Y-59224333D01*
X94403334Y-59284810D01*
X94282381Y-59345286D01*
X93859048Y-59345286D01*
X95673334Y-60010524D02*
X95673334Y-59345286D01*
X95612857Y-59224333D01*
X95491905Y-59163857D01*
X95250000Y-59163857D01*
X95129048Y-59224333D01*
X95673334Y-59950048D02*
X95552381Y-60010524D01*
X95250000Y-60010524D01*
X95129048Y-59950048D01*
X95068572Y-59829095D01*
X95068572Y-59708143D01*
X95129048Y-59587190D01*
X95250000Y-59526714D01*
X95552381Y-59526714D01*
X95673334Y-59466238D01*
X96822382Y-59950048D02*
X96701429Y-60010524D01*
X96459525Y-60010524D01*
X96338572Y-59950048D01*
X96278096Y-59889571D01*
X96217620Y-59768619D01*
X96217620Y-59405762D01*
X96278096Y-59284810D01*
X96338572Y-59224333D01*
X96459525Y-59163857D01*
X96701429Y-59163857D01*
X96822382Y-59224333D01*
X97366667Y-60010524D02*
X97366667Y-58740524D01*
X97487619Y-59526714D02*
X97850476Y-60010524D01*
X97850476Y-59163857D02*
X97366667Y-59647667D01*
X98394762Y-59163857D02*
X98394762Y-60433857D01*
X98394762Y-59224333D02*
X98515714Y-59163857D01*
X98757619Y-59163857D01*
X98878571Y-59224333D01*
X98939048Y-59284810D01*
X98999524Y-59405762D01*
X98999524Y-59768619D01*
X98939048Y-59889571D01*
X98878571Y-59950048D01*
X98757619Y-60010524D01*
X98515714Y-60010524D01*
X98394762Y-59950048D01*
X100088096Y-60010524D02*
X100088096Y-59345286D01*
X100027619Y-59224333D01*
X99906667Y-59163857D01*
X99664762Y-59163857D01*
X99543810Y-59224333D01*
X100088096Y-59950048D02*
X99967143Y-60010524D01*
X99664762Y-60010524D01*
X99543810Y-59950048D01*
X99483334Y-59829095D01*
X99483334Y-59708143D01*
X99543810Y-59587190D01*
X99664762Y-59526714D01*
X99967143Y-59526714D01*
X100088096Y-59466238D01*
X101237144Y-59950048D02*
X101116191Y-60010524D01*
X100874287Y-60010524D01*
X100753334Y-59950048D01*
X100692858Y-59889571D01*
X100632382Y-59768619D01*
X100632382Y-59405762D01*
X100692858Y-59284810D01*
X100753334Y-59224333D01*
X100874287Y-59163857D01*
X101116191Y-59163857D01*
X101237144Y-59224333D01*
X101781429Y-60010524D02*
X101781429Y-58740524D01*
X101902381Y-59526714D02*
X102265238Y-60010524D01*
X102265238Y-59163857D02*
X101781429Y-59647667D01*
X78498095Y-62169524D02*
X78074762Y-61564762D01*
X77772381Y-62169524D02*
X77772381Y-60899524D01*
X78256190Y-60899524D01*
X78377143Y-60960000D01*
X78437619Y-61020476D01*
X78498095Y-61141429D01*
X78498095Y-61322857D01*
X78437619Y-61443810D01*
X78377143Y-61504286D01*
X78256190Y-61564762D01*
X77772381Y-61564762D01*
X79526190Y-62109048D02*
X79405238Y-62169524D01*
X79163333Y-62169524D01*
X79042381Y-62109048D01*
X78981905Y-61988095D01*
X78981905Y-61504286D01*
X79042381Y-61383333D01*
X79163333Y-61322857D01*
X79405238Y-61322857D01*
X79526190Y-61383333D01*
X79586667Y-61504286D01*
X79586667Y-61625238D01*
X78981905Y-61746190D01*
X80675238Y-62109048D02*
X80554285Y-62169524D01*
X80312381Y-62169524D01*
X80191428Y-62109048D01*
X80130952Y-62048571D01*
X80070476Y-61927619D01*
X80070476Y-61564762D01*
X80130952Y-61443810D01*
X80191428Y-61383333D01*
X80312381Y-61322857D01*
X80554285Y-61322857D01*
X80675238Y-61383333D01*
X81400952Y-62169524D02*
X81279999Y-62109048D01*
X81219523Y-61988095D01*
X81219523Y-60899524D01*
X82429047Y-62169524D02*
X82429047Y-61504286D01*
X82368570Y-61383333D01*
X82247618Y-61322857D01*
X82005713Y-61322857D01*
X81884761Y-61383333D01*
X82429047Y-62109048D02*
X82308094Y-62169524D01*
X82005713Y-62169524D01*
X81884761Y-62109048D01*
X81824285Y-61988095D01*
X81824285Y-61867143D01*
X81884761Y-61746190D01*
X82005713Y-61685714D01*
X82308094Y-61685714D01*
X82429047Y-61625238D01*
X83033809Y-62169524D02*
X83033809Y-61322857D01*
X83033809Y-60899524D02*
X82973333Y-60960000D01*
X83033809Y-61020476D01*
X83094285Y-60960000D01*
X83033809Y-60899524D01*
X83033809Y-61020476D01*
X83638571Y-62169524D02*
X83638571Y-61322857D01*
X83638571Y-61443810D02*
X83699047Y-61383333D01*
X83820000Y-61322857D01*
X84001428Y-61322857D01*
X84122380Y-61383333D01*
X84182857Y-61504286D01*
X84182857Y-62169524D01*
X84182857Y-61504286D02*
X84243333Y-61383333D01*
X84364285Y-61322857D01*
X84545714Y-61322857D01*
X84666666Y-61383333D01*
X84727142Y-61504286D01*
X84727142Y-62169524D01*
X85815713Y-62109048D02*
X85694761Y-62169524D01*
X85452856Y-62169524D01*
X85331904Y-62109048D01*
X85271428Y-61988095D01*
X85271428Y-61504286D01*
X85331904Y-61383333D01*
X85452856Y-61322857D01*
X85694761Y-61322857D01*
X85815713Y-61383333D01*
X85876190Y-61504286D01*
X85876190Y-61625238D01*
X85271428Y-61746190D01*
X86420475Y-62169524D02*
X86420475Y-61322857D01*
X86420475Y-61564762D02*
X86480951Y-61443810D01*
X86541427Y-61383333D01*
X86662380Y-61322857D01*
X86783332Y-61322857D01*
X88779046Y-62169524D02*
X88174284Y-62169524D01*
X88174284Y-60899524D01*
X89746665Y-62169524D02*
X89746665Y-61504286D01*
X89686188Y-61383333D01*
X89565236Y-61322857D01*
X89323331Y-61322857D01*
X89202379Y-61383333D01*
X89746665Y-62109048D02*
X89625712Y-62169524D01*
X89323331Y-62169524D01*
X89202379Y-62109048D01*
X89141903Y-61988095D01*
X89141903Y-61867143D01*
X89202379Y-61746190D01*
X89323331Y-61685714D01*
X89625712Y-61685714D01*
X89746665Y-61625238D01*
X90351427Y-62169524D02*
X90351427Y-60899524D01*
X90351427Y-61383333D02*
X90472379Y-61322857D01*
X90714284Y-61322857D01*
X90835236Y-61383333D01*
X90895713Y-61443810D01*
X90956189Y-61564762D01*
X90956189Y-61927619D01*
X90895713Y-62048571D01*
X90835236Y-62109048D01*
X90714284Y-62169524D01*
X90472379Y-62169524D01*
X90351427Y-62109048D01*
X91439999Y-62109048D02*
X91560951Y-62169524D01*
X91802856Y-62169524D01*
X91923808Y-62109048D01*
X91984284Y-61988095D01*
X91984284Y-61927619D01*
X91923808Y-61806667D01*
X91802856Y-61746190D01*
X91621427Y-61746190D01*
X91500475Y-61685714D01*
X91439999Y-61564762D01*
X91439999Y-61504286D01*
X91500475Y-61383333D01*
X91621427Y-61322857D01*
X91802856Y-61322857D01*
X91923808Y-61383333D01*
X98092379Y-62169524D02*
X97669046Y-61564762D01*
X97366665Y-62169524D02*
X97366665Y-60899524D01*
X97850474Y-60899524D01*
X97971427Y-60960000D01*
X98031903Y-61020476D01*
X98092379Y-61141429D01*
X98092379Y-61322857D01*
X98031903Y-61443810D01*
X97971427Y-61504286D01*
X97850474Y-61564762D01*
X97366665Y-61564762D01*
X99120474Y-62109048D02*
X98999522Y-62169524D01*
X98757617Y-62169524D01*
X98636665Y-62109048D01*
X98576189Y-61988095D01*
X98576189Y-61504286D01*
X98636665Y-61383333D01*
X98757617Y-61322857D01*
X98999522Y-61322857D01*
X99120474Y-61383333D01*
X99180951Y-61504286D01*
X99180951Y-61625238D01*
X98576189Y-61746190D01*
X99604284Y-61322857D02*
X99906665Y-62169524D01*
X100209045Y-61322857D01*
X102204760Y-61322857D02*
X102204760Y-62169524D01*
X101902379Y-60839048D02*
X101599998Y-61746190D01*
X102386188Y-61746190D01*
X77772381Y-64328524D02*
X77772381Y-63058524D01*
X78316667Y-64328524D02*
X78316667Y-63663286D01*
X78256190Y-63542333D01*
X78135238Y-63481857D01*
X77953810Y-63481857D01*
X77832857Y-63542333D01*
X77772381Y-63602810D01*
X78740000Y-63481857D02*
X79223810Y-63481857D01*
X78921429Y-63058524D02*
X78921429Y-64147095D01*
X78981905Y-64268048D01*
X79102858Y-64328524D01*
X79223810Y-64328524D01*
X79465714Y-63481857D02*
X79949524Y-63481857D01*
X79647143Y-63058524D02*
X79647143Y-64147095D01*
X79707619Y-64268048D01*
X79828572Y-64328524D01*
X79949524Y-64328524D01*
X80372857Y-63481857D02*
X80372857Y-64751857D01*
X80372857Y-63542333D02*
X80493809Y-63481857D01*
X80735714Y-63481857D01*
X80856666Y-63542333D01*
X80917143Y-63602810D01*
X80977619Y-63723762D01*
X80977619Y-64086619D01*
X80917143Y-64207571D01*
X80856666Y-64268048D01*
X80735714Y-64328524D01*
X80493809Y-64328524D01*
X80372857Y-64268048D01*
X81521905Y-64207571D02*
X81582381Y-64268048D01*
X81521905Y-64328524D01*
X81461429Y-64268048D01*
X81521905Y-64207571D01*
X81521905Y-64328524D01*
X81521905Y-63542333D02*
X81582381Y-63602810D01*
X81521905Y-63663286D01*
X81461429Y-63602810D01*
X81521905Y-63542333D01*
X81521905Y-63663286D01*
X83033810Y-62998048D02*
X81945238Y-64630905D01*
X84364286Y-62998048D02*
X83275714Y-64630905D01*
X84787619Y-64328524D02*
X84787619Y-63481857D01*
X84787619Y-63723762D02*
X84848095Y-63602810D01*
X84908571Y-63542333D01*
X85029524Y-63481857D01*
X85150476Y-63481857D01*
X86057618Y-64268048D02*
X85936666Y-64328524D01*
X85694761Y-64328524D01*
X85573809Y-64268048D01*
X85513333Y-64147095D01*
X85513333Y-63663286D01*
X85573809Y-63542333D01*
X85694761Y-63481857D01*
X85936666Y-63481857D01*
X86057618Y-63542333D01*
X86118095Y-63663286D01*
X86118095Y-63784238D01*
X85513333Y-63905190D01*
X87206666Y-64268048D02*
X87085713Y-64328524D01*
X86843809Y-64328524D01*
X86722856Y-64268048D01*
X86662380Y-64207571D01*
X86601904Y-64086619D01*
X86601904Y-63723762D01*
X86662380Y-63602810D01*
X86722856Y-63542333D01*
X86843809Y-63481857D01*
X87085713Y-63481857D01*
X87206666Y-63542333D01*
X87932380Y-64328524D02*
X87811427Y-64268048D01*
X87750951Y-64147095D01*
X87750951Y-63058524D01*
X88960475Y-64328524D02*
X88960475Y-63663286D01*
X88899998Y-63542333D01*
X88779046Y-63481857D01*
X88537141Y-63481857D01*
X88416189Y-63542333D01*
X88960475Y-64268048D02*
X88839522Y-64328524D01*
X88537141Y-64328524D01*
X88416189Y-64268048D01*
X88355713Y-64147095D01*
X88355713Y-64026143D01*
X88416189Y-63905190D01*
X88537141Y-63844714D01*
X88839522Y-63844714D01*
X88960475Y-63784238D01*
X89565237Y-64328524D02*
X89565237Y-63481857D01*
X89565237Y-63058524D02*
X89504761Y-63119000D01*
X89565237Y-63179476D01*
X89625713Y-63119000D01*
X89565237Y-63058524D01*
X89565237Y-63179476D01*
X90169999Y-64328524D02*
X90169999Y-63481857D01*
X90169999Y-63602810D02*
X90230475Y-63542333D01*
X90351428Y-63481857D01*
X90532856Y-63481857D01*
X90653808Y-63542333D01*
X90714285Y-63663286D01*
X90714285Y-64328524D01*
X90714285Y-63663286D02*
X90774761Y-63542333D01*
X90895713Y-63481857D01*
X91077142Y-63481857D01*
X91198094Y-63542333D01*
X91258570Y-63663286D01*
X91258570Y-64328524D01*
X92347141Y-64268048D02*
X92226189Y-64328524D01*
X91984284Y-64328524D01*
X91863332Y-64268048D01*
X91802856Y-64147095D01*
X91802856Y-63663286D01*
X91863332Y-63542333D01*
X91984284Y-63481857D01*
X92226189Y-63481857D01*
X92347141Y-63542333D01*
X92407618Y-63663286D01*
X92407618Y-63784238D01*
X91802856Y-63905190D01*
X92951903Y-64328524D02*
X92951903Y-63481857D01*
X92951903Y-63723762D02*
X93012379Y-63602810D01*
X93072855Y-63542333D01*
X93193808Y-63481857D01*
X93314760Y-63481857D01*
X93919522Y-64328524D02*
X93798569Y-64268048D01*
X93738093Y-64147095D01*
X93738093Y-63058524D01*
X94947617Y-64328524D02*
X94947617Y-63663286D01*
X94887140Y-63542333D01*
X94766188Y-63481857D01*
X94524283Y-63481857D01*
X94403331Y-63542333D01*
X94947617Y-64268048D02*
X94826664Y-64328524D01*
X94524283Y-64328524D01*
X94403331Y-64268048D01*
X94342855Y-64147095D01*
X94342855Y-64026143D01*
X94403331Y-63905190D01*
X94524283Y-63844714D01*
X94826664Y-63844714D01*
X94947617Y-63784238D01*
X95552379Y-64328524D02*
X95552379Y-63058524D01*
X95552379Y-63542333D02*
X95673331Y-63481857D01*
X95915236Y-63481857D01*
X96036188Y-63542333D01*
X96096665Y-63602810D01*
X96157141Y-63723762D01*
X96157141Y-64086619D01*
X96096665Y-64207571D01*
X96036188Y-64268048D01*
X95915236Y-64328524D01*
X95673331Y-64328524D01*
X95552379Y-64268048D01*
X96640951Y-64268048D02*
X96761903Y-64328524D01*
X97003808Y-64328524D01*
X97124760Y-64268048D01*
X97185236Y-64147095D01*
X97185236Y-64086619D01*
X97124760Y-63965667D01*
X97003808Y-63905190D01*
X96822379Y-63905190D01*
X96701427Y-63844714D01*
X96640951Y-63723762D01*
X96640951Y-63663286D01*
X96701427Y-63542333D01*
X96822379Y-63481857D01*
X97003808Y-63481857D01*
X97124760Y-63542333D01*
X97729522Y-64207571D02*
X97789998Y-64268048D01*
X97729522Y-64328524D01*
X97669046Y-64268048D01*
X97729522Y-64207571D01*
X97729522Y-64328524D01*
X98878570Y-64268048D02*
X98757617Y-64328524D01*
X98515713Y-64328524D01*
X98394760Y-64268048D01*
X98334284Y-64207571D01*
X98273808Y-64086619D01*
X98273808Y-63723762D01*
X98334284Y-63602810D01*
X98394760Y-63542333D01*
X98515713Y-63481857D01*
X98757617Y-63481857D01*
X98878570Y-63542333D01*
X99604284Y-64328524D02*
X99483331Y-64268048D01*
X99422855Y-64207571D01*
X99362379Y-64086619D01*
X99362379Y-63723762D01*
X99422855Y-63602810D01*
X99483331Y-63542333D01*
X99604284Y-63481857D01*
X99785712Y-63481857D01*
X99906664Y-63542333D01*
X99967141Y-63602810D01*
X100027617Y-63723762D01*
X100027617Y-64086619D01*
X99967141Y-64207571D01*
X99906664Y-64268048D01*
X99785712Y-64328524D01*
X99604284Y-64328524D01*
X100571903Y-64328524D02*
X100571903Y-63481857D01*
X100571903Y-63602810D02*
X100632379Y-63542333D01*
X100753332Y-63481857D01*
X100934760Y-63481857D01*
X101055712Y-63542333D01*
X101116189Y-63663286D01*
X101116189Y-64328524D01*
X101116189Y-63663286D02*
X101176665Y-63542333D01*
X101297617Y-63481857D01*
X101479046Y-63481857D01*
X101599998Y-63542333D01*
X101660474Y-63663286D01*
X101660474Y-64328524D01*
X91311456Y-115062000D02*
X91311456Y-112014000D01*
X70991456Y-115062000D02*
X70991456Y-112014000D01*
X85164656Y-116967000D02*
X77138256Y-116967000D01*
X77138256Y-116967000D02*
X77138256Y-115062000D01*
X77138256Y-115062000D02*
X70991456Y-115062000D01*
X70991456Y-81534000D02*
X72515456Y-78486000D01*
X72515456Y-78486000D02*
X89787456Y-78486000D01*
X89787456Y-78486000D02*
X91311456Y-81534000D01*
X91311456Y-115062000D02*
X85164656Y-115062000D01*
X85164656Y-115062000D02*
X85164656Y-116967000D01*
D12*
G36*
X87286131Y-73646771D02*
X87243516Y-73742331D01*
X87200901Y-73837892D01*
X85721631Y-75179019D01*
X84242361Y-76520146D01*
X84151566Y-76555843D01*
X84060771Y-76591540D01*
X81941458Y-76591207D01*
X79822146Y-76590874D01*
X79736121Y-76557452D01*
X79707394Y-76546077D01*
X79681700Y-76535503D01*
X79660850Y-76526506D01*
X79646656Y-76519864D01*
X79641345Y-76516796D01*
X79636798Y-76512792D01*
X79624618Y-76501997D01*
X79605078Y-76484655D01*
X79578452Y-76461010D01*
X79545013Y-76431304D01*
X79505037Y-76395781D01*
X79458795Y-76354685D01*
X79406563Y-76308260D01*
X79348614Y-76256747D01*
X79285221Y-76200392D01*
X79216660Y-76139437D01*
X79143202Y-76074126D01*
X79065124Y-76004703D01*
X78982697Y-75931410D01*
X78896196Y-75854491D01*
X78805895Y-75774190D01*
X78712067Y-75690751D01*
X78614987Y-75604416D01*
X78514928Y-75515428D01*
X78412164Y-75424033D01*
X78306969Y-75330472D01*
X78199617Y-75234990D01*
X78131932Y-75174788D01*
X76631271Y-73840013D01*
X76587614Y-73743434D01*
X76543958Y-73646854D01*
X76544217Y-71744458D01*
X76544475Y-69842062D01*
X76587873Y-69746282D01*
X76631271Y-69650501D01*
X78140166Y-68318152D01*
X79649061Y-66985804D01*
X79737898Y-66952110D01*
X79826734Y-66918416D01*
X80311273Y-66918597D01*
X80795812Y-66918778D01*
X80909442Y-66983754D01*
X81023071Y-67048730D01*
X81217252Y-67373834D01*
X81411434Y-67698937D01*
X81430383Y-67766161D01*
X81449333Y-67833384D01*
X81449259Y-68723952D01*
X81449184Y-69614521D01*
X81428735Y-69683312D01*
X81408286Y-69752104D01*
X80419058Y-71323729D01*
X80344573Y-71442067D01*
X80271469Y-71558209D01*
X80199951Y-71671829D01*
X80130226Y-71782602D01*
X80062498Y-71890200D01*
X79996972Y-71994299D01*
X79933855Y-72094571D01*
X79873350Y-72190691D01*
X79815664Y-72282333D01*
X79761002Y-72369169D01*
X79709569Y-72450875D01*
X79661571Y-72527125D01*
X79617212Y-72597591D01*
X79576698Y-72661948D01*
X79540235Y-72719870D01*
X79508027Y-72771030D01*
X79480279Y-72815103D01*
X79457198Y-72851762D01*
X79438989Y-72880681D01*
X79425856Y-72901535D01*
X79418005Y-72913996D01*
X79415726Y-72917610D01*
X79401621Y-72939865D01*
X80005366Y-73511599D01*
X80609110Y-74083333D01*
X81944123Y-74083333D01*
X83279136Y-74083333D01*
X83857808Y-73535078D01*
X83924283Y-73472091D01*
X83988903Y-73410855D01*
X84051225Y-73351786D01*
X84110808Y-73295305D01*
X84167211Y-73241829D01*
X84219990Y-73191779D01*
X84268706Y-73145573D01*
X84312916Y-73103630D01*
X84352179Y-73066369D01*
X84386053Y-73034208D01*
X84414096Y-73007568D01*
X84435867Y-72986866D01*
X84450925Y-72972521D01*
X84458827Y-72964953D01*
X84459501Y-72964299D01*
X84482522Y-72941776D01*
X83452599Y-71347380D01*
X82422676Y-69752985D01*
X82401671Y-69682771D01*
X82380667Y-69612556D01*
X82380667Y-68723604D01*
X82380667Y-67834652D01*
X82403560Y-67760986D01*
X82426454Y-67687319D01*
X82642820Y-67370635D01*
X82678476Y-67318498D01*
X82712594Y-67268709D01*
X82744673Y-67221993D01*
X82774213Y-67179071D01*
X82800715Y-67140668D01*
X82823680Y-67107506D01*
X82842607Y-67080309D01*
X82856996Y-67059799D01*
X82866349Y-67046701D01*
X82869957Y-67041943D01*
X82877677Y-67036036D01*
X82893298Y-67026182D01*
X82915304Y-67013260D01*
X82942180Y-66998151D01*
X82972407Y-66981735D01*
X82986562Y-66974228D01*
X83092396Y-66918523D01*
X83576583Y-66918512D01*
X84060771Y-66918501D01*
X84151785Y-66954178D01*
X84242799Y-66989854D01*
X85720764Y-68320059D01*
X87198729Y-69650265D01*
X87242211Y-69746163D01*
X87285693Y-69842062D01*
X87285912Y-71744417D01*
X87286131Y-73646771D01*
X87286131Y-73646771D01*
X87286131Y-73646771D01*
G37*
X87286131Y-73646771D02*
X87243516Y-73742331D01*
X87200901Y-73837892D01*
X85721631Y-75179019D01*
X84242361Y-76520146D01*
X84151566Y-76555843D01*
X84060771Y-76591540D01*
X81941458Y-76591207D01*
X79822146Y-76590874D01*
X79736121Y-76557452D01*
X79707394Y-76546077D01*
X79681700Y-76535503D01*
X79660850Y-76526506D01*
X79646656Y-76519864D01*
X79641345Y-76516796D01*
X79636798Y-76512792D01*
X79624618Y-76501997D01*
X79605078Y-76484655D01*
X79578452Y-76461010D01*
X79545013Y-76431304D01*
X79505037Y-76395781D01*
X79458795Y-76354685D01*
X79406563Y-76308260D01*
X79348614Y-76256747D01*
X79285221Y-76200392D01*
X79216660Y-76139437D01*
X79143202Y-76074126D01*
X79065124Y-76004703D01*
X78982697Y-75931410D01*
X78896196Y-75854491D01*
X78805895Y-75774190D01*
X78712067Y-75690751D01*
X78614987Y-75604416D01*
X78514928Y-75515428D01*
X78412164Y-75424033D01*
X78306969Y-75330472D01*
X78199617Y-75234990D01*
X78131932Y-75174788D01*
X76631271Y-73840013D01*
X76587614Y-73743434D01*
X76543958Y-73646854D01*
X76544217Y-71744458D01*
X76544475Y-69842062D01*
X76587873Y-69746282D01*
X76631271Y-69650501D01*
X78140166Y-68318152D01*
X79649061Y-66985804D01*
X79737898Y-66952110D01*
X79826734Y-66918416D01*
X80311273Y-66918597D01*
X80795812Y-66918778D01*
X80909442Y-66983754D01*
X81023071Y-67048730D01*
X81217252Y-67373834D01*
X81411434Y-67698937D01*
X81430383Y-67766161D01*
X81449333Y-67833384D01*
X81449259Y-68723952D01*
X81449184Y-69614521D01*
X81428735Y-69683312D01*
X81408286Y-69752104D01*
X80419058Y-71323729D01*
X80344573Y-71442067D01*
X80271469Y-71558209D01*
X80199951Y-71671829D01*
X80130226Y-71782602D01*
X80062498Y-71890200D01*
X79996972Y-71994299D01*
X79933855Y-72094571D01*
X79873350Y-72190691D01*
X79815664Y-72282333D01*
X79761002Y-72369169D01*
X79709569Y-72450875D01*
X79661571Y-72527125D01*
X79617212Y-72597591D01*
X79576698Y-72661948D01*
X79540235Y-72719870D01*
X79508027Y-72771030D01*
X79480279Y-72815103D01*
X79457198Y-72851762D01*
X79438989Y-72880681D01*
X79425856Y-72901535D01*
X79418005Y-72913996D01*
X79415726Y-72917610D01*
X79401621Y-72939865D01*
X80005366Y-73511599D01*
X80609110Y-74083333D01*
X81944123Y-74083333D01*
X83279136Y-74083333D01*
X83857808Y-73535078D01*
X83924283Y-73472091D01*
X83988903Y-73410855D01*
X84051225Y-73351786D01*
X84110808Y-73295305D01*
X84167211Y-73241829D01*
X84219990Y-73191779D01*
X84268706Y-73145573D01*
X84312916Y-73103630D01*
X84352179Y-73066369D01*
X84386053Y-73034208D01*
X84414096Y-73007568D01*
X84435867Y-72986866D01*
X84450925Y-72972521D01*
X84458827Y-72964953D01*
X84459501Y-72964299D01*
X84482522Y-72941776D01*
X83452599Y-71347380D01*
X82422676Y-69752985D01*
X82401671Y-69682771D01*
X82380667Y-69612556D01*
X82380667Y-68723604D01*
X82380667Y-67834652D01*
X82403560Y-67760986D01*
X82426454Y-67687319D01*
X82642820Y-67370635D01*
X82678476Y-67318498D01*
X82712594Y-67268709D01*
X82744673Y-67221993D01*
X82774213Y-67179071D01*
X82800715Y-67140668D01*
X82823680Y-67107506D01*
X82842607Y-67080309D01*
X82856996Y-67059799D01*
X82866349Y-67046701D01*
X82869957Y-67041943D01*
X82877677Y-67036036D01*
X82893298Y-67026182D01*
X82915304Y-67013260D01*
X82942180Y-66998151D01*
X82972407Y-66981735D01*
X82986562Y-66974228D01*
X83092396Y-66918523D01*
X83576583Y-66918512D01*
X84060771Y-66918501D01*
X84151785Y-66954178D01*
X84242799Y-66989854D01*
X85720764Y-68320059D01*
X87198729Y-69650265D01*
X87242211Y-69746163D01*
X87285693Y-69842062D01*
X87285912Y-71744417D01*
X87286131Y-73646771D01*
X87286131Y-73646771D01*
D13*
X108331000Y-112522000D02*
X108331000Y-110998000D01*
X108204000Y-110617000D02*
X108204000Y-112903000D01*
X108077000Y-113157000D02*
X108077000Y-110363000D01*
X107950000Y-110109000D02*
X107950000Y-113411000D01*
X107823000Y-113538000D02*
X107823000Y-109982000D01*
X108712000Y-115062000D02*
X108712000Y-108458000D01*
X108712000Y-108458000D02*
X102870000Y-108458000D01*
X102870000Y-108458000D02*
X102108000Y-109220000D01*
X102108000Y-109220000D02*
X102108000Y-114300000D01*
X102108000Y-114300000D02*
X102870000Y-115062000D01*
X102870000Y-115062000D02*
X108712000Y-115062000D01*
X103251000Y-111760000D02*
X104013000Y-111760000D01*
X103632000Y-112141000D02*
X103632000Y-111379000D01*
X108458000Y-111760000D02*
G75*
G03X108458000Y-111760000I-3048000J0D01*
G01*
X108331000Y-104902000D02*
X108331000Y-103378000D01*
X108204000Y-102997000D02*
X108204000Y-105283000D01*
X108077000Y-105537000D02*
X108077000Y-102743000D01*
X107950000Y-102489000D02*
X107950000Y-105791000D01*
X107823000Y-105918000D02*
X107823000Y-102362000D01*
X108712000Y-107442000D02*
X108712000Y-100838000D01*
X108712000Y-100838000D02*
X102870000Y-100838000D01*
X102870000Y-100838000D02*
X102108000Y-101600000D01*
X102108000Y-101600000D02*
X102108000Y-106680000D01*
X102108000Y-106680000D02*
X102870000Y-107442000D01*
X102870000Y-107442000D02*
X108712000Y-107442000D01*
X103251000Y-104140000D02*
X104013000Y-104140000D01*
X103632000Y-104521000D02*
X103632000Y-103759000D01*
X108458000Y-104140000D02*
G75*
G03X108458000Y-104140000I-3048000J0D01*
G01*
X104740000Y-97440000D02*
X104740000Y-98140000D01*
X103540000Y-98140000D02*
X103540000Y-97440000D01*
X109820000Y-97440000D02*
X109820000Y-98140000D01*
X108620000Y-98140000D02*
X108620000Y-97440000D01*
X118780000Y-68930000D02*
X118780000Y-68230000D01*
X119980000Y-68230000D02*
X119980000Y-68930000D01*
X103540000Y-80360000D02*
X103540000Y-79660000D01*
X104740000Y-79660000D02*
X104740000Y-80360000D01*
X99730000Y-80360000D02*
X99730000Y-79660000D01*
X100930000Y-79660000D02*
X100930000Y-80360000D01*
D10*
X57150000Y-65024000D02*
X52070000Y-65024000D01*
X57150000Y-66040000D02*
X57150000Y-65024000D01*
X67310000Y-66040000D02*
X57150000Y-66040000D01*
X67310000Y-58420000D02*
X67310000Y-66040000D01*
X57150000Y-58420000D02*
X67310000Y-58420000D01*
X57150000Y-59436000D02*
X57150000Y-58420000D01*
X52070000Y-59436000D02*
X57150000Y-59436000D01*
X52070000Y-65024000D02*
X52070000Y-59436000D01*
X57150000Y-73914000D02*
X52070000Y-73914000D01*
X57150000Y-74930000D02*
X57150000Y-73914000D01*
X67310000Y-74930000D02*
X57150000Y-74930000D01*
X67310000Y-67310000D02*
X67310000Y-74930000D01*
X57150000Y-67310000D02*
X67310000Y-67310000D01*
X57150000Y-68326000D02*
X57150000Y-67310000D01*
X52070000Y-68326000D02*
X57150000Y-68326000D01*
X52070000Y-73914000D02*
X52070000Y-68326000D01*
X57150000Y-82804000D02*
X52070000Y-82804000D01*
X57150000Y-83820000D02*
X57150000Y-82804000D01*
X67310000Y-83820000D02*
X57150000Y-83820000D01*
X67310000Y-76200000D02*
X67310000Y-83820000D01*
X57150000Y-76200000D02*
X67310000Y-76200000D01*
X57150000Y-77216000D02*
X57150000Y-76200000D01*
X52070000Y-77216000D02*
X57150000Y-77216000D01*
X52070000Y-82804000D02*
X52070000Y-77216000D01*
X57150000Y-91694000D02*
X52070000Y-91694000D01*
X57150000Y-92710000D02*
X57150000Y-91694000D01*
X67310000Y-92710000D02*
X57150000Y-92710000D01*
X67310000Y-85090000D02*
X67310000Y-92710000D01*
X57150000Y-85090000D02*
X67310000Y-85090000D01*
X57150000Y-86106000D02*
X57150000Y-85090000D01*
X52070000Y-86106000D02*
X57150000Y-86106000D01*
X52070000Y-91694000D02*
X52070000Y-86106000D01*
X110690000Y-58455000D02*
X110690000Y-59655000D01*
X110190000Y-59455000D02*
X110190000Y-58655000D01*
X110690000Y-59055000D02*
X110190000Y-59455000D01*
X110190000Y-58655000D02*
X110690000Y-59055000D01*
D13*
X111090000Y-59930000D02*
X109890000Y-59930000D01*
X109890000Y-58180000D02*
X111090000Y-58180000D01*
X116800000Y-69080000D02*
X116800000Y-68080000D01*
X118150000Y-68080000D02*
X118150000Y-69080000D01*
X106180000Y-58380000D02*
X107180000Y-58380000D01*
X107180000Y-59730000D02*
X106180000Y-59730000D01*
X99340000Y-93900000D02*
X99140000Y-93700000D01*
X99140000Y-84100000D02*
X99140000Y-83900000D01*
X99140000Y-83900000D02*
X99340000Y-83900000D01*
X109140000Y-93700000D02*
X109140000Y-93900000D01*
X109140000Y-93900000D02*
X108940000Y-93900000D01*
X109140000Y-84100000D02*
X109140000Y-83900000D01*
X109140000Y-83900000D02*
X108940000Y-83900000D01*
X109220000Y-68580000D02*
X96520000Y-68580000D01*
X96520000Y-68580000D02*
X96520000Y-71120000D01*
X96520000Y-71120000D02*
X109220000Y-71120000D01*
X112040000Y-68300000D02*
X110490000Y-68300000D01*
X109220000Y-68580000D02*
X109220000Y-71120000D01*
X110490000Y-71400000D02*
X112040000Y-71400000D01*
X112040000Y-71400000D02*
X112040000Y-68300000D01*
X109220000Y-72390000D02*
X96520000Y-72390000D01*
X96520000Y-72390000D02*
X96520000Y-74930000D01*
X96520000Y-74930000D02*
X109220000Y-74930000D01*
X112040000Y-72110000D02*
X110490000Y-72110000D01*
X109220000Y-72390000D02*
X109220000Y-74930000D01*
X110490000Y-75210000D02*
X112040000Y-75210000D01*
X112040000Y-75210000D02*
X112040000Y-72110000D01*
X94860000Y-108220000D02*
X94860000Y-110220000D01*
X96910000Y-110220000D02*
X96910000Y-108220000D01*
X98319140Y-112549940D02*
X98319140Y-112900460D01*
X98319140Y-116050060D02*
X98319140Y-115699540D01*
X94269560Y-112549940D02*
X94269560Y-112900460D01*
X98770440Y-112549940D02*
X98770440Y-112900460D01*
X98770440Y-116050060D02*
X98770440Y-115699540D01*
X94269560Y-116050060D02*
X94269560Y-115699540D01*
X98770440Y-112549940D02*
X94269560Y-112549940D01*
X98770440Y-116050060D02*
X94269560Y-116050060D01*
X54419500Y-104719120D02*
X54419500Y-113720880D01*
X50919380Y-104719120D02*
X50919380Y-113720880D01*
X50919380Y-113720880D02*
X65420240Y-113720880D01*
X65420240Y-113720880D02*
X65420240Y-104719120D01*
X65420240Y-104719120D02*
X50919380Y-104719120D01*
D10*
X74597381Y-76774524D02*
X74597381Y-77802619D01*
X74657857Y-77923571D01*
X74718333Y-77984048D01*
X74839286Y-78044524D01*
X75081190Y-78044524D01*
X75202143Y-77984048D01*
X75262619Y-77923571D01*
X75323095Y-77802619D01*
X75323095Y-76774524D01*
X76593095Y-78044524D02*
X75867381Y-78044524D01*
X76230238Y-78044524D02*
X76230238Y-76774524D01*
X76109286Y-76955952D01*
X75988333Y-77076905D01*
X75867381Y-77137381D01*
X110405333Y-114626571D02*
X110344857Y-114687048D01*
X110163428Y-114747524D01*
X110042476Y-114747524D01*
X109861048Y-114687048D01*
X109740095Y-114566095D01*
X109679619Y-114445143D01*
X109619143Y-114203238D01*
X109619143Y-114021810D01*
X109679619Y-113779905D01*
X109740095Y-113658952D01*
X109861048Y-113538000D01*
X110042476Y-113477524D01*
X110163428Y-113477524D01*
X110344857Y-113538000D01*
X110405333Y-113598476D01*
X111493905Y-113900857D02*
X111493905Y-114747524D01*
X111191524Y-113417048D02*
X110889143Y-114324190D01*
X111675333Y-114324190D01*
X110405333Y-107006571D02*
X110344857Y-107067048D01*
X110163428Y-107127524D01*
X110042476Y-107127524D01*
X109861048Y-107067048D01*
X109740095Y-106946095D01*
X109679619Y-106825143D01*
X109619143Y-106583238D01*
X109619143Y-106401810D01*
X109679619Y-106159905D01*
X109740095Y-106038952D01*
X109861048Y-105918000D01*
X110042476Y-105857524D01*
X110163428Y-105857524D01*
X110344857Y-105918000D01*
X110405333Y-105978476D01*
X110828667Y-105857524D02*
X111614857Y-105857524D01*
X111191524Y-106341333D01*
X111372952Y-106341333D01*
X111493905Y-106401810D01*
X111554381Y-106462286D01*
X111614857Y-106583238D01*
X111614857Y-106885619D01*
X111554381Y-107006571D01*
X111493905Y-107067048D01*
X111372952Y-107127524D01*
X111010095Y-107127524D01*
X110889143Y-107067048D01*
X110828667Y-107006571D01*
X106625571Y-98001667D02*
X106686048Y-98062143D01*
X106746524Y-98243572D01*
X106746524Y-98364524D01*
X106686048Y-98545952D01*
X106565095Y-98666905D01*
X106444143Y-98727381D01*
X106202238Y-98787857D01*
X106020810Y-98787857D01*
X105778905Y-98727381D01*
X105657952Y-98666905D01*
X105537000Y-98545952D01*
X105476524Y-98364524D01*
X105476524Y-98243572D01*
X105537000Y-98062143D01*
X105597476Y-98001667D01*
X105476524Y-96913095D02*
X105476524Y-97155000D01*
X105537000Y-97275952D01*
X105597476Y-97336429D01*
X105778905Y-97457381D01*
X106020810Y-97517857D01*
X106504619Y-97517857D01*
X106625571Y-97457381D01*
X106686048Y-97396905D01*
X106746524Y-97275952D01*
X106746524Y-97034048D01*
X106686048Y-96913095D01*
X106625571Y-96852619D01*
X106504619Y-96792143D01*
X106202238Y-96792143D01*
X106081286Y-96852619D01*
X106020810Y-96913095D01*
X105960333Y-97034048D01*
X105960333Y-97275952D01*
X106020810Y-97396905D01*
X106081286Y-97457381D01*
X106202238Y-97517857D01*
X111705571Y-98001667D02*
X111766048Y-98062143D01*
X111826524Y-98243572D01*
X111826524Y-98364524D01*
X111766048Y-98545952D01*
X111645095Y-98666905D01*
X111524143Y-98727381D01*
X111282238Y-98787857D01*
X111100810Y-98787857D01*
X110858905Y-98727381D01*
X110737952Y-98666905D01*
X110617000Y-98545952D01*
X110556524Y-98364524D01*
X110556524Y-98243572D01*
X110617000Y-98062143D01*
X110677476Y-98001667D01*
X110556524Y-97578333D02*
X110556524Y-96731667D01*
X111826524Y-97275952D01*
X114245571Y-68791667D02*
X114306048Y-68852143D01*
X114366524Y-69033572D01*
X114366524Y-69154524D01*
X114306048Y-69335952D01*
X114185095Y-69456905D01*
X114064143Y-69517381D01*
X113822238Y-69577857D01*
X113640810Y-69577857D01*
X113398905Y-69517381D01*
X113277952Y-69456905D01*
X113157000Y-69335952D01*
X113096524Y-69154524D01*
X113096524Y-69033572D01*
X113157000Y-68852143D01*
X113217476Y-68791667D01*
X113640810Y-68065952D02*
X113580333Y-68186905D01*
X113519857Y-68247381D01*
X113398905Y-68307857D01*
X113338429Y-68307857D01*
X113217476Y-68247381D01*
X113157000Y-68186905D01*
X113096524Y-68065952D01*
X113096524Y-67824048D01*
X113157000Y-67703095D01*
X113217476Y-67642619D01*
X113338429Y-67582143D01*
X113398905Y-67582143D01*
X113519857Y-67642619D01*
X113580333Y-67703095D01*
X113640810Y-67824048D01*
X113640810Y-68065952D01*
X113701286Y-68186905D01*
X113761762Y-68247381D01*
X113882714Y-68307857D01*
X114124619Y-68307857D01*
X114245571Y-68247381D01*
X114306048Y-68186905D01*
X114366524Y-68065952D01*
X114366524Y-67824048D01*
X114306048Y-67703095D01*
X114245571Y-67642619D01*
X114124619Y-67582143D01*
X113882714Y-67582143D01*
X113761762Y-67642619D01*
X113701286Y-67703095D01*
X113640810Y-67824048D01*
X107260571Y-80221667D02*
X107321048Y-80282143D01*
X107381524Y-80463572D01*
X107381524Y-80584524D01*
X107321048Y-80765952D01*
X107200095Y-80886905D01*
X107079143Y-80947381D01*
X106837238Y-81007857D01*
X106655810Y-81007857D01*
X106413905Y-80947381D01*
X106292952Y-80886905D01*
X106172000Y-80765952D01*
X106111524Y-80584524D01*
X106111524Y-80463572D01*
X106172000Y-80282143D01*
X106232476Y-80221667D01*
X107381524Y-79616905D02*
X107381524Y-79375000D01*
X107321048Y-79254048D01*
X107260571Y-79193572D01*
X107079143Y-79072619D01*
X106837238Y-79012143D01*
X106353429Y-79012143D01*
X106232476Y-79072619D01*
X106172000Y-79133095D01*
X106111524Y-79254048D01*
X106111524Y-79495952D01*
X106172000Y-79616905D01*
X106232476Y-79677381D01*
X106353429Y-79737857D01*
X106655810Y-79737857D01*
X106776762Y-79677381D01*
X106837238Y-79616905D01*
X106897714Y-79495952D01*
X106897714Y-79254048D01*
X106837238Y-79133095D01*
X106776762Y-79072619D01*
X106655810Y-79012143D01*
X98883571Y-80826429D02*
X98944048Y-80886905D01*
X99004524Y-81068334D01*
X99004524Y-81189286D01*
X98944048Y-81370714D01*
X98823095Y-81491667D01*
X98702143Y-81552143D01*
X98460238Y-81612619D01*
X98278810Y-81612619D01*
X98036905Y-81552143D01*
X97915952Y-81491667D01*
X97795000Y-81370714D01*
X97734524Y-81189286D01*
X97734524Y-81068334D01*
X97795000Y-80886905D01*
X97855476Y-80826429D01*
X99004524Y-79616905D02*
X99004524Y-80342619D01*
X99004524Y-79979762D02*
X97734524Y-79979762D01*
X97915952Y-80100714D01*
X98036905Y-80221667D01*
X98097381Y-80342619D01*
X97734524Y-78830714D02*
X97734524Y-78709762D01*
X97795000Y-78588810D01*
X97855476Y-78528333D01*
X97976429Y-78467857D01*
X98218333Y-78407381D01*
X98520714Y-78407381D01*
X98762619Y-78467857D01*
X98883571Y-78528333D01*
X98944048Y-78588810D01*
X99004524Y-78709762D01*
X99004524Y-78830714D01*
X98944048Y-78951667D01*
X98883571Y-79012143D01*
X98762619Y-79072619D01*
X98520714Y-79133095D01*
X98218333Y-79133095D01*
X97976429Y-79072619D01*
X97855476Y-79012143D01*
X97795000Y-78951667D01*
X97734524Y-78830714D01*
X68156667Y-58359524D02*
X68156667Y-59266667D01*
X68096191Y-59448095D01*
X67975239Y-59569048D01*
X67793810Y-59629524D01*
X67672858Y-59629524D01*
X68700953Y-58480476D02*
X68761429Y-58420000D01*
X68882381Y-58359524D01*
X69184762Y-58359524D01*
X69305715Y-58420000D01*
X69366191Y-58480476D01*
X69426667Y-58601429D01*
X69426667Y-58722381D01*
X69366191Y-58903810D01*
X68640477Y-59629524D01*
X69426667Y-59629524D01*
X68156667Y-67249524D02*
X68156667Y-68156667D01*
X68096191Y-68338095D01*
X67975239Y-68459048D01*
X67793810Y-68519524D01*
X67672858Y-68519524D01*
X68640477Y-67249524D02*
X69426667Y-67249524D01*
X69003334Y-67733333D01*
X69184762Y-67733333D01*
X69305715Y-67793810D01*
X69366191Y-67854286D01*
X69426667Y-67975238D01*
X69426667Y-68277619D01*
X69366191Y-68398571D01*
X69305715Y-68459048D01*
X69184762Y-68519524D01*
X68821905Y-68519524D01*
X68700953Y-68459048D01*
X68640477Y-68398571D01*
X68156667Y-76774524D02*
X68156667Y-77681667D01*
X68096191Y-77863095D01*
X67975239Y-77984048D01*
X67793810Y-78044524D01*
X67672858Y-78044524D01*
X69305715Y-77197857D02*
X69305715Y-78044524D01*
X69003334Y-76714048D02*
X68700953Y-77621190D01*
X69487143Y-77621190D01*
X64346667Y-93284524D02*
X64346667Y-94191667D01*
X64286191Y-94373095D01*
X64165239Y-94494048D01*
X63983810Y-94554524D01*
X63862858Y-94554524D01*
X65556191Y-93284524D02*
X64951429Y-93284524D01*
X64890953Y-93889286D01*
X64951429Y-93828810D01*
X65072381Y-93768333D01*
X65374762Y-93768333D01*
X65495715Y-93828810D01*
X65556191Y-93889286D01*
X65616667Y-94010238D01*
X65616667Y-94312619D01*
X65556191Y-94433571D01*
X65495715Y-94494048D01*
X65374762Y-94554524D01*
X65072381Y-94554524D01*
X64951429Y-94494048D01*
X64890953Y-94433571D01*
X110369048Y-62290476D02*
X110248095Y-62230000D01*
X110127143Y-62109048D01*
X109945714Y-61927619D01*
X109824762Y-61867143D01*
X109703810Y-61867143D01*
X109764286Y-62169524D02*
X109643333Y-62109048D01*
X109522381Y-61988095D01*
X109461905Y-61746190D01*
X109461905Y-61322857D01*
X109522381Y-61080952D01*
X109643333Y-60960000D01*
X109764286Y-60899524D01*
X110006190Y-60899524D01*
X110127143Y-60960000D01*
X110248095Y-61080952D01*
X110308571Y-61322857D01*
X110308571Y-61746190D01*
X110248095Y-61988095D01*
X110127143Y-62109048D01*
X110006190Y-62169524D01*
X109764286Y-62169524D01*
X111518095Y-62169524D02*
X110792381Y-62169524D01*
X111155238Y-62169524D02*
X111155238Y-60899524D01*
X111034286Y-61080952D01*
X110913333Y-61201905D01*
X110792381Y-61262381D01*
X116271524Y-68791667D02*
X115666762Y-69215000D01*
X116271524Y-69517381D02*
X115001524Y-69517381D01*
X115001524Y-69033572D01*
X115062000Y-68912619D01*
X115122476Y-68852143D01*
X115243429Y-68791667D01*
X115424857Y-68791667D01*
X115545810Y-68852143D01*
X115606286Y-68912619D01*
X115666762Y-69033572D01*
X115666762Y-69517381D01*
X116271524Y-67582143D02*
X116271524Y-68307857D01*
X116271524Y-67945000D02*
X115001524Y-67945000D01*
X115182952Y-68065952D01*
X115303905Y-68186905D01*
X115364381Y-68307857D01*
X107230333Y-62169524D02*
X106807000Y-61564762D01*
X106504619Y-62169524D02*
X106504619Y-60899524D01*
X106988428Y-60899524D01*
X107109381Y-60960000D01*
X107169857Y-61020476D01*
X107230333Y-61141429D01*
X107230333Y-61322857D01*
X107169857Y-61443810D01*
X107109381Y-61504286D01*
X106988428Y-61564762D01*
X106504619Y-61564762D01*
X107714143Y-61020476D02*
X107774619Y-60960000D01*
X107895571Y-60899524D01*
X108197952Y-60899524D01*
X108318905Y-60960000D01*
X108379381Y-61020476D01*
X108439857Y-61141429D01*
X108439857Y-61262381D01*
X108379381Y-61443810D01*
X107653667Y-62169524D01*
X108439857Y-62169524D01*
X98092381Y-97094524D02*
X98092381Y-98122619D01*
X98152857Y-98243571D01*
X98213333Y-98304048D01*
X98334286Y-98364524D01*
X98576190Y-98364524D01*
X98697143Y-98304048D01*
X98757619Y-98243571D01*
X98818095Y-98122619D01*
X98818095Y-97094524D01*
X99362381Y-97215476D02*
X99422857Y-97155000D01*
X99543809Y-97094524D01*
X99846190Y-97094524D01*
X99967143Y-97155000D01*
X100027619Y-97215476D01*
X100088095Y-97336429D01*
X100088095Y-97457381D01*
X100027619Y-97638810D01*
X99301905Y-98364524D01*
X100088095Y-98364524D01*
X115237381Y-73599524D02*
X115237381Y-74627619D01*
X115297857Y-74748571D01*
X115358333Y-74809048D01*
X115479286Y-74869524D01*
X115721190Y-74869524D01*
X115842143Y-74809048D01*
X115902619Y-74748571D01*
X115963095Y-74627619D01*
X115963095Y-73599524D01*
X116446905Y-73599524D02*
X117233095Y-73599524D01*
X116809762Y-74083333D01*
X116991190Y-74083333D01*
X117112143Y-74143810D01*
X117172619Y-74204286D01*
X117233095Y-74325238D01*
X117233095Y-74627619D01*
X117172619Y-74748571D01*
X117112143Y-74809048D01*
X116991190Y-74869524D01*
X116628333Y-74869524D01*
X116507381Y-74809048D01*
X116446905Y-74748571D01*
X94826667Y-69154524D02*
X94826667Y-70061667D01*
X94766191Y-70243095D01*
X94645239Y-70364048D01*
X94463810Y-70424524D01*
X94342858Y-70424524D01*
X95975715Y-69154524D02*
X95733810Y-69154524D01*
X95612858Y-69215000D01*
X95552381Y-69275476D01*
X95431429Y-69456905D01*
X95370953Y-69698810D01*
X95370953Y-70182619D01*
X95431429Y-70303571D01*
X95491905Y-70364048D01*
X95612858Y-70424524D01*
X95854762Y-70424524D01*
X95975715Y-70364048D01*
X96036191Y-70303571D01*
X96096667Y-70182619D01*
X96096667Y-69880238D01*
X96036191Y-69759286D01*
X95975715Y-69698810D01*
X95854762Y-69638333D01*
X95612858Y-69638333D01*
X95491905Y-69698810D01*
X95431429Y-69759286D01*
X95370953Y-69880238D01*
X94826667Y-72964524D02*
X94826667Y-73871667D01*
X94766191Y-74053095D01*
X94645239Y-74174048D01*
X94463810Y-74234524D01*
X94342858Y-74234524D01*
X95612858Y-73508810D02*
X95491905Y-73448333D01*
X95431429Y-73387857D01*
X95370953Y-73266905D01*
X95370953Y-73206429D01*
X95431429Y-73085476D01*
X95491905Y-73025000D01*
X95612858Y-72964524D01*
X95854762Y-72964524D01*
X95975715Y-73025000D01*
X96036191Y-73085476D01*
X96096667Y-73206429D01*
X96096667Y-73266905D01*
X96036191Y-73387857D01*
X95975715Y-73448333D01*
X95854762Y-73508810D01*
X95612858Y-73508810D01*
X95491905Y-73569286D01*
X95431429Y-73629762D01*
X95370953Y-73750714D01*
X95370953Y-73992619D01*
X95431429Y-74113571D01*
X95491905Y-74174048D01*
X95612858Y-74234524D01*
X95854762Y-74234524D01*
X95975715Y-74174048D01*
X96036191Y-74113571D01*
X96096667Y-73992619D01*
X96096667Y-73750714D01*
X96036191Y-73629762D01*
X95975715Y-73569286D01*
X95854762Y-73508810D01*
D13*
X98782143Y-109386666D02*
X98829762Y-109434285D01*
X98877381Y-109577142D01*
X98877381Y-109672380D01*
X98829762Y-109815238D01*
X98734524Y-109910476D01*
X98639286Y-109958095D01*
X98448810Y-110005714D01*
X98305952Y-110005714D01*
X98115476Y-109958095D01*
X98020238Y-109910476D01*
X97925000Y-109815238D01*
X97877381Y-109672380D01*
X97877381Y-109577142D01*
X97925000Y-109434285D01*
X97972619Y-109386666D01*
X97877381Y-108481904D02*
X97877381Y-108958095D01*
X98353571Y-109005714D01*
X98305952Y-108958095D01*
X98258333Y-108862857D01*
X98258333Y-108624761D01*
X98305952Y-108529523D01*
X98353571Y-108481904D01*
X98448810Y-108434285D01*
X98686905Y-108434285D01*
X98782143Y-108481904D01*
X98829762Y-108529523D01*
X98877381Y-108624761D01*
X98877381Y-108862857D01*
X98829762Y-108958095D01*
X98782143Y-109005714D01*
X95781905Y-118562381D02*
X95781905Y-117562381D01*
X96020000Y-117562381D01*
X96162858Y-117610000D01*
X96258096Y-117705238D01*
X96305715Y-117800476D01*
X96353334Y-117990952D01*
X96353334Y-118133810D01*
X96305715Y-118324286D01*
X96258096Y-118419524D01*
X96162858Y-118514762D01*
X96020000Y-118562381D01*
X95781905Y-118562381D01*
X97305715Y-118562381D02*
X96734286Y-118562381D01*
X97020000Y-118562381D02*
X97020000Y-117562381D01*
X96924762Y-117705238D01*
X96829524Y-117800476D01*
X96734286Y-117848095D01*
X99158095Y-111802381D02*
X99158095Y-110802381D01*
X99729524Y-111802381D02*
X99300952Y-111230952D01*
X99729524Y-110802381D02*
X99158095Y-111373810D01*
X91836905Y-113196667D02*
X92313096Y-113196667D01*
X91741667Y-113482381D02*
X92075000Y-112482381D01*
X92408334Y-113482381D01*
X67971421Y-109553333D02*
X68685707Y-109553333D01*
X68828564Y-109600953D01*
X68923802Y-109696191D01*
X68971421Y-109839048D01*
X68971421Y-109934286D01*
X68971421Y-108553333D02*
X68971421Y-109124762D01*
X68971421Y-108839048D02*
X67971421Y-108839048D01*
X68114278Y-108934286D01*
X68209516Y-109029524D01*
X68257135Y-109124762D01*
%LPC*%
D14*
X115570000Y-81280000D03*
X118110000Y-81280000D03*
X115570000Y-83820000D03*
X118110000Y-83820000D03*
X115570000Y-86360000D03*
X118110000Y-86360000D03*
X115570000Y-88900000D03*
X118110000Y-88900000D03*
X115570000Y-91440000D03*
X118110000Y-91440000D03*
X115570000Y-93980000D03*
X118110000Y-93980000D03*
X115570000Y-96520000D03*
X118110000Y-96520000D03*
X115570000Y-99060000D03*
D15*
X118110000Y-99060000D03*
D16*
X72261456Y-110744000D03*
X90041456Y-110744000D03*
X72261456Y-108204000D03*
X90041456Y-108204000D03*
X72261456Y-105664000D03*
X90041456Y-105664000D03*
X72261456Y-103124000D03*
X90041456Y-103124000D03*
X72261456Y-100584000D03*
X90041456Y-100584000D03*
X72261456Y-98044000D03*
X90041456Y-98044000D03*
X72261456Y-95504000D03*
X90041456Y-95504000D03*
X72261456Y-92964000D03*
X90041456Y-92964000D03*
X72261456Y-90424000D03*
X90041456Y-90424000D03*
X72261456Y-87884000D03*
X90041456Y-87884000D03*
X72261456Y-85344000D03*
X90041456Y-85344000D03*
X72261456Y-82804000D03*
X90041456Y-82804000D03*
D17*
X91946456Y-110744000D03*
X91946456Y-108204000D03*
X91946456Y-105664000D03*
X91946456Y-103124000D03*
X91946456Y-100584000D03*
X91946456Y-98044000D03*
X91946456Y-95504000D03*
X91946456Y-92964000D03*
X91946456Y-90424000D03*
X91946456Y-87884000D03*
X91946456Y-85344000D03*
X91946456Y-82804000D03*
X70356456Y-82804000D03*
X70356456Y-85344000D03*
X70356456Y-87884000D03*
X70356456Y-90424000D03*
X70356456Y-92964000D03*
X70356456Y-95504000D03*
X70356456Y-98044000D03*
X70356456Y-100584000D03*
X70356456Y-103124000D03*
X70356456Y-105664000D03*
X70356456Y-108204000D03*
X70356456Y-110744000D03*
D18*
X87501456Y-110744000D03*
X87501456Y-103124000D03*
D19*
X87501456Y-92964000D03*
X74801456Y-108204000D03*
X74801456Y-110744000D03*
D20*
X80135456Y-113538000D03*
X82167456Y-113538000D03*
D21*
X102659180Y-111760000D03*
X108160820Y-111760000D03*
X102659180Y-104140000D03*
X108160820Y-104140000D03*
D22*
X104140000Y-97040000D03*
X104140000Y-98540000D03*
X109220000Y-97040000D03*
X109220000Y-98540000D03*
X119380000Y-69330000D03*
X119380000Y-67830000D03*
X104140000Y-80760000D03*
X104140000Y-79260000D03*
X100330000Y-80760000D03*
X100330000Y-79260000D03*
D23*
X54610000Y-62230000D03*
D24*
X64770000Y-62230000D03*
D23*
X54610000Y-71120000D03*
D24*
X64770000Y-71120000D03*
D23*
X54610000Y-80010000D03*
D24*
X64770000Y-80010000D03*
D23*
X54610000Y-88900000D03*
D24*
X64770000Y-88900000D03*
D25*
X109540000Y-59055000D03*
X111440000Y-59055000D03*
D26*
X117475000Y-67830000D03*
X117475000Y-69330000D03*
D27*
X107430000Y-59055000D03*
X105930000Y-59055000D03*
D28*
X100140000Y-94600000D03*
X100940000Y-94600000D03*
X101740000Y-94600000D03*
X102540000Y-94600000D03*
X103340000Y-94600000D03*
X104140000Y-94600000D03*
X104940000Y-94600000D03*
X105740000Y-94600000D03*
X106540000Y-94600000D03*
X107340000Y-94600000D03*
X108140000Y-94600000D03*
D29*
X109840000Y-92900000D03*
X109840000Y-92100000D03*
X109840000Y-91300000D03*
X109840000Y-90500000D03*
X109840000Y-89700000D03*
X109840000Y-88900000D03*
X109840000Y-88100000D03*
X109840000Y-87300000D03*
X109840000Y-86500000D03*
X109840000Y-85700000D03*
X109840000Y-84900000D03*
D28*
X108140000Y-83200000D03*
X107340000Y-83200000D03*
X106540000Y-83200000D03*
X105740000Y-83200000D03*
X104940000Y-83200000D03*
X104140000Y-83200000D03*
X103340000Y-83200000D03*
X102540000Y-83200000D03*
X101740000Y-83200000D03*
X100940000Y-83200000D03*
X100140000Y-83200000D03*
D29*
X98440000Y-84900000D03*
X98440000Y-85700000D03*
X98440000Y-86500000D03*
X98440000Y-87300000D03*
X98440000Y-88100000D03*
X98440000Y-88900000D03*
X98440000Y-89700000D03*
X98440000Y-90500000D03*
X98440000Y-91300000D03*
X98440000Y-92100000D03*
X98440000Y-92900000D03*
D30*
X119415000Y-73025000D03*
X119415000Y-74295000D03*
X119415000Y-75565000D03*
X119415000Y-76835000D03*
D31*
X110490000Y-69850000D03*
D32*
X107950000Y-69850000D03*
X105410000Y-69850000D03*
X102870000Y-69850000D03*
X100330000Y-69850000D03*
X97790000Y-69850000D03*
D31*
X110490000Y-73660000D03*
D32*
X107950000Y-73660000D03*
X105410000Y-73660000D03*
X102870000Y-73660000D03*
X100330000Y-73660000D03*
X97790000Y-73660000D03*
D33*
X116840000Y-62230000D03*
D34*
X119465000Y-62230000D03*
X118696155Y-64086155D03*
X116840000Y-64855000D03*
X114983845Y-64086155D03*
X114215000Y-62230000D03*
X114983845Y-60373845D03*
X116840000Y-59605000D03*
X118696155Y-60373845D03*
D33*
X56880000Y-98810000D03*
D34*
X59505000Y-98810000D03*
X58736155Y-100666155D03*
X56880000Y-101435000D03*
X55023845Y-100666155D03*
X54255000Y-98810000D03*
X55023845Y-96953845D03*
X56880000Y-96185000D03*
X58736155Y-96953845D03*
D33*
X116840000Y-111760000D03*
D34*
X119465000Y-111760000D03*
X118696155Y-113616155D03*
X116840000Y-114385000D03*
X114983845Y-113616155D03*
X114215000Y-111760000D03*
X114983845Y-109903845D03*
X116840000Y-109135000D03*
X118696155Y-109903845D03*
D35*
X95885000Y-110720000D03*
X95885000Y-107720000D03*
D36*
X98518980Y-114300000D03*
X94521020Y-114300000D03*
D37*
X64620140Y-109220000D03*
X58620660Y-109220000D03*
X61620400Y-113919000D03*
M02*
