G04 #@! TF.FileFunction,Paste,Bot*
%FSLAX46Y46*%
G04 Gerber Fmt 4.6, Leading zero omitted, Abs format (unit mm)*
G04 Created by KiCad (PCBNEW 4.0.4-stable) date 01/08/17 17:33:34*
%MOMM*%
%LPD*%
G01*
G04 APERTURE LIST*
%ADD10C,0.254000*%
%ADD11O,1.646000X0.286000*%
%ADD12O,0.286000X1.646000*%
%ADD13R,1.346000X0.746000*%
%ADD14R,0.996000X0.746000*%
%ADD15R,0.496000X0.546000*%
%ADD16R,0.546000X0.496000*%
%ADD17R,3.746000X4.246000*%
%ADD18R,0.500000X0.500000*%
%ADD19R,1.570000X1.235000*%
%ADD20R,1.570000X1.585000*%
%ADD21R,1.526000X0.166000*%
%ADD22R,2.000000X2.100000*%
G04 APERTURE END LIST*
D10*
D11*
X87645000Y-74485000D03*
X87645000Y-73685000D03*
X87645000Y-72885000D03*
X87645000Y-72085000D03*
X87645000Y-71285000D03*
X87645000Y-70485000D03*
X87645000Y-69685000D03*
X87645000Y-68885000D03*
X87645000Y-68085000D03*
X87645000Y-67285000D03*
X87645000Y-66485000D03*
D12*
X89345000Y-64785000D03*
X90145000Y-64785000D03*
X90945000Y-64785000D03*
X91745000Y-64785000D03*
X92545000Y-64785000D03*
X93345000Y-64785000D03*
X94145000Y-64785000D03*
X94945000Y-64785000D03*
X95745000Y-64785000D03*
X96545000Y-64785000D03*
X97345000Y-64785000D03*
D11*
X99045000Y-66485000D03*
X99045000Y-67285000D03*
X99045000Y-68085000D03*
X99045000Y-68885000D03*
X99045000Y-69685000D03*
X99045000Y-70485000D03*
X99045000Y-71285000D03*
X99045000Y-72085000D03*
X99045000Y-72885000D03*
X99045000Y-73685000D03*
X99045000Y-74485000D03*
D12*
X97345000Y-76185000D03*
X96545000Y-76185000D03*
X95745000Y-76185000D03*
X94945000Y-76185000D03*
X94145000Y-76185000D03*
X93345000Y-76185000D03*
X92545000Y-76185000D03*
X91745000Y-76185000D03*
X90945000Y-76185000D03*
X90145000Y-76185000D03*
X89345000Y-76185000D03*
D13*
X81280000Y-110720000D03*
X81280000Y-107720000D03*
X83820000Y-110720000D03*
X83820000Y-107720000D03*
X86360000Y-110720000D03*
X86360000Y-107720000D03*
D14*
X89535000Y-110220000D03*
X89535000Y-108220000D03*
D15*
X72390000Y-102350000D03*
X72390000Y-100850000D03*
X101727000Y-70854000D03*
X101727000Y-69354000D03*
X85725000Y-65520000D03*
X85725000Y-64020000D03*
X101600000Y-74815000D03*
X101600000Y-76315000D03*
X85090000Y-70370000D03*
X85090000Y-71870000D03*
D14*
X83693000Y-103616000D03*
X83693000Y-101616000D03*
D16*
X74673425Y-108382417D03*
X76173425Y-108382417D03*
D15*
X66675000Y-100850000D03*
X66675000Y-102350000D03*
D13*
X79233425Y-95452417D03*
X79233425Y-98452417D03*
X76693425Y-95452417D03*
X76693425Y-98452417D03*
D17*
X94893425Y-90170000D03*
X83893425Y-90170000D03*
D18*
X92568425Y-99032417D03*
X93838425Y-99032417D03*
X95108425Y-99032417D03*
X96378425Y-99032417D03*
X92568425Y-104572417D03*
X93838425Y-104572417D03*
X95108425Y-104572417D03*
X96378425Y-104572417D03*
D19*
X95568425Y-100934917D03*
X93378425Y-100934917D03*
D20*
X93378425Y-102844917D03*
X95568425Y-102844917D03*
D18*
X90028425Y-104572417D03*
X88758425Y-104572417D03*
X87488425Y-104572417D03*
X86218425Y-104572417D03*
X90028425Y-99032417D03*
X88758425Y-99032417D03*
X87488425Y-99032417D03*
X86218425Y-99032417D03*
D19*
X87028425Y-102669917D03*
X89218425Y-102669917D03*
D20*
X89218425Y-100759917D03*
X87028425Y-100759917D03*
D15*
X64770000Y-102350000D03*
X64770000Y-100850000D03*
D16*
X83793425Y-98857417D03*
X82293425Y-98857417D03*
D15*
X68580000Y-100850000D03*
X68580000Y-102350000D03*
X70485000Y-102350000D03*
X70485000Y-100850000D03*
D21*
X80943425Y-105252417D03*
X74983425Y-105252417D03*
X80943425Y-104602417D03*
X74983425Y-104602417D03*
X80943425Y-103952417D03*
X74983425Y-103952417D03*
X80943425Y-103302417D03*
X74983425Y-103302417D03*
X80943425Y-102652417D03*
X74983425Y-102652417D03*
X80943425Y-102002417D03*
X74983425Y-102002417D03*
X80943425Y-101352417D03*
X74983425Y-101352417D03*
D22*
X77963425Y-103302417D03*
M02*
