G04 #@! TF.FileFunction,Paste,Top*
%FSLAX46Y46*%
G04 Gerber Fmt 4.6, Leading zero omitted, Abs format (unit mm)*
G04 Created by KiCad (PCBNEW 4.0.0-rc2-stable) date 11/29/2015 17:05:23*
%MOMM*%
G01*
G04 APERTURE LIST*
%ADD10C,0.254000*%
%ADD11R,1.016000X2.921000*%
%ADD12R,1.524000X1.524000*%
%ADD13R,0.889000X0.889000*%
%ADD14R,1.524000X1.270000*%
%ADD15O,1.646000X0.286000*%
%ADD16O,0.286000X1.646000*%
%ADD17R,3.146000X1.046000*%
%ADD18R,0.996000X0.746000*%
%ADD19R,0.546000X0.496000*%
%ADD20R,0.966000X0.656000*%
%ADD21R,0.246000X0.646000*%
%ADD22R,0.646000X0.246000*%
%ADD23R,1.546000X0.546000*%
%ADD24R,1.046000X0.446000*%
%ADD25R,3.345180X1.346200*%
G04 APERTURE END LIST*
D10*
D11*
X-36830000Y12065000D03*
X-34290000Y12065000D03*
X-31750000Y12065000D03*
X-29210000Y12065000D03*
X-26670000Y12065000D03*
X-24130000Y12065000D03*
X-21590000Y12065000D03*
X-19050000Y12065000D03*
X-16510000Y12065000D03*
X-13970000Y12065000D03*
X-11430000Y12065000D03*
X-8890000Y12065000D03*
X-8890000Y33655000D03*
X-11430000Y33655000D03*
X-13970000Y33655000D03*
X-16510000Y33655000D03*
X-19050000Y33655000D03*
X-21590000Y33655000D03*
X-24130000Y33655000D03*
X-26670000Y33655000D03*
X-29210000Y33655000D03*
X-31750000Y33655000D03*
X-34290000Y33655000D03*
X-36830000Y33655000D03*
D12*
X-36830000Y16510000D03*
X-29210000Y16510000D03*
D13*
X-19050000Y16510000D03*
X-34290000Y29210000D03*
X-36830000Y29210000D03*
D14*
X-39624000Y23876000D03*
X-39624000Y21844000D03*
D15*
X-22464000Y4762000D03*
X-22464000Y3962000D03*
X-22464000Y3162000D03*
X-22464000Y2362000D03*
X-22464000Y1562000D03*
X-22464000Y762000D03*
X-22464000Y-38000D03*
X-22464000Y-838000D03*
X-22464000Y-1638000D03*
X-22464000Y-2438000D03*
X-22464000Y-3238000D03*
D16*
X-20764000Y-4938000D03*
X-19964000Y-4938000D03*
X-19164000Y-4938000D03*
X-18364000Y-4938000D03*
X-17564000Y-4938000D03*
X-16764000Y-4938000D03*
X-15964000Y-4938000D03*
X-15164000Y-4938000D03*
X-14364000Y-4938000D03*
X-13564000Y-4938000D03*
X-12764000Y-4938000D03*
D15*
X-11064000Y-3238000D03*
X-11064000Y-2438000D03*
X-11064000Y-1638000D03*
X-11064000Y-838000D03*
X-11064000Y-38000D03*
X-11064000Y762000D03*
X-11064000Y1562000D03*
X-11064000Y2362000D03*
X-11064000Y3162000D03*
X-11064000Y3962000D03*
X-11064000Y4762000D03*
D16*
X-12764000Y6462000D03*
X-13564000Y6462000D03*
X-14364000Y6462000D03*
X-15164000Y6462000D03*
X-15964000Y6462000D03*
X-16764000Y6462000D03*
X-17564000Y6462000D03*
X-18364000Y6462000D03*
X-19164000Y6462000D03*
X-19964000Y6462000D03*
X-20764000Y6462000D03*
D17*
X-36830000Y38195000D03*
X-36830000Y46895000D03*
D18*
X-8890000Y-22590000D03*
X-8890000Y-20590000D03*
D19*
X-25400000Y1270000D03*
X-26900000Y1270000D03*
X-8370000Y635000D03*
X-6870000Y635000D03*
X2540000Y31115000D03*
X1040000Y31115000D03*
X-25285000Y-3175000D03*
X-26785000Y-3175000D03*
X-8370000Y5080000D03*
X-6870000Y5080000D03*
D20*
X-29845000Y43450000D03*
X-29845000Y46720000D03*
X-29845000Y41640000D03*
X-29845000Y38370000D03*
D21*
X1155000Y29210000D03*
X2655000Y29210000D03*
D22*
X5080000Y17665000D03*
X5080000Y19165000D03*
D23*
X5115000Y30480000D03*
X5115000Y29210000D03*
X5115000Y27940000D03*
X5115000Y26670000D03*
D24*
X5080000Y16190000D03*
X5080000Y14290000D03*
D25*
X-8465820Y-27940000D03*
X-2964180Y-27940000D03*
M02*
