G04 #@! TF.FileFunction,Soldermask,Top*
%FSLAX46Y46*%
G04 Gerber Fmt 4.6, Leading zero omitted, Abs format (unit mm)*
G04 Created by KiCad (PCBNEW 4.0.1-stable) date 7/4/2016 23:44:39*
%MOMM*%
G01*
G04 APERTURE LIST*
%ADD10C,0.254000*%
%ADD11O,2.406400X1.606400*%
%ADD12R,3.581400X1.676400*%
%ADD13R,2.184400X2.184400*%
%ADD14R,1.549400X1.549400*%
%ADD15R,1.930400X2.184400*%
%ADD16R,4.005580X2.006600*%
%ADD17R,1.656400X1.406400*%
%ADD18R,1.156400X1.206400*%
%ADD19R,1.206400X1.156400*%
%ADD20R,1.306400X1.506400*%
%ADD21R,1.306400X1.306400*%
%ADD22R,4.406400X4.406400*%
%ADD23C,2.946400*%
%ADD24C,4.216400*%
%ADD25R,1.106400X1.706400*%
%ADD26R,0.906400X1.306400*%
%ADD27O,0.946400X2.306400*%
%ADD28O,2.306400X0.946400*%
%ADD29R,1.206400X2.206400*%
%ADD30R,2.133600X2.438400*%
%ADD31O,2.133600X2.438400*%
%ADD32O,2.311400X1.930400*%
%ADD33R,2.311400X1.930400*%
%ADD34C,3.906400*%
%ADD35C,7.406400*%
%ADD36C,1.006400*%
G04 APERTURE END LIST*
D10*
D11*
X-44578544Y-11251338D03*
X-26798544Y-11251338D03*
X-44578544Y-8711338D03*
X-26798544Y-8711338D03*
X-44578544Y-6171338D03*
X-26798544Y-6171338D03*
X-44578544Y-3631338D03*
X-26798544Y-3631338D03*
X-44578544Y-1091338D03*
X-26798544Y-1091338D03*
X-44578544Y1448662D03*
X-26798544Y1448662D03*
X-44578544Y3988662D03*
X-26798544Y3988662D03*
X-44578544Y6528662D03*
X-26798544Y6528662D03*
X-44578544Y9068662D03*
X-26798544Y9068662D03*
X-44578544Y11608662D03*
X-26798544Y11608662D03*
X-44578544Y14148662D03*
X-26798544Y14148662D03*
X-44578544Y16688662D03*
X-26798544Y16688662D03*
D12*
X-24893544Y-11251338D03*
X-24893544Y-8711338D03*
X-24893544Y-6171338D03*
X-24893544Y-3631338D03*
X-24893544Y-1091338D03*
X-24893544Y1448662D03*
X-24893544Y3988662D03*
X-24893544Y6528662D03*
X-24893544Y9068662D03*
X-24893544Y11608662D03*
X-24893544Y14148662D03*
X-24893544Y16688662D03*
X-46483544Y16688662D03*
X-46483544Y14148662D03*
X-46483544Y11608662D03*
X-46483544Y9068662D03*
X-46483544Y6528662D03*
X-46483544Y3988662D03*
X-46483544Y1448662D03*
X-46483544Y-1091338D03*
X-46483544Y-3631338D03*
X-46483544Y-6171338D03*
X-46483544Y-8711338D03*
X-46483544Y-11251338D03*
D13*
X-29338544Y-11251338D03*
X-29338544Y-3631338D03*
D14*
X-29338544Y6528662D03*
X-42038544Y-8711338D03*
X-42038544Y-11251338D03*
D15*
X-36704544Y-14045338D03*
X-34672544Y-14045338D03*
D16*
X-16720820Y-10160000D03*
X-11219180Y-10160000D03*
X-16720820Y-17780000D03*
X-11219180Y-17780000D03*
D17*
X-21590000Y-11160000D03*
X-21590000Y-9160000D03*
D18*
X-12700000Y-3060000D03*
X-12700000Y-4560000D03*
X-7620000Y-3060000D03*
X-7620000Y-4560000D03*
D19*
X-44970000Y24765000D03*
X-46470000Y24765000D03*
D18*
X-12700000Y13220000D03*
X-12700000Y14720000D03*
X-16510000Y13220000D03*
X-16510000Y14720000D03*
D20*
X-43250000Y-17780000D03*
D21*
X-45650000Y-17780000D03*
D22*
X-52070000Y-16510000D03*
X-58670000Y-16510000D03*
X-55420000Y-11811000D03*
D23*
X-62230000Y22860000D03*
D24*
X-52070000Y22860000D03*
D23*
X-62230000Y13970000D03*
D24*
X-52070000Y13970000D03*
D23*
X-62230000Y5080000D03*
D24*
X-52070000Y5080000D03*
D23*
X-62230000Y-3810000D03*
D24*
X-52070000Y-3810000D03*
D25*
X-29530000Y24130000D03*
X-31430000Y24130000D03*
D26*
X-46470000Y22860000D03*
X-44970000Y22860000D03*
X-27420000Y24130000D03*
X-25920000Y24130000D03*
D27*
X-16700000Y-620000D03*
X-15900000Y-620000D03*
X-15100000Y-620000D03*
X-14300000Y-620000D03*
X-13500000Y-620000D03*
X-12700000Y-620000D03*
X-11900000Y-620000D03*
X-11100000Y-620000D03*
X-10300000Y-620000D03*
X-9500000Y-620000D03*
X-8700000Y-620000D03*
D28*
X-7000000Y1080000D03*
X-7000000Y1880000D03*
X-7000000Y2680000D03*
X-7000000Y3480000D03*
X-7000000Y4280000D03*
X-7000000Y5080000D03*
X-7000000Y5880000D03*
X-7000000Y6680000D03*
X-7000000Y7480000D03*
X-7000000Y8280000D03*
X-7000000Y9080000D03*
D27*
X-8700000Y10780000D03*
X-9500000Y10780000D03*
X-10300000Y10780000D03*
X-11100000Y10780000D03*
X-11900000Y10780000D03*
X-12700000Y10780000D03*
X-13500000Y10780000D03*
X-14300000Y10780000D03*
X-15100000Y10780000D03*
X-15900000Y10780000D03*
X-16700000Y10780000D03*
D28*
X-18400000Y9080000D03*
X-18400000Y8280000D03*
X-18400000Y7480000D03*
X-18400000Y6680000D03*
X-18400000Y5880000D03*
X-18400000Y5080000D03*
X-18400000Y4280000D03*
X-18400000Y3480000D03*
X-18400000Y2680000D03*
X-18400000Y1880000D03*
X-18400000Y1080000D03*
D29*
X-41275000Y24800000D03*
X-40005000Y24800000D03*
X-38735000Y24800000D03*
X-37465000Y24800000D03*
D30*
X-6350000Y24130000D03*
D31*
X-8890000Y24130000D03*
X-11430000Y24130000D03*
X-13970000Y24130000D03*
X-16510000Y24130000D03*
X-19050000Y24130000D03*
D30*
X-6350000Y20320000D03*
D31*
X-8890000Y20320000D03*
X-11430000Y20320000D03*
X-13970000Y20320000D03*
X-16510000Y20320000D03*
X-19050000Y20320000D03*
D32*
X-1270000Y8890000D03*
X1270000Y8890000D03*
X-1270000Y6350000D03*
X1270000Y6350000D03*
X-1270000Y3810000D03*
X1270000Y3810000D03*
X-1270000Y1270000D03*
X1270000Y1270000D03*
X-1270000Y-1270000D03*
X1270000Y-1270000D03*
X-1270000Y-3810000D03*
X1270000Y-3810000D03*
X-1270000Y-6350000D03*
X1270000Y-6350000D03*
X-1270000Y-8890000D03*
D33*
X1270000Y-8890000D03*
D34*
X-62230000Y-10160000D03*
X-57150000Y24130000D03*
D35*
X0Y22860000D03*
D36*
X2625000Y22860000D03*
X1856155Y21003845D03*
X0Y20235000D03*
X-1856155Y21003845D03*
X-2625000Y22860000D03*
X-1856155Y24716155D03*
X0Y25485000D03*
X1856155Y24716155D03*
D35*
X85000Y-17780000D03*
D36*
X2710000Y-17780000D03*
X1941155Y-19636155D03*
X85000Y-20405000D03*
X-1771155Y-19636155D03*
X-2540000Y-17780000D03*
X-1771155Y-15923845D03*
X85000Y-15155000D03*
X1941155Y-15923845D03*
M02*
