G04 #@! TF.FileFunction,Copper,L1,Top,Signal*
%FSLAX46Y46*%
G04 Gerber Fmt 4.6, Leading zero omitted, Abs format (unit mm)*
G04 Created by KiCad (PCBNEW 4.0.6) date 04/12/17 01:17:06*
%MOMM*%
%LPD*%
G01*
G04 APERTURE LIST*
%ADD10C,0.254000*%
%ADD11R,4.000000X4.000000*%
%ADD12O,1.400000X2.000000*%
%ADD13R,1.400000X3.175000*%
%ADD14R,1.778000X1.778000*%
%ADD15R,1.143000X1.143000*%
%ADD16R,1.778000X1.524000*%
%ADD17O,1.905000X1.524000*%
%ADD18R,1.905000X1.524000*%
%ADD19C,2.540000*%
%ADD20C,3.810000*%
%ADD21C,7.000000*%
%ADD22C,0.600000*%
%ADD23R,0.800000X0.750000*%
%ADD24R,2.032000X1.727200*%
%ADD25O,2.032000X1.727200*%
%ADD26R,1.400000X9.020000*%
%ADD27R,0.800000X0.800000*%
%ADD28C,0.762000*%
%ADD29C,0.152400*%
%ADD30C,0.250000*%
%ADD31C,0.635000*%
%ADD32C,1.270000*%
%ADD33C,0.381000*%
G04 APERTURE END LIST*
D10*
D11*
X64620140Y-109220000D03*
X58620660Y-109220000D03*
X61620400Y-113919000D03*
D12*
X80010000Y-61595000D03*
X80010000Y-79375000D03*
X82550000Y-61595000D03*
X82550000Y-79375000D03*
X85090000Y-61595000D03*
X85090000Y-79375000D03*
X87630000Y-61595000D03*
X87630000Y-79375000D03*
X90170000Y-61595000D03*
X90170000Y-79375000D03*
X92710000Y-61595000D03*
X92710000Y-79375000D03*
X95250000Y-61595000D03*
X95250000Y-79375000D03*
X97790000Y-61595000D03*
X97790000Y-79375000D03*
X100330000Y-61595000D03*
X100330000Y-79375000D03*
X102870000Y-61595000D03*
X102870000Y-79375000D03*
X105410000Y-61595000D03*
X105410000Y-79375000D03*
X107950000Y-61595000D03*
X107950000Y-79375000D03*
D13*
X80010000Y-81280000D03*
X82550000Y-81280000D03*
X85090000Y-81280000D03*
X87630000Y-81280000D03*
X90170000Y-81280000D03*
X92710000Y-81280000D03*
X95250000Y-81280000D03*
X97790000Y-81280000D03*
X100330000Y-81280000D03*
X102870000Y-81280000D03*
X105410000Y-81280000D03*
X107950000Y-81280000D03*
X107950000Y-59690000D03*
X105410000Y-59690000D03*
X102870000Y-59690000D03*
X100330000Y-59690000D03*
X97790000Y-59690000D03*
X95250000Y-59690000D03*
X92710000Y-59690000D03*
X90170000Y-59690000D03*
X87630000Y-59690000D03*
X85090000Y-59690000D03*
X82550000Y-59690000D03*
X80010000Y-59690000D03*
D14*
X80010000Y-76835000D03*
X87630000Y-76835000D03*
D15*
X97790000Y-76835000D03*
X82550000Y-64135000D03*
X80010000Y-64135000D03*
D16*
X77216000Y-69469000D03*
X77216000Y-71501000D03*
D17*
X115570000Y-81280000D03*
X118110000Y-81280000D03*
X115570000Y-83820000D03*
X118110000Y-83820000D03*
X115570000Y-86360000D03*
X118110000Y-86360000D03*
X115570000Y-88900000D03*
X118110000Y-88900000D03*
X115570000Y-91440000D03*
X118110000Y-91440000D03*
X115570000Y-93980000D03*
X118110000Y-93980000D03*
X115570000Y-96520000D03*
X118110000Y-96520000D03*
X115570000Y-99060000D03*
D18*
X118110000Y-99060000D03*
D19*
X54610000Y-88900000D03*
D20*
X64770000Y-88900000D03*
D19*
X54610000Y-71120000D03*
D20*
X64770000Y-71120000D03*
D19*
X54610000Y-80010000D03*
D20*
X64770000Y-80010000D03*
D19*
X54610000Y-62230000D03*
D20*
X64770000Y-62230000D03*
D21*
X116840000Y-62230000D03*
D22*
X119465000Y-62230000D03*
X118696155Y-64086155D03*
X116840000Y-64855000D03*
X114983845Y-64086155D03*
X114215000Y-62230000D03*
X114983845Y-60373845D03*
X116840000Y-59605000D03*
X118696155Y-60373845D03*
D21*
X56880000Y-98810000D03*
D22*
X59505000Y-98810000D03*
X58736155Y-100666155D03*
X56880000Y-101435000D03*
X55023845Y-100666155D03*
X54255000Y-98810000D03*
X55023845Y-96953845D03*
X56880000Y-96185000D03*
X58736155Y-96953845D03*
D21*
X116840000Y-111760000D03*
D22*
X119465000Y-111760000D03*
X118696155Y-113616155D03*
X116840000Y-114385000D03*
X114983845Y-113616155D03*
X114215000Y-111760000D03*
X114983845Y-109903845D03*
X116840000Y-109135000D03*
X118696155Y-109903845D03*
D23*
X115050000Y-71120000D03*
X113550000Y-71120000D03*
D24*
X110490000Y-114300000D03*
D25*
X110490000Y-111760000D03*
X110490000Y-109220000D03*
X110490000Y-106680000D03*
X110490000Y-104140000D03*
X110490000Y-101600000D03*
D24*
X107950000Y-114300000D03*
D25*
X107950000Y-111760000D03*
X107950000Y-109220000D03*
X107950000Y-106680000D03*
X107950000Y-104140000D03*
X107950000Y-101600000D03*
D24*
X118110000Y-67945000D03*
D25*
X118110000Y-70485000D03*
X118110000Y-73025000D03*
D23*
X113550000Y-72390000D03*
X115050000Y-72390000D03*
X117590000Y-104140000D03*
X116090000Y-104140000D03*
D26*
X89850000Y-108585000D03*
X77790000Y-108585000D03*
X110805000Y-90170000D03*
X98745000Y-90170000D03*
X86040000Y-90170000D03*
X73980000Y-90170000D03*
D27*
X119380000Y-104025000D03*
X119380000Y-105525000D03*
D28*
X66176348Y-96998537D03*
X78867000Y-114935000D03*
X104140000Y-99060000D03*
X107569000Y-85344000D03*
X84455000Y-113030000D03*
X84455000Y-111887000D03*
X83185000Y-111760000D03*
X83185000Y-113030000D03*
X81915000Y-113030000D03*
X81915000Y-111760000D03*
X81915000Y-110490000D03*
X81915000Y-106680000D03*
X81915000Y-107950000D03*
X81915000Y-109220000D03*
X92329000Y-111760000D03*
X92329000Y-112649000D03*
X92329000Y-113538000D03*
X93218000Y-113538000D03*
X93218000Y-112649000D03*
X93218000Y-111760000D03*
X94234000Y-111760000D03*
X94234000Y-112649000D03*
X94234000Y-113538000D03*
X95250000Y-113538000D03*
X95250000Y-112649000D03*
X95250000Y-111760000D03*
X68021200Y-103022400D03*
X68834000Y-103022400D03*
X69646800Y-103022400D03*
X72085200Y-103022400D03*
X71272400Y-103022400D03*
X70459600Y-103022400D03*
X82169000Y-98679000D03*
X81407000Y-98679000D03*
X80645000Y-98679000D03*
X79883000Y-98679000D03*
X79121000Y-98679000D03*
X78613000Y-98044000D03*
X79502000Y-98044000D03*
X80391000Y-98044000D03*
X79883000Y-97409000D03*
X79121000Y-97409000D03*
X78232000Y-97409000D03*
X78740000Y-96774000D03*
X79502000Y-96774000D03*
X80264000Y-96774000D03*
X77470000Y-59055000D03*
X77470000Y-67183000D03*
X85725000Y-63119000D03*
X84582000Y-64008000D03*
X85090000Y-73025000D03*
X102870000Y-69342000D03*
X102743000Y-76327000D03*
X118999000Y-106807000D03*
X102870000Y-71755000D03*
X112268000Y-73660000D03*
X113792000Y-73660000D03*
X113030000Y-73660000D03*
X102743000Y-74803000D03*
X102870000Y-70866000D03*
X82423000Y-71374000D03*
X82423000Y-71374000D03*
X85852000Y-67310000D03*
X83334873Y-71374000D03*
X104902000Y-76581000D03*
X103759000Y-76327000D03*
X101600000Y-66548000D03*
X116078000Y-105410000D03*
X67310000Y-104775000D03*
X65278000Y-97155000D03*
X73914000Y-102489000D03*
X75565000Y-101346000D03*
X66167000Y-101219000D03*
X73787000Y-100083000D03*
X67172964Y-100799918D03*
X85344000Y-100457000D03*
X66088264Y-95836736D03*
X80010000Y-114935000D03*
X67875009Y-96861481D03*
X73279000Y-97028000D03*
D29*
X64389000Y-96520000D02*
X64389000Y-102743000D01*
X64389000Y-102743000D02*
X76581000Y-114935000D01*
X65697811Y-96520000D02*
X64389000Y-96520000D01*
X66176348Y-96998537D02*
X65697811Y-96520000D01*
X76581000Y-114935000D02*
X78867000Y-114935000D01*
D10*
X80010000Y-79375000D02*
X80010000Y-81280000D01*
X104140000Y-99060000D02*
X104140000Y-99598815D01*
X104140000Y-99598815D02*
X106141185Y-101600000D01*
X106141185Y-101600000D02*
X106680000Y-101600000D01*
X106680000Y-101600000D02*
X107950000Y-101600000D01*
X107569000Y-85344000D02*
X107569000Y-87888000D01*
X107569000Y-87888000D02*
X111121000Y-91440000D01*
X111121000Y-91440000D02*
X114363500Y-91440000D01*
X114363500Y-91440000D02*
X115570000Y-91440000D01*
X84455000Y-111887000D02*
X84455000Y-113030000D01*
X83185000Y-113030000D02*
X83185000Y-111760000D01*
X81915000Y-111760000D02*
X81915000Y-113030000D01*
X81915000Y-106680000D02*
X81915000Y-110490000D01*
X81915000Y-109220000D02*
X81915000Y-107950000D01*
X92329000Y-112649000D02*
X92329000Y-111760000D01*
X93218000Y-113538000D02*
X92329000Y-113538000D01*
X93218000Y-111760000D02*
X93218000Y-112649000D01*
X94234000Y-112649000D02*
X94234000Y-111760000D01*
X95250000Y-113538000D02*
X94234000Y-113538000D01*
X95250000Y-111760000D02*
X95250000Y-112649000D01*
X68834000Y-103022400D02*
X68021200Y-103022400D01*
X72085200Y-103022400D02*
X69646800Y-103022400D01*
X70459600Y-103022400D02*
X71272400Y-103022400D01*
X77470000Y-67183000D02*
X77470000Y-59055000D01*
D30*
X84770000Y-88900000D02*
X83820000Y-88900000D01*
X83820000Y-88900000D02*
X82550000Y-87630000D01*
X82550000Y-87630000D02*
X82550000Y-83117500D01*
X82550000Y-83117500D02*
X82550000Y-81280000D01*
D10*
X99380000Y-88900000D02*
X111440000Y-88900000D01*
X84770000Y-88900000D02*
X85724000Y-88900000D01*
X85724000Y-88900000D02*
X99380000Y-88900000D01*
X115570000Y-91440000D02*
X113980000Y-91440000D01*
X113980000Y-91440000D02*
X111440000Y-88900000D01*
X81407000Y-98679000D02*
X82169000Y-98679000D01*
X79883000Y-98679000D02*
X80645000Y-98679000D01*
X78613000Y-98044000D02*
X78613000Y-98171000D01*
X78613000Y-98171000D02*
X79121000Y-98679000D01*
X80391000Y-98044000D02*
X79502000Y-98044000D01*
X79121000Y-97409000D02*
X79883000Y-97409000D01*
X78740000Y-96774000D02*
X78740000Y-96901000D01*
X78740000Y-96901000D02*
X78232000Y-97409000D01*
X80264000Y-96774000D02*
X79502000Y-96774000D01*
D31*
X99949000Y-70231000D02*
X100838000Y-69342000D01*
X100838000Y-69342000D02*
X102870000Y-69342000D01*
X99949000Y-75311000D02*
X99949000Y-70231000D01*
X100965000Y-76327000D02*
X99949000Y-75311000D01*
X102743000Y-76327000D02*
X100965000Y-76327000D01*
D10*
X82550000Y-79375000D02*
X82550000Y-81280000D01*
X87630000Y-61595000D02*
X87630000Y-59690000D01*
D31*
X84582000Y-64008000D02*
X84836000Y-64008000D01*
X84836000Y-64008000D02*
X85725000Y-63119000D01*
D10*
X80010000Y-61595000D02*
X80010000Y-59690000D01*
X113550000Y-72390000D02*
X113550000Y-73418000D01*
X113550000Y-73418000D02*
X113792000Y-73660000D01*
D32*
X119380000Y-105725000D02*
X119380000Y-106426000D01*
X119380000Y-106426000D02*
X118999000Y-106807000D01*
X103886000Y-73660000D02*
X103886000Y-72771000D01*
X103886000Y-72771000D02*
X103886000Y-71882000D01*
X102870000Y-71755000D02*
X103886000Y-72771000D01*
X103886000Y-71882000D02*
X102870000Y-70866000D01*
X112268000Y-73660000D02*
X103886000Y-73660000D01*
X103886000Y-73660000D02*
X102743000Y-74803000D01*
X113030000Y-73660000D02*
X112268000Y-73660000D01*
X113792000Y-73660000D02*
X113030000Y-73660000D01*
D29*
X102870000Y-61595000D02*
X102870000Y-59690000D01*
X92710000Y-61595000D02*
X92710000Y-59690000D01*
X82423000Y-71374000D02*
X82423000Y-70739000D01*
X82423000Y-70739000D02*
X85852000Y-67310000D01*
X90551000Y-67310000D02*
X85852000Y-67310000D01*
X92710000Y-65151000D02*
X90551000Y-67310000D01*
X92710000Y-61595000D02*
X92710000Y-65151000D01*
X83715872Y-70993001D02*
X83334873Y-71374000D01*
X83870800Y-70838073D02*
X83715872Y-70993001D01*
X83870800Y-70307200D02*
X83870800Y-70838073D01*
X95250000Y-61595000D02*
X95250000Y-59690000D01*
X90678000Y-67614800D02*
X95250000Y-63042800D01*
X95250000Y-63042800D02*
X95250000Y-61595000D01*
X86563200Y-67614800D02*
X90678000Y-67614800D01*
X83870800Y-70307200D02*
X86563200Y-67614800D01*
X102870000Y-79375000D02*
X102870000Y-81280000D01*
X103759000Y-77724000D02*
X104902000Y-76581000D01*
X102870000Y-79375000D02*
X102870000Y-78222600D01*
X102870000Y-78222600D02*
X103368600Y-77724000D01*
X103368600Y-77724000D02*
X103759000Y-77724000D01*
X100330000Y-61595000D02*
X100330000Y-59690000D01*
X100330000Y-65278000D02*
X100330000Y-61595000D01*
X101600000Y-66548000D02*
X100330000Y-65278000D01*
X103632000Y-69723000D02*
X103632000Y-68580000D01*
X103632000Y-68580000D02*
X101600000Y-66548000D01*
X103378000Y-69977000D02*
X103632000Y-69723000D01*
X102489000Y-69977000D02*
X103378000Y-69977000D01*
X101854000Y-75184000D02*
X101854000Y-70612000D01*
X101854000Y-70612000D02*
X102489000Y-69977000D01*
X103124000Y-75692000D02*
X102362000Y-75692000D01*
X102362000Y-75692000D02*
X101854000Y-75184000D01*
X103759000Y-76327000D02*
X103124000Y-75692000D01*
X103124000Y-75692000D02*
X102616000Y-75692000D01*
X101854000Y-75057000D02*
X101854000Y-75184000D01*
X102489000Y-75692000D02*
X102362000Y-75692000D01*
X102616000Y-75692000D02*
X102489000Y-75692000D01*
X102616000Y-75692000D02*
X102362000Y-75692000D01*
X105410000Y-79375000D02*
X105410000Y-81280000D01*
X116967000Y-105410000D02*
X116078000Y-105410000D01*
X117590000Y-104787000D02*
X116967000Y-105410000D01*
X117590000Y-104140000D02*
X117590000Y-104787000D01*
X118262600Y-104140000D02*
X117590000Y-104140000D01*
X119380000Y-103825000D02*
X118577600Y-103825000D01*
X118577600Y-103825000D02*
X118262600Y-104140000D01*
X85090000Y-61595000D02*
X85090000Y-59690000D01*
X85090000Y-79375000D02*
X85090000Y-81280000D01*
X87630000Y-79375000D02*
X87630000Y-81280000D01*
X107950000Y-79375000D02*
X107950000Y-81280000D01*
X90170000Y-79375000D02*
X90170000Y-81280000D01*
X95250000Y-79375000D02*
X95250000Y-81280000D01*
X97790000Y-79375000D02*
X97790000Y-81280000D01*
X100330000Y-79375000D02*
X100330000Y-81280000D01*
X105410000Y-61595000D02*
X105410000Y-59690000D01*
X82550000Y-61595000D02*
X82550000Y-59690000D01*
D33*
X65278000Y-97155000D02*
X65278000Y-97693815D01*
X65278000Y-97693815D02*
X65405000Y-97820815D01*
X65405000Y-97820815D02*
X65405000Y-102870000D01*
X65405000Y-102870000D02*
X67310000Y-104775000D01*
D10*
X115710000Y-73025000D02*
X118110000Y-73025000D01*
X115050000Y-72390000D02*
X115075000Y-72390000D01*
X115075000Y-72390000D02*
X115710000Y-73025000D01*
X115050000Y-71120000D02*
X115050000Y-72390000D01*
D33*
X74422000Y-102489000D02*
X73914000Y-102489000D01*
X75565000Y-101346000D02*
X74422000Y-102489000D01*
D29*
X90170000Y-59690000D02*
X90170000Y-61595000D01*
X92710000Y-79375000D02*
X92710000Y-81280000D01*
X97790000Y-61595000D02*
X97790000Y-59690000D01*
X107950000Y-61595000D02*
X107950000Y-59690000D01*
D33*
X66167000Y-101219000D02*
X66167000Y-100203000D01*
X66167000Y-100203000D02*
X66802000Y-99568000D01*
X72733185Y-99568000D02*
X66802000Y-99568000D01*
X73787000Y-100083000D02*
X73248185Y-100083000D01*
X73248185Y-100083000D02*
X72733185Y-99568000D01*
X67553963Y-101180917D02*
X67172964Y-100799918D01*
X75386385Y-100457000D02*
X74662468Y-101180917D01*
X78486000Y-100457000D02*
X75386385Y-100457000D01*
X74662468Y-101180917D02*
X67553963Y-101180917D01*
X78486000Y-100457000D02*
X78709185Y-100457000D01*
X78486000Y-100457000D02*
X85344000Y-100457000D01*
D10*
X78709185Y-100457000D02*
X85344000Y-100457000D01*
D29*
X65549449Y-95836736D02*
X66088264Y-95836736D01*
X76760587Y-115542062D02*
X63324729Y-102106204D01*
X79402938Y-115542062D02*
X76760587Y-115542062D01*
X80010000Y-114935000D02*
X79402938Y-115542062D01*
X63324729Y-102106204D02*
X63324729Y-97156796D01*
X64644790Y-95836736D02*
X65549449Y-95836736D01*
X63324729Y-97156796D02*
X64644790Y-95836736D01*
X68041528Y-97028000D02*
X67875009Y-96861481D01*
X73279000Y-97028000D02*
X68041528Y-97028000D01*
D10*
G36*
X121158000Y-116078000D02*
X105537000Y-116078000D01*
X105537000Y-104140000D01*
X106266655Y-104140000D01*
X106380729Y-104713489D01*
X106705585Y-105199670D01*
X107020366Y-105410000D01*
X106705585Y-105620330D01*
X106380729Y-106106511D01*
X106266655Y-106680000D01*
X106380729Y-107253489D01*
X106705585Y-107739670D01*
X107020366Y-107950000D01*
X106705585Y-108160330D01*
X106380729Y-108646511D01*
X106266655Y-109220000D01*
X106380729Y-109793489D01*
X106705585Y-110279670D01*
X107020366Y-110490000D01*
X106705585Y-110700330D01*
X106380729Y-111186511D01*
X106266655Y-111760000D01*
X106380729Y-112333489D01*
X106705585Y-112819670D01*
X106719913Y-112829243D01*
X106698683Y-112833238D01*
X106482559Y-112972310D01*
X106337569Y-113184510D01*
X106286560Y-113436400D01*
X106286560Y-115163600D01*
X106330838Y-115398917D01*
X106469910Y-115615041D01*
X106682110Y-115760031D01*
X106934000Y-115811040D01*
X108966000Y-115811040D01*
X109201317Y-115766762D01*
X109217099Y-115756607D01*
X109222110Y-115760031D01*
X109474000Y-115811040D01*
X111506000Y-115811040D01*
X111741317Y-115766762D01*
X111957441Y-115627690D01*
X112102431Y-115415490D01*
X112153440Y-115163600D01*
X112153440Y-114717312D01*
X114062293Y-114717312D01*
X114465762Y-115243924D01*
X115979730Y-115887307D01*
X117624666Y-115902346D01*
X119150145Y-115286750D01*
X119214238Y-115243924D01*
X119617707Y-114717312D01*
X116840000Y-111939605D01*
X114062293Y-114717312D01*
X112153440Y-114717312D01*
X112153440Y-113436400D01*
X112109162Y-113201083D01*
X111970090Y-112984959D01*
X111757890Y-112839969D01*
X111716561Y-112831600D01*
X111734415Y-112819670D01*
X111918166Y-112544666D01*
X112697654Y-112544666D01*
X113313250Y-114070145D01*
X113356076Y-114134238D01*
X113882688Y-114537707D01*
X116660395Y-111760000D01*
X117019605Y-111760000D01*
X119797312Y-114537707D01*
X120323924Y-114134238D01*
X120967307Y-112620270D01*
X120982346Y-110975334D01*
X120366750Y-109449855D01*
X120323924Y-109385762D01*
X119797312Y-108982293D01*
X117019605Y-111760000D01*
X116660395Y-111760000D01*
X113882688Y-108982293D01*
X113356076Y-109385762D01*
X112712693Y-110899730D01*
X112697654Y-112544666D01*
X111918166Y-112544666D01*
X112059271Y-112333489D01*
X112173345Y-111760000D01*
X112059271Y-111186511D01*
X111734415Y-110700330D01*
X111419634Y-110490000D01*
X111734415Y-110279670D01*
X112059271Y-109793489D01*
X112173345Y-109220000D01*
X112090337Y-108802688D01*
X114062293Y-108802688D01*
X116840000Y-111580395D01*
X119617707Y-108802688D01*
X119214238Y-108276076D01*
X118522971Y-107982312D01*
X118999000Y-108077001D01*
X119485008Y-107980327D01*
X119897026Y-107705026D01*
X120278023Y-107324028D01*
X120278026Y-107324026D01*
X120553327Y-106912008D01*
X120650000Y-106426000D01*
X120650000Y-105725000D01*
X120553327Y-105238992D01*
X120407950Y-105021419D01*
X120383162Y-104889683D01*
X120309380Y-104775022D01*
X120376431Y-104676890D01*
X120427440Y-104425000D01*
X120427440Y-103625000D01*
X120383162Y-103389683D01*
X120244090Y-103173559D01*
X120031890Y-103028569D01*
X119780000Y-102977560D01*
X118980000Y-102977560D01*
X118744683Y-103021838D01*
X118601770Y-103113800D01*
X118577600Y-103113800D01*
X118350590Y-103158955D01*
X118305435Y-103167937D01*
X118272840Y-103189716D01*
X118241890Y-103168569D01*
X117990000Y-103117560D01*
X117190000Y-103117560D01*
X116954683Y-103161838D01*
X116851354Y-103228329D01*
X116849698Y-103226673D01*
X116616309Y-103130000D01*
X116375750Y-103130000D01*
X116217000Y-103288750D01*
X116217000Y-104013000D01*
X116237000Y-104013000D01*
X116237000Y-104267000D01*
X116217000Y-104267000D01*
X116217000Y-104287000D01*
X115963000Y-104287000D01*
X115963000Y-104267000D01*
X115213750Y-104267000D01*
X115055000Y-104425750D01*
X115055000Y-104641310D01*
X115151673Y-104874699D01*
X115185939Y-104908965D01*
X115062176Y-105207018D01*
X115061824Y-105611208D01*
X115216175Y-105984766D01*
X115501731Y-106270821D01*
X115875018Y-106425824D01*
X116279208Y-106426176D01*
X116652766Y-106271825D01*
X116803654Y-106121200D01*
X116967000Y-106121200D01*
X117239165Y-106067063D01*
X117469894Y-105912894D01*
X118092894Y-105289894D01*
X118205100Y-105121966D01*
X118225317Y-105118162D01*
X118334242Y-105048070D01*
X118206673Y-105238992D01*
X118110000Y-105725000D01*
X118110000Y-105899948D01*
X118100974Y-105908974D01*
X117825673Y-106320992D01*
X117728999Y-106807000D01*
X117825673Y-107293008D01*
X118100974Y-107705026D01*
X118503717Y-107974130D01*
X117700270Y-107632693D01*
X116055334Y-107617654D01*
X114529855Y-108233250D01*
X114465762Y-108276076D01*
X114062293Y-108802688D01*
X112090337Y-108802688D01*
X112059271Y-108646511D01*
X111734415Y-108160330D01*
X111419634Y-107950000D01*
X111734415Y-107739670D01*
X112059271Y-107253489D01*
X112173345Y-106680000D01*
X112059271Y-106106511D01*
X111734415Y-105620330D01*
X111419634Y-105410000D01*
X111734415Y-105199670D01*
X112059271Y-104713489D01*
X112173345Y-104140000D01*
X112073629Y-103638690D01*
X115055000Y-103638690D01*
X115055000Y-103854250D01*
X115213750Y-104013000D01*
X115963000Y-104013000D01*
X115963000Y-103288750D01*
X115804250Y-103130000D01*
X115563691Y-103130000D01*
X115330302Y-103226673D01*
X115151673Y-103405301D01*
X115055000Y-103638690D01*
X112073629Y-103638690D01*
X112059271Y-103566511D01*
X111734415Y-103080330D01*
X111424931Y-102873539D01*
X111840732Y-102502036D01*
X112094709Y-101974791D01*
X112097358Y-101959026D01*
X111976217Y-101727000D01*
X110617000Y-101727000D01*
X110617000Y-101747000D01*
X110363000Y-101747000D01*
X110363000Y-101727000D01*
X108077000Y-101727000D01*
X108077000Y-101747000D01*
X107823000Y-101747000D01*
X107823000Y-101727000D01*
X106463783Y-101727000D01*
X106342642Y-101959026D01*
X106345291Y-101974791D01*
X106599268Y-102502036D01*
X107015069Y-102873539D01*
X106705585Y-103080330D01*
X106380729Y-103566511D01*
X106266655Y-104140000D01*
X105537000Y-104140000D01*
X105537000Y-101240974D01*
X106342642Y-101240974D01*
X106463783Y-101473000D01*
X107823000Y-101473000D01*
X107823000Y-100259076D01*
X108077000Y-100259076D01*
X108077000Y-101473000D01*
X110363000Y-101473000D01*
X110363000Y-100259076D01*
X110617000Y-100259076D01*
X110617000Y-101473000D01*
X111976217Y-101473000D01*
X112097358Y-101240974D01*
X112094709Y-101225209D01*
X111840732Y-100697964D01*
X111404320Y-100308046D01*
X110851913Y-100114816D01*
X110617000Y-100259076D01*
X110363000Y-100259076D01*
X110128087Y-100114816D01*
X109575680Y-100308046D01*
X109220000Y-100625833D01*
X108864320Y-100308046D01*
X108311913Y-100114816D01*
X108077000Y-100259076D01*
X107823000Y-100259076D01*
X107588087Y-100114816D01*
X107035680Y-100308046D01*
X106599268Y-100697964D01*
X106345291Y-101225209D01*
X106342642Y-101240974D01*
X105537000Y-101240974D01*
X105537000Y-96012000D01*
X113030000Y-96012000D01*
X113076159Y-96003315D01*
X113118553Y-95976035D01*
X113146994Y-95934410D01*
X113157000Y-95885000D01*
X113157000Y-83820000D01*
X113951399Y-83820000D01*
X114057739Y-84354609D01*
X114360571Y-84807828D01*
X114782870Y-85090000D01*
X114360571Y-85372172D01*
X114057739Y-85825391D01*
X113951399Y-86360000D01*
X114057739Y-86894609D01*
X114360571Y-87347828D01*
X114782870Y-87630000D01*
X114360571Y-87912172D01*
X114057739Y-88365391D01*
X113951399Y-88900000D01*
X114057739Y-89434609D01*
X114360571Y-89887828D01*
X114800672Y-90181895D01*
X114702208Y-90213229D01*
X114284299Y-90565800D01*
X114033124Y-91051460D01*
X114025280Y-91096930D01*
X114147780Y-91313000D01*
X115443000Y-91313000D01*
X115443000Y-91293000D01*
X115697000Y-91293000D01*
X115697000Y-91313000D01*
X115717000Y-91313000D01*
X115717000Y-91567000D01*
X115697000Y-91567000D01*
X115697000Y-91587000D01*
X115443000Y-91587000D01*
X115443000Y-91567000D01*
X114147780Y-91567000D01*
X114025280Y-91783070D01*
X114033124Y-91828540D01*
X114284299Y-92314200D01*
X114702208Y-92666771D01*
X114800672Y-92698105D01*
X114360571Y-92992172D01*
X114057739Y-93445391D01*
X113951399Y-93980000D01*
X114057739Y-94514609D01*
X114360571Y-94967828D01*
X114800672Y-95261895D01*
X114702208Y-95293229D01*
X114284299Y-95645800D01*
X114033124Y-96131460D01*
X114025280Y-96176930D01*
X114147780Y-96393000D01*
X115443000Y-96393000D01*
X115443000Y-96373000D01*
X115697000Y-96373000D01*
X115697000Y-96393000D01*
X115717000Y-96393000D01*
X115717000Y-96647000D01*
X115697000Y-96647000D01*
X115697000Y-96667000D01*
X115443000Y-96667000D01*
X115443000Y-96647000D01*
X114147780Y-96647000D01*
X114025280Y-96863070D01*
X114033124Y-96908540D01*
X114284299Y-97394200D01*
X114702208Y-97746771D01*
X114800672Y-97778105D01*
X114360571Y-98072172D01*
X114057739Y-98525391D01*
X113951399Y-99060000D01*
X114057739Y-99594609D01*
X114360571Y-100047828D01*
X114813790Y-100350660D01*
X115348399Y-100457000D01*
X115791601Y-100457000D01*
X116326210Y-100350660D01*
X116617749Y-100155860D01*
X116693410Y-100273441D01*
X116905610Y-100418431D01*
X117157500Y-100469440D01*
X119062500Y-100469440D01*
X119297817Y-100425162D01*
X119513941Y-100286090D01*
X119658931Y-100073890D01*
X119709940Y-99822000D01*
X119709940Y-98298000D01*
X119665662Y-98062683D01*
X119526590Y-97846559D01*
X119314390Y-97701569D01*
X119095742Y-97657292D01*
X119319429Y-97507828D01*
X119622261Y-97054609D01*
X119728601Y-96520000D01*
X119622261Y-95985391D01*
X119319429Y-95532172D01*
X118897130Y-95250000D01*
X119319429Y-94967828D01*
X119622261Y-94514609D01*
X119728601Y-93980000D01*
X119622261Y-93445391D01*
X119319429Y-92992172D01*
X118897130Y-92710000D01*
X119319429Y-92427828D01*
X119622261Y-91974609D01*
X119728601Y-91440000D01*
X119622261Y-90905391D01*
X119319429Y-90452172D01*
X118897130Y-90170000D01*
X119319429Y-89887828D01*
X119622261Y-89434609D01*
X119728601Y-88900000D01*
X119622261Y-88365391D01*
X119319429Y-87912172D01*
X118897130Y-87630000D01*
X119319429Y-87347828D01*
X119622261Y-86894609D01*
X119728601Y-86360000D01*
X119622261Y-85825391D01*
X119319429Y-85372172D01*
X118897130Y-85090000D01*
X119319429Y-84807828D01*
X119622261Y-84354609D01*
X119728601Y-83820000D01*
X119622261Y-83285391D01*
X119319429Y-82832172D01*
X118897130Y-82550000D01*
X119319429Y-82267828D01*
X119622261Y-81814609D01*
X119728601Y-81280000D01*
X119622261Y-80745391D01*
X119319429Y-80292172D01*
X118866210Y-79989340D01*
X118331601Y-79883000D01*
X117888399Y-79883000D01*
X117353790Y-79989340D01*
X116900571Y-80292172D01*
X116835842Y-80389046D01*
X116437792Y-80053229D01*
X115916771Y-79887423D01*
X115697000Y-80038872D01*
X115697000Y-81153000D01*
X115717000Y-81153000D01*
X115717000Y-81407000D01*
X115697000Y-81407000D01*
X115697000Y-81427000D01*
X115443000Y-81427000D01*
X115443000Y-81407000D01*
X114147780Y-81407000D01*
X114025280Y-81623070D01*
X114033124Y-81668540D01*
X114284299Y-82154200D01*
X114702208Y-82506771D01*
X114800672Y-82538105D01*
X114360571Y-82832172D01*
X114057739Y-83285391D01*
X113951399Y-83820000D01*
X113157000Y-83820000D01*
X113157000Y-83185000D01*
X113148315Y-83138841D01*
X113121035Y-83096447D01*
X113079410Y-83068006D01*
X113030000Y-83058000D01*
X109258863Y-83058000D01*
X109297440Y-82867500D01*
X109297440Y-80936930D01*
X114025280Y-80936930D01*
X114147780Y-81153000D01*
X115443000Y-81153000D01*
X115443000Y-80038872D01*
X115223229Y-79887423D01*
X114702208Y-80053229D01*
X114284299Y-80405800D01*
X114033124Y-80891460D01*
X114025280Y-80936930D01*
X109297440Y-80936930D01*
X109297440Y-79692500D01*
X109285000Y-79626387D01*
X109285000Y-79042968D01*
X109183379Y-78532086D01*
X108893988Y-78098980D01*
X108460882Y-77809589D01*
X107950000Y-77707968D01*
X107439118Y-77809589D01*
X107006012Y-78098980D01*
X106716621Y-78532086D01*
X106680000Y-78716192D01*
X106643379Y-78532086D01*
X106353988Y-78098980D01*
X105920882Y-77809589D01*
X105410000Y-77707968D01*
X104899118Y-77809589D01*
X104466012Y-78098980D01*
X104176621Y-78532086D01*
X104140000Y-78716192D01*
X104103379Y-78532086D01*
X104005836Y-78386101D01*
X104031165Y-78381063D01*
X104261894Y-78226894D01*
X104891796Y-77596992D01*
X105103208Y-77597176D01*
X105476766Y-77442825D01*
X105762821Y-77157269D01*
X105917824Y-76783982D01*
X105918176Y-76379792D01*
X105763825Y-76006234D01*
X105478269Y-75720179D01*
X105104982Y-75565176D01*
X104700792Y-75564824D01*
X104511726Y-75642944D01*
X104335269Y-75466179D01*
X104010662Y-75331390D01*
X104412052Y-74930000D01*
X113792000Y-74930000D01*
X114278008Y-74833327D01*
X114690026Y-74558026D01*
X114965327Y-74146008D01*
X115062000Y-73660000D01*
X115012757Y-73412440D01*
X115019809Y-73412440D01*
X115171185Y-73563816D01*
X115319377Y-73662834D01*
X115418395Y-73728996D01*
X115710000Y-73787000D01*
X116666688Y-73787000D01*
X116865585Y-74084670D01*
X117351766Y-74409526D01*
X117925255Y-74523600D01*
X118294745Y-74523600D01*
X118868234Y-74409526D01*
X119354415Y-74084670D01*
X119679271Y-73598489D01*
X119793345Y-73025000D01*
X119679271Y-72451511D01*
X119354415Y-71965330D01*
X119044931Y-71758539D01*
X119460732Y-71387036D01*
X119714709Y-70859791D01*
X119717358Y-70844026D01*
X119596217Y-70612000D01*
X118237000Y-70612000D01*
X118237000Y-70632000D01*
X117983000Y-70632000D01*
X117983000Y-70612000D01*
X116623783Y-70612000D01*
X116502642Y-70844026D01*
X116505291Y-70859791D01*
X116759268Y-71387036D01*
X117175069Y-71758539D01*
X116865585Y-71965330D01*
X116666688Y-72263000D01*
X116097440Y-72263000D01*
X116097440Y-72015000D01*
X116053162Y-71779683D01*
X116039030Y-71757721D01*
X116046431Y-71746890D01*
X116097440Y-71495000D01*
X116097440Y-70745000D01*
X116053162Y-70509683D01*
X115914090Y-70293559D01*
X115701890Y-70148569D01*
X115450000Y-70097560D01*
X114650000Y-70097560D01*
X114414683Y-70141838D01*
X114311354Y-70208329D01*
X114309698Y-70206673D01*
X114076309Y-70110000D01*
X113835750Y-70110000D01*
X113677000Y-70268750D01*
X113677000Y-70993000D01*
X113697000Y-70993000D01*
X113697000Y-71247000D01*
X113677000Y-71247000D01*
X113677000Y-71267000D01*
X113423000Y-71267000D01*
X113423000Y-71247000D01*
X113403000Y-71247000D01*
X113403000Y-70993000D01*
X113423000Y-70993000D01*
X113423000Y-70268750D01*
X113264250Y-70110000D01*
X113023691Y-70110000D01*
X112790302Y-70206673D01*
X112611673Y-70385301D01*
X112522000Y-70601791D01*
X112522000Y-67081400D01*
X116446560Y-67081400D01*
X116446560Y-68808600D01*
X116490838Y-69043917D01*
X116629910Y-69260041D01*
X116842110Y-69405031D01*
X116936927Y-69424232D01*
X116759268Y-69582964D01*
X116505291Y-70110209D01*
X116502642Y-70125974D01*
X116623783Y-70358000D01*
X117983000Y-70358000D01*
X117983000Y-70338000D01*
X118237000Y-70338000D01*
X118237000Y-70358000D01*
X119596217Y-70358000D01*
X119717358Y-70125974D01*
X119714709Y-70110209D01*
X119460732Y-69582964D01*
X119285155Y-69426093D01*
X119361317Y-69411762D01*
X119577441Y-69272690D01*
X119722431Y-69060490D01*
X119773440Y-68808600D01*
X119773440Y-67081400D01*
X119729162Y-66846083D01*
X119590090Y-66629959D01*
X119377890Y-66484969D01*
X119126000Y-66433960D01*
X117094000Y-66433960D01*
X116858683Y-66478238D01*
X116642559Y-66617310D01*
X116497569Y-66829510D01*
X116446560Y-67081400D01*
X112522000Y-67081400D01*
X112522000Y-65187312D01*
X114062293Y-65187312D01*
X114465762Y-65713924D01*
X115979730Y-66357307D01*
X117624666Y-66372346D01*
X119150145Y-65756750D01*
X119214238Y-65713924D01*
X119617707Y-65187312D01*
X116840000Y-62409605D01*
X114062293Y-65187312D01*
X112522000Y-65187312D01*
X112522000Y-61641981D01*
X112712233Y-61420043D01*
X112697654Y-63014666D01*
X113313250Y-64540145D01*
X113356076Y-64604238D01*
X113882688Y-65007707D01*
X116660395Y-62230000D01*
X117019605Y-62230000D01*
X119797312Y-65007707D01*
X120323924Y-64604238D01*
X120967307Y-63090270D01*
X120982346Y-61445334D01*
X120366750Y-59919855D01*
X120323924Y-59855762D01*
X119797312Y-59452293D01*
X117019605Y-62230000D01*
X116660395Y-62230000D01*
X116646253Y-62215858D01*
X116825858Y-62036253D01*
X116840000Y-62050395D01*
X119617707Y-59272688D01*
X119214238Y-58746076D01*
X117700270Y-58102693D01*
X116055334Y-58087654D01*
X115311162Y-58387959D01*
X115719127Y-57912000D01*
X121158000Y-57912000D01*
X121158000Y-116078000D01*
X121158000Y-116078000D01*
G37*
X121158000Y-116078000D02*
X105537000Y-116078000D01*
X105537000Y-104140000D01*
X106266655Y-104140000D01*
X106380729Y-104713489D01*
X106705585Y-105199670D01*
X107020366Y-105410000D01*
X106705585Y-105620330D01*
X106380729Y-106106511D01*
X106266655Y-106680000D01*
X106380729Y-107253489D01*
X106705585Y-107739670D01*
X107020366Y-107950000D01*
X106705585Y-108160330D01*
X106380729Y-108646511D01*
X106266655Y-109220000D01*
X106380729Y-109793489D01*
X106705585Y-110279670D01*
X107020366Y-110490000D01*
X106705585Y-110700330D01*
X106380729Y-111186511D01*
X106266655Y-111760000D01*
X106380729Y-112333489D01*
X106705585Y-112819670D01*
X106719913Y-112829243D01*
X106698683Y-112833238D01*
X106482559Y-112972310D01*
X106337569Y-113184510D01*
X106286560Y-113436400D01*
X106286560Y-115163600D01*
X106330838Y-115398917D01*
X106469910Y-115615041D01*
X106682110Y-115760031D01*
X106934000Y-115811040D01*
X108966000Y-115811040D01*
X109201317Y-115766762D01*
X109217099Y-115756607D01*
X109222110Y-115760031D01*
X109474000Y-115811040D01*
X111506000Y-115811040D01*
X111741317Y-115766762D01*
X111957441Y-115627690D01*
X112102431Y-115415490D01*
X112153440Y-115163600D01*
X112153440Y-114717312D01*
X114062293Y-114717312D01*
X114465762Y-115243924D01*
X115979730Y-115887307D01*
X117624666Y-115902346D01*
X119150145Y-115286750D01*
X119214238Y-115243924D01*
X119617707Y-114717312D01*
X116840000Y-111939605D01*
X114062293Y-114717312D01*
X112153440Y-114717312D01*
X112153440Y-113436400D01*
X112109162Y-113201083D01*
X111970090Y-112984959D01*
X111757890Y-112839969D01*
X111716561Y-112831600D01*
X111734415Y-112819670D01*
X111918166Y-112544666D01*
X112697654Y-112544666D01*
X113313250Y-114070145D01*
X113356076Y-114134238D01*
X113882688Y-114537707D01*
X116660395Y-111760000D01*
X117019605Y-111760000D01*
X119797312Y-114537707D01*
X120323924Y-114134238D01*
X120967307Y-112620270D01*
X120982346Y-110975334D01*
X120366750Y-109449855D01*
X120323924Y-109385762D01*
X119797312Y-108982293D01*
X117019605Y-111760000D01*
X116660395Y-111760000D01*
X113882688Y-108982293D01*
X113356076Y-109385762D01*
X112712693Y-110899730D01*
X112697654Y-112544666D01*
X111918166Y-112544666D01*
X112059271Y-112333489D01*
X112173345Y-111760000D01*
X112059271Y-111186511D01*
X111734415Y-110700330D01*
X111419634Y-110490000D01*
X111734415Y-110279670D01*
X112059271Y-109793489D01*
X112173345Y-109220000D01*
X112090337Y-108802688D01*
X114062293Y-108802688D01*
X116840000Y-111580395D01*
X119617707Y-108802688D01*
X119214238Y-108276076D01*
X118522971Y-107982312D01*
X118999000Y-108077001D01*
X119485008Y-107980327D01*
X119897026Y-107705026D01*
X120278023Y-107324028D01*
X120278026Y-107324026D01*
X120553327Y-106912008D01*
X120650000Y-106426000D01*
X120650000Y-105725000D01*
X120553327Y-105238992D01*
X120407950Y-105021419D01*
X120383162Y-104889683D01*
X120309380Y-104775022D01*
X120376431Y-104676890D01*
X120427440Y-104425000D01*
X120427440Y-103625000D01*
X120383162Y-103389683D01*
X120244090Y-103173559D01*
X120031890Y-103028569D01*
X119780000Y-102977560D01*
X118980000Y-102977560D01*
X118744683Y-103021838D01*
X118601770Y-103113800D01*
X118577600Y-103113800D01*
X118350590Y-103158955D01*
X118305435Y-103167937D01*
X118272840Y-103189716D01*
X118241890Y-103168569D01*
X117990000Y-103117560D01*
X117190000Y-103117560D01*
X116954683Y-103161838D01*
X116851354Y-103228329D01*
X116849698Y-103226673D01*
X116616309Y-103130000D01*
X116375750Y-103130000D01*
X116217000Y-103288750D01*
X116217000Y-104013000D01*
X116237000Y-104013000D01*
X116237000Y-104267000D01*
X116217000Y-104267000D01*
X116217000Y-104287000D01*
X115963000Y-104287000D01*
X115963000Y-104267000D01*
X115213750Y-104267000D01*
X115055000Y-104425750D01*
X115055000Y-104641310D01*
X115151673Y-104874699D01*
X115185939Y-104908965D01*
X115062176Y-105207018D01*
X115061824Y-105611208D01*
X115216175Y-105984766D01*
X115501731Y-106270821D01*
X115875018Y-106425824D01*
X116279208Y-106426176D01*
X116652766Y-106271825D01*
X116803654Y-106121200D01*
X116967000Y-106121200D01*
X117239165Y-106067063D01*
X117469894Y-105912894D01*
X118092894Y-105289894D01*
X118205100Y-105121966D01*
X118225317Y-105118162D01*
X118334242Y-105048070D01*
X118206673Y-105238992D01*
X118110000Y-105725000D01*
X118110000Y-105899948D01*
X118100974Y-105908974D01*
X117825673Y-106320992D01*
X117728999Y-106807000D01*
X117825673Y-107293008D01*
X118100974Y-107705026D01*
X118503717Y-107974130D01*
X117700270Y-107632693D01*
X116055334Y-107617654D01*
X114529855Y-108233250D01*
X114465762Y-108276076D01*
X114062293Y-108802688D01*
X112090337Y-108802688D01*
X112059271Y-108646511D01*
X111734415Y-108160330D01*
X111419634Y-107950000D01*
X111734415Y-107739670D01*
X112059271Y-107253489D01*
X112173345Y-106680000D01*
X112059271Y-106106511D01*
X111734415Y-105620330D01*
X111419634Y-105410000D01*
X111734415Y-105199670D01*
X112059271Y-104713489D01*
X112173345Y-104140000D01*
X112073629Y-103638690D01*
X115055000Y-103638690D01*
X115055000Y-103854250D01*
X115213750Y-104013000D01*
X115963000Y-104013000D01*
X115963000Y-103288750D01*
X115804250Y-103130000D01*
X115563691Y-103130000D01*
X115330302Y-103226673D01*
X115151673Y-103405301D01*
X115055000Y-103638690D01*
X112073629Y-103638690D01*
X112059271Y-103566511D01*
X111734415Y-103080330D01*
X111424931Y-102873539D01*
X111840732Y-102502036D01*
X112094709Y-101974791D01*
X112097358Y-101959026D01*
X111976217Y-101727000D01*
X110617000Y-101727000D01*
X110617000Y-101747000D01*
X110363000Y-101747000D01*
X110363000Y-101727000D01*
X108077000Y-101727000D01*
X108077000Y-101747000D01*
X107823000Y-101747000D01*
X107823000Y-101727000D01*
X106463783Y-101727000D01*
X106342642Y-101959026D01*
X106345291Y-101974791D01*
X106599268Y-102502036D01*
X107015069Y-102873539D01*
X106705585Y-103080330D01*
X106380729Y-103566511D01*
X106266655Y-104140000D01*
X105537000Y-104140000D01*
X105537000Y-101240974D01*
X106342642Y-101240974D01*
X106463783Y-101473000D01*
X107823000Y-101473000D01*
X107823000Y-100259076D01*
X108077000Y-100259076D01*
X108077000Y-101473000D01*
X110363000Y-101473000D01*
X110363000Y-100259076D01*
X110617000Y-100259076D01*
X110617000Y-101473000D01*
X111976217Y-101473000D01*
X112097358Y-101240974D01*
X112094709Y-101225209D01*
X111840732Y-100697964D01*
X111404320Y-100308046D01*
X110851913Y-100114816D01*
X110617000Y-100259076D01*
X110363000Y-100259076D01*
X110128087Y-100114816D01*
X109575680Y-100308046D01*
X109220000Y-100625833D01*
X108864320Y-100308046D01*
X108311913Y-100114816D01*
X108077000Y-100259076D01*
X107823000Y-100259076D01*
X107588087Y-100114816D01*
X107035680Y-100308046D01*
X106599268Y-100697964D01*
X106345291Y-101225209D01*
X106342642Y-101240974D01*
X105537000Y-101240974D01*
X105537000Y-96012000D01*
X113030000Y-96012000D01*
X113076159Y-96003315D01*
X113118553Y-95976035D01*
X113146994Y-95934410D01*
X113157000Y-95885000D01*
X113157000Y-83820000D01*
X113951399Y-83820000D01*
X114057739Y-84354609D01*
X114360571Y-84807828D01*
X114782870Y-85090000D01*
X114360571Y-85372172D01*
X114057739Y-85825391D01*
X113951399Y-86360000D01*
X114057739Y-86894609D01*
X114360571Y-87347828D01*
X114782870Y-87630000D01*
X114360571Y-87912172D01*
X114057739Y-88365391D01*
X113951399Y-88900000D01*
X114057739Y-89434609D01*
X114360571Y-89887828D01*
X114800672Y-90181895D01*
X114702208Y-90213229D01*
X114284299Y-90565800D01*
X114033124Y-91051460D01*
X114025280Y-91096930D01*
X114147780Y-91313000D01*
X115443000Y-91313000D01*
X115443000Y-91293000D01*
X115697000Y-91293000D01*
X115697000Y-91313000D01*
X115717000Y-91313000D01*
X115717000Y-91567000D01*
X115697000Y-91567000D01*
X115697000Y-91587000D01*
X115443000Y-91587000D01*
X115443000Y-91567000D01*
X114147780Y-91567000D01*
X114025280Y-91783070D01*
X114033124Y-91828540D01*
X114284299Y-92314200D01*
X114702208Y-92666771D01*
X114800672Y-92698105D01*
X114360571Y-92992172D01*
X114057739Y-93445391D01*
X113951399Y-93980000D01*
X114057739Y-94514609D01*
X114360571Y-94967828D01*
X114800672Y-95261895D01*
X114702208Y-95293229D01*
X114284299Y-95645800D01*
X114033124Y-96131460D01*
X114025280Y-96176930D01*
X114147780Y-96393000D01*
X115443000Y-96393000D01*
X115443000Y-96373000D01*
X115697000Y-96373000D01*
X115697000Y-96393000D01*
X115717000Y-96393000D01*
X115717000Y-96647000D01*
X115697000Y-96647000D01*
X115697000Y-96667000D01*
X115443000Y-96667000D01*
X115443000Y-96647000D01*
X114147780Y-96647000D01*
X114025280Y-96863070D01*
X114033124Y-96908540D01*
X114284299Y-97394200D01*
X114702208Y-97746771D01*
X114800672Y-97778105D01*
X114360571Y-98072172D01*
X114057739Y-98525391D01*
X113951399Y-99060000D01*
X114057739Y-99594609D01*
X114360571Y-100047828D01*
X114813790Y-100350660D01*
X115348399Y-100457000D01*
X115791601Y-100457000D01*
X116326210Y-100350660D01*
X116617749Y-100155860D01*
X116693410Y-100273441D01*
X116905610Y-100418431D01*
X117157500Y-100469440D01*
X119062500Y-100469440D01*
X119297817Y-100425162D01*
X119513941Y-100286090D01*
X119658931Y-100073890D01*
X119709940Y-99822000D01*
X119709940Y-98298000D01*
X119665662Y-98062683D01*
X119526590Y-97846559D01*
X119314390Y-97701569D01*
X119095742Y-97657292D01*
X119319429Y-97507828D01*
X119622261Y-97054609D01*
X119728601Y-96520000D01*
X119622261Y-95985391D01*
X119319429Y-95532172D01*
X118897130Y-95250000D01*
X119319429Y-94967828D01*
X119622261Y-94514609D01*
X119728601Y-93980000D01*
X119622261Y-93445391D01*
X119319429Y-92992172D01*
X118897130Y-92710000D01*
X119319429Y-92427828D01*
X119622261Y-91974609D01*
X119728601Y-91440000D01*
X119622261Y-90905391D01*
X119319429Y-90452172D01*
X118897130Y-90170000D01*
X119319429Y-89887828D01*
X119622261Y-89434609D01*
X119728601Y-88900000D01*
X119622261Y-88365391D01*
X119319429Y-87912172D01*
X118897130Y-87630000D01*
X119319429Y-87347828D01*
X119622261Y-86894609D01*
X119728601Y-86360000D01*
X119622261Y-85825391D01*
X119319429Y-85372172D01*
X118897130Y-85090000D01*
X119319429Y-84807828D01*
X119622261Y-84354609D01*
X119728601Y-83820000D01*
X119622261Y-83285391D01*
X119319429Y-82832172D01*
X118897130Y-82550000D01*
X119319429Y-82267828D01*
X119622261Y-81814609D01*
X119728601Y-81280000D01*
X119622261Y-80745391D01*
X119319429Y-80292172D01*
X118866210Y-79989340D01*
X118331601Y-79883000D01*
X117888399Y-79883000D01*
X117353790Y-79989340D01*
X116900571Y-80292172D01*
X116835842Y-80389046D01*
X116437792Y-80053229D01*
X115916771Y-79887423D01*
X115697000Y-80038872D01*
X115697000Y-81153000D01*
X115717000Y-81153000D01*
X115717000Y-81407000D01*
X115697000Y-81407000D01*
X115697000Y-81427000D01*
X115443000Y-81427000D01*
X115443000Y-81407000D01*
X114147780Y-81407000D01*
X114025280Y-81623070D01*
X114033124Y-81668540D01*
X114284299Y-82154200D01*
X114702208Y-82506771D01*
X114800672Y-82538105D01*
X114360571Y-82832172D01*
X114057739Y-83285391D01*
X113951399Y-83820000D01*
X113157000Y-83820000D01*
X113157000Y-83185000D01*
X113148315Y-83138841D01*
X113121035Y-83096447D01*
X113079410Y-83068006D01*
X113030000Y-83058000D01*
X109258863Y-83058000D01*
X109297440Y-82867500D01*
X109297440Y-80936930D01*
X114025280Y-80936930D01*
X114147780Y-81153000D01*
X115443000Y-81153000D01*
X115443000Y-80038872D01*
X115223229Y-79887423D01*
X114702208Y-80053229D01*
X114284299Y-80405800D01*
X114033124Y-80891460D01*
X114025280Y-80936930D01*
X109297440Y-80936930D01*
X109297440Y-79692500D01*
X109285000Y-79626387D01*
X109285000Y-79042968D01*
X109183379Y-78532086D01*
X108893988Y-78098980D01*
X108460882Y-77809589D01*
X107950000Y-77707968D01*
X107439118Y-77809589D01*
X107006012Y-78098980D01*
X106716621Y-78532086D01*
X106680000Y-78716192D01*
X106643379Y-78532086D01*
X106353988Y-78098980D01*
X105920882Y-77809589D01*
X105410000Y-77707968D01*
X104899118Y-77809589D01*
X104466012Y-78098980D01*
X104176621Y-78532086D01*
X104140000Y-78716192D01*
X104103379Y-78532086D01*
X104005836Y-78386101D01*
X104031165Y-78381063D01*
X104261894Y-78226894D01*
X104891796Y-77596992D01*
X105103208Y-77597176D01*
X105476766Y-77442825D01*
X105762821Y-77157269D01*
X105917824Y-76783982D01*
X105918176Y-76379792D01*
X105763825Y-76006234D01*
X105478269Y-75720179D01*
X105104982Y-75565176D01*
X104700792Y-75564824D01*
X104511726Y-75642944D01*
X104335269Y-75466179D01*
X104010662Y-75331390D01*
X104412052Y-74930000D01*
X113792000Y-74930000D01*
X114278008Y-74833327D01*
X114690026Y-74558026D01*
X114965327Y-74146008D01*
X115062000Y-73660000D01*
X115012757Y-73412440D01*
X115019809Y-73412440D01*
X115171185Y-73563816D01*
X115319377Y-73662834D01*
X115418395Y-73728996D01*
X115710000Y-73787000D01*
X116666688Y-73787000D01*
X116865585Y-74084670D01*
X117351766Y-74409526D01*
X117925255Y-74523600D01*
X118294745Y-74523600D01*
X118868234Y-74409526D01*
X119354415Y-74084670D01*
X119679271Y-73598489D01*
X119793345Y-73025000D01*
X119679271Y-72451511D01*
X119354415Y-71965330D01*
X119044931Y-71758539D01*
X119460732Y-71387036D01*
X119714709Y-70859791D01*
X119717358Y-70844026D01*
X119596217Y-70612000D01*
X118237000Y-70612000D01*
X118237000Y-70632000D01*
X117983000Y-70632000D01*
X117983000Y-70612000D01*
X116623783Y-70612000D01*
X116502642Y-70844026D01*
X116505291Y-70859791D01*
X116759268Y-71387036D01*
X117175069Y-71758539D01*
X116865585Y-71965330D01*
X116666688Y-72263000D01*
X116097440Y-72263000D01*
X116097440Y-72015000D01*
X116053162Y-71779683D01*
X116039030Y-71757721D01*
X116046431Y-71746890D01*
X116097440Y-71495000D01*
X116097440Y-70745000D01*
X116053162Y-70509683D01*
X115914090Y-70293559D01*
X115701890Y-70148569D01*
X115450000Y-70097560D01*
X114650000Y-70097560D01*
X114414683Y-70141838D01*
X114311354Y-70208329D01*
X114309698Y-70206673D01*
X114076309Y-70110000D01*
X113835750Y-70110000D01*
X113677000Y-70268750D01*
X113677000Y-70993000D01*
X113697000Y-70993000D01*
X113697000Y-71247000D01*
X113677000Y-71247000D01*
X113677000Y-71267000D01*
X113423000Y-71267000D01*
X113423000Y-71247000D01*
X113403000Y-71247000D01*
X113403000Y-70993000D01*
X113423000Y-70993000D01*
X113423000Y-70268750D01*
X113264250Y-70110000D01*
X113023691Y-70110000D01*
X112790302Y-70206673D01*
X112611673Y-70385301D01*
X112522000Y-70601791D01*
X112522000Y-67081400D01*
X116446560Y-67081400D01*
X116446560Y-68808600D01*
X116490838Y-69043917D01*
X116629910Y-69260041D01*
X116842110Y-69405031D01*
X116936927Y-69424232D01*
X116759268Y-69582964D01*
X116505291Y-70110209D01*
X116502642Y-70125974D01*
X116623783Y-70358000D01*
X117983000Y-70358000D01*
X117983000Y-70338000D01*
X118237000Y-70338000D01*
X118237000Y-70358000D01*
X119596217Y-70358000D01*
X119717358Y-70125974D01*
X119714709Y-70110209D01*
X119460732Y-69582964D01*
X119285155Y-69426093D01*
X119361317Y-69411762D01*
X119577441Y-69272690D01*
X119722431Y-69060490D01*
X119773440Y-68808600D01*
X119773440Y-67081400D01*
X119729162Y-66846083D01*
X119590090Y-66629959D01*
X119377890Y-66484969D01*
X119126000Y-66433960D01*
X117094000Y-66433960D01*
X116858683Y-66478238D01*
X116642559Y-66617310D01*
X116497569Y-66829510D01*
X116446560Y-67081400D01*
X112522000Y-67081400D01*
X112522000Y-65187312D01*
X114062293Y-65187312D01*
X114465762Y-65713924D01*
X115979730Y-66357307D01*
X117624666Y-66372346D01*
X119150145Y-65756750D01*
X119214238Y-65713924D01*
X119617707Y-65187312D01*
X116840000Y-62409605D01*
X114062293Y-65187312D01*
X112522000Y-65187312D01*
X112522000Y-61641981D01*
X112712233Y-61420043D01*
X112697654Y-63014666D01*
X113313250Y-64540145D01*
X113356076Y-64604238D01*
X113882688Y-65007707D01*
X116660395Y-62230000D01*
X117019605Y-62230000D01*
X119797312Y-65007707D01*
X120323924Y-64604238D01*
X120967307Y-63090270D01*
X120982346Y-61445334D01*
X120366750Y-59919855D01*
X120323924Y-59855762D01*
X119797312Y-59452293D01*
X117019605Y-62230000D01*
X116660395Y-62230000D01*
X116646253Y-62215858D01*
X116825858Y-62036253D01*
X116840000Y-62050395D01*
X119617707Y-59272688D01*
X119214238Y-58746076D01*
X117700270Y-58102693D01*
X116055334Y-58087654D01*
X115311162Y-58387959D01*
X115719127Y-57912000D01*
X121158000Y-57912000D01*
X121158000Y-116078000D01*
G36*
X78662560Y-58102500D02*
X78662560Y-61277500D01*
X78675000Y-61343613D01*
X78675000Y-61927032D01*
X78776621Y-62437914D01*
X79066012Y-62871020D01*
X79201402Y-62961484D01*
X78987059Y-63099410D01*
X78842069Y-63311610D01*
X78791060Y-63563500D01*
X78791060Y-64706500D01*
X78835338Y-64941817D01*
X78974410Y-65157941D01*
X79186610Y-65302931D01*
X79438500Y-65353940D01*
X80581500Y-65353940D01*
X80816817Y-65309662D01*
X81032941Y-65170590D01*
X81177931Y-64958390D01*
X81228940Y-64706500D01*
X81228940Y-63563500D01*
X81184662Y-63328183D01*
X81045590Y-63112059D01*
X80833390Y-62967069D01*
X80815624Y-62963471D01*
X80953988Y-62871020D01*
X81243379Y-62437914D01*
X81280000Y-62253808D01*
X81316621Y-62437914D01*
X81606012Y-62871020D01*
X81741402Y-62961484D01*
X81527059Y-63099410D01*
X81382069Y-63311610D01*
X81331060Y-63563500D01*
X81331060Y-64706500D01*
X81375338Y-64941817D01*
X81514410Y-65157941D01*
X81726610Y-65302931D01*
X81978500Y-65353940D01*
X83121500Y-65353940D01*
X83356817Y-65309662D01*
X83572941Y-65170590D01*
X83717931Y-64958390D01*
X83768940Y-64706500D01*
X83768940Y-63563500D01*
X83724662Y-63328183D01*
X83585590Y-63112059D01*
X83373390Y-62967069D01*
X83355624Y-62963471D01*
X83493988Y-62871020D01*
X83783379Y-62437914D01*
X83820000Y-62253808D01*
X83856621Y-62437914D01*
X84146012Y-62871020D01*
X84579118Y-63160411D01*
X85090000Y-63262032D01*
X85600882Y-63160411D01*
X86033988Y-62871020D01*
X86323379Y-62437914D01*
X86361786Y-62244830D01*
X86445222Y-62523215D01*
X86775815Y-62928790D01*
X87236450Y-63176980D01*
X87296671Y-63187716D01*
X87503000Y-63064374D01*
X87503000Y-59817000D01*
X87483000Y-59817000D01*
X87483000Y-59563000D01*
X87503000Y-59563000D01*
X87503000Y-59543000D01*
X87757000Y-59543000D01*
X87757000Y-59563000D01*
X87777000Y-59563000D01*
X87777000Y-59817000D01*
X87757000Y-59817000D01*
X87757000Y-63064374D01*
X87963329Y-63187716D01*
X88023550Y-63176980D01*
X88484185Y-62928790D01*
X88814778Y-62523215D01*
X88898214Y-62244830D01*
X88936621Y-62437914D01*
X89226012Y-62871020D01*
X89659118Y-63160411D01*
X90170000Y-63262032D01*
X90680882Y-63160411D01*
X91113988Y-62871020D01*
X91403379Y-62437914D01*
X91440000Y-62253808D01*
X91476621Y-62437914D01*
X91766012Y-62871020D01*
X91998800Y-63026563D01*
X91998800Y-64856412D01*
X90256412Y-66598800D01*
X86577629Y-66598800D01*
X86428269Y-66449179D01*
X86054982Y-66294176D01*
X85650792Y-66293824D01*
X85277234Y-66448175D01*
X84991179Y-66733731D01*
X84836176Y-67107018D01*
X84835990Y-67320221D01*
X81920106Y-70236106D01*
X81765937Y-70466835D01*
X81743191Y-70581185D01*
X81734294Y-70625916D01*
X81562179Y-70797731D01*
X81407176Y-71171018D01*
X81406824Y-71575208D01*
X81561175Y-71948766D01*
X81846731Y-72234821D01*
X82220018Y-72389824D01*
X82624208Y-72390176D01*
X82879102Y-72284856D01*
X83131891Y-72389824D01*
X83536081Y-72390176D01*
X83909639Y-72235825D01*
X84195694Y-71950269D01*
X84350697Y-71576982D01*
X84350883Y-71363779D01*
X84373694Y-71340968D01*
X84527863Y-71110238D01*
X84536845Y-71065083D01*
X84582000Y-70838073D01*
X84582000Y-70601788D01*
X86857789Y-68326000D01*
X90678000Y-68326000D01*
X90950165Y-68271863D01*
X91180894Y-68117694D01*
X95752894Y-63545695D01*
X95907062Y-63314965D01*
X95907063Y-63314964D01*
X95961200Y-63042800D01*
X95961200Y-63026563D01*
X96193988Y-62871020D01*
X96483379Y-62437914D01*
X96520000Y-62253808D01*
X96556621Y-62437914D01*
X96846012Y-62871020D01*
X97279118Y-63160411D01*
X97790000Y-63262032D01*
X98300882Y-63160411D01*
X98733988Y-62871020D01*
X99023379Y-62437914D01*
X99060000Y-62253808D01*
X99096621Y-62437914D01*
X99386012Y-62871020D01*
X99618800Y-63026563D01*
X99618800Y-65278000D01*
X99672937Y-65550165D01*
X99827106Y-65780894D01*
X100584008Y-66537797D01*
X100583824Y-66749208D01*
X100738175Y-67122766D01*
X101023731Y-67408821D01*
X101397018Y-67563824D01*
X101610222Y-67564010D01*
X102920800Y-68874588D01*
X102920800Y-69265800D01*
X102489000Y-69265800D01*
X102216836Y-69319937D01*
X101986106Y-69474105D01*
X101351106Y-70109106D01*
X101196937Y-70339835D01*
X101148832Y-70581673D01*
X101142800Y-70612000D01*
X101142800Y-75184000D01*
X101196937Y-75456165D01*
X101351106Y-75686894D01*
X101859105Y-76194894D01*
X101961782Y-76263500D01*
X102089836Y-76349063D01*
X102362000Y-76403200D01*
X102742933Y-76403200D01*
X102742824Y-76528208D01*
X102897175Y-76901766D01*
X103075813Y-77080716D01*
X102865706Y-77221106D01*
X102367106Y-77719706D01*
X102265050Y-77872443D01*
X101926012Y-78098980D01*
X101636621Y-78532086D01*
X101600000Y-78716192D01*
X101563379Y-78532086D01*
X101273988Y-78098980D01*
X100840882Y-77809589D01*
X100330000Y-77707968D01*
X99819118Y-77809589D01*
X99386012Y-78098980D01*
X99096621Y-78532086D01*
X99060000Y-78716192D01*
X99023379Y-78532086D01*
X98733988Y-78098980D01*
X98598598Y-78008516D01*
X98812941Y-77870590D01*
X98957931Y-77658390D01*
X99008940Y-77406500D01*
X99008940Y-76263500D01*
X98964662Y-76028183D01*
X98825590Y-75812059D01*
X98613390Y-75667069D01*
X98361500Y-75616060D01*
X97218500Y-75616060D01*
X96983183Y-75660338D01*
X96767059Y-75799410D01*
X96622069Y-76011610D01*
X96571060Y-76263500D01*
X96571060Y-77406500D01*
X96615338Y-77641817D01*
X96754410Y-77857941D01*
X96966610Y-78002931D01*
X96984376Y-78006529D01*
X96846012Y-78098980D01*
X96556621Y-78532086D01*
X96520000Y-78716192D01*
X96483379Y-78532086D01*
X96193988Y-78098980D01*
X95760882Y-77809589D01*
X95250000Y-77707968D01*
X94739118Y-77809589D01*
X94306012Y-78098980D01*
X94016621Y-78532086D01*
X93980000Y-78716192D01*
X93943379Y-78532086D01*
X93653988Y-78098980D01*
X93220882Y-77809589D01*
X92710000Y-77707968D01*
X92199118Y-77809589D01*
X91766012Y-78098980D01*
X91476621Y-78532086D01*
X91440000Y-78716192D01*
X91403379Y-78532086D01*
X91113988Y-78098980D01*
X90680882Y-77809589D01*
X90170000Y-77707968D01*
X89659118Y-77809589D01*
X89226012Y-78098980D01*
X88936621Y-78532086D01*
X88900000Y-78716192D01*
X88863379Y-78532086D01*
X88729566Y-78331819D01*
X88754317Y-78327162D01*
X88970441Y-78188090D01*
X89115431Y-77975890D01*
X89166440Y-77724000D01*
X89166440Y-75946000D01*
X89122162Y-75710683D01*
X88983090Y-75494559D01*
X88770890Y-75349569D01*
X88519000Y-75298560D01*
X86741000Y-75298560D01*
X86505683Y-75342838D01*
X86289559Y-75481910D01*
X86144569Y-75694110D01*
X86093560Y-75946000D01*
X86093560Y-77724000D01*
X86137838Y-77959317D01*
X86276910Y-78175441D01*
X86489110Y-78320431D01*
X86532212Y-78329159D01*
X86396621Y-78532086D01*
X86360000Y-78716192D01*
X86323379Y-78532086D01*
X86033988Y-78098980D01*
X85600882Y-77809589D01*
X85090000Y-77707968D01*
X84579118Y-77809589D01*
X84146012Y-78098980D01*
X83856621Y-78532086D01*
X83818214Y-78725170D01*
X83734778Y-78446785D01*
X83404185Y-78041210D01*
X82943550Y-77793020D01*
X82883329Y-77782284D01*
X82677000Y-77905626D01*
X82677000Y-81153000D01*
X82697000Y-81153000D01*
X82697000Y-81407000D01*
X82677000Y-81407000D01*
X82677000Y-83343750D01*
X82835750Y-83502500D01*
X83376309Y-83502500D01*
X83609698Y-83405827D01*
X83788327Y-83227199D01*
X83819088Y-83152935D01*
X83925910Y-83318941D01*
X84053960Y-83406434D01*
X83132394Y-84328000D01*
X76327000Y-84328000D01*
X76327000Y-75946000D01*
X78473560Y-75946000D01*
X78473560Y-77724000D01*
X78517838Y-77959317D01*
X78656910Y-78175441D01*
X78869110Y-78320431D01*
X78912212Y-78329159D01*
X78776621Y-78532086D01*
X78675000Y-79042968D01*
X78675000Y-79631069D01*
X78662560Y-79692500D01*
X78662560Y-82867500D01*
X78706838Y-83102817D01*
X78845910Y-83318941D01*
X79058110Y-83463931D01*
X79310000Y-83514940D01*
X80710000Y-83514940D01*
X80945317Y-83470662D01*
X81161441Y-83331590D01*
X81281893Y-83155303D01*
X81311673Y-83227199D01*
X81490302Y-83405827D01*
X81723691Y-83502500D01*
X82264250Y-83502500D01*
X82423000Y-83343750D01*
X82423000Y-81407000D01*
X82403000Y-81407000D01*
X82403000Y-81153000D01*
X82423000Y-81153000D01*
X82423000Y-77905626D01*
X82216671Y-77782284D01*
X82156450Y-77793020D01*
X81695815Y-78041210D01*
X81365222Y-78446785D01*
X81281786Y-78725170D01*
X81243379Y-78532086D01*
X81109566Y-78331819D01*
X81134317Y-78327162D01*
X81350441Y-78188090D01*
X81495431Y-77975890D01*
X81546440Y-77724000D01*
X81546440Y-75946000D01*
X81502162Y-75710683D01*
X81363090Y-75494559D01*
X81150890Y-75349569D01*
X80899000Y-75298560D01*
X79121000Y-75298560D01*
X78885683Y-75342838D01*
X78669559Y-75481910D01*
X78524569Y-75694110D01*
X78473560Y-75946000D01*
X76327000Y-75946000D01*
X76327000Y-72910440D01*
X78105000Y-72910440D01*
X78340317Y-72866162D01*
X78556441Y-72727090D01*
X78701431Y-72514890D01*
X78752440Y-72263000D01*
X78752440Y-70739000D01*
X78708162Y-70503683D01*
X78698007Y-70487901D01*
X78701431Y-70482890D01*
X78752440Y-70231000D01*
X78752440Y-68707000D01*
X78708162Y-68471683D01*
X78569090Y-68255559D01*
X78356890Y-68110569D01*
X78105000Y-68059560D01*
X76327000Y-68059560D01*
X76327000Y-57912000D01*
X78701137Y-57912000D01*
X78662560Y-58102500D01*
X78662560Y-58102500D01*
G37*
X78662560Y-58102500D02*
X78662560Y-61277500D01*
X78675000Y-61343613D01*
X78675000Y-61927032D01*
X78776621Y-62437914D01*
X79066012Y-62871020D01*
X79201402Y-62961484D01*
X78987059Y-63099410D01*
X78842069Y-63311610D01*
X78791060Y-63563500D01*
X78791060Y-64706500D01*
X78835338Y-64941817D01*
X78974410Y-65157941D01*
X79186610Y-65302931D01*
X79438500Y-65353940D01*
X80581500Y-65353940D01*
X80816817Y-65309662D01*
X81032941Y-65170590D01*
X81177931Y-64958390D01*
X81228940Y-64706500D01*
X81228940Y-63563500D01*
X81184662Y-63328183D01*
X81045590Y-63112059D01*
X80833390Y-62967069D01*
X80815624Y-62963471D01*
X80953988Y-62871020D01*
X81243379Y-62437914D01*
X81280000Y-62253808D01*
X81316621Y-62437914D01*
X81606012Y-62871020D01*
X81741402Y-62961484D01*
X81527059Y-63099410D01*
X81382069Y-63311610D01*
X81331060Y-63563500D01*
X81331060Y-64706500D01*
X81375338Y-64941817D01*
X81514410Y-65157941D01*
X81726610Y-65302931D01*
X81978500Y-65353940D01*
X83121500Y-65353940D01*
X83356817Y-65309662D01*
X83572941Y-65170590D01*
X83717931Y-64958390D01*
X83768940Y-64706500D01*
X83768940Y-63563500D01*
X83724662Y-63328183D01*
X83585590Y-63112059D01*
X83373390Y-62967069D01*
X83355624Y-62963471D01*
X83493988Y-62871020D01*
X83783379Y-62437914D01*
X83820000Y-62253808D01*
X83856621Y-62437914D01*
X84146012Y-62871020D01*
X84579118Y-63160411D01*
X85090000Y-63262032D01*
X85600882Y-63160411D01*
X86033988Y-62871020D01*
X86323379Y-62437914D01*
X86361786Y-62244830D01*
X86445222Y-62523215D01*
X86775815Y-62928790D01*
X87236450Y-63176980D01*
X87296671Y-63187716D01*
X87503000Y-63064374D01*
X87503000Y-59817000D01*
X87483000Y-59817000D01*
X87483000Y-59563000D01*
X87503000Y-59563000D01*
X87503000Y-59543000D01*
X87757000Y-59543000D01*
X87757000Y-59563000D01*
X87777000Y-59563000D01*
X87777000Y-59817000D01*
X87757000Y-59817000D01*
X87757000Y-63064374D01*
X87963329Y-63187716D01*
X88023550Y-63176980D01*
X88484185Y-62928790D01*
X88814778Y-62523215D01*
X88898214Y-62244830D01*
X88936621Y-62437914D01*
X89226012Y-62871020D01*
X89659118Y-63160411D01*
X90170000Y-63262032D01*
X90680882Y-63160411D01*
X91113988Y-62871020D01*
X91403379Y-62437914D01*
X91440000Y-62253808D01*
X91476621Y-62437914D01*
X91766012Y-62871020D01*
X91998800Y-63026563D01*
X91998800Y-64856412D01*
X90256412Y-66598800D01*
X86577629Y-66598800D01*
X86428269Y-66449179D01*
X86054982Y-66294176D01*
X85650792Y-66293824D01*
X85277234Y-66448175D01*
X84991179Y-66733731D01*
X84836176Y-67107018D01*
X84835990Y-67320221D01*
X81920106Y-70236106D01*
X81765937Y-70466835D01*
X81743191Y-70581185D01*
X81734294Y-70625916D01*
X81562179Y-70797731D01*
X81407176Y-71171018D01*
X81406824Y-71575208D01*
X81561175Y-71948766D01*
X81846731Y-72234821D01*
X82220018Y-72389824D01*
X82624208Y-72390176D01*
X82879102Y-72284856D01*
X83131891Y-72389824D01*
X83536081Y-72390176D01*
X83909639Y-72235825D01*
X84195694Y-71950269D01*
X84350697Y-71576982D01*
X84350883Y-71363779D01*
X84373694Y-71340968D01*
X84527863Y-71110238D01*
X84536845Y-71065083D01*
X84582000Y-70838073D01*
X84582000Y-70601788D01*
X86857789Y-68326000D01*
X90678000Y-68326000D01*
X90950165Y-68271863D01*
X91180894Y-68117694D01*
X95752894Y-63545695D01*
X95907062Y-63314965D01*
X95907063Y-63314964D01*
X95961200Y-63042800D01*
X95961200Y-63026563D01*
X96193988Y-62871020D01*
X96483379Y-62437914D01*
X96520000Y-62253808D01*
X96556621Y-62437914D01*
X96846012Y-62871020D01*
X97279118Y-63160411D01*
X97790000Y-63262032D01*
X98300882Y-63160411D01*
X98733988Y-62871020D01*
X99023379Y-62437914D01*
X99060000Y-62253808D01*
X99096621Y-62437914D01*
X99386012Y-62871020D01*
X99618800Y-63026563D01*
X99618800Y-65278000D01*
X99672937Y-65550165D01*
X99827106Y-65780894D01*
X100584008Y-66537797D01*
X100583824Y-66749208D01*
X100738175Y-67122766D01*
X101023731Y-67408821D01*
X101397018Y-67563824D01*
X101610222Y-67564010D01*
X102920800Y-68874588D01*
X102920800Y-69265800D01*
X102489000Y-69265800D01*
X102216836Y-69319937D01*
X101986106Y-69474105D01*
X101351106Y-70109106D01*
X101196937Y-70339835D01*
X101148832Y-70581673D01*
X101142800Y-70612000D01*
X101142800Y-75184000D01*
X101196937Y-75456165D01*
X101351106Y-75686894D01*
X101859105Y-76194894D01*
X101961782Y-76263500D01*
X102089836Y-76349063D01*
X102362000Y-76403200D01*
X102742933Y-76403200D01*
X102742824Y-76528208D01*
X102897175Y-76901766D01*
X103075813Y-77080716D01*
X102865706Y-77221106D01*
X102367106Y-77719706D01*
X102265050Y-77872443D01*
X101926012Y-78098980D01*
X101636621Y-78532086D01*
X101600000Y-78716192D01*
X101563379Y-78532086D01*
X101273988Y-78098980D01*
X100840882Y-77809589D01*
X100330000Y-77707968D01*
X99819118Y-77809589D01*
X99386012Y-78098980D01*
X99096621Y-78532086D01*
X99060000Y-78716192D01*
X99023379Y-78532086D01*
X98733988Y-78098980D01*
X98598598Y-78008516D01*
X98812941Y-77870590D01*
X98957931Y-77658390D01*
X99008940Y-77406500D01*
X99008940Y-76263500D01*
X98964662Y-76028183D01*
X98825590Y-75812059D01*
X98613390Y-75667069D01*
X98361500Y-75616060D01*
X97218500Y-75616060D01*
X96983183Y-75660338D01*
X96767059Y-75799410D01*
X96622069Y-76011610D01*
X96571060Y-76263500D01*
X96571060Y-77406500D01*
X96615338Y-77641817D01*
X96754410Y-77857941D01*
X96966610Y-78002931D01*
X96984376Y-78006529D01*
X96846012Y-78098980D01*
X96556621Y-78532086D01*
X96520000Y-78716192D01*
X96483379Y-78532086D01*
X96193988Y-78098980D01*
X95760882Y-77809589D01*
X95250000Y-77707968D01*
X94739118Y-77809589D01*
X94306012Y-78098980D01*
X94016621Y-78532086D01*
X93980000Y-78716192D01*
X93943379Y-78532086D01*
X93653988Y-78098980D01*
X93220882Y-77809589D01*
X92710000Y-77707968D01*
X92199118Y-77809589D01*
X91766012Y-78098980D01*
X91476621Y-78532086D01*
X91440000Y-78716192D01*
X91403379Y-78532086D01*
X91113988Y-78098980D01*
X90680882Y-77809589D01*
X90170000Y-77707968D01*
X89659118Y-77809589D01*
X89226012Y-78098980D01*
X88936621Y-78532086D01*
X88900000Y-78716192D01*
X88863379Y-78532086D01*
X88729566Y-78331819D01*
X88754317Y-78327162D01*
X88970441Y-78188090D01*
X89115431Y-77975890D01*
X89166440Y-77724000D01*
X89166440Y-75946000D01*
X89122162Y-75710683D01*
X88983090Y-75494559D01*
X88770890Y-75349569D01*
X88519000Y-75298560D01*
X86741000Y-75298560D01*
X86505683Y-75342838D01*
X86289559Y-75481910D01*
X86144569Y-75694110D01*
X86093560Y-75946000D01*
X86093560Y-77724000D01*
X86137838Y-77959317D01*
X86276910Y-78175441D01*
X86489110Y-78320431D01*
X86532212Y-78329159D01*
X86396621Y-78532086D01*
X86360000Y-78716192D01*
X86323379Y-78532086D01*
X86033988Y-78098980D01*
X85600882Y-77809589D01*
X85090000Y-77707968D01*
X84579118Y-77809589D01*
X84146012Y-78098980D01*
X83856621Y-78532086D01*
X83818214Y-78725170D01*
X83734778Y-78446785D01*
X83404185Y-78041210D01*
X82943550Y-77793020D01*
X82883329Y-77782284D01*
X82677000Y-77905626D01*
X82677000Y-81153000D01*
X82697000Y-81153000D01*
X82697000Y-81407000D01*
X82677000Y-81407000D01*
X82677000Y-83343750D01*
X82835750Y-83502500D01*
X83376309Y-83502500D01*
X83609698Y-83405827D01*
X83788327Y-83227199D01*
X83819088Y-83152935D01*
X83925910Y-83318941D01*
X84053960Y-83406434D01*
X83132394Y-84328000D01*
X76327000Y-84328000D01*
X76327000Y-75946000D01*
X78473560Y-75946000D01*
X78473560Y-77724000D01*
X78517838Y-77959317D01*
X78656910Y-78175441D01*
X78869110Y-78320431D01*
X78912212Y-78329159D01*
X78776621Y-78532086D01*
X78675000Y-79042968D01*
X78675000Y-79631069D01*
X78662560Y-79692500D01*
X78662560Y-82867500D01*
X78706838Y-83102817D01*
X78845910Y-83318941D01*
X79058110Y-83463931D01*
X79310000Y-83514940D01*
X80710000Y-83514940D01*
X80945317Y-83470662D01*
X81161441Y-83331590D01*
X81281893Y-83155303D01*
X81311673Y-83227199D01*
X81490302Y-83405827D01*
X81723691Y-83502500D01*
X82264250Y-83502500D01*
X82423000Y-83343750D01*
X82423000Y-81407000D01*
X82403000Y-81407000D01*
X82403000Y-81153000D01*
X82423000Y-81153000D01*
X82423000Y-77905626D01*
X82216671Y-77782284D01*
X82156450Y-77793020D01*
X81695815Y-78041210D01*
X81365222Y-78446785D01*
X81281786Y-78725170D01*
X81243379Y-78532086D01*
X81109566Y-78331819D01*
X81134317Y-78327162D01*
X81350441Y-78188090D01*
X81495431Y-77975890D01*
X81546440Y-77724000D01*
X81546440Y-75946000D01*
X81502162Y-75710683D01*
X81363090Y-75494559D01*
X81150890Y-75349569D01*
X80899000Y-75298560D01*
X79121000Y-75298560D01*
X78885683Y-75342838D01*
X78669559Y-75481910D01*
X78524569Y-75694110D01*
X78473560Y-75946000D01*
X76327000Y-75946000D01*
X76327000Y-72910440D01*
X78105000Y-72910440D01*
X78340317Y-72866162D01*
X78556441Y-72727090D01*
X78701431Y-72514890D01*
X78752440Y-72263000D01*
X78752440Y-70739000D01*
X78708162Y-70503683D01*
X78698007Y-70487901D01*
X78701431Y-70482890D01*
X78752440Y-70231000D01*
X78752440Y-68707000D01*
X78708162Y-68471683D01*
X78569090Y-68255559D01*
X78356890Y-68110569D01*
X78105000Y-68059560D01*
X76327000Y-68059560D01*
X76327000Y-57912000D01*
X78701137Y-57912000D01*
X78662560Y-58102500D01*
G36*
X76073000Y-68115860D02*
X75875559Y-68242910D01*
X75730569Y-68455110D01*
X75679560Y-68707000D01*
X75679560Y-70231000D01*
X75723838Y-70466317D01*
X75733993Y-70482099D01*
X75730569Y-70487110D01*
X75679560Y-70739000D01*
X75679560Y-72263000D01*
X75723838Y-72498317D01*
X75862910Y-72714441D01*
X76073000Y-72857989D01*
X76073000Y-84455000D01*
X76083006Y-84504410D01*
X76111447Y-84546035D01*
X76153841Y-84573315D01*
X76200000Y-84582000D01*
X83185000Y-84582000D01*
X83234410Y-84571994D01*
X83274803Y-84544803D01*
X84319036Y-83500570D01*
X84390000Y-83514940D01*
X85790000Y-83514940D01*
X86025317Y-83470662D01*
X86241441Y-83331590D01*
X86254826Y-83312000D01*
X86461444Y-83312000D01*
X86465910Y-83318941D01*
X86678110Y-83463931D01*
X86930000Y-83514940D01*
X88330000Y-83514940D01*
X88565317Y-83470662D01*
X88781441Y-83331590D01*
X88794826Y-83312000D01*
X89001444Y-83312000D01*
X89005910Y-83318941D01*
X89218110Y-83463931D01*
X89470000Y-83514940D01*
X90870000Y-83514940D01*
X91105317Y-83470662D01*
X91321441Y-83331590D01*
X91334826Y-83312000D01*
X91541444Y-83312000D01*
X91545910Y-83318941D01*
X91758110Y-83463931D01*
X92010000Y-83514940D01*
X93410000Y-83514940D01*
X93645317Y-83470662D01*
X93861441Y-83331590D01*
X93874826Y-83312000D01*
X94081444Y-83312000D01*
X94085910Y-83318941D01*
X94298110Y-83463931D01*
X94550000Y-83514940D01*
X95950000Y-83514940D01*
X96185317Y-83470662D01*
X96401441Y-83331590D01*
X96414826Y-83312000D01*
X96621444Y-83312000D01*
X96625910Y-83318941D01*
X96838110Y-83463931D01*
X97090000Y-83514940D01*
X98490000Y-83514940D01*
X98725317Y-83470662D01*
X98941441Y-83331590D01*
X98954826Y-83312000D01*
X99161444Y-83312000D01*
X99165910Y-83318941D01*
X99378110Y-83463931D01*
X99630000Y-83514940D01*
X101030000Y-83514940D01*
X101265317Y-83470662D01*
X101481441Y-83331590D01*
X101494826Y-83312000D01*
X101701444Y-83312000D01*
X101705910Y-83318941D01*
X101918110Y-83463931D01*
X102170000Y-83514940D01*
X103570000Y-83514940D01*
X103805317Y-83470662D01*
X104021441Y-83331590D01*
X104034826Y-83312000D01*
X104241444Y-83312000D01*
X104245910Y-83318941D01*
X104458110Y-83463931D01*
X104710000Y-83514940D01*
X106110000Y-83514940D01*
X106345317Y-83470662D01*
X106561441Y-83331590D01*
X106574826Y-83312000D01*
X106781444Y-83312000D01*
X106785910Y-83318941D01*
X106998110Y-83463931D01*
X107250000Y-83514940D01*
X108650000Y-83514940D01*
X108885317Y-83470662D01*
X109101441Y-83331590D01*
X109114826Y-83312000D01*
X112903000Y-83312000D01*
X112903000Y-95758000D01*
X105410000Y-95758000D01*
X105360590Y-95768006D01*
X105318965Y-95796447D01*
X105291685Y-95838841D01*
X105283000Y-95885000D01*
X105283000Y-116078000D01*
X79856378Y-116078000D01*
X79905832Y-116044956D01*
X79999796Y-115950992D01*
X80211208Y-115951176D01*
X80584766Y-115796825D01*
X80870821Y-115511269D01*
X81025824Y-115137982D01*
X81026176Y-114733792D01*
X80871825Y-114360234D01*
X80586269Y-114074179D01*
X80212982Y-113919176D01*
X79808792Y-113918824D01*
X79438049Y-114072012D01*
X79069982Y-113919176D01*
X78665792Y-113918824D01*
X78292234Y-114073175D01*
X78141346Y-114223800D01*
X76875589Y-114223800D01*
X68086866Y-105435078D01*
X68170821Y-105351269D01*
X68325824Y-104977982D01*
X68326176Y-104573792D01*
X68171825Y-104200234D01*
X67886269Y-103914179D01*
X67512982Y-103759176D01*
X67461565Y-103759131D01*
X66230500Y-102528066D01*
X66230500Y-102235056D01*
X66368208Y-102235176D01*
X66741766Y-102080825D01*
X67007280Y-101815774D01*
X67046835Y-101815809D01*
X67238057Y-101943580D01*
X67553963Y-102006418D01*
X67553968Y-102006417D01*
X73014277Y-102006417D01*
X72898176Y-102286018D01*
X72897824Y-102690208D01*
X73052175Y-103063766D01*
X73337731Y-103349821D01*
X73711018Y-103504824D01*
X74115208Y-103505176D01*
X74488766Y-103350825D01*
X74550824Y-103288876D01*
X74737906Y-103251663D01*
X75005717Y-103072717D01*
X75716301Y-102362133D01*
X75766208Y-102362176D01*
X76139766Y-102207825D01*
X76425821Y-101922269D01*
X76580824Y-101548982D01*
X76581056Y-101282500D01*
X84732472Y-101282500D01*
X84767731Y-101317821D01*
X85141018Y-101472824D01*
X85545208Y-101473176D01*
X85918766Y-101318825D01*
X86204821Y-101033269D01*
X86359824Y-100659982D01*
X86360176Y-100255792D01*
X86205825Y-99882234D01*
X85920269Y-99596179D01*
X85546982Y-99441176D01*
X85142792Y-99440824D01*
X84769234Y-99595175D01*
X84732846Y-99631500D01*
X75386385Y-99631500D01*
X75070479Y-99694337D01*
X74963209Y-99766013D01*
X74802668Y-99873283D01*
X74802666Y-99873286D01*
X74800540Y-99875412D01*
X74648825Y-99508234D01*
X74363269Y-99222179D01*
X73989982Y-99067176D01*
X73585792Y-99066824D01*
X73453928Y-99121309D01*
X73316902Y-98984283D01*
X73049091Y-98805337D01*
X72733185Y-98742500D01*
X66802005Y-98742500D01*
X66802000Y-98742499D01*
X66486095Y-98805337D01*
X66230500Y-98976120D01*
X66230500Y-98014585D01*
X66377556Y-98014713D01*
X66751114Y-97860362D01*
X67037169Y-97574806D01*
X67070756Y-97493920D01*
X67298740Y-97722302D01*
X67672027Y-97877305D01*
X68076217Y-97877657D01*
X68411309Y-97739200D01*
X72553371Y-97739200D01*
X72702731Y-97888821D01*
X73076018Y-98043824D01*
X73480208Y-98044176D01*
X73853766Y-97889825D01*
X74139821Y-97604269D01*
X74294824Y-97230982D01*
X74295176Y-96826792D01*
X74140825Y-96453234D01*
X73855269Y-96167179D01*
X73481982Y-96012176D01*
X73077792Y-96011824D01*
X72704234Y-96166175D01*
X72553346Y-96316800D01*
X68749265Y-96316800D01*
X68736834Y-96286715D01*
X68451278Y-96000660D01*
X68077991Y-95845657D01*
X67673801Y-95845305D01*
X67300243Y-95999656D01*
X67014188Y-96285212D01*
X66980601Y-96366098D01*
X66972099Y-96357581D01*
X67104088Y-96039718D01*
X67104440Y-95635528D01*
X66950089Y-95261970D01*
X66664533Y-94975915D01*
X66291246Y-94820912D01*
X65887056Y-94820560D01*
X65513498Y-94974911D01*
X65362610Y-95125536D01*
X64644790Y-95125536D01*
X64372626Y-95179673D01*
X64249460Y-95261970D01*
X64141896Y-95333842D01*
X62821835Y-96653901D01*
X62667666Y-96884631D01*
X62654262Y-96952018D01*
X62613529Y-97156796D01*
X62613529Y-102106204D01*
X62667666Y-102378369D01*
X62821835Y-102609098D01*
X66827234Y-106614498D01*
X66620140Y-106572560D01*
X62620140Y-106572560D01*
X62384823Y-106616838D01*
X62168699Y-106755910D01*
X62023709Y-106968110D01*
X61972700Y-107220000D01*
X61972700Y-111220000D01*
X61982402Y-111271560D01*
X59620400Y-111271560D01*
X59573680Y-111280351D01*
X59607131Y-111246900D01*
X59715518Y-111084690D01*
X59717212Y-111080602D01*
X59824602Y-110821340D01*
X59829298Y-110810004D01*
X59829298Y-110810002D01*
X59829299Y-110810000D01*
X59867359Y-110618657D01*
X59867359Y-110543606D01*
X59882000Y-110470000D01*
X59882000Y-107970000D01*
X59867359Y-107896394D01*
X59867359Y-107821343D01*
X59829299Y-107630000D01*
X59829298Y-107629997D01*
X59829298Y-107629996D01*
X59717212Y-107359400D01*
X59715520Y-107355314D01*
X59715519Y-107355313D01*
X59715518Y-107355310D01*
X59607131Y-107193100D01*
X59460686Y-107046656D01*
X59396900Y-106982869D01*
X59234689Y-106874482D01*
X59234687Y-106874481D01*
X59234686Y-106874480D01*
X59087587Y-106813549D01*
X58960004Y-106760702D01*
X58960002Y-106760702D01*
X58960000Y-106760701D01*
X58768658Y-106722641D01*
X58620001Y-106722641D01*
X58280000Y-106760701D01*
X58279998Y-106760702D01*
X58279996Y-106760702D01*
X58099566Y-106835439D01*
X58005314Y-106874480D01*
X58005313Y-106874481D01*
X58005310Y-106874482D01*
X57843100Y-106982869D01*
X57779314Y-107046656D01*
X57632869Y-107193100D01*
X57524482Y-107355311D01*
X57524482Y-107355312D01*
X57524480Y-107355314D01*
X57522788Y-107359400D01*
X57410702Y-107629996D01*
X57410702Y-107629997D01*
X57410701Y-107630000D01*
X57372641Y-107821342D01*
X57372641Y-107896394D01*
X57358000Y-107970000D01*
X57358000Y-110470000D01*
X57372641Y-110543606D01*
X57372641Y-110618658D01*
X57410701Y-110810000D01*
X57410702Y-110810002D01*
X57410702Y-110810004D01*
X57415398Y-110821340D01*
X57524480Y-111084686D01*
X57524481Y-111084687D01*
X57524482Y-111084689D01*
X57632869Y-111246900D01*
X57701808Y-111315838D01*
X57843100Y-111457131D01*
X58005310Y-111565518D01*
X58005313Y-111565519D01*
X58005314Y-111565520D01*
X58097196Y-111603579D01*
X58279996Y-111679298D01*
X58279998Y-111679298D01*
X58280000Y-111679299D01*
X58471343Y-111717359D01*
X58768658Y-111717359D01*
X58960000Y-111679299D01*
X58960002Y-111679298D01*
X58960004Y-111679298D01*
X59037604Y-111647155D01*
X59023969Y-111667110D01*
X58972960Y-111919000D01*
X58972960Y-115919000D01*
X59002878Y-116078000D01*
X51562000Y-116078000D01*
X51562000Y-89277265D01*
X52704670Y-89277265D01*
X52994078Y-89977686D01*
X53529495Y-90514039D01*
X54229410Y-90804668D01*
X54987265Y-90805330D01*
X55687686Y-90515922D01*
X56224039Y-89980505D01*
X56463830Y-89403021D01*
X62229560Y-89403021D01*
X62615437Y-90336915D01*
X63329327Y-91052052D01*
X64262546Y-91439559D01*
X65273021Y-91440440D01*
X66206915Y-91054563D01*
X66922052Y-90340673D01*
X67309559Y-89407454D01*
X67310440Y-88396979D01*
X66924563Y-87463085D01*
X66210673Y-86747948D01*
X65277454Y-86360441D01*
X64266979Y-86359560D01*
X63333085Y-86745437D01*
X62617948Y-87459327D01*
X62230441Y-88392546D01*
X62229560Y-89403021D01*
X56463830Y-89403021D01*
X56514668Y-89280590D01*
X56515330Y-88522735D01*
X56225922Y-87822314D01*
X55690505Y-87285961D01*
X54990590Y-86995332D01*
X54232735Y-86994670D01*
X53532314Y-87284078D01*
X52995961Y-87819495D01*
X52705332Y-88519410D01*
X52704670Y-89277265D01*
X51562000Y-89277265D01*
X51562000Y-80387265D01*
X52704670Y-80387265D01*
X52994078Y-81087686D01*
X53529495Y-81624039D01*
X54229410Y-81914668D01*
X54987265Y-81915330D01*
X55687686Y-81625922D01*
X56224039Y-81090505D01*
X56463830Y-80513021D01*
X62229560Y-80513021D01*
X62615437Y-81446915D01*
X63329327Y-82162052D01*
X64262546Y-82549559D01*
X65273021Y-82550440D01*
X66206915Y-82164563D01*
X66922052Y-81450673D01*
X67309559Y-80517454D01*
X67310440Y-79506979D01*
X66924563Y-78573085D01*
X66210673Y-77857948D01*
X65277454Y-77470441D01*
X64266979Y-77469560D01*
X63333085Y-77855437D01*
X62617948Y-78569327D01*
X62230441Y-79502546D01*
X62229560Y-80513021D01*
X56463830Y-80513021D01*
X56514668Y-80390590D01*
X56515330Y-79632735D01*
X56225922Y-78932314D01*
X55690505Y-78395961D01*
X54990590Y-78105332D01*
X54232735Y-78104670D01*
X53532314Y-78394078D01*
X52995961Y-78929495D01*
X52705332Y-79629410D01*
X52704670Y-80387265D01*
X51562000Y-80387265D01*
X51562000Y-57912000D01*
X76073000Y-57912000D01*
X76073000Y-68115860D01*
X76073000Y-68115860D01*
G37*
X76073000Y-68115860D02*
X75875559Y-68242910D01*
X75730569Y-68455110D01*
X75679560Y-68707000D01*
X75679560Y-70231000D01*
X75723838Y-70466317D01*
X75733993Y-70482099D01*
X75730569Y-70487110D01*
X75679560Y-70739000D01*
X75679560Y-72263000D01*
X75723838Y-72498317D01*
X75862910Y-72714441D01*
X76073000Y-72857989D01*
X76073000Y-84455000D01*
X76083006Y-84504410D01*
X76111447Y-84546035D01*
X76153841Y-84573315D01*
X76200000Y-84582000D01*
X83185000Y-84582000D01*
X83234410Y-84571994D01*
X83274803Y-84544803D01*
X84319036Y-83500570D01*
X84390000Y-83514940D01*
X85790000Y-83514940D01*
X86025317Y-83470662D01*
X86241441Y-83331590D01*
X86254826Y-83312000D01*
X86461444Y-83312000D01*
X86465910Y-83318941D01*
X86678110Y-83463931D01*
X86930000Y-83514940D01*
X88330000Y-83514940D01*
X88565317Y-83470662D01*
X88781441Y-83331590D01*
X88794826Y-83312000D01*
X89001444Y-83312000D01*
X89005910Y-83318941D01*
X89218110Y-83463931D01*
X89470000Y-83514940D01*
X90870000Y-83514940D01*
X91105317Y-83470662D01*
X91321441Y-83331590D01*
X91334826Y-83312000D01*
X91541444Y-83312000D01*
X91545910Y-83318941D01*
X91758110Y-83463931D01*
X92010000Y-83514940D01*
X93410000Y-83514940D01*
X93645317Y-83470662D01*
X93861441Y-83331590D01*
X93874826Y-83312000D01*
X94081444Y-83312000D01*
X94085910Y-83318941D01*
X94298110Y-83463931D01*
X94550000Y-83514940D01*
X95950000Y-83514940D01*
X96185317Y-83470662D01*
X96401441Y-83331590D01*
X96414826Y-83312000D01*
X96621444Y-83312000D01*
X96625910Y-83318941D01*
X96838110Y-83463931D01*
X97090000Y-83514940D01*
X98490000Y-83514940D01*
X98725317Y-83470662D01*
X98941441Y-83331590D01*
X98954826Y-83312000D01*
X99161444Y-83312000D01*
X99165910Y-83318941D01*
X99378110Y-83463931D01*
X99630000Y-83514940D01*
X101030000Y-83514940D01*
X101265317Y-83470662D01*
X101481441Y-83331590D01*
X101494826Y-83312000D01*
X101701444Y-83312000D01*
X101705910Y-83318941D01*
X101918110Y-83463931D01*
X102170000Y-83514940D01*
X103570000Y-83514940D01*
X103805317Y-83470662D01*
X104021441Y-83331590D01*
X104034826Y-83312000D01*
X104241444Y-83312000D01*
X104245910Y-83318941D01*
X104458110Y-83463931D01*
X104710000Y-83514940D01*
X106110000Y-83514940D01*
X106345317Y-83470662D01*
X106561441Y-83331590D01*
X106574826Y-83312000D01*
X106781444Y-83312000D01*
X106785910Y-83318941D01*
X106998110Y-83463931D01*
X107250000Y-83514940D01*
X108650000Y-83514940D01*
X108885317Y-83470662D01*
X109101441Y-83331590D01*
X109114826Y-83312000D01*
X112903000Y-83312000D01*
X112903000Y-95758000D01*
X105410000Y-95758000D01*
X105360590Y-95768006D01*
X105318965Y-95796447D01*
X105291685Y-95838841D01*
X105283000Y-95885000D01*
X105283000Y-116078000D01*
X79856378Y-116078000D01*
X79905832Y-116044956D01*
X79999796Y-115950992D01*
X80211208Y-115951176D01*
X80584766Y-115796825D01*
X80870821Y-115511269D01*
X81025824Y-115137982D01*
X81026176Y-114733792D01*
X80871825Y-114360234D01*
X80586269Y-114074179D01*
X80212982Y-113919176D01*
X79808792Y-113918824D01*
X79438049Y-114072012D01*
X79069982Y-113919176D01*
X78665792Y-113918824D01*
X78292234Y-114073175D01*
X78141346Y-114223800D01*
X76875589Y-114223800D01*
X68086866Y-105435078D01*
X68170821Y-105351269D01*
X68325824Y-104977982D01*
X68326176Y-104573792D01*
X68171825Y-104200234D01*
X67886269Y-103914179D01*
X67512982Y-103759176D01*
X67461565Y-103759131D01*
X66230500Y-102528066D01*
X66230500Y-102235056D01*
X66368208Y-102235176D01*
X66741766Y-102080825D01*
X67007280Y-101815774D01*
X67046835Y-101815809D01*
X67238057Y-101943580D01*
X67553963Y-102006418D01*
X67553968Y-102006417D01*
X73014277Y-102006417D01*
X72898176Y-102286018D01*
X72897824Y-102690208D01*
X73052175Y-103063766D01*
X73337731Y-103349821D01*
X73711018Y-103504824D01*
X74115208Y-103505176D01*
X74488766Y-103350825D01*
X74550824Y-103288876D01*
X74737906Y-103251663D01*
X75005717Y-103072717D01*
X75716301Y-102362133D01*
X75766208Y-102362176D01*
X76139766Y-102207825D01*
X76425821Y-101922269D01*
X76580824Y-101548982D01*
X76581056Y-101282500D01*
X84732472Y-101282500D01*
X84767731Y-101317821D01*
X85141018Y-101472824D01*
X85545208Y-101473176D01*
X85918766Y-101318825D01*
X86204821Y-101033269D01*
X86359824Y-100659982D01*
X86360176Y-100255792D01*
X86205825Y-99882234D01*
X85920269Y-99596179D01*
X85546982Y-99441176D01*
X85142792Y-99440824D01*
X84769234Y-99595175D01*
X84732846Y-99631500D01*
X75386385Y-99631500D01*
X75070479Y-99694337D01*
X74963209Y-99766013D01*
X74802668Y-99873283D01*
X74802666Y-99873286D01*
X74800540Y-99875412D01*
X74648825Y-99508234D01*
X74363269Y-99222179D01*
X73989982Y-99067176D01*
X73585792Y-99066824D01*
X73453928Y-99121309D01*
X73316902Y-98984283D01*
X73049091Y-98805337D01*
X72733185Y-98742500D01*
X66802005Y-98742500D01*
X66802000Y-98742499D01*
X66486095Y-98805337D01*
X66230500Y-98976120D01*
X66230500Y-98014585D01*
X66377556Y-98014713D01*
X66751114Y-97860362D01*
X67037169Y-97574806D01*
X67070756Y-97493920D01*
X67298740Y-97722302D01*
X67672027Y-97877305D01*
X68076217Y-97877657D01*
X68411309Y-97739200D01*
X72553371Y-97739200D01*
X72702731Y-97888821D01*
X73076018Y-98043824D01*
X73480208Y-98044176D01*
X73853766Y-97889825D01*
X74139821Y-97604269D01*
X74294824Y-97230982D01*
X74295176Y-96826792D01*
X74140825Y-96453234D01*
X73855269Y-96167179D01*
X73481982Y-96012176D01*
X73077792Y-96011824D01*
X72704234Y-96166175D01*
X72553346Y-96316800D01*
X68749265Y-96316800D01*
X68736834Y-96286715D01*
X68451278Y-96000660D01*
X68077991Y-95845657D01*
X67673801Y-95845305D01*
X67300243Y-95999656D01*
X67014188Y-96285212D01*
X66980601Y-96366098D01*
X66972099Y-96357581D01*
X67104088Y-96039718D01*
X67104440Y-95635528D01*
X66950089Y-95261970D01*
X66664533Y-94975915D01*
X66291246Y-94820912D01*
X65887056Y-94820560D01*
X65513498Y-94974911D01*
X65362610Y-95125536D01*
X64644790Y-95125536D01*
X64372626Y-95179673D01*
X64249460Y-95261970D01*
X64141896Y-95333842D01*
X62821835Y-96653901D01*
X62667666Y-96884631D01*
X62654262Y-96952018D01*
X62613529Y-97156796D01*
X62613529Y-102106204D01*
X62667666Y-102378369D01*
X62821835Y-102609098D01*
X66827234Y-106614498D01*
X66620140Y-106572560D01*
X62620140Y-106572560D01*
X62384823Y-106616838D01*
X62168699Y-106755910D01*
X62023709Y-106968110D01*
X61972700Y-107220000D01*
X61972700Y-111220000D01*
X61982402Y-111271560D01*
X59620400Y-111271560D01*
X59573680Y-111280351D01*
X59607131Y-111246900D01*
X59715518Y-111084690D01*
X59717212Y-111080602D01*
X59824602Y-110821340D01*
X59829298Y-110810004D01*
X59829298Y-110810002D01*
X59829299Y-110810000D01*
X59867359Y-110618657D01*
X59867359Y-110543606D01*
X59882000Y-110470000D01*
X59882000Y-107970000D01*
X59867359Y-107896394D01*
X59867359Y-107821343D01*
X59829299Y-107630000D01*
X59829298Y-107629997D01*
X59829298Y-107629996D01*
X59717212Y-107359400D01*
X59715520Y-107355314D01*
X59715519Y-107355313D01*
X59715518Y-107355310D01*
X59607131Y-107193100D01*
X59460686Y-107046656D01*
X59396900Y-106982869D01*
X59234689Y-106874482D01*
X59234687Y-106874481D01*
X59234686Y-106874480D01*
X59087587Y-106813549D01*
X58960004Y-106760702D01*
X58960002Y-106760702D01*
X58960000Y-106760701D01*
X58768658Y-106722641D01*
X58620001Y-106722641D01*
X58280000Y-106760701D01*
X58279998Y-106760702D01*
X58279996Y-106760702D01*
X58099566Y-106835439D01*
X58005314Y-106874480D01*
X58005313Y-106874481D01*
X58005310Y-106874482D01*
X57843100Y-106982869D01*
X57779314Y-107046656D01*
X57632869Y-107193100D01*
X57524482Y-107355311D01*
X57524482Y-107355312D01*
X57524480Y-107355314D01*
X57522788Y-107359400D01*
X57410702Y-107629996D01*
X57410702Y-107629997D01*
X57410701Y-107630000D01*
X57372641Y-107821342D01*
X57372641Y-107896394D01*
X57358000Y-107970000D01*
X57358000Y-110470000D01*
X57372641Y-110543606D01*
X57372641Y-110618658D01*
X57410701Y-110810000D01*
X57410702Y-110810002D01*
X57410702Y-110810004D01*
X57415398Y-110821340D01*
X57524480Y-111084686D01*
X57524481Y-111084687D01*
X57524482Y-111084689D01*
X57632869Y-111246900D01*
X57701808Y-111315838D01*
X57843100Y-111457131D01*
X58005310Y-111565518D01*
X58005313Y-111565519D01*
X58005314Y-111565520D01*
X58097196Y-111603579D01*
X58279996Y-111679298D01*
X58279998Y-111679298D01*
X58280000Y-111679299D01*
X58471343Y-111717359D01*
X58768658Y-111717359D01*
X58960000Y-111679299D01*
X58960002Y-111679298D01*
X58960004Y-111679298D01*
X59037604Y-111647155D01*
X59023969Y-111667110D01*
X58972960Y-111919000D01*
X58972960Y-115919000D01*
X59002878Y-116078000D01*
X51562000Y-116078000D01*
X51562000Y-89277265D01*
X52704670Y-89277265D01*
X52994078Y-89977686D01*
X53529495Y-90514039D01*
X54229410Y-90804668D01*
X54987265Y-90805330D01*
X55687686Y-90515922D01*
X56224039Y-89980505D01*
X56463830Y-89403021D01*
X62229560Y-89403021D01*
X62615437Y-90336915D01*
X63329327Y-91052052D01*
X64262546Y-91439559D01*
X65273021Y-91440440D01*
X66206915Y-91054563D01*
X66922052Y-90340673D01*
X67309559Y-89407454D01*
X67310440Y-88396979D01*
X66924563Y-87463085D01*
X66210673Y-86747948D01*
X65277454Y-86360441D01*
X64266979Y-86359560D01*
X63333085Y-86745437D01*
X62617948Y-87459327D01*
X62230441Y-88392546D01*
X62229560Y-89403021D01*
X56463830Y-89403021D01*
X56514668Y-89280590D01*
X56515330Y-88522735D01*
X56225922Y-87822314D01*
X55690505Y-87285961D01*
X54990590Y-86995332D01*
X54232735Y-86994670D01*
X53532314Y-87284078D01*
X52995961Y-87819495D01*
X52705332Y-88519410D01*
X52704670Y-89277265D01*
X51562000Y-89277265D01*
X51562000Y-80387265D01*
X52704670Y-80387265D01*
X52994078Y-81087686D01*
X53529495Y-81624039D01*
X54229410Y-81914668D01*
X54987265Y-81915330D01*
X55687686Y-81625922D01*
X56224039Y-81090505D01*
X56463830Y-80513021D01*
X62229560Y-80513021D01*
X62615437Y-81446915D01*
X63329327Y-82162052D01*
X64262546Y-82549559D01*
X65273021Y-82550440D01*
X66206915Y-82164563D01*
X66922052Y-81450673D01*
X67309559Y-80517454D01*
X67310440Y-79506979D01*
X66924563Y-78573085D01*
X66210673Y-77857948D01*
X65277454Y-77470441D01*
X64266979Y-77469560D01*
X63333085Y-77855437D01*
X62617948Y-78569327D01*
X62230441Y-79502546D01*
X62229560Y-80513021D01*
X56463830Y-80513021D01*
X56514668Y-80390590D01*
X56515330Y-79632735D01*
X56225922Y-78932314D01*
X55690505Y-78395961D01*
X54990590Y-78105332D01*
X54232735Y-78104670D01*
X53532314Y-78394078D01*
X52995961Y-78929495D01*
X52705332Y-79629410D01*
X52704670Y-80387265D01*
X51562000Y-80387265D01*
X51562000Y-57912000D01*
X76073000Y-57912000D01*
X76073000Y-68115860D01*
M02*
