G04 #@! TF.FileFunction,Soldermask,Bot*
%FSLAX46Y46*%
G04 Gerber Fmt 4.6, Leading zero omitted, Abs format (unit mm)*
G04 Created by KiCad (PCBNEW 4.0.2-stable) date 8/2/2016 00:37:47*
%MOMM*%
G01*
G04 APERTURE LIST*
%ADD10C,0.254000*%
%ADD11O,2.406400X1.606400*%
%ADD12C,2.946400*%
%ADD13C,4.216400*%
%ADD14R,2.133600X2.438400*%
%ADD15O,2.133600X2.438400*%
%ADD16O,2.311400X1.930400*%
%ADD17R,2.311400X1.930400*%
%ADD18C,7.406400*%
%ADD19C,1.006400*%
%ADD20R,3.906520X3.906520*%
G04 APERTURE END LIST*
D10*
D11*
X72261456Y-110744000D03*
X90041456Y-110744000D03*
X72261456Y-108204000D03*
X90041456Y-108204000D03*
X72261456Y-105664000D03*
X90041456Y-105664000D03*
X72261456Y-103124000D03*
X90041456Y-103124000D03*
X72261456Y-100584000D03*
X90041456Y-100584000D03*
X72261456Y-98044000D03*
X90041456Y-98044000D03*
X72261456Y-95504000D03*
X90041456Y-95504000D03*
X72261456Y-92964000D03*
X90041456Y-92964000D03*
X72261456Y-90424000D03*
X90041456Y-90424000D03*
X72261456Y-87884000D03*
X90041456Y-87884000D03*
X72261456Y-85344000D03*
X90041456Y-85344000D03*
X72261456Y-82804000D03*
X90041456Y-82804000D03*
D12*
X54610000Y-62230000D03*
D13*
X64770000Y-62230000D03*
D12*
X54610000Y-71120000D03*
D13*
X64770000Y-71120000D03*
D12*
X54610000Y-80010000D03*
D13*
X64770000Y-80010000D03*
D12*
X54610000Y-88900000D03*
D13*
X64770000Y-88900000D03*
D14*
X110490000Y-69850000D03*
D15*
X107950000Y-69850000D03*
X105410000Y-69850000D03*
X102870000Y-69850000D03*
X100330000Y-69850000D03*
X97790000Y-69850000D03*
D14*
X110490000Y-73660000D03*
D15*
X107950000Y-73660000D03*
X105410000Y-73660000D03*
X102870000Y-73660000D03*
X100330000Y-73660000D03*
X97790000Y-73660000D03*
D16*
X115570000Y-85090000D03*
X118110000Y-85090000D03*
X115570000Y-87630000D03*
X118110000Y-87630000D03*
X115570000Y-90170000D03*
X118110000Y-90170000D03*
X115570000Y-92710000D03*
X118110000Y-92710000D03*
X115570000Y-95250000D03*
X118110000Y-95250000D03*
X115570000Y-97790000D03*
X118110000Y-97790000D03*
X115570000Y-100330000D03*
X118110000Y-100330000D03*
X115570000Y-102870000D03*
D17*
X118110000Y-102870000D03*
D18*
X116840000Y-62230000D03*
D19*
X119465000Y-62230000D03*
X118696155Y-64086155D03*
X116840000Y-64855000D03*
X114983845Y-64086155D03*
X114215000Y-62230000D03*
X114983845Y-60373845D03*
X116840000Y-59605000D03*
X118696155Y-60373845D03*
D18*
X55880000Y-99060000D03*
D19*
X58505000Y-99060000D03*
X57736155Y-100916155D03*
X55880000Y-101685000D03*
X54023845Y-100916155D03*
X53255000Y-99060000D03*
X54023845Y-97203845D03*
X55880000Y-96435000D03*
X57736155Y-97203845D03*
D18*
X116840000Y-111760000D03*
D19*
X119465000Y-111760000D03*
X118696155Y-113616155D03*
X116840000Y-114385000D03*
X114983845Y-113616155D03*
X114215000Y-111760000D03*
X114983845Y-109903845D03*
X116840000Y-109135000D03*
X118696155Y-109903845D03*
D20*
X64620140Y-109220000D03*
X58620660Y-109220000D03*
X61620400Y-113919000D03*
M02*
