G04 #@! TF.FileFunction,Legend,Bot*
%FSLAX46Y46*%
G04 Gerber Fmt 4.6, Leading zero omitted, Abs format (unit mm)*
G04 Created by KiCad (PCBNEW 4.0.4-stable) date 12/21/16 23:30:34*
%MOMM*%
%LPD*%
G01*
G04 APERTURE LIST*
%ADD10C,0.254000*%
%ADD11O,2.311400X1.930400*%
%ADD12R,2.311400X1.930400*%
%ADD13O,2.406400X1.606400*%
%ADD14C,2.946400*%
%ADD15C,4.216400*%
%ADD16R,2.133600X2.438400*%
%ADD17O,2.133600X2.438400*%
%ADD18C,7.406400*%
%ADD19C,1.006400*%
%ADD20R,4.406400X4.406400*%
G04 APERTURE END LIST*
D10*
X119840000Y-88138000D02*
X120904000Y-88138000D01*
X120904000Y-88138000D02*
X120904000Y-92202000D01*
X120904000Y-92202000D02*
X119840000Y-92202000D01*
X119840000Y-77470000D02*
X119840000Y-102870000D01*
X119840000Y-102870000D02*
X113840000Y-102870000D01*
X113840000Y-102870000D02*
X113840000Y-77470000D01*
X113840000Y-77470000D02*
X119840000Y-77470000D01*
X117263333Y-75377524D02*
X117263333Y-76284667D01*
X117323809Y-76466095D01*
X117444761Y-76587048D01*
X117626190Y-76647524D01*
X117747142Y-76647524D01*
X116779523Y-75377524D02*
X115932857Y-75377524D01*
X116477142Y-76647524D01*
%LPC*%
D11*
X115570000Y-81280000D03*
X118110000Y-81280000D03*
X115570000Y-83820000D03*
X118110000Y-83820000D03*
X115570000Y-86360000D03*
X118110000Y-86360000D03*
X115570000Y-88900000D03*
X118110000Y-88900000D03*
X115570000Y-91440000D03*
X118110000Y-91440000D03*
X115570000Y-93980000D03*
X118110000Y-93980000D03*
X115570000Y-96520000D03*
X118110000Y-96520000D03*
X115570000Y-99060000D03*
D12*
X118110000Y-99060000D03*
D13*
X72261456Y-110744000D03*
X90041456Y-110744000D03*
X72261456Y-108204000D03*
X90041456Y-108204000D03*
X72261456Y-105664000D03*
X90041456Y-105664000D03*
X72261456Y-103124000D03*
X90041456Y-103124000D03*
X72261456Y-100584000D03*
X90041456Y-100584000D03*
X72261456Y-98044000D03*
X90041456Y-98044000D03*
X72261456Y-95504000D03*
X90041456Y-95504000D03*
X72261456Y-92964000D03*
X90041456Y-92964000D03*
X72261456Y-90424000D03*
X90041456Y-90424000D03*
X72261456Y-87884000D03*
X90041456Y-87884000D03*
X72261456Y-85344000D03*
X90041456Y-85344000D03*
X72261456Y-82804000D03*
X90041456Y-82804000D03*
D14*
X54610000Y-62230000D03*
D15*
X64770000Y-62230000D03*
D14*
X54610000Y-71120000D03*
D15*
X64770000Y-71120000D03*
D14*
X54610000Y-80010000D03*
D15*
X64770000Y-80010000D03*
D14*
X54610000Y-88900000D03*
D15*
X64770000Y-88900000D03*
D16*
X110490000Y-69850000D03*
D17*
X107950000Y-69850000D03*
X105410000Y-69850000D03*
X102870000Y-69850000D03*
X100330000Y-69850000D03*
X97790000Y-69850000D03*
D16*
X110490000Y-73660000D03*
D17*
X107950000Y-73660000D03*
X105410000Y-73660000D03*
X102870000Y-73660000D03*
X100330000Y-73660000D03*
X97790000Y-73660000D03*
D18*
X116840000Y-62230000D03*
D19*
X119465000Y-62230000D03*
X118696155Y-64086155D03*
X116840000Y-64855000D03*
X114983845Y-64086155D03*
X114215000Y-62230000D03*
X114983845Y-60373845D03*
X116840000Y-59605000D03*
X118696155Y-60373845D03*
D18*
X56880000Y-98810000D03*
D19*
X59505000Y-98810000D03*
X58736155Y-100666155D03*
X56880000Y-101435000D03*
X55023845Y-100666155D03*
X54255000Y-98810000D03*
X55023845Y-96953845D03*
X56880000Y-96185000D03*
X58736155Y-96953845D03*
D18*
X116840000Y-111760000D03*
D19*
X119465000Y-111760000D03*
X118696155Y-113616155D03*
X116840000Y-114385000D03*
X114983845Y-113616155D03*
X114215000Y-111760000D03*
X114983845Y-109903845D03*
X116840000Y-109135000D03*
X118696155Y-109903845D03*
D20*
X64620140Y-109220000D03*
X58620660Y-109220000D03*
X61620400Y-113919000D03*
M02*
