G04 #@! TF.FileFunction,Copper,L2,Bot,Signal*
%FSLAX46Y46*%
G04 Gerber Fmt 4.6, Leading zero omitted, Abs format (unit mm)*
G04 Created by KiCad (PCBNEW 4.0.4-stable) date 12/21/16 23:30:34*
%MOMM*%
%LPD*%
G01*
G04 APERTURE LIST*
%ADD10C,0.254000*%
%ADD11O,1.905000X1.524000*%
%ADD12R,1.905000X1.524000*%
%ADD13O,2.000000X1.200000*%
%ADD14C,2.540000*%
%ADD15C,3.810000*%
%ADD16R,1.727200X2.032000*%
%ADD17O,1.727200X2.032000*%
%ADD18C,7.000000*%
%ADD19C,0.600000*%
%ADD20R,4.000000X4.000000*%
%ADD21C,0.762000*%
%ADD22C,0.406400*%
%ADD23C,1.270000*%
%ADD24C,0.203200*%
G04 APERTURE END LIST*
D10*
D11*
X115570000Y-81280000D03*
X118110000Y-81280000D03*
X115570000Y-83820000D03*
X118110000Y-83820000D03*
X115570000Y-86360000D03*
X118110000Y-86360000D03*
X115570000Y-88900000D03*
X118110000Y-88900000D03*
X115570000Y-91440000D03*
X118110000Y-91440000D03*
X115570000Y-93980000D03*
X118110000Y-93980000D03*
X115570000Y-96520000D03*
X118110000Y-96520000D03*
X115570000Y-99060000D03*
D12*
X118110000Y-99060000D03*
D13*
X72261456Y-110744000D03*
X90041456Y-110744000D03*
X72261456Y-108204000D03*
X90041456Y-108204000D03*
X72261456Y-105664000D03*
X90041456Y-105664000D03*
X72261456Y-103124000D03*
X90041456Y-103124000D03*
X72261456Y-100584000D03*
X90041456Y-100584000D03*
X72261456Y-98044000D03*
X90041456Y-98044000D03*
X72261456Y-95504000D03*
X90041456Y-95504000D03*
X72261456Y-92964000D03*
X90041456Y-92964000D03*
X72261456Y-90424000D03*
X90041456Y-90424000D03*
X72261456Y-87884000D03*
X90041456Y-87884000D03*
X72261456Y-85344000D03*
X90041456Y-85344000D03*
X72261456Y-82804000D03*
X90041456Y-82804000D03*
D14*
X54610000Y-62230000D03*
D15*
X64770000Y-62230000D03*
D14*
X54610000Y-71120000D03*
D15*
X64770000Y-71120000D03*
D14*
X54610000Y-80010000D03*
D15*
X64770000Y-80010000D03*
D14*
X54610000Y-88900000D03*
D15*
X64770000Y-88900000D03*
D16*
X110490000Y-69850000D03*
D17*
X107950000Y-69850000D03*
X105410000Y-69850000D03*
X102870000Y-69850000D03*
X100330000Y-69850000D03*
X97790000Y-69850000D03*
D16*
X110490000Y-73660000D03*
D17*
X107950000Y-73660000D03*
X105410000Y-73660000D03*
X102870000Y-73660000D03*
X100330000Y-73660000D03*
X97790000Y-73660000D03*
D18*
X116840000Y-62230000D03*
D19*
X119465000Y-62230000D03*
X118696155Y-64086155D03*
X116840000Y-64855000D03*
X114983845Y-64086155D03*
X114215000Y-62230000D03*
X114983845Y-60373845D03*
X116840000Y-59605000D03*
X118696155Y-60373845D03*
D18*
X56880000Y-98810000D03*
D19*
X59505000Y-98810000D03*
X58736155Y-100666155D03*
X56880000Y-101435000D03*
X55023845Y-100666155D03*
X54255000Y-98810000D03*
X55023845Y-96953845D03*
X56880000Y-96185000D03*
X58736155Y-96953845D03*
D18*
X116840000Y-111760000D03*
D19*
X119465000Y-111760000D03*
X118696155Y-113616155D03*
X116840000Y-114385000D03*
X114983845Y-113616155D03*
X114215000Y-111760000D03*
X114983845Y-109903845D03*
X116840000Y-109135000D03*
X118696155Y-109903845D03*
D20*
X64620140Y-109220000D03*
X58620660Y-109220000D03*
X61620400Y-113919000D03*
D21*
X90297000Y-77978000D03*
X90297000Y-77216000D03*
X90297000Y-76454000D03*
X90297000Y-75692000D03*
X111252000Y-102997000D03*
X111125000Y-112776000D03*
X111125000Y-111760000D03*
X111125000Y-110617000D03*
X110490000Y-109728000D03*
X109347000Y-109728000D03*
X108204000Y-109728000D03*
X108204000Y-106045000D03*
X109347000Y-106045000D03*
X110490000Y-106045000D03*
X111252000Y-105283000D03*
X111252000Y-104140000D03*
X69977000Y-72771000D03*
X69977000Y-72009000D03*
X69977000Y-71247000D03*
X69977000Y-70485000D03*
X69977000Y-69723000D03*
X69977000Y-68961000D03*
X105918000Y-64389000D03*
X105918000Y-63627000D03*
X105918000Y-62865000D03*
X105918000Y-62103000D03*
X105918000Y-61341000D03*
X105918000Y-60579000D03*
X69977000Y-61849000D03*
X69977000Y-62611000D03*
X69977000Y-63373000D03*
X69977000Y-64135000D03*
X69977000Y-64897000D03*
X69977000Y-65659000D03*
X120650000Y-67945000D03*
X95885000Y-104775000D03*
X97155000Y-104775000D03*
X97155000Y-106045000D03*
X95885000Y-106045000D03*
X104648000Y-59055000D03*
X100584000Y-75946000D03*
X103301780Y-92820368D03*
X104978220Y-84654624D03*
X117881420Y-73025000D03*
X117856000Y-76835000D03*
X98425000Y-83947000D03*
X109855000Y-93853000D03*
X99187000Y-79248000D03*
X105283000Y-79248000D03*
X105283000Y-98552000D03*
X108077000Y-98552000D03*
X94497389Y-91159003D03*
X105765630Y-85979000D03*
X93726000Y-73660000D03*
X94488000Y-99060000D03*
X101092000Y-99060000D03*
X107315000Y-92837000D03*
X92964000Y-72898000D03*
X93726000Y-96774000D03*
X92202000Y-72136000D03*
X92964000Y-94234000D03*
X95590552Y-89748552D03*
X100965000Y-84836000D03*
X91440000Y-71374000D03*
X92202000Y-101854000D03*
X101600000Y-99949000D03*
X108204000Y-90932000D03*
X94361000Y-85344000D03*
X87630000Y-65405000D03*
X109728000Y-82931000D03*
X94742000Y-86614000D03*
D22*
X78740000Y-103124000D02*
X83820000Y-108204000D01*
X83820000Y-108204000D02*
X90041456Y-108204000D01*
X72261456Y-103124000D02*
X78740000Y-103124000D01*
D23*
X58620660Y-104902000D02*
X58620660Y-101800660D01*
D22*
X58620660Y-109220000D02*
X58620660Y-107063540D01*
X58620660Y-107063540D02*
X58620660Y-104902000D01*
X58620660Y-104701340D02*
X60198000Y-103124000D01*
X60198000Y-103124000D02*
X72261456Y-103124000D01*
X58620660Y-109220000D02*
X58620660Y-104701340D01*
D23*
X64770000Y-71120000D02*
X62865001Y-73024999D01*
X62865001Y-73024999D02*
X62611001Y-73024999D01*
X64770000Y-71120000D02*
X66674999Y-73024999D01*
D22*
X67056000Y-68834000D02*
X69977000Y-65913000D01*
D23*
X64770000Y-71120000D02*
X67056000Y-68834000D01*
X64770000Y-71120000D02*
X61976000Y-68326000D01*
X64770000Y-88900000D02*
X62230000Y-91440000D01*
X64770000Y-88900000D02*
X66674999Y-90804999D01*
X64770000Y-88900000D02*
X66674999Y-86994999D01*
X64770000Y-88900000D02*
X62865001Y-86995001D01*
X55880000Y-99060000D02*
X52578000Y-102362000D01*
X55880000Y-99060000D02*
X52578000Y-95758000D01*
X55880000Y-99060000D02*
X59379999Y-95560001D01*
X59379999Y-95560001D02*
X59633999Y-95560001D01*
X58620660Y-109220000D02*
X58620660Y-111559340D01*
X54356000Y-109220000D02*
X61468000Y-109220000D01*
X58620660Y-109220000D02*
X54356000Y-109220000D01*
X58620660Y-101800660D02*
X55880000Y-99060000D01*
D22*
X90297000Y-76962000D02*
X90297000Y-77724000D01*
X90297000Y-75438000D02*
X90297000Y-76200000D01*
X111125000Y-110617000D02*
X111125000Y-111760000D01*
X109347000Y-109728000D02*
X110490000Y-109728000D01*
X108204000Y-106172000D02*
X108204000Y-109728000D01*
X110490000Y-106045000D02*
X109347000Y-106045000D01*
X111252000Y-104140000D02*
X111252000Y-105283000D01*
X69977000Y-71247000D02*
X69977000Y-72009000D01*
X69977000Y-69723000D02*
X69977000Y-70485000D01*
X64770000Y-71120000D02*
X67818000Y-71120000D01*
X67818000Y-71120000D02*
X69977000Y-68961000D01*
X105918000Y-63627000D02*
X105918000Y-64389000D01*
X105918000Y-62103000D02*
X105918000Y-62738000D01*
X105918000Y-62738000D02*
X105791000Y-62865000D01*
X105918000Y-60579000D02*
X105918000Y-61341000D01*
X69977000Y-63373000D02*
X69977000Y-62611000D01*
X69977000Y-64897000D02*
X69977000Y-64135000D01*
X69977000Y-65913000D02*
X69977000Y-65659000D01*
D23*
X97155000Y-104775000D02*
X95885000Y-104775000D01*
X95885000Y-106045000D02*
X97155000Y-106045000D01*
D24*
X97790000Y-88519000D02*
X95149997Y-91159003D01*
X95036204Y-91159003D02*
X94497389Y-91159003D01*
X95149997Y-91159003D02*
X95036204Y-91159003D01*
X98044000Y-88265000D02*
X97790000Y-88519000D01*
X100330000Y-85979000D02*
X97790000Y-88519000D01*
X105765630Y-85979000D02*
X100330000Y-85979000D01*
X94488000Y-92583000D02*
X93726000Y-91821000D01*
X93726000Y-91821000D02*
X93726000Y-85850986D01*
X93726000Y-85850986D02*
X93675199Y-85800185D01*
X93726000Y-74198815D02*
X93726000Y-73660000D01*
X93675199Y-85014815D02*
X93726000Y-84964014D01*
X93726000Y-84964014D02*
X93726000Y-74198815D01*
X94488000Y-99060000D02*
X94488000Y-92583000D01*
X93675199Y-85800185D02*
X93675199Y-85014815D01*
X94488000Y-94361000D02*
X94488000Y-99060000D01*
X107315000Y-92837000D02*
X101092000Y-99060000D01*
X93218000Y-74295000D02*
X92964000Y-74041000D01*
X92964000Y-74041000D02*
X92964000Y-72898000D01*
X93218000Y-91948000D02*
X93218000Y-74295000D01*
X93726000Y-92456000D02*
X93218000Y-91948000D01*
X93726000Y-96774000D02*
X93726000Y-92456000D01*
X72261456Y-95071338D02*
X72661456Y-95071338D01*
X92710000Y-74549000D02*
X92202000Y-74041000D01*
X92202000Y-74041000D02*
X92202000Y-72136000D01*
X92710000Y-92202000D02*
X92710000Y-74549000D01*
X92964000Y-92456000D02*
X92710000Y-92202000D01*
X92964000Y-94234000D02*
X92964000Y-92456000D01*
X99766513Y-85572591D02*
X95971551Y-89367553D01*
X100228409Y-85572591D02*
X99766513Y-85572591D01*
X95971551Y-89367553D02*
X95590552Y-89748552D01*
X100965000Y-84836000D02*
X100228409Y-85572591D01*
X92202000Y-74676000D02*
X91440000Y-73914000D01*
X91440000Y-73914000D02*
X91440000Y-71374000D01*
X92202000Y-101854000D02*
X92202000Y-74676000D01*
X108204000Y-93345000D02*
X101600000Y-99949000D01*
X108204000Y-93345000D02*
X108204000Y-90932000D01*
X94488000Y-74295000D02*
X94488000Y-72263000D01*
X94488000Y-72263000D02*
X87630000Y-65405000D01*
X94361000Y-74422000D02*
X94488000Y-74295000D01*
X94361000Y-85344000D02*
X94361000Y-74422000D01*
X98425000Y-82931000D02*
X109728000Y-82931000D01*
X94742000Y-86614000D02*
X98425000Y-82931000D01*
D10*
G36*
X121158000Y-116078000D02*
X63859583Y-116078000D01*
X63966891Y-115920950D01*
X64017900Y-115669060D01*
X64017900Y-114717312D01*
X114062293Y-114717312D01*
X114465762Y-115243924D01*
X115979730Y-115887307D01*
X117624666Y-115902346D01*
X119150145Y-115286750D01*
X119214238Y-115243924D01*
X119617707Y-114717312D01*
X116840000Y-111939605D01*
X114062293Y-114717312D01*
X64017900Y-114717312D01*
X64017900Y-112544666D01*
X112697654Y-112544666D01*
X113313250Y-114070145D01*
X113356076Y-114134238D01*
X113882688Y-114537707D01*
X116660395Y-111760000D01*
X117019605Y-111760000D01*
X119797312Y-114537707D01*
X120323924Y-114134238D01*
X120967307Y-112620270D01*
X120982346Y-110975334D01*
X120366750Y-109449855D01*
X120323924Y-109385762D01*
X119797312Y-108982293D01*
X117019605Y-111760000D01*
X116660395Y-111760000D01*
X113882688Y-108982293D01*
X113356076Y-109385762D01*
X112712693Y-110899730D01*
X112697654Y-112544666D01*
X64017900Y-112544666D01*
X64017900Y-112168940D01*
X63973622Y-111933623D01*
X63834550Y-111717499D01*
X63688197Y-111617500D01*
X66370200Y-111617500D01*
X66605517Y-111573222D01*
X66821641Y-111434150D01*
X66966631Y-111221950D01*
X67017640Y-110970060D01*
X67017640Y-110744000D01*
X70594424Y-110744000D01*
X70688433Y-111216614D01*
X70956147Y-111617277D01*
X71356810Y-111884991D01*
X71829424Y-111979000D01*
X72693488Y-111979000D01*
X73166102Y-111884991D01*
X73566765Y-111617277D01*
X73834479Y-111216614D01*
X73928488Y-110744000D01*
X88374424Y-110744000D01*
X88468433Y-111216614D01*
X88736147Y-111617277D01*
X89136810Y-111884991D01*
X89609424Y-111979000D01*
X90473488Y-111979000D01*
X90946102Y-111884991D01*
X91346765Y-111617277D01*
X91614479Y-111216614D01*
X91708488Y-110744000D01*
X91614479Y-110271386D01*
X91346765Y-109870723D01*
X90946102Y-109603009D01*
X90473488Y-109509000D01*
X89609424Y-109509000D01*
X89136810Y-109603009D01*
X88736147Y-109870723D01*
X88468433Y-110271386D01*
X88374424Y-110744000D01*
X73928488Y-110744000D01*
X73834479Y-110271386D01*
X73566765Y-109870723D01*
X73166102Y-109603009D01*
X72693488Y-109509000D01*
X71829424Y-109509000D01*
X71356810Y-109603009D01*
X70956147Y-109870723D01*
X70688433Y-110271386D01*
X70594424Y-110744000D01*
X67017640Y-110744000D01*
X67017640Y-108204000D01*
X70594424Y-108204000D01*
X70688433Y-108676614D01*
X70956147Y-109077277D01*
X71356810Y-109344991D01*
X71829424Y-109439000D01*
X72693488Y-109439000D01*
X73166102Y-109344991D01*
X73566765Y-109077277D01*
X73834479Y-108676614D01*
X73865311Y-108521609D01*
X88447994Y-108521609D01*
X88451864Y-108559281D01*
X88678376Y-108987474D01*
X89051509Y-109296390D01*
X89514456Y-109439000D01*
X89914456Y-109439000D01*
X89914456Y-108331000D01*
X90168456Y-108331000D01*
X90168456Y-109439000D01*
X90568456Y-109439000D01*
X91031403Y-109296390D01*
X91404536Y-108987474D01*
X91502286Y-108802688D01*
X114062293Y-108802688D01*
X116840000Y-111580395D01*
X119617707Y-108802688D01*
X119214238Y-108276076D01*
X117700270Y-107632693D01*
X116055334Y-107617654D01*
X114529855Y-108233250D01*
X114465762Y-108276076D01*
X114062293Y-108802688D01*
X91502286Y-108802688D01*
X91631048Y-108559281D01*
X91634918Y-108521609D01*
X91510187Y-108331000D01*
X90168456Y-108331000D01*
X89914456Y-108331000D01*
X88572725Y-108331000D01*
X88447994Y-108521609D01*
X73865311Y-108521609D01*
X73928488Y-108204000D01*
X73865312Y-107886391D01*
X88447994Y-107886391D01*
X88572725Y-108077000D01*
X89914456Y-108077000D01*
X89914456Y-106969000D01*
X90168456Y-106969000D01*
X90168456Y-108077000D01*
X91510187Y-108077000D01*
X91634918Y-107886391D01*
X91631048Y-107848719D01*
X91404536Y-107420526D01*
X91031403Y-107111610D01*
X90568456Y-106969000D01*
X90168456Y-106969000D01*
X89914456Y-106969000D01*
X89514456Y-106969000D01*
X89051509Y-107111610D01*
X88678376Y-107420526D01*
X88451864Y-107848719D01*
X88447994Y-107886391D01*
X73865312Y-107886391D01*
X73834479Y-107731386D01*
X73566765Y-107330723D01*
X73166102Y-107063009D01*
X72693488Y-106969000D01*
X71829424Y-106969000D01*
X71356810Y-107063009D01*
X70956147Y-107330723D01*
X70688433Y-107731386D01*
X70594424Y-108204000D01*
X67017640Y-108204000D01*
X67017640Y-107469940D01*
X66973362Y-107234623D01*
X66834290Y-107018499D01*
X66622090Y-106873509D01*
X66370200Y-106822500D01*
X62870080Y-106822500D01*
X62634763Y-106866778D01*
X62418639Y-107005850D01*
X62273649Y-107218050D01*
X62222640Y-107469940D01*
X62222640Y-110970060D01*
X62266918Y-111205377D01*
X62405990Y-111421501D01*
X62552343Y-111521500D01*
X60698760Y-111521500D01*
X60730418Y-111508387D01*
X60909047Y-111329759D01*
X61005720Y-111096370D01*
X61005720Y-109505750D01*
X60846970Y-109347000D01*
X59893200Y-109347000D01*
X59893200Y-109093000D01*
X60846970Y-109093000D01*
X61005720Y-108934250D01*
X61005720Y-107343630D01*
X60909047Y-107110241D01*
X60730418Y-106931613D01*
X60497029Y-106834940D01*
X58906410Y-106834940D01*
X58789250Y-106952100D01*
X58771858Y-106948641D01*
X58623200Y-106948641D01*
X58452913Y-106952943D01*
X58334910Y-106834940D01*
X56744291Y-106834940D01*
X56510902Y-106931613D01*
X56332273Y-107110241D01*
X56235600Y-107343630D01*
X56235600Y-108934250D01*
X56394350Y-109093000D01*
X57353200Y-109093000D01*
X57353200Y-109347000D01*
X56394350Y-109347000D01*
X56235600Y-109505750D01*
X56235600Y-111096370D01*
X56332273Y-111329759D01*
X56510902Y-111508387D01*
X56744291Y-111605060D01*
X58334910Y-111605060D01*
X58452913Y-111487057D01*
X58474542Y-111491359D01*
X58771858Y-111491359D01*
X58789250Y-111487900D01*
X58906410Y-111605060D01*
X59573977Y-111605060D01*
X59418899Y-111704850D01*
X59273909Y-111917050D01*
X59222900Y-112168940D01*
X59222900Y-115669060D01*
X59267178Y-115904377D01*
X59378901Y-116078000D01*
X51562000Y-116078000D01*
X51562000Y-105664000D01*
X70594424Y-105664000D01*
X70688433Y-106136614D01*
X70956147Y-106537277D01*
X71356810Y-106804991D01*
X71829424Y-106899000D01*
X72693488Y-106899000D01*
X73166102Y-106804991D01*
X73566765Y-106537277D01*
X73834479Y-106136614D01*
X73928488Y-105664000D01*
X88374424Y-105664000D01*
X88468433Y-106136614D01*
X88736147Y-106537277D01*
X89136810Y-106804991D01*
X89609424Y-106899000D01*
X90473488Y-106899000D01*
X90946102Y-106804991D01*
X91346765Y-106537277D01*
X91614479Y-106136614D01*
X91708488Y-105664000D01*
X91614479Y-105191386D01*
X91346765Y-104790723D01*
X90946102Y-104523009D01*
X90473488Y-104429000D01*
X89609424Y-104429000D01*
X89136810Y-104523009D01*
X88736147Y-104790723D01*
X88468433Y-105191386D01*
X88374424Y-105664000D01*
X73928488Y-105664000D01*
X73834479Y-105191386D01*
X73566765Y-104790723D01*
X73166102Y-104523009D01*
X72693488Y-104429000D01*
X71829424Y-104429000D01*
X71356810Y-104523009D01*
X70956147Y-104790723D01*
X70688433Y-105191386D01*
X70594424Y-105664000D01*
X51562000Y-105664000D01*
X51562000Y-103441609D01*
X70667994Y-103441609D01*
X70671864Y-103479281D01*
X70898376Y-103907474D01*
X71271509Y-104216390D01*
X71734456Y-104359000D01*
X72134456Y-104359000D01*
X72134456Y-103251000D01*
X72388456Y-103251000D01*
X72388456Y-104359000D01*
X72788456Y-104359000D01*
X73251403Y-104216390D01*
X73624536Y-103907474D01*
X73851048Y-103479281D01*
X73854918Y-103441609D01*
X73730187Y-103251000D01*
X72388456Y-103251000D01*
X72134456Y-103251000D01*
X70792725Y-103251000D01*
X70667994Y-103441609D01*
X51562000Y-103441609D01*
X51562000Y-101767312D01*
X54102293Y-101767312D01*
X54505762Y-102293924D01*
X56019730Y-102937307D01*
X57664666Y-102952346D01*
X58026350Y-102806391D01*
X70667994Y-102806391D01*
X70792725Y-102997000D01*
X72134456Y-102997000D01*
X72134456Y-101889000D01*
X72388456Y-101889000D01*
X72388456Y-102997000D01*
X73730187Y-102997000D01*
X73854918Y-102806391D01*
X73851048Y-102768719D01*
X73624536Y-102340526D01*
X73251403Y-102031610D01*
X72788456Y-101889000D01*
X72388456Y-101889000D01*
X72134456Y-101889000D01*
X71734456Y-101889000D01*
X71271509Y-102031610D01*
X70898376Y-102340526D01*
X70671864Y-102768719D01*
X70667994Y-102806391D01*
X58026350Y-102806391D01*
X59190145Y-102336750D01*
X59254238Y-102293924D01*
X59657707Y-101767312D01*
X56880000Y-98989605D01*
X54102293Y-101767312D01*
X51562000Y-101767312D01*
X51562000Y-99594666D01*
X52737654Y-99594666D01*
X53353250Y-101120145D01*
X53396076Y-101184238D01*
X53922688Y-101587707D01*
X56700395Y-98810000D01*
X57059605Y-98810000D01*
X59837312Y-101587707D01*
X60363924Y-101184238D01*
X60619003Y-100584000D01*
X70594424Y-100584000D01*
X70688433Y-101056614D01*
X70956147Y-101457277D01*
X71356810Y-101724991D01*
X71829424Y-101819000D01*
X72693488Y-101819000D01*
X73166102Y-101724991D01*
X73566765Y-101457277D01*
X73834479Y-101056614D01*
X73928488Y-100584000D01*
X73834479Y-100111386D01*
X73566765Y-99710723D01*
X73166102Y-99443009D01*
X72693488Y-99349000D01*
X71829424Y-99349000D01*
X71356810Y-99443009D01*
X70956147Y-99710723D01*
X70688433Y-100111386D01*
X70594424Y-100584000D01*
X60619003Y-100584000D01*
X61007307Y-99670270D01*
X61022175Y-98044000D01*
X70594424Y-98044000D01*
X70688433Y-98516614D01*
X70956147Y-98917277D01*
X71356810Y-99184991D01*
X71829424Y-99279000D01*
X72693488Y-99279000D01*
X73166102Y-99184991D01*
X73566765Y-98917277D01*
X73834479Y-98516614D01*
X73928488Y-98044000D01*
X73834479Y-97571386D01*
X73566765Y-97170723D01*
X73166102Y-96903009D01*
X72693488Y-96809000D01*
X71829424Y-96809000D01*
X71356810Y-96903009D01*
X70956147Y-97170723D01*
X70688433Y-97571386D01*
X70594424Y-98044000D01*
X61022175Y-98044000D01*
X61022346Y-98025334D01*
X60406750Y-96499855D01*
X60363924Y-96435762D01*
X59837312Y-96032293D01*
X57059605Y-98810000D01*
X56700395Y-98810000D01*
X53922688Y-96032293D01*
X53396076Y-96435762D01*
X52752693Y-97949730D01*
X52737654Y-99594666D01*
X51562000Y-99594666D01*
X51562000Y-95852688D01*
X54102293Y-95852688D01*
X56880000Y-98630395D01*
X59657707Y-95852688D01*
X59390557Y-95504000D01*
X70594424Y-95504000D01*
X70688433Y-95976614D01*
X70956147Y-96377277D01*
X71356810Y-96644991D01*
X71829424Y-96739000D01*
X72693488Y-96739000D01*
X73166102Y-96644991D01*
X73566765Y-96377277D01*
X73834479Y-95976614D01*
X73928488Y-95504000D01*
X73834479Y-95031386D01*
X73566765Y-94630723D01*
X73166102Y-94363009D01*
X72693488Y-94269000D01*
X71829424Y-94269000D01*
X71356810Y-94363009D01*
X70956147Y-94630723D01*
X70688433Y-95031386D01*
X70594424Y-95504000D01*
X59390557Y-95504000D01*
X59254238Y-95326076D01*
X57740270Y-94682693D01*
X56095334Y-94667654D01*
X54569855Y-95283250D01*
X54505762Y-95326076D01*
X54102293Y-95852688D01*
X51562000Y-95852688D01*
X51562000Y-92964000D01*
X70594424Y-92964000D01*
X70688433Y-93436614D01*
X70956147Y-93837277D01*
X71356810Y-94104991D01*
X71829424Y-94199000D01*
X72693488Y-94199000D01*
X73166102Y-94104991D01*
X73566765Y-93837277D01*
X73834479Y-93436614D01*
X73928488Y-92964000D01*
X73834479Y-92491386D01*
X73566765Y-92090723D01*
X73166102Y-91823009D01*
X72693488Y-91729000D01*
X71829424Y-91729000D01*
X71356810Y-91823009D01*
X70956147Y-92090723D01*
X70688433Y-92491386D01*
X70594424Y-92964000D01*
X51562000Y-92964000D01*
X51562000Y-90247777D01*
X53441828Y-90247777D01*
X53573520Y-90542657D01*
X54281036Y-90814261D01*
X55038632Y-90794436D01*
X55251073Y-90706440D01*
X63143165Y-90706440D01*
X63352353Y-91067289D01*
X64289650Y-91444824D01*
X65300077Y-91434933D01*
X66187647Y-91067289D01*
X66396835Y-90706440D01*
X64770000Y-89079605D01*
X63143165Y-90706440D01*
X55251073Y-90706440D01*
X55646480Y-90542657D01*
X55778172Y-90247777D01*
X54610000Y-89079605D01*
X53441828Y-90247777D01*
X51562000Y-90247777D01*
X51562000Y-88571036D01*
X52695739Y-88571036D01*
X52715564Y-89328632D01*
X52967343Y-89936480D01*
X53262223Y-90068172D01*
X54430395Y-88900000D01*
X54789605Y-88900000D01*
X55957777Y-90068172D01*
X56252657Y-89936480D01*
X56524261Y-89228964D01*
X56504436Y-88471368D01*
X56483014Y-88419650D01*
X62225176Y-88419650D01*
X62235067Y-89430077D01*
X62602711Y-90317647D01*
X62963560Y-90526835D01*
X64590395Y-88900000D01*
X64949605Y-88900000D01*
X66576440Y-90526835D01*
X66753830Y-90424000D01*
X70594424Y-90424000D01*
X70688433Y-90896614D01*
X70956147Y-91297277D01*
X71356810Y-91564991D01*
X71829424Y-91659000D01*
X72693488Y-91659000D01*
X73166102Y-91564991D01*
X73566765Y-91297277D01*
X73834479Y-90896614D01*
X73928488Y-90424000D01*
X73834479Y-89951386D01*
X73566765Y-89550723D01*
X73166102Y-89283009D01*
X72693488Y-89189000D01*
X71829424Y-89189000D01*
X71356810Y-89283009D01*
X70956147Y-89550723D01*
X70688433Y-89951386D01*
X70594424Y-90424000D01*
X66753830Y-90424000D01*
X66937289Y-90317647D01*
X67314824Y-89380350D01*
X67304933Y-88369923D01*
X67103657Y-87884000D01*
X70594424Y-87884000D01*
X70688433Y-88356614D01*
X70956147Y-88757277D01*
X71356810Y-89024991D01*
X71829424Y-89119000D01*
X72693488Y-89119000D01*
X73166102Y-89024991D01*
X73566765Y-88757277D01*
X73834479Y-88356614D01*
X73928488Y-87884000D01*
X73834479Y-87411386D01*
X73566765Y-87010723D01*
X73166102Y-86743009D01*
X72693488Y-86649000D01*
X71829424Y-86649000D01*
X71356810Y-86743009D01*
X70956147Y-87010723D01*
X70688433Y-87411386D01*
X70594424Y-87884000D01*
X67103657Y-87884000D01*
X66937289Y-87482353D01*
X66576440Y-87273165D01*
X64949605Y-88900000D01*
X64590395Y-88900000D01*
X62963560Y-87273165D01*
X62602711Y-87482353D01*
X62225176Y-88419650D01*
X56483014Y-88419650D01*
X56252657Y-87863520D01*
X55957777Y-87731828D01*
X54789605Y-88900000D01*
X54430395Y-88900000D01*
X53262223Y-87731828D01*
X52967343Y-87863520D01*
X52695739Y-88571036D01*
X51562000Y-88571036D01*
X51562000Y-87552223D01*
X53441828Y-87552223D01*
X54610000Y-88720395D01*
X55778172Y-87552223D01*
X55646480Y-87257343D01*
X55219833Y-87093560D01*
X63143165Y-87093560D01*
X64770000Y-88720395D01*
X66396835Y-87093560D01*
X66187647Y-86732711D01*
X65250350Y-86355176D01*
X64239923Y-86365067D01*
X63352353Y-86732711D01*
X63143165Y-87093560D01*
X55219833Y-87093560D01*
X54938964Y-86985739D01*
X54181368Y-87005564D01*
X53573520Y-87257343D01*
X53441828Y-87552223D01*
X51562000Y-87552223D01*
X51562000Y-82804000D01*
X70594424Y-82804000D01*
X70688433Y-83276614D01*
X70956147Y-83677277D01*
X71356810Y-83944991D01*
X71829424Y-84039000D01*
X72693488Y-84039000D01*
X73166102Y-83944991D01*
X73533000Y-83699838D01*
X73533000Y-84448162D01*
X73166102Y-84203009D01*
X72693488Y-84109000D01*
X71829424Y-84109000D01*
X71356810Y-84203009D01*
X70956147Y-84470723D01*
X70688433Y-84871386D01*
X70594424Y-85344000D01*
X70688433Y-85816614D01*
X70956147Y-86217277D01*
X71356810Y-86484991D01*
X71829424Y-86579000D01*
X72693488Y-86579000D01*
X73166102Y-86484991D01*
X73533000Y-86239838D01*
X73533000Y-86360000D01*
X73541685Y-86406159D01*
X73568965Y-86448553D01*
X73610590Y-86476994D01*
X73660000Y-86487000D01*
X88900000Y-86487000D01*
X88946159Y-86478315D01*
X88988553Y-86451035D01*
X89016994Y-86409410D01*
X89017793Y-86405466D01*
X89136810Y-86484991D01*
X89609424Y-86579000D01*
X90473488Y-86579000D01*
X90946102Y-86484991D01*
X91346765Y-86217277D01*
X91465400Y-86039727D01*
X91465400Y-87188273D01*
X91346765Y-87010723D01*
X90946102Y-86743009D01*
X90473488Y-86649000D01*
X89609424Y-86649000D01*
X89136810Y-86743009D01*
X88736147Y-87010723D01*
X88468433Y-87411386D01*
X88374424Y-87884000D01*
X88468433Y-88356614D01*
X88736147Y-88757277D01*
X89136810Y-89024991D01*
X89609424Y-89119000D01*
X90473488Y-89119000D01*
X90946102Y-89024991D01*
X91346765Y-88757277D01*
X91465400Y-88579727D01*
X91465400Y-89728273D01*
X91346765Y-89550723D01*
X90946102Y-89283009D01*
X90473488Y-89189000D01*
X89609424Y-89189000D01*
X89136810Y-89283009D01*
X88736147Y-89550723D01*
X88468433Y-89951386D01*
X88374424Y-90424000D01*
X88468433Y-90896614D01*
X88736147Y-91297277D01*
X89136810Y-91564991D01*
X89609424Y-91659000D01*
X90473488Y-91659000D01*
X90946102Y-91564991D01*
X91346765Y-91297277D01*
X91465400Y-91119727D01*
X91465400Y-92268273D01*
X91346765Y-92090723D01*
X90946102Y-91823009D01*
X90473488Y-91729000D01*
X89609424Y-91729000D01*
X89136810Y-91823009D01*
X88736147Y-92090723D01*
X88468433Y-92491386D01*
X88374424Y-92964000D01*
X88468433Y-93436614D01*
X88736147Y-93837277D01*
X89136810Y-94104991D01*
X89609424Y-94199000D01*
X90473488Y-94199000D01*
X90946102Y-94104991D01*
X91346765Y-93837277D01*
X91465400Y-93659727D01*
X91465400Y-94808273D01*
X91346765Y-94630723D01*
X90946102Y-94363009D01*
X90473488Y-94269000D01*
X89609424Y-94269000D01*
X89136810Y-94363009D01*
X88736147Y-94630723D01*
X88468433Y-95031386D01*
X88374424Y-95504000D01*
X88468433Y-95976614D01*
X88736147Y-96377277D01*
X89136810Y-96644991D01*
X89609424Y-96739000D01*
X90473488Y-96739000D01*
X90946102Y-96644991D01*
X91346765Y-96377277D01*
X91465400Y-96199727D01*
X91465400Y-97348273D01*
X91346765Y-97170723D01*
X90946102Y-96903009D01*
X90473488Y-96809000D01*
X89609424Y-96809000D01*
X89136810Y-96903009D01*
X88736147Y-97170723D01*
X88468433Y-97571386D01*
X88374424Y-98044000D01*
X88468433Y-98516614D01*
X88736147Y-98917277D01*
X89136810Y-99184991D01*
X89609424Y-99279000D01*
X90473488Y-99279000D01*
X90946102Y-99184991D01*
X91346765Y-98917277D01*
X91465400Y-98739727D01*
X91465400Y-99888273D01*
X91346765Y-99710723D01*
X90946102Y-99443009D01*
X90473488Y-99349000D01*
X89609424Y-99349000D01*
X89136810Y-99443009D01*
X88736147Y-99710723D01*
X88468433Y-100111386D01*
X88374424Y-100584000D01*
X88468433Y-101056614D01*
X88736147Y-101457277D01*
X89136810Y-101724991D01*
X89609424Y-101819000D01*
X90473488Y-101819000D01*
X90946102Y-101724991D01*
X91235851Y-101531387D01*
X91186176Y-101651018D01*
X91185824Y-102055208D01*
X91236039Y-102176739D01*
X90946102Y-101983009D01*
X90473488Y-101889000D01*
X89609424Y-101889000D01*
X89136810Y-101983009D01*
X88736147Y-102250723D01*
X88468433Y-102651386D01*
X88374424Y-103124000D01*
X88468433Y-103596614D01*
X88736147Y-103997277D01*
X89136810Y-104264991D01*
X89609424Y-104359000D01*
X90473488Y-104359000D01*
X90946102Y-104264991D01*
X91346765Y-103997277D01*
X91614479Y-103596614D01*
X91708488Y-103124000D01*
X91627220Y-102715439D01*
X91999018Y-102869824D01*
X92403208Y-102870176D01*
X92776766Y-102715825D01*
X93062821Y-102430269D01*
X93217824Y-102056982D01*
X93218176Y-101652792D01*
X93063825Y-101279234D01*
X92938600Y-101153790D01*
X92938600Y-97423321D01*
X93149731Y-97634821D01*
X93523018Y-97789824D01*
X93751400Y-97790023D01*
X93751400Y-98359727D01*
X93627179Y-98483731D01*
X93472176Y-98857018D01*
X93471824Y-99261208D01*
X93626175Y-99634766D01*
X93911731Y-99920821D01*
X94285018Y-100075824D01*
X94689208Y-100076176D01*
X95062766Y-99921825D01*
X95348821Y-99636269D01*
X95503824Y-99262982D01*
X95503825Y-99261208D01*
X100075824Y-99261208D01*
X100230175Y-99634766D01*
X100515731Y-99920821D01*
X100583999Y-99949169D01*
X100583824Y-100150208D01*
X100738175Y-100523766D01*
X101023731Y-100809821D01*
X101397018Y-100964824D01*
X101801208Y-100965176D01*
X102174766Y-100810825D01*
X102460821Y-100525269D01*
X102615824Y-100151982D01*
X102615978Y-99974732D01*
X108724855Y-93865855D01*
X108884530Y-93626885D01*
X108940600Y-93345000D01*
X108940600Y-91632273D01*
X109064821Y-91508269D01*
X109219824Y-91134982D01*
X109220176Y-90730792D01*
X109065825Y-90357234D01*
X108780269Y-90071179D01*
X108406982Y-89916176D01*
X108002792Y-89915824D01*
X107629234Y-90070175D01*
X107343179Y-90355731D01*
X107188176Y-90729018D01*
X107187824Y-91133208D01*
X107342175Y-91506766D01*
X107467400Y-91632210D01*
X107467400Y-91821132D01*
X107113792Y-91820824D01*
X106740234Y-91975175D01*
X106454179Y-92260731D01*
X106299176Y-92634018D01*
X106299022Y-92811268D01*
X101066313Y-98043977D01*
X100890792Y-98043824D01*
X100517234Y-98198175D01*
X100231179Y-98483731D01*
X100076176Y-98857018D01*
X100075824Y-99261208D01*
X95503825Y-99261208D01*
X95504176Y-98858792D01*
X95349825Y-98485234D01*
X95224600Y-98359790D01*
X95224600Y-92583000D01*
X95168530Y-92301115D01*
X95008855Y-92062145D01*
X94998126Y-92051416D01*
X95072155Y-92020828D01*
X95209444Y-91883778D01*
X95431882Y-91839533D01*
X95670852Y-91679858D01*
X100635110Y-86715600D01*
X105065357Y-86715600D01*
X105189361Y-86839821D01*
X105562648Y-86994824D01*
X105966838Y-86995176D01*
X106340396Y-86840825D01*
X106626451Y-86555269D01*
X106781454Y-86181982D01*
X106781806Y-85777792D01*
X106627455Y-85404234D01*
X106341899Y-85118179D01*
X105968612Y-84963176D01*
X105564422Y-84962824D01*
X105190864Y-85117175D01*
X105065420Y-85242400D01*
X101896357Y-85242400D01*
X101980824Y-85038982D01*
X101981176Y-84634792D01*
X101826825Y-84261234D01*
X101541269Y-83975179D01*
X101167982Y-83820176D01*
X100763792Y-83819824D01*
X100390234Y-83974175D01*
X100104179Y-84259731D01*
X99949176Y-84633018D01*
X99949022Y-84810268D01*
X99923299Y-84835991D01*
X99766513Y-84835991D01*
X99484628Y-84892061D01*
X99300914Y-85014815D01*
X99245658Y-85051736D01*
X95564865Y-88732529D01*
X95389344Y-88732376D01*
X95015786Y-88886727D01*
X94729731Y-89172283D01*
X94574728Y-89545570D01*
X94574376Y-89949760D01*
X94654279Y-90143139D01*
X94462600Y-90142972D01*
X94462600Y-87598092D01*
X94539018Y-87629824D01*
X94943208Y-87630176D01*
X95316766Y-87475825D01*
X95602821Y-87190269D01*
X95757824Y-86816982D01*
X95757978Y-86639732D01*
X98730110Y-83667600D01*
X109027727Y-83667600D01*
X109151731Y-83791821D01*
X109525018Y-83946824D01*
X109929208Y-83947176D01*
X110236997Y-83820000D01*
X113951399Y-83820000D01*
X114057739Y-84354609D01*
X114360571Y-84807828D01*
X114782870Y-85090000D01*
X114360571Y-85372172D01*
X114057739Y-85825391D01*
X113951399Y-86360000D01*
X114057739Y-86894609D01*
X114360571Y-87347828D01*
X114782870Y-87630000D01*
X114360571Y-87912172D01*
X114057739Y-88365391D01*
X113951399Y-88900000D01*
X114057739Y-89434609D01*
X114360571Y-89887828D01*
X114800672Y-90181895D01*
X114702208Y-90213229D01*
X114284299Y-90565800D01*
X114033124Y-91051460D01*
X114025280Y-91096930D01*
X114147780Y-91313000D01*
X115443000Y-91313000D01*
X115443000Y-91293000D01*
X115697000Y-91293000D01*
X115697000Y-91313000D01*
X115717000Y-91313000D01*
X115717000Y-91567000D01*
X115697000Y-91567000D01*
X115697000Y-91587000D01*
X115443000Y-91587000D01*
X115443000Y-91567000D01*
X114147780Y-91567000D01*
X114025280Y-91783070D01*
X114033124Y-91828540D01*
X114284299Y-92314200D01*
X114702208Y-92666771D01*
X114800672Y-92698105D01*
X114360571Y-92992172D01*
X114057739Y-93445391D01*
X113951399Y-93980000D01*
X114057739Y-94514609D01*
X114360571Y-94967828D01*
X114800672Y-95261895D01*
X114702208Y-95293229D01*
X114284299Y-95645800D01*
X114033124Y-96131460D01*
X114025280Y-96176930D01*
X114147780Y-96393000D01*
X115443000Y-96393000D01*
X115443000Y-96373000D01*
X115697000Y-96373000D01*
X115697000Y-96393000D01*
X115717000Y-96393000D01*
X115717000Y-96647000D01*
X115697000Y-96647000D01*
X115697000Y-96667000D01*
X115443000Y-96667000D01*
X115443000Y-96647000D01*
X114147780Y-96647000D01*
X114025280Y-96863070D01*
X114033124Y-96908540D01*
X114284299Y-97394200D01*
X114702208Y-97746771D01*
X114800672Y-97778105D01*
X114360571Y-98072172D01*
X114057739Y-98525391D01*
X113951399Y-99060000D01*
X114057739Y-99594609D01*
X114360571Y-100047828D01*
X114813790Y-100350660D01*
X115348399Y-100457000D01*
X115791601Y-100457000D01*
X116326210Y-100350660D01*
X116617749Y-100155860D01*
X116693410Y-100273441D01*
X116905610Y-100418431D01*
X117157500Y-100469440D01*
X119062500Y-100469440D01*
X119297817Y-100425162D01*
X119513941Y-100286090D01*
X119658931Y-100073890D01*
X119709940Y-99822000D01*
X119709940Y-98298000D01*
X119665662Y-98062683D01*
X119526590Y-97846559D01*
X119314390Y-97701569D01*
X119095742Y-97657292D01*
X119319429Y-97507828D01*
X119622261Y-97054609D01*
X119728601Y-96520000D01*
X119622261Y-95985391D01*
X119319429Y-95532172D01*
X118897130Y-95250000D01*
X119319429Y-94967828D01*
X119622261Y-94514609D01*
X119728601Y-93980000D01*
X119622261Y-93445391D01*
X119319429Y-92992172D01*
X118897130Y-92710000D01*
X119319429Y-92427828D01*
X119622261Y-91974609D01*
X119728601Y-91440000D01*
X119622261Y-90905391D01*
X119319429Y-90452172D01*
X118897130Y-90170000D01*
X119319429Y-89887828D01*
X119622261Y-89434609D01*
X119728601Y-88900000D01*
X119622261Y-88365391D01*
X119319429Y-87912172D01*
X118897130Y-87630000D01*
X119319429Y-87347828D01*
X119622261Y-86894609D01*
X119728601Y-86360000D01*
X119622261Y-85825391D01*
X119319429Y-85372172D01*
X118897130Y-85090000D01*
X119319429Y-84807828D01*
X119622261Y-84354609D01*
X119728601Y-83820000D01*
X119622261Y-83285391D01*
X119319429Y-82832172D01*
X118897130Y-82550000D01*
X119319429Y-82267828D01*
X119622261Y-81814609D01*
X119728601Y-81280000D01*
X119622261Y-80745391D01*
X119319429Y-80292172D01*
X118866210Y-79989340D01*
X118331601Y-79883000D01*
X117888399Y-79883000D01*
X117353790Y-79989340D01*
X116900571Y-80292172D01*
X116835842Y-80389046D01*
X116437792Y-80053229D01*
X115916771Y-79887423D01*
X115697000Y-80038872D01*
X115697000Y-81153000D01*
X115717000Y-81153000D01*
X115717000Y-81407000D01*
X115697000Y-81407000D01*
X115697000Y-81427000D01*
X115443000Y-81427000D01*
X115443000Y-81407000D01*
X114147780Y-81407000D01*
X114025280Y-81623070D01*
X114033124Y-81668540D01*
X114284299Y-82154200D01*
X114702208Y-82506771D01*
X114800672Y-82538105D01*
X114360571Y-82832172D01*
X114057739Y-83285391D01*
X113951399Y-83820000D01*
X110236997Y-83820000D01*
X110302766Y-83792825D01*
X110588821Y-83507269D01*
X110743824Y-83133982D01*
X110744176Y-82729792D01*
X110589825Y-82356234D01*
X110304269Y-82070179D01*
X109930982Y-81915176D01*
X109526792Y-81914824D01*
X109153234Y-82069175D01*
X109027790Y-82194400D01*
X98425005Y-82194400D01*
X98425000Y-82194399D01*
X98189883Y-82241167D01*
X98143115Y-82250470D01*
X97904145Y-82410145D01*
X95317039Y-84997251D01*
X95222825Y-84769234D01*
X95097600Y-84643790D01*
X95097600Y-80936930D01*
X114025280Y-80936930D01*
X114147780Y-81153000D01*
X115443000Y-81153000D01*
X115443000Y-80038872D01*
X115223229Y-79887423D01*
X114702208Y-80053229D01*
X114284299Y-80405800D01*
X114033124Y-80891460D01*
X114025280Y-80936930D01*
X95097600Y-80936930D01*
X95097600Y-74683039D01*
X95168530Y-74576885D01*
X95224600Y-74295000D01*
X95224600Y-74021913D01*
X96304816Y-74021913D01*
X96498046Y-74574320D01*
X96887964Y-75010732D01*
X97415209Y-75264709D01*
X97430974Y-75267358D01*
X97663000Y-75146217D01*
X97663000Y-73787000D01*
X96449076Y-73787000D01*
X96304816Y-74021913D01*
X95224600Y-74021913D01*
X95224600Y-73298087D01*
X96304816Y-73298087D01*
X96449076Y-73533000D01*
X97663000Y-73533000D01*
X97663000Y-72173783D01*
X97917000Y-72173783D01*
X97917000Y-73533000D01*
X97937000Y-73533000D01*
X97937000Y-73787000D01*
X97917000Y-73787000D01*
X97917000Y-75146217D01*
X98149026Y-75267358D01*
X98164791Y-75264709D01*
X98692036Y-75010732D01*
X99063539Y-74594931D01*
X99270330Y-74904415D01*
X99756511Y-75229271D01*
X100330000Y-75343345D01*
X100903489Y-75229271D01*
X101389670Y-74904415D01*
X101600000Y-74589634D01*
X101810330Y-74904415D01*
X102296511Y-75229271D01*
X102870000Y-75343345D01*
X103443489Y-75229271D01*
X103929670Y-74904415D01*
X104140000Y-74589634D01*
X104350330Y-74904415D01*
X104836511Y-75229271D01*
X105410000Y-75343345D01*
X105983489Y-75229271D01*
X106469670Y-74904415D01*
X106680000Y-74589634D01*
X106890330Y-74904415D01*
X107376511Y-75229271D01*
X107950000Y-75343345D01*
X108523489Y-75229271D01*
X109009670Y-74904415D01*
X109019243Y-74890087D01*
X109023238Y-74911317D01*
X109162310Y-75127441D01*
X109374510Y-75272431D01*
X109626400Y-75323440D01*
X111353600Y-75323440D01*
X111588917Y-75279162D01*
X111805041Y-75140090D01*
X111950031Y-74927890D01*
X112001040Y-74676000D01*
X112001040Y-72644000D01*
X111956762Y-72408683D01*
X111817690Y-72192559D01*
X111605490Y-72047569D01*
X111353600Y-71996560D01*
X109626400Y-71996560D01*
X109391083Y-72040838D01*
X109174959Y-72179910D01*
X109029969Y-72392110D01*
X109021600Y-72433439D01*
X109009670Y-72415585D01*
X108523489Y-72090729D01*
X107950000Y-71976655D01*
X107376511Y-72090729D01*
X106890330Y-72415585D01*
X106680000Y-72730366D01*
X106469670Y-72415585D01*
X105983489Y-72090729D01*
X105410000Y-71976655D01*
X104836511Y-72090729D01*
X104350330Y-72415585D01*
X104140000Y-72730366D01*
X103929670Y-72415585D01*
X103443489Y-72090729D01*
X102870000Y-71976655D01*
X102296511Y-72090729D01*
X101810330Y-72415585D01*
X101600000Y-72730366D01*
X101389670Y-72415585D01*
X100903489Y-72090729D01*
X100330000Y-71976655D01*
X99756511Y-72090729D01*
X99270330Y-72415585D01*
X99063539Y-72725069D01*
X98692036Y-72309268D01*
X98164791Y-72055291D01*
X98149026Y-72052642D01*
X97917000Y-72173783D01*
X97663000Y-72173783D01*
X97430974Y-72052642D01*
X97415209Y-72055291D01*
X96887964Y-72309268D01*
X96498046Y-72745680D01*
X96304816Y-73298087D01*
X95224600Y-73298087D01*
X95224600Y-72263000D01*
X95168530Y-71981115D01*
X95008855Y-71742145D01*
X93478623Y-70211913D01*
X96304816Y-70211913D01*
X96498046Y-70764320D01*
X96887964Y-71200732D01*
X97415209Y-71454709D01*
X97430974Y-71457358D01*
X97663000Y-71336217D01*
X97663000Y-69977000D01*
X96449076Y-69977000D01*
X96304816Y-70211913D01*
X93478623Y-70211913D01*
X92754797Y-69488087D01*
X96304816Y-69488087D01*
X96449076Y-69723000D01*
X97663000Y-69723000D01*
X97663000Y-68363783D01*
X97917000Y-68363783D01*
X97917000Y-69723000D01*
X97937000Y-69723000D01*
X97937000Y-69977000D01*
X97917000Y-69977000D01*
X97917000Y-71336217D01*
X98149026Y-71457358D01*
X98164791Y-71454709D01*
X98692036Y-71200732D01*
X99063539Y-70784931D01*
X99270330Y-71094415D01*
X99756511Y-71419271D01*
X100330000Y-71533345D01*
X100903489Y-71419271D01*
X101389670Y-71094415D01*
X101600000Y-70779634D01*
X101810330Y-71094415D01*
X102296511Y-71419271D01*
X102870000Y-71533345D01*
X103443489Y-71419271D01*
X103929670Y-71094415D01*
X104140000Y-70779634D01*
X104350330Y-71094415D01*
X104836511Y-71419271D01*
X105410000Y-71533345D01*
X105983489Y-71419271D01*
X106469670Y-71094415D01*
X106680000Y-70779634D01*
X106890330Y-71094415D01*
X107376511Y-71419271D01*
X107950000Y-71533345D01*
X108523489Y-71419271D01*
X109009670Y-71094415D01*
X109019243Y-71080087D01*
X109023238Y-71101317D01*
X109162310Y-71317441D01*
X109374510Y-71462431D01*
X109626400Y-71513440D01*
X111353600Y-71513440D01*
X111588917Y-71469162D01*
X111805041Y-71330090D01*
X111950031Y-71117890D01*
X112001040Y-70866000D01*
X112001040Y-68834000D01*
X111956762Y-68598683D01*
X111817690Y-68382559D01*
X111605490Y-68237569D01*
X111353600Y-68186560D01*
X109626400Y-68186560D01*
X109391083Y-68230838D01*
X109174959Y-68369910D01*
X109029969Y-68582110D01*
X109021600Y-68623439D01*
X109009670Y-68605585D01*
X108523489Y-68280729D01*
X107950000Y-68166655D01*
X107376511Y-68280729D01*
X106890330Y-68605585D01*
X106680000Y-68920366D01*
X106469670Y-68605585D01*
X105983489Y-68280729D01*
X105410000Y-68166655D01*
X104836511Y-68280729D01*
X104350330Y-68605585D01*
X104140000Y-68920366D01*
X103929670Y-68605585D01*
X103443489Y-68280729D01*
X102870000Y-68166655D01*
X102296511Y-68280729D01*
X101810330Y-68605585D01*
X101600000Y-68920366D01*
X101389670Y-68605585D01*
X100903489Y-68280729D01*
X100330000Y-68166655D01*
X99756511Y-68280729D01*
X99270330Y-68605585D01*
X99063539Y-68915069D01*
X98692036Y-68499268D01*
X98164791Y-68245291D01*
X98149026Y-68242642D01*
X97917000Y-68363783D01*
X97663000Y-68363783D01*
X97430974Y-68242642D01*
X97415209Y-68245291D01*
X96887964Y-68499268D01*
X96498046Y-68935680D01*
X96304816Y-69488087D01*
X92754797Y-69488087D01*
X88646023Y-65379313D01*
X88646176Y-65203792D01*
X88639367Y-65187312D01*
X114062293Y-65187312D01*
X114465762Y-65713924D01*
X115979730Y-66357307D01*
X117624666Y-66372346D01*
X119150145Y-65756750D01*
X119214238Y-65713924D01*
X119617707Y-65187312D01*
X116840000Y-62409605D01*
X114062293Y-65187312D01*
X88639367Y-65187312D01*
X88491825Y-64830234D01*
X88206269Y-64544179D01*
X87832982Y-64389176D01*
X87428792Y-64388824D01*
X87055234Y-64543175D01*
X86769179Y-64828731D01*
X86614176Y-65202018D01*
X86613824Y-65606208D01*
X86768175Y-65979766D01*
X87053731Y-66265821D01*
X87427018Y-66420824D01*
X87604268Y-66420978D01*
X91541378Y-70358088D01*
X91238792Y-70357824D01*
X90865234Y-70512175D01*
X90579179Y-70797731D01*
X90424176Y-71171018D01*
X90423824Y-71575208D01*
X90578175Y-71948766D01*
X90703400Y-72074210D01*
X90703400Y-73914000D01*
X90759470Y-74195885D01*
X90919145Y-74434855D01*
X91465400Y-74981110D01*
X91465400Y-82108273D01*
X91346765Y-81930723D01*
X90946102Y-81663009D01*
X90473488Y-81569000D01*
X89609424Y-81569000D01*
X89136810Y-81663009D01*
X89027000Y-81736382D01*
X89027000Y-74930000D01*
X89018315Y-74883841D01*
X88991035Y-74841447D01*
X88949410Y-74813006D01*
X88900000Y-74803000D01*
X73660000Y-74803000D01*
X73613841Y-74811685D01*
X73571447Y-74838965D01*
X73543006Y-74880590D01*
X73533000Y-74930000D01*
X73533000Y-81908162D01*
X73166102Y-81663009D01*
X72693488Y-81569000D01*
X71829424Y-81569000D01*
X71356810Y-81663009D01*
X70956147Y-81930723D01*
X70688433Y-82331386D01*
X70594424Y-82804000D01*
X51562000Y-82804000D01*
X51562000Y-80387265D01*
X52704670Y-80387265D01*
X52994078Y-81087686D01*
X53529495Y-81624039D01*
X54229410Y-81914668D01*
X54987265Y-81915330D01*
X55687686Y-81625922D01*
X56224039Y-81090505D01*
X56463830Y-80513021D01*
X62229560Y-80513021D01*
X62615437Y-81446915D01*
X63329327Y-82162052D01*
X64262546Y-82549559D01*
X65273021Y-82550440D01*
X66206915Y-82164563D01*
X66922052Y-81450673D01*
X67309559Y-80517454D01*
X67310440Y-79506979D01*
X66924563Y-78573085D01*
X66210673Y-77857948D01*
X65277454Y-77470441D01*
X64266979Y-77469560D01*
X63333085Y-77855437D01*
X62617948Y-78569327D01*
X62230441Y-79502546D01*
X62229560Y-80513021D01*
X56463830Y-80513021D01*
X56514668Y-80390590D01*
X56515330Y-79632735D01*
X56225922Y-78932314D01*
X55690505Y-78395961D01*
X54990590Y-78105332D01*
X54232735Y-78104670D01*
X53532314Y-78394078D01*
X52995961Y-78929495D01*
X52705332Y-79629410D01*
X52704670Y-80387265D01*
X51562000Y-80387265D01*
X51562000Y-72467777D01*
X53441828Y-72467777D01*
X53573520Y-72762657D01*
X54281036Y-73034261D01*
X55038632Y-73014436D01*
X55251073Y-72926440D01*
X63143165Y-72926440D01*
X63352353Y-73287289D01*
X64289650Y-73664824D01*
X65300077Y-73654933D01*
X66187647Y-73287289D01*
X66396835Y-72926440D01*
X64770000Y-71299605D01*
X63143165Y-72926440D01*
X55251073Y-72926440D01*
X55646480Y-72762657D01*
X55778172Y-72467777D01*
X54610000Y-71299605D01*
X53441828Y-72467777D01*
X51562000Y-72467777D01*
X51562000Y-70791036D01*
X52695739Y-70791036D01*
X52715564Y-71548632D01*
X52967343Y-72156480D01*
X53262223Y-72288172D01*
X54430395Y-71120000D01*
X54789605Y-71120000D01*
X55957777Y-72288172D01*
X56252657Y-72156480D01*
X56524261Y-71448964D01*
X56504436Y-70691368D01*
X56483014Y-70639650D01*
X62225176Y-70639650D01*
X62235067Y-71650077D01*
X62602711Y-72537647D01*
X62963560Y-72746835D01*
X64590395Y-71120000D01*
X64949605Y-71120000D01*
X66576440Y-72746835D01*
X66937289Y-72537647D01*
X67314824Y-71600350D01*
X67304933Y-70589923D01*
X66937289Y-69702353D01*
X66576440Y-69493165D01*
X64949605Y-71120000D01*
X64590395Y-71120000D01*
X62963560Y-69493165D01*
X62602711Y-69702353D01*
X62225176Y-70639650D01*
X56483014Y-70639650D01*
X56252657Y-70083520D01*
X55957777Y-69951828D01*
X54789605Y-71120000D01*
X54430395Y-71120000D01*
X53262223Y-69951828D01*
X52967343Y-70083520D01*
X52695739Y-70791036D01*
X51562000Y-70791036D01*
X51562000Y-69772223D01*
X53441828Y-69772223D01*
X54610000Y-70940395D01*
X55778172Y-69772223D01*
X55646480Y-69477343D01*
X55219833Y-69313560D01*
X63143165Y-69313560D01*
X64770000Y-70940395D01*
X66396835Y-69313560D01*
X66187647Y-68952711D01*
X65250350Y-68575176D01*
X64239923Y-68585067D01*
X63352353Y-68952711D01*
X63143165Y-69313560D01*
X55219833Y-69313560D01*
X54938964Y-69205739D01*
X54181368Y-69225564D01*
X53573520Y-69477343D01*
X53441828Y-69772223D01*
X51562000Y-69772223D01*
X51562000Y-62607265D01*
X52704670Y-62607265D01*
X52994078Y-63307686D01*
X53529495Y-63844039D01*
X54229410Y-64134668D01*
X54987265Y-64135330D01*
X55687686Y-63845922D01*
X56224039Y-63310505D01*
X56463830Y-62733021D01*
X62229560Y-62733021D01*
X62615437Y-63666915D01*
X63329327Y-64382052D01*
X64262546Y-64769559D01*
X65273021Y-64770440D01*
X66206915Y-64384563D01*
X66922052Y-63670673D01*
X67194450Y-63014666D01*
X112697654Y-63014666D01*
X113313250Y-64540145D01*
X113356076Y-64604238D01*
X113882688Y-65007707D01*
X116660395Y-62230000D01*
X117019605Y-62230000D01*
X119797312Y-65007707D01*
X120323924Y-64604238D01*
X120967307Y-63090270D01*
X120982346Y-61445334D01*
X120366750Y-59919855D01*
X120323924Y-59855762D01*
X119797312Y-59452293D01*
X117019605Y-62230000D01*
X116660395Y-62230000D01*
X113882688Y-59452293D01*
X113356076Y-59855762D01*
X112712693Y-61369730D01*
X112697654Y-63014666D01*
X67194450Y-63014666D01*
X67309559Y-62737454D01*
X67310440Y-61726979D01*
X66924563Y-60793085D01*
X66210673Y-60077948D01*
X65277454Y-59690441D01*
X64266979Y-59689560D01*
X63333085Y-60075437D01*
X62617948Y-60789327D01*
X62230441Y-61722546D01*
X62229560Y-62733021D01*
X56463830Y-62733021D01*
X56514668Y-62610590D01*
X56515330Y-61852735D01*
X56225922Y-61152314D01*
X55690505Y-60615961D01*
X54990590Y-60325332D01*
X54232735Y-60324670D01*
X53532314Y-60614078D01*
X52995961Y-61149495D01*
X52705332Y-61849410D01*
X52704670Y-62607265D01*
X51562000Y-62607265D01*
X51562000Y-59272688D01*
X114062293Y-59272688D01*
X116840000Y-62050395D01*
X119617707Y-59272688D01*
X119214238Y-58746076D01*
X117700270Y-58102693D01*
X116055334Y-58087654D01*
X114529855Y-58703250D01*
X114465762Y-58746076D01*
X114062293Y-59272688D01*
X51562000Y-59272688D01*
X51562000Y-57912000D01*
X121158000Y-57912000D01*
X121158000Y-116078000D01*
X121158000Y-116078000D01*
G37*
X121158000Y-116078000D02*
X63859583Y-116078000D01*
X63966891Y-115920950D01*
X64017900Y-115669060D01*
X64017900Y-114717312D01*
X114062293Y-114717312D01*
X114465762Y-115243924D01*
X115979730Y-115887307D01*
X117624666Y-115902346D01*
X119150145Y-115286750D01*
X119214238Y-115243924D01*
X119617707Y-114717312D01*
X116840000Y-111939605D01*
X114062293Y-114717312D01*
X64017900Y-114717312D01*
X64017900Y-112544666D01*
X112697654Y-112544666D01*
X113313250Y-114070145D01*
X113356076Y-114134238D01*
X113882688Y-114537707D01*
X116660395Y-111760000D01*
X117019605Y-111760000D01*
X119797312Y-114537707D01*
X120323924Y-114134238D01*
X120967307Y-112620270D01*
X120982346Y-110975334D01*
X120366750Y-109449855D01*
X120323924Y-109385762D01*
X119797312Y-108982293D01*
X117019605Y-111760000D01*
X116660395Y-111760000D01*
X113882688Y-108982293D01*
X113356076Y-109385762D01*
X112712693Y-110899730D01*
X112697654Y-112544666D01*
X64017900Y-112544666D01*
X64017900Y-112168940D01*
X63973622Y-111933623D01*
X63834550Y-111717499D01*
X63688197Y-111617500D01*
X66370200Y-111617500D01*
X66605517Y-111573222D01*
X66821641Y-111434150D01*
X66966631Y-111221950D01*
X67017640Y-110970060D01*
X67017640Y-110744000D01*
X70594424Y-110744000D01*
X70688433Y-111216614D01*
X70956147Y-111617277D01*
X71356810Y-111884991D01*
X71829424Y-111979000D01*
X72693488Y-111979000D01*
X73166102Y-111884991D01*
X73566765Y-111617277D01*
X73834479Y-111216614D01*
X73928488Y-110744000D01*
X88374424Y-110744000D01*
X88468433Y-111216614D01*
X88736147Y-111617277D01*
X89136810Y-111884991D01*
X89609424Y-111979000D01*
X90473488Y-111979000D01*
X90946102Y-111884991D01*
X91346765Y-111617277D01*
X91614479Y-111216614D01*
X91708488Y-110744000D01*
X91614479Y-110271386D01*
X91346765Y-109870723D01*
X90946102Y-109603009D01*
X90473488Y-109509000D01*
X89609424Y-109509000D01*
X89136810Y-109603009D01*
X88736147Y-109870723D01*
X88468433Y-110271386D01*
X88374424Y-110744000D01*
X73928488Y-110744000D01*
X73834479Y-110271386D01*
X73566765Y-109870723D01*
X73166102Y-109603009D01*
X72693488Y-109509000D01*
X71829424Y-109509000D01*
X71356810Y-109603009D01*
X70956147Y-109870723D01*
X70688433Y-110271386D01*
X70594424Y-110744000D01*
X67017640Y-110744000D01*
X67017640Y-108204000D01*
X70594424Y-108204000D01*
X70688433Y-108676614D01*
X70956147Y-109077277D01*
X71356810Y-109344991D01*
X71829424Y-109439000D01*
X72693488Y-109439000D01*
X73166102Y-109344991D01*
X73566765Y-109077277D01*
X73834479Y-108676614D01*
X73865311Y-108521609D01*
X88447994Y-108521609D01*
X88451864Y-108559281D01*
X88678376Y-108987474D01*
X89051509Y-109296390D01*
X89514456Y-109439000D01*
X89914456Y-109439000D01*
X89914456Y-108331000D01*
X90168456Y-108331000D01*
X90168456Y-109439000D01*
X90568456Y-109439000D01*
X91031403Y-109296390D01*
X91404536Y-108987474D01*
X91502286Y-108802688D01*
X114062293Y-108802688D01*
X116840000Y-111580395D01*
X119617707Y-108802688D01*
X119214238Y-108276076D01*
X117700270Y-107632693D01*
X116055334Y-107617654D01*
X114529855Y-108233250D01*
X114465762Y-108276076D01*
X114062293Y-108802688D01*
X91502286Y-108802688D01*
X91631048Y-108559281D01*
X91634918Y-108521609D01*
X91510187Y-108331000D01*
X90168456Y-108331000D01*
X89914456Y-108331000D01*
X88572725Y-108331000D01*
X88447994Y-108521609D01*
X73865311Y-108521609D01*
X73928488Y-108204000D01*
X73865312Y-107886391D01*
X88447994Y-107886391D01*
X88572725Y-108077000D01*
X89914456Y-108077000D01*
X89914456Y-106969000D01*
X90168456Y-106969000D01*
X90168456Y-108077000D01*
X91510187Y-108077000D01*
X91634918Y-107886391D01*
X91631048Y-107848719D01*
X91404536Y-107420526D01*
X91031403Y-107111610D01*
X90568456Y-106969000D01*
X90168456Y-106969000D01*
X89914456Y-106969000D01*
X89514456Y-106969000D01*
X89051509Y-107111610D01*
X88678376Y-107420526D01*
X88451864Y-107848719D01*
X88447994Y-107886391D01*
X73865312Y-107886391D01*
X73834479Y-107731386D01*
X73566765Y-107330723D01*
X73166102Y-107063009D01*
X72693488Y-106969000D01*
X71829424Y-106969000D01*
X71356810Y-107063009D01*
X70956147Y-107330723D01*
X70688433Y-107731386D01*
X70594424Y-108204000D01*
X67017640Y-108204000D01*
X67017640Y-107469940D01*
X66973362Y-107234623D01*
X66834290Y-107018499D01*
X66622090Y-106873509D01*
X66370200Y-106822500D01*
X62870080Y-106822500D01*
X62634763Y-106866778D01*
X62418639Y-107005850D01*
X62273649Y-107218050D01*
X62222640Y-107469940D01*
X62222640Y-110970060D01*
X62266918Y-111205377D01*
X62405990Y-111421501D01*
X62552343Y-111521500D01*
X60698760Y-111521500D01*
X60730418Y-111508387D01*
X60909047Y-111329759D01*
X61005720Y-111096370D01*
X61005720Y-109505750D01*
X60846970Y-109347000D01*
X59893200Y-109347000D01*
X59893200Y-109093000D01*
X60846970Y-109093000D01*
X61005720Y-108934250D01*
X61005720Y-107343630D01*
X60909047Y-107110241D01*
X60730418Y-106931613D01*
X60497029Y-106834940D01*
X58906410Y-106834940D01*
X58789250Y-106952100D01*
X58771858Y-106948641D01*
X58623200Y-106948641D01*
X58452913Y-106952943D01*
X58334910Y-106834940D01*
X56744291Y-106834940D01*
X56510902Y-106931613D01*
X56332273Y-107110241D01*
X56235600Y-107343630D01*
X56235600Y-108934250D01*
X56394350Y-109093000D01*
X57353200Y-109093000D01*
X57353200Y-109347000D01*
X56394350Y-109347000D01*
X56235600Y-109505750D01*
X56235600Y-111096370D01*
X56332273Y-111329759D01*
X56510902Y-111508387D01*
X56744291Y-111605060D01*
X58334910Y-111605060D01*
X58452913Y-111487057D01*
X58474542Y-111491359D01*
X58771858Y-111491359D01*
X58789250Y-111487900D01*
X58906410Y-111605060D01*
X59573977Y-111605060D01*
X59418899Y-111704850D01*
X59273909Y-111917050D01*
X59222900Y-112168940D01*
X59222900Y-115669060D01*
X59267178Y-115904377D01*
X59378901Y-116078000D01*
X51562000Y-116078000D01*
X51562000Y-105664000D01*
X70594424Y-105664000D01*
X70688433Y-106136614D01*
X70956147Y-106537277D01*
X71356810Y-106804991D01*
X71829424Y-106899000D01*
X72693488Y-106899000D01*
X73166102Y-106804991D01*
X73566765Y-106537277D01*
X73834479Y-106136614D01*
X73928488Y-105664000D01*
X88374424Y-105664000D01*
X88468433Y-106136614D01*
X88736147Y-106537277D01*
X89136810Y-106804991D01*
X89609424Y-106899000D01*
X90473488Y-106899000D01*
X90946102Y-106804991D01*
X91346765Y-106537277D01*
X91614479Y-106136614D01*
X91708488Y-105664000D01*
X91614479Y-105191386D01*
X91346765Y-104790723D01*
X90946102Y-104523009D01*
X90473488Y-104429000D01*
X89609424Y-104429000D01*
X89136810Y-104523009D01*
X88736147Y-104790723D01*
X88468433Y-105191386D01*
X88374424Y-105664000D01*
X73928488Y-105664000D01*
X73834479Y-105191386D01*
X73566765Y-104790723D01*
X73166102Y-104523009D01*
X72693488Y-104429000D01*
X71829424Y-104429000D01*
X71356810Y-104523009D01*
X70956147Y-104790723D01*
X70688433Y-105191386D01*
X70594424Y-105664000D01*
X51562000Y-105664000D01*
X51562000Y-103441609D01*
X70667994Y-103441609D01*
X70671864Y-103479281D01*
X70898376Y-103907474D01*
X71271509Y-104216390D01*
X71734456Y-104359000D01*
X72134456Y-104359000D01*
X72134456Y-103251000D01*
X72388456Y-103251000D01*
X72388456Y-104359000D01*
X72788456Y-104359000D01*
X73251403Y-104216390D01*
X73624536Y-103907474D01*
X73851048Y-103479281D01*
X73854918Y-103441609D01*
X73730187Y-103251000D01*
X72388456Y-103251000D01*
X72134456Y-103251000D01*
X70792725Y-103251000D01*
X70667994Y-103441609D01*
X51562000Y-103441609D01*
X51562000Y-101767312D01*
X54102293Y-101767312D01*
X54505762Y-102293924D01*
X56019730Y-102937307D01*
X57664666Y-102952346D01*
X58026350Y-102806391D01*
X70667994Y-102806391D01*
X70792725Y-102997000D01*
X72134456Y-102997000D01*
X72134456Y-101889000D01*
X72388456Y-101889000D01*
X72388456Y-102997000D01*
X73730187Y-102997000D01*
X73854918Y-102806391D01*
X73851048Y-102768719D01*
X73624536Y-102340526D01*
X73251403Y-102031610D01*
X72788456Y-101889000D01*
X72388456Y-101889000D01*
X72134456Y-101889000D01*
X71734456Y-101889000D01*
X71271509Y-102031610D01*
X70898376Y-102340526D01*
X70671864Y-102768719D01*
X70667994Y-102806391D01*
X58026350Y-102806391D01*
X59190145Y-102336750D01*
X59254238Y-102293924D01*
X59657707Y-101767312D01*
X56880000Y-98989605D01*
X54102293Y-101767312D01*
X51562000Y-101767312D01*
X51562000Y-99594666D01*
X52737654Y-99594666D01*
X53353250Y-101120145D01*
X53396076Y-101184238D01*
X53922688Y-101587707D01*
X56700395Y-98810000D01*
X57059605Y-98810000D01*
X59837312Y-101587707D01*
X60363924Y-101184238D01*
X60619003Y-100584000D01*
X70594424Y-100584000D01*
X70688433Y-101056614D01*
X70956147Y-101457277D01*
X71356810Y-101724991D01*
X71829424Y-101819000D01*
X72693488Y-101819000D01*
X73166102Y-101724991D01*
X73566765Y-101457277D01*
X73834479Y-101056614D01*
X73928488Y-100584000D01*
X73834479Y-100111386D01*
X73566765Y-99710723D01*
X73166102Y-99443009D01*
X72693488Y-99349000D01*
X71829424Y-99349000D01*
X71356810Y-99443009D01*
X70956147Y-99710723D01*
X70688433Y-100111386D01*
X70594424Y-100584000D01*
X60619003Y-100584000D01*
X61007307Y-99670270D01*
X61022175Y-98044000D01*
X70594424Y-98044000D01*
X70688433Y-98516614D01*
X70956147Y-98917277D01*
X71356810Y-99184991D01*
X71829424Y-99279000D01*
X72693488Y-99279000D01*
X73166102Y-99184991D01*
X73566765Y-98917277D01*
X73834479Y-98516614D01*
X73928488Y-98044000D01*
X73834479Y-97571386D01*
X73566765Y-97170723D01*
X73166102Y-96903009D01*
X72693488Y-96809000D01*
X71829424Y-96809000D01*
X71356810Y-96903009D01*
X70956147Y-97170723D01*
X70688433Y-97571386D01*
X70594424Y-98044000D01*
X61022175Y-98044000D01*
X61022346Y-98025334D01*
X60406750Y-96499855D01*
X60363924Y-96435762D01*
X59837312Y-96032293D01*
X57059605Y-98810000D01*
X56700395Y-98810000D01*
X53922688Y-96032293D01*
X53396076Y-96435762D01*
X52752693Y-97949730D01*
X52737654Y-99594666D01*
X51562000Y-99594666D01*
X51562000Y-95852688D01*
X54102293Y-95852688D01*
X56880000Y-98630395D01*
X59657707Y-95852688D01*
X59390557Y-95504000D01*
X70594424Y-95504000D01*
X70688433Y-95976614D01*
X70956147Y-96377277D01*
X71356810Y-96644991D01*
X71829424Y-96739000D01*
X72693488Y-96739000D01*
X73166102Y-96644991D01*
X73566765Y-96377277D01*
X73834479Y-95976614D01*
X73928488Y-95504000D01*
X73834479Y-95031386D01*
X73566765Y-94630723D01*
X73166102Y-94363009D01*
X72693488Y-94269000D01*
X71829424Y-94269000D01*
X71356810Y-94363009D01*
X70956147Y-94630723D01*
X70688433Y-95031386D01*
X70594424Y-95504000D01*
X59390557Y-95504000D01*
X59254238Y-95326076D01*
X57740270Y-94682693D01*
X56095334Y-94667654D01*
X54569855Y-95283250D01*
X54505762Y-95326076D01*
X54102293Y-95852688D01*
X51562000Y-95852688D01*
X51562000Y-92964000D01*
X70594424Y-92964000D01*
X70688433Y-93436614D01*
X70956147Y-93837277D01*
X71356810Y-94104991D01*
X71829424Y-94199000D01*
X72693488Y-94199000D01*
X73166102Y-94104991D01*
X73566765Y-93837277D01*
X73834479Y-93436614D01*
X73928488Y-92964000D01*
X73834479Y-92491386D01*
X73566765Y-92090723D01*
X73166102Y-91823009D01*
X72693488Y-91729000D01*
X71829424Y-91729000D01*
X71356810Y-91823009D01*
X70956147Y-92090723D01*
X70688433Y-92491386D01*
X70594424Y-92964000D01*
X51562000Y-92964000D01*
X51562000Y-90247777D01*
X53441828Y-90247777D01*
X53573520Y-90542657D01*
X54281036Y-90814261D01*
X55038632Y-90794436D01*
X55251073Y-90706440D01*
X63143165Y-90706440D01*
X63352353Y-91067289D01*
X64289650Y-91444824D01*
X65300077Y-91434933D01*
X66187647Y-91067289D01*
X66396835Y-90706440D01*
X64770000Y-89079605D01*
X63143165Y-90706440D01*
X55251073Y-90706440D01*
X55646480Y-90542657D01*
X55778172Y-90247777D01*
X54610000Y-89079605D01*
X53441828Y-90247777D01*
X51562000Y-90247777D01*
X51562000Y-88571036D01*
X52695739Y-88571036D01*
X52715564Y-89328632D01*
X52967343Y-89936480D01*
X53262223Y-90068172D01*
X54430395Y-88900000D01*
X54789605Y-88900000D01*
X55957777Y-90068172D01*
X56252657Y-89936480D01*
X56524261Y-89228964D01*
X56504436Y-88471368D01*
X56483014Y-88419650D01*
X62225176Y-88419650D01*
X62235067Y-89430077D01*
X62602711Y-90317647D01*
X62963560Y-90526835D01*
X64590395Y-88900000D01*
X64949605Y-88900000D01*
X66576440Y-90526835D01*
X66753830Y-90424000D01*
X70594424Y-90424000D01*
X70688433Y-90896614D01*
X70956147Y-91297277D01*
X71356810Y-91564991D01*
X71829424Y-91659000D01*
X72693488Y-91659000D01*
X73166102Y-91564991D01*
X73566765Y-91297277D01*
X73834479Y-90896614D01*
X73928488Y-90424000D01*
X73834479Y-89951386D01*
X73566765Y-89550723D01*
X73166102Y-89283009D01*
X72693488Y-89189000D01*
X71829424Y-89189000D01*
X71356810Y-89283009D01*
X70956147Y-89550723D01*
X70688433Y-89951386D01*
X70594424Y-90424000D01*
X66753830Y-90424000D01*
X66937289Y-90317647D01*
X67314824Y-89380350D01*
X67304933Y-88369923D01*
X67103657Y-87884000D01*
X70594424Y-87884000D01*
X70688433Y-88356614D01*
X70956147Y-88757277D01*
X71356810Y-89024991D01*
X71829424Y-89119000D01*
X72693488Y-89119000D01*
X73166102Y-89024991D01*
X73566765Y-88757277D01*
X73834479Y-88356614D01*
X73928488Y-87884000D01*
X73834479Y-87411386D01*
X73566765Y-87010723D01*
X73166102Y-86743009D01*
X72693488Y-86649000D01*
X71829424Y-86649000D01*
X71356810Y-86743009D01*
X70956147Y-87010723D01*
X70688433Y-87411386D01*
X70594424Y-87884000D01*
X67103657Y-87884000D01*
X66937289Y-87482353D01*
X66576440Y-87273165D01*
X64949605Y-88900000D01*
X64590395Y-88900000D01*
X62963560Y-87273165D01*
X62602711Y-87482353D01*
X62225176Y-88419650D01*
X56483014Y-88419650D01*
X56252657Y-87863520D01*
X55957777Y-87731828D01*
X54789605Y-88900000D01*
X54430395Y-88900000D01*
X53262223Y-87731828D01*
X52967343Y-87863520D01*
X52695739Y-88571036D01*
X51562000Y-88571036D01*
X51562000Y-87552223D01*
X53441828Y-87552223D01*
X54610000Y-88720395D01*
X55778172Y-87552223D01*
X55646480Y-87257343D01*
X55219833Y-87093560D01*
X63143165Y-87093560D01*
X64770000Y-88720395D01*
X66396835Y-87093560D01*
X66187647Y-86732711D01*
X65250350Y-86355176D01*
X64239923Y-86365067D01*
X63352353Y-86732711D01*
X63143165Y-87093560D01*
X55219833Y-87093560D01*
X54938964Y-86985739D01*
X54181368Y-87005564D01*
X53573520Y-87257343D01*
X53441828Y-87552223D01*
X51562000Y-87552223D01*
X51562000Y-82804000D01*
X70594424Y-82804000D01*
X70688433Y-83276614D01*
X70956147Y-83677277D01*
X71356810Y-83944991D01*
X71829424Y-84039000D01*
X72693488Y-84039000D01*
X73166102Y-83944991D01*
X73533000Y-83699838D01*
X73533000Y-84448162D01*
X73166102Y-84203009D01*
X72693488Y-84109000D01*
X71829424Y-84109000D01*
X71356810Y-84203009D01*
X70956147Y-84470723D01*
X70688433Y-84871386D01*
X70594424Y-85344000D01*
X70688433Y-85816614D01*
X70956147Y-86217277D01*
X71356810Y-86484991D01*
X71829424Y-86579000D01*
X72693488Y-86579000D01*
X73166102Y-86484991D01*
X73533000Y-86239838D01*
X73533000Y-86360000D01*
X73541685Y-86406159D01*
X73568965Y-86448553D01*
X73610590Y-86476994D01*
X73660000Y-86487000D01*
X88900000Y-86487000D01*
X88946159Y-86478315D01*
X88988553Y-86451035D01*
X89016994Y-86409410D01*
X89017793Y-86405466D01*
X89136810Y-86484991D01*
X89609424Y-86579000D01*
X90473488Y-86579000D01*
X90946102Y-86484991D01*
X91346765Y-86217277D01*
X91465400Y-86039727D01*
X91465400Y-87188273D01*
X91346765Y-87010723D01*
X90946102Y-86743009D01*
X90473488Y-86649000D01*
X89609424Y-86649000D01*
X89136810Y-86743009D01*
X88736147Y-87010723D01*
X88468433Y-87411386D01*
X88374424Y-87884000D01*
X88468433Y-88356614D01*
X88736147Y-88757277D01*
X89136810Y-89024991D01*
X89609424Y-89119000D01*
X90473488Y-89119000D01*
X90946102Y-89024991D01*
X91346765Y-88757277D01*
X91465400Y-88579727D01*
X91465400Y-89728273D01*
X91346765Y-89550723D01*
X90946102Y-89283009D01*
X90473488Y-89189000D01*
X89609424Y-89189000D01*
X89136810Y-89283009D01*
X88736147Y-89550723D01*
X88468433Y-89951386D01*
X88374424Y-90424000D01*
X88468433Y-90896614D01*
X88736147Y-91297277D01*
X89136810Y-91564991D01*
X89609424Y-91659000D01*
X90473488Y-91659000D01*
X90946102Y-91564991D01*
X91346765Y-91297277D01*
X91465400Y-91119727D01*
X91465400Y-92268273D01*
X91346765Y-92090723D01*
X90946102Y-91823009D01*
X90473488Y-91729000D01*
X89609424Y-91729000D01*
X89136810Y-91823009D01*
X88736147Y-92090723D01*
X88468433Y-92491386D01*
X88374424Y-92964000D01*
X88468433Y-93436614D01*
X88736147Y-93837277D01*
X89136810Y-94104991D01*
X89609424Y-94199000D01*
X90473488Y-94199000D01*
X90946102Y-94104991D01*
X91346765Y-93837277D01*
X91465400Y-93659727D01*
X91465400Y-94808273D01*
X91346765Y-94630723D01*
X90946102Y-94363009D01*
X90473488Y-94269000D01*
X89609424Y-94269000D01*
X89136810Y-94363009D01*
X88736147Y-94630723D01*
X88468433Y-95031386D01*
X88374424Y-95504000D01*
X88468433Y-95976614D01*
X88736147Y-96377277D01*
X89136810Y-96644991D01*
X89609424Y-96739000D01*
X90473488Y-96739000D01*
X90946102Y-96644991D01*
X91346765Y-96377277D01*
X91465400Y-96199727D01*
X91465400Y-97348273D01*
X91346765Y-97170723D01*
X90946102Y-96903009D01*
X90473488Y-96809000D01*
X89609424Y-96809000D01*
X89136810Y-96903009D01*
X88736147Y-97170723D01*
X88468433Y-97571386D01*
X88374424Y-98044000D01*
X88468433Y-98516614D01*
X88736147Y-98917277D01*
X89136810Y-99184991D01*
X89609424Y-99279000D01*
X90473488Y-99279000D01*
X90946102Y-99184991D01*
X91346765Y-98917277D01*
X91465400Y-98739727D01*
X91465400Y-99888273D01*
X91346765Y-99710723D01*
X90946102Y-99443009D01*
X90473488Y-99349000D01*
X89609424Y-99349000D01*
X89136810Y-99443009D01*
X88736147Y-99710723D01*
X88468433Y-100111386D01*
X88374424Y-100584000D01*
X88468433Y-101056614D01*
X88736147Y-101457277D01*
X89136810Y-101724991D01*
X89609424Y-101819000D01*
X90473488Y-101819000D01*
X90946102Y-101724991D01*
X91235851Y-101531387D01*
X91186176Y-101651018D01*
X91185824Y-102055208D01*
X91236039Y-102176739D01*
X90946102Y-101983009D01*
X90473488Y-101889000D01*
X89609424Y-101889000D01*
X89136810Y-101983009D01*
X88736147Y-102250723D01*
X88468433Y-102651386D01*
X88374424Y-103124000D01*
X88468433Y-103596614D01*
X88736147Y-103997277D01*
X89136810Y-104264991D01*
X89609424Y-104359000D01*
X90473488Y-104359000D01*
X90946102Y-104264991D01*
X91346765Y-103997277D01*
X91614479Y-103596614D01*
X91708488Y-103124000D01*
X91627220Y-102715439D01*
X91999018Y-102869824D01*
X92403208Y-102870176D01*
X92776766Y-102715825D01*
X93062821Y-102430269D01*
X93217824Y-102056982D01*
X93218176Y-101652792D01*
X93063825Y-101279234D01*
X92938600Y-101153790D01*
X92938600Y-97423321D01*
X93149731Y-97634821D01*
X93523018Y-97789824D01*
X93751400Y-97790023D01*
X93751400Y-98359727D01*
X93627179Y-98483731D01*
X93472176Y-98857018D01*
X93471824Y-99261208D01*
X93626175Y-99634766D01*
X93911731Y-99920821D01*
X94285018Y-100075824D01*
X94689208Y-100076176D01*
X95062766Y-99921825D01*
X95348821Y-99636269D01*
X95503824Y-99262982D01*
X95503825Y-99261208D01*
X100075824Y-99261208D01*
X100230175Y-99634766D01*
X100515731Y-99920821D01*
X100583999Y-99949169D01*
X100583824Y-100150208D01*
X100738175Y-100523766D01*
X101023731Y-100809821D01*
X101397018Y-100964824D01*
X101801208Y-100965176D01*
X102174766Y-100810825D01*
X102460821Y-100525269D01*
X102615824Y-100151982D01*
X102615978Y-99974732D01*
X108724855Y-93865855D01*
X108884530Y-93626885D01*
X108940600Y-93345000D01*
X108940600Y-91632273D01*
X109064821Y-91508269D01*
X109219824Y-91134982D01*
X109220176Y-90730792D01*
X109065825Y-90357234D01*
X108780269Y-90071179D01*
X108406982Y-89916176D01*
X108002792Y-89915824D01*
X107629234Y-90070175D01*
X107343179Y-90355731D01*
X107188176Y-90729018D01*
X107187824Y-91133208D01*
X107342175Y-91506766D01*
X107467400Y-91632210D01*
X107467400Y-91821132D01*
X107113792Y-91820824D01*
X106740234Y-91975175D01*
X106454179Y-92260731D01*
X106299176Y-92634018D01*
X106299022Y-92811268D01*
X101066313Y-98043977D01*
X100890792Y-98043824D01*
X100517234Y-98198175D01*
X100231179Y-98483731D01*
X100076176Y-98857018D01*
X100075824Y-99261208D01*
X95503825Y-99261208D01*
X95504176Y-98858792D01*
X95349825Y-98485234D01*
X95224600Y-98359790D01*
X95224600Y-92583000D01*
X95168530Y-92301115D01*
X95008855Y-92062145D01*
X94998126Y-92051416D01*
X95072155Y-92020828D01*
X95209444Y-91883778D01*
X95431882Y-91839533D01*
X95670852Y-91679858D01*
X100635110Y-86715600D01*
X105065357Y-86715600D01*
X105189361Y-86839821D01*
X105562648Y-86994824D01*
X105966838Y-86995176D01*
X106340396Y-86840825D01*
X106626451Y-86555269D01*
X106781454Y-86181982D01*
X106781806Y-85777792D01*
X106627455Y-85404234D01*
X106341899Y-85118179D01*
X105968612Y-84963176D01*
X105564422Y-84962824D01*
X105190864Y-85117175D01*
X105065420Y-85242400D01*
X101896357Y-85242400D01*
X101980824Y-85038982D01*
X101981176Y-84634792D01*
X101826825Y-84261234D01*
X101541269Y-83975179D01*
X101167982Y-83820176D01*
X100763792Y-83819824D01*
X100390234Y-83974175D01*
X100104179Y-84259731D01*
X99949176Y-84633018D01*
X99949022Y-84810268D01*
X99923299Y-84835991D01*
X99766513Y-84835991D01*
X99484628Y-84892061D01*
X99300914Y-85014815D01*
X99245658Y-85051736D01*
X95564865Y-88732529D01*
X95389344Y-88732376D01*
X95015786Y-88886727D01*
X94729731Y-89172283D01*
X94574728Y-89545570D01*
X94574376Y-89949760D01*
X94654279Y-90143139D01*
X94462600Y-90142972D01*
X94462600Y-87598092D01*
X94539018Y-87629824D01*
X94943208Y-87630176D01*
X95316766Y-87475825D01*
X95602821Y-87190269D01*
X95757824Y-86816982D01*
X95757978Y-86639732D01*
X98730110Y-83667600D01*
X109027727Y-83667600D01*
X109151731Y-83791821D01*
X109525018Y-83946824D01*
X109929208Y-83947176D01*
X110236997Y-83820000D01*
X113951399Y-83820000D01*
X114057739Y-84354609D01*
X114360571Y-84807828D01*
X114782870Y-85090000D01*
X114360571Y-85372172D01*
X114057739Y-85825391D01*
X113951399Y-86360000D01*
X114057739Y-86894609D01*
X114360571Y-87347828D01*
X114782870Y-87630000D01*
X114360571Y-87912172D01*
X114057739Y-88365391D01*
X113951399Y-88900000D01*
X114057739Y-89434609D01*
X114360571Y-89887828D01*
X114800672Y-90181895D01*
X114702208Y-90213229D01*
X114284299Y-90565800D01*
X114033124Y-91051460D01*
X114025280Y-91096930D01*
X114147780Y-91313000D01*
X115443000Y-91313000D01*
X115443000Y-91293000D01*
X115697000Y-91293000D01*
X115697000Y-91313000D01*
X115717000Y-91313000D01*
X115717000Y-91567000D01*
X115697000Y-91567000D01*
X115697000Y-91587000D01*
X115443000Y-91587000D01*
X115443000Y-91567000D01*
X114147780Y-91567000D01*
X114025280Y-91783070D01*
X114033124Y-91828540D01*
X114284299Y-92314200D01*
X114702208Y-92666771D01*
X114800672Y-92698105D01*
X114360571Y-92992172D01*
X114057739Y-93445391D01*
X113951399Y-93980000D01*
X114057739Y-94514609D01*
X114360571Y-94967828D01*
X114800672Y-95261895D01*
X114702208Y-95293229D01*
X114284299Y-95645800D01*
X114033124Y-96131460D01*
X114025280Y-96176930D01*
X114147780Y-96393000D01*
X115443000Y-96393000D01*
X115443000Y-96373000D01*
X115697000Y-96373000D01*
X115697000Y-96393000D01*
X115717000Y-96393000D01*
X115717000Y-96647000D01*
X115697000Y-96647000D01*
X115697000Y-96667000D01*
X115443000Y-96667000D01*
X115443000Y-96647000D01*
X114147780Y-96647000D01*
X114025280Y-96863070D01*
X114033124Y-96908540D01*
X114284299Y-97394200D01*
X114702208Y-97746771D01*
X114800672Y-97778105D01*
X114360571Y-98072172D01*
X114057739Y-98525391D01*
X113951399Y-99060000D01*
X114057739Y-99594609D01*
X114360571Y-100047828D01*
X114813790Y-100350660D01*
X115348399Y-100457000D01*
X115791601Y-100457000D01*
X116326210Y-100350660D01*
X116617749Y-100155860D01*
X116693410Y-100273441D01*
X116905610Y-100418431D01*
X117157500Y-100469440D01*
X119062500Y-100469440D01*
X119297817Y-100425162D01*
X119513941Y-100286090D01*
X119658931Y-100073890D01*
X119709940Y-99822000D01*
X119709940Y-98298000D01*
X119665662Y-98062683D01*
X119526590Y-97846559D01*
X119314390Y-97701569D01*
X119095742Y-97657292D01*
X119319429Y-97507828D01*
X119622261Y-97054609D01*
X119728601Y-96520000D01*
X119622261Y-95985391D01*
X119319429Y-95532172D01*
X118897130Y-95250000D01*
X119319429Y-94967828D01*
X119622261Y-94514609D01*
X119728601Y-93980000D01*
X119622261Y-93445391D01*
X119319429Y-92992172D01*
X118897130Y-92710000D01*
X119319429Y-92427828D01*
X119622261Y-91974609D01*
X119728601Y-91440000D01*
X119622261Y-90905391D01*
X119319429Y-90452172D01*
X118897130Y-90170000D01*
X119319429Y-89887828D01*
X119622261Y-89434609D01*
X119728601Y-88900000D01*
X119622261Y-88365391D01*
X119319429Y-87912172D01*
X118897130Y-87630000D01*
X119319429Y-87347828D01*
X119622261Y-86894609D01*
X119728601Y-86360000D01*
X119622261Y-85825391D01*
X119319429Y-85372172D01*
X118897130Y-85090000D01*
X119319429Y-84807828D01*
X119622261Y-84354609D01*
X119728601Y-83820000D01*
X119622261Y-83285391D01*
X119319429Y-82832172D01*
X118897130Y-82550000D01*
X119319429Y-82267828D01*
X119622261Y-81814609D01*
X119728601Y-81280000D01*
X119622261Y-80745391D01*
X119319429Y-80292172D01*
X118866210Y-79989340D01*
X118331601Y-79883000D01*
X117888399Y-79883000D01*
X117353790Y-79989340D01*
X116900571Y-80292172D01*
X116835842Y-80389046D01*
X116437792Y-80053229D01*
X115916771Y-79887423D01*
X115697000Y-80038872D01*
X115697000Y-81153000D01*
X115717000Y-81153000D01*
X115717000Y-81407000D01*
X115697000Y-81407000D01*
X115697000Y-81427000D01*
X115443000Y-81427000D01*
X115443000Y-81407000D01*
X114147780Y-81407000D01*
X114025280Y-81623070D01*
X114033124Y-81668540D01*
X114284299Y-82154200D01*
X114702208Y-82506771D01*
X114800672Y-82538105D01*
X114360571Y-82832172D01*
X114057739Y-83285391D01*
X113951399Y-83820000D01*
X110236997Y-83820000D01*
X110302766Y-83792825D01*
X110588821Y-83507269D01*
X110743824Y-83133982D01*
X110744176Y-82729792D01*
X110589825Y-82356234D01*
X110304269Y-82070179D01*
X109930982Y-81915176D01*
X109526792Y-81914824D01*
X109153234Y-82069175D01*
X109027790Y-82194400D01*
X98425005Y-82194400D01*
X98425000Y-82194399D01*
X98189883Y-82241167D01*
X98143115Y-82250470D01*
X97904145Y-82410145D01*
X95317039Y-84997251D01*
X95222825Y-84769234D01*
X95097600Y-84643790D01*
X95097600Y-80936930D01*
X114025280Y-80936930D01*
X114147780Y-81153000D01*
X115443000Y-81153000D01*
X115443000Y-80038872D01*
X115223229Y-79887423D01*
X114702208Y-80053229D01*
X114284299Y-80405800D01*
X114033124Y-80891460D01*
X114025280Y-80936930D01*
X95097600Y-80936930D01*
X95097600Y-74683039D01*
X95168530Y-74576885D01*
X95224600Y-74295000D01*
X95224600Y-74021913D01*
X96304816Y-74021913D01*
X96498046Y-74574320D01*
X96887964Y-75010732D01*
X97415209Y-75264709D01*
X97430974Y-75267358D01*
X97663000Y-75146217D01*
X97663000Y-73787000D01*
X96449076Y-73787000D01*
X96304816Y-74021913D01*
X95224600Y-74021913D01*
X95224600Y-73298087D01*
X96304816Y-73298087D01*
X96449076Y-73533000D01*
X97663000Y-73533000D01*
X97663000Y-72173783D01*
X97917000Y-72173783D01*
X97917000Y-73533000D01*
X97937000Y-73533000D01*
X97937000Y-73787000D01*
X97917000Y-73787000D01*
X97917000Y-75146217D01*
X98149026Y-75267358D01*
X98164791Y-75264709D01*
X98692036Y-75010732D01*
X99063539Y-74594931D01*
X99270330Y-74904415D01*
X99756511Y-75229271D01*
X100330000Y-75343345D01*
X100903489Y-75229271D01*
X101389670Y-74904415D01*
X101600000Y-74589634D01*
X101810330Y-74904415D01*
X102296511Y-75229271D01*
X102870000Y-75343345D01*
X103443489Y-75229271D01*
X103929670Y-74904415D01*
X104140000Y-74589634D01*
X104350330Y-74904415D01*
X104836511Y-75229271D01*
X105410000Y-75343345D01*
X105983489Y-75229271D01*
X106469670Y-74904415D01*
X106680000Y-74589634D01*
X106890330Y-74904415D01*
X107376511Y-75229271D01*
X107950000Y-75343345D01*
X108523489Y-75229271D01*
X109009670Y-74904415D01*
X109019243Y-74890087D01*
X109023238Y-74911317D01*
X109162310Y-75127441D01*
X109374510Y-75272431D01*
X109626400Y-75323440D01*
X111353600Y-75323440D01*
X111588917Y-75279162D01*
X111805041Y-75140090D01*
X111950031Y-74927890D01*
X112001040Y-74676000D01*
X112001040Y-72644000D01*
X111956762Y-72408683D01*
X111817690Y-72192559D01*
X111605490Y-72047569D01*
X111353600Y-71996560D01*
X109626400Y-71996560D01*
X109391083Y-72040838D01*
X109174959Y-72179910D01*
X109029969Y-72392110D01*
X109021600Y-72433439D01*
X109009670Y-72415585D01*
X108523489Y-72090729D01*
X107950000Y-71976655D01*
X107376511Y-72090729D01*
X106890330Y-72415585D01*
X106680000Y-72730366D01*
X106469670Y-72415585D01*
X105983489Y-72090729D01*
X105410000Y-71976655D01*
X104836511Y-72090729D01*
X104350330Y-72415585D01*
X104140000Y-72730366D01*
X103929670Y-72415585D01*
X103443489Y-72090729D01*
X102870000Y-71976655D01*
X102296511Y-72090729D01*
X101810330Y-72415585D01*
X101600000Y-72730366D01*
X101389670Y-72415585D01*
X100903489Y-72090729D01*
X100330000Y-71976655D01*
X99756511Y-72090729D01*
X99270330Y-72415585D01*
X99063539Y-72725069D01*
X98692036Y-72309268D01*
X98164791Y-72055291D01*
X98149026Y-72052642D01*
X97917000Y-72173783D01*
X97663000Y-72173783D01*
X97430974Y-72052642D01*
X97415209Y-72055291D01*
X96887964Y-72309268D01*
X96498046Y-72745680D01*
X96304816Y-73298087D01*
X95224600Y-73298087D01*
X95224600Y-72263000D01*
X95168530Y-71981115D01*
X95008855Y-71742145D01*
X93478623Y-70211913D01*
X96304816Y-70211913D01*
X96498046Y-70764320D01*
X96887964Y-71200732D01*
X97415209Y-71454709D01*
X97430974Y-71457358D01*
X97663000Y-71336217D01*
X97663000Y-69977000D01*
X96449076Y-69977000D01*
X96304816Y-70211913D01*
X93478623Y-70211913D01*
X92754797Y-69488087D01*
X96304816Y-69488087D01*
X96449076Y-69723000D01*
X97663000Y-69723000D01*
X97663000Y-68363783D01*
X97917000Y-68363783D01*
X97917000Y-69723000D01*
X97937000Y-69723000D01*
X97937000Y-69977000D01*
X97917000Y-69977000D01*
X97917000Y-71336217D01*
X98149026Y-71457358D01*
X98164791Y-71454709D01*
X98692036Y-71200732D01*
X99063539Y-70784931D01*
X99270330Y-71094415D01*
X99756511Y-71419271D01*
X100330000Y-71533345D01*
X100903489Y-71419271D01*
X101389670Y-71094415D01*
X101600000Y-70779634D01*
X101810330Y-71094415D01*
X102296511Y-71419271D01*
X102870000Y-71533345D01*
X103443489Y-71419271D01*
X103929670Y-71094415D01*
X104140000Y-70779634D01*
X104350330Y-71094415D01*
X104836511Y-71419271D01*
X105410000Y-71533345D01*
X105983489Y-71419271D01*
X106469670Y-71094415D01*
X106680000Y-70779634D01*
X106890330Y-71094415D01*
X107376511Y-71419271D01*
X107950000Y-71533345D01*
X108523489Y-71419271D01*
X109009670Y-71094415D01*
X109019243Y-71080087D01*
X109023238Y-71101317D01*
X109162310Y-71317441D01*
X109374510Y-71462431D01*
X109626400Y-71513440D01*
X111353600Y-71513440D01*
X111588917Y-71469162D01*
X111805041Y-71330090D01*
X111950031Y-71117890D01*
X112001040Y-70866000D01*
X112001040Y-68834000D01*
X111956762Y-68598683D01*
X111817690Y-68382559D01*
X111605490Y-68237569D01*
X111353600Y-68186560D01*
X109626400Y-68186560D01*
X109391083Y-68230838D01*
X109174959Y-68369910D01*
X109029969Y-68582110D01*
X109021600Y-68623439D01*
X109009670Y-68605585D01*
X108523489Y-68280729D01*
X107950000Y-68166655D01*
X107376511Y-68280729D01*
X106890330Y-68605585D01*
X106680000Y-68920366D01*
X106469670Y-68605585D01*
X105983489Y-68280729D01*
X105410000Y-68166655D01*
X104836511Y-68280729D01*
X104350330Y-68605585D01*
X104140000Y-68920366D01*
X103929670Y-68605585D01*
X103443489Y-68280729D01*
X102870000Y-68166655D01*
X102296511Y-68280729D01*
X101810330Y-68605585D01*
X101600000Y-68920366D01*
X101389670Y-68605585D01*
X100903489Y-68280729D01*
X100330000Y-68166655D01*
X99756511Y-68280729D01*
X99270330Y-68605585D01*
X99063539Y-68915069D01*
X98692036Y-68499268D01*
X98164791Y-68245291D01*
X98149026Y-68242642D01*
X97917000Y-68363783D01*
X97663000Y-68363783D01*
X97430974Y-68242642D01*
X97415209Y-68245291D01*
X96887964Y-68499268D01*
X96498046Y-68935680D01*
X96304816Y-69488087D01*
X92754797Y-69488087D01*
X88646023Y-65379313D01*
X88646176Y-65203792D01*
X88639367Y-65187312D01*
X114062293Y-65187312D01*
X114465762Y-65713924D01*
X115979730Y-66357307D01*
X117624666Y-66372346D01*
X119150145Y-65756750D01*
X119214238Y-65713924D01*
X119617707Y-65187312D01*
X116840000Y-62409605D01*
X114062293Y-65187312D01*
X88639367Y-65187312D01*
X88491825Y-64830234D01*
X88206269Y-64544179D01*
X87832982Y-64389176D01*
X87428792Y-64388824D01*
X87055234Y-64543175D01*
X86769179Y-64828731D01*
X86614176Y-65202018D01*
X86613824Y-65606208D01*
X86768175Y-65979766D01*
X87053731Y-66265821D01*
X87427018Y-66420824D01*
X87604268Y-66420978D01*
X91541378Y-70358088D01*
X91238792Y-70357824D01*
X90865234Y-70512175D01*
X90579179Y-70797731D01*
X90424176Y-71171018D01*
X90423824Y-71575208D01*
X90578175Y-71948766D01*
X90703400Y-72074210D01*
X90703400Y-73914000D01*
X90759470Y-74195885D01*
X90919145Y-74434855D01*
X91465400Y-74981110D01*
X91465400Y-82108273D01*
X91346765Y-81930723D01*
X90946102Y-81663009D01*
X90473488Y-81569000D01*
X89609424Y-81569000D01*
X89136810Y-81663009D01*
X89027000Y-81736382D01*
X89027000Y-74930000D01*
X89018315Y-74883841D01*
X88991035Y-74841447D01*
X88949410Y-74813006D01*
X88900000Y-74803000D01*
X73660000Y-74803000D01*
X73613841Y-74811685D01*
X73571447Y-74838965D01*
X73543006Y-74880590D01*
X73533000Y-74930000D01*
X73533000Y-81908162D01*
X73166102Y-81663009D01*
X72693488Y-81569000D01*
X71829424Y-81569000D01*
X71356810Y-81663009D01*
X70956147Y-81930723D01*
X70688433Y-82331386D01*
X70594424Y-82804000D01*
X51562000Y-82804000D01*
X51562000Y-80387265D01*
X52704670Y-80387265D01*
X52994078Y-81087686D01*
X53529495Y-81624039D01*
X54229410Y-81914668D01*
X54987265Y-81915330D01*
X55687686Y-81625922D01*
X56224039Y-81090505D01*
X56463830Y-80513021D01*
X62229560Y-80513021D01*
X62615437Y-81446915D01*
X63329327Y-82162052D01*
X64262546Y-82549559D01*
X65273021Y-82550440D01*
X66206915Y-82164563D01*
X66922052Y-81450673D01*
X67309559Y-80517454D01*
X67310440Y-79506979D01*
X66924563Y-78573085D01*
X66210673Y-77857948D01*
X65277454Y-77470441D01*
X64266979Y-77469560D01*
X63333085Y-77855437D01*
X62617948Y-78569327D01*
X62230441Y-79502546D01*
X62229560Y-80513021D01*
X56463830Y-80513021D01*
X56514668Y-80390590D01*
X56515330Y-79632735D01*
X56225922Y-78932314D01*
X55690505Y-78395961D01*
X54990590Y-78105332D01*
X54232735Y-78104670D01*
X53532314Y-78394078D01*
X52995961Y-78929495D01*
X52705332Y-79629410D01*
X52704670Y-80387265D01*
X51562000Y-80387265D01*
X51562000Y-72467777D01*
X53441828Y-72467777D01*
X53573520Y-72762657D01*
X54281036Y-73034261D01*
X55038632Y-73014436D01*
X55251073Y-72926440D01*
X63143165Y-72926440D01*
X63352353Y-73287289D01*
X64289650Y-73664824D01*
X65300077Y-73654933D01*
X66187647Y-73287289D01*
X66396835Y-72926440D01*
X64770000Y-71299605D01*
X63143165Y-72926440D01*
X55251073Y-72926440D01*
X55646480Y-72762657D01*
X55778172Y-72467777D01*
X54610000Y-71299605D01*
X53441828Y-72467777D01*
X51562000Y-72467777D01*
X51562000Y-70791036D01*
X52695739Y-70791036D01*
X52715564Y-71548632D01*
X52967343Y-72156480D01*
X53262223Y-72288172D01*
X54430395Y-71120000D01*
X54789605Y-71120000D01*
X55957777Y-72288172D01*
X56252657Y-72156480D01*
X56524261Y-71448964D01*
X56504436Y-70691368D01*
X56483014Y-70639650D01*
X62225176Y-70639650D01*
X62235067Y-71650077D01*
X62602711Y-72537647D01*
X62963560Y-72746835D01*
X64590395Y-71120000D01*
X64949605Y-71120000D01*
X66576440Y-72746835D01*
X66937289Y-72537647D01*
X67314824Y-71600350D01*
X67304933Y-70589923D01*
X66937289Y-69702353D01*
X66576440Y-69493165D01*
X64949605Y-71120000D01*
X64590395Y-71120000D01*
X62963560Y-69493165D01*
X62602711Y-69702353D01*
X62225176Y-70639650D01*
X56483014Y-70639650D01*
X56252657Y-70083520D01*
X55957777Y-69951828D01*
X54789605Y-71120000D01*
X54430395Y-71120000D01*
X53262223Y-69951828D01*
X52967343Y-70083520D01*
X52695739Y-70791036D01*
X51562000Y-70791036D01*
X51562000Y-69772223D01*
X53441828Y-69772223D01*
X54610000Y-70940395D01*
X55778172Y-69772223D01*
X55646480Y-69477343D01*
X55219833Y-69313560D01*
X63143165Y-69313560D01*
X64770000Y-70940395D01*
X66396835Y-69313560D01*
X66187647Y-68952711D01*
X65250350Y-68575176D01*
X64239923Y-68585067D01*
X63352353Y-68952711D01*
X63143165Y-69313560D01*
X55219833Y-69313560D01*
X54938964Y-69205739D01*
X54181368Y-69225564D01*
X53573520Y-69477343D01*
X53441828Y-69772223D01*
X51562000Y-69772223D01*
X51562000Y-62607265D01*
X52704670Y-62607265D01*
X52994078Y-63307686D01*
X53529495Y-63844039D01*
X54229410Y-64134668D01*
X54987265Y-64135330D01*
X55687686Y-63845922D01*
X56224039Y-63310505D01*
X56463830Y-62733021D01*
X62229560Y-62733021D01*
X62615437Y-63666915D01*
X63329327Y-64382052D01*
X64262546Y-64769559D01*
X65273021Y-64770440D01*
X66206915Y-64384563D01*
X66922052Y-63670673D01*
X67194450Y-63014666D01*
X112697654Y-63014666D01*
X113313250Y-64540145D01*
X113356076Y-64604238D01*
X113882688Y-65007707D01*
X116660395Y-62230000D01*
X117019605Y-62230000D01*
X119797312Y-65007707D01*
X120323924Y-64604238D01*
X120967307Y-63090270D01*
X120982346Y-61445334D01*
X120366750Y-59919855D01*
X120323924Y-59855762D01*
X119797312Y-59452293D01*
X117019605Y-62230000D01*
X116660395Y-62230000D01*
X113882688Y-59452293D01*
X113356076Y-59855762D01*
X112712693Y-61369730D01*
X112697654Y-63014666D01*
X67194450Y-63014666D01*
X67309559Y-62737454D01*
X67310440Y-61726979D01*
X66924563Y-60793085D01*
X66210673Y-60077948D01*
X65277454Y-59690441D01*
X64266979Y-59689560D01*
X63333085Y-60075437D01*
X62617948Y-60789327D01*
X62230441Y-61722546D01*
X62229560Y-62733021D01*
X56463830Y-62733021D01*
X56514668Y-62610590D01*
X56515330Y-61852735D01*
X56225922Y-61152314D01*
X55690505Y-60615961D01*
X54990590Y-60325332D01*
X54232735Y-60324670D01*
X53532314Y-60614078D01*
X52995961Y-61149495D01*
X52705332Y-61849410D01*
X52704670Y-62607265D01*
X51562000Y-62607265D01*
X51562000Y-59272688D01*
X114062293Y-59272688D01*
X116840000Y-62050395D01*
X119617707Y-59272688D01*
X119214238Y-58746076D01*
X117700270Y-58102693D01*
X116055334Y-58087654D01*
X114529855Y-58703250D01*
X114465762Y-58746076D01*
X114062293Y-59272688D01*
X51562000Y-59272688D01*
X51562000Y-57912000D01*
X121158000Y-57912000D01*
X121158000Y-116078000D01*
M02*
