M48
;DRILL file {KiCad 4.0.2-stable} date 8/2/2016 00:37:49
;FORMAT={2:4/ absolute / inch / suppress leading zeros}
FMAT,2
INCH,TZ
T1C0.015
T2C0.020
T3C0.039
T4C0.040
T5C0.067
T6C0.104
T7C0.138
%
G90
G05
M72
T1
X27550Y-24350
X27550Y-24650
X27550Y-24950
X27550Y-25250
X27550Y-25550
X27550Y-25850
X27550Y-27150
X27550Y-27450
X27550Y-27750
X27550Y-28050
X27550Y-28350
X27550Y-28650
X34500Y-25750
X35550Y-29800
X35550Y-30100
X35550Y-30400
X35550Y-30700
X36000Y-28100
X36300Y-28400
X36300Y-40100
X36600Y-28700
X36600Y-37100
X36900Y-29000
X36900Y-38100
X37150Y-33600
X37200Y-39000
X37204Y-35889
X37300Y-34100
X37634Y-35334
X37750Y-41250
X37750Y-41750
X38250Y-41250
X38250Y-41750
X38750Y-33050
X39050Y-31200
X39600Y-29900
X39750Y-33400
X39800Y-39000
X40000Y-39350
X40670Y-36543
X41200Y-23250
X41330Y-33329
X41450Y-31200
X41450Y-38800
X41640Y-33850
X41700Y-23850
X41700Y-24150
X41700Y-24450
X41700Y-24750
X41700Y-25050
X41700Y-25350
X42250Y-36550
X42550Y-38800
X42600Y-35800
X42600Y-41750
X42600Y-43200
X43050Y-41750
X43050Y-43200
X43200Y-32650
X43250Y-36950
X43500Y-41750
X43500Y-43200
X43750Y-43550
X43750Y-44000
X43750Y-44400
X43800Y-40550
X43800Y-41000
X43800Y-41450
X46400Y-30250
X46410Y-28750
X47500Y-26750
T2
X20967Y-39000
X21269Y-38269
X21269Y-39731
X22000Y-37967
X22000Y-40033
X22731Y-38269
X22731Y-39731
X23033Y-39000
X44967Y-24500
X44967Y-44000
X45269Y-23769
X45269Y-25231
X45269Y-43269
X45269Y-44731
X46000Y-23467
X46000Y-25533
X46000Y-42967
X46000Y-45033
X46731Y-23769
X46731Y-25231
X46731Y-43269
X46731Y-44731
X47033Y-24500
X47033Y-44000
T4
X28449Y-32600
X28449Y-33600
X28449Y-34600
X28449Y-35600
X28449Y-36600
X28449Y-37600
X28449Y-38600
X28449Y-39600
X28449Y-40600
X28449Y-41600
X28449Y-42600
X28449Y-43600
X35449Y-32600
X35449Y-33600
X35449Y-34600
X35449Y-35600
X35449Y-36600
X35449Y-37600
X35449Y-38600
X35449Y-39600
X35449Y-40600
X35449Y-41600
X35449Y-42600
X35449Y-43600
X38500Y-27500
X38500Y-29000
X39500Y-27500
X39500Y-29000
X40500Y-27500
X40500Y-29000
X41500Y-27500
X41500Y-29000
X42500Y-27500
X42500Y-29000
X43500Y-27500
X43500Y-29000
X45500Y-33500
X45500Y-34500
X45500Y-35500
X45500Y-36500
X45500Y-37500
X45500Y-38500
X45500Y-39500
X45500Y-40500
X46500Y-33500
X46500Y-34500
X46500Y-35500
X46500Y-36500
X46500Y-37500
X46500Y-38500
X46500Y-39500
X46500Y-40500
T5
X21500Y-24500
X21500Y-28000
X21500Y-31500
X21500Y-35000
T6
X25500Y-24500
X25500Y-28000
X25500Y-31500
X25500Y-35000
T7
X22000Y-39000
X46000Y-24500
X46000Y-44000
T3
X23079Y-43393G85X23079Y-42607
G05
X23867Y-44850G85X24654Y-44850
G05
X25441Y-42607G85X25441Y-43393
G05
T0
M30
